<svg viewBox="0 0 642 502" xmlns="http://www.w3.org/2000/svg" fill-rule="evenodd" clip-rule="evenodd" stroke-miterlimit="1.414"><path fill="none" stroke="#979797" d="M1 1h640v500H1z"/><circle cx="546" cy="326" r="45" fill="#fff" stroke-width="1.29" stroke-linecap="round" stroke-linejoin="round" stroke="#b3b3b3"/><path d="M557.23 303.37c0 3.687-5.06 6.687-11.23 6.687-6.17 0-11.23-3-11.23-6.686 0-3.684 5.06-5.14 11.23-5.14 6.17 0 11.23 1.456 11.23 5.14z" fill="none" stroke-width="1.29" stroke-linecap="round" stroke-linejoin="round" stroke="#b3b3b3"/><g fill="none" stroke-width="1.29" stroke-linecap="round" stroke-linejoin="round" stroke="#ed1e79"><path d="M546 362.77v-35.313c0-11.657 8.914-12.257 10.03-11.57 1.97 1.2.94 2.913.084 4.027-.857 1.115-2.828 2.486-2.828 5.83v22.285c0 1.2 1.114 0 2.143 2.313.94 2.314-1.8 10.028-4.716 11.4-2.314 1.114-4.714 1.028-4.714 1.028z"/><path d="M546 362.77v-35.313c0-11.657-8.914-12.257-10.03-11.57-1.97 1.2-.94 2.913-.084 4.027.857 1.115 2.828 2.486 2.828 5.83v22.285c0 1.2-1.114 0-2.143 2.313-.94 2.314 1.8 10.028 4.716 11.4 2.4 1.114 4.714 1.028 4.714 1.028z"/><path d="M549.77 317.6c-1.027-.514-2.313-.77-3.77-.77-1.457 0-2.743.34-3.77.77"/></g><g fill="none" stroke-width="1.29" stroke-linecap="round" stroke-linejoin="round" stroke="#b3b3b3"><path d="M561.943 325.4s-1.8.6-1.2 2.314c.6 1.715 2.314 1.115 2.314 1.115 2.83-.944 6.172 1.456 7.372 5.313 1.2 3.857-.087 7.714-2.916 8.657 0 0-1.628.943-1.2 2.486.515 1.543 2.315.943 2.315.943 4.627-1.46 6.94-7.373 5.14-13.116-1.8-5.743-7.113-9.17-11.827-7.714z"/><path d="M567.514 286.743c-4.543 7.8-7.8 17.657 1.372 25.628 13.714 12 3.943 18.43 3.943 18.43M529.714 325.4s1.8.6 1.2 2.314c-.6 1.715-2.314 1.115-2.314 1.115-2.83-.944-6.17 1.456-7.37 5.313-1.2 3.857.084 7.714 2.913 8.657 0 0 1.628.943 1.2 2.486-.514 1.543-2.314.943-2.314.943-4.63-1.46-6.944-7.373-5.144-13.116 1.8-5.743 7.114-9.17 11.828-7.714z"/><path d="M524.143 286.743c4.543 7.8 7.8 17.657-1.372 25.628-13.713 12-3.94 18.43-3.94 18.43"/></g><path d="M563.072 328.918c2.84-.908 6.138 1.464 7.363 5.294 1.225 3.83-.084 7.676-2.923 8.584-2.838.908-6.137-1.464-7.363-5.293-1.226-3.83.084-7.676 2.922-8.585zM524.19 342.74c-2.84-.908-4.148-4.754-2.923-8.584 1.225-3.83 4.524-6.202 7.363-5.294 2.838.91 4.148 4.755 2.923 8.585-1.225 3.83-4.525 6.2-7.363 5.293z" fill="none" stroke-width="1.29" stroke-linecap="round" stroke-linejoin="round" stroke="#b3b3b3"/><path d="M320.007 415.68l156.674-88.984h69.046" fill="none" stroke-width=".75" stroke-linecap="round" stroke-linejoin="round" stroke="#000"/><circle cx="319.285" cy="416.341" r="5" fill="#d93e3e"/><g><circle cx="546" cy="176" r="45" fill="#fff" stroke-width="1.29" stroke-linecap="round" stroke-linejoin="round" stroke="#b3b3b3"/><path d="M557.23 153.37c0 3.687-5.06 6.687-11.23 6.687-6.17 0-11.23-3-11.23-6.686 0-3.684 5.06-5.14 11.23-5.14 6.17 0 11.23 1.456 11.23 5.14z" fill="none" stroke-width="1.29" stroke-linecap="round" stroke-linejoin="round" stroke="#b3b3b3"/><g fill="none" stroke-width="1.29" stroke-linecap="round" stroke-linejoin="round" stroke="#b3b3b3"><path d="M546 212.77v-35.313c0-11.657 8.914-12.257 10.03-11.57 1.97 1.2.94 2.913.084 4.027-.857 1.115-2.828 2.486-2.828 5.83v22.285c0 1.2 1.114 0 2.143 2.313.94 2.314-1.8 10.028-4.716 11.4-2.4 1.114-4.714 1.028-4.714 1.028z"/><path d="M546 212.77v-35.313c0-11.657-8.914-12.257-10.114-11.57-1.972 1.2-.943 2.913-.086 4.027.857 1.115 2.83 2.486 2.83 5.83v22.285c0 1.2-1.116 0-2.144 2.313-.943 2.314 1.8 10.028 4.714 11.4 2.4 1.114 4.8 1.028 4.8 1.028z"/><path d="M549.686 167.6c-1.03-.514-2.315-.77-3.772-.77-1.457 0-2.743.34-3.77.77"/></g><g fill="none" stroke-width="1.29" stroke-linecap="round" stroke-linejoin="round" stroke="#b3b3b3"><path d="M561.943 175.4s-1.8.6-1.2 2.314c.6 1.715 2.314 1.115 2.314 1.115 2.83-.944 6.172 1.456 7.372 5.313 1.2 3.857-.087 7.714-2.916 8.657 0 0-1.628.943-1.2 2.486.515 1.543 2.315.943 2.315.943 4.627-1.46 6.94-7.373 5.14-13.116-1.8-5.743-7.2-9.17-11.827-7.714z"/><path d="M567.43 136.743c-4.544 7.8-7.8 17.657 1.37 25.628 13.714 12 3.943 18.43 3.943 18.43M529.63 175.4s1.8.6 1.2 2.314c-.6 1.715-2.316 1.115-2.316 1.115-2.828-.944-6.17 1.456-7.37 5.313-1.2 3.857.085 7.714 2.913 8.657 0 0 1.63.943 1.2 2.486-.514 1.543-2.314.943-2.314.943-4.63-1.46-6.943-7.373-5.143-13.116 1.8-5.743 7.2-9.17 11.83-7.714z"/><path d="M524.143 136.743c4.543 7.8 7.8 17.657-1.372 25.628-13.713 12-3.94 18.43-3.94 18.43"/></g><path d="M563.07 178.906c2.84-.908 6.138 1.464 7.363 5.293 1.225 3.83-.084 7.675-2.923 8.584-2.838.908-6.137-1.464-7.363-5.294-1.225-3.83.085-7.676 2.923-8.584zM524.11 192.728c-2.84-.908-4.15-4.755-2.924-8.585 1.225-3.83 4.525-6.2 7.363-5.293 2.837.908 4.147 4.755 2.922 8.584-1.225 3.83-4.524 6.202-7.363 5.294z" fill="none" stroke-width="1.29" stroke-linecap="round" stroke-linejoin="round" stroke="#ed1e79"/><path d="M328.41 400.21L475.2 175.655h71.708" fill="none" stroke-width=".75" stroke-linecap="round" stroke-linejoin="round" stroke="#000"/><circle cx="328.285" cy="400.341" r="5" fill="#d93e3e"/></g><g><g stroke-width="1.29" stroke-linecap="round" stroke-linejoin="round"><circle cx="95" cy="324.5" r="45" fill="#fff" stroke="#b3b3b3"/><path d="M84.114 323.814s2.657-5.143 5.657-7.543c2.66-2.056 5.487-3.427 5.487-3.427l-5.143-1.8s-.257-1.03 1.2-2.23c1.457-1.2 2.915-1.37 2.915-1.37s2.484.343 3.856.943c2.057.943 3.17 2.057 3.17 2.057s2.573-.686 6.6-.6c3.858.086 9.344.943 8.315 5.486-1.027 4.456-3.684 1.97-6.17 1.627-2.657-.343-5.743.857-7.63 2.83M78.2 328.443c.857 3 1.714 6.086 3.17 8.828 1.46 2.744 3.687 5.23 6.6 6.516.86.343 1.8.6 2.744 1.028 1.63.686 3.172 1.63 4.543 2.915" fill="none" stroke="#b3b3b3"/><path d="M103.057 319.786c3.514 2.143 5.486 6.085 6.772 10.028.34 1.03.6 2.057.684 3.172.086 1.885-.514 3.857-1.543 5.4-1.027 1.543-2.57 2.828-4.284 3.685-.515.26-1.115.516-1.715.773M114.543 348.5c-.43-1.2-1.286-2.23-2.314-3-1.03-.77-2.23-1.286-3.43-1.8M108.63 338.643c.256 4.286-.43 8.57-1.887 12.6M85.486 342.07c.857-1.027 1.97-1.8 3.257-2.227 2.657-.772 5.57.257 8.228-.514M115.143 311.9c-.686-.257-1.372.086-1.972.43-.94.684-1.627 1.8-1.627 3s.77 2.4 1.886 2.656M80.686 311.3c.17-3 1.714-5.914 3.943-7.97 2.227-2.06 5.14-3.26 8.227-3.6 3.257-.43 6.686.084 9.343 1.97s4.543 4.97 4.286 8.23M109.486 316.957c1.885 1.03 3 3.343 2.743 5.486" fill="none" stroke="#b3b3b3"/><path d="M91.4 315.157c-3.343-3-7.37-4.114-11.057-3.686-2.83-4.97-.343-10.2.514-15.427.686-4.543.686-9.43.086-14.314M74.514 339.157c-.685-1.37-1.2-2.743-1.714-4.114-1.114-3.172-1.543-6.514-1.63-9.857-.084-3.772 1.46-8.143-.34-11.743-1.46-2.83-4.716-4.714-7.544-5.743-3.086-1.114-6.515-1.286-9.772-.943M56.77 300.67c1.973 0 3.944.173 5.83.6.943.173 1.8.43 2.743.6 2.057.43 4.457.6 6.17-.856 2.916-2.314 3.516-7.114 3.944-10.628.257-2.143.257-4.286.086-6.515M95.686 299.47c2.143-3.684 4.37-7.37 7.2-10.627 2.228-2.572 4.714-4.886 7.543-6.6M100.57 300.757c2.144-3.428 4.373-6.77 7.03-9.686 2.4-2.57 5.143-4.884 8.314-6.427" fill="none" stroke="#b3b3b3"/><path d="M102.37 319.786c-1.884 1.97-4.027 7.114-4.027 7.114s-3.772-1.457-6.686-2.057c-3.428-.772-7.543-1.03-7.543-1.03s-4.028 1.973-6 4.973c-2.143 3.257-3 5.485-3.6 10.37 1.886 3.858 4.543 7.458 7.8 10.287 7.115 6.343 20.486 12.514 26.572 11.143 6.257-1.372 10.37-13.2 9.77-25.2-.6-11.143-8.827-15.857-15.942-15.6" fill="none" stroke="#ed1e79"/></g><path d="M340 236l-192.35 96H60" fill="none" stroke-width=".75" stroke-linecap="round" stroke-linejoin="round" stroke="#000"/><circle cx="340" cy="236" r="5" fill="#d93e3e"/><g><g stroke-width="1.29" stroke-linecap="round" stroke-linejoin="round"><circle cx="95" cy="177.5" r="45" fill="#fff" stroke="#b3b3b3"/><g fill="none" stroke="#b3b3b3"><circle cx="101.086" cy="201.586" r="2.4"/><circle cx="115.829" cy="192.243" r="2.4"/><circle cx="126.114" cy="199.871" r="2.4"/><circle cx="111.286" cy="209.471" r="2.4"/><circle cx="72.286" cy="205.614" r="2.4"/><circle cx="66.286" cy="191.471" r="2.4"/><circle cx="82.914" cy="197.3" r="2.4"/><circle cx="90.371" cy="213.929" r="2.4"/><path d="M103.743 183.5v-5.23c0-1.97 1.628-3.6 3.6-3.6 1.97 0 3.6 1.63 3.6 3.6v1.63c0 1.97 1.628 3.6 3.6 3.6 1.97 0 3.6-1.63 3.6-3.6v-1.63c0-1.97 1.628-3.6 3.6-3.6 1.97 0 3.6 1.63 3.6 3.6v1.63c0 1.97 1.628 3.6 3.6 3.6 1.97 0 3.6-1.63 3.6-3.6v-1.63c0-1.97 1.628-3.6 3.6-3.6 1.97 0 3.686 1.63 3.686 3.6M86.343 183.5v-5.23c0-1.97-1.63-3.6-3.6-3.6-1.972 0-3.6 1.63-3.6 3.6v1.63c0 1.97-1.63 3.6-3.6 3.6-1.972 0-3.6-1.63-3.6-3.6v-1.63c0-1.97-1.63-3.6-3.6-3.6-1.972 0-3.6 1.63-3.6 3.6v1.63c0 1.97-1.63 3.6-3.6 3.6-1.972 0-3.6-1.63-3.6-3.6v-1.63c0-1.97-1.63-3.6-3.6-3.6-1.972 0-3.686 1.63-3.686 3.6M99.714 184.957c0 2.572-2.057 4.63-4.628 4.63-2.572 0-4.63-2.058-4.63-4.63 0-4.2 2.4-4.028 2.915-10.286 1.2-12.77 1.716-32.74 1.716-32.74s.343 20.14 1.714 32.74c.6 6.344 2.914 6.26 2.914 10.287z"/></g><path d="M52.486 162.757H82.23c3.427 0 6.17 2.743 6.17 6.172l-2.314 16.284c0 4.886 3.943 8.915 8.914 8.915 4.886 0 8.914-3.944 8.914-8.916L101.6 168.93c0-3.43 2.743-6.173 6.17-6.173h29.744" fill="none" stroke="#ed1e79"/></g><circle cx="252" cy="165" r="5" fill="#d93e3e"/><path d="M254 165l-96.786 10.63H111" fill="none" stroke-width=".75" stroke-linecap="round" stroke-linejoin="round" stroke="#000"/></g></g></svg>