<svg xmlns="http://www.w3.org/2000/svg" viewBox="0 0 122 122" class="svg-slider-category">
  <g fill="none" stroke="#363840" transform="translate(-1728 -2001)">
    <g transform="translate(1729 2002)">
      <path d="M-1.98020107e-15,60 C3.04310311e-15,93.137085 26.862915,120 60,120 C93.137085,120 120,93.137085 120,60 C120,26.862915 93.137085,2.18404529e-15 60,0 C26.862915,-2.07484303e-15 -1.02795732e-14,26.862915 -1.42108547e-14,60"/>
      <path d="M22.6229508 55.5737705C22.6229508 74.3152366 37.8159109 89.5081967 56.557377 89.5081967 75.2988431 89.5081967 90.4918033 74.3152366 90.4918033 55.5737705 90.4918033 36.8323044 75.2988431 21.6393443 56.557377 21.6393443 37.8159109 21.6393443 22.6229508 36.8323044 22.6229508 55.5737705M78.0491803 81.5901639L94.675082 98.2740984M84.4583607 47.197377C81.3147541 37.597377 73.5442623 30.092459 63.7809836 27.3206557M46.3770492 47.6557377L65.64 66.9186885M66.3757377 47.3055738L47.797377 67.2295082"/>
    </g>
  </g>
</svg>
