<svg xmlns="http://www.w3.org/2000/svg" viewBox="0 0 122 122" class="svg-slider-category">
  <g fill="none" stroke="#313B56" transform="translate(-2339 -2024)">
    <g transform="translate(2340 2025)">
      <path d="M0,60 C4.05812251e-15,93.137085 26.862915,120 60,120 C93.137085,120 120,93.137085 120,60 C120,26.862915 93.137085,2.02906125e-15 60,0 C26.862915,-2.02906125e-15 4.05812251e-15,26.862915 0,60"/>
      <path d="M29.9645902,33.0836066 C29.9645902,28.942623 33.3344262,25.5737705 37.4744262,25.5737705 L83.5495082,25.5737705 C87.6904918,25.5737705 91.0593443,28.9436066 91.0593443,33.0836066 L91.0593443,90.1101639 C91.0593443,94.2511475 87.6895082,97.62 83.5495082,97.62 L37.4754098,97.62 C33.3344262,97.62 29.9645902,94.2501639 29.9645902,90.1101639 L29.9645902,33.0836066 Z M35.2859016,42.1908197 L22.6406557,42.1908197 L35.2859016,42.1908197 Z M35.2868852,54.7868852 L22.6396721,54.7868852 L35.2868852,54.7868852 Z M35.2868852,68.3704918 L22.6396721,68.3704918 L35.2868852,68.3704918 Z M22.6396721,81.0059016 L35.2868852,81.0059016 L22.6396721,81.0059016 Z M44.284918,77.8878689 C44.3567213,78.3796721 44.7796721,78.7436066 45.2763934,78.7436066 L77.2672131,78.7436066 C77.7639344,78.7436066 78.1859016,78.3796721 78.2586885,77.8878689 C78.3078689,77.5436066 79.4311475,69.3777049 75.1839344,64.4714754 C73.1547541,62.127541 70.2678689,60.9403279 66.604918,60.9403279 C66.3393443,60.9403279 66.1160656,61.0701639 65.9331148,61.2491803 L65.9085246,61.222623 C65.8908197,61.2403279 64.1380328,62.8947541 61.2757377,62.8947541 C58.4134426,62.8947541 56.6586885,61.2403279 56.644918,61.2265574 L56.6193443,61.2531148 C56.4363934,61.0721311 56.2111475,60.9383607 55.9445902,60.9383607 C52.2816393,60.9383607 49.3937705,62.1285246 47.3655738,64.4714754 C43.1163934,69.3796721 44.2377049,77.5436066 44.2868852,77.8878689 L44.284918,77.8878689 Z M61.2718033,64.8944262 C62.4501639,64.8944262 63.4593443,64.6681967 64.3170492,64.3701639 L61.2708197,70.6790164 L58.2236066,64.3691803 C59.0822951,64.6691803 60.092459,64.8954098 61.2708197,64.8954098 L61.2718033,64.8944262 Z M70.6239344,49.9239344 C70.6239344,44.7668852 66.4298361,40.5727869 61.2737705,40.5727869 C56.1177049,40.5727869 51.9196721,44.7668852 51.9196721,49.9229508 C51.9196721,55.08 56.1177049,59.2770492 61.2737705,59.2770492 C66.4298361,59.2770492 70.624918,55.08 70.624918,49.9229508 L70.6239344,49.9239344 Z"/>
    </g>
  </g>
</svg>
