<svg xmlns="http://www.w3.org/2000/svg" viewBox="0 0 121 121" class="svg-slider-category">
  <g fill="none" stroke="#363840" transform="translate(-2173 -1857)">
    <g transform="translate(2173 1858)">
      <path d="M0.87804878,59.7073171 C0.87804878,92.5749949 27.5225661,119.219512 60.3902439,119.219512 C93.2579217,119.219512 119.902439,92.5749949 119.902439,59.7073171 C119.902439,26.8396393 93.2579217,0.195121951 60.3902439,0.195121951 C27.5225661,0.195121951 0.87804878,26.8396393 0.87804878,59.7073171"/>
      <path d="M0.87804878,59.7073171 C0.87804878,92.5749949 27.5225661,119.219512 60.3902439,119.219512 C93.2579217,119.219512 119.902439,92.5749949 119.902439,59.7073171 C119.902439,26.8396393 93.2579217,0.195121951 60.3902439,0.195121951 C27.5225661,0.195121951 0.87804878,26.8396393 0.87804878,59.7073171"/>
      <path d="M46.9268293,96.9756098 L46.5365854,96.8780488 C37.8536585,93.9512195 33.1707317,84.4878049 36.195122,75.902439 L50.4390244,33.9512195 C53.3658537,25.2682927 62.8292683,20.5853659 71.4146341,23.6097561 L71.804878,23.7073171 C80.4878049,26.6341463 85.1707317,36.097561 82.1463415,44.6829268 L67.902439,86.6341463 C65.0731707,95.2195122 55.6097561,99.902439 46.9268293,96.9756098 Z M43.1219512,55.5121951 L74.9268293,65.5609756 L43.1219512,55.5121951 Z M46.8292683,60.4878049 C46.8292683,60.4878049 42.3414634,74.8292683 41.0731707,79.1219512 C39.804878,83.4146341 42.5365854,89.6585366 47.5121951,91.902439"/>
    </g>
  </g>
</svg>
