<svg xmlns="http://www.w3.org/2000/svg" viewBox="0 0 121 121" class="svg-slider-category">
  <g fill="none" stroke="#363840" transform="translate(-1578 -1999)">
    <g transform="translate(1578 1999)">
      <path d="M88.6829268,47.902439 L89.5609756,43.804878 L93.6585366,44.6829268 L97.2682927,27.6097561 L39.5121951,15.2195122 L35.804878,32.2926829 L39.902439,33.1707317 L39.0243902,37.2682927 L34.9268293,36.3902439 L22.9268293,92.5853659 L80.7804878,104.97561 L92.7804878,48.7804878 L88.6829268,47.902439 Z M41.8536585,35.6097561 L47.0243902,36.6829268 L41.8536585,35.6097561 Z M51.804878,37.7560976 L57.0731707,38.8292683 L51.804878,37.7560976 Z M61.7560976,39.902439 L67.0243902,40.9756098 L61.7560976,39.902439 Z M71.804878,41.9512195 L76.9756098,43.1219512 L71.804878,41.9512195 Z M81.7560976,44.097561 L87.0243902,45.2682927 L81.7560976,44.097561 Z"/>
      <path d="M88.6829268,47.902439 L89.5609756,43.804878 L93.6585366,44.6829268 L97.2682927,27.6097561 L39.5121951,15.2195122 L35.804878,32.2926829 L39.902439,33.1707317 L39.0243902,37.2682927 L34.9268293,36.3902439 L22.9268293,92.5853659 L80.7804878,104.97561 L92.7804878,48.7804878 L88.6829268,47.902439 Z M41.8536585,35.6097561 L47.0243902,36.6829268 L41.8536585,35.6097561 Z M51.804878,37.7560976 L57.0731707,38.8292683 L51.804878,37.7560976 Z M61.7560976,39.902439 L67.0243902,40.9756098 L61.7560976,39.902439 Z M71.804878,41.9512195 L76.9756098,43.1219512 L71.804878,41.9512195 Z M81.7560976,44.097561 L87.0243902,45.2682927 L81.7560976,44.097561 Z"/>
      <path d="M50.5073171 28.0195122L81.7970732 34.7180488 69.484878 92.24 38.195122 85.5434146z"/>
      <path d="M0.585365854,60.097561 C0.585365537,81.3592207 11.9283258,101.005805 30.3414632,111.636635 C48.7546005,122.267464 71.4405214,122.267464 89.8536588,111.636635 C108.266796,101.005805 119.609756,81.3592207 119.609756,60.097561 C119.609756,27.2298832 92.9652388,0.585365854 60.097561,0.585365854 C27.2298832,0.585365854 0.585365854,27.2298832 0.585365854,60.097561"/>
    </g>
  </g>
</svg>
