<svg xmlns="http://www.w3.org/2000/svg" viewBox="0 0 122 122" class="svg-slider-category">
  <g fill="none" stroke="#2A2C35" transform="translate(-2029 -1723)">
    <g transform="translate(2030 1724)">
      <path d="M60,120 C93.137,120 120,93.137 120,60 C120,26.863 93.137,0 60,0 C26.863,0 0,26.863 0,60 C0,93.137 26.863,120 60,120 Z"/>
      <path d="M53.816 94.892C68.202 94.892 79.863 83.232 79.863 68.846 79.863 54.461 68.203 42.799 53.816 42.799 39.43 42.799 27.769 54.459 27.769 68.845 27.769 83.23 39.429 94.891 53.815 94.891L53.816 94.892zM72.036 50.627L91.328 31.332M79.538 31.332L91.328 31.332 91.328 43.124"/>
    </g>
  </g>
</svg>
