<svg xmlns="http://www.w3.org/2000/svg" viewBox="0 0 122 122" class="svg-slider-category">
  <g fill="none" stroke="#2A2C35" transform="translate(-1717 -1722)">
    <g transform="translate(1718 1723)">
      <path d="M60,120 C93.137,120 120,93.137 120,60 C120,26.863 93.137,0 60,0 C26.863,0 0,26.863 0,60 C0,93.137 26.863,120 60,120 Z"/>
      <path d="M49.228 83.34C63.178 83.34 74.488 72.032 74.488 58.082 74.488 44.132 63.178 32.825 49.228 32.825 35.278 32.825 23.968 44.133 23.968 58.082 23.968 72.032 35.278 83.34 49.228 83.34zM66.896 40.416L85.603 21.706M74.173 21.706L85.603 21.706 85.603 33.14"/>
      <path d="M65.478,89.494 C76.503,89.494 85.442,80.664 85.442,69.774 C85.442,58.884 76.504,50.054 65.478,50.054 C54.453,50.054 45.514,58.884 45.514,69.774 C45.514,80.664 54.454,89.494 65.478,89.494 Z M66.453,88.954 L66.453,107.591 L66.453,88.954 Z M57.277,97.198 L76.144,97.198 L57.278,97.198 L57.277,97.198 Z"/>
    </g>
  </g>
</svg>
