<svg xmlns="http://www.w3.org/2000/svg" viewBox="0 0 122 122" class="svg-slider-category">
  <g fill="none" stroke="#2A2C35" transform="translate(-1572 -1720)">
    <g transform="translate(1573 1721)">
      <path d="M60,120 C93.137,120 120,93.137 120,60 C120,26.863 93.137,0 60,0 C26.863,0 0,26.863 0,60 C0,93.137 26.863,120 60,120 Z"/>
      <path d="M56.948 67.574L65.488 67.574 67.908 61.836 67.908 77.166 72.928 55.906 72.795 71.986 75.795 64.328 86.39 64.328"/>
      <path d="M96.685,64.536 L60.057,101.176 L23.429,64.536 C16.661,57.766 16.661,46.584 23.429,39.816 C26.664,36.578 31.077,34.666 35.784,34.666 C40.491,34.666 44.904,36.43 48.14,39.816 L58.29,49.966 L51.23,57.178 C50.79,57.618 50.79,58.503 51.23,58.943 C51.524,59.237 51.82,59.237 52.113,59.237 C52.407,59.237 52.701,59.091 52.995,58.943 L60.938,50.998 L71.97,39.963 C75.207,36.725 79.62,34.811 84.327,34.811 C89.034,34.811 93.447,36.578 96.683,39.964 C103.597,46.584 103.597,57.767 96.683,64.536 L96.685,64.536 Z"/>
    </g>
  </g>
</svg>
