<svg xmlns="http://www.w3.org/2000/svg" viewBox="0 0 121 121" class="svg-slider-category">
  <g fill="none" stroke="#363840" transform="translate(-2026 -1860)">
    <g transform="translate(2026 1860)">
      <path d="M0.585365854,60.097561 C0.585365537,81.3592207 11.9283258,101.005805 30.3414632,111.636635 C48.7546005,122.267464 71.4405214,122.267464 89.8536588,111.636635 C108.266796,101.005805 119.609756,81.3592207 119.609756,60.097561 C119.609756,27.2298832 92.9652388,0.585365854 60.097561,0.585365854 C27.2298832,0.585365854 0.585365854,27.2298832 0.585365854,60.097561"/>
      <path d="M0.585365854,60.097561 C0.585365537,81.3592207 11.9283258,101.005805 30.3414632,111.636635 C48.7546005,122.267464 71.4405214,122.267464 89.8536588,111.636635 C108.266796,101.005805 119.609756,81.3592207 119.609756,60.097561 C119.609756,27.2298832 92.9652388,0.585365854 60.097561,0.585365854 C27.2298832,0.585365854 0.585365854,27.2298832 0.585365854,60.097561"/>
      <path d="M45.7521951,39.8087805 C45.7004878,37.6497561 47.4039024,35.9004878 49.5609756,35.9004878 L95.1082927,35.9004878 C97.262439,35.9004878 99.0107317,37.6517073 99.0107317,39.8087805 L99.0107317,69.3365854 C99.0107317,71.4956098 97.262439,73.244878 95.1034146,73.244878 L86.4487805,73.244878 L86.4487805,82.4995122 L77.6917073,73.742439 L50.444878,73.3073171 C48.2926829,73.2731707 46.5063415,71.4926829 46.4546341,69.3365854 L45.7541463,39.8087805 L45.7521951,39.8087805 Z M55.5960976,47.1531707 L89.7814634,47.1531707 L55.5960976,47.1531707 Z M55.5960976,53.982439 L89.7814634,53.982439 L55.5960976,53.982439 Z M55.5960976,61.7873171 L89.7814634,61.7873171 L55.5960976,61.7873171 Z"/>
      <path d="M38.6545775,48.7629268 L27.165111,48.7629268 C25.0088848,48.7629268 23.262439,50.5092683 23.262439,52.675122 L23.262439,82.0546341 C23.262439,84.2146341 25.0088848,86.0497561 27.1612084,86.1521951 L35.916853,86.5717073 L35.916853,96.0546341 L44.1885664,86.7434146 L69.3734846,86.7434146 C70.9911421,86.7434146 72.3024399,85.4263415 72.3024399,83.8185366 L72.3024399,79.2878049"/>
    </g>
  </g>
</svg>
