<svg xmlns="http://www.w3.org/2000/svg" viewBox="0 0 124 124">
  <g fill="none" stroke="#363840" transform="translate(-1916 -2013)">
    <g transform="translate(1917 2014)">
      <path d="M0,61 C4.12575788e-15,94.6893697 27.3106303,122 61,122 C94.6893697,122 122,94.6893697 122,61 C122,27.3106303 94.6893697,2.06287894e-15 61,0 C27.3106303,-2.06287894e-15 4.12575788e-15,27.3106303 0,61"/>
      <path d="M93.654,97.21 L28.532,97.21 C27.947,97.21 27.389,96.972 26.986,96.548 C26.583,96.125 26.371,95.555 26.4,94.971 L29.063,41.159 C29.119,40.022 30.057,39.129 31.195,39.129 L89.65,39.129 C90.77,39.129 91.697,39.993 91.78,41.107 L95.746,94.65 C95.774,94.787 95.788,94.93 95.788,95.076 C95.788,96.256 94.833,97.211 93.654,97.211 L93.654,97.21 Z"/>
      <path d="M47.138,52.556 C47.138,54.022 45.948,55.213 44.483,55.213 C43.013,55.213 41.821,54.021 41.821,52.556 C41.821,51.086 43.014,49.896 44.484,49.896 C45.948,49.896 47.139,51.088 47.139,52.556 L47.138,52.556 Z M80.347,52.556 C80.347,54.022 79.157,55.213 77.695,55.213 C76.222,55.213 75.032,54.021 75.032,52.556 C75.032,51.086 76.222,49.896 77.695,49.896 C79.157,49.896 80.347,51.088 80.347,52.556 Z M61.08,21.762 L61.09,21.762 L61.08,21.762 Z M79.82,36.234 C79.82,25.9 71.416,17.494 61.09,17.494 L61.08,17.494 C50.753,17.494 42.35,25.9 42.35,36.234 L79.82,36.234 Z"/>
    </g>
  </g>
</svg>
