<svg xmlns="http://www.w3.org/2000/svg" viewBox="0 0 122 122">
  <g fill="none" stroke="#2A2C35" transform="translate(-1583 -1860)">
    <g transform="translate(1584 1861)">
      <path d="M-1.98020107e-15,60 C3.04310311e-15,93.137085 26.862915,120 60,120 C93.137085,120 120,93.137085 120,60 C120,26.862915 93.137085,2.18404529e-15 60,0 C26.862915,-2.07484303e-15 -1.02795732e-14,26.862915 -1.42108547e-14,60"/>
      <path d="M22.6229508 55.5737705C22.6229508 74.3152366 37.8159109 89.5081967 56.557377 89.5081967 75.2988431 89.5081967 90.4918033 74.3152366 90.4918033 55.5737705 90.4918033 36.8323044 75.2988431 21.6393443 56.557377 21.6393443 37.8159109 21.6393443 22.6229508 36.8323044 22.6229508 55.5737705M76.7213115 81.2163934L94.0111475 100.095738"/>
    </g>
  </g>
</svg>
