<svg xmlns="http://www.w3.org/2000/svg" viewBox="0 0 49 49">
  <g fill="none" fill-rule="evenodd" transform="translate(-325 -4090)">
    <g transform="translate(326 4091)">
      <circle cx="23.5" cy="23.5" r="23.5" fill="#313B56" stroke="#313B56" stroke-width="2"/>
      <path fill="#FFF" stroke="#FFF" d="M25.3093672,16.9430156 C24.8832988,15.753875 24.9646133,14.3850918 25.5491328,13.2618262 C26.3163223,11.7874492 27.931168,10.8013828 29.5951172,10.7852168 C29.6249668,10.7851562 29.6249668,10.7851562 29.6547559,10.7852168 C31.3259707,10.8014434 32.9356094,11.7913848 33.7007402,13.2618262 C34.3555547,14.5201719 34.3803789,16.086459 33.7631641,17.3669648 C32.9095137,19.1379004 30.8465,20.2478457 28.841127,19.9013965 C27.6046387,19.6877266 26.4767109,18.9340996 25.783873,17.8886367 L17.6897852,21.9356504 C18.0481016,22.9371562 18.0499785,24.0652051 17.6903301,25.0681641 L25.783752,29.114875 C26.6162109,27.8631289 28.0854414,27.0501055 29.5951172,27.0354531 C29.6249668,27.035332 29.6249668,27.035332 29.6547559,27.0354531 C31.3259707,27.0516797 32.9356094,28.0416211 33.7007402,29.512002 C34.3555547,30.7704082 34.3803789,32.3366348 33.7631641,33.6172012 C32.9095137,35.3881367 30.8465,36.498082 28.841127,36.1516328 C27.4073164,35.903875 26.1195449,34.9300391 25.486709,33.6172012 C24.9577109,32.5195469 24.9000098,31.2074355 25.3099121,30.0607988 L17.2147949,26.0132402 C16.2384766,27.4745996 14.3914336,28.3375742 12.5909512,28.0264844 C11.1570801,27.7787871 9.86930859,26.8049512 9.2365332,25.4921133 C8.62077148,24.2145742 8.64353711,22.6464102 9.29889648,21.3869141 C10.0661465,19.9125371 11.6809316,18.9264707 13.3448809,18.9103652 C13.3747305,18.9102441 13.3747305,18.9102441 13.4045801,18.9103652 C14.9204316,18.9250176 16.385666,19.7408867 17.2158848,20.9897871 L25.3093672,16.9430156 Z M29.6022617,28.0933887 C28.312916,28.1058613 27.0772754,28.8672988 26.4876699,30.000373 C25.9836172,30.9688809 25.9656348,32.174127 26.4397773,33.157832 C27.0970742,34.5215898 28.6841895,35.3759668 30.2286191,35.1090762 C31.686043,34.8572617 32.918293,33.593043 33.1241523,32.1214512 C33.2799395,31.0082363 32.8680391,29.8288437 32.0467813,29.054873 C31.4048027,28.4498281 30.5343203,28.1019863 29.6476113,28.0933887 C29.6249668,28.0933281 29.6249668,28.0933281 29.6022617,28.0933887 Z M13.3520254,19.9683008 C12.0626797,19.9807734 10.8270391,20.7421504 10.2374336,21.8752852 C9.73344141,22.843793 9.71539844,24.0489785 10.189541,25.0327441 C10.8468379,26.3964414 12.4339531,27.2508789 13.9783828,26.9839883 C15.4358066,26.7321133 16.6680566,25.4679551 16.8739766,23.9963027 C17.0297031,22.8830879 16.6178027,21.7037559 15.7965449,20.9297852 C15.1545664,20.3246797 14.2841445,19.9768984 13.397375,19.9683008 C13.3747305,19.9681797 13.3747305,19.9681797 13.3520254,19.9683008 Z M29.6022617,11.8431523 C28.312916,11.8556855 27.0772754,12.6170625 26.4876699,13.7501973 C25.9836172,14.7187051 25.9656348,15.9238906 26.4397773,16.9075957 C27.0970742,18.2713535 28.6841895,19.125791 30.2286191,18.8589004 C31.686043,18.6070254 32.918293,17.3428066 33.1241523,15.8712148 C33.2799395,14.758 32.8680391,13.5786074 32.0467813,12.8046367 C31.4048027,12.1995918 30.5343203,11.85175 29.6476113,11.8431523 C29.6249668,11.8430918 29.6249668,11.8430918 29.6022617,11.8431523 Z"/>
    </g>
  </g>
</svg>
