<svg xmlns="http://www.w3.org/2000/svg" viewBox="0 0 122 122" class="svg-slider-category">
  <g fill="none" stroke="#363840" transform="translate(-2168 -1717)">
    <g transform="translate(2169 1718)">
      <path d="M0,60 C4.05812251e-15,93.137085 26.862915,120 60,120 C93.137085,120 120,93.137085 120,60 C120,26.862915 93.137085,2.02906125e-15 60,0 C26.862915,-2.02906125e-15 4.05812251e-15,26.862915 0,60"/>
      <path d="M0,60 C4.05812251e-15,93.137085 26.862915,120 60,120 C93.137085,120 120,93.137085 120,60 C120,26.862915 93.137085,2.02906125e-15 60,0 C26.862915,-2.02906125e-15 4.05812251e-15,26.862915 0,60"/>
      <path d="M62.9901639,95.3331148 L62.9901639,103.020984 M31.9888525,47.3036066 C31.9888525,32.4954098 44.464918,20.4491803 59.8003279,20.4491803 C75.1367213,20.4491803 87.6137705,32.4963934 87.6137705,47.3036066 C87.6137705,54.5429508 84.7219672,61.2885246 79.467541,66.3609836 L69.72,75.7740984 C65.3793443,79.9642623 62.9901639,85.5334426 62.9921311,91.4596721 M58.1527869,91.4596721 L58.1527869,91.4616393"/>
    </g>
  </g>
</svg>
