<svg xmlns="http://www.w3.org/2000/svg" viewBox="0 0 122 122"  class="svg-slider-category">
<g fill="none" stroke="#2A2C35" transform="translate(-1881 -1722)">
  <g transform="translate(1882 1723)">
    <path d="M60,120 C93.137,120 120,93.137 120,60 C120,26.863 93.137,0 60,0 C26.863,0 0,26.863 0,60 C0,93.137 26.863,120 60,120 Z"/>
    <path d="M59.55,75.503 C74.187,75.503 86.053,63.783 86.053,49.323 C86.053,34.867 74.187,23.145 59.551,23.145 C44.916,23.145 33.049,34.865 33.049,49.325 C33.049,63.782 44.915,75.503 59.552,75.503 L59.55,75.503 Z M60.845,75.445 L60.845,100.189 L60.845,75.444 L60.845,75.445 Z M48.665,86.39 L73.71,86.39 L48.665,86.39 Z"/>
  </g>
</g>
</svg>
