<svg xmlns="http://www.w3.org/2000/svg" viewBox="0 0 630 500" xmlns:xlink="http://www.w3.org/1999/xlink">
  <defs>
    <filter id="a" width="343.8%" height="343.8%" x="-121.9%" y="-121.9%" filterUnits="objectBoundingBox">
      <feGaussianBlur in="SourceGraphic" stdDeviation="6.502"/>
    </filter>
    <filter id="b" width="316.7%" height="316.7%" x="-108.4%" y="-108.4%" filterUnits="objectBoundingBox">
      <feGaussianBlur in="SourceGraphic" stdDeviation="6.502"/>
    </filter>
    <filter id="c" width="316.7%" height="316.7%" x="-108.4%" y="-108.4%" filterUnits="objectBoundingBox">
      <feGaussianBlur in="SourceGraphic" stdDeviation="6.502"/>
    </filter>
    <filter id="d" width="345.6%" height="345.6%" x="-122.8%" y="-122.8%" filterUnits="objectBoundingBox">
      <feGaussianBlur in="SourceGraphic" stdDeviation="7.369"/>
    </filter>
    <filter id="e" width="262.5%" height="262.5%" x="-81.3%" y="-81.3%" filterUnits="objectBoundingBox">
      <feGaussianBlur in="SourceGraphic" stdDeviation="6.502"/>
    </filter>
    <filter id="f" width="262.5%" height="262.5%" x="-81.3%" y="-81.3%" filterUnits="objectBoundingBox">
      <feGaussianBlur in="SourceGraphic" stdDeviation="6.502"/>
    </filter>
    <filter id="g" width="262.5%" height="262.5%" x="-81.3%" y="-81.3%" filterUnits="objectBoundingBox">
      <feGaussianBlur in="SourceGraphic" stdDeviation="6.502"/>
    </filter>
  </defs>
  <g fill="none" fill-rule="evenodd" transform="translate(-197 -597)">
    <g transform="translate(197 597)">
      <path fill="#FFF" d="M0 0H630V500H0z"/>
      <image xlink:href="/img/index-img/woman@2x.min.png" x="191" width="247.485" height="500" />
      <g class="w-end-m" transform="translate(25 17)">
        <g class="w-org  Матка" transform="translate(0 341)">
          <g transform="translate(45 44)">
            <path stroke="#606D88" d="M245 16.6523438L75 0.562500019 0.679687504 0.562500019"/>
            <circle cx="245.357" cy="15.514" r="8" fill="#065BB9" class="blur" filter="url(#a)" opacity=".695"/>
            <circle cx="244.357" cy="16.514" r="5" fill="#4B6186"/>
          </g>
          <g class="org-gr">
            <g class="gr-m">
              <circle cx="45" cy="45" r="45" fill="#FFF" stroke="#495466" stroke-width="1.2"/>
              <g transform="translate(6 27)">
                <path stroke="#B3B3B3" stroke-width="1.29" d="M39,11.486 C43.886,11.4 48.086,9.857 52.543,8.057 C49.886,9.943 47.486,11.314 45.343,13.629 C42.086,17.229 39.857,21.6 39,26.4"/>
                <g stroke="#B3B3B3" stroke-width="1.29">
                  <path d="M70.029,21.857 C70.029,22.114 69.943,22.543 70.114,22.714 C70.2,22.8 70.371,22.886 70.457,22.886 C70.971,22.971 71.314,22.543 71.657,22.286 C72,22.029 72.257,21.686 72.6,21.429 C73.286,20.743 73.886,19.971 74.486,19.2 C75.771,17.4 76.714,15.343 77.057,13.2 L77.057,13.029 C77.829,8.486 76.2,1.8 68.743,0.514 C61.286,-0.771 58.457,3.686 54.857,3.943"/>
                  <path d="M64.971 12.429C64.629 12.343 64.286 12.171 64.2 11.743 64.029 10.714 66.343 10.8 66.857 10.886 67.886 10.971 68.914 11.143 69.943 11.229 70.543 11.229 71.229 11.229 71.743 10.886 73.114 10.029 73.371 5.914 68.486 4.714 63.6 3.514 59.657 5.914 57.686 8.486M13.029 12.429C13.371 12.343 14.143 12.257 14.057 11.743 14.057 11.571 13.886 11.314 13.714 11.229 13.543 11.143 13.371 11.057 13.114 10.971 12.943 10.971 12.771 10.886 12.686 10.886 11.486 10.714 10.286 10.886 9.086 11.057 8.143 11.229 6.943 11.314 6.086 10.8 4.714 9.943 4.457 5.829 9.343 4.629 14.229 3.429 18.171 5.829 20.143 8.4"/>
                  <path d="M23.057,3.943 C19.457,3.6 16.629,-0.771 9.171,0.514 C1.714,1.714 0.171,8.4 0.857,12.943 C1.2,15.171 2.229,17.229 3.514,19.114 C3.943,19.8 4.457,20.4 4.971,21 C5.486,21.514 6,22.2 6.686,22.543 C6.943,22.714 7.2,22.8 7.457,22.8 C7.543,22.8 7.714,22.8 7.8,22.714 C8.057,22.543 7.971,22.114 7.971,21.857"/>
                </g>
                <path stroke="#4B5363" stroke-opacity=".566" stroke-width="1.2" d="M39 11.486C34.114 11.4 29.914 9.857 25.457 8.057 28.114 9.943 30.514 11.314 32.657 13.629 35.914 17.229 38.143 21.6 39 26.4M39 26.486L39 57"/>
              </g>
              <g stroke="#FD5368" stroke-width="1.7" transform="translate(26 27)">
                <path d="M.229 8.4C2.2 10.971 2.457 15.343 5.457 19.629 8.457 23.914 12.486 24.6 13.6 28.2 14.714 31.8 13.686 42.171 13.771 45.429 13.943 48.771 15.4 55.543 16.343 56.4 17.2 57.257 19 56.914 19 56.914 19 56.914 20.8 57.257 21.657 56.4 22.514 55.543 24.057 48.771 24.229 45.429 24.4 42.086 23.286 31.8 24.4 28.2 25.514 24.6 29.543 23.914 32.543 19.629 35.543 15.343 35.8 10.971 37.771 8.4M3.057 3.943C6.657 4.286 11.286 0 19 0 26.714 0 31.343 4.286 34.943 3.943" class="w-item"/>
              </g>
              <g stroke="#4B5363" stroke-opacity=".566" stroke-width="1.2" transform="translate(11 39)">
                <path d="M65.029 9.857C66.314 9.086 67.171 7.886 67.343 6.514 67.771 3.686 65.2.943 61.686.429 61.086.343 60.486.343 59.886.343 57.143.6 54.914 2.314 54.571 4.629 54.143 7.457 56.714 10.2 60.229 10.714 62.029 10.971 63.743 10.629 65.029 9.857L65.029 9.857zM2.971 9.857C4.257 10.629 5.971 11.057 7.771 10.8 11.286 10.286 13.771 7.629 13.429 4.714 13.086 2.4 10.857.686 8.114.429 7.514.343 6.914.429 6.314.514 2.8 1.029.314 3.686.657 6.6.829 7.886 1.686 9.086 2.971 9.857L2.971 9.857z"/>
              </g>
            </g>
          </g>
        </g>
        <g class="w-org  Яичники" transform="translate(0 240)">
          <g transform="translate(45 46)">
            <path stroke="#606D88" d="M238.664063 100.855469L75.0000002 0.566405991 0.628906456 0.566405991"/>
            <circle cx="236.357" cy="99.514" r="9" fill="#065BB9" class="blur" filter="url(#b)" opacity=".695"/>
            <circle cx="238.357" cy="100.514" r="5" fill="#4B6186"/>
          </g>
          <g class="org-gr">
            <g class="gr-m">
              <circle cx="45" cy="45" r="45" fill="#FFF" stroke="#495466" stroke-width="1.2"/>
              <g transform="translate(6 27)">
                <path stroke="#B3B3B3" stroke-width="1.29" d="M39,11.486 C43.886,11.4 48.086,9.857 52.543,8.057 C49.886,9.943 47.486,11.314 45.343,13.629 C42.086,17.229 39.857,21.6 39,26.4"/>
                <g stroke="#B3B3B3" stroke-width="1.29">
                  <path d="M70.029,21.857 C70.029,22.114 69.943,22.543 70.114,22.714 C70.2,22.8 70.371,22.886 70.457,22.886 C70.971,22.971 71.314,22.543 71.657,22.286 C72,22.029 72.257,21.686 72.6,21.429 C73.286,20.743 73.886,19.971 74.486,19.2 C75.771,17.4 76.714,15.343 77.057,13.2 L77.057,13.029 C77.829,8.486 76.2,1.8 68.743,0.514 C61.286,-0.771 58.457,3.686 54.857,3.943"/>
                  <path d="M64.971 12.429C64.629 12.343 64.286 12.171 64.2 11.743 64.029 10.714 66.343 10.8 66.857 10.886 67.886 10.971 68.914 11.143 69.943 11.229 70.543 11.229 71.229 11.229 71.743 10.886 73.114 10.029 73.371 5.914 68.486 4.714 63.6 3.514 59.657 5.914 57.686 8.486M13.029 12.429C13.371 12.343 14.143 12.257 14.057 11.743 14.057 11.571 13.886 11.314 13.714 11.229 13.543 11.143 13.371 11.057 13.114 10.971 12.943 10.971 12.771 10.886 12.686 10.886 11.486 10.714 10.286 10.886 9.086 11.057 8.143 11.229 6.943 11.314 6.086 10.8 4.714 9.943 4.457 5.829 9.343 4.629 14.229 3.429 18.171 5.829 20.143 8.4"/>
                  <path d="M23.057,3.943 C19.457,3.6 16.629,-0.771 9.171,0.514 C1.714,1.714 0.171,8.4 0.857,12.943 C1.2,15.171 2.229,17.229 3.514,19.114 C3.943,19.8 4.457,20.4 4.971,21 C5.486,21.514 6,22.2 6.686,22.543 C6.943,22.714 7.2,22.8 7.457,22.8 C7.543,22.8 7.714,22.8 7.8,22.714 C8.057,22.543 7.971,22.114 7.971,21.857"/>
                </g>
                <path stroke="#4B5363" stroke-opacity=".566" stroke-width="1.2" d="M39 11.486C34.114 11.4 29.914 9.857 25.457 8.057 28.114 9.943 30.514 11.314 32.657 13.629 35.914 17.229 38.143 21.6 39 26.4M39 26.486L39 57"/>
              </g>
              <g stroke="#4B5363" stroke-opacity=".566" stroke-width="1.2" transform="translate(26 27)">
                <path d="M.229 8.4C2.2 10.971 2.457 15.343 5.457 19.629 8.457 23.914 12.486 24.6 13.6 28.2 14.714 31.8 13.686 42.171 13.771 45.429 13.943 48.771 15.4 55.543 16.343 56.4 17.2 57.257 19 56.914 19 56.914 19 56.914 20.8 57.257 21.657 56.4 22.514 55.543 24.057 48.771 24.229 45.429 24.4 42.086 23.286 31.8 24.4 28.2 25.514 24.6 29.543 23.914 32.543 19.629 35.543 15.343 35.8 10.971 37.771 8.4M3.057 3.943C6.657 4.286 11.286 0 19 0 26.714 0 31.343 4.286 34.943 3.943"/>
              </g>
              <g stroke="#FD5368" stroke-width="1.7" transform="translate(11 39)">
                <path d="M65.029 9.857C66.314 9.086 67.171 7.886 67.343 6.514 67.771 3.686 65.2.943 61.686.429 61.086.343 60.486.343 59.886.343 57.143.6 54.914 2.314 54.571 4.629 54.143 7.457 56.714 10.2 60.229 10.714 62.029 10.971 63.743 10.629 65.029 9.857L65.029 9.857zM2.971 9.857C4.257 10.629 5.971 11.057 7.771 10.8 11.286 10.286 13.771 7.629 13.429 4.714 13.086 2.4 10.857.686 8.114.429 7.514.343 6.914.429 6.314.514 2.8 1.029.314 3.686.657 6.6.829 7.886 1.686 9.086 2.971 9.857L2.971 9.857z" class="w-item"/>
              </g>
            </g>
          </g>
        </g>
        <g class="w-org  Мочевой  пузырь" transform="translate(0 138)">
          <g transform="translate(44 45)">
            <path stroke="#606D88" d="M241.363281 184.304687L76 0.773435699 0.140624988 0.773435699"/>
            <circle cx="244.357" cy="183.514" r="9" fill="#065BB9" class="blur" filter="url(#c)" opacity=".695"/>
            <circle cx="242.357" cy="184.514" r="5" fill="#4B6186"/>
          </g>
          <g class="org-gr">
            <g class="gr-m">
              <circle cx="45" cy="45" r="45" fill="#FFF" stroke="#495466" stroke-width="1.2"/>
              <g stroke="#4B5363" stroke-opacity=".566" stroke-width="1.2" transform="translate(17 25)">
                <path d="M27.914 61.229C27.914 59.429 28 57.457 28.171 55.314 28.771 45.543 30.4 40.4 33.143 38.171 35.114 36.543 37.686 35.6 40.514 34.657 45.314 33.029 50.714 31.143 53.714 25.4 56.371 20.429 56.2 15.971 53.286 11.171 50.886 7.229 44.457.286 27.914.286 11.371.286 4.943 7.229 2.543 11.171-.371 15.971-.543 20.429 2.114 25.4 5.114 31.143 10.6 33.029 15.314 34.657 18.143 35.6 20.714 36.543 22.686 38.171 25.429 40.486 27.057 45.629 27.657 55.314 27.829 57.457 27.914 59.514 27.914 61.229M28.171 64.9L28 64.9 27.743 64.9"/>
                <path d="M5.286 21.971C5.8 23.514 6.914 24.886 8.457 25.4 9.057 25.571 9.743 25.657 10.343 25.829 11.371 26.086 12.4 26.514 13.171 27.2 13.943 27.886 14.457 28.914 14.457 29.943M18.743 28.571C18.657 30.371 19.771 32.257 21.486 32.943 22.343 33.286 23.286 33.371 24.143 33.714 25.686 34.4 26.8 36.029 27.057 37.657M11.543 18.714C12.4 19.571 13.257 20.429 14.457 20.771 15.229 20.943 16.086 20.943 16.857 20.943 18.829 21.029 20.886 21.886 21.657 23.6M5.286 16.914C5.886 15.629 7.257 14.686 8.714 14.514 9.743 14.429 10.686 14.686 11.714 14.686 13.086 14.686 14.457 14.171 15.486 13.229M12.829 9.286C14.457 7.657 16.943 6.971 19.257 7.486 20.2 7.657 21.057 8.086 21.914 8.171 23.457 8.343 25.086 7.657 26.029 6.457M51.486 21.114C50.971 22.657 49.857 24.029 48.314 24.543 47.714 24.714 47.029 24.8 46.429 24.971 45.4 25.229 44.371 25.657 43.6 26.343 42.829 27.029 42.314 28.057 42.314 29.086M38.029 28.571C38.114 30.371 37 32.257 35.286 32.943 34.429 33.286 33.486 33.371 32.629 33.714 31.086 34.4 29.971 36.029 29.714 37.657M45.143 18.114C44.286 18.971 43.429 19.829 42.229 20.171 41.457 20.343 40.6 20.343 39.829 20.343 37.857 20.429 35.8 21.286 35.029 23M50.286 16.143C49.686 14.857 48.314 13.914 46.857 13.743 45.829 13.657 44.886 13.914 43.857 13.914 42.486 13.914 41.114 13.4 40.086 12.457M43.171 9.286C41.543 7.657 39.057 6.971 36.743 7.486 35.8 7.657 34.943 8.086 34.086 8.171 32.543 8.343 30.914 7.657 29.971 6.457M27.829 15.114C27.229 16.4 26.886 18.029 27.486 19.314 27.829 20 28.514 20.6 28.686 21.371 29.029 22.571 28.343 23.857 27.571 24.886M27.914 61.229L27.914 65"/>
              </g>
              <g stroke="#FD5368" stroke-width="1.7" transform="translate(1 18)">
                <path d="M39.457 71.743C39.286 64.114 38.514 52.714 35.514 50.143 30.971 46.286 18.2 46.543 12.2 35.057 10.057 30.943 9.286 26.229 9.971 21.6 10.143 20.4 9.457 19.286 8.343 18.771 5.514 17.571 2.943 15.943.8 13.8M83.6 5.829C82.057 7.971 80 9.857 77.257 11.229 75.543 12.086 73.486 11.743 72.2 10.371 66.886 4.629 57.714.6 43.914.6 30.2.6 21.029 4.629 15.629 10.371 14.343 11.743 12.286 12.086 10.571 11.229 7.829 9.857 5.771 7.971 4.229 5.829M48.371 71.743C48.543 64.114 49.314 52.714 52.314 50.143 56.857 46.286 69.629 46.543 75.629 35.057 77.771 30.943 78.543 26.229 77.857 21.6 77.686 20.4 78.371 19.286 79.486 18.771 82.314 17.571 84.886 15.943 87.029 13.8" class="w-item"/>
              </g>
            </g>
          </g>
        </g>
        <g class="w-org  Гипофиз">
          <g transform="translate(44)">
            <path stroke="#606D88" d="M223.167969 10.5664063L76 81.066406 0.812500018 81.066406"/>
            <circle cx="224.357" cy="9.514" r="9" fill="#125198" class="blur" filter="url(#d)"/>
            <circle cx="223.357" cy="10.514" r="5" fill="#4B6186"/>
          </g>
          <g class="org-gr" transform="translate(0 34)">
            <g class="gr-m">
              <circle cx="45" cy="45" r="45" fill="#FFF" stroke="#495466" stroke-width="1.2"/>
              <g stroke="#4B5363" stroke-opacity=".566" stroke-width="1.2" transform="translate(10 17)">
                <path d="M12.114,58.514 C12.8,55.943 13.229,53.286 13.229,50.629 C13.314,47.886 12.457,45.829 10.4,44.029 C8.6,42.4 6.371,41.629 4.486,40.086 C2.771,38.714 1.486,36.914 0.8,34.857 C0.029,32.543 0.029,30.057 0.8,27.743 C1.571,25.343 3.371,23.714 5.086,22 C3.286,17.8 4.143,12.486 7.229,9.057 C10.314,5.629 15.543,4.343 19.914,5.886 C21.714,2.886 24.971,0.829 28.4,0.486 C31.829,0.143 35.429,1.343 37.829,3.829 C41.686,0.829 47.257,0.143 51.714,2.114 C53.943,3.143 56,4.943 56.514,7.257 C60.457,7.6 64.486,8.714 67.143,11.629 C69.8,14.543 70.571,19.429 67.914,22.343 C69.714,25.6 69.457,29.8 67.4,32.886 C65.343,35.971 61.486,37.686 57.8,37.257 C56.943,40.429 53.343,42.314 50,42.057 C46.657,41.8 43.743,39.829 41.514,37.429 C40.914,40.429 38.343,42.657 35.429,43.686 C32.514,44.629 29.429,44.457 26.429,43.857 C26.343,45.657 26.257,47.457 26.086,49.257 C25.657,52.6 24.886,55.857 23.771,59.029 C23.771,59.114 23.686,59.114 23.686,59.114 C23.6,59.114 23.6,58.943 23.686,59.029"/>
                <path d="M19.486 58.6C19.571 58.514 19.571 58.771 19.4 58.686 19.314 58.6 19.314 58.514 19.4 58.429 19.829 57.314 20.171 56.2 20.429 55.086 21.457 50.8 22.571 45.229 21.029 40.943 20.429 39.143 19.229 37.686 18.286 36.143 17.429 34.857 16.314 33.571 15.714 32.114 14.343 29.029 14.171 25.086 15.886 22.086 20.086 14.543 33.457 16.086 34.314 25.171M48.029 21.571C45.371 24.829 44.857 29.629 46.914 33.314 47 33.4 47.171 33.4 47.086 33.314"/>
                <path d="M11.514 12.571C13.229 12.743 14.857 13.6 16.057 14.886 17.257 16.171 17.943 17.886 17.943 19.6M29.171 18.229C31.657 18.743 34.314 17.629 36.114 15.829 37.914 14.029 38.943 11.543 39.457 9.057 39.286 9.143 39.114 9.143 38.943 9.229M36.886 15.571C37.571 18.229 39.886 20.114 42.457 21.057 45.457 22.171 48.971 22.086 51.886 20.886 54.886 19.686 57.371 17.286 58.657 14.286"/>
                <path d="M52.914,20.286 C55.057,20.543 57.114,21.657 58.657,23.2 C60.2,24.743 61.143,26.886 61.314,29.029"/>
              </g>
              <circle cx="39.429" cy="50.657" r="6.429" stroke="#FD5368" stroke-width="1.7" class="w-item"/>
            </g>
          </g>
        </g>
        <g class="w-org  Кормление  грудью" transform="translate(317 193)">
          <g transform="translate(0 10)">
            <path stroke="#606D88" d="M12.796875 13.5507812L140.000001 36.1484383 218.632814 36.1484383"/>
            <circle cx="12.285" cy="12.841" r="12" fill="#065BB9" class="blur" filter="url(#e)" opacity=".695"/>
            <circle cx="12.285" cy="12.841" r="5" fill="#57647A"/>
          </g>
          <g class="org-gr" transform="translate(174)">
            <circle cx="45" cy="45.5" r="45" fill="#FFF" stroke="#495466" stroke-width="1.2"/>
            <path fill="#FFF" stroke="#495466" stroke-width="1.2" d="M17.571,41.729 C24.943,43.1 28.971,37.529 33.171,32.471 C37.286,27.5 42.343,22.871 49.029,22.614 C58.371,22.271 64.457,29.643 66.429,38.043 C68.657,47.643 67.114,60.5 58.8,66.843 C50.829,72.929 39.429,71.214 32.314,64.871 C28.971,61.871 27.086,57.5 25.2,53.557 C23.314,49.786 20.143,47.214 16.714,45.071"/>
            <g class="gr-m" transform="translate(16)">
              <path stroke="#4B5363" stroke-opacity=".566" stroke-width="1.2" d="M7.829 35.214C9.371 35.814 10.571 37.186 11 38.814M3.371 55.871C5.257 54.929 6.886 53.557 8.086 51.757M6.2 45.929C7.657 46.614 8.943 47.643 10.229 48.671 14.257 51.843 18.286 54.929 22.057 58.357 22.914 59.129 23.686 59.9 24.371 60.757 24.543 61.014 24.714 61.271 24.8 61.614 24.971 62.214 24.629 62.9 24.114 63.243 23.6 63.586 23 63.757 22.314 63.757 20.514 63.757 18.8 62.729 17.6 61.357 15.543 59.043 14.343 56.3 13.143 53.471 12.457 51.757 11.6 50.043 10.229 48.929M6.971 43.957C6.971 43.957 14.771 44.129 21.2 40.871 27.629 37.614 31.143 33.757 29.343 31.786 27.886 30.329 24.8 31.786 21.971 34.957 18.543 38.729 14.086 43.7 6.971 43.957L6.971 43.957zM12.371 45.929C12.371 45.929 22.143 48.329 30.543 47.3 41 46.014 36.8 37.786 29.686 41.471 21.886 45.5 12.371 45.929 12.371 45.929L12.371 45.929zM14.171 48.5C14.171 48.5 20.857 53.9 27.8 56.043 36.371 58.786 36.029 50.9 29.257 51.157 21.714 51.5 14.171 48.5 14.171 48.5L14.171 48.5z"/>
              <path stroke="#FD5368" stroke-width="1.7" d="M46.829,86.814 C46.657,82.443 46.571,78.071 46.4,73.7 C40.486,74.986 34.486,76.271 28.4,75.671 C20.943,74.9 13.914,70.957 9.029,65.3 C4.143,59.643 1.314,52.357 0.714,44.814 C0.629,44.129 0.629,43.443 0.8,42.757 C1.057,41.986 1.571,41.386 2.171,40.871 C7.229,35.729 12.543,30.929 17.171,25.357 C21.886,19.786 26,13.7 29.086,7.014 C30.029,4.871 30.886,2.729 31.571,0.586" class="w-item"/>
            </g>
          </g>
        </g>
        <g class="w-org  Молочные  железы" transform="translate(317 75)">
          <g transform="translate(0 46)">
            <path stroke="#606D88" d="M11.8476563 66.6367188L136.285157 0.0742195129 219.652345 0.0742195129"/>
            <circle cx="12.285" cy="65.841" r="12" fill="#065BB9" class="blur" filter="url(#f)" opacity=".695"/>
            <circle cx="11.285" cy="64.841" r="5" fill="#57647A"/>
          </g>
          <g class="org-gr" transform="translate(174)">
            <g class="gr-m">
              <circle cx="45" cy="45.5" r="45" fill="#FFF" stroke="#495466" stroke-width="1.2"/>
              <g stroke="#4B5363" stroke-opacity=".566" stroke-width="1.2" transform="translate(16)">
                <path d="M7.829 35.214C9.371 35.814 10.571 37.186 11 38.814M3.371 55.871C5.257 54.929 6.886 53.557 8.086 51.757M6.2 45.929C7.657 46.614 8.943 47.643 10.229 48.671 14.257 51.843 18.286 54.929 22.057 58.357 22.914 59.129 23.686 59.9 24.371 60.757 24.543 61.014 24.714 61.271 24.8 61.614 24.971 62.214 24.629 62.9 24.114 63.243 23.6 63.586 23 63.757 22.314 63.757 20.514 63.757 18.8 62.729 17.6 61.357 15.543 59.043 14.343 56.3 13.143 53.471 12.457 51.757 11.6 50.043 10.229 48.929M6.971 43.957C6.971 43.957 14.771 44.129 21.2 40.871 27.629 37.614 31.143 33.757 29.343 31.786 27.886 30.329 24.8 31.786 21.971 34.957 18.543 38.729 14.086 43.7 6.971 43.957L6.971 43.957zM12.371 45.929C12.371 45.929 22.143 48.329 30.543 47.3 41 46.014 36.8 37.786 29.686 41.471 21.886 45.5 12.371 45.929 12.371 45.929L12.371 45.929zM14.171 48.5C14.171 48.5 20.857 53.9 27.8 56.043 36.371 58.786 36.029 50.9 29.257 51.157 21.714 51.5 14.171 48.5 14.171 48.5L14.171 48.5z"/>
                <path d="M46.829,86.814 C46.657,82.443 46.571,78.071 46.4,73.7 C40.486,74.986 34.486,76.271 28.4,75.671 C20.943,74.9 13.914,70.957 9.029,65.3 C4.143,59.643 1.314,52.357 0.714,44.814 C0.629,44.129 0.629,43.443 0.8,42.757 C1.057,41.986 1.571,41.386 2.171,40.871 C7.229,35.729 12.543,30.929 17.171,25.357 C21.886,19.786 26,13.7 29.086,7.014 C30.029,4.871 30.886,2.729 31.571,0.586"/>
              </g>
              <path stroke="#FD5368" stroke-width="1.7" d="M17.571,41.729 C24.943,43.1 28.971,37.529 33.171,32.471 C37.286,27.5 42.343,22.871 49.029,22.614 C58.371,22.271 64.457,29.643 66.429,38.043 C68.657,47.643 67.114,60.5 58.8,66.843 C50.829,72.929 39.429,71.214 32.314,64.871 C28.971,61.871 27.086,57.5 25.2,53.557 C23.314,49.786 20.143,47.214 16.714,45.071" class="w-item"/>
            </g>
          </g>
        </g>
        <g class="w-org  Беременность" transform="translate(277 313)">
          <g transform="translate(0 2)">
            <path stroke="#606D88" d="M13 13.8710938L176.285157 45.0742195 259.652345 45.0742195"/>
            <circle cx="12.285" cy="12.841" r="12" fill="#065BB9" class="blur" filter="url(#g)" opacity=".695"/>
            <circle cx="11.285" cy="11.841" r="5" fill="#57647A"/>
          </g>
          <g class="org-gr" transform="translate(214)">
            <g class="gr-m">
              <circle cx="45" cy="45.5" r="45" fill="#FFF" stroke="#495466" stroke-width="1.2"/>
              <g fill-rule="nonzero" stroke="#FD5368" stroke-width="1.5" transform="translate(19 16)">
                <path d="M43.4975385,3.29907692 C37.5815385,-1.52892308 29.9655385,-0.168923077 25.2735385,2.55107692 C22.4175385,4.18307692 18.8135385,7.31107692 17.7935385,13.0230769 C17.4535385,14.9270769 17.8615385,16.6950769 18.2015385,18.1230769 C18.2695385,18.5310769 18.4055385,18.8710769 18.4055385,19.2110769 C18.7455385,20.9790769 19.7655385,21.3870769 20.2415385,21.5910769 C20.3095385,21.5910769 20.3095385,21.6590769 20.3775385,21.6590769 C20.4455385,21.7270769 20.5815385,21.9990769 20.5815385,22.1350769 C20.7175385,22.4750769 20.8535385,22.7470769 21.1255385,22.9510769 C21.3295385,23.1550769 21.5335385,23.2230769 21.7375385,23.2230769 C21.8055385,23.2230769 21.8735385,23.2230769 22.0095385,23.2910769 C22.0095385,23.2910769 22.0775385,23.2910769 22.0775385,23.2910769 C22.4855385,24.4470769 22.1455385,24.9230769 21.8055385,25.5350769 C21.4655385,26.0110769 21.1255385,26.5550769 21.2615385,27.3710769 C21.4655385,28.5270769 22.6895385,28.4590769 23.3695385,28.3910769 C23.5055385,28.3910769 23.7095385,28.3910769 23.8455385,28.3910769 C24.0495385,28.7310769 24.0495385,29.1390769 24.1175385,29.5470769 C24.1855385,29.9550769 24.1855385,30.3630769 24.3215385,30.8390769 C24.4575385,31.3830769 24.8655385,31.5190769 25.1375385,31.5190769 C25.2055385,31.7230769 25.2735385,31.9950769 25.4775385,32.1310769 C25.6815385,32.3350769 26.0215385,32.4030769 26.2255385,32.4710769 C26.2935385,32.4710769 26.3615385,32.4710769 26.3615385,32.5390769 C26.9735385,33.0830769 27.5855385,33.3550769 28.1295385,33.4910769 C26.2935385,35.1910769 24.6615385,36.8910769 23.7095385,37.8430769 C23.4375385,35.6670769 22.7575385,31.2470769 21.1935385,29.8190769 C18.2015385,27.0310769 16.0935385,27.9830769 16.0255385,28.0510769 C15.9575385,28.0510769 15.8895385,28.1190769 15.8895385,28.1870769 C15.8215385,28.1870769 15.8215385,28.1870769 15.7535385,28.1190769 M3.71753846,44.7777654 C3.64953846,45.1857654 3.64953846,46.8190769 3.71753846,47.2270769 C3.92153846,52.0550769 5.48553846,55.1830769 8.81753846,57.6310769 C10.9255385,59.1950769 14.3255385,60.4870769 18.3375385,60.4870769 C20.7175385,60.4870769 23.3015385,60.0110769 26.0215385,58.9230769 C33.9095385,55.6590769 38.4655385,52.4630769 40.9815385,48.7230769 C44.3815385,43.5550769 45.6735385,40.0190769 45.4695385,36.4830769 C45.3335385,34.0350769 44.5175385,32.0630769 43.9055385,30.6350769 C43.3615385,29.4790769 43.1575385,28.1870769 43.2935385,27.1670769 C43.7015385,24.1070769 44.6535385,22.4750769 45.6735385,20.7750769 C45.9455385,20.2990769 46.2175385,19.8230769 46.4895385,19.2790769 C48.3935385,15.5390769 49.2775385,8.05907692 43.4975385,3.29907692 M12.1034967,33.6924197 C11.8314967,33.9644197 6.59549667,39.5404197 5.09949667,44.0964197 C4.55549667,44.4364197 2.71949667,45.2524197 0.611496665,43.2804197 C-1.22450333,41.5804197 1.69949667,34.9844197 3.19549667,33.2844197 C3.39949667,33.0124197 3.67149667,32.8764197 3.94349667,32.7404197 C4.07949667,32.8084197 4.14749667,32.9444197 4.14749667,33.0804197 L4.28349667,34.0324197 L4.96349667,33.4204197 C5.30349667,33.0804197 5.77949667,32.7404197 5.84749667,32.7404197 C5.91549667,32.7404197 6.05149667,32.7404197 6.11949667,32.8084197 C6.18749667,32.8764197 6.18749667,33.1484197 6.18749667,33.2844197 C4.14749667,36.2764197 3.05949667,38.3844197 3.05949667,38.4524197 C2.92349667,38.7244197 2.99149667,38.9964197 3.26349667,39.1324197 C3.53549667,39.2684197 3.80749667,39.2004197 3.94349667,38.9284197 C3.94349667,38.9284197 5.50749667,35.9364197 8.29549667,32.0604197 C11.3554967,27.7764197 14.6874967,28.0484197 16.3874967,28.5924197 C18.1554967,29.2044197 19.1754967,31.3124197 19.5154967,34.8484197 C19.7194967,37.4324197 18.6314967,44.9804197 18.3594967,46.6804197 C17.6794967,50.6924197 19.3794967,51.7804197 19.5154967,51.8484197 C19.5834967,51.9164197 19.7194967,51.9164197 19.7874967,51.9164197 M19.1158044,43.7893428 C19.5238044,44.6733428 20.2718044,45.6933428 21.5638044,46.2373428 C21.9038044,46.3733428 22.2438044,46.4413428 22.5838044,46.4413428 C25.0318044,46.4413428 28.2958044,43.7213428 30.6078044,41.8853428 L31.2198044,41.3413428 C32.9198044,39.9133428 33.9398044,39.0293428 34.8238044,38.1453428 C35.5038044,37.4653428 36.1158044,36.9213428 36.9318044,36.2413428 M37.6416772,31.1645336 C36.8936772,30.2805336 34.7176772,29.1245336 32.2696772,30.7565336 C31.9976772,30.9605336 31.6576772,31.1645336 31.3856772,31.3685336 C31.3856772,31.3685336 31.3176772,31.3685336 31.3176772,31.3685336 C30.9096772,31.5045336 30.5696772,31.8445336 30.1616772,32.2525336 C29.4611542,32.9530565 28.8274521,33.4976641 28.1458416,33.5804116 M24.1855385,21.1830769 C23.5055385,22.1350769 22.6215385,22.1350769 22.3495385,22.0670769 C22.3495385,22.0670769 22.2815385,22.0670769 22.2815385,22.0670769 C22.1455385,22.0670769 22.0095385,21.9990769 22.0095385,21.9990769 C21.9415385,21.9310769 21.8055385,21.6590769 21.7375385,21.5230769 C21.6015385,21.1150769 21.3975385,20.7750769 21.0575385,20.5710769 C20.9895385,20.5710769 20.9215385,20.5030769 20.8535385,20.5030769 C20.7175385,20.4350769 20.5815385,20.4350769 20.5135385,20.2990769 C20.5815385,20.2310769 20.6495385,20.1630769 20.7175385,20.0950769 C20.7855385,20.0270769 21.6695385,18.3270769 24.1175385,18.5990769 M23.8205217,17.1528379 C23.8205217,16.8808379 23.6165217,16.6088379 23.3445217,16.6088379 C20.6245217,16.3368379 19.3325217,18.0368379 18.9925217,18.5128379" class="w-item"/>
                <path d="M37.6495385,21.5230769 C37.5815385,21.7950769 37.7175385,22.0670769 37.9895385,22.1350769 C38.2615385,22.2030769 38.4655385,22.2710769 38.7375385,22.2710769 C39.4175385,22.2710769 40.0295385,21.9310769 40.5055385,21.3190769 C41.5935385,19.8910769 41.8655385,17.1030769 41.2535385,16.0830769 C40.7775385,15.1990769 40.1655385,14.7910769 39.4855385,14.7910769 C38.3295385,14.7230769 37.5135385,15.8790769 37.3775385,16.0150769" class="w-item"/>
              </g>
              <path stroke="#4B5363" stroke-opacity=".566" stroke-width="1.2" d="M39.4093599,2.58056719 C40.2446808,4.42339213 40.3191384,6.26621707 39.837491,8.05552564 C39.3791115,9.72151384 38.4646795,11.3456197 37.2361295,12.8952679 C33.5248848,17.5698074 29.0202016,20.9646074 24.9808783,25.2366107 C17.5956177,33.0244075 14.3055237,43.3716834 14.8918771,54.0214432 L14.8918771,54.0516916 C14.6964259,61.7371093 16.9254995,69.2387098 21.2835944,75.3232896 C23.8291127,79.8093584 27.1122263,84.0464597 31.1166477,87.8414692 C31.1282817,87.8484496 31.1352621,87.8600836 31.1422425,87.8647372"/>
            </g>
          </g>
        </g>
      </g>
    </g>
  </g>
</svg>
