<svg width="632" height="294" viewBox="0 0 632 294" xmlns="http://www.w3.org/2000/svg"><title>chart</title><g fill="none" fill-rule="evenodd"><path d="M-6-6h650v310H-6z"/><path d="M294 0c-63.873 0-120.438 41.246-139.964 102.062L294 147V0z" fill="#7ED321"/><path d="M154.194 101.575C129.24 178.83 171.64 261.688 248.897 286.64c77.257 24.954 160.114-17.446 185.067-94.702L294 147l-139.806-45.425z" fill="#589BDB"/><path d="M433.806 192.425c9.646-29.69 9.59-61.68-.16-91.337L294 147l139.806 45.425z" fill="#333B54"/><path d="M433.806 101.575C414.126 41.007 357.686 0 294 0v147l139.806-45.425z" fill="#50E3C2"/><g font-family="PT Sans Narrow" font-style="condensed"><text font-size="25" fill="#000" transform="translate(0 20)"><tspan x="416" y="25">От состояния медицины</tspan></text><text font-size="25" fill="#000" transform="translate(0 20)"><tspan x="457" y="138">Зависит от генетики </tspan></text><text font-size="25" fill="#000" transform="translate(0 20)"><tspan x="67" y="247">Образ жизни </tspan></text><text font-size="25" fill="#000" transform="translate(0 20)"><tspan x="0" y="25">Окружающая среда </tspan></text><text font-size="17" fill="#FFF" transform="translate(0 20)"><tspan x="223" y="54">20%</tspan></text><text font-size="17" fill="#FFF" transform="translate(0 20)"><tspan x="377" y="130">8-10%</tspan></text><text font-size="17" fill="#FFF" transform="translate(0 20)"><tspan x="340" y="54">20%</tspan></text><text font-size="17" fill="#FFF" transform="translate(0 20)"><tspan x="251" y="208">50-55%</tspan></text></g></g></svg>