<?xml version="1.0" encoding="utf-8"?>
<!-- Generator: Adobe Illustrator 19.1.0, SVG Export Plug-In . SVG Version: 6.00 Build 0)  -->
<svg version="1.1" id="Layer_1" xmlns="http://www.w3.org/2000/svg" xmlns:xlink="http://www.w3.org/1999/xlink" x="0px" y="0px"
	 viewBox="0 0 100 100" style="enable-background:new 0 0 100 100;" xml:space="preserve">
<style type="text/css">
	.st0{fill-rule:evenodd;clip-rule:evenodd;fill:#D7E5F7;}
</style>
<g>
	<path class="st0" d="M40.8,52.7c1.6,1.3,3.2,2.5,4.8,3.8c0.6,0.4,1.3,0.4,1.7-0.2c0.2-0.3,0.5-0.6,0.7-0.9c0.1-0.1,0.2-0.2,0.4-0.2
		c2.7-0.8,5.4-1.6,8.1-2.4c0,0,0.1,0,0.2-0.1c0,0,0-0.1-0.1-0.1c0.2,0.2,0.4,0.4,0.6,0.6c0.3,0.3,0.9,0.4,1.6,0.3
		c0.2,0,0.3-0.2,0.4-0.4c0.2-1.5-0.2-2.8-1.2-3.9C57.8,49,57.6,49,57.4,49c-0.7,0.3-1.3,1-1.4,1.8c-0.3,0.1-0.7,0.2-1,0.3
		c-0.7,0.2-1.4,0.3-2.2,0.2c0,0-0.1,0-0.1,0c-0.7-0.1-0.9-0.5-0.6-1.2c0.1-0.2,0.2-0.3,0.3-0.5c0.5-0.6,0.9-1.3,1.2-2
		c0.7-1.9,0.4-3.7-0.9-5.2c-1.7-1.9-3.9-2.7-6.5-2.2c-1.6,0.3-2.7,1.3-3.6,2.6c-0.9,1.5-1.2,3.1-0.7,4.9c0.1,0.3,0.2,0.5,0.3,0.8
		c0.1,0.1,0,0.2,0,0.3c-0.5,0.7-1.1,1.4-1.6,2C40.1,51.6,40.2,52.3,40.8,52.7z M44.2,43.8c0.7-1.1,1.7-1.8,3.1-1.9
		c1.4-0.1,2.7,0.3,3.8,1.3c0.8,0.7,1.3,1.5,1.3,2.6c0,0.6-0.1,1.2-0.4,1.7c-0.1-0.1-0.2-0.1-0.2-0.2c-1.4-1.1-2.7-2.1-4.1-3.2
		c-0.6-0.5-1.3-0.4-1.8,0.2c-0.7,0.9-1.4,1.8-2.1,2.7c0,0.1-0.1,0.1-0.2,0.2c0-0.1,0-0.2-0.1-0.3C43.3,45.8,43.5,44.7,44.2,43.8z"/>
	<path class="st0" d="M58.8,54.8c0.2-0.3,0.3-0.5,0.5-0.8c0.1,0.1,0.2,0.2,0.2,0.3c0.2,0.3,0.4,0.7,0.6,1c0.1,0.3,0.1,0.7-0.1,1
		c-0.3,0.4-0.7,0.5-1.1,0.3c-0.3-0.2-0.5-0.7-0.4-1.1C58.6,55.3,58.7,55.1,58.8,54.8z"/>
	<path class="st0" d="M57.1,57.5c0.2-0.3,0.3-0.5,0.5-0.8c0.1,0.1,0.2,0.2,0.2,0.3c0.2,0.3,0.4,0.7,0.6,1c0.1,0.3,0.1,0.7-0.1,1
		c-0.3,0.4-0.7,0.5-1.1,0.3c-0.3-0.2-0.5-0.7-0.4-1.1C56.9,58,57,57.8,57.1,57.5z"/>
</g>
</svg>
