<svg width="26" height="34" viewBox="0 0 26 34" xmlns="http://www.w3.org/2000/svg"><g fill="#333b54" fill-rule="evenodd"><path d="M17.577 8.423h7.58L17.578.659z"/><path d="M16.479 8.935V0H0v33.69h26V9.521h-9.118c-.33 0-.403-.293-.403-.586zm-4.065 17.907c-.586.586-1.245 1.355-1.94 1.795-.916.586-2.198.878-3.26.586-1.428-.367-2.417-1.575-2.783-3.04v-1.611c.366-1.868 1.575-2.747 2.893-4.065.806-.806 1.575-1.721 2.307-2.197 1.172-.77 2.966-.916 4.284-.183.44.256 1.209.659 1.172 1.391 0 .586-.476 1.099-1.172 1.062-.695-.036-.842-.622-1.391-.769-1.245-.33-2.05.476-2.71 1.172l-2.27 2.27c-.367.367-.843.806-1.026 1.246-.586 1.391.44 3.039 2.16 2.6.697-.184 1.136-.733 1.612-1.209.476-.476.916-.915 1.392-1.355.512.476 1.83.696 2.636.366-.586.623-1.245 1.282-1.904 1.941zm5.31-14.574c1.94.146 3.552 1.83 3.552 3.918 0 2.16-1.355 3.113-2.527 4.284-.549.55-1.098 1.136-1.684 1.722-.952.952-1.978 1.94-3.919 1.794-.549-.037-1.245-.256-1.72-.513-.513-.293-1.172-.805-1.063-1.574.037-.403.55-.99 1.245-.88.586.11.696.513 1.172.696 1.172.477 2.197-.439 2.783-1.025.66-.659 1.429-1.465 2.124-2.16.66-.66 1.831-1.575 1.282-3.003-.366-.952-1.684-1.392-2.746-.77-.916.55-1.429 1.539-2.454 2.271-.513-.44-1.794-.696-2.563-.366-.147-.037.11-.22.183-.293.696-.732 1.501-1.501 2.234-2.234.988-.952 2.014-2.014 4.1-1.867z"/></g></svg>