<svg width="26" height="32" viewBox="0 0 26 32" xmlns="http://www.w3.org/2000/svg"><path d="M.25 0A.25.25 0 0 0 0 .25V16h26V8h-7.75a.25.25 0 0 1-.25-.25V0H.25zM19 0v7h7l-7-7zM2.75 19.188v5.813h1.5v-1.906h.938c.424 0 .779-.039 1.063-.156.286-.117.518-.302.75-.531.169-.169.315-.378.406-.625.091-.25.125-.49.125-.75 0-.336-.063-.635-.188-.875a1.529 1.529 0 0 0-.531-.594 2.028 2.028 0 0 0-.656-.281 3.865 3.865 0 0 0-.938-.094H2.75v-.001zm5.844 0v5.813h2.063c.464 0 .849-.026 1.188-.094a2.93 2.93 0 0 0 .938-.375c.378-.229.69-.542.938-.969.247-.43.375-.927.375-1.469 0-.562-.112-1.055-.344-1.469a2.615 2.615 0 0 0-.938-1c-.234-.146-.531-.234-.875-.313a5.322 5.322 0 0 0-1.219-.125H8.595l-.001.001zm6.656 0v5.813h1.5v-2.5h2.469v-1.125H16.75v-1.063h2.656v-1.125H15.25zm-11 1.094h.25c.247 0 .445-.008.594 0 .148.005.312.031.469.094a.73.73 0 0 1 .313.25.718.718 0 0 1 .125.438c0 .167-.018.289-.063.406a.786.786 0 0 1-.219.313.859.859 0 0 1-.406.188c-.164.031-.37.031-.625.031H4.25v-1.72zm5.844 0h.375c.323 0 .56.003.719.031.161.026.346.081.5.156.302.154.518.352.656.625.141.271.219.617.219 1 0 .385-.091.706-.219.969-.128.26-.32.469-.594.625a1.857 1.857 0 0 1-.5.188c-.167.031-.424.031-.781.031h-.375v-3.625zM0 28.001v3.751c0 .138.112.25.25.25h25.5a.25.25 0 0 0 .25-.25v-3.751H0z" fill="#333b54" fill-rule="evenodd"/></svg>