<svg xmlns="http://www.w3.org/2000/svg" viewBox="0 0 82 82">
  <g fill="none" fill-rule="evenodd" transform="translate(-668 -1926)">
    <g transform="translate(669 1927)">
      <circle cx="40" cy="40" r="40" stroke="#313B56"/>
      <g fill="#56566E" fill-rule="nonzero" transform="translate(11 21)">
        <path d="M54.1752809.629213483C50.588764 2.26516854 48.1348315 5.78876404 47.9460674 9.81573034L47.6314607 18.3101124C47.5685393 19.8202247 48.7640449 21.0786517 50.2741573 21.0786517L51.3438202 21.0786517 49.3932584 33.6C49.0786517 35.4876404 50.588764 37.2494382 52.5393258 37.2494382 54.3011236 37.2494382 55.6853933 35.8651685 55.6853933 34.1033708L55.6853933 1.57303371C55.6853933.817977528 54.8674157.314606742 54.1752809.629213483zM9.62696629.503370787C8.99775281.503370787 8.49438202 1.00674157 8.49438202 1.63595506L8.49438202 10.1303371C8.49438202 10.4449438 8.24269663 10.6966292 7.92808989 10.6966292L7.23595506 10.6966292C6.92134831 10.6966292 6.66966292 10.4449438 6.66966292 10.1303371L6.66966292 1.63595506C6.66966292 1.00674157 6.16629213.503370787 5.53707865.503370787 4.90786517.503370787 4.40449438 1.00674157 4.40449438 1.63595506L4.40449438 10.1303371C4.40449438 10.4449438 4.15280899 10.6966292 3.83820225 10.6966292L3.14606742 10.6966292C2.83146067 10.6966292 2.57977528 10.4449438 2.57977528 10.1303371L2.57977528 1.63595506C2.57977528 1.00674157 2.07640449.503370787 1.44719101.503370787.817977528.503370787.314606742 1.00674157.314606742 1.63595506L.314606742 11.5775281C.314606742 13.0247191 1.51011236 14.2202247 2.95730337 14.2202247L3.52359551 14.2202247 2.32808989 33.8516854C2.20224719 35.6764045 3.6494382 37.2494382 5.4741573 37.2494382L5.53707865 37.2494382C7.36179775 37.2494382 8.80898876 35.6764045 8.68314607 33.8516854L7.5505618 14.2202247 8.11685393 14.2202247C9.56404494 14.2202247 10.7595506 13.0247191 10.7595506 11.5775281L10.7595506 1.63595506C10.7595506 1.00674157 10.2561798.503370787 9.62696629.503370787z"/>
        <path d="M28.5662921,0.503370787 C18.4359551,0.503370787 10.1932584,8.74606742 10.1932584,18.8764045 C10.1932584,29.0067416 18.4359551,37.2494382 28.5662921,37.2494382 C38.6966292,37.2494382 46.9393258,29.0067416 46.9393258,18.8764045 C46.9393258,8.74606742 38.6966292,0.503370787 28.5662921,0.503370787 Z M28.5662921,32.8449438 C20.8898876,32.8449438 14.5977528,26.6157303 14.5977528,18.8764045 C14.5977528,11.2 20.8269663,4.90786517 28.5662921,4.90786517 C36.305618,4.90786517 42.5348315,11.2 42.5348315,18.8764045 C42.5348315,26.552809 36.2426966,32.8449438 28.5662921,32.8449438 Z"/>
        <path d="M28.5662921,7.67640449 C22.4,7.67640449 17.3662921,12.7101124 17.3662921,18.8764045 C17.3662921,25.0426966 22.4,30.0764045 28.5662921,30.0764045 C34.7325843,30.0764045 39.7662921,25.0426966 39.7662921,18.8764045 C39.7662921,12.7101124 34.7325843,7.67640449 28.5662921,7.67640449 Z"/>
      </g>
    </g>
  </g>
</svg>
