<svg xmlns="http://www.w3.org/2000/svg" viewBox="0 0 82 82">
  <g fill="none" fill-rule="evenodd" transform="translate(-768 -1926)">
    <g transform="translate(769 1927)">
      <circle cx="40" cy="40" r="40" stroke="#313B56"/>
      <path fill="#56566E" fill-rule="nonzero" d="M40.4999997,16.125 C34.7184287,16.125 30.015,20.8284287 30.015,26.6099997 L30.015,54.8253252 C30.015,60.6068962 34.7184287,65.3103249 40.4999997,65.3103249 C46.2815706,65.3103249 50.9849993,60.6063716 50.9849993,54.8253252 L50.9849993,26.6099997 C50.9849993,20.8284287 46.2815706,16.125 40.4999997,16.125 Z M48.339747,54.3311111 C48.3287294,54.8137831 48.2620997,55.380398 48.1409071,55.8877282 C48.023387,56.4097485 47.8429096,56.927047 47.615739,57.4265075 C47.5123842,57.6809596 47.3644348,57.9139013 47.239045,58.1589098 C47.1031623,58.3970979 46.9420968,58.6195468 46.794672,58.8503899 C46.6341311,59.0702155 46.4604741,59.2800729 46.288391,59.4873071 C46.1052904,59.6835237 45.9064506,59.8613779 45.7170543,60.0423798 C45.5087708,60.2002975 45.3036352,60.3566413 45.0937778,60.4961964 C44.878674,60.6257834 44.6598977,60.7412049 44.4474171,60.8492815 C44.0114384,61.0470721 43.5901497,61.2081376 43.183551,61.2926052 C42.9852358,61.350316 42.7916423,61.3859918 42.6032953,61.4017311 C42.4170469,61.4227168 42.2423406,61.448949 42.0776026,61.4589172 C41.7423554,61.4547201 41.457474,61.4557693 41.223483,61.4284879 C40.7544517,61.3560871 40.4999997,61.289982 40.4999997,61.289982 L40.4999997,61.1540994 C40.4999997,61.1540994 40.755501,61.0612375 41.1783637,60.9447666 C41.3845485,60.8718412 41.6332295,60.7837011 41.9191602,60.6829695 C42.1924995,60.5518087 42.5062363,60.4500278 42.8210223,60.2721737 C43.1426288,60.1184532 43.4694817,59.9143668 43.8104999,59.7055587 C43.9710408,59.5833168 44.1431239,59.4715678 44.313633,59.3514244 C44.4731246,59.2134432 44.6478309,59.0917259 44.8172907,58.9568925 C44.9830781,58.8152388 45.150964,58.6725358 45.3214731,58.5272095 C45.4767676,58.366144 45.6514738,58.2171452 45.8114901,58.0508333 C45.9594396,57.8750777 46.1247022,57.7066671 46.2611096,57.5162216 C46.3885979,57.3205295 46.5423184,57.1353304 46.6551168,56.9275716 C46.8927803,56.517825 47.0968666,56.0839449 47.244816,55.636424 C47.3990612,55.1768363 47.4961203,54.762368 47.5569789,54.2917628 C47.57744,54.061969 47.6115418,53.8001719 47.6199361,53.6071031 C47.6325276,53.3767846 47.6456437,53.1511879 47.6577105,52.931887 C47.6855166,52.493285 47.7117487,52.0777674 47.7358823,51.6953023 C47.8282196,50.1628188 47.9095393,49.1418626 47.9090147,49.1418626 L48.0448973,49.1418626 C48.0443727,49.1418626 48.1251678,50.1628188 48.2180297,51.6953023 C48.2421633,52.0777674 48.2689201,52.493285 48.2962016,52.931887 C48.3082684,53.1511879 48.3213844,53.3767846 48.3339759,53.6071031 C48.347092,53.8741466 48.3371237,54.0834794 48.339747,54.3311111 Z M49.6314192,40.0408724 L31.3685801,40.0408724 L31.3685801,26.6099997 C31.3685801,21.5749963 35.4649963,17.4785801 40.4999997,17.4785801 C45.535003,17.4785801 49.6314192,21.5749963 49.6314192,26.6099997 L49.6314192,40.0408724 Z"/>
    </g>
  </g>
</svg>
