<svg xmlns="http://www.w3.org/2000/svg" viewBox="0 0 82 82">
  <g fill="none" fill-rule="evenodd" transform="translate(-438 -1926)">
    <g transform="translate(439 1927)">
      <g fill="#56566E" fill-rule="nonzero" transform="translate(14 17)">
        <path d="M19.7239355 19.0294839H24.21606453V23.52161293H19.7239355zM27.7847742 19.0294839H32.27690323V23.52161293H27.7847742zM35.8456129 19.0294839H40.33774193V23.52161293H35.8456129zM11.6630968 25.8590968H16.15522583V30.35122583H11.6630968zM11.6630968 19.0294839H16.15522583V23.52161293H11.6630968zM19.7239355 25.8590968H24.21606453V30.35122583H19.7239355zM19.7239355 32.687871H24.21606453V37.18000003H19.7239355zM27.7847742 32.687871H32.27690323V37.18000003H27.7847742zM35.8456129 32.687871H40.33774193V37.18000003H35.8456129zM27.7847742 25.8590968H32.27690323V30.35122583H27.7847742zM35.8456129 25.8590968H40.33774193V30.35122583H35.8456129zM11.6630968 32.687871H16.15522583V37.18000003H11.6630968zM26.0327097 6.84303226L25.9672903 6.84303226C25.1445161 6.84303226 24.4710323 6.16954839 24.4710323 5.34677419L24.4710323 2.05567742C24.4710323 1.23290323 25.1445161.559419355 25.9672903.559419355L26.0327097.559419355C26.8554839.559419355 27.5289677 1.23290323 27.5289677 2.05567742L27.5289677 5.34677419C27.5289677 6.16954839 26.8554839 6.84303226 26.0327097 6.84303226zM15.2460645 6.84303226L15.1806452 6.84303226C14.357871 6.84303226 13.6843871 6.16954839 13.6843871 5.34677419L13.6843871 2.05567742C13.6843871 1.23290323 14.357871.559419355 15.1806452.559419355L15.2460645.559419355C16.0688387.559419355 16.7423226 1.23290323 16.7423226 2.05567742L16.7423226 5.34677419C16.7423226 6.16954839 16.0688387 6.84303226 15.2460645 6.84303226zM36.8193548 6.84303226L36.7539355 6.84303226C35.9311613 6.84303226 35.2576774 6.16954839 35.2576774 5.34677419L35.2576774 2.05567742C35.2576774 1.23290323 35.9311613.559419355 36.7539355.559419355L36.8193548.559419355C37.642129.559419355 38.3156129 1.23290323 38.3156129 2.05567742L38.3156129 5.34677419C38.3156129 6.16954839 37.642129 6.84303226 36.8193548 6.84303226z"/>
        <path d="M41.1420645,3.70122581 L40.5432258,3.70122581 L40.5432258,5.34677419 C40.5432258,7.39993548 38.8733548,9.06980645 36.8201935,9.06980645 L36.7547742,9.06980645 C34.7016129,9.06980645 33.0317419,7.39993548 33.0317419,5.34677419 L33.0317419,3.70122581 L29.7565806,3.70122581 L29.7565806,5.34677419 C29.7565806,7.39993548 28.0867097,9.06980645 26.0335484,9.06980645 L25.968129,9.06980645 C23.9149677,9.06980645 22.2450968,7.39993548 22.2450968,5.34677419 L22.2450968,3.70122581 L18.9699355,3.70122581 L18.9699355,5.34677419 C18.9699355,7.39993548 17.3000645,9.06980645 15.2469032,9.06980645 L15.1806452,9.06980645 C13.1274839,9.06980645 11.4576129,7.39993548 11.4576129,5.34677419 L11.4576129,3.70122581 L10.8587742,3.70122581 C5.12703226,3.70122581 0.462967742,8.36445161 0.462967742,14.0970323 L0.462967742,34.3359355 C0.462967742,40.0676774 5.12619355,44.7317419 10.8587742,44.7317419 L41.1420645,44.7317419 C46.8738065,44.7317419 51.537871,40.0685161 51.537871,34.3359355 L51.537871,14.0970323 C51.5370323,8.36445161 46.8738065,3.70122581 41.1420645,3.70122581 Z M47.6403871,34.3359355 C47.6403871,37.9189032 44.7250323,40.8342581 41.1420645,40.8342581 L10.8579355,40.8342581 C7.27496774,40.8342581 4.3596129,37.9189032 4.3596129,34.3359355 L4.3596129,15.4632903 L47.6403871,15.4632903 L47.6403871,34.3359355 Z"/>
      </g>
      <circle cx="40" cy="40" r="40" stroke="#313B56"/>
    </g>
  </g>
</svg>
