<svg xmlns="http://www.w3.org/2000/svg" width="31" height="32" viewBox="0 0 31 32">
  <path fill="#1FAAE5" d="M15.7360247,25.6242233 L15.7360247,25.6242233 L21.0229811,30.9583847 C21.5422358,31.4776394 22.4391302,31.0999996 22.4391302,30.3919251 L22.4391302,25.6714283 L26.5931674,25.6714283 C28.8590059,25.6714283 30.6999996,23.8304345 30.6999996,21.564596 L30.6999996,4.80683225 C30.6999996,2.54099377 28.8590059,0.7 26.5931674,0.7 L4.40683225,0.7 C2.14099377,0.7 0.3,2.54099377 0.3,4.80683225 L0.3,21.517391 C0.3,23.7832295 2.14099377,25.6242233 4.40683225,25.6242233 L15.7360247,25.6242233 Z M14.4614905,6.41180117 L16.632919,6.41180117 C16.8689439,6.41180117 17.1049687,6.60062104 17.1049687,6.88385085 L16.8689439,15.7583849 C16.8689439,15.9944097 16.680124,16.1360247 16.4913041,16.1360247 L14.6975153,16.1360247 C14.4614905,16.1360247 14.3198756,15.9472048 14.3198756,15.7583849 L14.0838508,6.88385085 C13.9894408,6.60062104 14.1782607,6.41180117 14.4614905,6.41180117 Z M13.9894408,18.1186333 C13.9894408,17.7409936 14.2726706,17.4577638 14.6503104,17.4577638 L16.3968942,17.4577638 C16.774534,17.4577638 17.0577638,17.7409936 17.0577638,18.1186333 L17.0577638,19.2515526 C17.0577638,19.6291923 16.774534,19.9124221 16.3968942,19.9124221 L14.6503104,19.9124221 C14.2726706,19.9124221 13.9894408,19.6291923 13.9894408,19.2515526 L13.9894408,18.1186333 Z"/>
</svg>
