<?xml version="1.0" encoding="UTF-8" standalone="no"?>
<svg width="35px" height="42px" viewBox="0 0 35 42" version="1.1" xmlns="http://www.w3.org/2000/svg" xmlns:xlink="http://www.w3.org/1999/xlink">
    <!-- Generator: Sketch 39.1 (31720) - http://www.bohemiancoding.com/sketch -->
    <title>logo</title>
    <desc>Created with Sketch.</desc>
    <defs></defs>
    <g id="Page-1" stroke="none" stroke-width="1" fill="none" fill-rule="evenodd">
        <path d="M25.4887335,32.5055906 C23.4677585,34.5514719 20.6195449,35.6779563 17.4694067,35.6779563 C14.3192686,35.6779563 11.471055,34.5532572 9.45531563,32.5055906 C7.46575469,30.4918436 6.35927957,27.6675991 6.33135591,24.5541462 L10.624619,24.5541462 C10.6769759,28.9101238 13.5391513,31.6522475 17.471152,31.6522475 C21.4066431,31.6522475 24.2670733,28.9101238 24.3194302,24.5541462 L28.6092028,24.5541462 C28.5830244,27.6693843 27.4800397,30.4918436 25.4904788,32.5055906 M3.26673396,13.5106717 C-2.34068649,21.5085323 -0.551826873,32.6484096 7.27203428,38.3879457 C15.0906598,44.1310523 25.9808881,42.2976142 31.5883085,34.2961831 C37.2027099,26.2965372 34.1956805,1.53089347e-15 34.1956805,1.53089347e-15 C34.1956819,-4.81732743e-10 8.87589964,5.50745535 3.26673396,13.5106717 Z" id="logo" fill="#24B0EB"></path>
    </g>
</svg>