<svg width="98" height="101" viewBox="0 0 98 101" xmlns="http://www.w3.org/2000/svg"><title>logo_1</title><path d="M28.626 36.59C35.4 24.477 42.436 12.366 49.212.003c6.776 11.354 13.29 22.96 20.066 34.315 2.606 5.297 4.69 11.605 2.866 17.66-1.563 7.57-7.817 14.13-15.375 16.4-7.818 2.272-16.678 1.01-22.672-4.288-8.34-6.56-10.424-18.67-5.472-27.503zm5.21 3.28c-2.605 5.298-3.126 12.363 1.826 16.905 1.042-.757 3.127-1.262 2.866-3.028-.782-5.046-3.127-9.336-4.69-13.877zm54.856-8.722c-2.606-4.794-6.254-8.58-9.902-12.616 11.205 8.327 17.98 21.447 18.24 34.82.262 9.083-2.605 18.167-7.556 25.99-7.557 11.353-20.326 19.68-34.398 21.193-6.255.252-12.51.505-18.502-1.01-13.812-3.532-25.8-13.12-31.793-25.988C-4.34 55.37 1.134 31.653 17.81 19.29 11.558 25.85 6.085 33.42 4.26 42.25c-3.127 12.11.26 25.232 8.078 34.82 7.818 10.092 20.327 16.4 33.356 17.41 19.545 1.513 39.09-11.355 45.604-29.27 4.69-10.85 3.648-23.717-2.606-34.062zm-17.07-11.21c7.037 5.297 11.99 12.867 13.29 21.193 3.91 18.42-10.422 38.1-29.706 40.877-17.2 3.532-35.7-7.318-40.913-23.466-5.212-13.624 0-29.772 11.727-38.603C19.244 27 14.032 36.085 14.554 46.177c.52 16.906 16.417 31.54 33.877 31.288 18.242.757 35.44-14.635 34.92-32.297.52-9.588-4.95-18.42-11.727-25.23z" fill="#4a515f" fill-rule="evenodd"/></svg>