<svg width="124" height="124" viewBox="0 0 124 124" xmlns="http://www.w3.org/2000/svg"><title>purchase</title><g transform="translate(1 1)" fill="none" fill-rule="evenodd"><g stroke="#000"><path d="M93.654 97.21H28.532c-.585 0-1.143-.238-1.546-.662-.403-.423-.615-.993-.586-1.577l2.663-53.812c.056-1.137.994-2.03 2.132-2.03H89.65c1.12 0 2.047.864 2.13 1.978l3.966 53.543c.028.137.042.28.042.426 0 1.18-.955 2.135-2.134 2.135z"/><path d="M47.138 52.556c0 1.466-1.19 2.657-2.655 2.657-1.47 0-2.662-1.192-2.662-2.657 0-1.47 1.193-2.66 2.663-2.66 1.464 0 2.655 1.192 2.655 2.66zM80.347 52.556c0 1.466-1.19 2.657-2.652 2.657-1.473 0-2.663-1.192-2.663-2.657 0-1.47 1.19-2.66 2.663-2.66 1.462 0 2.652 1.192 2.652 2.66zM61.08 21.762H61.09m18.73 14.472c0-10.334-8.404-18.74-18.73-18.74H61.08c-10.327 0-18.73 8.406-18.73 18.74"/></g><circle stroke="#5F97D6" stroke-width="2" cx="61" cy="61" r="61"/></g></svg>