<?xml version="1.0" encoding="utf-8"?>
<!-- Generator: Adobe Illustrator 19.1.0, SVG Export Plug-In . SVG Version: 6.00 Build 0)  -->
<svg version="1.1" id="Layer_1" xmlns="http://www.w3.org/2000/svg" xmlns:xlink="http://www.w3.org/1999/xlink" x="0px" y="0px"
	 viewBox="0 0 300 300" style="enable-background:new 0 0 300 300;" xml:space="preserve">
<style type="text/css">
	.st0{fill:#CD8BDA;}
	.st1{fill:#CD8BDA;stroke:#CD8BDA;stroke-width:1.0728;stroke-linecap:round;stroke-linejoin:round;stroke-miterlimit:10;}
	.st2{fill-rule:evenodd;clip-rule:evenodd;fill:#CD8BDA;}
	.st3{clip-path:url(#SVGID_2_);fill:#CD8BDA;}
</style>
<g>
	<g>
		<path class="st0" d="M127,165.5h0.3v5.4h-0.4v-4.8l-0.9,0.7l-0.2-0.3L127,165.5z"/>
		<path class="st0" d="M129,168.7h1.8v0.4H129V168.7z"/>
		<path class="st0" d="M131.8,170.6c0.9-0.9,2.5-2.5,2.5-3.7c0-0.5-0.3-1-1-1c-0.5,0-1,0.3-1.1,1l-0.3-0.1c0.1-0.8,0.8-1.2,1.5-1.2
			c1,0,1.4,0.7,1.4,1.3c0,1.5-2,3.3-2.4,3.7h2.7v0.4h-3.2V170.6z"/>
		<path class="st0" d="M137.8,167.5h0.4v0.5c0.3-0.3,0.8-0.5,1.3-0.5c1,0,1.6,0.7,1.6,1.7c0,1-0.7,1.8-1.8,1.8
			c-0.4,0-0.8-0.1-1.1-0.3v1.8h-0.4V167.5z M138.2,168.3v2c0.4,0.2,0.7,0.3,1.1,0.3c0.8,0,1.4-0.6,1.4-1.4c0-0.8-0.5-1.4-1.3-1.4
			C138.9,167.8,138.4,168.1,138.2,168.3z"/>
		<path class="st0" d="M142.1,167.8c0.3-0.2,0.7-0.3,1.1-0.3c1,0,1.3,0.5,1.3,1.4v2.1H144v-0.5c-0.2,0.3-0.5,0.6-1.2,0.6
			c-0.6,0-1.1-0.4-1.1-1c0-0.7,0.6-1.1,1.3-1.1c0.3,0,0.7,0.1,0.9,0.3c0-0.8,0-1.3-0.9-1.3c-0.4,0-0.7,0.1-1,0.3L142.1,167.8z
			 M144,170.1v-0.6c-0.3-0.2-0.5-0.3-0.9-0.3c-0.5,0-0.9,0.2-0.9,0.7c0,0.4,0.3,0.7,0.8,0.7C143.6,170.6,143.9,170.3,144,170.1z"/>
		<path class="st0" d="M145.3,170.6l0.2-0.3c0.3,0.3,0.8,0.4,1.1,0.4c0.6,0,1.1-0.3,1.1-0.7c0-0.4-0.3-0.6-0.8-0.6h-0.6V169h0.5
			c0.4,0,0.7-0.3,0.7-0.6c0-0.4-0.3-0.6-0.9-0.6c-0.5,0-0.8,0.2-1.1,0.4l-0.2-0.3c0.3-0.3,0.8-0.5,1.3-0.5c0.8,0,1.2,0.3,1.2,0.9
			c0,0.3-0.2,0.7-0.6,0.8v0c0.5,0,0.8,0.4,0.8,0.8c0,0.6-0.6,1-1.4,1C146.2,171,145.5,170.8,145.3,170.6z"/>
		<path class="st0" d="M149.1,167.8c0.3-0.2,0.7-0.3,1.1-0.3c1,0,1.3,0.5,1.3,1.4v2.1h-0.4v-0.5c-0.2,0.3-0.6,0.6-1.2,0.6
			c-0.6,0-1.1-0.4-1.1-1c0-0.7,0.6-1.1,1.3-1.1c0.3,0,0.7,0.1,0.9,0.3c0-0.8,0-1.3-0.9-1.3c-0.4,0-0.7,0.1-1,0.3L149.1,167.8z
			 M151.1,170.1v-0.6c-0.3-0.2-0.5-0.3-0.9-0.3c-0.5,0-0.9,0.2-0.9,0.7c0,0.4,0.3,0.7,0.8,0.7C150.6,170.6,150.9,170.3,151.1,170.1z
			"/>
		<path class="st0" d="M154.4,167.5c0.3,0,0.6,0,1.1,0c0.9,0,1.4,0.3,1.4,0.9c0,0.4-0.2,0.7-0.7,0.8v0c0.6,0.1,0.8,0.4,0.8,0.8
			c0,0.6-0.5,1-1.5,1c-0.4,0-0.8,0-1.1,0V167.5z M154.8,167.9v1.2h0.9c0.5,0,0.8-0.2,0.8-0.6c0-0.5-0.4-0.6-1-0.6
			C155.2,167.9,155,167.9,154.8,167.9z M154.8,169.4v1.2c0.2,0,0.5,0,0.8,0c0.7,0,1.1-0.2,1.1-0.6c0-0.4-0.3-0.6-1-0.6H154.8z"/>
		<path class="st0" d="M159.4,170.6h0.4c0.2-0.3,0.5-1,0.6-2.1l0.1-1h2.2v3.1h0.6v1.2h-0.4V171h-3.1v0.9h-0.4V170.6z M160.2,170.6h2
			v-2.7h-1.4l0,0.7C160.7,169.6,160.4,170.4,160.2,170.6z"/>
		<path class="st0" d="M166.8,170.5c-0.3,0.3-0.8,0.5-1.3,0.5c-1.1,0-1.8-0.7-1.8-1.8c0-1,0.6-1.8,1.7-1.8c0.9,0,1.6,0.6,1.6,1.6
			c0,0.1,0,0.2,0,0.3h-2.8c0,0.8,0.6,1.3,1.4,1.3c0.5,0,0.9-0.2,1.1-0.4L166.8,170.5z M164.1,169h2.5c0-0.7-0.5-1.2-1.2-1.2
			C164.6,167.8,164.2,168.3,164.1,169z"/>
		<path class="st0" d="M170.5,169.4h-2.2v1.6h-0.4v-3.4h0.4v1.5h2.2v-1.5h0.4v3.4h-0.4V169.4z"/>
		<path class="st0" d="M172.2,167.5h0.4v1.2h0.7c1.1,0,1.4,0.5,1.4,1.1c0,0.6-0.3,1.2-1.4,1.2h-1V167.5z M172.6,169v1.5h0.6
			c0.7,0,1-0.3,1-0.8c0-0.5-0.3-0.8-1-0.8H172.6z"/>
	</g>
	<g>
		<path class="st0" d="M191.3,165.5h0.3v5.4h-0.4v-4.8l-0.9,0.7l-0.2-0.3L191.3,165.5z"/>
		<path class="st0" d="M195,167.5h0.4l1.4,1.9l1.4-1.9h0.4v3.4h-0.4v-2.8l-1.3,1.9h0l-1.4-1.9v2.8H195V167.5z"/>
		<path class="st0" d="M202.6,170.5c-0.3,0.3-0.8,0.5-1.3,0.5c-1.1,0-1.8-0.7-1.8-1.8c0-1,0.6-1.8,1.7-1.8c0.9,0,1.6,0.6,1.6,1.6
			c0,0.1,0,0.2,0,0.3H200c0,0.8,0.6,1.3,1.4,1.3c0.5,0,0.9-0.2,1.1-0.4L202.6,170.5z M200,169h2.5c0-0.7-0.5-1.2-1.2-1.2
			C200.5,167.8,200,168.3,200,169z"/>
		<path class="st0" d="M206.6,170.5c-0.3,0.4-0.8,0.6-1.3,0.6c-1.1,0-1.8-0.7-1.8-1.8c0-1,0.7-1.8,1.7-1.8c0.5,0,1,0.1,1.3,0.4
			l-0.2,0.3c-0.3-0.3-0.7-0.4-1.1-0.4c-0.7,0-1.4,0.6-1.4,1.4c0,0.9,0.6,1.4,1.4,1.4c0.4,0,0.8-0.2,1.1-0.5L206.6,170.5z"/>
		<path class="st0" d="M209.8,167.5v3.4h-0.4v-1.3h-0.9l-1,1.3H207l1.1-1.4c-0.4-0.1-0.8-0.4-0.8-1c0-0.6,0.4-1.1,1.4-1.1H209.8z
			 M208.4,169.3h0.9v-1.4h-0.7c-0.7,0-1,0.3-1,0.7C207.7,169,208.1,169.3,208.4,169.3z"/>
		<path class="st0" d="M211,167.5h0.4v3.1h2.2v-3.1h0.4v3.1h0.6v1.2h-0.4V171H211V167.5z"/>
	</g>
	<g>
		<g>
			<path class="st0" d="M201.6,162.9c-9.3,0-16.8-7.6-16.8-16.8c0-9.3,7.6-16.8,16.8-16.8c9.3,0,16.8,7.6,16.8,16.8
				C218.4,155.4,210.9,162.9,201.6,162.9z M201.6,130.5c-8.6,0-15.6,7-15.6,15.6c0,8.6,7,15.6,15.6,15.6c8.6,0,15.6-7,15.6-15.6
				C217.1,137.5,210.2,130.5,201.6,130.5z"/>
		</g>
		<g>
			<path class="st0" d="M201.6,134.5c-0.3,0-0.6-0.3-0.6-0.6v-1.7c0-0.3,0.3-0.6,0.6-0.6c0.3,0,0.6,0.3,0.6,0.6v1.7
				C202.2,134.3,201.9,134.5,201.6,134.5z"/>
			<path class="st0" d="M201.6,160.5c-0.3,0-0.6-0.3-0.6-0.6v-1.7c0-0.3,0.3-0.6,0.6-0.6c0.3,0,0.6,0.3,0.6,0.6v1.7
				C202.2,160.2,201.9,160.5,201.6,160.5z"/>
			<path class="st0" d="M195.5,136.2c-0.2,0-0.4-0.1-0.5-0.3l-0.8-1.4c-0.2-0.3-0.1-0.7,0.2-0.9c0.3-0.2,0.7-0.1,0.9,0.2l0.8,1.4
				c0.2,0.3,0.1,0.7-0.2,0.9C195.7,136.1,195.6,136.2,195.5,136.2z"/>
			<path class="st0" d="M208.5,158.7c-0.2,0-0.4-0.1-0.5-0.3l-0.8-1.4c-0.2-0.3-0.1-0.7,0.2-0.9c0.3-0.2,0.7-0.1,0.9,0.2l0.8,1.4
				c0.2,0.3,0.1,0.7-0.2,0.9C208.7,158.6,208.6,158.7,208.5,158.7z"/>
			<path class="st0" d="M191.1,140.6c-0.1,0-0.2,0-0.3-0.1l-1.4-0.8c-0.3-0.2-0.4-0.6-0.2-0.9c0.2-0.3,0.6-0.4,0.9-0.2l1.4,0.8
				c0.3,0.2,0.4,0.6,0.2,0.9C191.5,140.5,191.3,140.6,191.1,140.6z"/>
			<path class="st0" d="M213.5,153.6c-0.1,0-0.2,0-0.3-0.1l-1.4-0.8c-0.3-0.2-0.4-0.5-0.2-0.8c0.2-0.3,0.5-0.4,0.9-0.2l1.4,0.8
				c0.3,0.2,0.4,0.6,0.2,0.9C214,153.5,213.8,153.6,213.5,153.6z"/>
			<path class="st0" d="M189.4,146.7h-1.7c-0.3,0-0.6-0.3-0.6-0.6c0-0.4,0.3-0.6,0.6-0.6h1.7c0.3,0,0.6,0.3,0.6,0.6
				C190.1,146.4,189.8,146.7,189.4,146.7z"/>
			<path class="st0" d="M215.4,146.7h-1.7c-0.3,0-0.6-0.3-0.6-0.6c0-0.4,0.3-0.6,0.6-0.6h1.7c0.3,0,0.6,0.3,0.6,0.6
				C216,146.4,215.7,146.7,215.4,146.7z"/>
			<path class="st0" d="M189.6,153.6c-0.2,0-0.4-0.1-0.5-0.3c-0.2-0.3-0.1-0.7,0.2-0.9l1.4-0.8c0.3-0.2,0.7-0.1,0.8,0.2
				c0.2,0.3,0.1,0.7-0.2,0.8l-1.4,0.8C189.8,153.6,189.7,153.6,189.6,153.6z"/>
			<path class="st0" d="M212.1,140.6c-0.2,0-0.4-0.1-0.5-0.3c-0.2-0.3-0.1-0.7,0.2-0.9l1.4-0.8c0.3-0.2,0.7-0.1,0.9,0.2
				c0.2,0.3,0.1,0.7-0.2,0.9l-1.4,0.8C212.3,140.6,212.2,140.6,212.1,140.6z"/>
			<path class="st0" d="M194.7,158.7c-0.1,0-0.2,0-0.3-0.1c-0.3-0.2-0.4-0.6-0.2-0.9l0.8-1.4c0.2-0.3,0.6-0.4,0.9-0.2
				c0.3,0.2,0.4,0.6,0.2,0.9l-0.8,1.4C195.1,158.5,194.9,158.7,194.7,158.7z"/>
			<path class="st0" d="M207.7,136.2c-0.1,0-0.2,0-0.3-0.1c-0.3-0.2-0.4-0.6-0.2-0.9l0.8-1.4c0.2-0.3,0.5-0.4,0.8-0.2
				c0.3,0.2,0.4,0.6,0.2,0.9l-0.8,1.4C208.1,136.1,207.9,136.2,207.7,136.2z"/>
		</g>
	</g>
	<g>
		<path class="st0" d="M200.5,143.2h-0.8c-0.6,0-0.9-0.5-0.9-0.9c0-0.5,0.3-0.9,0.9-0.9h1.9c0.6,0,0.9,0.4,0.9,0.9v7.5
			c0,0.7-0.4,1-1,1c-0.6,0-1-0.4-1-1V143.2z"/>
	</g>
	<line class="st1" x1="122.1" y1="129.6" x2="122.1" y2="162.8"/>
	<line class="st1" x1="177.1" y1="129.6" x2="177.1" y2="162.8"/>
	<g>
		<path class="st0" d="M98.6,162.9c-9.3,0-16.8-7.6-16.8-16.8c0-9.3,7.6-16.8,16.8-16.8c9.3,0,16.8,7.6,16.8,16.8
			C115.4,155.4,107.9,162.9,98.6,162.9z M98.6,130.5c-8.6,0-15.6,7-15.6,15.6c0,8.6,7,15.6,15.6,15.6c8.6,0,15.6-7,15.6-15.6
			C114.1,137.5,107.2,130.5,98.6,130.5z"/>
	</g>
	<g>
		<g>
			<g>
				<g>
					<path class="st2" d="M93.7,150.3l10.2,0c1.8-0.2,3.2-1.8,3.2-3.6v-0.1c0-1.8-1.4-3.4-3.2-3.6l-10.2,0c-2,0-3.6,1.6-3.6,3.6v0.1
						C90.1,148.7,91.7,150.3,93.7,150.3z M103.9,143.8c1.4,0.2,2.4,1.4,2.4,2.9v0.1c0,1.4-1,2.6-2.4,2.9l-5.6,0l0-5.8L103.9,143.8z"
						/>
				</g>
			</g>
		</g>
	</g>
	<circle class="st0" cx="152.2" cy="139.2" r="5.8"/>
	<g>
		<defs>
			<path id="SVGID_1_" d="M148.7,162.9c-9.3,0-16.8-7.6-16.8-16.8c0-9.3,7.6-16.8,16.8-16.8c9.3,0,16.8,7.6,16.8,16.8
				C165.6,155.4,158,162.9,148.7,162.9z"/>
		</defs>
		<clipPath id="SVGID_2_">
			<use xlink:href="#SVGID_1_"  style="overflow:visible;"/>
		</clipPath>
		<path class="st3" d="M152.2,145.7L152.2,145.7C152.2,145.7,152.2,145.7,152.2,145.7c-0.1,0-0.1,0-0.1,0v0
			c-5.6,0-10.7,0.7-11.5,4.6l-1.7-3.6c-0.5-1.1-1.8-1.5-2.8-1c-1.1,0.5-1.5,1.8-1,2.8l4.4,9.1h0c0,0,0,0.1,0,0.1l1.1,2
			c0.4,0.7,1.3,1.2,2.1,1.2h0.7c0.8,0,1.4-0.6,1.4-1.4v-1.7c0-0.1,0-0.2,0-0.3h0v-4h0.8v4h0v5.3h13.2v-7h0v-2.3h0.8v2.6h0v6.9h4.2
			v-5.4h0v-4h0.1c0-0.5,0-1.2,0-2.2C163.9,146.6,158.3,145.8,152.2,145.7z"/>
	</g>
	<g>
		<path class="st0" d="M148.7,162.9c-9.3,0-16.8-7.6-16.8-16.8c0-9.3,7.6-16.8,16.8-16.8c9.3,0,16.8,7.6,16.8,16.8
			C165.6,155.4,158,162.9,148.7,162.9z M148.7,130.5c-8.6,0-15.6,7-15.6,15.6c0,8.6,7,15.6,15.6,15.6c8.6,0,15.6-7,15.6-15.6
			C164.3,137.5,157.3,130.5,148.7,130.5z"/>
	</g>
	<g>
		<g>
			<g>
				<path class="st2" d="M142.7,142.7l0-4.4c-0.1-0.9-0.9-1.6-1.9-1.6h-0.1c-0.9,0-1.7,0.7-1.8,1.6l0,4.4c0,1,0.8,1.8,1.9,1.8h0.1
					C141.9,144.6,142.7,143.7,142.7,142.7z M139.3,138.3c0.1-0.7,0.7-1.2,1.5-1.2h0.1c0.7,0,1.4,0.5,1.5,1.2l0,2.5l-3,0L139.3,138.3
					z"/>
			</g>
		</g>
	</g>
	<g>
		<path class="st0" d="M84.6,165.5h0.3v5.4h-0.4v-4.8l-0.9,0.7l-0.2-0.3L84.6,165.5z"/>
		<path class="st0" d="M88.3,167.5h0.4v3.4h-0.4V167.5z M89.4,169.2l1.8,1.8h-0.5l-1.8-1.8l1.7-1.7h0.5L89.4,169.2z"/>
		<path class="st0" d="M92,167.8c0.3-0.2,0.7-0.3,1.1-0.3c1,0,1.3,0.5,1.3,1.4v2.1H94v-0.5c-0.2,0.3-0.6,0.6-1.2,0.6
			c-0.6,0-1.1-0.4-1.1-1c0-0.7,0.6-1.1,1.3-1.1c0.3,0,0.7,0.1,0.9,0.3c0-0.8,0-1.3-0.9-1.3c-0.4,0-0.7,0.1-1,0.3L92,167.8z
			 M94,170.1v-0.6c-0.3-0.2-0.5-0.3-0.9-0.3c-0.5,0-0.9,0.2-0.9,0.7c0,0.4,0.3,0.7,0.8,0.7C93.5,170.6,93.8,170.3,94,170.1z"/>
		<path class="st0" d="M98.1,167.9h-2.2v3.1h-0.4v-3.4h3v3.4h-0.4V167.9z"/>
		<path class="st0" d="M102.6,170.5c-0.3,0.4-0.8,0.6-1.3,0.6c-1.1,0-1.8-0.7-1.8-1.8c0-1,0.7-1.8,1.7-1.8c0.5,0,1,0.1,1.3,0.4
			l-0.2,0.3c-0.3-0.3-0.7-0.4-1.1-0.4c-0.7,0-1.4,0.6-1.4,1.4c0,0.9,0.6,1.4,1.4,1.4c0.4,0,0.8-0.2,1.1-0.5L102.6,170.5z"/>
		<path class="st0" d="M105,171c-0.5,1.2-0.8,1.5-1.3,1.5c-0.2,0-0.4-0.1-0.6-0.2l0.1-0.3c0.1,0.1,0.3,0.1,0.4,0.1
			c0.4,0,0.6-0.3,0.9-1l0.1-0.2l-1.7-3.4h0.5l1.2,2.4l0.2,0.5c0.1-0.2,0.1-0.4,0.2-0.5l0.9-2.4h0.5L105,171z"/>
		<path class="st0" d="M109.3,167.9h-1.5l0,0.8c-0.1,2-0.7,2.3-1.2,2.3l0-0.4c0.2,0,0.8-0.2,0.9-2l0.1-1.1h2.2v3.4h-0.4V167.9z"/>
		<path class="st0" d="M110.9,167.8c0.3-0.2,0.7-0.3,1.1-0.3c1,0,1.3,0.5,1.3,1.4v2.1h-0.4v-0.5c-0.2,0.3-0.6,0.6-1.2,0.6
			c-0.6,0-1.1-0.4-1.1-1c0-0.7,0.6-1.1,1.3-1.1c0.3,0,0.7,0.1,0.9,0.3c0-0.8,0-1.3-0.9-1.3c-0.4,0-0.7,0.1-1,0.3L110.9,167.8z
			 M112.9,170.1v-0.6c-0.3-0.2-0.5-0.3-0.9-0.3c-0.5,0-0.9,0.2-0.9,0.7c0,0.4,0.3,0.7,0.8,0.7C112.4,170.6,112.7,170.3,112.9,170.1z
			"/>
	</g>
</g>
</svg>
