<svg width="101" height="101" viewBox="0 0 101 101" xmlns="http://www.w3.org/2000/svg"><title>help</title><path d="M50.295.257c-27.614 0-50 22.386-50 50 0 27.613 22.386 50 50 50s50-22.387 50-50c0-27.614-22.386-50-50-50zm-.063 22.577C51.352 21.618 52.717 21 54.287 21c1.273 0 2.393.458 3.234 1.325.847.862 1.276 1.965 1.276 3.275 0 1.642-.574 3.102-1.705 4.34-1.16 1.275-2.52 1.924-4.034 1.924-1.25 0-2.357-.47-3.2-1.356-.837-.87-1.264-2.005-1.264-3.37 0-1.674.552-3.122 1.64-4.304zm8.33 47.107c-4.146 3.9-7.105 6.33-9.043 7.433-2.07 1.184-3.773 1.762-5.208 1.762-1.426 0-2.59-.475-3.46-1.41-.842-.904-1.27-2.125-1.27-3.625 0-3.834 2.173-12.738 6.644-27.22.076-.246.135-.48.175-.696-.166.072-.36.174-.583.313-.366.23-1.48 1.106-4.744 4.294-.498.488-1.277.533-1.828.106l-1.93-1.493c-.308-.237-.502-.593-.536-.98-.035-.388.095-.772.356-1.06 3.007-3.31 5.814-5.715 8.344-7.145C48.128 38.726 50.367 38 52.322 38c1.264 0 2.285.314 3.037.936.817.682 1.25 1.63 1.25 2.74 0 .73-.347 2.628-2.9 11.193-3.65 12.237-4.52 16.68-4.58 18.216.69-.408 2.323-1.568 5.81-4.844.542-.514 1.394-.504 1.927.016l1.71 1.668c.274.266.427.63.423 1.012-.004.38-.162.742-.44 1.003z" fill="#000" fill-rule="evenodd"/></svg>