<svg xmlns="http://www.w3.org/2000/svg" width="86" height="86" viewBox="0 0 86 86">
  <g fill="#FFFFFF" fill-rule="evenodd">
    <path d="M62,0.4 L24.2,0.4 C11,0.4 0.3,11.1 0.3,24.2 L0.3,62 C0.3,75.1 11,85.8 24.1,85.8 L62,85.8 C75.1,85.8 85.8,75.1 85.8,62 L85.8,24.2 C85.8,11.1 75.1,0.4 62,0.4 Z M78.8,62 C78.8,71.3 71.2,78.8 62,78.8 L24.2,78.8 C14.9,78.8 7.4,71.2 7.4,62 L7.4,24.2 C7.4,14.9 15,7.4 24.2,7.4 L62,7.4 C71.3,7.4 78.8,15 78.8,24.2 L78.8,62 Z"/>
    <path d="M43.1,21 C30.9,21 21,31 21,43.1 C21,55.3 30.9,65.2 43.1,65.2 C55.3,65.2 65.2,55.3 65.2,43.1 C65.2,31 55.3,21 43.1,21 Z M43.1,58.2 C34.8,58.2 28,51.4 28,43.1 C28,34.8 34.8,28 43.1,28 C51.4,28 58.2,34.8 58.2,43.1 C58.2,51.4 51.4,58.2 43.1,58.2 Z"/>
    <circle cx="65.8" cy="20.6" r="5.7"/>
  </g>
</svg>
