<svg xmlns="http://www.w3.org/2000/svg" width="74" height="74" viewBox="0 0 74 74">
  <g fill="#FFFFFF" fill-rule="evenodd">
    <path d="M37.1,24.8 C30.4,24.8 24.9,30.3 24.9,37 C24.9,43.7 30.4,49.2 37.1,49.2 C43.8,49.2 49.3,43.7 49.3,37 C49.3,30.3 43.8,24.8 37.1,24.8 Z"/>
    <path d="M49.7,0.9 L24.5,0.9 C11.5,0.9 0.9,11.5 0.9,24.5 L0.9,49.6 C0.9,62.6 11.5,73.2 24.5,73.2 L49.6,73.2 C62.6,73.2 73.2,62.6 73.2,49.6 L73.2,24.4 C73.2,11.5 62.6,0.9 49.7,0.9 Z M37.1,55.8 C26.7,55.8 18.3,47.4 18.3,37 C18.3,26.6 26.7,18.2 37.1,18.2 C47.5,18.2 55.9,26.6 55.9,37 C55.9,47.4 47.5,55.8 37.1,55.8 Z M55.6,22.8 C53.1,22.8 51,20.7 51,18.2 C51,15.7 53.1,13.6 55.6,13.6 C58.1,13.6 60.2,15.7 60.2,18.2 C60.1,20.8 58.1,22.8 55.6,22.8 Z"/>
  </g>
</svg>
