<?xml version="1.0" encoding="UTF-8" standalone="no"?>
<svg width="52px" height="52px" viewBox="0 0 52 52" version="1.1" xmlns="http://www.w3.org/2000/svg" xmlns:xlink="http://www.w3.org/1999/xlink" xmlns:sketch="http://www.bohemiancoding.com/sketch/ns">
    <!-- Generator: Sketch 3.4.4 (17249) - http://www.bohemiancoding.com/sketch -->
    <title>pause</title>
    <desc>Created with Sketch.</desc>
    <defs></defs>
    <g id="Page-1" stroke="none" stroke-width="1" fill="none" fill-rule="evenodd" sketch:type="MSPage">
        <g id="pause" sketch:type="MSLayerGroup">
            <g id="Group" sketch:type="MSShapeGroup">
                <g>
                    <g transform="translate(21.000000, 17.000000)" id="Shape" stroke="#043B61" fill="#043B61">
                        <path d="M0,0 L1.24000001,0 L1.24000001,18.3899994 L0,18.3899994 L0,0 Z M8.71702329,0 L9.9570233,0 L9.9570233,18.3899994 L8.71702329,18.3899994 L8.71702329,0 Z"></path>
                    </g>
                    <path d="M26,52 C11.6235294,52 0,40.3764706 0,26 C0,11.6235294 11.6235294,0 26,0 C40.3764706,0 52,11.6235294 52,26 C52,40.3764706 40.3764706,52 26,52 L26,52 Z M26,2.03921569 C12.745098,2.03921569 2.03921569,12.745098 2.03921569,26 C2.03921569,39.254902 12.745098,49.9607843 26,49.9607843 C39.254902,49.9607843 49.9607843,39.254902 49.9607843,26 C49.9607843,12.745098 39.254902,2.03921569 26,2.03921569 L26,2.03921569 Z" id="Shape" fill="#333B54"></path>
                </g>
            </g>
        </g>
    </g>
</svg>