<svg width="52px" height="52px" viewBox="0 0 52 52" version="1.1" xmlns="http://www.w3.org/2000/svg" xmlns:xlink="http://www.w3.org/1999/xlink" xmlns:sketch="http://www.bohemiancoding.com/sketch/ns">
    <!-- Generator: Sketch 3.4.4 (17249) - http://www.bohemiancoding.com/sketch -->
    <title>play</title>
    <g id="Page-1" stroke="none" stroke-width="1" fill="none" fill-rule="evenodd" sketch:type="MSPage">
        <g id="play" sketch:type="MSLayerGroup" fill="#fff">
            <g id="Group" sketch:type="MSShapeGroup">
                <path d="M19,36.6 L19,16.3 L38.1,27.1 L19,36.6 L19,36.6 Z M21,19.7 L21,33.4 L33.9,27 L21,19.7 L21,19.7 Z" id="Shape"></path>
                <path d="M26,51.5 C11.9,51.5 0.5,40.1 0.5,26 C0.5,11.9 11.9,0.5 26,0.5 C40.1,0.5 51.5,11.9 51.5,26 C51.5,40.1 40.1,51.5 26,51.5 L26,51.5 Z M26,2.5 C13,2.5 2.5,13 2.5,26 C2.5,39 13,49.5 26,49.5 C39,49.5 49.5,39 49.5,26 C49.5,13 39,2.5 26,2.5 L26,2.5 Z" id="Shape"></path>
            </g>
        </g>
    </g>
</svg>