<?xml version="1.0" encoding="UTF-8" standalone="no"?>
<svg width="51px" height="51px" viewBox="0 0 51 51" version="1.1" xmlns="http://www.w3.org/2000/svg" xmlns:xlink="http://www.w3.org/1999/xlink" xmlns:sketch="http://www.bohemiancoding.com/sketch/ns">
    <!-- Generator: Sketch 3.4.4 (17249) - http://www.bohemiancoding.com/sketch -->
    <title>play_b</title>
    <desc>Created with Sketch.</desc>
    <defs></defs>
    <g id="Page-1" stroke="none" stroke-width="1" fill="none" fill-rule="evenodd" sketch:type="MSPage">
        <g id="play_b" sketch:type="MSLayerGroup">
            <g id="play" sketch:type="MSShapeGroup">
                <g id="Page-1">
                    <g id="play" fill="#333B54">
                        <g id="Group">
                            <path d="M19,35.6 L19,15.3 L38.1,26.1 L19,35.6 L19,35.6 L19,35.6 Z M21,18.7 L21,32.4 L33.9,26 L21,18.7 L21,18.7 L21,18.7 Z" id="Shape"></path>
                            <path d="M25.5,51 C11.4,51 0,39.6 0,25.5 C0,11.4 11.4,0 25.5,0 C39.6,0 51,11.4 51,25.5 C51,39.6 39.6,51 25.5,51 L25.5,51 L25.5,51 Z M25.5,2 C12.5,2 2,12.5 2,25.5 C2,38.5 12.5,49 25.5,49 C38.5,49 49,38.5 49,25.5 C49,12.5 38.5,2 25.5,2 L25.5,2 L25.5,2 Z" id="Shape"></path>
                        </g>
                    </g>
                    <g id="Group" transform="translate(20.000000, 16.000000)" stroke="#043B61" fill="#043B61">
                        <path d="M0,0 L1.24000001,0 L1.24000001,18.3899994 L0,18.3899994 L0,0 Z M8.71702329,0 L9.9570233,0 L9.9570233,18.3899994 L8.71702329,18.3899994 L8.71702329,0 Z" id="Shape"></path>
                    </g>
                </g>
            </g>
        </g>
    </g>
</svg>