<svg width="51" height="51" viewBox="0 0 51 51" xmlns="http://www.w3.org/2000/svg"><title>play</title><g fill="none" fill-rule="evenodd"><path d="M25.5 51C11.4 51 0 39.6 0 25.5S11.4 0 25.5 0 51 11.4 51 25.5 39.6 51 25.5 51zm0-49C12.5 2 2 12.5 2 25.5S12.5 49 25.5 49 49 38.5 49 25.5 38.5 2 25.5 2z" fill="#333B54"/><path d="M19 35.6V15.3l19.1 10.8L19 35.6zm2-16.9v13.7L33.9 26 21 18.7z" fill="#333B54"/><path d="M20 16h1.24v18.39H20V16zm8.717 0h1.24v18.39h-1.24V16z" stroke="#043B61" fill="#043B61"/></g></svg>