<svg xmlns="http://www.w3.org/2000/svg" viewBox="0 0 630 500" xmlns:xlink="http://www.w3.org/1999/xlink">
  <defs>
    <filter id="a" width="316.7%" height="316.7%" x="-108.4%" y="-108.4%" filterUnits="objectBoundingBox">
      <feGaussianBlur in="SourceGraphic" stdDeviation="6.502"/>
    </filter>
  </defs>
  <g fill="none" fill-rule="evenodd" transform="translate(-1577 -1094)">
    <g transform="translate(1577 1094)">
      <path fill="#F7F7F7" d="M0 0H630V500H0z"/>
      <image xlink:href="/img/index-img/men@2x.min.png" width="286.002" height="500" x="172" y="1"/>
      <g class="m-end-w" transform="translate(24 133)">
        <g class="m-org  Яички" transform="translate(291 1)">
          <g transform="translate(0 38)">
            <path stroke="#606D88" d="M7.84765625 220.601562L170 1.86920147e-7 246.117188 1.86920147e-7"/>
            <circle cx="9.285" cy="222.341" r="9" fill="#065BB9" class="blur" filter="url(#a)" opacity=".695"/>
            <circle cx="7.285" cy="221.341" r="5" fill="#4B6186"/>
          </g>
          <g class="org-gr" transform="translate(201)">
            <g class="gr-m">
              <circle cx="45" cy="45" r="45" fill="#F7F7F7" stroke="#495466" stroke-width="1.2"/>
              <path stroke="#4B5363" stroke-opacity=".566" stroke-width="1.2" d="M56.229,22.371 C56.229,26.057 51.171,29.057 45,29.057 C38.829,29.057 33.771,26.057 33.771,22.371 C33.771,18.686 38.829,17.229 45,17.229 C51.171,17.229 56.229,18.686 56.229,22.371 L56.229,22.371 Z"/>
              <g stroke="#4B5363" stroke-opacity=".566" stroke-width="1.2" transform="translate(33 34)">
                <path d="M12 47.771L12 12.457C12 .8 20.914.2 22.029.886 24 2.086 22.971 3.8 22.114 4.914 21.257 6.029 19.286 7.4 19.286 10.743L19.286 33.029C19.286 34.229 20.4 33.029 21.429 35.343 22.371 37.657 19.629 45.371 16.714 46.743 14.314 47.857 12 47.771 12 47.771L12 47.771zM12 47.771L12 12.457C12 .8 3.086.2 1.886.886-.086 2.086.943 3.8 1.8 4.914 2.657 6.029 4.629 7.4 4.629 10.743L4.629 33.029C4.629 34.229 3.514 33.029 2.486 35.343 1.543 37.657 4.286 45.371 7.2 46.743 9.6 47.857 12 47.771 12 47.771L12 47.771z"/>
                <path d="M15.686,2.6 C14.657,2.086 13.371,1.829 11.914,1.829 C10.457,1.829 9.171,2.171 8.143,2.6"/>
              </g>
              <g stroke="#4B5363" stroke-opacity=".566" stroke-width="1.2" transform="translate(14 5)">
                <path d="M46.943,39.4 C46.943,39.4 45.143,40 45.743,41.714 C46.343,43.429 48.057,42.829 48.057,42.829 C50.886,41.886 54.229,44.286 55.429,48.143 C56.629,52 55.343,55.857 52.514,56.8 C52.514,56.8 50.886,57.743 51.314,59.286 C51.829,60.829 53.629,60.229 53.629,60.229 C58.257,58.771 60.571,52.857 58.771,47.114 C56.971,41.371 51.571,37.943 46.943,39.4 L46.943,39.4 Z"/>
                <path d="M52.429.743C47.886 8.543 44.629 18.4 53.8 26.371 67.514 38.371 57.743 44.8 57.743 44.8M14.629 39.4C14.629 39.4 16.429 40 15.829 41.714 15.229 43.429 13.514 42.829 13.514 42.829 10.686 41.886 7.343 44.286 6.143 48.143 4.943 52 6.229 55.857 9.057 56.8 9.057 56.8 10.686 57.743 10.257 59.286 9.743 60.829 7.943 60.229 7.943 60.229 3.314 58.771 1 52.857 2.8 47.114 4.6 41.371 10 37.943 14.629 39.4L14.629 39.4z"/>
                <path d="M9.143,0.743 C13.686,8.543 16.943,18.4 7.771,26.371 C-5.943,38.371 3.829,44.8 3.829,44.8"/>
              </g>
              <path stroke="#5F98D7" stroke-width="1.5" d="M62.07 47.906C64.909 46.998 68.208 49.37 69.433 53.199 70.658 57.029 69.349 60.875 66.51 61.784 63.672 62.692 60.373 60.32 59.147 56.49 57.922 52.66 59.232 48.814 62.07 47.906L62.07 47.906zM23.109 61.728C20.271 60.82 18.961 56.973 20.186 53.143 21.411 49.314 24.711 46.942 27.549 47.85 30.387 48.758 31.697 52.605 30.472 56.434 29.247 60.264 25.948 62.636 23.109 61.728L23.109 61.728z" class="m-item"/>
            </g>
          </g>
        </g>
      </g>
    </g>
  </g>
</svg>
