<svg xmlns="http://www.w3.org/2000/svg" viewBox="0 0 630 500" xmlns:xlink="http://www.w3.org/1999/xlink">
  <defs>
    <filter id="a" width="316.7%" height="316.7%" x="-108.4%" y="-108.4%" filterUnits="objectBoundingBox">
      <feGaussianBlur in="SourceGraphic" stdDeviation="6.502"/>
    </filter>
    <filter id="b" width="343.8%" height="343.8%" x="-121.9%" y="-121.9%" filterUnits="objectBoundingBox">
      <feGaussianBlur in="SourceGraphic" stdDeviation="6.502"/>
    </filter>
    <filter id="c" width="345.6%" height="345.6%" x="-122.8%" y="-122.8%" filterUnits="objectBoundingBox">
      <feGaussianBlur in="SourceGraphic" stdDeviation="7.369"/>
    </filter>
    <filter id="d" width="262.5%" height="262.5%" x="-81.3%" y="-81.3%" filterUnits="objectBoundingBox">
      <feGaussianBlur in="SourceGraphic" stdDeviation="6.502"/>
    </filter>
    <filter id="e" width="343.8%" height="343.8%" x="-121.9%" y="-121.9%" filterUnits="objectBoundingBox">
      <feGaussianBlur in="SourceGraphic" stdDeviation="6.502"/>
    </filter>
  </defs>
  <g fill="none" fill-rule="evenodd" transform="translate(-2241 -1096)">
    <g transform="translate(2241 1096)">
      <path fill="#F7F7F7" d="M0 0H630V500H0z"/>
      <image xlink:href="/img/index-img/woman@2x.min.png" x="191" width="247.485" height="500" />
      <g class="w-end-m" transform="translate(25 18)">
        <g class="w-org  Мочевой  пузырь" transform="translate(1 188)">
          <g transform="translate(44 45)">
            <path stroke="#606D88" d="M241.773438 152.546875L85.7890625 0.773435699 0.140624988 0.773435699"/>
            <circle cx="244.357" cy="151.514" r="9" fill="#065BB9" class="blur" filter="url(#a)" opacity=".695"/>
            <circle cx="242.357" cy="152.514" r="5" fill="#4B6186"/>
          </g>
          <g class="org-gr">
            <g class="gr-m">
              <circle cx="45" cy="45" r="45" fill="#F7F7F7" stroke="#495466" stroke-width="1.2"/>
              <g stroke="#4B5363" stroke-opacity=".566" stroke-width="1.2" transform="translate(17 25)">
                <path d="M27.914 61.229C27.914 59.429 28 57.457 28.171 55.314 28.771 45.543 30.4 40.4 33.143 38.171 35.114 36.543 37.686 35.6 40.514 34.657 45.314 33.029 50.714 31.143 53.714 25.4 56.371 20.429 56.2 15.971 53.286 11.171 50.886 7.229 44.457.286 27.914.286 11.371.286 4.943 7.229 2.543 11.171-.371 15.971-.543 20.429 2.114 25.4 5.114 31.143 10.6 33.029 15.314 34.657 18.143 35.6 20.714 36.543 22.686 38.171 25.429 40.486 27.057 45.629 27.657 55.314 27.829 57.457 27.914 59.514 27.914 61.229M28.171 64.9L28 64.9 27.743 64.9"/>
                <path d="M5.286 21.971C5.8 23.514 6.914 24.886 8.457 25.4 9.057 25.571 9.743 25.657 10.343 25.829 11.371 26.086 12.4 26.514 13.171 27.2 13.943 27.886 14.457 28.914 14.457 29.943M18.743 28.571C18.657 30.371 19.771 32.257 21.486 32.943 22.343 33.286 23.286 33.371 24.143 33.714 25.686 34.4 26.8 36.029 27.057 37.657M11.543 18.714C12.4 19.571 13.257 20.429 14.457 20.771 15.229 20.943 16.086 20.943 16.857 20.943 18.829 21.029 20.886 21.886 21.657 23.6M5.286 16.914C5.886 15.629 7.257 14.686 8.714 14.514 9.743 14.429 10.686 14.686 11.714 14.686 13.086 14.686 14.457 14.171 15.486 13.229M12.829 9.286C14.457 7.657 16.943 6.971 19.257 7.486 20.2 7.657 21.057 8.086 21.914 8.171 23.457 8.343 25.086 7.657 26.029 6.457M51.486 21.114C50.971 22.657 49.857 24.029 48.314 24.543 47.714 24.714 47.029 24.8 46.429 24.971 45.4 25.229 44.371 25.657 43.6 26.343 42.829 27.029 42.314 28.057 42.314 29.086M38.029 28.571C38.114 30.371 37 32.257 35.286 32.943 34.429 33.286 33.486 33.371 32.629 33.714 31.086 34.4 29.971 36.029 29.714 37.657M45.143 18.114C44.286 18.971 43.429 19.829 42.229 20.171 41.457 20.343 40.6 20.343 39.829 20.343 37.857 20.429 35.8 21.286 35.029 23M50.286 16.143C49.686 14.857 48.314 13.914 46.857 13.743 45.829 13.657 44.886 13.914 43.857 13.914 42.486 13.914 41.114 13.4 40.086 12.457M43.171 9.286C41.543 7.657 39.057 6.971 36.743 7.486 35.8 7.657 34.943 8.086 34.086 8.171 32.543 8.343 30.914 7.657 29.971 6.457M27.829 15.114C27.229 16.4 26.886 18.029 27.486 19.314 27.829 20 28.514 20.6 28.686 21.371 29.029 22.571 28.343 23.857 27.571 24.886M27.914 61.229L27.914 65"/>
              </g>
              <g stroke="#FD5368" stroke-width="1.7" transform="translate(1 18)">
                <path d="M39.457 71.743C39.286 64.114 38.514 52.714 35.514 50.143 30.971 46.286 18.2 46.543 12.2 35.057 10.057 30.943 9.286 26.229 9.971 21.6 10.143 20.4 9.457 19.286 8.343 18.771 5.514 17.571 2.943 15.943.8 13.8M83.6 5.829C82.057 7.971 80 9.857 77.257 11.229 75.543 12.086 73.486 11.743 72.2 10.371 66.886 4.629 57.714.6 43.914.6 30.2.6 21.029 4.629 15.629 10.371 14.343 11.743 12.286 12.086 10.571 11.229 7.829 9.857 5.771 7.971 4.229 5.829M48.371 71.743C48.543 64.114 49.314 52.714 52.314 50.143 56.857 46.286 69.629 46.543 75.629 35.057 77.771 30.943 78.543 26.229 77.857 21.6 77.686 20.4 78.371 19.286 79.486 18.771 82.314 17.571 84.886 15.943 87.029 13.8" class="w-item"/>
              </g>
            </g>
          </g>
        </g>
        <g class="w-org  Костная  система" transform="translate(326 298)">
          <g transform="translate(0 50)">
            <path stroke="#606D88" d="M10.0976562 89.171875L122.59375 0.944 211.445314 0.944"/>
            <circle cx="8.285" cy="88.341" r="8" fill="#065BB9" class="blur" filter="url(#b)" opacity=".695"/>
            <circle cx="9.285" cy="88.341" r="5" fill="#4B6186"/>
          </g>
          <g class="org-gr" transform="translate(168)">
            <g class="gr-m">
              <circle cx="45" cy="45.5" r="45" fill="#F7F7F7" stroke="#495466" stroke-width="1.2"/>
              <g stroke="#4B5363" stroke-opacity=".566" stroke-width="1.2" transform="translate(16 18)">
                <circle cx="6.971" cy="10.271" r="1.8"/>
                <circle cx="13.057" cy="13.1" r="1.8"/>
                <circle cx="21.371" cy="13.1" r="1.8"/>
                <circle cx="20.514" cy="24.071" r="1.8"/>
                <circle cx="25.057" cy="29.471" r="1.8"/>
                <circle cx="29.429" cy="35.814" r="1.8"/>
                <circle cx="31.314" cy="22.7" r="1.8"/>
                <circle cx="34.914" cy="29.043" r="1.8"/>
                <circle cx="41.343" cy="24.5" r="1.8"/>
                <circle cx="49.229" cy="22.7" r="1.8"/>
                <circle cx="48.8" cy="29.557" r="1.8"/>
                <circle cx="44.514" cy="42.071" r="1.8"/>
                <circle cx="26.686" cy="61.014" r="1.8"/>
                <circle cx="31.229" cy="42.843" r="1.8"/>
                <circle cx="36.714" cy="36.243" r="1.8"/>
                <circle cx="43.486" cy="34.443" r="1.8"/>
                <circle cx="38.257" cy="43.871" r="1.8"/>
                <circle cx="40.314" cy="60.5" r="1.8"/>
                <circle cx="33.457" cy="61.271" r="1.8"/>
                <circle cx="36.886" cy="66.757" r="1.8"/>
                <circle cx="29.343" cy="67.014" r="1.8"/>
                <circle cx="25.4" cy="17.986" r="1.8"/>
                <circle cx="20.514" cy="5.729" r="1.8"/>
                <circle cx="13.057" cy="6.157" r="1.8"/>
                <circle cx="7.743" cy="17.214" r="1.8"/>
                <circle cx="14.857" cy="19.1" r="1.8"/>
                <path d="M42.629,70.357 C43.743,66.071 49.829,44.729 50.514,38.043 C50.943,34.357 56,32.386 56.943,28.786 C57.629,26.214 57.886,23.386 56.771,20.986 C55.143,17.471 51.029,15.671 47.429,16.357 C44.857,16.871 42.629,18.157 40.057,18.329 C37.486,18.586 34.743,17.986 32.514,16.614 C29.686,14.9 27.629,11.9 26.857,8.643 C26.257,5.9 27.286,2.214 24.029,0.843 C22.657,0.243 21.114,0.157 19.657,0.071 C15.2,-0.014 10.657,0.671 6.886,2.986 C3.114,5.3 0.286,9.5 0.457,13.957 C0.543,16.529 1.829,19.271 3.8,20.986 C6.371,23.3 8.343,22.271 11.343,23.043 C13.229,23.471 14.686,24.929 16.057,26.386 C17.6,28.014 19.143,29.729 20.686,31.443 C22.486,33.5 24.2,35.557 25.4,37.957 C27.543,42.329 26.686,47.043 25.657,51.586 C24.114,58.443 21.371,64.871 18.114,71.043"/>
              </g>
              <path stroke="#FD5368" stroke-width="1.7" d="M63.257,86.643 C64.886,82.957 69.514,66.843 70.8,58.786 C71.4,55.271 76.114,52.1 77.143,47.986 C78.257,43.871 78.086,40.271 76.714,37.186 C74.314,31.871 68.314,28.957 62.4,30.071 C61.029,30.329 59.743,30.757 58.629,31.186 C57.429,31.614 56.4,31.957 55.457,32.043 C53.743,32.214 52.029,31.786 50.657,30.929 C48.857,29.814 47.571,27.929 47.057,25.786 C46.971,25.357 46.971,24.757 46.886,24.071 C46.714,21.586 46.543,16.871 41.657,14.814 C39.514,13.871 37.457,13.7 35.571,13.7 C29.571,13.614 24.429,14.814 20.4,17.3 C15,20.643 11.657,26.471 11.914,32.214 C12.086,35.986 13.886,39.929 16.714,42.414 C19.543,44.9 22.286,45.071 24.171,45.243 C24.857,45.329 25.543,45.329 26.143,45.5 C26.914,45.671 28.029,46.957 28.714,47.557 C30.257,49.186 31.714,50.814 33.171,52.529 C34.714,54.243 36.257,56.129 37.2,58.1 C38.657,61.1 38.057,64.7 37.114,68.814 C35.657,75.586 32.829,81.929 28.971,87.671" class="w-item"/>
            </g>
          </g>
        </g>
        <g class="w-org  Нервная  система">
          <g transform="translate(42)">
            <path stroke="#606D88" d="M225.90625 11.1953125L94.4609375 121.894531 0.91015625 121.894531"/>
            <circle cx="226.357" cy="9.514" r="9" fill="#125198" class="blur" filter="url(#c)"/>
            <circle cx="225.357" cy="10.514" r="5" fill="#4B6186"/>
          </g>
          <g class="org-gr" transform="translate(0 76)">
            <g class="gr-m">
              <circle cx="45" cy="45.5" r="45" fill="#F7F7F7" stroke="#495466" stroke-width="1.2"/>
              <circle cx="34.971" cy="41.729" r="3.514" stroke="#4B5363" stroke-opacity=".566" stroke-width="1.2"/>
              <path stroke="#FD5368" stroke-width="1.5" d="M38.657,90.071 C38.914,88.1 38.657,85.871 39,84.329 C39.6,81.671 41.4,79.1 43.971,78.157 C46.971,77.043 50.314,77.043 53.486,76.786 C56.057,76.614 58.457,76.357 60.429,75.929 C69.771,73.614 76.371,68.043 78.857,60.243 C81.343,52.443 79.2,43.271 73.543,37.529 C69.086,33.071 62.743,30.586 56.486,31.014 C51.343,31.357 46.886,33.329 42.514,35.3 C41.914,35.557 41.057,36.157 40.371,36.157 L40.286,36.157 L40.286,36.071 C40.286,35.386 40.714,34.443 41.057,33.757 C41.4,32.9 41.914,31.871 42.686,31.357 C43.457,30.843 44.4,30.586 45.171,30.071 C46.629,29.129 47.829,27.757 48.686,26.214 C49.2,25.271 48.857,24.157 47.914,23.643 C46.971,23.129 45.857,23.471 45.343,24.414 C44.571,25.786 43.457,26.814 42.086,27.5 C41.571,25.529 41.486,23.471 41.914,21.5 C42.086,20.471 41.486,19.443 40.457,19.271 C39.429,19.1 38.4,19.7 38.229,20.729 C37.886,22.529 37.8,24.329 38.057,26.214 C38.143,27.071 38.314,27.843 38.657,28.614 C39.257,29.814 38.571,30.5 38.143,31.529 C37.8,32.214 37.457,32.986 37.114,33.671 C36.857,34.271 36.429,35.129 35.743,35.3 C35.229,35.471 34.714,35.471 34.2,35.557 C33.686,35.643 33.171,35.814 32.657,35.557 C32.057,35.3 31.629,34.786 31.2,34.271 C30.514,33.5 29.486,32.043 29.914,31.014 C30,30.757 30.171,30.586 30.343,30.414 C31.8,28.614 32.4,26.471 32.571,24.157 C32.657,23.129 32.657,22.1 32.657,21.157 C32.657,19.871 32.657,18.671 32.914,17.471 C33.086,16.443 32.4,15.5 31.371,15.329 C30.343,15.157 29.4,15.843 29.229,16.871 C28.714,18.157 28.714,19.614 28.714,20.9 L28.714,24.843 C28.714,25.271 28.629,25.7 28.029,25.529 C27.6,25.443 27.514,25.014 27.343,24.671 C26.486,22.7 24.771,21.243 23.743,19.357 C23.229,18.414 22.029,18.157 21.171,18.671 C20.229,19.186 19.971,20.386 20.486,21.243 C21.257,22.614 22.2,23.729 23.143,24.843 C23.4,25.186 23.657,25.529 23.914,25.871 C22.543,26.129 21.171,26.043 19.886,25.614 C18.857,25.271 17.829,25.871 17.486,26.9 C17.143,27.929 17.743,28.957 18.771,29.3 C19.971,29.643 21.171,29.814 22.371,29.814 C23.486,29.814 24.429,29.557 25.457,29.3 C25.629,29.214 25.8,29.3 25.971,29.386 C26.143,29.557 26.143,29.729 26.143,29.986 C26.143,30.929 25.8,31.614 26.057,32.557 C26.229,33.414 26.657,34.271 27.086,35.043 C27.514,35.729 28.029,36.329 28.543,36.929 C28.971,37.357 29.657,38.043 29.4,38.729 C29.229,39.243 28.714,40.1 28.2,40.357 C26.743,41.043 24.6,40.186 23.486,39.157 C22.971,38.729 22.629,38.214 22.2,37.7 C21.343,36.671 20.314,35.814 19.2,35.129 C17.743,34.271 16.029,33.671 14.314,33.414 C13.286,33.329 12.343,34.014 12.171,35.043 C12.086,36.071 12.771,37.014 13.8,37.186 C14.829,37.271 15.857,37.614 16.714,38.129 C16.886,38.214 17.657,38.471 17.743,38.729 C17.829,38.986 17.4,39.329 17.229,39.329 C16.714,39.5 16.2,39.5 15.686,39.671 C14.657,39.929 13.629,40.186 12.686,40.357 C11.657,40.529 10.886,41.471 11.057,42.5 C11.143,43.443 12,44.129 12.943,44.129 L13.2,44.129 C14.4,43.957 15.6,43.614 16.714,43.357 C17.229,43.186 17.743,43.1 18.171,43.014 C19.286,42.757 20.571,42.329 21.686,42.757 C22.2,42.929 22.543,43.357 23.057,43.614 C23.657,43.871 24.343,44.129 25.029,44.214 C26.229,44.471 27.343,44.471 28.457,44.471 C28.8,44.471 29.143,44.386 29.4,44.729 C30.429,45.843 30,47.043 29.4,48.243 C29.229,48.671 28.886,49.1 28.457,49.614 C27.771,50.386 27.086,51.5 25.971,51.329 C25.114,51.243 24.257,50.729 23.486,50.471 C22.2,49.957 20.914,49.271 19.714,48.5 C18.857,47.9 17.657,48.157 17.057,49.1 C16.457,49.957 16.714,51.157 17.657,51.757 C19.543,52.957 21.6,53.986 23.743,54.671 C23.4,55.014 23.057,55.443 22.714,55.786 C22.029,56.643 21.343,57.414 20.571,58.186 C19.8,58.957 19.8,60.157 20.571,60.843 C20.914,61.186 21.429,61.443 21.943,61.443 C22.457,61.443 22.886,61.271 23.229,60.929 C24.086,60.071 24.857,59.129 25.629,58.271 C26.143,57.671 26.657,57.071 27.171,56.471 C27.514,56.043 27.943,55.7 28.286,55.271 C28.457,55.186 28.543,55.1 28.629,55.014 C28.8,55.957 28.971,56.986 28.971,58.014 L28.971,58.1 C28.971,59.3 28.971,60.5 28.714,61.443 C28.371,62.471 28.971,63.5 29.914,63.843 C30.086,63.929 30.257,63.929 30.514,63.929 C31.286,63.929 32.057,63.414 32.314,62.643 C32.829,61.1 32.743,59.471 32.743,58.1 L32.743,58.014 C32.743,56.557 32.571,55.1 32.229,53.729 C31.886,52.443 32.057,51.329 32.657,50.129 C33,49.443 33.171,48.329 34.029,48.071 C34.371,47.986 34.714,48.157 35.057,48.157 C35.657,48.157 36.257,47.986 36.857,47.9 C37.971,47.643 38.057,48.071 38.486,48.929 C39.171,50.3 39.943,51.5 40.714,52.786 C41.314,53.814 41.057,54.757 41.057,55.871 C41.057,57.071 41.143,58.271 41.4,59.471 L41.486,59.9 C41.657,60.757 41.829,61.7 42,62.643 C42.171,63.5 42.943,64.186 43.886,64.186 L44.314,64.186 C45.343,63.929 46.029,62.986 45.771,61.957 C45.6,61.1 45.429,60.243 45.343,59.386 L45,58.786 C44.914,58.186 44.829,57.586 44.829,56.9 C46.2,58.1 47.657,59.214 49.2,60.243 C49.543,60.5 49.886,60.586 50.229,60.586 C50.829,60.586 51.429,60.329 51.771,59.729 C52.371,58.871 52.114,57.671 51.257,57.071 C49.457,55.871 47.743,54.5 46.114,52.957 C47.571,52.786 49.029,52.7 50.314,53.129 C51.343,53.471 52.371,52.871 52.714,51.929 C53.057,50.9 52.457,49.871 51.514,49.529 C48.943,48.757 46.371,49.1 44.057,49.443 C43.886,49.443 43.543,49.529 43.2,49.529 C42.429,48.329 41.914,46.957 41.229,45.757 C40.8,45.071 40.714,44.386 41.229,43.614 C42.086,42.329 43.886,41.814 45.257,41.214 C49.2,39.414 52.971,37.786 56.914,37.529 C61.286,37.271 65.743,38.986 68.829,42.071 C72.771,46.1 74.314,52.443 72.514,58.014 C70.2,65.214 63.857,68.129 58.886,69.329 C57.429,69.671 55.286,69.843 52.971,70.014 C49.286,70.357 45,70.7 41.4,71.986 C34.543,74.386 31.971,81.843 32.057,88.614" class="w-item"/>
            </g>
          </g>
        </g>
        <g class="w-org  Молочные  железы" transform="translate(317 74)">
          <g transform="translate(0 46)">
            <path stroke="#606D88" d="M11.8476563 66.6367188L136.285157 0.0742195129 219.652345 0.0742195129"/>
            <circle cx="12.285" cy="65.841" r="12" fill="#065BB9" class="blur" filter="url(#d)" opacity=".695"/>
            <circle cx="11.285" cy="64.841" r="5" fill="#57647A"/>
          </g>
          <g class="org-gr" transform="translate(174)">
            <g class="gr-m">
              <circle cx="45" cy="45.5" r="45" fill="#F7F7F7" stroke="#495466" stroke-width="1.2"/>
              <g stroke="#4B5363" stroke-opacity=".566" stroke-width="1.2" transform="translate(16)">
                <path d="M7.829 35.214C9.371 35.814 10.571 37.186 11 38.814M3.371 55.871C5.257 54.929 6.886 53.557 8.086 51.757M6.2 45.929C7.657 46.614 8.943 47.643 10.229 48.671 14.257 51.843 18.286 54.929 22.057 58.357 22.914 59.129 23.686 59.9 24.371 60.757 24.543 61.014 24.714 61.271 24.8 61.614 24.971 62.214 24.629 62.9 24.114 63.243 23.6 63.586 23 63.757 22.314 63.757 20.514 63.757 18.8 62.729 17.6 61.357 15.543 59.043 14.343 56.3 13.143 53.471 12.457 51.757 11.6 50.043 10.229 48.929M6.971 43.957C6.971 43.957 14.771 44.129 21.2 40.871 27.629 37.614 31.143 33.757 29.343 31.786 27.886 30.329 24.8 31.786 21.971 34.957 18.543 38.729 14.086 43.7 6.971 43.957L6.971 43.957zM12.371 45.929C12.371 45.929 22.143 48.329 30.543 47.3 41 46.014 36.8 37.786 29.686 41.471 21.886 45.5 12.371 45.929 12.371 45.929L12.371 45.929zM14.171 48.5C14.171 48.5 20.857 53.9 27.8 56.043 36.371 58.786 36.029 50.9 29.257 51.157 21.714 51.5 14.171 48.5 14.171 48.5L14.171 48.5z"/>
                <path d="M46.829,86.814 C46.657,82.443 46.571,78.071 46.4,73.7 C40.486,74.986 34.486,76.271 28.4,75.671 C20.943,74.9 13.914,70.957 9.029,65.3 C4.143,59.643 1.314,52.357 0.714,44.814 C0.629,44.129 0.629,43.443 0.8,42.757 C1.057,41.986 1.571,41.386 2.171,40.871 C7.229,35.729 12.543,30.929 17.171,25.357 C21.886,19.786 26,13.7 29.086,7.014 C30.029,4.871 30.886,2.729 31.571,0.586"/>
              </g>
              <path stroke="#FD5368" stroke-width="1.7" d="M17.571,41.729 C24.943,43.1 28.971,37.529 33.171,32.471 C37.286,27.5 42.343,22.871 49.029,22.614 C58.371,22.271 64.457,29.643 66.429,38.043 C68.657,47.643 67.114,60.5 58.8,66.843 C50.829,72.929 39.429,71.214 32.314,64.871 C28.971,61.871 27.086,57.5 25.2,53.557 C23.314,49.786 20.143,47.214 16.714,45.071" class="w-item"/>
            </g>
          </g>
        </g>
        <g class="w-org  Кожа" transform="translate(366 187)">
          <g transform="translate(0 21)">
            <path stroke="#606D88" d="M10.5585938 9.66015625L82.59375 30.944 171.445314 30.944"/>
            <circle cx="8.285" cy="8.341" r="8" fill="#065BB9" class="blur" filter="url(#e)" opacity=".695"/>
            <circle cx="9.285" cy="8.341" r="5" fill="#4B6186"/>
          </g>
          <g class="org-gr" transform="translate(126)">
            <g class="gr-m">
              <circle cx="45" cy="45.5" r="45" fill="#F7F7F7" stroke="#495466" stroke-width="1.2"/>
              <g stroke="#4B5363" stroke-opacity=".566" stroke-width="1.2" transform="translate(0 9)">
                <circle cx="51.086" cy="60.586" r="2.4"/>
                <circle cx="65.829" cy="51.243" r="2.4"/>
                <circle cx="76.114" cy="58.871" r="2.4"/>
                <circle cx="61.286" cy="68.471" r="2.4"/>
                <circle cx="22.286" cy="64.614" r="2.4"/>
                <circle cx="16.286" cy="50.471" r="2.4"/>
                <circle cx="32.914" cy="56.3" r="2.4"/>
                <circle cx="40.371" cy="72.929" r="2.4"/>
                <path d="M53.743 42.5L53.743 37.271C53.743 35.3 55.371 33.671 57.343 33.671 59.314 33.671 60.943 35.3 60.943 37.271L60.943 38.9C60.943 40.871 62.571 42.5 64.543 42.5 66.514 42.5 68.143 40.871 68.143 38.9L68.143 37.271C68.143 35.3 69.771 33.671 71.743 33.671 73.714 33.671 75.343 35.3 75.343 37.271L75.343 38.9C75.343 40.871 76.971 42.5 78.943 42.5 80.914 42.5 82.543 40.871 82.543 38.9L82.543 37.271C82.543 35.3 84.171 33.671 86.143 33.671 88.114 33.671 89.829 35.3 89.829 37.271M36.343 42.5L36.343 37.271C36.343 35.3 34.714 33.671 32.743 33.671 30.771 33.671 29.143 35.3 29.143 37.271L29.143 38.9C29.143 40.871 27.514 42.5 25.543 42.5 23.571 42.5 21.943 40.871 21.943 38.9L21.943 37.271C21.943 35.3 20.314 33.671 18.343 33.671 16.371 33.671 14.743 35.3 14.743 37.271L14.743 38.9C14.743 40.871 13.114 42.5 11.143 42.5 9.171 42.5 7.543 40.871 7.543 38.9L7.543 37.271C7.543 35.3 5.914 33.671 3.943 33.671 1.971 33.671.257 35.3.257 37.271M49.714 43.957C49.714 46.529 47.657 48.586 45.086 48.586 42.514 48.586 40.457 46.529 40.457 43.957 40.457 39.757 42.857 39.929 43.371 33.671 44.571 20.9 45.086.929 45.086.929 45.086.929 45.429 21.071 46.8 33.671 47.4 40.014 49.714 39.929 49.714 43.957L49.714 43.957z"/>
              </g>
              <path stroke="#FD5368" stroke-width="1.7" d="M2.486,30.757 L32.229,30.757 C35.657,30.757 38.4,33.5 38.4,36.929 L36.086,53.214 C36.086,58.1 40.029,62.129 45,62.129 C49.886,62.129 53.914,58.186 53.914,53.214 L51.6,36.929 C51.6,33.5 54.343,30.757 57.771,30.757 L87.514,30.757" class="w-item"/>
            </g>
          </g>
        </g>
      </g>
    </g>
  </g>
</svg>
