<svg xmlns="http://www.w3.org/2000/svg" viewBox="0 0 630 500" xmlns:xlink="http://www.w3.org/1999/xlink">
  <defs>
    <filter id="a" width="262.5%" height="262.5%" x="-81.3%" y="-81.3%" filterUnits="objectBoundingBox">
      <feGaussianBlur in="SourceGraphic" stdDeviation="6.502"/>
    </filter>
  </defs>
  <g fill="none" fill-rule="evenodd" transform="translate(-906 -3672)">
    <g transform="translate(906 3672)">
      <path fill="#F7F7F7" d="M0 0H630V500H0z"/>
      <image xlink:href="/img/index-img/woman@2x.min.png" x="191" width="247.485" height="500" />
      <g class="w-end-m" transform="translate(25 18)">
        <g class="w-org  Молочные  железы" transform="translate(317 74)">
          <g transform="translate(0 46)">
            <path stroke="#606D88" d="M11.8476563 66.6367188L136.285157 0.0742195129 219.652345 0.0742195129"/>
            <circle cx="12.285" cy="65.841" r="12" fill="#065BB9" class="blur" filter="url(#a)" opacity=".695"/>
            <circle cx="11.285" cy="64.841" r="5" fill="#57647A"/>
          </g>
          <g class="org-gr" transform="translate(174)">
            <g class="gr-m">
              <circle cx="45" cy="45.5" r="45" fill="#F7F7F7" stroke="#495466" stroke-width="1.2"/>
              <g stroke="#4B5363" stroke-opacity=".566" stroke-width="1.2" transform="translate(16)">
                <path d="M7.829 35.214C9.371 35.814 10.571 37.186 11 38.814M3.371 55.871C5.257 54.929 6.886 53.557 8.086 51.757M6.2 45.929C7.657 46.614 8.943 47.643 10.229 48.671 14.257 51.843 18.286 54.929 22.057 58.357 22.914 59.129 23.686 59.9 24.371 60.757 24.543 61.014 24.714 61.271 24.8 61.614 24.971 62.214 24.629 62.9 24.114 63.243 23.6 63.586 23 63.757 22.314 63.757 20.514 63.757 18.8 62.729 17.6 61.357 15.543 59.043 14.343 56.3 13.143 53.471 12.457 51.757 11.6 50.043 10.229 48.929M6.971 43.957C6.971 43.957 14.771 44.129 21.2 40.871 27.629 37.614 31.143 33.757 29.343 31.786 27.886 30.329 24.8 31.786 21.971 34.957 18.543 38.729 14.086 43.7 6.971 43.957L6.971 43.957zM12.371 45.929C12.371 45.929 22.143 48.329 30.543 47.3 41 46.014 36.8 37.786 29.686 41.471 21.886 45.5 12.371 45.929 12.371 45.929L12.371 45.929zM14.171 48.5C14.171 48.5 20.857 53.9 27.8 56.043 36.371 58.786 36.029 50.9 29.257 51.157 21.714 51.5 14.171 48.5 14.171 48.5L14.171 48.5z"/>
                <path d="M46.829,86.814 C46.657,82.443 46.571,78.071 46.4,73.7 C40.486,74.986 34.486,76.271 28.4,75.671 C20.943,74.9 13.914,70.957 9.029,65.3 C4.143,59.643 1.314,52.357 0.714,44.814 C0.629,44.129 0.629,43.443 0.8,42.757 C1.057,41.986 1.571,41.386 2.171,40.871 C7.229,35.729 12.543,30.929 17.171,25.357 C21.886,19.786 26,13.7 29.086,7.014 C30.029,4.871 30.886,2.729 31.571,0.586"/>
              </g>
              <path stroke="#FD5368" stroke-width="1.7" d="M17.571,41.729 C24.943,43.1 28.971,37.529 33.171,32.471 C37.286,27.5 42.343,22.871 49.029,22.614 C58.371,22.271 64.457,29.643 66.429,38.043 C68.657,47.643 67.114,60.5 58.8,66.843 C50.829,72.929 39.429,71.214 32.314,64.871 C28.971,61.871 27.086,57.5 25.2,53.557 C23.314,49.786 20.143,47.214 16.714,45.071" class="w-item"/>
            </g>
          </g>
        </g>
      </g>
    </g>
  </g>
</svg>
