<svg xmlns="http://www.w3.org/2000/svg" viewBox="0 0 630 500" xmlns:xlink="http://www.w3.org/1999/xlink">
  <defs>
    <filter id="a" width="262.5%" height="262.5%" x="-81.3%" y="-81.3%" filterUnits="objectBoundingBox">
      <feGaussianBlur in="SourceGraphic" stdDeviation="6.502"/>
    </filter>
  </defs>
  <g fill="none" fill-rule="evenodd" transform="translate(-911 -5752)">
    <g transform="translate(911 5752)">
      <path fill="#F7F7F7" d="M0 0H630V500H0z"/>
      <image xlink:href="/img/index-img/woman@2x.min.png" x="191" width="247.485" height="500" />
      <g class="w-end-m" transform="translate(25 18)">
        <g class="w-org  Кормление  грудью" transform="translate(317 191)">
          <g transform="translate(0 11)">
            <path stroke="#606D88" d="M12.796875 13.5507812L140.000001 36.1484383 218.632814 36.1484383"/>
            <circle cx="12.285" cy="12.841" r="12" fill="#065BB9" class="blur" filter="url(#a)" opacity=".695"/>
            <circle cx="12.285" cy="12.841" r="5" fill="#57647A"/>
          </g>
          <g class="org-gr" transform="translate(166)">
            <circle cx="51.5" cy="52.072" r="51.5" fill="#F7F7F7" stroke="#495466" stroke-width="1.2"/>
            <path fill="#F7F7F7" stroke="#495466" stroke-width="1.2" d="M20.1090333,47.7565222 C28.5458778,49.3255556 33.1557,42.9498556 37.9623667,37.1612556 C42.6717556,31.4722222 48.4592111,26.1745889 56.1109667,25.8804667 C66.8023667,25.4879222 73.7674556,33.9247667 76.0243,43.5381 C78.5741222,54.5247667 76.8082444,69.2388889 67.2933333,76.4981 C58.1709667,83.4631889 45.1243,81.5004667 36.9815778,74.2412556 C33.1557,70.8079222 30.9984222,65.8055556 28.84,61.2930111 C26.6815778,56.9773111 23.0525444,54.0338 19.1282444,51.5812556"/>
            <g class="gr-m" transform="translate(18.311)">
              <path stroke="#4B5363" stroke-opacity=".566" stroke-width="1.2" d="M8.95985556 40.3004667C10.7245889 40.9871333 12.0979222 42.5573111 12.5888889 44.4204667M3.85792222 63.9412556C6.01634444 62.8631889 7.88064444 61.2930111 9.25397778 59.2330111M7.09555556 52.5631889C8.76301111 53.3471333 10.2347667 54.5247667 11.7065222 55.7012556 16.3163444 59.3314333 20.9273111 62.8631889 25.2430111 66.7863444 26.2238 67.6698556 27.1073111 68.5522222 27.8912556 69.5330111 28.0881 69.8271333 28.2838 70.1212556 28.3822222 70.5138 28.5779222 71.2004667 28.1865222 71.9855556 27.5971333 72.3781 27.0088889 72.7706444 26.3222222 72.9663444 25.5371333 72.9663444 23.4771333 72.9663444 21.5155556 71.7898556 20.1422222 70.2196778 17.7881 67.5714333 16.4147667 64.4322222 15.0414333 61.1945889 14.2563444 59.2330111 13.2755556 57.2714333 11.7065222 55.9965222M7.97792222 50.3063444C7.97792222 50.3063444 16.9045889 50.5031889 24.2622222 46.7745889 31.6198556 43.0471333 35.6414333 38.6330111 33.5814333 36.3773111 31.9139778 34.7098556 28.3822222 36.3773111 25.1445889 40.0063444 21.2214333 44.3231889 16.1206444 50.0122222 7.97792222 50.3063444L7.97792222 50.3063444zM14.1579222 52.5631889C14.1579222 52.5631889 25.3414333 55.3098556 34.9547667 54.1322222 46.9222222 52.6604667 42.1155556 43.2439778 33.9739778 47.4612556 25.0473111 52.0722222 14.1579222 52.5631889 14.1579222 52.5631889L14.1579222 52.5631889zM16.2179222 55.5055556C16.2179222 55.5055556 23.8696778 61.6855556 31.8155556 64.1381 41.6245889 67.2773111 41.2331889 58.2522222 33.4830111 58.5463444 24.8504667 58.9388889 16.2179222 55.5055556 16.2179222 55.5055556L16.2179222 55.5055556z"/>
              <path stroke="#FD5368" stroke-width="1.7" d="M53.5931889,99.3538 C53.3963444,94.3514333 53.2979222,89.3479222 53.1022222,84.3455556 C46.3339778,85.8173111 39.4673111,87.2879222 32.5022222,86.6012556 C23.9681,85.7188889 15.9238,81.2063444 10.3331889,74.7322222 C4.74143333,68.2581 1.5038,59.9196778 0.817133333,51.2871333 C0.719855556,50.5031889 0.719855556,49.7181 0.915555556,48.9330111 C1.20967778,48.0506444 1.79792222,47.3639778 2.48458889,46.7745889 C8.27318889,40.8898556 14.3547667,35.3965222 19.6512556,29.0196778 C25.0473111,22.6439778 29.7555556,15.6788889 33.2873111,8.02713333 C34.3665222,5.57458889 35.3473111,3.12318889 36.1312556,0.670644444" class="w-item"/>
            </g>
          </g>
        </g>
      </g>
    </g>
  </g>
</svg>
