<svg xmlns="http://www.w3.org/2000/svg" viewBox="0 0 630 500" xmlns:xlink="http://www.w3.org/1999/xlink" >
  <defs>
    <filter id="a" width="343.8%" height="343.8%" x="-121.9%" y="-121.9%" filterUnits="objectBoundingBox">
      <feGaussianBlur in="SourceGraphic" stdDeviation="6.502"/>
    </filter>
    <filter id="b" width="316.7%" height="316.7%" x="-108.4%" y="-108.4%" filterUnits="objectBoundingBox">
      <feGaussianBlur in="SourceGraphic" stdDeviation="6.502"/>
    </filter>
    <filter id="c" width="316.7%" height="316.7%" x="-108.4%" y="-108.4%" filterUnits="objectBoundingBox">
      <feGaussianBlur in="SourceGraphic" stdDeviation="6.502"/>
    </filter>
  </defs>
  <g fill="none" fill-rule="evenodd" transform="translate(-906 -2122)">
    <g transform="translate(906 2122)">
      <path fill="#F7F7F7" d="M0 0H630V500H0z"/>
      <image xlink:href="/img/index-img/woman@2x.min.png" x="191" width="247.485" height="500" />
      <g class="w-end-m" transform="translate(25 18)">
        <g class="w-org  Матка" transform="translate(0 340)">
          <g transform="translate(45 44)">
            <path stroke="#606D88" d="M245 16.6523438L75 0.562500019 0.679687504 0.562500019"/>
            <circle cx="245.357" cy="15.514" r="8" fill="#065BB9" class="blur" filter="url(#a)" opacity=".695"/>
            <circle cx="244.357" cy="16.514" r="5" fill="#4B6186"/>
          </g>
          <g class="org-gr">
            <g class="gr-m">
              <circle cx="45" cy="45" r="45" fill="#F7F7F7" stroke="#495466" stroke-width="1.2"/>
              <g transform="translate(6 27)">
                <path stroke="#B3B3B3" stroke-width="1.29" d="M39,11.486 C43.886,11.4 48.086,9.857 52.543,8.057 C49.886,9.943 47.486,11.314 45.343,13.629 C42.086,17.229 39.857,21.6 39,26.4"/>
                <g stroke="#B3B3B3" stroke-width="1.29">
                  <path d="M70.029,21.857 C70.029,22.114 69.943,22.543 70.114,22.714 C70.2,22.8 70.371,22.886 70.457,22.886 C70.971,22.971 71.314,22.543 71.657,22.286 C72,22.029 72.257,21.686 72.6,21.429 C73.286,20.743 73.886,19.971 74.486,19.2 C75.771,17.4 76.714,15.343 77.057,13.2 L77.057,13.029 C77.829,8.486 76.2,1.8 68.743,0.514 C61.286,-0.771 58.457,3.686 54.857,3.943"/>
                  <path d="M64.971 12.429C64.629 12.343 64.286 12.171 64.2 11.743 64.029 10.714 66.343 10.8 66.857 10.886 67.886 10.971 68.914 11.143 69.943 11.229 70.543 11.229 71.229 11.229 71.743 10.886 73.114 10.029 73.371 5.914 68.486 4.714 63.6 3.514 59.657 5.914 57.686 8.486M13.029 12.429C13.371 12.343 14.143 12.257 14.057 11.743 14.057 11.571 13.886 11.314 13.714 11.229 13.543 11.143 13.371 11.057 13.114 10.971 12.943 10.971 12.771 10.886 12.686 10.886 11.486 10.714 10.286 10.886 9.086 11.057 8.143 11.229 6.943 11.314 6.086 10.8 4.714 9.943 4.457 5.829 9.343 4.629 14.229 3.429 18.171 5.829 20.143 8.4"/>
                  <path d="M23.057,3.943 C19.457,3.6 16.629,-0.771 9.171,0.514 C1.714,1.714 0.171,8.4 0.857,12.943 C1.2,15.171 2.229,17.229 3.514,19.114 C3.943,19.8 4.457,20.4 4.971,21 C5.486,21.514 6,22.2 6.686,22.543 C6.943,22.714 7.2,22.8 7.457,22.8 C7.543,22.8 7.714,22.8 7.8,22.714 C8.057,22.543 7.971,22.114 7.971,21.857"/>
                </g>
                <path stroke="#4B5363" stroke-opacity=".566" stroke-width="1.2" d="M39 11.486C34.114 11.4 29.914 9.857 25.457 8.057 28.114 9.943 30.514 11.314 32.657 13.629 35.914 17.229 38.143 21.6 39 26.4M39 26.486L39 57"/>
              </g>
              <g stroke="#FD5368" stroke-width="1.7" transform="translate(26 27)">
                <path d="M.229 8.4C2.2 10.971 2.457 15.343 5.457 19.629 8.457 23.914 12.486 24.6 13.6 28.2 14.714 31.8 13.686 42.171 13.771 45.429 13.943 48.771 15.4 55.543 16.343 56.4 17.2 57.257 19 56.914 19 56.914 19 56.914 20.8 57.257 21.657 56.4 22.514 55.543 24.057 48.771 24.229 45.429 24.4 42.086 23.286 31.8 24.4 28.2 25.514 24.6 29.543 23.914 32.543 19.629 35.543 15.343 35.8 10.971 37.771 8.4M3.057 3.943C6.657 4.286 11.286 0 19 0 26.714 0 31.343 4.286 34.943 3.943" class="w-item"/>
              </g>
              <g stroke="#4B5363" stroke-opacity=".566" stroke-width="1.2" transform="translate(11 39)">
                <path d="M65.029 9.857C66.314 9.086 67.171 7.886 67.343 6.514 67.771 3.686 65.2.943 61.686.429 61.086.343 60.486.343 59.886.343 57.143.6 54.914 2.314 54.571 4.629 54.143 7.457 56.714 10.2 60.229 10.714 62.029 10.971 63.743 10.629 65.029 9.857L65.029 9.857zM2.971 9.857C4.257 10.629 5.971 11.057 7.771 10.8 11.286 10.286 13.771 7.629 13.429 4.714 13.086 2.4 10.857.686 8.114.429 7.514.343 6.914.429 6.314.514 2.8 1.029.314 3.686.657 6.6.829 7.886 1.686 9.086 2.971 9.857L2.971 9.857z"/>
              </g>
            </g>
          </g>
        </g>
        <g class="w-org  Яичники" transform="translate(272 298)">
          <g transform="translate(0 41)">
            <path stroke="#606D88" d="M11.6640625 46.8554688L165.695313 46.8554688 266.199219 0.640625"/>
            <circle cx="9.357" cy="45.514" r="9" fill="#065BB9" class="blur" filter="url(#b)" opacity=".695"/>
            <circle cx="11.357" cy="46.514" r="5" fill="#4B6186"/>
          </g>
          <g class="org-gr" transform="translate(221)">
            <g class="gr-m">
              <circle cx="45" cy="45" r="45" fill="#F7F7F7" stroke="#495466" stroke-width="1.2"/>
              <g transform="translate(6 27)">
                <path stroke="#B3B3B3" stroke-width="1.29" d="M39,11.486 C43.886,11.4 48.086,9.857 52.543,8.057 C49.886,9.943 47.486,11.314 45.343,13.629 C42.086,17.229 39.857,21.6 39,26.4"/>
                <g stroke="#B3B3B3" stroke-width="1.29">
                  <path d="M70.029,21.857 C70.029,22.114 69.943,22.543 70.114,22.714 C70.2,22.8 70.371,22.886 70.457,22.886 C70.971,22.971 71.314,22.543 71.657,22.286 C72,22.029 72.257,21.686 72.6,21.429 C73.286,20.743 73.886,19.971 74.486,19.2 C75.771,17.4 76.714,15.343 77.057,13.2 L77.057,13.029 C77.829,8.486 76.2,1.8 68.743,0.514 C61.286,-0.771 58.457,3.686 54.857,3.943"/>
                  <path d="M64.971 12.429C64.629 12.343 64.286 12.171 64.2 11.743 64.029 10.714 66.343 10.8 66.857 10.886 67.886 10.971 68.914 11.143 69.943 11.229 70.543 11.229 71.229 11.229 71.743 10.886 73.114 10.029 73.371 5.914 68.486 4.714 63.6 3.514 59.657 5.914 57.686 8.486M13.029 12.429C13.371 12.343 14.143 12.257 14.057 11.743 14.057 11.571 13.886 11.314 13.714 11.229 13.543 11.143 13.371 11.057 13.114 10.971 12.943 10.971 12.771 10.886 12.686 10.886 11.486 10.714 10.286 10.886 9.086 11.057 8.143 11.229 6.943 11.314 6.086 10.8 4.714 9.943 4.457 5.829 9.343 4.629 14.229 3.429 18.171 5.829 20.143 8.4"/>
                  <path d="M23.057,3.943 C19.457,3.6 16.629,-0.771 9.171,0.514 C1.714,1.714 0.171,8.4 0.857,12.943 C1.2,15.171 2.229,17.229 3.514,19.114 C3.943,19.8 4.457,20.4 4.971,21 C5.486,21.514 6,22.2 6.686,22.543 C6.943,22.714 7.2,22.8 7.457,22.8 C7.543,22.8 7.714,22.8 7.8,22.714 C8.057,22.543 7.971,22.114 7.971,21.857"/>
                </g>
                <path stroke="#4B5363" stroke-opacity=".566" stroke-width="1.2" d="M39 11.486C34.114 11.4 29.914 9.857 25.457 8.057 28.114 9.943 30.514 11.314 32.657 13.629 35.914 17.229 38.143 21.6 39 26.4M39 26.486L39 57"/>
              </g>
              <g stroke="#4B5363" stroke-opacity=".566" stroke-width="1.2" transform="translate(26 27)">
                <path d="M.229 8.4C2.2 10.971 2.457 15.343 5.457 19.629 8.457 23.914 12.486 24.6 13.6 28.2 14.714 31.8 13.686 42.171 13.771 45.429 13.943 48.771 15.4 55.543 16.343 56.4 17.2 57.257 19 56.914 19 56.914 19 56.914 20.8 57.257 21.657 56.4 22.514 55.543 24.057 48.771 24.229 45.429 24.4 42.086 23.286 31.8 24.4 28.2 25.514 24.6 29.543 23.914 32.543 19.629 35.543 15.343 35.8 10.971 37.771 8.4M3.057 3.943C6.657 4.286 11.286 0 19 0 26.714 0 31.343 4.286 34.943 3.943"/>
              </g>
              <g stroke="#FD5368" stroke-width="1.7" transform="translate(11 39)">
                <path d="M65.029 9.857C66.314 9.086 67.171 7.886 67.343 6.514 67.771 3.686 65.2.943 61.686.429 61.086.343 60.486.343 59.886.343 57.143.6 54.914 2.314 54.571 4.629 54.143 7.457 56.714 10.2 60.229 10.714 62.029 10.971 63.743 10.629 65.029 9.857L65.029 9.857zM2.971 9.857C4.257 10.629 5.971 11.057 7.771 10.8 11.286 10.286 13.771 7.629 13.429 4.714 13.086 2.4 10.857.686 8.114.429 7.514.343 6.914.429 6.314.514 2.8 1.029.314 3.686.657 6.6.829 7.886 1.686 9.086 2.971 9.857L2.971 9.857z" class="w-item"/>
              </g>
            </g>
          </g>
        </g>
        <g class="w-org  Мочевой  пузырь" transform="translate(0 137)">
          <g transform="translate(44 45)">
            <path stroke="#606D88" d="M241.363281 184.304687L76 0.773435699 0.140624988 0.773435699"/>
            <circle cx="244.357" cy="183.514" r="9" fill="#065BB9" class="blur" filter="url(#c)" opacity=".695"/>
            <circle cx="242.357" cy="184.514" r="5" fill="#4B6186"/>
          </g>
          <g class="org-gr">
            <g class="gr-m">
              <circle cx="45" cy="45" r="45" fill="#F7F7F7" stroke="#495466" stroke-width="1.2"/>
              <g stroke="#4B5363" stroke-opacity=".566" stroke-width="1.2" transform="translate(17 25)">
                <path d="M27.914 61.229C27.914 59.429 28 57.457 28.171 55.314 28.771 45.543 30.4 40.4 33.143 38.171 35.114 36.543 37.686 35.6 40.514 34.657 45.314 33.029 50.714 31.143 53.714 25.4 56.371 20.429 56.2 15.971 53.286 11.171 50.886 7.229 44.457.286 27.914.286 11.371.286 4.943 7.229 2.543 11.171-.371 15.971-.543 20.429 2.114 25.4 5.114 31.143 10.6 33.029 15.314 34.657 18.143 35.6 20.714 36.543 22.686 38.171 25.429 40.486 27.057 45.629 27.657 55.314 27.829 57.457 27.914 59.514 27.914 61.229M28.171 64.9L28 64.9 27.743 64.9"/>
                <path d="M5.286 21.971C5.8 23.514 6.914 24.886 8.457 25.4 9.057 25.571 9.743 25.657 10.343 25.829 11.371 26.086 12.4 26.514 13.171 27.2 13.943 27.886 14.457 28.914 14.457 29.943M18.743 28.571C18.657 30.371 19.771 32.257 21.486 32.943 22.343 33.286 23.286 33.371 24.143 33.714 25.686 34.4 26.8 36.029 27.057 37.657M11.543 18.714C12.4 19.571 13.257 20.429 14.457 20.771 15.229 20.943 16.086 20.943 16.857 20.943 18.829 21.029 20.886 21.886 21.657 23.6M5.286 16.914C5.886 15.629 7.257 14.686 8.714 14.514 9.743 14.429 10.686 14.686 11.714 14.686 13.086 14.686 14.457 14.171 15.486 13.229M12.829 9.286C14.457 7.657 16.943 6.971 19.257 7.486 20.2 7.657 21.057 8.086 21.914 8.171 23.457 8.343 25.086 7.657 26.029 6.457M51.486 21.114C50.971 22.657 49.857 24.029 48.314 24.543 47.714 24.714 47.029 24.8 46.429 24.971 45.4 25.229 44.371 25.657 43.6 26.343 42.829 27.029 42.314 28.057 42.314 29.086M38.029 28.571C38.114 30.371 37 32.257 35.286 32.943 34.429 33.286 33.486 33.371 32.629 33.714 31.086 34.4 29.971 36.029 29.714 37.657M45.143 18.114C44.286 18.971 43.429 19.829 42.229 20.171 41.457 20.343 40.6 20.343 39.829 20.343 37.857 20.429 35.8 21.286 35.029 23M50.286 16.143C49.686 14.857 48.314 13.914 46.857 13.743 45.829 13.657 44.886 13.914 43.857 13.914 42.486 13.914 41.114 13.4 40.086 12.457M43.171 9.286C41.543 7.657 39.057 6.971 36.743 7.486 35.8 7.657 34.943 8.086 34.086 8.171 32.543 8.343 30.914 7.657 29.971 6.457M27.829 15.114C27.229 16.4 26.886 18.029 27.486 19.314 27.829 20 28.514 20.6 28.686 21.371 29.029 22.571 28.343 23.857 27.571 24.886M27.914 61.229L27.914 65"/>
              </g>
              <g stroke="#FD5368" stroke-width="1.7" transform="translate(1 18)">
                <path d="M39.457 71.743C39.286 64.114 38.514 52.714 35.514 50.143 30.971 46.286 18.2 46.543 12.2 35.057 10.057 30.943 9.286 26.229 9.971 21.6 10.143 20.4 9.457 19.286 8.343 18.771 5.514 17.571 2.943 15.943.8 13.8M83.6 5.829C82.057 7.971 80 9.857 77.257 11.229 75.543 12.086 73.486 11.743 72.2 10.371 66.886 4.629 57.714.6 43.914.6 30.2.6 21.029 4.629 15.629 10.371 14.343 11.743 12.286 12.086 10.571 11.229 7.829 9.857 5.771 7.971 4.229 5.829M48.371 71.743C48.543 64.114 49.314 52.714 52.314 50.143 56.857 46.286 69.629 46.543 75.629 35.057 77.771 30.943 78.543 26.229 77.857 21.6 77.686 20.4 78.371 19.286 79.486 18.771 82.314 17.571 84.886 15.943 87.029 13.8" class="w-item"/>
              </g>
            </g>
          </g>
        </g>
      </g>
    </g>
  </g>
</svg>
