<svg xmlns="http://www.w3.org/2000/svg" viewBox="0 0 630 500" xmlns:xlink="http://www.w3.org/1999/xlink">
  <defs>
    <filter id="a" width="262.5%" height="262.5%" x="-81.3%" y="-81.3%" filterUnits="objectBoundingBox">
      <feGaussianBlur in="SourceGraphic" stdDeviation="6.502"/>
    </filter>
  </defs>
  <g fill="none" fill-rule="evenodd" transform="translate(-911 -5232)">
    <g transform="translate(911 5232)">
      <path fill="#F7F7F7" d="M0 0H630V500H0z"/>
      <image xlink:href="/img/index-img/woman@2x.min.png" x="191" width="247.485" height="500" />
      <g class="w-end-m" transform="translate(25 18)">
        <g class="w-org  Беременность" transform="translate(277 310)">
          <g transform="translate(0 4)">
            <path stroke="#606D88" d="M13 13.8710938L176.285157 45.0742195 259.652345 45.0742195"/>
            <circle cx="12.285" cy="12.841" r="12" fill="#065BB9" class="blur" filter="url(#a)" opacity=".695"/>
            <circle cx="11.285" cy="11.841" r="5" fill="#57647A"/>
          </g>
          <g class="org-gr" transform="translate(202)">
            <g class="gr-m">
              <circle cx="50" cy="50.556" r="50" fill="#F7F7F7" stroke="#495466" stroke-width="1.2"/>
              <g fill-rule="nonzero" stroke="#FD5368" stroke-width="1.5" transform="translate(21.111 17.778)">
                <path d="M48.3305983,3.66564103 C41.757265,-1.69880342 33.2950427,-0.187692308 28.0817094,2.83452991 C24.9083761,4.64786325 20.9039316,8.1234188 19.7705983,14.4700855 C19.3928205,16.585641 19.8461538,18.5500855 20.2239316,20.1367521 C20.2994872,20.5900855 20.4505983,20.9678632 20.4505983,21.345641 C20.8283761,23.3100855 21.9617094,23.7634188 22.4905983,23.9900855 C22.5661538,23.9900855 22.5661538,24.065641 22.6417094,24.065641 C22.717265,24.1411966 22.8683761,24.4434188 22.8683761,24.5945299 C23.0194872,24.9723077 23.1705983,25.2745299 23.4728205,25.5011966 C23.6994872,25.7278632 23.9261538,25.8034188 24.1528205,25.8034188 C24.2283761,25.8034188 24.3039316,25.8034188 24.4550427,25.8789744 C24.4550427,25.8789744 24.5305983,25.8789744 24.5305983,25.8789744 C24.9839316,27.1634188 24.6061538,27.6923077 24.2283761,28.3723077 C23.8505983,28.9011966 23.4728205,29.505641 23.6239316,30.4123077 C23.8505983,31.6967521 25.2105983,31.6211966 25.9661538,31.545641 C26.117265,31.545641 26.3439316,31.545641 26.4950427,31.545641 C26.7217094,31.9234188 26.7217094,32.3767521 26.797265,32.8300855 C26.8728205,33.2834188 26.8728205,33.7367521 27.0239316,34.265641 C27.1750427,34.8700855 27.6283761,35.0211966 27.9305983,35.0211966 C28.0061538,35.2478632 28.0817094,35.5500855 28.3083761,35.7011966 C28.5350427,35.9278632 28.9128205,36.0034188 29.1394872,36.0789744 C29.2150427,36.0789744 29.2905983,36.0789744 29.2905983,36.1545299 C29.9705983,36.7589744 30.6505983,37.0611966 31.2550427,37.2123077 C29.2150427,39.1011966 27.4017094,40.9900855 26.3439316,42.0478632 C26.0417094,39.6300855 25.2861538,34.7189744 23.5483761,33.1323077 C20.2239316,30.0345299 17.8817094,31.0923077 17.8061538,31.1678632 C17.7305983,31.1678632 17.6550427,31.2434188 17.6550427,31.3189744 C17.5794872,31.3189744 17.5794872,31.3189744 17.5039316,31.2434188 M4.13059829,49.7530727 C4.05504274,50.206406 4.05504274,52.0211966 4.13059829,52.4745299 C4.35726496,57.8389744 6.09504274,61.3145299 9.79726496,64.0345299 C12.1394872,65.7723077 15.917265,67.2078632 20.3750427,67.2078632 C23.0194872,67.2078632 25.8905983,66.6789744 28.9128205,65.4700855 C37.677265,61.8434188 42.7394872,58.2923077 45.5350427,54.1367521 C49.3128205,48.3945299 50.7483761,44.465641 50.5217094,40.5367521 C50.3705983,37.8167521 49.4639316,35.625641 48.7839316,34.0389744 C48.1794872,32.7545299 47.9528205,31.3189744 48.1039316,30.185641 C48.557265,26.785641 49.6150427,24.9723077 50.7483761,23.0834188 C51.0505983,22.5545299 51.3528205,22.025641 51.6550427,21.4211966 C53.7705983,17.265641 54.7528205,8.95452991 48.3305983,3.66564103 M13.4483296,37.4360219 C13.1461074,37.7382442 7.32832963,43.9337997 5.66610741,48.9960219 C5.06166296,49.3737997 3.02166296,50.2804664 0.679440739,48.0893553 C-1.36055926,46.2004664 1.88832963,38.8715775 3.55055185,36.9826886 C3.77721852,36.6804664 4.07944074,36.5293553 4.38166296,36.3782442 C4.53277407,36.4537997 4.60832963,36.6049108 4.60832963,36.7560219 L4.75944074,37.8137997 L5.51499629,37.1337997 C5.89277407,36.7560219 6.42166296,36.3782442 6.49721852,36.3782442 C6.57277407,36.3782442 6.72388518,36.3782442 6.79944074,36.4537997 C6.87499629,36.5293553 6.87499629,36.8315775 6.87499629,36.9826886 C4.60832963,40.307133 3.39944074,42.6493553 3.39944074,42.7249108 C3.24832963,43.027133 3.32388518,43.3293553 3.62610741,43.4804664 C3.92832963,43.6315775 4.23055185,43.5560219 4.38166296,43.2537997 C4.38166296,43.2537997 6.11944074,39.9293553 9.21721852,35.6226886 C12.6172185,30.8626886 16.3194407,31.1649108 18.2083296,31.7693553 C20.1727741,32.4493553 21.3061074,34.7915775 21.6838852,38.7204664 C21.9105519,41.5915775 20.701663,49.9782442 20.3994407,51.867133 C19.6438852,56.3249108 21.5327741,57.5337997 21.6838852,57.6093553 C21.7594407,57.6849108 21.9105519,57.6849108 21.9861074,57.6849108 M21.2397826,48.6548254 C21.693116,49.6370476 22.5242271,50.7703809 23.9597826,51.3748254 C24.3375604,51.5259365 24.7153382,51.601492 25.093116,51.601492 C27.813116,51.601492 31.4397826,48.5792698 34.0086715,46.5392698 L34.6886715,45.9348254 C36.5775604,44.3481587 37.7108937,43.3659365 38.693116,42.3837142 C39.4486715,41.6281587 40.1286715,41.0237142 41.0353382,40.2681587 M41.8240858,34.6272595 C40.9929747,33.6450373 38.5751969,32.3605929 35.8551969,34.1739262 C35.5529747,34.4005929 35.1751969,34.6272595 34.8729747,34.8539262 C34.8729747,34.8539262 34.7974191,34.8539262 34.7974191,34.8539262 C34.3440858,35.0050373 33.966308,35.3828151 33.5129747,35.8361484 C32.7346158,36.6145073 32.0305024,37.2196268 31.2731574,37.3115685 M26.8728205,23.5367521 C26.117265,24.5945299 25.1350427,24.5945299 24.8328205,24.5189744 C24.8328205,24.5189744 24.757265,24.5189744 24.757265,24.5189744 C24.6061538,24.5189744 24.4550427,24.4434188 24.4550427,24.4434188 C24.3794872,24.3678632 24.2283761,24.065641 24.1528205,23.9145299 C24.0017094,23.4611966 23.7750427,23.0834188 23.397265,22.8567521 C23.3217094,22.8567521 23.2461538,22.7811966 23.1705983,22.7811966 C23.0194872,22.705641 22.8683761,22.705641 22.7928205,22.5545299 C22.8683761,22.4789744 22.9439316,22.4034188 23.0194872,22.3278632 C23.0950427,22.2523077 24.077265,20.3634188 26.797265,20.665641 M26.4672463,19.0587087 C26.4672463,18.7564865 26.2405796,18.4542643 25.9383574,18.4542643 C22.9161352,18.1520421 21.4805796,20.040931 21.1028018,20.5698198" class="w-item"/>
                <path d="M41.8328205,23.9145299 C41.757265,24.2167521 41.9083761,24.5189744 42.2105983,24.5945299 C42.5128205,24.6700855 42.7394872,24.745641 43.0417094,24.745641 C43.797265,24.745641 44.477265,24.3678632 45.0061538,23.6878632 C46.2150427,22.1011966 46.517265,19.0034188 45.837265,17.8700855 C45.3083761,16.8878632 44.6283761,16.4345299 43.8728205,16.4345299 C42.5883761,16.3589744 41.6817094,17.6434188 41.5305983,17.7945299" class="w-item"/>
              </g>
              <path stroke="#4B5363" stroke-opacity=".566" stroke-width="1.2" d="M43.7881777,2.86729688 C44.716312,4.91488015 44.7990427,6.96246342 44.2638788,8.95058404 C43.7545684,10.801682 42.7385327,12.6062441 41.3734772,14.3280755 C37.249872,19.5220083 32.2446685,23.2940083 27.7565314,28.0406786 C19.5506863,36.6937861 15.8950263,48.1907594 16.5465301,60.0238258 L16.5465301,60.0574351 C16.3293622,68.5967881 18.8061106,76.9318998 23.6484382,83.692544 C26.4767919,88.6770649 30.1246959,93.3849552 34.574053,97.6016324 C34.5869796,97.6093884 34.5947356,97.6223151 34.6024916,97.6274857"/>
            </g>
          </g>
        </g>
      </g>
    </g>
  </g>
</svg>
