<svg xmlns="http://www.w3.org/2000/svg" viewBox="0 0 630 500" xmlns:xlink="http://www.w3.org/1999/xlink">
  <defs>
    <filter id="a" width="343.8%" height="343.8%" x="-121.9%" y="-121.9%" filterUnits="objectBoundingBox">
      <feGaussianBlur in="SourceGraphic" stdDeviation="6.502"/>
    </filter>
  </defs>
  <g fill="none" fill-rule="evenodd" transform="translate(-1577 -574)">
    <g transform="translate(1577 574)">
      <path fill="#F7F7F7" d="M0 0H630V500H0z"/>
      <image xlink:href="/img/index-img/men@2x.min.png" width="286.002" height="500" x="172" y="1"/>
      <g class="m-end-w" transform="translate(24 133)">
        <g class="m-org  Половой  член" transform="translate(281 168)">
          <g transform="translate(0 41)">
            <path stroke="#606D88" d="M10 74.2773437L179.074219 0.944 256.445314 0.944"/>
            <circle cx="8.285" cy="75.341" r="8" fill="#065BB9" class="blur" filter="url(#a)" opacity=".695"/>
            <circle cx="10.285" cy="74.341" r="5" fill="#4B6186"/>
          </g>
          <g class="org-gr" transform="translate(210)">
            <g class="gr-m">
              <circle cx="45.667" cy="45" r="45" fill="#F7F7F7" stroke="#495466" stroke-width="1.2"/>
              <path stroke="#4B5363" stroke-opacity=".566" stroke-width="1.2" d="M56.895,22.371 C56.895,26.057 51.838,29.057 45.667,29.057 C39.495,29.057 34.438,26.057 34.438,22.371 C34.438,18.686 39.495,17.229 45.667,17.229 C51.838,17.229 56.895,18.686 56.895,22.371 L56.895,22.371 Z"/>
              <path stroke="#5F98D7" stroke-width="1.5" d="M45.667 81.771L45.667 46.457C45.667 34.8 54.581 34.2 55.695 34.886 57.667 36.086 56.638 37.8 55.781 38.914 54.924 40.029 52.952 41.4 52.952 44.743L52.952 67.029C52.952 68.229 54.067 67.029 55.095 69.343 56.038 71.657 53.295 79.371 50.381 80.743 48.067 81.857 45.667 81.771 45.667 81.771L45.667 81.771zM45.667 81.771L45.667 46.457C45.667 34.8 36.752 34.2 35.638 34.886 33.667 36.086 34.695 37.8 35.552 38.914 36.41 40.029 38.381 41.4 38.381 44.743L38.381 67.029C38.381 68.229 37.267 67.029 36.238 69.343 35.295 71.657 38.038 79.371 40.952 80.743 43.352 81.857 45.667 81.771 45.667 81.771L45.667 81.771z" class="m-item"/>
              <path stroke="#5F98D7" stroke-width="1.5" d="M49.438,36.6 C48.41,36.086 47.124,35.829 45.667,35.829 C44.21,35.829 42.924,36.171 41.895,36.6" class="m-item"/>
              <g stroke="#4B5363" stroke-opacity=".566" stroke-width="1.2" transform="translate(15 5)">
                <path d="M46.61,39.4 C46.61,39.4 44.81,40 45.41,41.714 C46.01,43.429 47.724,42.829 47.724,42.829 C50.552,41.886 53.895,44.286 55.095,48.143 C56.295,52 55.01,55.857 52.181,56.8 C52.181,56.8 50.552,57.743 50.981,59.286 C51.495,60.829 53.295,60.229 53.295,60.229 C57.924,58.771 60.238,52.857 58.438,47.114 C56.638,41.371 51.324,37.943 46.61,39.4 L46.61,39.4 Z"/>
                <path d="M52.181.743C47.638 8.543 44.381 18.4 53.552 26.371 67.267 38.371 57.495 44.8 57.495 44.8M14.381 39.4C14.381 39.4 16.181 40 15.581 41.714 14.981 43.429 13.267 42.829 13.267 42.829 10.438 41.886 7.095 44.286 5.895 48.143 4.695 52 5.981 55.857 8.81 56.8 8.81 56.8 10.438 57.743 10.01 59.286 9.495 60.829 7.695 60.229 7.695 60.229 3.067 58.771.752 52.857 2.552 47.114 4.352 41.371 9.667 37.943 14.381 39.4L14.381 39.4z"/>
                <path d="M8.81,0.743 C13.352,8.543 16.61,18.4 7.438,26.371 C-6.276,38.371 3.495,44.8 3.495,44.8"/>
              </g>
              <path stroke="#4B5363" stroke-opacity=".566" stroke-width="1.2" d="M62.739 47.918C65.577 47.01 68.877 49.382 70.102 53.212 71.327 57.042 70.017 60.888 67.179 61.796 64.34 62.704 61.041 60.332 59.816 56.503 58.591 52.673 59.9 48.827 62.739 47.918L62.739 47.918zM23.856 61.74C21.018 60.832 19.708 56.986 20.933 53.156 22.159 49.326 25.458 46.954 28.296 47.862 31.135 48.771 32.445 52.617 31.219 56.447 29.994 60.276 26.695 62.648 23.856 61.74L23.856 61.74z"/>
            </g>
          </g>
        </g>
      </g>
    </g>
  </g>
</svg>
