<svg width="125" height="125" viewBox="0 0 125 125" xmlns="http://www.w3.org/2000/svg"><title>review</title><g fill="none" fill-rule="evenodd"><circle cx="61.6" cy="61.6" r="61" stroke="#000" stroke-width="1.249" fill="#FFF" transform="translate(1 1)"/><g stroke="#979797"><path d="M46.896 40.804c-.053-2.213 1.693-4.006 3.904-4.006h46.686c2.208 0 4 1.795 4 4.006V71.07c0 2.213-1.792 4.006-4.005 4.006H88.61v9.486l-8.976-8.976-27.928-.446c-2.206-.035-4.037-1.86-4.09-4.07l-.718-30.266zM56.986 48.332h35.04M56.986 55.332h35.04M56.986 63.332h35.04"/><path d="M39.62 49.982H27.844c-2.21 0-4 1.79-4 4.01v30.114c0 2.214 1.79 4.095 3.996 4.2l8.974.43v9.72l8.478-9.544h25.813c1.658 0 3.002-1.35 3.002-2.998V81.27"/></g></g></svg>