<?xml version="1.0" encoding="utf-8"?>
<!-- Generator: Adobe Illustrator 19.1.0, SVG Export Plug-In . SVG Version: 6.00 Build 0)  -->
<svg version="1.1" id="Layer_1" xmlns="http://www.w3.org/2000/svg" xmlns:xlink="http://www.w3.org/1999/xlink" x="0px" y="0px"
	 viewBox="0 0 300 300" style="enable-background:new 0 0 300 300;" xml:space="preserve">
<style type="text/css">
	.st0{fill:#FFFFFF;stroke:#1CCFC9;stroke-width:1.5;stroke-miterlimit:10;}
	.st1{fill:#75DCD6;}
	.st2{fill-rule:evenodd;clip-rule:evenodd;fill:#75DCD6;}
</style>
<g>
	<g>
		<g>
			<circle class="st0" cx="177.9" cy="138.3" r="10.1"/>
		</g>
	</g>
	<g>
		<g>
			<g>
				<path class="st1" d="M176.3,139.9h-1.1c-0.1,0-0.2-0.1-0.2-0.2v-0.7c0-0.1,0.1-0.2,0.2-0.2h1.1c0.1,0,0.2,0.1,0.2,0.2v0.7
					C176.6,139.8,176.5,139.9,176.3,139.9z"/>
				<path class="st1" d="M176.3,141.5h-1.1c-0.1,0-0.2-0.1-0.2-0.2v-0.8c0-0.1,0.1-0.2,0.2-0.2h1.1c0.1,0,0.2,0.1,0.2,0.2v0.8
					C176.6,141.4,176.5,141.5,176.3,141.5z"/>
				<path class="st1" d="M176.3,138.3h-1.1c-0.1,0-0.2-0.1-0.2-0.2v-0.7c0-0.1,0.1-0.2,0.2-0.2h1.1c0.1,0,0.2,0.1,0.2,0.2v0.7
					C176.6,138.2,176.5,138.3,176.3,138.3z"/>
			</g>
			<g>
				<path class="st1" d="M178.5,139.9h-1.1c-0.1,0-0.2-0.1-0.2-0.2v-0.7c0-0.1,0.1-0.2,0.2-0.2h1.1c0.1,0,0.2,0.1,0.2,0.2v0.7
					C178.7,139.8,178.6,139.9,178.5,139.9z"/>
				<path class="st1" d="M178.5,141.5h-1.1c-0.1,0-0.2-0.1-0.2-0.2v-0.8c0-0.1,0.1-0.2,0.2-0.2h1.1c0.1,0,0.2,0.1,0.2,0.2v0.8
					C178.7,141.4,178.6,141.5,178.5,141.5z"/>
				<path class="st1" d="M178.5,138.3h-1.1c-0.1,0-0.2-0.1-0.2-0.2v-0.7c0-0.1,0.1-0.2,0.2-0.2h1.1c0.1,0,0.2,0.1,0.2,0.2v0.7
					C178.7,138.2,178.6,138.3,178.5,138.3z"/>
			</g>
			<g>
				<path class="st1" d="M180.6,139.9h-1.1c-0.1,0-0.2-0.1-0.2-0.2v-0.7c0-0.1,0.1-0.2,0.2-0.2h1.1c0.1,0,0.2,0.1,0.2,0.2v0.7
					C180.9,139.8,180.8,139.9,180.6,139.9z"/>
				<path class="st1" d="M180.6,141.5h-1.1c-0.1,0-0.2-0.1-0.2-0.2v-0.8c0-0.1,0.1-0.2,0.2-0.2h1.1c0.1,0,0.2,0.1,0.2,0.2v0.8
					C180.9,141.4,180.8,141.5,180.6,141.5z"/>
				<path class="st1" d="M180.6,138.3h-1.1c-0.1,0-0.2-0.1-0.2-0.2v-0.7c0-0.1,0.1-0.2,0.2-0.2h1.1c0.1,0,0.2,0.1,0.2,0.2v0.7
					C180.9,138.2,180.8,138.3,180.6,138.3z"/>
			</g>
		</g>
		<g>
			<path class="st1" d="M175.8,135h-0.2c-0.3,0-0.5-0.2-0.5-0.5v-1.1c0-0.3,0.2-0.5,0.5-0.5h0.2c0.3,0,0.5,0.2,0.5,0.5v1.1
				C176.3,134.8,176.1,135,175.8,135z"/>
			<path class="st1" d="M180.1,135h-0.2c-0.3,0-0.5-0.2-0.5-0.5v-1.1c0-0.3,0.2-0.5,0.5-0.5h0.2c0.3,0,0.5,0.2,0.5,0.5v1.1
				C180.6,134.8,180.3,135,180.1,135z"/>
			<path class="st1" d="M181.9,134.1h-0.8H181v0.5c0,0.5-0.4,0.8-0.9,0.8h-0.3c0,0,0,0,0,0c-0.4-0.1-0.8-0.4-0.8-0.8v-0.5h-0.1h-2
				h-0.1v0.5c0,0.4-0.3,0.8-0.8,0.8c0,0,0,0,0,0h-0.3c-0.5,0-0.9-0.4-0.9-0.8v-0.5h-0.1h-0.8c-0.7,0-1.2,0.5-1.2,1.2v6.6
				c0,0.7,0.6,1.2,1.2,1.2h2.1h3.8h2.1c0.7,0,1.2-0.5,1.2-1.2v-6.6C183.1,134.7,182.5,134.1,181.9,134.1z M182.3,141.7
				c0,0.4-0.3,0.6-0.6,0.6h-7.6c-0.4,0-0.6-0.3-0.6-0.6v-4.9c0-0.4,0.3-0.6,0.6-0.6h0c0,0,0.1,0,0.1,0h7.2c0,0,0.1,0,0.1,0h0
				c0.4,0,0.6,0.3,0.6,0.6V141.7z"/>
		</g>
	</g>
</g>
<g>
	<g>
		<circle class="st0" cx="42.5" cy="138.3" r="10.1"/>
	</g>
	<g>
		<g>
			<g>
				<path class="st2" d="M42.2,142.7l4.9-4.9c0.9-1.1,0.8-2.8-0.3-3.8l-0.1-0.1c-1-1-2.7-1.1-3.8-0.2l-4.9,4.9
					c-1.1,1.1-1.1,2.9,0,4.1l0.1,0.1C39.3,143.8,41.1,143.8,42.2,142.7z M43.4,134.1c0.9-0.6,2.2-0.5,3,0.3l0.1,0.1
					c0.8,0.8,0.9,2.1,0.3,3l-2.7,2.7l-3.3-3.3L43.4,134.1z"/>
			</g>
		</g>
	</g>
</g>
<g>
	<g>
		<g>
			<g>
				<circle class="st0" cx="110.2" cy="138.3" r="10.1"/>
			</g>
		</g>
	</g>
	<g>
		<circle class="st1" cx="110.2" cy="133.7" r="1.7"/>
		<path class="st1" d="M115.9,140.2c0-0.4-0.4-0.7-0.8-0.7c-0.6,0.1-1.2-0.2-1.8-0.8c-0.4-0.4-0.8-0.9-1-1.4c-0.1-0.2-0.6-0.9-0.8-1
			c-0.3-0.2-0.8-0.4-1.3-0.4c-0.5,0-0.9,0.1-1.3,0.4c-0.2,0.1-0.7,0.8-0.8,1c-0.3,0.5-0.6,1-1,1.4c-0.6,0.6-1.2,0.9-1.8,0.8
			c-0.4,0-0.8,0.3-0.8,0.7c0,0.4,0.3,0.8,0.7,0.8c0.1,0,0.2,0,0.3,0c0.5,0,0.9-0.1,1.4-0.3c0.5-0.2,0.9-0.5,1.3-1c0,0,0,0,0.1-0.1
			c0.1,0.6,0.2,1.2,0.2,1.8c0,0.1,0,0.2,0,0.3c-0.7,0-1.4-0.1-2-0.2c-0.6-0.1-1.2,0.4-1.3,1c-0.1,0.6,0.4,1.2,1,1.3
			c1.3,0.2,2.6,0.2,3.9,0.2c1.3,0,2.6-0.1,3.9-0.2c0.6-0.1,1-0.6,1-1.3c-0.1-0.6-0.6-1-1.3-1c-0.7,0.1-1.4,0.1-2,0.2
			c0-0.1,0-0.2,0-0.3c0.1-0.6,0.2-1.2,0.2-1.8c0,0,0,0,0.1,0.1c0.4,0.4,0.9,0.8,1.3,1c0.5,0.2,0.9,0.3,1.4,0.3c0.1,0,0.2,0,0.3,0
			C115.6,141,115.9,140.6,115.9,140.2z"/>
	</g>
</g>
<g>
	<g>
		<g>
			<g>
				<g>
					<circle class="st0" cx="245.6" cy="138.3" r="10.1"/>
				</g>
			</g>
		</g>
	</g>
	<g>
		<rect x="240" y="143.3" class="st1" width="11.3" height="0.4"/>
		<g>
			<rect x="247.8" y="139.8" class="st1" width="2.8" height="2.8"/>
			<rect x="244.3" y="137.2" class="st1" width="2.8" height="5.4"/>
			<rect x="240.8" y="133.3" class="st1" width="2.8" height="9.3"/>
		</g>
		<path class="st1" d="M249.7,135h1.5l-2.6,2.6L246,135h1.5c0,0,0,0,0-0.4c0-0.9-0.7-2.2-1.5-2.2C248.6,132.4,249.7,133.7,249.7,135
			z"/>
	</g>
</g>
</svg>
