<svg xmlns="http://www.w3.org/2000/svg" width="63" height="86" viewBox="0 0 63 86">
  <g fill="#FFFFFF" fill-rule="evenodd" transform="rotate(9 38.853 76.266)">
    <path d="M58.297,53.199 C58.104,52.813 35.94,8.927 35.94,8.926 C35.935,8.916 35.926,8.91 35.92,8.902 L35.92,1.162 C35.92,0.775 35.607,0.462 35.221,0.462 C34.835,0.462 34.521,0.775 34.521,1.162 L34.521,8.857 L2.717,24.916 C2.372,25.091 2.235,25.511 2.408,25.856 C2.41,25.86 14.122,49.054 14.285,49.377 C14.951,50.695 15.264,52.095 15.264,53.477 C15.264,56.809 13.432,60.019 10.254,61.623 C9.455,62.026 7.949,62.788 7.949,62.788 C3.025,65.274 0.183,70.25 0.183,75.412 C0.183,77.555 0.672,79.731 1.704,81.773 C4.19,86.697 9.166,89.539 14.329,89.538 C16.47,89.538 18.646,89.049 20.688,88.018 L52.048,72.183 C56.973,69.696 59.815,64.719 59.815,59.557 C59.816,57.416 59.326,55.239 58.297,53.199 Z M3.974,25.85 L35.005,10.181 C35.162,10.493 35.373,10.91 35.637,11.432 C36.866,13.866 39.171,18.431 41.826,23.688 L10.795,39.358 C8.048,33.918 4.951,27.786 3.974,25.85 Z M51.418,70.934 L20.059,86.769 C18.215,87.699 16.259,88.138 14.33,88.138 C9.676,88.137 5.195,85.58 2.955,81.143 C2.023,79.299 1.584,77.342 1.584,75.413 C1.585,70.761 4.143,66.278 8.581,64.039 C8.584,64.037 10.088,63.276 10.886,62.874 C14.548,61.022 16.665,57.319 16.664,53.478 C16.664,51.884 16.301,50.265 15.535,48.748 C15.379,48.439 13.578,44.873 11.426,40.609 L42.457,24.939 C48.838,37.573 56.857,53.453 57.046,53.83 C57.977,55.672 58.416,57.629 58.416,59.559 C58.415,64.211 55.857,68.694 51.418,70.934 Z"/>
    <path d="M50.133 55.949C49.94 55.614 49.512 55.498 49.177 55.69L46.522 57.213 46.522 54.161C46.522 53.774 46.209 53.461 45.823 53.461 45.437 53.461 45.123 53.774 45.123 54.161L45.123 57.224 42.465 55.7C42.13 55.508 41.702 55.624 41.51 55.959 41.318 56.294 41.434 56.723 41.769 56.915L44.405 58.428 41.769 59.94C41.434 60.132 41.318 60.56 41.51 60.896 41.702 61.231 42.13 61.347 42.465 61.155L45.122 59.631 45.122 62.704C45.122 63.091 45.435 63.404 45.822 63.404 46.209 63.404 46.521 63.091 46.521 62.704L46.521 59.642 49.176 61.165C49.511 61.356 49.939 61.241 50.132 60.905 50.323 60.57 50.208 60.142 49.872 59.95L47.218 58.428 49.872 56.906C50.209 56.712 50.324 56.285 50.133 55.949zM27.122 58.162C27.122 58.549 27.435 58.862 27.822 58.862 28.209 58.862 28.521 58.549 28.521 58.162L28.521 55.1 31.176 56.623C31.511 56.814 31.939 56.699 32.132 56.363 32.323 56.028 32.208 55.6 31.872 55.408L29.218 53.886 31.872 52.364C32.208 52.172 32.323 51.744 32.132 51.408 31.939 51.073 31.511 50.957 31.176 51.149L28.521 52.672 28.521 49.62C28.521 49.233 28.208 48.92 27.822 48.92 27.436 48.92 27.122 49.233 27.122 49.62L27.122 52.683 24.465 51.159C24.13 50.967 23.702 51.083 23.51 51.418 23.318 51.753 23.434 52.182 23.769 52.374L26.405 53.887 23.769 55.399C23.434 55.591 23.318 56.019 23.51 56.355 23.702 56.69 24.13 56.806 24.465 56.614L27.122 55.09 27.122 58.162 27.122 58.162zM35.133 69.408C34.94 69.073 34.512 68.957 34.177 69.149L31.522 70.672 31.522 67.62C31.522 67.233 31.209 66.92 30.823 66.92 30.437 66.92 30.123 67.233 30.123 67.62L30.123 70.683 27.466 69.159C27.131 68.967 26.703 69.083 26.511 69.418 26.319 69.753 26.435 70.182 26.77 70.374L29.406 71.887 26.77 73.399C26.435 73.591 26.319 74.019 26.511 74.355 26.703 74.69 27.131 74.806 27.466 74.614L30.123 73.09 30.123 76.163C30.123 76.55 30.436 76.863 30.823 76.863 31.21 76.863 31.522 76.55 31.522 76.163L31.522 73.1 34.177 74.623C34.512 74.814 34.94 74.699 35.133 74.363 35.324 74.028 35.209 73.6 34.873 73.408L32.219 71.886 34.873 70.364C35.209 70.171 35.324 69.744 35.133 69.408zM18.725 72.408C18.532 72.073 18.104 71.957 17.769 72.149L15.114 73.672 15.114 70.62C15.114 70.233 14.801 69.92 14.415 69.92 14.029 69.92 13.715 70.233 13.715 70.62L13.715 73.683 11.058 72.159C10.723 71.967 10.295 72.083 10.103 72.418 9.911 72.753 10.027 73.182 10.362 73.374L12.998 74.887 10.362 76.399C10.027 76.591 9.911 77.019 10.103 77.355 10.295 77.69 10.723 77.806 11.058 77.614L13.715 76.09 13.715 79.163C13.715 79.55 14.028 79.863 14.415 79.863 14.802 79.863 15.114 79.55 15.114 79.163L15.114 76.1 17.769 77.623C18.104 77.814 18.532 77.699 18.725 77.363 18.916 77.028 18.801 76.6 18.465 76.408L15.811 74.886 18.465 73.364C18.801 73.171 18.916 72.744 18.725 72.408z"/>
  </g>
</svg>
