<svg xmlns="http://www.w3.org/2000/svg" width="89" height="89" viewBox="0 0 89 89">
  <path fill="#333B54" fill-rule="evenodd" d="M44.5,0 C19.9233286,-1.5048871e-15 3.00977419e-15,19.9233286 0,44.5 C-3.00977419e-15,69.0766714 19.9233286,89 44.5,89 C69.0766714,89 89,69.0766714 89,44.5 C89,32.6978662 84.3116206,21.3791171 75.9662518,13.0337482 C67.6208829,4.6883794 56.3021338,7.22672269e-16 44.5,0 Z M58.74712,45.7042256 L37.206005,58.1410856 C36.7757582,58.3894887 36.2456743,58.3894974 35.8154194,58.1411084 C35.3851645,57.8927193 35.1201,57.4336662 35.1200675,56.93686 L35.1200675,32.06314 C35.1199807,31.5662742 35.3849981,31.1071118 35.8152749,30.8586413 C36.2455516,30.6101708 36.7757066,30.6101477 37.206005,30.8585806 L58.74712,43.2957744 C59.1772921,43.5442094 59.442275,44.0032425 59.442275,44.5 C59.442275,44.9967575 59.1772921,45.4557906 58.74712,45.7042256 Z"/>
</svg>
