<svg xmlns="http://www.w3.org/2000/svg" width="231" height="323" viewBox="0 0 231 323">
  <g fill="#FFFFFF" fill-rule="evenodd">
    <path d="M151.066184,98.3484058 L148.453226,96.8892217 C148.317488,96.7874181 134.031057,88.6431347 130.094654,70.0130864 L129.551702,67.3322598 L125.140215,67.3322598 C130.569737,57.9323994 130.603671,54.7764895 130.603671,53.6566506 C130.603671,46.8018787 125.004477,41.2026838 118.11577,41.2026838 C111.260998,41.2026838 105.661804,46.8018787 105.661804,53.6566506 C105.661804,54.7764895 105.661804,57.8984648 111.12526,67.3322598 L104.032947,67.3322598 L103.45606,70.0130864 C99.553591,88.5413312 85.233226,96.7874181 85.0974879,96.8892217 L84.6902738,97.0928288 C35.1798175,110.870242 0.702351047,156.206753 0.702351047,207.855083 C0.702351047,271.27869 52.3167472,322.893086 115.740354,322.893086 C179.163961,322.893086 230.778357,271.27869 230.778357,207.855083 C230.778357,157.971347 198.201224,113.517134 151.066184,98.3484058 Z M217.689815,212.17834 C214.506758,212.843457 211.388176,210.803992 210.72306,207.620935 C210.057943,204.437878 212.097407,201.319296 215.280465,200.654179 C218.463522,199.989063 221.582104,202.028527 222.250614,205.211585 C222.912337,208.391249 220.872873,211.513224 217.689815,212.17834 Z M215.490859,166.024008 C215.382268,165.762712 215.266891,165.501416 215.154907,165.236727 C215.266891,165.501416 215.382268,165.762712 215.490859,166.024008 Z M194.672034,134.047515 L194.672034,141.709928 L198.303027,138.082329 C199.843654,139.908005 201.357134,141.754043 202.775596,143.67813 L197.675239,148.775094 L206.247097,148.775094 C207.692707,150.984231 209.050088,153.251056 210.332813,155.561997 L199.735064,155.561997 L210.346386,166.09527 C212.15849,165.789859 214.079183,166.241188 215.477285,167.63929 C217.774652,169.936657 217.761078,173.66606 215.460318,175.96682 C213.159558,178.26758 209.403007,178.264187 207.102247,175.96682 C205.700751,174.565325 205.103504,172.637844 205.408915,170.822348 L194.672034,160.200845 L194.672034,176.598002 C194.672034,177.629611 196.222842,178.959844 196.222842,180.435996 C196.222842,183.686922 193.681147,186.323634 190.43022,186.323634 C187.179294,186.323634 184.484893,183.686922 184.484893,180.435996 C184.484893,178.033432 184.488287,175.973607 187.881738,175.057375 L187.881738,158.147807 L175.319181,170.829135 C175.624592,172.644631 175.20041,174.578899 173.802308,175.977001 C171.504941,178.274367 167.775538,178.287941 165.478172,175.987181 C163.180805,173.689814 163.180805,169.980772 165.478172,167.683405 C166.876274,166.285303 168.803754,165.789859 170.619251,166.09527 L181.240754,155.561997 L164.84699,155.561997 C163.815381,155.561997 162.481754,156.956705 161.008996,156.956705 C157.75807,156.956705 155.121358,154.258911 155.121358,151.007985 C155.121358,147.757059 157.75807,145.167855 161.008996,145.167855 C163.41156,145.167855 165.471385,145.381643 166.387617,148.775094 L183.297185,148.775094 L170.612464,136.005536 C168.796967,136.310947 166.8627,135.679765 165.461205,134.278269 C163.163838,131.980903 163.150264,128.2515 165.447631,125.954133 C167.744997,123.656767 171.447253,123.656767 173.744619,125.954133 C175.142721,127.352235 175.621198,129.283109 175.319181,131.095212 L187.885132,143.769753 L187.885132,128.159877 C187.885132,127.96645 187.936033,127.708548 187.976755,127.464219 C190.304662,129.564765 192.537553,131.760329 194.672034,134.047515 Z M127.776926,195.309493 C129.58903,195.004083 131.519903,195.506313 132.918005,196.904415 C135.215372,199.201782 135.215372,202.937972 132.918005,205.235339 C130.620639,207.532705 126.891236,207.542886 124.590476,205.245519 C123.192374,203.847417 122.656208,201.936904 122.961619,200.121407 L108.905943,186.10306 L86.4921965,186.10306 L98.0706527,206.12103 L116.622652,211.058501 C118.041114,209.887761 119.978775,209.38553 121.892682,209.897941 C125.035018,210.739517 126.898023,213.966689 126.056447,217.109025 C125.214871,220.247968 121.987698,222.114366 118.845362,221.27279 C116.934849,220.760379 115.506206,219.358884 114.86145,217.63501 L102.882567,214.424805 L107.56553,222.538548 C109.397994,222.715007 111.118473,223.729649 112.109361,225.443342 C113.734824,228.259907 112.771084,231.860359 109.95452,233.485822 C107.137955,235.111285 103.537503,234.147545 101.91204,231.33098 C100.921152,229.617287 100.904185,227.615151 101.667711,225.942179 L96.1533527,216.389614 L92.3357198,230.638716 C93.5064605,232.057179 94.0086914,233.99484 93.4962802,235.905353 C92.6547042,239.044295 89.4275319,240.910694 86.2851959,240.069118 C83.1462534,239.227542 81.2798551,236.000369 82.121431,232.858033 C82.6338422,230.944127 84.0353376,229.518877 85.7626044,228.874121 L91.3414385,208.051903 L80.3839839,189.075723 L68.116657,210.318729 L73.0880633,228.874121 C74.8119367,229.518877 76.2134321,230.944127 76.7258433,232.85464 C77.5674192,235.993582 75.7010209,239.224148 72.5620784,240.065724 C69.4197424,240.9073 66.19257,239.044295 65.3509941,235.901959 C64.8385829,233.988053 65.3408137,232.050392 66.5115545,230.631929 L63.3013494,218.653046 L59.10365,225.942179 C59.8671766,227.615151 59.8468159,229.617287 58.8593215,231.33098 C57.2338583,234.147545 53.6334063,235.111285 50.8168417,233.485822 C48.000277,231.860359 47.0365368,228.259907 48.662,225.443342 C49.6528878,223.729649 51.3767611,222.711614 53.2058315,222.538548 L58.2417134,213.817377 L43.9960043,217.63501 C43.354642,219.358884 41.9259989,220.763772 40.0154858,221.276184 C36.8731498,222.11776 33.6459775,220.254755 32.8044015,217.115812 C31.9628256,213.97687 33.8258304,210.753091 36.9681664,209.911515 C38.8786795,209.399104 40.8197338,209.908121 42.2381965,211.078862 L63.0604144,205.516995 L74.2825582,186.10306 L49.9481181,186.10306 L35.8958357,200.121407 C36.2012464,201.936904 35.6650811,203.83045 34.2669791,205.228552 C31.9696125,207.525918 28.2402093,207.532705 25.9394493,205.231945 C23.6420827,202.934579 23.6420827,199.215356 25.9394493,196.914596 C27.3409447,195.516494 29.2684251,194.997296 31.0805282,195.302706 L40.3242899,186.10306 L31.6268739,186.10306 C30.5477563,186.10306 28.9460472,188.203606 27.1339442,188.203606 C23.8830177,188.203606 21.246306,185.54314 21.246306,182.292214 C21.246306,179.041287 23.8830177,176.42833 27.1339442,176.42833 C29.2650317,176.42833 31.1144627,175.926099 32.1494654,179.31955 L41.0403081,179.31955 L31.0839216,169.315655 C29.2684251,169.621066 27.3409447,169.040786 25.9394493,167.63929 C23.6420827,165.341924 23.6420827,161.619308 25.9394493,159.318548 C28.2368159,157.021181 31.966219,157.031361 34.2669791,159.332121 C35.6650811,160.730223 36.2012464,162.684851 35.8958357,164.500348 L50.6675298,179.316157 L74.6965593,179.316157 L63.0536275,159.101367 L42.234803,153.475024 C40.8163403,154.645765 38.8752861,155.147996 36.9647729,154.635585 C33.8224369,153.794009 31.9594321,150.566836 32.8010081,147.4245 C33.642584,144.285558 36.8697563,142.419159 40.0120923,143.260735 C41.9226055,143.773147 43.3512485,145.174642 43.9926108,146.898515 L58.2383199,150.716148 L53.2058315,141.994978 C51.3733677,141.818519 49.6494944,140.803877 48.6586065,139.090184 C47.0331433,136.273619 47.9968835,132.673167 50.8134482,131.047704 C53.6300129,129.42224 57.2304648,130.385981 58.8559281,133.202545 C59.8468159,134.916238 59.8637831,136.914981 59.1002566,138.587953 L63.3047429,145.8703 L66.5149479,133.894809 C65.3442072,132.476347 64.8419764,130.538686 65.3543875,128.624779 C66.1959635,125.485837 69.4231358,123.619439 72.5654718,124.461014 C75.7044144,125.30259 77.5708127,128.529763 76.7292367,131.672099 C76.2168256,133.582612 74.8153301,135.011255 73.0914568,135.652617 L68.116657,154.20801 L80.3839839,175.451016 L91.3414385,156.474835 L85.7626044,135.652617 C84.0387311,135.007862 82.6372356,133.582612 82.1248245,131.668705 C81.2832485,128.529763 83.1496468,125.299197 86.2885894,124.457621 C89.4309254,123.616045 92.6580977,125.47905 93.4996736,128.621386 C94.0120848,130.531899 93.5132475,132.472953 92.3391133,133.891416 L96.1567461,148.137125 L101.671105,138.587953 C100.907578,136.914981 100.924545,134.912845 101.915433,133.199152 C103.540896,130.382587 107.141348,129.418847 109.957913,131.04431 C112.774478,132.669773 113.738218,136.270225 112.112755,139.08679 C111.121867,140.800483 109.397994,141.818519 107.568923,141.991585 L102.88596,150.105327 L114.864844,146.895122 C115.5096,145.171249 116.934849,143.773147 118.848756,143.260735 C121.987698,142.419159 125.218264,144.285558 126.05984,147.427894 C126.901416,150.566836 125.038411,153.804189 121.896075,154.645765 C119.985562,155.158176 118.044508,154.669519 116.626045,153.498778 L98.0740462,158.493939 L86.0781954,179.316157 L108.189925,179.316157 L122.961619,164.496954 C122.656208,162.681458 123.192374,160.709863 124.590476,159.311761 C126.887842,157.014394 130.617245,157.017787 132.918005,159.318548 C135.215372,161.615914 135.215372,165.358891 132.918005,167.656258 C131.51651,169.057753 129.58903,169.614279 127.773533,169.312262 L117.817147,179.316157 L128.625289,179.316157 C129.660292,175.922705 131.509723,176.435116 133.640811,176.435116 C136.891737,176.435116 139.528449,179.031107 139.528449,182.282033 C139.528449,185.53296 136.891737,188.186639 133.640811,188.186639 C131.828707,188.186639 130.226998,186.099666 129.147881,186.099666 L118.536558,186.099666 L127.776926,195.309493 Z M59.7110778,295.901574 L57.600351,299.098205 C55.6864444,297.873169 53.8064724,296.597231 51.977402,295.260211 L53.8200462,292.467401 L49.4866087,293.373452 C47.2028159,291.598677 44.9767118,289.756033 42.8422308,287.808192 L52.6730596,285.751761 L38.6513183,276.586048 C36.9376253,277.257952 34.9388824,277.129001 33.2828782,276.043096 C30.5613301,274.264928 29.7978035,270.613574 31.5759721,267.895419 C33.3541406,265.173871 37.0054944,264.410345 39.7270424,266.188513 C41.3864402,267.271024 42.302672,269.049193 42.377328,270.888443 L56.3956758,280.054156 L52.9648964,263.660392 C51.278351,262.924013 49.9582984,261.420714 49.5544777,259.47966 C48.8859678,256.296602 50.9288256,253.17802 54.1084895,252.50951 C57.291547,251.844394 60.4101288,253.883858 61.0786388,257.066916 C61.4858529,259.004576 60.8750317,260.911696 59.629635,262.26229 L63.0298733,278.516922 L72.2159463,264.607165 C71.5576167,262.900259 71.6899614,260.91509 72.7656855,259.265872 C74.543854,256.544324 78.1952077,255.780798 80.9167558,257.558966 C83.6383038,259.337135 84.4018304,262.988488 82.6202684,265.710037 C81.5309705,267.376221 79.7392281,268.29924 77.8897971,268.363716 L68.6154944,282.409211 L85.1483897,278.94789 C85.8847687,277.261345 87.3880676,275.941293 89.3257284,275.534078 C92.5087858,274.868962 95.6273677,276.908426 96.2958776,280.091484 C96.9609941,283.274541 94.9215298,286.393123 91.7384724,287.058239 C89.8008116,287.465454 87.8936919,286.854632 86.5430982,285.609236 L70.1527279,289.040015 L84.1676822,298.205727 C85.8813752,297.537217 87.8767246,297.666169 89.5327289,298.74868 C92.254277,300.526848 93.0178035,304.178202 91.239635,306.89975 C89.4614665,309.621298 85.8101127,310.384824 83.0919581,308.606656 C81.4359538,307.524145 80.5163285,305.742583 80.4416726,303.903332 L66.4233247,294.73762 L68.6324616,305.298041 C65.951635,303.998349 63.3454643,302.573099 60.7935888,301.063013 L59.7110778,295.901574 Z M24.6499377,234.69389 C27.8329952,234.028774 30.951577,236.068238 31.620087,239.251296 C32.2852034,242.434353 30.2457391,245.552935 27.0626817,246.218052 C23.8796243,246.883168 20.7610424,244.843704 20.0925325,241.660646 C19.427416,238.480982 21.4668803,235.359007 24.6499377,234.69389 Z M109.754306,289.158786 C112.937363,288.493669 116.055945,290.533134 116.721062,293.716191 C117.386178,296.899249 115.346714,300.01783 112.163656,300.682947 C108.980599,301.348063 105.862017,299.308599 105.196901,296.125542 C104.531784,292.945878 106.571249,289.827296 109.754306,289.158786 Z M139.396104,133.884629 C136.213047,134.549746 133.094465,132.510281 132.429348,129.327224 C131.764232,126.144166 133.803696,123.025585 136.986754,122.360468 C140.169811,121.695352 143.288393,123.734816 143.956903,126.917873 C144.618626,130.097537 142.579162,133.219513 139.396104,133.884629 Z M154.004913,193.846916 C157.18797,193.181799 160.306552,195.221264 160.975062,198.404321 C161.640178,201.587378 159.600714,204.70596 156.417656,205.37447 C153.234599,206.039587 150.116017,204.000122 149.447507,200.817065 C148.782391,197.630614 150.821855,194.512032 154.004913,193.846916 Z M114.315105,49.4827053 C114.484777,49.991723 114.722319,50.4328717 115.095598,50.8061514 C115.70642,51.4509071 116.588717,51.7902523 117.504949,51.7902523 C118.387246,51.7902523 119.269544,51.4509071 119.880365,50.8061514 C120.457252,50.2292646 120.762662,49.4827053 120.830531,48.7022115 C122.595126,49.6863124 123.816769,51.5187762 123.816769,53.6566506 C123.816769,54.742555 122.561192,58.4753516 118.11577,65.8391412 C113.670349,58.4753516 112.448706,54.742555 112.448706,53.6566506 C112.448706,52.0277939 113.161331,50.5346753 114.315105,49.4827053 Z M109.462469,74.1191626 L124.122179,74.1191626 C127.956779,88.5073967 137.051229,96.9570907 141.937799,100.655953 C138.612217,104.219077 131.010886,109.818272 118.522984,105.203178 C117.912163,104.965636 117.247047,104.795963 116.622652,104.79257 C116.028798,104.789177 115.468878,104.965636 114.858057,105.203178 C102.505894,109.784337 94.938497,104.185142 91.6468492,100.655953 C96.5334192,96.9570907 105.593935,88.5073967 109.462469,74.1191626 Z M187.922459,288.442768 L184.437385,277.420837 L167.870555,295.535081 L168.196326,302.501837 C166.021124,303.713299 163.801807,304.846712 161.538375,305.905469 L161.385669,302.620608 L156.292099,308.192655 C152.467679,309.743462 148.538062,311.077089 144.516822,312.190141 C143.732935,310.167644 144.058706,307.799014 145.619694,306.092108 C146.956714,304.632924 148.857047,304.011923 150.686117,304.23589 L157.489987,296.797445 L142.752228,297.452381 C141.754553,299.003188 140.054434,300.072126 138.069265,300.160355 C134.821732,300.306274 132.069643,297.788333 131.923724,294.5408 C131.777806,291.293267 134.295747,288.541178 137.54328,288.395259 C139.514875,288.30703 141.293043,289.209688 142.426456,290.651904 L163.978266,289.694951 L179.411683,272.819317 L155.806835,267.603582 L138.61561,278.581398 C138.520594,280.417255 137.584001,282.185243 135.914423,283.250787 C133.175908,285.001808 129.534734,284.19756 127.783713,281.455651 C126.032692,278.717136 126.83694,275.075962 129.578849,273.324941 C131.248427,272.259398 133.24717,272.150807 134.954076,272.839678 L146.410368,265.52679 L137.855477,263.636638 C136.487916,264.878641 134.567223,265.469101 132.629562,265.041527 C129.453291,264.342476 127.447762,261.196746 128.150206,258.023869 C128.849257,254.847598 131.991593,252.842069 135.167864,253.544513 C137.095344,253.968695 138.578282,255.298928 139.301087,256.985473 L147.855979,258.875625 L140.560058,247.446481 C138.720807,247.354858 136.956213,246.414872 135.890669,244.745294 C134.143041,242.006778 134.943896,238.365605 137.685805,236.614584 C140.42432,234.863563 144.065493,235.667811 145.816514,238.40972 C146.882058,240.079298 146.987255,242.078041 146.298384,243.781553 L157.259232,260.949024 L180.877654,266.168152 L173.985554,244.368621 L154.849882,234.429201 C153.210845,235.267384 151.212102,235.338646 149.454294,234.425808 C146.56986,232.925902 145.446628,229.372959 146.94314,226.488525 C148.439652,223.604091 151.995989,222.477465 154.880423,223.977371 C156.638231,224.890209 157.727529,226.566574 157.985431,228.385464 L171.08076,235.185941 L168.043621,225.58926 C166.289207,225.025947 164.819842,223.658386 164.222595,221.768234 C163.241887,218.670013 164.958974,215.361398 168.060588,214.38069 C171.162203,213.399983 174.467425,215.117069 175.448132,218.218684 C176.045379,220.102049 175.631378,222.056677 174.528507,223.526042 L177.063415,231.544768 L182.777987,220.543198 C181.939805,218.907554 181.868542,216.905418 182.781381,215.151004 C184.281286,212.26657 187.83423,211.139944 190.718663,212.63985 C193.603097,214.139755 194.729723,217.692699 193.229817,220.577133 C192.316979,222.33494 190.640614,223.424238 188.818331,223.682141 L179.968209,240.727447 L187.36254,264.118508 L202.151201,247.945318 L201.197641,226.417262 C199.646834,225.419588 198.584684,223.719469 198.493061,221.737693 C198.350536,218.49016 200.865083,215.738071 204.112616,215.595546 C207.360149,215.449627 210.112238,217.967568 210.258157,221.215101 C210.346386,223.186697 209.443728,224.971652 207.998118,226.101671 L208.653054,240.842824 L216.088106,232.715508 C215.701253,230.916979 216.152582,228.975925 217.486208,227.516741 C218.806261,226.074524 220.676053,225.497637 222.481369,225.701244 C221.711055,230.326519 220.652298,234.856776 219.315279,239.26487 L214.795201,244.209128 L217.727143,244.07339 C216.888961,246.425052 215.969335,248.739386 214.975054,251.016392 L208.286561,251.325196 L192.384848,268.709848 L203.454287,271.156526 C201.981529,273.192597 200.451082,275.184553 198.842586,277.112033 L190.91209,275.361012 L193.379129,283.162557 C191.628108,284.984841 189.809218,286.749435 187.922459,288.442768 Z"/>
    <ellipse cx="116.623" cy="36.791" rx="3.393" ry="3.393"/>
    <ellipse cx="116.623" cy="26.611" rx="3.393" ry="3.393"/>
    <ellipse cx="116.623" cy="13.791" rx="3.393" ry="3.393"/>
    <ellipse cx="116.623" cy="3.611" rx="3.393" ry="3.393"/>
  </g>
</svg>
