<svg xmlns="http://www.w3.org/2000/svg" viewBox="0 0 61 83">
  <g fill="#FFF" fill-rule="evenodd" stroke="#FFF" stroke-width=".5">
    <path d="M8.229,12.157 L18.145,12.157 C18.152,14.701 18.98,17.104 20.542,19.109 C20.641,19.236 20.788,19.302 20.937,19.302 C21.044,19.302 21.152,19.267 21.244,19.197 C21.462,19.027 21.501,18.713 21.331,18.495 C19.9,16.659 19.143,14.456 19.143,12.125 C19.143,6.404 23.797,1.75 29.518,1.75 C35.239,1.75 39.893,6.404 39.893,12.125 C39.893,14.454 39.132,16.656 37.692,18.493 C37.522,18.711 37.56,19.025 37.777,19.195 C37.994,19.365 38.308,19.327 38.479,19.11 C40.058,17.094 40.893,14.679 40.893,12.125 C40.893,5.853 35.79,0.75 29.518,0.75 C23.573,0.75 18.686,5.337 18.192,11.157 L8.229,11.157 L8.229,7.285 L4.443,9.471 L0.657,11.657 L4.443,13.843 L8.229,16.029 L8.229,12.157 Z"/>
    <path d="M60.596,35.222 C60.499,31.954 58.727,29.925 55.971,29.925 C54.358,29.925 53.276,30.689 52.587,31.631 L52.587,30.593 C52.587,29.794 51.739,25.738 47.713,25.738 C45.852,25.738 44.634,26.7 43.894,27.817 C43.589,26.081 42.299,23.187 38.53,23.187 C36.51,23.187 35.202,24.231 34.41,25.457 L34.41,12.643 C34.41,7.452 31.844,6.362 29.691,6.362 C28.284,6.362 27.129,6.809 26.258,7.69 C24.584,9.384 24.595,12.067 24.597,12.174 L24.597,45.363 C24.597,45.483 24.535,45.582 24.428,45.634 C24.241,45.727 23.968,45.655 23.65,45.406 C22.796,44.757 21.738,43.805 20.671,42.728 L19.954,41.997 C18.196,40.199 16.203,38.16 14.2,37.135 C9.694,34.83 6.251,36.61 5.139,38.27 C4.549,39.149 4.346,40.049 4.534,40.946 C4.781,42.123 5.7,43.225 7.266,44.221 C11.712,47.047 16.829,53.776 19.02,58.389 C20.713,61.953 23.903,64.981 26.718,67.653 C28.578,69.419 30.184,70.943 30.962,72.257 C31.118,72.521 31.297,73.013 31.378,73.255 L31.378,82.05 C31.378,82.326 31.602,82.55 31.878,82.55 C32.154,82.55 32.378,82.326 32.378,82.05 L32.378,73.175 C32.378,73.123 32.37,73.072 32.354,73.023 C32.328,72.939 32.085,72.192 31.822,71.748 C30.973,70.315 29.321,68.746 27.406,66.929 C24.655,64.318 21.536,61.358 19.923,57.961 C17.622,53.118 12.46,46.339 7.801,43.379 C6.471,42.533 5.7,41.646 5.511,40.743 C5.381,40.12 5.534,39.476 5.969,38.829 C6.889,37.453 9.815,36.018 13.744,38.027 C15.601,38.977 17.618,41.04 19.238,42.698 L19.96,43.433 C21.075,44.559 22.141,45.517 23.081,46.232 C23.657,46.683 24.325,46.798 24.864,46.535 C25.316,46.315 25.596,45.867 25.596,45.365 L25.596,12.168 C25.596,12.145 25.584,9.793 26.969,8.392 C27.645,7.708 28.56,7.362 29.69,7.362 C32.158,7.362 33.409,9.139 33.409,12.643 L33.409,37.487 C33.409,37.763 33.633,37.987 33.909,37.987 C34.185,37.987 34.409,37.763 34.409,37.487 L34.409,28.21 C34.468,27.814 35.101,24.188 38.529,24.188 C42.78,24.188 42.97,28.569 42.97,28.614 L42.97,36.739 C42.97,37.015 43.194,37.239 43.47,37.239 C43.746,37.239 43.97,37.015 43.97,36.739 L43.97,30.22 C44.041,29.829 44.701,26.739 47.712,26.739 C51.174,26.739 51.585,30.56 51.586,30.594 L51.586,36.989 C51.586,37.265 51.81,37.489 52.086,37.489 C52.362,37.489 52.586,37.265 52.586,36.989 L52.586,34.18 C52.637,33.833 53.151,30.926 55.97,30.926 C59.126,30.926 59.557,33.952 59.595,35.253 C59.645,36.953 59.397,61.859 59.397,62.063 L59.348,62.494 C59.129,64.374 58.631,65.925 58.301,66.951 L58.147,67.436 C57.785,68.624 57.801,69.816 57.802,69.857 L57.814,82.072 C57.814,82.348 58.038,82.572 58.314,82.572 C58.59,82.572 58.814,82.347 58.814,82.072 L58.802,69.857 C58.802,69.854 58.802,69.851 58.802,69.848 C58.802,69.837 58.788,68.759 59.104,67.729 L59.253,67.256 C59.573,66.257 60.111,64.586 60.341,62.612 L60.394,62.12 C60.405,61.092 60.646,36.941 60.596,35.222 Z"/>
  </g>
</svg>
