<?xml version="1.0" encoding="UTF-8" standalone="no"?>
<svg width="193px" height="226px" viewBox="0 0 193 226" version="1.1" xmlns="http://www.w3.org/2000/svg" xmlns:xlink="http://www.w3.org/1999/xlink" xmlns:sketch="http://www.bohemiancoding.com/sketch/ns">
    <!-- Generator: Sketch 3.4.4 (17249) - http://www.bohemiancoding.com/sketch -->
    <title>speroton-logo</title>
    <desc>Created with Sketch.</desc>
    <defs></defs>
    <g id="Page-1" stroke="none" stroke-width="1" fill="none" fill-rule="evenodd" sketch:type="MSPage">
        <g id="speroton-logo" sketch:type="MSLayerGroup" transform="translate(-4.000000, -1.000000)">
            <g id="Layer_1" sketch:type="MSShapeGroup">
                <g id="Group">
                    <path d="M74.8571429,106.857143 C98.2857143,87.4285714 135.428571,89.1428571 159.428571,113.142857 C188.571429,141.714286 164.571429,194.857143 127.428571,212 C37.1428571,256 12,141.714286 80,108" id="Shape" fill-opacity="0.630802763" fill="#AFFA69"></path>
                    <g transform="translate(11.428571, 80.000000)" id="Shape">
                        <path d="M45.1428571,33.7142857 C45.1428571,32.5714286 44.5714286,33.7142857 44,34.2857143 L45.1428571,33.7142857 L45.1428571,33.7142857 Z" fill="#FFFFFF"></path>
                        <path fill="#FFFFFF" d="M44,34.2857143 L43.4285714,34.2857143 L44,34.2857143 L44,34.2857143 Z"></path>
                        <path d="M37.1428571,37.7142857 C38.2857143,36 40.5714286,36 41.1428571,34.2857143 C38.8571429,34.8571429 36.5714286,36.5714286 37.1428571,37.7142857 L37.1428571,37.7142857 Z" fill="#FFFFFF"></path>
                        <path d="M40,37.1428571 L39.4285714,36.5714286 L38.8571429,38.2857143 L40,37.1428571 Z" fill="#FFFFFF"></path>
                        <path d="M41.1428571,37.1428571 L40.5714286,36.5714286 L38.8571429,38.8571429 L41.1428571,37.1428571 Z" fill="#FFFFFF"></path>
                        <path d="M32,41.1428571 L33.1428571,40 C34.8571429,39.4285714 33.1428571,41.7142857 34.2857143,41.1428571 C36,40 33.7142857,39.4285714 36,37.7142857 C35.4285714,37.1428571 32.5714286,40.5714286 32,39.4285714 C30.2857143,40.5714286 32.5714286,40 32,41.1428571 L32,41.1428571 Z" fill="#FFFFFF"></path>
                        <path d="M75.4285714,131.428571 L76.5714286,132 L76,131.428571 L75.4285714,131.428571 Z" fill="#FFFFFF"></path>
                        <path d="M33.1428571,114.857143 L32.5714286,114.285714 C32.5714286,114.285714 32.5714286,114.857143 33.1428571,114.857143 L33.1428571,114.857143 Z" fill="#FFFFFF"></path>
                        <path fill="#FFFFFF" d="M180.571429,72 L180.571429,72 L180.571429,72 L180.571429,71.4285714 L180.571429,72 Z"></path>
                        <path fill="#FFFFFF" d="M105.714286,130.857143 L106.857143,130.857143 L105.714286,130.857143 L105.714286,130.857143 Z"></path>
                        <path fill="#FFFFFF" d="M25.7142857,108 L25.7142857,108.571429 L25.7142857,108 L25.7142857,108 L25.7142857,108 Z"></path>
                        <path d="M66.8571429,127.428571 L68,128 L66.8571429,127.428571 L66.8571429,127.428571 Z" fill="#FFFFFF"></path>
                        <path d="M12.5714286,61.1428571 C12,61.7142857 12,62.2857143 12,62.2857143 C12,62.2857143 12.5714286,62.2857143 12.5714286,61.1428571 L12.5714286,61.1428571 Z" fill="#FFFFFF"></path>
                        <path fill="#FFFFFF" d="M8,79.4285714 L8,79.4285714 C7.42857143,79.4285714 7.42857143,79.4285714 8,79.4285714 L8,79.4285714 Z"></path>
                        <path d="M12,62.8571429 C11.4285714,63.4285714 9.71428571,63.4285714 10.8571429,65.1428571 L11.4285714,65.1428571 C10.8571429,65.7142857 10.8571429,66.8571429 10.8571429,67.4285714 L11.4285714,67.4285714 C11.4285714,66.8571429 12,66.2857143 12.5714286,65.7142857 C12.5714286,64.5714286 12,63.4285714 12,62.8571429 L12,62.8571429 Z" fill="#FFFFFF"></path>
                        <path d="M48.5714286,122.857143 C48.5714286,122.857143 48,122.285714 48.5714286,122.857143 L48.5714286,122.857143 L48.5714286,122.857143 Z" fill="#FFFFFF"></path>
                        <path d="M40.5714286,119.428571 L41.1428571,120 L40.5714286,119.428571 L40.5714286,119.428571 Z" fill="#FFFFFF"></path>
                        <path d="M41.7142857,120.571429 L41.1428571,120 L41.7142857,120.571429 L41.7142857,120.571429 Z" fill="#FFFFFF"></path>
                        <path d="M66.8571429,4 L68.5714286,4 C69.7142857,2.85714286 65.1428571,4 67.4285714,2.85714286 L65.7142857,3.42857143 L66.8571429,4.57142857 C68.5714286,4 66.2857143,4 66.8571429,4 L66.8571429,4 Z" fill="#FFFFFF"></path>
                        <path d="M181.714286,62.2857143 L181.714286,62.2857143 C182.285714,62.2857143 182.285714,62.2857143 182.285714,61.1428571 C181.142857,60 180.571429,62.2857143 179.428571,60.5714286 L179.428571,61.7142857 C180,61.1428571 181.142857,61.7142857 181.714286,62.2857143 L181.714286,62.2857143 Z" fill="#FFFFFF"></path>
                        <path fill="#FFFFFF" d="M179.428571,62.2857143 L179.428571,62.2857143 L179.428571,62.2857143 L179.428571,63.4285714 L179.428571,62.2857143 L179.428571,62.2857143 Z"></path>
                        <path d="M90.8571429,3.42857143 L91.4285714,3.42857143 C91.4285714,2.85714286 91.4285714,2.85714286 90.8571429,3.42857143 L90.8571429,3.42857143 Z" fill="#FFFFFF"></path>
                        <path d="M105.142857,145.142857 L104,145.714286 C104.571429,145.714286 105.142857,145.142857 105.142857,145.142857 L105.142857,145.142857 Z" fill="#FFFFFF"></path>
                        <path d="M181.142857,80 L180.571429,80.5714286 L180.571429,81.1428571 L181.142857,80 Z" fill="#FFFFFF"></path>
                        <path d="M152.571429,38.2857143 C153.714286,37.7142857 152,38.2857143 152,37.1428571 L150.857143,37.1428571 C150.857143,37.7142857 152,38.2857143 152.571429,38.2857143 L152.571429,38.2857143 Z" fill="#FFFFFF"></path>
                        <path d="M180,68.5714286 L180,72.5714286 L180,71.4285714 C180,71.4285714 181.142857,69.1428571 180,68.5714286 L180,68.5714286 Z" fill="#FFFFFF"></path>
                        <path d="M162.857143,49.7142857 L162.285714,50.2857143 C165.714286,52 165.714286,56.5714286 168.571429,58.2857143 C167.428571,62.8571429 172,60 170.285714,64.5714286 L170.857143,64.5714286 C173.142857,77.1428571 166.857143,89.7142857 160,100 L159.428571,99.4285714 C146.285714,115.428571 129.714286,127.428571 109.142857,129.714286 C107.428571,130.285714 108.571429,131.428571 106.857143,132.571429 C106.285714,132.571429 104.571429,132.571429 104.571429,132 C105.714286,131.428571 105.142857,130.857143 105.714286,130.857143 C103.428571,130.857143 100.571429,130.857143 98.2857143,131.428571 L100,132 C99.4285714,132.571429 97.7142857,132 97.1428571,132 C97.7142857,131.428571 96.5714286,130.857143 97.1428571,130.285714 C92.5714286,132.571429 93.7142857,129.714286 90.2857143,130.285714 C89.7142857,132 84.5714286,133.142857 81.1428571,133.714286 L80,133.714286 C82.2857143,134.285714 80,132.571429 82.8571429,133.142857 C80.5714286,132 78.2857143,132.571429 76.5714286,132 C77.1428571,132.571429 76.5714286,133.142857 76,133.142857 C74.2857143,132.571429 74.2857143,131.428571 73.1428571,130.857143 L74.8571429,130.857143 C74.2857143,129.714286 73.1428571,130.857143 72,130.857143 C72,130.285714 69.7142857,129.142857 70.2857143,128.571429 C68,129.142857 67.4285714,128 65.1428571,128 C66.8571429,129.142857 64.5714286,128.571429 64.5714286,129.714286 L66.8571429,130.285714 C63.4285714,128.571429 68,130.285714 68,129.142857 C69.7142857,130.285714 65.1428571,130.285714 68,130.857143 C64.5714286,130.285714 64,129.714286 60.5714286,129.714286 C62.8571429,130.285714 60,130.285714 60.5714286,130.857143 C58.2857143,129.714286 60,130.285714 59.4285714,129.142857 C58.2857143,128.571429 57.7142857,128 56,128 C54.2857143,126.857143 56.5714286,127.428571 56,126.285714 C57.1428571,125.714286 61.7142857,129.714286 62.2857143,126.857143 C63.4285714,127.428571 65.1428571,126.857143 66.8571429,127.428571 C65.7142857,126.857143 64,125.142857 61.7142857,125.142857 L61.1428571,126.857143 C60,126.285714 58.8571429,127.428571 58.2857143,126.857143 C58.8571429,126.857143 58.2857143,125.714286 57.1428571,125.142857 C57.1428571,125.714286 57.7142857,125.714286 57.7142857,125.714286 C56,125.142857 54.8571429,125.714286 52.5714286,125.142857 C54.2857143,126.285714 54.2857143,126.857143 56,128.571429 C54.8571429,129.142857 54.8571429,128 53.7142857,128 C53.7142857,128 54.2857143,128 53.7142857,127.428571 L52.5714286,127.428571 C50.2857143,125.714286 53.7142857,126.285714 52,124.571429 C50.8571429,123.428571 49.7142857,124 49.1428571,122.857143 L49.1428571,123.428571 L48.5714286,122.857143 L48.5714286,122.857143 C47.4285714,122.285714 46.2857143,121.714286 45.1428571,122.285714 C45.1428571,121.714286 44,121.714286 43.4285714,121.714286 C42.8571429,121.714286 40.5714286,121.142857 40,119.428571 L40,119.428571 C38.8571429,118.285714 37.7142857,117.142857 38.2857143,117.142857 L36,115.428571 L37.1428571,114.857143 C34.8571429,113.714286 34.8571429,114.285714 32.5714286,114.285714 C31.4285714,112.571429 29.1428571,110.857143 28,110.285714 L27.4285714,109.714286 L28,110.857143 C26.8571429,109.142857 26.2857143,109.714286 25.7142857,109.142857 C25.7142857,109.142857 25.7142857,109.714286 25.7142857,108.571429 L25.1428571,108 C25.1428571,108 25.7142857,108 25.7142857,108.571429 L25.7142857,108 C25.7142857,106.285714 23.4285714,106.857143 22.8571429,105.142857 L23.4285714,105.714286 C22.8571429,104.571429 23.4285714,102.857143 22.2857143,102.857143 L21.7142857,102.285714 L21.7142857,101.714286 L21.7142857,102.285714 C21.1428571,102.285714 20.5714286,101.714286 20.5714286,101.714286 L19.4285714,99.4285714 C19.4285714,98.8571429 18.8571429,98.2857143 18.2857143,98.2857143 L18.2857143,97.7142857 C17.7142857,97.1428571 18.2857143,97.1428571 18.2857143,97.1428571 C18.2857143,93.7142857 15.4285714,93.1428571 16,89.7142857 C14.8571429,89.1428571 14.8571429,90.8571429 14.8571429,90.8571429 C14.2857143,90.2857143 13.1428571,88.5714286 12.5714286,88 C13.1428571,86.2857143 13.7142857,81.7142857 15.4285714,82.2857143 C15.4285714,80 14.8571429,82.8571429 13.7142857,81.7142857 L13.7142857,81.1428571 C13.7142857,82.2857143 13.1428571,82.8571429 12.5714286,83.4285714 C12,84 11.4285714,81.1428571 11.4285714,80.5714286 L12.5714286,81.1428571 C12,78.8571429 10.2857143,79.4285714 9.71428571,77.1428571 C10.2857143,74.8571429 11.4285714,76.5714286 12.5714286,76 L12.5714286,73.7142857 L13.1428571,73.7142857 C13.1428571,72.5714286 12.5714286,72 13.1428571,70.2857143 C13.7142857,72 14.8571429,68 15.4285714,69.7142857 C16,68.5714286 14.8571429,68 16,68 C15.4285714,66.8571429 15.4285714,68.5714286 14.8571429,69.1428571 C13.1428571,69.1428571 15.4285714,66.8571429 15.4285714,65.7142857 C16,65.7142857 16,66.8571429 16.5714286,65.7142857 C16,65.1428571 16,64 17.1428571,63.4285714 C16.5714286,62.8571429 17.7142857,61.7142857 18.2857143,61.1428571 C17.7142857,61.7142857 16.5714286,62.8571429 16,61.7142857 C16,61.1428571 16.5714286,60 17.1428571,58.8571429 L17.1428571,60 C17.1428571,58.2857143 19.4285714,58.2857143 20,56.5714286 C20,57.7142857 19.4285714,58.2857143 19.4285714,58.8571429 C19.4285714,57.7142857 20,56 21.1428571,54.2857143 L23.4285714,53.7142857 C22.8571429,53.1428571 24.5714286,52 24,51.4285714 C25.7142857,50.2857143 23.4285714,53.7142857 24,54.2857143 C26.2857143,52.5714286 24,51.4285714 26.8571429,50.8571429 L26.8571429,52 C27.4285714,51.4285714 28.5714286,49.7142857 28.5714286,50.2857143 C28.5714286,50.2857143 28,50.2857143 28,50.8571429 C27.4285714,49.1428571 30.2857143,47.4285714 28.5714286,46.2857143 L27.4285714,46.8571429 C28.5714286,45.1428571 28.5714286,43.4285714 30.2857143,42.8571429 C31.4285714,42.8571429 30.2857143,44 30.2857143,45.1428571 C32,44 30.2857143,42.8571429 32,41.7142857 C30.8571429,42.2857143 30.8571429,41.7142857 30.8571429,40.5714286 C29.7142857,41.1428571 27.4285714,42.8571429 28.5714286,42.8571429 L29.1428571,42.8571429 C29.1428571,43.4285714 29.1428571,44 28.5714286,44 C27.4285714,45.1428571 27.4285714,44 26.8571429,44 C24.5714286,45.7142857 28,45.7142857 25.7142857,47.4285714 L25.1428571,47.4285714 C24.5714286,48.5714286 23.4285714,49.7142857 24,50.8571429 C22.2857143,50.8571429 22.2857143,53.1428571 21.1428571,53.7142857 C18.8571429,52 24,50.2857143 24,48.5714286 C22.8571429,49.1428571 23.4285714,47.4285714 24,46.2857143 L21.7142857,50.2857143 C21.1428571,50.2857143 19.4285714,50.2857143 19.4285714,51.4285714 L19.4285714,51.4285714 C18.2857143,53.1428571 19.4285714,53.1428571 18.2857143,54.2857143 C17.7142857,54.2857143 17.7142857,53.7142857 17.7142857,53.7142857 C16.5714286,54.8571429 17.7142857,54.8571429 17.1428571,56 C16,57.1428571 16.5714286,54.8571429 16,55.4285714 C16,57.1428571 14.2857143,57.7142857 13.7142857,58.8571429 C15.4285714,58.8571429 12.5714286,64.5714286 15.4285714,62.2857143 C14.8571429,63.4285714 14.8571429,64.5714286 14.8571429,65.7142857 C13.7142857,66.2857143 13.7142857,62.8571429 12.5714286,63.4285714 L13.7142857,61.1428571 C11.4285714,60.5714286 12.5714286,66.8571429 9.71428571,67.4285714 C9.14285714,68.5714286 9.71428571,68.5714286 8,70.8571429 L9.71428571,70.8571429 C9.14285714,72 8,72.5714286 8,72.5714286 L8,74.2857143 C8,74.2857143 7.42857143,73.7142857 7.42857143,73.1428571 C6.28571429,74.2857143 6.85714286,74.2857143 6.85714286,74.8571429 C7.42857143,75.4285714 6.85714286,76.5714286 6.85714286,77.1428571 L6.28571429,76 C6.28571429,76.5714286 6.28571429,77.1428571 6.85714286,77.1428571 L6.85714286,78.2857143 C7.42857143,78.2857143 8,77.7142857 8.57142857,76 C7.42857143,79.4285714 8.57142857,81.7142857 7.42857143,84.5714286 C6.85714286,84.5714286 6.28571429,83.4285714 6.28571429,84 C6.28571429,85.7142857 7.42857143,86.8571429 8,86.8571429 L8,87.4285714 C7.42857143,88 7.42857143,88 7.42857143,89.1428571 L7.42857143,90.2857143 C8.57142857,90.2857143 9.14285714,93.1428571 9.71428571,93.7142857 C9.71428571,93.1428571 9.14285714,92.5714286 9.14285714,91.4285714 C10.2857143,92 11.4285714,92.5714286 11.4285714,93.7142857 C9.71428571,92 10.8571429,96.5714286 9.71428571,93.7142857 C9.71428571,97.1428571 11.4285714,94.8571429 12,97.1428571 L12,98.8571429 C10.8571429,98.8571429 10.2857143,96.5714286 10.2857143,97.1428571 L10.8571429,98.2857143 C9.71428571,97.7142857 8.57142857,93.7142857 6.85714286,91.4285714 C6.85714286,93.1428571 7.42857143,94.8571429 8,96.5714286 C11.4285714,102.285714 14.8571429,109.714286 20,112.571429 L20,112.571429 L20.5714286,112.571429 L20.5714286,113.142857 L21.7142857,113.714286 C21.7142857,115.428571 23.4285714,117.142857 24,118.857143 C23.4285714,117.714286 23.4285714,117.714286 24,117.142857 C24.5714286,116.571429 25.1428571,116.571429 26.2857143,117.714286 C25.7142857,118.285714 25.1428571,117.714286 25.7142857,118.857143 C25.7142857,118.285714 26.2857143,118.285714 26.8571429,118.857143 C27.4285714,120 28.5714286,121.142857 28,121.714286 C27.4285714,121.714286 27.4285714,121.142857 27.4285714,121.142857 C26.8571429,121.142857 28.5714286,122.857143 26.8571429,122.285714 L28.5714286,123.428571 C29.1428571,124.571429 27.4285714,123.428571 27.4285714,124 C30.2857143,125.714286 32,125.142857 34.8571429,126.285714 C34.8571429,124.571429 34.2857143,125.714286 34.2857143,125.714286 C36,127.428571 38.8571429,126.857143 41.1428571,128 C40.5714286,128 40,127.428571 39.4285714,127.428571 C45.1428571,131.428571 50.2857143,134.285714 56,137.714286 L58.2857143,137.142857 L59.4285714,138.857143 C65.7142857,142.285714 71.4285714,142.285714 78.2857143,143.428571 C80.5714286,143.428571 79.4285714,144.571429 80,145.142857 C84.5714286,146.285714 85.7142857,144.571429 90.2857143,144.571429 C89.7142857,145.142857 88.5714286,146.285714 90.2857143,146.285714 C90.8571429,145.714286 90.8571429,145.142857 92,145.714286 L91.4285714,145.142857 C92.5714286,145.714286 93.7142857,145.142857 96,145.714286 C100,145.714286 104,144.571429 106.857143,142.285714 C110.285714,142.285714 106.857143,144 107.428571,144 C105.142857,143.428571 105.714286,144.571429 105.142857,145.142857 C106.285714,144.571429 108,144 108.571429,145.142857 C110.285714,145.142857 111.428571,144.571429 113.142857,143.428571 C112,144 111.428571,143.428571 112,142.857143 C113.714286,142.857143 117.142857,141.714286 117.142857,143.428571 C125.714286,141.142857 135.428571,137.714286 143.428571,133.142857 C144.571429,131.428571 142.285714,133.714286 142.857143,132.571429 C144.571429,130.285714 144.571429,132 145.714286,130.285714 L145.714286,131.428571 C148,130.285714 149.714286,127.428571 151.428571,125.142857 C151.428571,126.285714 153.714286,124.571429 152,126.285714 C153.142857,125.142857 156.571429,127.428571 157.142857,126.285714 L153.714286,124.571429 C153.714286,124 154.857143,123.428571 154.857143,123.428571 C156.571429,123.428571 157.714286,122.857143 158.285714,122.285714 C158.857143,122.857143 157.714286,124 156.571429,124.571429 C157.714286,125.714286 160,122.857143 159.428571,124.571429 C161.142857,122.857143 158.857143,124 159.428571,122.857143 L161.142857,121.714286 L160,121.714286 C161.142857,120 160.571429,118.857143 162.857143,118.285714 L163.428571,115.428571 C164.571429,116 164.571429,114.285714 165.714286,113.714286 L165.714286,114.857143 C166.857143,113.714286 167.428571,113.142857 168,112.571429 C168,113.714286 166.857143,113.714286 167.428571,114.285714 L168.571429,113.142857 C168,112.571429 168.571429,111.428571 167.428571,112 C167.428571,109.714286 167.428571,108.571429 169.714286,105.714286 C172,105.142857 169.142857,108 170.857143,108 C173.714286,104.571429 171.428571,101.714286 173.142857,100 C175.428571,97.7142857 174.285714,97.1428571 175.428571,94.2857143 C175.428571,95.4285714 177.142857,92.5714286 178.285714,92.5714286 L178.285714,94.2857143 C178.285714,93.1428571 179.428571,92.5714286 179.428571,93.1428571 C178.285714,93.1428571 180.571429,89.1428571 180.571429,86.2857143 L179.428571,86.2857143 C179.428571,84.5714286 180,82.2857143 180.571429,80.5714286 C180.571429,77.7142857 180,78.2857143 179.428571,76 C180.571429,74.8571429 181.142857,75.4285714 182.285714,75.4285714 C181.714286,76 181.714286,77.1428571 181.142857,78.2857143 C181.714286,81.7142857 182.285714,85.1428571 180.571429,88.5714286 C182.285714,90.8571429 181.142857,86.2857143 182.285714,84.5714286 L182.285714,85.1428571 L182.285714,84.5714286 C182.285714,85.7142857 181.714286,88 182.857143,88.5714286 C183.428571,86.2857143 181.142857,86.2857143 182.857143,84 C182.857143,81.7142857 184.571429,80.5714286 185.142857,79.4285714 C184.571429,77.7142857 182.857143,77.7142857 183.428571,74.2857143 L184.571429,76 C185.142857,72 182.857143,74.2857143 182.857143,70.8571429 C182.857143,72 181.714286,69.7142857 181.714286,72 C181.142857,70.8571429 181.142857,68.5714286 181.142857,66.8571429 C181.142857,66.2857143 180.571429,66.8571429 180.571429,66.8571429 C180,69.1428571 181.714286,69.7142857 180.571429,71.4285714 L181.714286,72.5714286 C181.142857,74.2857143 180,74.2857143 180,73.1428571 L180,74.2857143 C178.285714,74.2857143 181.142857,72 179.428571,71.4285714 L179.428571,72.5714286 C178.285714,73.1428571 178.285714,69.7142857 178.285714,68 C178.857143,66.2857143 178.857143,64.5714286 179.428571,64.5714286 C179.428571,65.1428571 180,66.2857143 180,66.8571429 C180.571429,65.7142857 178.857143,64 178.857143,62.2857143 L178.857143,61.7142857 L178.857143,61.7142857 L178.857143,60.5714286 C178.857143,59.4285714 177.714286,57.7142857 177.714286,56.5714286 L177.142857,58.8571429 L177.714286,58.8571429 C178.285714,60 178.285714,61.7142857 177.142857,61.1428571 C176,58.8571429 177.142857,57.7142857 177.714286,57.1428571 C178.857143,57.1428571 178.285714,59.4285714 179.428571,60.5714286 C180.571429,59.4285714 178.857143,58.2857143 178.285714,54.8571429 C180,55.4285714 179.428571,57.7142857 180.571429,58.2857143 C180,56 178.857143,56 178.285714,53.1428571 C178.857143,53.1428571 180,55.4285714 180.571429,54.8571429 L180.571429,53.1428571 C181.714286,56.5714286 181.714286,52 183.428571,54.8571429 C183.428571,53.1428571 181.714286,53.1428571 181.714286,50.8571429 C181.714286,51.4285714 181.142857,53.7142857 180,52 L179.428571,49.7142857 C179.428571,48.5714286 181.714286,51.4285714 181.714286,49.7142857 L180,48 C179.428571,48 180,49.1428571 179.428571,49.1428571 C179.428571,48 177.142857,48 176,46.8571429 C175.428571,45.7142857 174.857143,45.1428571 174.857143,44.5714286 C172,42.8571429 169.714286,40 167.428571,38.8571429 C169.142857,39.4285714 168.571429,37.7142857 168,36.5714286 C169.714286,38.2857143 170.285714,37.1428571 170.857143,36.5714286 C169.714286,35.4285714 168.571429,36 168.571429,36.5714286 C166.857143,34.2857143 166.857143,36 165.714286,34.2857143 C165.142857,33.1428571 166.857143,33.7142857 166.857143,33.1428571 C165.142857,31.4285714 165.142857,33.7142857 163.428571,32 L164,32 C162.857143,30.8571429 161.714286,30.2857143 161.142857,30.8571429 C161.142857,28.5714286 157.714286,28.5714286 158.857143,27.4285714 C156,25.7142857 158.857143,28.5714286 157.714286,28.5714286 C156,28.5714286 154.285714,26.2857143 153.714286,25.7142857 C154.285714,26.2857143 155.428571,26.2857143 156,26.8571429 L156,25.7142857 C153.142857,22.8571429 152.571429,26.2857143 149.714286,23.4285714 C152,24 150.857143,22.8571429 152,22.8571429 C151.428571,22.8571429 148.571429,21.1428571 149.714286,22.8571429 C148.571429,22.2857143 147.428571,21.1428571 146.857143,20.5714286 C145.714286,20.5714286 144,20 142.857143,20 C141.142857,18.8571429 140,17.7142857 139.428571,16.5714286 C134.857143,15.4285714 132,12.5714286 126.857143,12 L127.428571,12 C124,10.8571429 128.571429,13.7142857 125.142857,12.5714286 C126.285714,11.4285714 123.428571,10.8571429 122.285714,9.71428571 C118.285714,8 114.285714,8.57142857 110.285714,6.85714286 C110.285714,6.85714286 110.857143,6.28571429 111.428571,6.28571429 C108.571429,5.14285714 105.714286,5.14285714 102.857143,4.57142857 L102.857143,4.57142857 C98.2857143,2.85714286 93.7142857,4 89.1428571,4 L89.7142857,3.42857143 C87.4285714,2.85714286 83.4285714,2.85714286 81.7142857,4 C78.8571429,2.85714286 80,4.57142857 76,3.42857143 L76.5714286,3.42857143 C74.8571429,2.85714286 73.1428571,3.42857143 71.4285714,3.42857143 C67.4285714,4.57142857 66.8571429,6.28571429 61.7142857,6.85714286 C61.1428571,5.14285714 64.5714286,5.71428571 64.5714286,4.57142857 C63.4285714,5.14285714 62.8571429,5.71428571 61.7142857,5.14285714 C62.2857143,4 61.7142857,4.57142857 62.2857143,4 C61.1428571,3.42857143 58.8571429,6.85714286 58.8571429,6.28571429 C58.8571429,6.85714286 59.4285714,6.85714286 60,6.28571429 C58.8571429,7.42857143 55.4285714,7.42857143 53.1428571,8.57142857 C53.7142857,8.57142857 56,8 55.4285714,9.14285714 C52.5714286,9.71428571 52,11.4285714 50.2857143,12.5714286 C47.4285714,12.5714286 52,10.2857143 50.8571429,9.71428571 C50.2857143,9.14285714 49.1428571,8.57142857 49.7142857,8 C46.8571429,8.57142857 45.7142857,9.71428571 43.4285714,10.8571429 L43.4285714,10.2857143 C40.5714286,11.4285714 37.7142857,14.2857143 34.8571429,14.8571429 L36.5714286,14.8571429 C36,15.4285714 34.8571429,16 34.2857143,17.1428571 C34.2857143,16.5714286 32,17.1428571 32.5714286,16 C32,18.2857143 26.8571429,20.5714286 26.2857143,22.8571429 C25.1428571,22.8571429 25.7142857,21.7142857 25.7142857,21.1428571 C27.4285714,20 28.5714286,20 28.5714286,18.8571429 C26.8571429,19.4285714 25.7142857,20 25.7142857,19.4285714 C25.1428571,21.1428571 21.7142857,23.4285714 21.7142857,25.1428571 C20.5714286,25.1428571 19.4285714,25.7142857 18.8571429,24.5714286 C14.8571429,28 22.8571429,25.7142857 18.2857143,29.1428571 C15.4285714,29.7142857 19.4285714,26.8571429 16.5714286,28.5714286 L17.1428571,28 C13.7142857,27.4285714 16.5714286,30.2857143 14.8571429,32.5714286 C13.7142857,32 16,30.2857143 13.7142857,30.8571429 C12,33.1428571 12.5714286,35.4285714 10.2857143,36.5714286 L10.2857143,36 C9.14285714,37.1428571 6.85714286,39.4285714 5.71428571,41.1428571 C5.71428571,41.1428571 5.71428571,41.1428571 5.71428571,40.5714286 C3.42857143,42.8571429 5.14285714,42.2857143 2.85714286,43.4285714 L2.85714286,44.5714286 C4,44 6.28571429,42.2857143 6.85714286,40.5714286 C6.28571429,42.2857143 9.71428571,40 10.2857143,41.1428571 L10.2857143,40.5714286 C14.8571429,38.8571429 18.2857143,35.4285714 22.8571429,33.1428571 C24.5714286,30.2857143 27.4285714,30.2857143 29.7142857,28 C29.1428571,26.2857143 30.2857143,27.4285714 32.5714286,25.7142857 C31.4285714,26.8571429 33.1428571,26.8571429 33.7142857,26.8571429 C33.7142857,26.2857143 34.2857143,25.7142857 35.4285714,25.1428571 C36,25.1428571 40,25.1428571 41.1428571,23.4285714 C42.8571429,23.4285714 41.1428571,24 40.5714286,24.5714286 C41.7142857,25.1428571 41.7142857,23.4285714 42.2857143,23.4285714 L42.2857143,24 C44.5714286,22.8571429 46.2857143,22.8571429 49.1428571,22.2857143 C48.5714286,20.5714286 51.4285714,20.5714286 52.5714286,20 C52.5714286,20.5714286 54.2857143,20 54.8571429,20 L56,18.2857143 C57.1428571,17.1428571 58.2857143,18.2857143 60,17.7142857 L59.4285714,17.7142857 C60.5714286,17.1428571 64.5714286,17.1428571 66.2857143,17.7142857 C78.8571429,13.1428571 86.8571429,17.7142857 100,18.2857143 C101.142857,17.7142857 99.4285714,17.1428571 100,16.5714286 L102.857143,16.5714286 C101.714286,16 101.714286,16.5714286 102.285714,16 L100,16 C100,16 100,16 100,15.4285714 C99.4285714,15.4285714 98.2857143,16 97.7142857,15.4285714 C98.8571429,15.4285714 99.4285714,13.7142857 101.142857,14.8571429 L100.571429,14.8571429 C101.714286,14.8571429 102.285714,14.2857143 102.857143,14.8571429 C104,15.4285714 104,14.8571429 104,15.4285714 L108,16.5714286 C110.285714,15.4285714 112.571429,17.1428571 113.142857,17.7142857 C112.571429,18.8571429 110.285714,17.1428571 109.142857,18.2857143 L110.285714,19.4285714 L110.285714,18.8571429 L112,19.4285714 L112,19.4285714 C112.571429,19.4285714 112.571429,18.8571429 113.142857,19.4285714 L113.142857,20 L114.857143,20 C113.714286,20.5714286 116,20.5714286 115.428571,21.7142857 C120,23.4285714 121.142857,22.2857143 124.571429,24.5714286 C124,24 126.285714,23.4285714 127.428571,24 C128,24.5714286 128,24.5714286 127.428571,25.1428571 L129.142857,25.1428571 C130.285714,27.4285714 132.571429,26.8571429 134.857143,29.1428571 L134.285714,29.7142857 C135.428571,29.7142857 136.571429,29.7142857 138.285714,30.8571429 L137.714286,31.4285714 C139.428571,32.5714286 140,30.2857143 141.714286,32 C142.285714,31.4285714 141.142857,30.2857143 141.714286,29.1428571 C141.714286,30.2857143 143.428571,31.4285714 143.428571,30.8571429 C145.714286,31.4285714 144.571429,31.4285714 144.571429,32 L146.285714,32 C147.428571,32.5714286 146.285714,33.1428571 145.142857,33.7142857 C146.857143,33.7142857 148,35.4285714 149.142857,36 L148.571429,36 L150.285714,37.1428571 C152,37.1428571 153.714286,38.2857143 154.285714,40 L154.285714,40 C154.857143,41.1428571 154.857143,40 155.428571,40 C157.142857,40.5714286 157.142857,41.7142857 157.142857,42.8571429 C160,44.5714286 160,49.1428571 162.857143,49.7142857 L162.857143,49.7142857 Z M18.8571429,97.1428571 L18.8571429,97.1428571 C18.2857143,97.1428571 17.7142857,97.1428571 18.8571429,97.1428571 L18.8571429,97.1428571 Z M29.7142857,111.428571 C28,110.285714 28.5714286,110.285714 28.5714286,109.714286 C29.7142857,111.428571 30.8571429,112 32,113.714286 L32,112.571429 C32.5714286,113.142857 33.1428571,113.714286 32.5714286,114.285714 C31.4285714,115.428571 29.1428571,110.285714 29.7142857,111.428571 L29.7142857,111.428571 Z M9.14285714,87.4285714 L8.57142857,88.5714286 C9.14285714,88 9.71428571,88 9.14285714,87.4285714 L9.14285714,87.4285714 Z M18.2857143,109.714286 C18.2857143,110.285714 19.4285714,111.428571 20,112 C20,111.428571 19.4285714,110.857143 18.2857143,109.714286 L18.2857143,109.714286 Z M153.142857,122.857143 C152.571429,123.428571 152,124.571429 153.142857,124 C153.142857,123.428571 154.857143,123.428571 154.857143,122.285714 L154.857143,122.285714 C153.714286,122.857143 153.142857,122.857143 153.142857,122.857143 L153.142857,122.857143 Z M176.571429,62.8571429 C177.142857,62.8571429 177.714286,63.4285714 178.285714,62.8571429 L178.285714,62.8571429 C178.285714,62.8571429 178.285714,62.2857143 178.857143,62.8571429 L178.857143,61.1428571 C176.571429,61.1428571 176,60 176.571429,62.8571429 L176.571429,62.8571429 Z" fill="#003E52"></path>
                        <path fill="#FFFFFF" d="M182.285714,86.2857143 L182.285714,85.7142857 L182.285714,86.2857143 L182.285714,86.2857143 Z"></path>
                        <path fill="#FFFFFF" d="M178.285714,61.1428571 L178.285714,62.8571429 L178.285714,61.1428571 L178.285714,61.1428571 Z"></path>
                        <path d="M31.4285714,46.8571429 L31.4285714,46.8571429 L32.5714286,46.8571429 C33.7142857,45.1428571 33.7142857,44.5714286 33.7142857,43.4285714 C32.5714286,45.1428571 31.4285714,45.7142857 29.7142857,47.4285714 L31.4285714,46.8571429 L31.4285714,46.8571429 Z" fill="#FFFFFF"></path>
                        <path d="M26.8571429,42.8571429 L25.7142857,42.8571429 L25.7142857,43.4285714 L26.8571429,42.8571429 L26.8571429,42.8571429 Z" fill="#FFFFFF"></path>
                        <path d="M8,64.5714286 L9.14285714,62.2857143 C9.14285714,61.1428571 7.42857143,63.4285714 8,64.5714286 L8,64.5714286 Z" fill="#FFFFFF"></path>
                        <path d="M20.5714286,60 L20.5714286,58.8571429 C19.4285714,59.4285714 18.8571429,60.5714286 19.4285714,61.1428571 C20,59.4285714 20,60.5714286 20.5714286,60 L20.5714286,60 Z" fill="#FFFFFF"></path>
                        <path d="M6.28571429,70.2857143 C6.85714286,71.4285714 5.14285714,72.5714286 6.28571429,73.1428571 C5.71428571,72.5714286 6.85714286,70.8571429 6.28571429,70.2857143 L6.28571429,70.2857143 Z" fill="#FFFFFF"></path>
                        <path d="M16,71.4285714 C17.1428571,70.8571429 16.5714286,69.7142857 17.1428571,69.1428571 C16.5714286,69.7142857 15.4285714,70.8571429 16,71.4285714 L16,71.4285714 Z" fill="#FFFFFF"></path>
                        <path d="M8,83.4285714 C7.42857143,83.4285714 7.42857143,82.2857143 7.42857143,81.1428571 L8,82.2857143 L6.85714286,78.8571429 C6.28571429,80.5714286 6.28571429,82.8571429 5.14285714,82.2857143 C6.28571429,83.4285714 7.42857143,84.5714286 8,83.4285714 L8,83.4285714 Z" fill="#FFFFFF"></path>
                        <path d="M15.4285714,74.2857143 C16,73.1428571 16.5714286,73.1428571 17.1428571,72 C16.5714286,72 16,72 15.4285714,73.7142857 L14.8571429,73.1428571 C13.7142857,73.7142857 16,72.5714286 15.4285714,74.2857143 L15.4285714,74.2857143 Z" fill="#FFFFFF"></path>
                        <path d="M7.42857143,90.2857143 L7.42857143,89.7142857 C6.28571429,88 6.28571429,85.7142857 5.14285714,85.1428571 C5.14285714,86.8571429 6.28571429,89.7142857 7.42857143,90.2857143 L7.42857143,90.2857143 Z" fill="#FFFFFF"></path>
                        <path d="M13.1428571,78.8571429 L14.2857143,78.8571429 C14.8571429,77.7142857 14.2857143,79.4285714 13.1428571,78.8571429 C13.7142857,78.2857143 14.2857143,77.7142857 13.7142857,77.1428571 C14.2857143,79.4285714 13.1428571,77.7142857 13.1428571,78.8571429 L13.1428571,78.8571429 Z" fill="#FFFFFF"></path>
                        <path d="M14.8571429,83.4285714 L15.4285714,85.1428571 L16.5714286,83.4285714 C16,81.7142857 16,84 14.8571429,83.4285714 L14.8571429,83.4285714 Z" fill="#FFFFFF"></path>
                        <path d="M14.2857143,85.7142857 L14.2857143,85.7142857 L16.5714286,88 C15.4285714,86.8571429 15.4285714,86.8571429 14.2857143,85.7142857 L14.2857143,85.7142857 Z" fill="#FFFFFF"></path>
                        <path d="M27.4285714,120 C28,120 26.8571429,118.285714 27.4285714,118.857143 C26.8571429,119.428571 28,121.714286 27.4285714,120 L27.4285714,120 Z" fill="#FFFFFF"></path>
                        <path d="M28.5714286,108.571429 C28.5714286,109.714286 31.4285714,110.857143 32.5714286,111.428571 C31.4285714,110.285714 29.1428571,108 28.5714286,108.571429 L28.5714286,108.571429 Z" fill="#FFFFFF"></path>
                        <path d="M75.4285714,129.142857 C74.8571429,128.571429 73.1428571,128.571429 72.5714286,129.142857 L76.5714286,129.142857 C76,129.142857 75.4285714,128.571429 75.4285714,129.142857 L75.4285714,129.142857 Z" fill="#FFFFFF"></path>
                        <path d="M86.2857143,131.428571 C85.7142857,131.428571 85.1428571,131.428571 85.1428571,132 C85.1428571,132 86.8571429,132 86.2857143,131.428571 L86.2857143,131.428571 Z" fill="#FFFFFF"></path>
                        <path d="M163.428571,119.428571 C164.571429,118.857143 164.571429,118.285714 164,117.714286 C162.857143,118.857143 164,118.285714 163.428571,119.428571 L163.428571,119.428571 Z" fill="#FFFFFF"></path>
                        <path fill="#FFFFFF" d="M164.571429,116.571429 L165.142857,116.571429 L166.285714,116.571429 L164.571429,116.571429 Z"></path>
                        <path d="M170.857143,110.857143 L170.857143,111.428571 C171.428571,110.857143 171.428571,110.285714 170.857143,110.857143 L170.857143,110.857143 Z" fill="#FFFFFF"></path>
                        <path fill="#FFFFFF" d="M170.285714,112 L170.285714,112 L170.285714,112 L170.285714,112 L170.285714,112 Z"></path>
                        <path d="M172.571429,108.571429 L170.857143,109.142857 C170.285714,110.857143 172.571429,108 172.571429,110.285714 L172.571429,108.571429 L172.571429,108.571429 Z" fill="#FFFFFF"></path>
                        <path d="M175.428571,104 C176.571429,102.857143 176,100 177.714286,100 C178.857143,95.4285714 175.428571,100 177.142857,94.8571429 C174.285714,98.8571429 178.285714,98.2857143 175.428571,101.714286 C177.714286,100.571429 176,103.428571 175.428571,104 L175.428571,104 Z" fill="#FFFFFF"></path>
                        <path d="M173.142857,103.428571 C173.714286,104 174.857143,102.285714 174.857143,101.714286 C174.285714,101.714286 173.142857,102.285714 173.142857,103.428571 L173.142857,103.428571 Z" fill="#FFFFFF"></path>
                        <path d="M179.428571,96 L180.571429,94.8571429 L180.571429,94.2857143 L179.428571,96 Z" fill="#FFFFFF"></path>
                        <path d="M181.714286,91.4285714 L181.714286,93.1428571 C182.285714,92.5714286 182.857143,90.8571429 181.714286,91.4285714 L181.714286,91.4285714 Z" fill="#FFFFFF"></path>
                        <path d="M185.142857,84.5714286 C185.714286,83.4285714 184.571429,81.7142857 184,84.5714286 L184,84 C184.571429,84 185.714286,82.8571429 185.142857,84.5714286 L185.142857,84.5714286 Z" fill="#FFFFFF"></path>
                        <path d="M184,66.8571429 C184,68 184,68.5714286 184.571429,68.5714286 C184.571429,68 184.571429,66.8571429 184,66.2857143 L184,66.8571429 L184,66.8571429 Z" fill="#FFFFFF"></path>
                        <path d="M179.428571,68 C178.285714,68.5714286 179.428571,70.2857143 179.428571,71.4285714 L179.428571,68 L179.428571,68 Z" fill="#FFFFFF"></path>
                        <path d="M184.571429,64 C185.142857,64.5714286 185.142857,65.7142857 185.142857,66.2857143 C185.714286,66.2857143 185.714286,64.5714286 184.571429,64 L184.571429,64 Z" fill="#FFFFFF"></path>
                        <path d="M184,60.5714286 C184,59.4285714 184.571429,60.5714286 184.571429,60 C184.571429,58.2857143 184,56.5714286 182.857143,55.4285714 C182.857143,56 181.714286,57.1428571 180.571429,56.5714286 C181.714286,58.8571429 184,60 182.857143,61.7142857 L185.142857,63.4285714 C185.714286,61.1428571 184,61.7142857 184,60.5714286 L184,60.5714286 Z" fill="#FFFFFF"></path>
                        <path d="M181.142857,66.2857143 L181.714286,64.5714286 C181.142857,65.1428571 180.571429,64 180.571429,63.4285714 C178.857143,64 181.142857,65.7142857 181.142857,66.2857143 L181.142857,66.2857143 Z" fill="#FFFFFF"></path>
                        <path d="M177.142857,46.8571429 L175.428571,44.5714286 L176,45.1428571 L177.142857,46.8571429 Z" fill="#FFFFFF"></path>
                        <path d="M176.571429,45.1428571 L177.142857,44.5714286 L174.857143,43.4285714 L176.571429,45.1428571 Z" fill="#FFFFFF"></path>
                        <path d="M174.857143,42.2857143 L175.428571,42.2857143 L176.571429,43.4285714 L174.857143,42.2857143 Z" fill="#FFFFFF"></path>
                        <path d="M171.428571,37.1428571 L171.428571,37.7142857 C172,38.2857143 172.571429,39.4285714 173.142857,38.8571429 C172.571429,38.8571429 171.428571,37.7142857 171.428571,37.1428571 L171.428571,37.1428571 Z" fill="#FFFFFF"></path>
                        <path d="M147.428571,36 C148,36 148,35.4285714 148,34.8571429 L146.857143,35.4285714 C147.428571,35.4285714 147.428571,36 147.428571,36 L147.428571,36 Z" fill="#FFFFFF"></path>
                        <path d="M145.714286,33.1428571 L143.428571,33.1428571 C145.142857,34.2857143 145.714286,33.7142857 147.428571,34.8571429 C146.857143,34.2857143 145.714286,34.2857143 145.142857,33.7142857 L145.714286,33.1428571 L145.714286,33.1428571 Z" fill="#FFFFFF"></path>
                        <path d="M110.857143,18.2857143 C111.428571,17.7142857 110.857143,17.7142857 112,17.7142857 C109.714286,17.7142857 108.571429,17.1428571 106.285714,17.1428571 C106.857143,17.7142857 104.571429,18.2857143 105.714286,18.2857143 L108.571429,18.2857143 L108,18.8571429 C109.714286,19.4285714 109.142857,17.7142857 110.857143,18.2857143 L110.857143,18.2857143 Z" fill="#FFFFFF"></path>
                        <path d="M12,34.2857143 L11.4285714,34.2857143 C10.2857143,35.4285714 12.5714286,34.2857143 12,34.2857143 L12,34.2857143 Z" fill="#FFFFFF"></path>
                    </g>
                    <g id="Shape">
                        <path d="M5.14285714,1.71428571 C4,1.14285714 4.57142857,2.85714286 4.57142857,4 L6.85714286,4 L5.14285714,1.71428571 L5.14285714,1.71428571 Z" fill="#003E52"></path>
                        <path d="M8.57142857,7.42857143 L12,9.14285714 L9.71428571,7.42857143 C9.14285714,4.57142857 11.4285714,6.28571429 12.5714286,7.42857143 C9.71428571,4 9.71428571,7.42857143 8.57142857,7.42857143 L8.57142857,7.42857143 Z" fill="#003E52"></path>
                        <path d="M13.7142857,12.5714286 C14.8571429,14.2857143 15.4285714,13.1428571 15.4285714,12 C14.8571429,12 13.7142857,11.4285714 13.7142857,12.5714286 L13.7142857,12.5714286 Z" fill="#003E52"></path>
                        <path d="M74.8571429,137.142857 L74.8571429,135.428571 C74.8571429,134.857143 74.2857143,134.857143 74.8571429,137.142857 L74.8571429,137.142857 Z" fill="#FFFFFF"></path>
                        <path fill="#FFFFFF" d="M75.4285714,135.428571 L75.4285714,136 L75.4285714,135.428571 L75.4285714,135.428571 Z"></path>
                        <path d="M70.2857143,87.4285714 C68.5714286,85.7142857 68,84 66.8571429,81.7142857 L67.4285714,80 C65.7142857,77.7142857 65.7142857,79.4285714 64,78.2857143 C64,76 60.5714286,71.4285714 60,70.8571429 C60,69.7142857 61.1428571,71.4285714 61.7142857,71.4285714 C60,69.1428571 58.2857143,69.7142857 56.5714286,66.2857143 L57.1428571,66.2857143 C50.8571429,59.4285714 45.1428571,49.1428571 38.8571429,41.1428571 L38.8571429,42.2857143 C32.5714286,33.7142857 26.2857143,22.8571429 18.2857143,18.2857143 C21.7142857,22.8571429 25.1428571,32.5714286 30.2857143,36 C30.2857143,38.2857143 33.7142857,40.5714286 32.5714286,41.7142857 C36,49.1428571 40.5714286,50.8571429 44.5714286,57.7142857 C45.1428571,58.8571429 44,58.8571429 43.4285714,59.4285714 L39.4285714,54.2857143 L40.5714286,57.7142857 C38.8571429,56.5714286 37.7142857,53.1428571 36,53.1428571 C40,57.1428571 43.4285714,65.1428571 47.4285714,68.5714286 C46.8571429,66.2857143 45.1428571,64 44,61.7142857 C44,60.5714286 43.4285714,58.8571429 44,58.2857143 C49.7142857,64 52,70.2857143 56,76.5714286 C57.1428571,78.2857143 58.2857143,80.5714286 57.7142857,81.1428571 C57.1428571,80 56.5714286,81.1428571 56,80.5714286 C57.7142857,82.8571429 58.2857143,79.4285714 60,83.4285714 L57.7142857,84 C61.1428571,84 59.4285714,88.5714286 62.2857143,90.2857143 C61.7142857,91.4285714 60.5714286,90.2857143 59.4285714,88 C60,90.2857143 61.7142857,89.7142857 62.2857143,92 L59.4285714,91.4285714 C62.2857143,92.5714286 60.5714286,94.8571429 60.5714286,96.5714286 C61.1428571,96.5714286 62.2857143,94.8571429 63.4285714,97.1428571 C63.4285714,98.2857143 62.8571429,98.2857143 62.8571429,98.2857143 C63.4285714,98.2857143 64.5714286,98.8571429 65.7142857,100 C65.1428571,100.571429 64,99.4285714 63.4285714,99.4285714 C64,100.571429 64.5714286,101.714286 64.5714286,102.857143 C66.2857143,104.571429 65.7142857,102.285714 66.8571429,103.428571 C68,106.857143 64.5714286,104.571429 64,106.857143 C61.7142857,105.142857 60,101.714286 58.8571429,100.571429 L61.7142857,105.142857 C60.5714286,105.142857 61.7142857,109.142857 60,106.857143 C61.7142857,112 64.5714286,117.142857 67.4285714,121.142857 C67.4285714,120.571429 67.4285714,119.428571 68,119.428571 C69.7142857,121.714286 68.5714286,121.714286 68,122.285714 C69.1428571,124 70.8571429,122.857143 72,123.428571 C72.5714286,127.428571 73.1428571,128 73.1428571,131.428571 L74.2857143,130.857143 C74.2857143,133.714286 76,133.142857 76.5714286,135.428571 C76.5714286,135.428571 75.4285714,134.857143 74.8571429,134.285714 C76,136 74.2857143,136.571429 76,138.285714 L74.2857143,138.857143 C74.8571429,140.571429 76.5714286,142.857143 74.8571429,142.285714 C77.7142857,144.571429 78.8571429,149.714286 81.1428571,153.142857 L80,153.142857 C82.2857143,154.285714 82.2857143,160 84.5714286,161.142857 L84,161.714286 L86.8571429,164.571429 C87.4285714,166.285714 85.1428571,166.285714 85.7142857,166.285714 C86.2857143,168 87.4285714,169.714286 88,171.428571 L88.5714286,173.714286 L88.5714286,174.285714 L88.5714286,174.285714 L88.5714286,174.285714 L88.5714286,174.285714 L88.5714286,174.285714 L88.5714286,174.285714 C80.5714286,173.142857 100,176 97.7142857,176 L97.7142857,176 L97.7142857,176 L97.7142857,176 L98.2857143,175.428571 C97.1428571,173.714286 99.4285714,169.714286 100.571429,166.857143 C109.142857,152 110.285714,134.857143 113.714286,120.571429 C114.285714,118.285714 113.714286,114.857143 114.285714,112 C112.571429,114.857143 113.142857,115.428571 112,118.857143 C110.857143,121.142857 108.571429,121.142857 106.857143,122.857143 L108.571429,122.285714 C108.571429,125.714286 106.857143,124.571429 107.428571,127.428571 L105.142857,126.857143 C106.285714,128 104.571429,130.285714 103.428571,130.857143 L104.571429,132 C102.857143,133.714286 102.285714,134.857143 100.571429,135.428571 L102.285714,135.428571 C101.142857,136 100,143.428571 98.2857143,140 C98.2857143,140.571429 98.8571429,141.714286 98.2857143,142.857143 L96.5714286,142.857143 C96.5714286,144.571429 96,146.857143 94.8571429,146.857143 C94.8571429,145.714286 94.2857143,145.142857 93.7142857,144.571429 C91.4285714,152 97.7142857,147.428571 96,154.285714 L94.8571429,153.714286 L95.4285714,156 L93.7142857,157.142857 C96,160.571429 89.7142857,165.714286 88.5714286,169.714286 L88.5714286,169.714286 L88.5714286,169.714286 L88.5714286,169.714286 L88.5714286,169.714286 L88.5714286,169.714286 L88.5714286,169.714286 L88.5714286,169.714286 C105.714286,172.571429 93.1428571,170.285714 97.1428571,170.857143 L97.1428571,170.857143 L97.1428571,170.857143 L97.1428571,170.285714 L97.1428571,168.571429 C97.1428571,167.428571 97.1428571,165.714286 96.5714286,164 L95.4285714,164.571429 C96,161.714286 93.7142857,152 96,148 C94.2857143,146.285714 96,148.571429 94.8571429,148.571429 C92,144.571429 93.7142857,143.428571 93.7142857,140.571429 C92,137.714286 94.2857143,142.857143 92.5714286,141.714286 C92,137.142857 89.7142857,138.857143 88,133.142857 C88.5714286,132.571429 89.1428571,134.285714 89.7142857,134.857143 C86.8571429,131.428571 85.1428571,124 82.2857143,118.857143 C80.5714286,112 76.5714286,102.285714 74.2857143,94.8571429 L73.7142857,94.8571429 C73.7142857,91.4285714 70.8571429,88.5714286 69.7142857,84.5714286 L70.2857143,87.4285714 L70.2857143,87.4285714 Z" fill="#003E52"></path>
                        <path d="M34.8571429,52.5714286 L34.2857143,53.7142857 L37.1428571,56.5714286 C37.1428571,54.8571429 36,54.2857143 34.8571429,52.5714286 L34.8571429,52.5714286 Z" fill="#003E52"></path>
                        <path d="M38.8571429,51.4285714 L37.1428571,49.7142857 L38.8571429,52.5714286 L38.8571429,51.4285714 Z" fill="#003E52"></path>
                        <path d="M59.4285714,92.5714286 L59.4285714,92 L54.8571429,86.2857143 L59.4285714,92.5714286 Z" fill="#FFFFFF"></path>
                        <path d="M73.7142857,137.142857 C72.5714286,136.571429 72.5714286,135.428571 72,134.857143 L73.7142857,137.142857 L73.7142857,137.142857 L73.7142857,137.142857 Z" fill="#FFFFFF"></path>
                        <path d="M80,168 C82.2857143,168.571429 80.5714286,170.285714 82.2857143,168 C81.1428571,166.285714 80.5714286,168 80,168 L80,168 Z" fill="#FFFFFF"></path>
                        <path d="M85.1428571,173.714286 C84.5714286,172.571429 84.5714286,172 84,172 C83.4285714,173.142857 84.5714286,173.142857 85.1428571,173.714286 L85.1428571,173.714286 Z" fill="#FFFFFF"></path>
                    </g>
                </g>
            </g>
        </g>
    </g>
</svg>