<svg xmlns="http://www.w3.org/2000/svg" width="82" height="142" viewBox="0 0 82 142">
  <g fill="none" fill-rule="evenodd">
    <path stroke="#F44975" stroke-width="2" d="M41.5625,40.734375 L41.5625,0.734375"/>
    <path fill="#F44975" fill-rule="nonzero" d="M37.1703071,98.312681 L37.1703071,102.636947 L40.9065786,104.799178 L44.6426548,102.636947 L44.6426548,98.312681 L40.9065786,96.1504501 L37.1703071,98.312681 Z M40.9065395,42 C35.8488967,42 31.4511586,45.1389432 29.6243157,49.6172211 L52.1889586,49.6172211 C50.3619205,45.1389432 45.9641824,42 40.9065395,42 L40.9065395,42 Z M56.7778152,60.9647945 L56.7778152,53.531135 C56.7778152,52.4503131 55.903539,51.5741879 54.8254343,51.5741879 L26.987801,51.5741879 C25.909501,51.5741879 25.03542,52.4503131 25.03542,53.531135 L25.03542,60.9647945 C30.0831057,58.945225 35.4175962,57.9197847 40.90652,57.9197847 C46.3954438,57.9197847 51.7299343,58.945225 56.7778152,60.9647945 L56.7778152,60.9647945 Z M64.914519,92.4435616 C65.9514286,92.7404305 66.5517857,93.8234051 66.2556095,94.862544 C66.010781,95.7222309 65.2288524,96.2827006 64.3793714,96.2827006 C64.2019,96.2827006 64.0215,96.2582387 63.8422714,96.206771 L55.9087714,93.9357339 L48.5475143,98.2570646 L48.5475143,102.692485 L55.9087714,107.013816 L63.8422714,104.742779 C64.8780095,104.444931 65.9594333,105.04728 66.2556095,106.087006 C66.5517857,107.126145 65.9514286,108.209315 64.914519,108.505988 L60.5694952,109.750215 L65.427019,112.601683 C66.3575238,113.147867 66.6699048,114.346693 66.1249952,115.279178 C65.7618524,115.901096 65.1089762,116.247671 64.4385286,116.247671 C64.1033048,116.247671 63.7635905,116.160978 63.4537476,115.978982 L58.5960286,113.127123 L59.6389905,117.534364 C59.8881143,118.586027 59.2393381,119.640822 58.1903238,119.890137 C58.0386238,119.926341 57.887119,119.943366 57.7377619,119.943366 C56.853919,119.943366 56.0528571,119.337691 55.8400476,118.437887 L53.9355,110.391116 L46.5474952,106.054129 L42.8588619,108.188571 L42.8588619,116.754912 L48.823581,122.469002 C49.6031667,123.215773 49.6310857,124.454521 48.8860571,125.235734 C48.5024143,125.638082 47.9889381,125.840626 47.4744857,125.840626 C46.989319,125.840626 46.5039571,125.660783 46.125781,125.298552 L42.8588619,122.169002 L42.8588619,127.811468 C42.8588619,128.89229 41.984781,129.768415 40.906481,129.768415 C39.8283762,129.768415 38.9541,128.89229 38.9541,127.811468 L38.9541,122.169002 L35.6873762,125.298552 C34.9077905,126.045323 33.6721286,126.017339 32.9269048,125.235734 C32.1820714,124.454521 32.2097952,123.215773 32.989381,122.469002 L38.9541,116.754912 L38.9541,108.188571 L35.2658571,106.054129 L27.8776571,110.391116 L25.9731095,118.437887 C25.7603,119.337495 24.9592381,119.943366 24.0752,119.943366 C23.9260381,119.943366 23.7743381,119.926341 23.6228333,119.890137 C22.573819,119.640822 21.9250429,118.586027 22.1739714,117.534364 L23.2171286,113.127123 L18.3594095,115.978982 C18.0493714,116.160978 17.7096571,116.247671 17.3746286,116.247671 C16.7039857,116.247671 16.0515,115.901096 15.6879667,115.279178 C15.1430571,114.346693 15.4556333,113.147867 16.3859429,112.601683 L21.2434667,109.750215 L16.8984429,108.505988 C15.8617286,108.209315 15.2613714,107.126145 15.5573524,106.087006 C15.8533333,105.047671 16.9339762,104.445323 17.9708857,104.742779 L25.9041905,107.013816 L33.2656429,102.692485 L33.2656429,98.2570646 L25.9043857,93.9357339 L17.9708857,96.206771 C17.7916571,96.2582387 17.6112571,96.2827006 17.4337857,96.2827006 C16.5839143,96.2827006 15.802181,95.7222309 15.5573524,94.862544 C15.2613714,93.8234051 15.8617286,92.7404305 16.8984429,92.4435616 L21.2434667,91.199726 L16.3859429,88.3480626 C15.4556333,87.8018787 15.1430571,86.6030528 15.6879667,85.6705675 C16.232681,84.7380822 17.4287095,84.4243836 18.3594095,84.9707632 L23.2171286,87.8224266 L22.1739714,83.4151859 C21.9250429,82.3635225 22.573819,81.3089237 23.6228333,81.0594129 C24.6716524,80.8100978 25.724181,81.46 25.9731095,82.5116634 L27.8776571,90.5584344 L35.2658571,94.8954207 L38.9541,92.7609785 L38.9541,84.194638 L32.989381,78.4805479 C32.2097952,77.7337769 32.1820714,76.4950294 32.9269048,75.713816 C33.6723238,74.9322114 34.9077905,74.9044227 35.6873762,75.650998 L38.9541,78.7807436 L38.9541,73.1380822 C38.9541,72.0572603 39.8283762,71.181135 40.906481,71.181135 C41.984781,71.181135 42.8588619,72.0572603 42.8588619,73.1380822 L42.8588619,78.7807436 L46.125781,75.650998 C46.9053667,74.9044227 48.1410286,74.932407 48.8860571,75.713816 C49.6310857,76.4950294 49.6031667,77.7337769 48.823581,78.4805479 L42.8588619,84.194638 L42.8588619,92.7609785 L46.5474952,94.8956164 L53.9355,90.5584344 L55.8400476,82.5116634 C56.088781,81.46 57.1415048,80.8100978 58.1903238,81.0594129 C59.2393381,81.3089237 59.8881143,82.3635225 59.6389905,83.4151859 L58.5960286,87.8226223 L63.4537476,84.9707632 C64.3840571,84.4241879 65.5798905,84.7378865 66.1249952,85.6705675 C66.6699048,86.6030528 66.3575238,87.8018787 65.427019,88.3480626 L60.5694952,91.199726 L64.914519,92.4435616 Z M40.906481,59.8770254 C18.3506238,59.8770254 0,78.2703718 0,100.879178 C0,123.48818 18.3506238,141.881526 40.906481,141.881526 C63.4625333,141.881526 81.8133524,123.48818 81.8133524,100.879178 C81.8133524,78.2703718 63.4625333,59.8770254 40.906481,59.8770254 L40.906481,59.8770254 Z"/>
  </g>
</svg>
