<svg xmlns="http://www.w3.org/2000/svg" width="82" height="142" viewBox="0 0 82 142">
  <g fill="none" fill-rule="evenodd">
    <path stroke="#4AD5CC" stroke-width="2" d="M41.5625,40.734375 L41.5625,0.734375"/>
    <path fill="#4AD5CC" fill-rule="nonzero" d="M13.5561814,89.1744618 C15.0989529,89.1744618 16.3543338,90.4327789 16.3543338,91.9793542 C16.3543338,93.5259295 15.0989529,94.7842466 13.5561814,94.7842466 C12.0132148,94.7842466 10.7578338,93.5259295 10.7578338,91.9793542 C10.7578338,90.4327789 12.0132148,89.1744618 13.5561814,89.1744618 M40.906891,89.1744618 C42.4498576,89.1744618 43.7052386,90.4327789 43.7052386,91.9793542 C43.7052386,93.5259295 42.4498576,94.7842466 40.906891,94.7842466 C39.3639243,94.7842466 38.1085433,93.5259295 38.1085433,91.9793542 C38.1085433,90.4327789 39.3639243,89.1744618 40.906891,89.1744618 M68.2576005,89.1744618 C69.8005671,89.1744618 71.0559481,90.4327789 71.0559481,91.9793542 C71.0559481,93.5259295 69.8005671,94.7842466 68.2576005,94.7842466 C66.7146338,94.7842466 65.4594481,93.5259295 65.4594481,91.9793542 C65.4594481,90.4327789 66.7146338,89.1744618 68.2576005,89.1744618 M8.5051767,99.8948141 C10.2685671,102.9318 11.4597148,104.793053 13.6352529,104.793053 C15.810791,104.793053 17.0019386,102.9318 18.765329,99.8948141 C20.5353576,96.8458904 22.7384243,93.0513699 27.2699005,93.0513699 C31.8013767,93.0513699 34.0046386,96.8458904 35.7750576,99.8948141 C37.5384481,102.9318 38.7295957,104.793053 40.905329,104.793053 C43.0810624,104.793053 44.27221,102.9318 46.0356005,99.8948141 C47.8060195,96.8458904 50.0092814,93.0513699 54.5409529,93.0513699 C59.0726243,93.0513699 61.2758862,96.8458904 63.0463052,99.8946184 C64.8100862,102.931605 66.0012338,104.793053 68.1773576,104.793053 C70.353091,104.793053 71.544629,102.9318 73.3080195,99.8948141 C74.9786719,97.0179061 77.0357005,93.4787671 81.06971,93.0883562 C77.4283243,74.1928571 60.8057529,59.8768102 40.906891,59.8768102 C21.0082243,59.8768102 4.3852624,74.1928571 0.7440719,93.0883562 C4.7778862,93.4787671 6.8347195,97.0179061 8.5051767,99.8948141 M40.9068714,42 C35.8492286,42 31.4514905,45.1387476 29.6246476,49.6170254 L52.1892905,49.6170254 C50.3622524,45.1387476 45.9645143,42 40.9068714,42 M56.7781667,60.9646967 L56.7781667,53.5310372 C56.7781667,52.4502153 55.9038905,51.57409 54.8257857,51.57409 L26.9881524,51.57409 C25.9098524,51.57409 25.0357714,52.4502153 25.0357714,53.5310372 L25.0357714,60.9646967 C30.0834571,58.9451272 35.4179476,57.9198826 40.9068714,57.9198826 C46.3957952,57.9198826 51.7302857,58.9451272 56.7781667,60.9646967 M55.3050952,112.862407 C53.7621286,112.862407 52.5067476,111.60409 52.5067476,110.057515 C52.5067476,108.511135 53.7621286,107.252818 55.3050952,107.252818 C56.8478667,107.252818 58.1032476,108.511135 58.1032476,110.057515 C58.1032476,111.60409 56.8478667,112.862407 55.3050952,112.862407 M26.7827619,112.862407 C25.2399905,112.862407 23.9846095,111.60409 23.9846095,110.057515 C23.9846095,108.511135 25.2399905,107.252818 26.7827619,107.252818 C28.3257286,107.252818 29.5811095,108.511135 29.5811095,110.057515 C29.5811095,111.60409 28.3257286,112.862407 26.7827619,112.862407 M76.6826905,101.863581 C74.9122714,104.912505 72.7090095,108.707025 68.1773381,108.707025 C63.6454714,108.707025 61.4422095,104.912309 59.6715952,101.863581 C57.9082048,98.8265949 56.7166667,96.9653425 54.5409333,96.9653425 C52.3650048,96.9653425 51.1738571,98.8265949 49.4104667,101.863581 C47.6400476,104.912505 45.4367857,108.707025 40.9053095,108.707025 C36.3738333,108.707025 34.1705714,104.912505 32.4003476,101.863581 C30.6367619,98.8265949 29.4456143,96.9653425 27.269881,96.9653425 C25.0945381,96.9653425 23.9031952,98.8265949 22.14,101.863386 C20.3697762,104.912309 18.1665143,108.707025 13.6352333,108.707025 C9.1037571,108.707025 6.9006905,104.912505 5.1304667,101.863581 C3.4188143,98.9158317 2.243481,97.080998 0.18684286,96.9753229 C0.06501429,98.2608415 0,99.562407 0,100.879237 C0,123.487847 18.3510143,141.881585 40.9068714,141.881585 C63.4627286,141.881585 81.8135476,123.487847 81.8135476,100.879237 C81.8135476,99.562407 81.7487286,98.2608415 81.6270952,96.9753229 C79.5698714,97.080998 78.3945381,98.9158317 76.6826905,101.863581"/>
  </g>
</svg>
