<svg xmlns="http://www.w3.org/2000/svg" width="49" height="38" viewBox="0 0 49 38">
  <g fill="#FFF">
    <path d="M17.9,6.8 C14.2,2.2 7.4,-0.4 1.7,0.5 C5.4,5.5 11.7,7.9 17.9,6.8 Z"/>
    <path d="M18.6 8.8C17.4 9 16.2 9.2 15 9.2 10.4 9.2 6 7.5 2.6 4.6 3.9 11 1.9 15.8.4 18.3-.1 19.1-.1 20.1.3 20.9.7 21.7 1.4 22.3 2.3 22.4 6.8 23.1 14.6 19.8 18.7 17.9L18.7 8.8 18.6 8.8zM46.3.5C40.6-.4 33.8 2.2 30.1 6.8 36.3 7.9 42.6 5.5 46.3.5z"/>
    <rect width="6.6" height="8" x="20.7" y="8.6"/>
    <path d="M8.2 24L3.7 33.9 9.4 32.5 12.1 37.7 20.4 19.4C17.7 20.7 12.8 22.9 8.2 24zM36 37.7L38.7 32.5 44.4 33.9 39.8 24C35.2 22.9 30.3 20.7 27.7 19.4L36 37.7zM45.4 4.6C42 7.6 37.6 9.2 33 9.2 31.8 9.2 30.6 9.1 29.4 8.8L29.4 17.9C33.4 19.8 41.3 23.1 45.8 22.4 46.7 22.3 47.4 21.7 47.8 20.9 48.2 20.1 48.1 19.1 47.7 18.3 46.1 15.7 44.1 10.9 45.4 4.6z"/>
  </g>
</svg>
