<svg xmlns="http://www.w3.org/2000/svg" width="142" height="142" viewBox="0 0 142 142">
  <g fill="none" transform="translate(3 3)">
    <path stroke="#333B54" stroke-width="5" d="M68,136 C105.55725,136 136,105.55725 136,68 C136,30.44275 105.55725,0 68,0 C30.44275,0 0,30.44275 0,68 C0,105.55725 30.44275,136 68,136 Z"/>
    <g fill="#505D83" stroke="#505D83" stroke-width=".5" transform="translate(36 28)">
      <path d="M5.06030714,79.3821429 L56.9359286,79.3821429 C59.6537429,79.3821429 61.8746714,77.15745 61.8746714,74.4434 L61.8746714,5.27088571 C61.8746714,2.55307143 59.6499786,0.332142857 56.9359286,0.332142857 L5.06030714,0.332142857 C2.34249286,0.332142857 0.121564286,2.55683571 0.121564286,5.27088571 L0.121564286,74.4396357 C0.121564286,77.15745 2.34625714,79.3821429 5.06030714,79.3821429 Z M3.88585,5.27088571 C3.88585,4.63472143 4.42414286,4.09642857 5.06030714,4.09642857 L56.9359286,4.09642857 C57.5720929,4.09642857 58.1103857,4.63472143 58.1103857,5.27088571 L58.1103857,74.4396357 C58.1103857,75.0758 57.5720929,75.6140929 56.9359286,75.6140929 L5.06030714,75.6140929 C4.42414286,75.6140929 3.88585,75.0758 3.88585,74.4396357 L3.88585,5.27088571 Z"/>
      <rect width="37.018" height="3.764" x="12.491" y="62.782"/>
      <rect width="37.018" height="3.764" x="12.491" y="51.56"/>
      <path d="M17.4636286 28.9218929L19.0935643 28.9218929C20.22285 28.9218929 21.0886357 28.8616643 21.6833929 28.7449714 22.1238143 28.6508643 22.5529429 28.4513571 22.9783071 28.1577429 23.4036714 27.8641286 23.75375 27.4538214 24.0285429 26.9381143 24.3033357 26.4224071 24.4426143 25.7787143 24.4426143 25.0220929 24.4426143 24.03585 24.2054643 23.2302929 23.7274 22.6091857 23.2493357 21.9843143 22.6545786 21.5853 21.9468929 21.3970857 21.4838857 21.2728643 20.4938786 21.2126357 18.9731071 21.2126357L14.9641429 21.2126357 14.9641429 33.5896071 17.4636286 33.5896071 17.4636286 28.9218929zM17.4636286 23.3093429L18.6719643 23.3093429C19.5716286 23.3093429 20.17015 23.3356929 20.4712929 23.3883929 20.8740714 23.4636786 21.2090929 23.6443643 21.4763571 23.9379786 21.7436214 24.2315929 21.8716071 24.6004929 21.8716071 25.0522071 21.8716071 25.4173429 21.7775 25.7410714 21.5892857 26.0121 21.4010714 26.2906571 21.1413357 26.4939286 20.8063143 26.6219143 20.4750571 26.7499 19.8163071 26.8176571 18.8300643 26.8176571L17.4636286 26.8176571 17.4636286 23.3093429zM33.4053786 33.3298714C34.1431786 33.0927214 34.7304071 32.7652286 35.1595357 32.3398643 35.7317071 31.78275 36.1758929 31.0524786 36.4883286 30.1528143 36.7405357 29.4187786 36.8685214 28.5379357 36.8685214 27.5215786 36.8685214 26.3584143 36.7330071 25.3872286 36.4657429 24.5967286 36.1947143 23.8024643 35.7994643 23.1324214 35.2837571 22.5903643 34.76805 22.0445429 34.1469429 21.66435 33.4204357 21.4497857 32.8783786 21.2916857 32.0954071 21.2164 31.0639929 21.2164L26.4979143 21.2164 26.4979143 33.5933714 31.2032714 33.5933714C32.1179929 33.5896071 32.8557929 33.5030286 33.4053786 33.3298714zM28.9898714 31.5041929L28.9898714 23.3055786 30.1116286 23.3055786C31.13175 23.3055786 31.8130857 23.3432214 32.1631643 23.4222714 32.6299357 23.5201429 33.0176571 23.7158857 33.3188 24.0019714 33.6237071 24.2880571 33.8608571 24.6908357 34.0264857 25.1990143 34.1958786 25.7147214 34.2786929 26.4449929 34.2786929 27.4048857 34.2786929 28.3610143 34.1958786 29.1176357 34.0264857 29.6709857 33.8570929 30.2243357 33.6387643 30.6271143 33.3715 30.8642643 33.1042357 31.1051786 32.7692143 31.2783357 32.3626714 31.3837357 32.054 31.4627857 31.5495857 31.5004286 30.8531929 31.5004286L28.9898714 31.5004286 28.9898714 31.5041929z"/>
      <polygon points="41.502 28.331 46.671 28.331 46.671 26.234 41.502 26.234 41.502 23.309 47.488 23.309 47.488 21.213 39.003 21.213 39.003 33.59 41.502 33.59"/>
    </g>
  </g>
</svg>
