<svg xmlns="http://www.w3.org/2000/svg" viewBox="0 0 50 65">
  <g fill="#2C8EE6" fill-rule="evenodd">
    <path d="M49.6202532,10.7088608 C49.6329114,10.6835443 49.6582278,10.6582278 49.6708861,10.6329114 C49.6835443,10.6202532 49.6835443,10.6075949 49.6962025,10.5949367 C49.7088608,10.5696203 49.721519,10.5443038 49.7341772,10.5189873 C49.7468354,10.5063291 49.7468354,10.4936709 49.7594937,10.4810127 C49.7721519,10.4556962 49.7848101,10.4303797 49.7974684,10.3924051 C49.7974684,10.3797468 49.8101266,10.3670886 49.8101266,10.3544304 C49.8227848,10.3291139 49.8227848,10.2911392 49.835443,10.2658228 C49.835443,10.2531646 49.8481013,10.2405063 49.8481013,10.2278481 C49.8607595,10.1898734 49.8607595,10.164557 49.8607595,10.1265823 C49.8607595,10.1139241 49.8607595,10.1012658 49.8607595,10.0886076 C49.8607595,10.0379747 49.8734177,10 49.8734177,9.94936709 C49.8734177,9.94936709 49.8734177,9.94936709 49.8734177,9.94936709 C49.8734177,9.94936709 49.8734177,9.94936709 49.8734177,9.94936709 C49.8734177,9.94936709 49.8734177,9.94936709 49.8734177,9.94936709 C49.8734177,9.89873418 49.8734177,9.86075949 49.8607595,9.81012658 C49.8607595,9.79746835 49.8607595,9.78481013 49.8607595,9.7721519 C49.8607595,9.73417722 49.8481013,9.70886076 49.8481013,9.67088608 C49.8481013,9.65822785 49.8481013,9.64556962 49.835443,9.63291139 C49.8227848,9.59493671 49.8227848,9.56962025 49.8101266,9.5443038 C49.8101266,9.53164557 49.7974684,9.51898734 49.7974684,9.50632911 C49.7848101,9.48101266 49.7721519,9.44303797 49.7594937,9.41772152 C49.7594937,9.40506329 49.7468354,9.39240506 49.7341772,9.37974684 C49.721519,9.35443038 49.7088608,9.32911392 49.6962025,9.30379747 C49.6835443,9.29113924 49.6835443,9.27848101 49.6708861,9.26582278 C49.6582278,9.24050633 49.6329114,9.21518987 49.6202532,9.18987342 C49.6075949,9.17721519 49.6075949,9.16455696 49.5949367,9.15189873 C49.5696203,9.12658228 49.556962,9.10126582 49.5316456,9.07594937 C49.5189873,9.06329114 49.5189873,9.06329114 49.5063291,9.05063291 C49.4810127,9.02531646 49.443038,8.98734177 49.4050633,8.96202532 C49.4050633,8.96202532 49.4050633,8.96202532 49.4050633,8.96202532 L45.2025316,5.55696203 C44.6582278,5.11392405 43.8607595,5.20253165 43.4177215,5.74683544 C42.9746835,6.29113924 43.0632911,7.08860759 43.6075949,7.53164557 L45.0379747,8.69620253 L35.9493671,8.69620253 C35.4050633,6.36708861 34.1392405,4.29113924 32.2911392,2.70886076 C30,0.746835443 27.0759494,-0.202531646 24.0632911,0.0379746835 C21.0506329,0.278481013 18.3164557,1.67088608 16.3670886,3.96202532 C15.2025316,5.32911392 14.3797468,6.96202532 13.9746835,8.6835443 L4.83544304,8.6835443 L6.26582278,7.51898734 C6.81012658,7.07594937 6.88607595,6.27848101 6.4556962,5.73417722 C6.01265823,5.18987342 5.21518987,5.11392405 4.67088608,5.5443038 L0.46835443,8.97468354 C0.46835443,8.97468354 0.46835443,8.97468354 0.46835443,8.97468354 C0.430379747,9 0.405063291,9.03797468 0.367088608,9.06329114 C0.35443038,9.07594937 0.35443038,9.07594937 0.341772152,9.08860759 C0.316455696,9.11392405 0.291139241,9.13924051 0.278481013,9.16455696 C0.265822785,9.17721519 0.265822785,9.18987342 0.253164557,9.20253165 C0.240506329,9.2278481 0.215189873,9.25316456 0.202531646,9.27848101 C0.189873418,9.29113924 0.189873418,9.30379747 0.17721519,9.3164557 C0.164556962,9.34177215 0.151898734,9.36708861 0.139240506,9.39240506 C0.126582278,9.40506329 0.126582278,9.41772152 0.126582278,9.43037975 C0.113924051,9.4556962 0.101265823,9.49367089 0.0886075949,9.51898734 C0.0886075949,9.53164557 0.0759493671,9.5443038 0.0759493671,9.55696203 C0.0632911392,9.58227848 0.0632911392,9.62025316 0.0506329114,9.64556962 C0.0506329114,9.65822785 0.0379746835,9.67088608 0.0379746835,9.6835443 C0.0253164557,9.72151899 0.0253164557,9.74683544 0.0253164557,9.78481013 C0.0253164557,9.79746835 0.0253164557,9.81012658 0.0253164557,9.82278481 C0.0253164557,9.87341772 0.0126582278,9.91139241 0.0126582278,9.96202532 C0.0126582278,9.96202532 0.0126582278,9.96202532 0.0126582278,9.96202532 C0.0126582278,9.96202532 0.0126582278,9.96202532 0.0126582278,9.96202532 C0.0126582278,9.96202532 0.0126582278,9.96202532 0.0126582278,9.96202532 C0.0126582278,10.0126582 0.0126582278,10.0506329 0.0253164557,10.1012658 C0.0253164557,10.1139241 0.0253164557,10.1265823 0.0253164557,10.1392405 C0.0253164557,10.1772152 0.0379746835,10.2025316 0.0379746835,10.2405063 C0.0379746835,10.2531646 0.0379746835,10.2658228 0.0506329114,10.278481 C0.0632911392,10.3164557 0.0632911392,10.3417722 0.0759493671,10.3670886 C0.0759493671,10.3797468 0.0886075949,10.3924051 0.0886075949,10.4050633 C0.101265823,10.4303797 0.113924051,10.4683544 0.126582278,10.4936709 C0.126582278,10.5063291 0.139240506,10.5189873 0.139240506,10.5316456 C0.151898734,10.556962 0.164556962,10.5822785 0.17721519,10.6075949 C0.189873418,10.6202532 0.189873418,10.6329114 0.202531646,10.6455696 C0.215189873,10.6708861 0.240506329,10.6962025 0.253164557,10.721519 C0.265822785,10.7341772 0.265822785,10.7468354 0.278481013,10.7594937 C0.303797468,10.7848101 0.316455696,10.8101266 0.341772152,10.835443 C0.35443038,10.8481013 0.35443038,10.8481013 0.367088608,10.8607595 C0.392405063,10.8860759 0.430379747,10.9240506 0.46835443,10.9493671 C0.46835443,10.9493671 0.46835443,10.9493671 0.46835443,10.9493671 L4.67088608,14.3544304 C4.91139241,14.5443038 5.18987342,14.6329114 5.46835443,14.6329114 C5.83544304,14.6329114 6.20253165,14.4683544 6.4556962,14.164557 C6.89873418,13.6202532 6.81012658,12.8227848 6.26582278,12.3797468 L4.83544304,11.2151899 L13.6708861,11.2151899 C13.6708861,11.2405063 13.6708861,11.2658228 13.6708861,11.2911392 C13.6708861,13.9746835 14.6329114,16.5822785 16.3797468,18.6202532 C16.835443,19.1518987 17.6329114,19.2151899 18.164557,18.7594937 C18.6962025,18.3037975 18.7594937,17.5063291 18.3037975,16.9746835 C16.6708861,15.0632911 15.9873418,12.6582278 16.2531646,10.3291139 C16.2911392,10.2025316 16.3164557,10.0759494 16.3164557,9.94936709 C16.3164557,9.93670886 16.3164557,9.92405063 16.3164557,9.89873418 C16.5696203,8.35443038 17.2278481,6.86075949 18.3164557,5.59493671 C19.835443,3.81012658 21.9620253,2.73417722 24.2911392,2.5443038 C26.6202532,2.35443038 28.8860759,3.08860759 30.6708861,4.62025316 C32.2405063,5.96202532 33.2658228,7.75949367 33.6075949,9.7721519 C33.5949367,9.83544304 33.5949367,9.88607595 33.5949367,9.94936709 C33.5949367,10.1265823 33.6329114,10.3037975 33.6962025,10.4556962 C33.6962025,10.5063291 33.7088608,10.556962 33.7088608,10.6075949 C33.8987342,12.9367089 33.164557,15.2025316 31.6329114,16.9873418 C31.1772152,17.5189873 31.2405063,18.3164557 31.7721519,18.7721519 C32.0126582,18.9746835 32.3037975,19.0759494 32.5949367,19.0759494 C32.9493671,19.0759494 33.3037975,18.9240506 33.556962,18.6329114 C35.3417722,16.5443038 36.278481,13.9493671 36.2531646,11.2278481 L45.0379747,11.2278481 L43.6075949,12.3924051 C43.0632911,12.835443 42.9873418,13.6329114 43.4177215,14.1772152 C43.6708861,14.4810127 44.0379747,14.6455696 44.4050633,14.6455696 C44.6835443,14.6455696 44.9620253,14.556962 45.2025316,14.3670886 L49.4050633,10.9620253 C49.4050633,10.9620253 49.4050633,10.9620253 49.4050633,10.9620253 C49.443038,10.9367089 49.4683544,10.8987342 49.5063291,10.8734177 C49.5189873,10.8607595 49.5189873,10.8607595 49.5316456,10.8481013 C49.556962,10.8227848 49.5696203,10.7974684 49.5949367,10.7721519 C49.5949367,10.7341772 49.6075949,10.721519 49.6202532,10.7088608 Z"/>
    <path d="M45.7848101,56.0759494 C45.8101266,56.0126582 48.5189873,48.9620253 48.5443038,46.3037975 L48.5443038,35.3797468 C48.5443038,33.6202532 47.1139241,32.1898734 45.3544304,32.1898734 L45.3417722,32.1898734 C44.8481013,32.2025316 44.4556962,32.6075949 44.4556962,33.1012658 L44.4556962,34.9873418 C44.4556962,35.4050633 44.1392405,35.7594937 43.721519,35.7721519 C43.3037975,35.7848101 42.9493671,35.4556962 42.9367089,35.0379747 C42.9367089,35.0253165 42.9367089,35.0253165 42.9367089,35.0126582 L42.9367089,31.2405063 C42.9367089,29.3544304 41.4683544,27.7468354 39.5822785,27.6708861 C39.5189873,27.6708861 39.4556962,27.6708861 39.3924051,27.6708861 L39.3670886,27.6708861 C38.2658228,27.6962025 37.3797468,28.5949367 37.3797468,29.6962025 L37.3797468,31.556962 C37.3924051,31.9746835 37.0632911,32.3291139 36.6455696,32.3417722 C36.2278481,32.3544304 35.8734177,32.0253165 35.8607595,31.6075949 C35.8607595,31.5949367 35.8607595,31.5949367 35.8607595,31.5822785 L35.8607595,26.9620253 C35.8607595,25.0886076 34.4050633,23.4936709 32.5316456,23.4177215 C32.4683544,23.4177215 32.4050633,23.4177215 32.3544304,23.4177215 L32.3291139,23.4177215 C31.2278481,23.4303797 30.3544304,24.3291139 30.3544304,25.4303797 L30.3544304,30.2531646 C30.3544304,30.6708861 30.0379747,31.0253165 29.6202532,31.0379747 C29.2025316,31.0506329 28.8481013,30.721519 28.835443,30.3037975 C28.835443,30.2911392 28.835443,30.2911392 28.835443,30.278481 L28.835443,10.1265823 C28.835443,8.2278481 27.3417722,6.62025316 25.443038,6.55696203 L25.2658228,6.55696203 C22.9113924,6.58227848 21.0379747,8.55696203 21.0379747,10.9113924 L21.0379747,39.6202532 C19.9620253,37.7848101 18.4177215,35.3417722 16.7974684,33.4936709 C15.3291139,31.8101266 13.2911392,31.3417722 11.0886076,32.2025316 C10.2151899,32.5443038 9.58227848,33.3291139 9.44303797,34.2531646 C9.35443038,34.8860759 9.49367089,35.5316456 9.82278481,36.0759494 C10.6329114,37.4303797 11.5949367,39.556962 12.721519,42.0253165 C15.3164557,47.7468354 18.2531646,54.2278481 21.4303797,56.2151899 C23.9493671,57.7974684 29.3670886,63.7468354 29.4177215,63.7974684 C29.556962,63.9620253 29.7594937,64.0506329 29.9746835,64.0506329 L47.7594937,64.0506329 C48.1265823,64.0506329 48.4303797,63.7974684 48.5063291,63.4303797 C48.5443038,63.2405063 48.5063291,63.0506329 48.4050633,62.8860759 C46.8734177,60.2658228 45.443038,56.8987342 45.7848101,56.0759494 Z"/>
  </g>
</svg>
