<svg xmlns="http://www.w3.org/2000/svg" width="16" height="14" viewBox="0 0 16 14">
  <g fill="none" fill-rule="evenodd">
    <path fill="#02719C" d="M15.4162162,6.42162162 C15.4162162,2.91891892 12,0.0648648649 7.78378378,0.0648648649 C3.56756757,0.0648648649 0.151351351,2.91891892 0.151351351,6.42162162 C0.151351351,9.92432432 3.56756757,12.8 7.78378378,12.8 C8.82162162,12.8 9.81621622,12.627027 10.7675676,12.3027027 C11.7189189,13.2540541 12.9945946,13.7945946 14.3351351,13.7945946 C14.5945946,13.7945946 14.8324324,13.772973 15.0918919,13.7297297 L15.8702703,13.6216216 L15.3081081,13.0594595 C14.5297297,12.2594595 14.0972973,11.2216216 14.0972973,10.0972973 L14.0972973,10.0108108 C14.9621622,8.95135135 15.4162162,7.71891892 15.4162162,6.42162162 Z"/>
    <path fill="#FFFFFF" d="M7.80629963,9.70992174 C7.49050864,9.70992174 7.23436706,9.45378016 7.23436706,9.13769677 C7.23436706,8.82190578 7.49050864,8.56576419 7.80629963,8.56576419 C8.12209062,8.56576419 8.37823221,8.82190578 8.37823221,9.13769677 C8.3785246,9.45378016 8.12238302,9.70992174 7.80629963,9.70992174 Z M8.630865,3.15433466 L8.25220821,7.44616816 C8.23086308,7.72102329 8.06273361,7.92745703 7.80659203,7.92745703 C7.55045045,7.92745703 7.38232098,7.72102329 7.36097585,7.44616816 L6.98231906,3.15433466 C6.96302072,2.90579545 6.97939507,2.68123297 7.19781717,2.47655362 C7.37354901,2.31134815 7.57501197,2.18854054 7.80659203,2.18854054 C8.03817209,2.18854054 8.23934265,2.31164055 8.41565929,2.47655362 C8.63378899,2.68123297 8.65016334,2.90579545 8.630865,3.15433466 Z"/>
  </g>
</svg>
