<?xml version="1.0" encoding="UTF-8" standalone="no"?>
<svg width="173px" height="173px" viewBox="0 0 173 173" version="1.1" xmlns="http://www.w3.org/2000/svg" xmlns:xlink="http://www.w3.org/1999/xlink" xmlns:sketch="http://www.bohemiancoding.com/sketch/ns">
    <!-- Generator: Sketch 3.4 (15588) - http://www.bohemiancoding.com/sketch -->
    <title>age-old</title>
    <desc>Created with Sketch.</desc>
    <defs></defs>
    <g id="Page-1" stroke="none" stroke-width="1" fill="none" fill-rule="evenodd" sketch:type="MSPage">
        <g id="age-old" sketch:type="MSLayerGroup" transform="translate(1.000000, 1.000000)">
            <path d="M81.1525424,97.4386958 L94.2418505,97.4386958 L97.9509139,88.6435243 L97.9509139,112.140293 L105.6428,79.5531915 L105.44041,104.201835 L110.037859,92.4625084 L126.277634,92.4625084" id="Path-4" stroke="#979797" sketch:type="MSShapeGroup"></path>
            <path d="M142.055538,92.7817484 L85.9168644,148.939085 L29.7781912,92.78053 C19.4072696,82.4073792 19.4072696,65.2666399 29.7781912,54.8934889 C34.7383031,49.9317281 41.5012062,47 48.7160252,47 C55.9308442,47 62.6937473,49.7050857 67.6538593,54.8922704 L83.2090237,70.452606 L72.3886221,81.5044654 C71.7113576,82.1807368 71.7113576,83.5344982 72.3886221,84.2095512 C72.8393201,84.6603988 73.2900177,84.6603988 73.7407158,84.6603988 C74.1914134,84.6603988 74.642111,84.4361935 75.0928091,84.2095512 L87.2677396,72.0317913 L104.174998,55.1189128 C109.136327,50.1559334 115.899231,47.2229868 123.11405,47.2229868 C130.328869,47.2229868 137.091772,49.9305095 142.051884,55.1189128 C152.649372,65.2666399 152.649372,82.4061606 142.051884,92.78053 L142.055538,92.7817484 L142.055538,92.7817484 Z" id="Shape" stroke="#4A4A4A" sketch:type="MSShapeGroup"></path>
            <path d="M85.5,171 C132.72,171 171,132.72 171,85.5 C171,38.28 132.72,0 85.5,0 C38.28,0 0,38.28 0,85.5 C0,132.72 38.28,171 85.5,171 L85.5,171 Z" id="Shape" stroke="#979797" sketch:type="MSShapeGroup"></path>
        </g>
    </g>
</svg>