<svg width="128" height="128" viewBox="0 0 128 128" xmlns="http://www.w3.org/2000/svg"><title>article</title><g transform="translate(1 1)" fill="none" fill-rule="evenodd"><circle stroke="#010101" stroke-width=".869" cx="63" cy="63" r="63"/><path d="M34.87 30.712c-1.98 0-3.604 2.103-3.604 4.625V93.61c0 2.555 1.625 4.624 3.605 4.624H92.54v-.03h.1c.026 0 .052 0 .076-.032.026 0 .05 0 .078-.034 1.65-.387 2.944-2.262 2.944-4.528V51.766c0-2.522-1.65-4.625-3.63-4.625h-2.994V35.338c0-2.522-1.65-4.625-3.63-4.625h-50.61zm0 1.844h50.61c1.22 0 2.21 1.228 2.21 2.78v12.58c-.026.065-.026.098 0 .162v43.01c0 2.522.533 4.203 1.267 5.336H34.87c-1.218 0-2.182-1.26-2.182-2.814V35.337c0-1.553.964-2.78 2.183-2.78zm14.85 6.112c-.357.065-.636.486-.636.937V55.03c0 .487.33.906.71.906h20.788c.356 0 .712-.42.712-.906V39.605c0-.485-.357-.937-.712-.937H49.72zm.785 1.842h19.342v13.615H50.505V40.51zm38.606 8.473h2.996c1.218 0 2.207 1.23 2.207 2.782V93.61c0 1.553-.99 2.813-2.207 2.813H91.8c-.304-.03-.633-.128-1.014-.356-.812-.518-1.675-1.616-1.675-4.98V48.983zm-39.265 14.91c-.38.03-.686.516-.66 1 .05.487.433.875.787.842h20.433c.38 0 .71-.452.71-.937 0-.486-.33-.905-.71-.905H49.845zM38.373 71.88c-.355.065-.66.55-.635 1.003.052.484.432.87.812.808h17.54c.38.032.735-.42.735-.906 0-.484-.355-.905-.736-.905H38.372zm25.763 0c-.38.063-.686.548-.635 1.003.025.484.406.87.787.808h17.538c.38.032.736-.42.736-.906 0-.484-.355-.905-.735-.905H64.136zm-25.763 7.987c-.355.066-.66.55-.635 1.002.052.486.432.873.812.807h17.54c.38.034.735-.418.735-.905 0-.484-.355-.905-.736-.905H38.372zm25.763 0c-.38.066-.686.55-.635 1.002.026.486.407.873.788.807h17.538c.38.034.736-.418.736-.905 0-.484-.356-.905-.736-.905h-17.69zm-25.763 7.988c-.355.063-.66.517-.635 1 .052.486.432.875.812.81h17.54c.38.03.735-.42.735-.905 0-.487-.355-.905-.736-.905H38.372zm25.763 0c-.38.063-.686.517-.635 1 .026.486.407.875.788.81h17.538c.38.03.736-.42.736-.905 0-.487-.356-.905-.736-.905h-17.69z" fill="#000"/></g></svg>