<svg width="124" height="124" viewBox="0 0 124 124" xmlns="http://www.w3.org/2000/svg"><title>article</title><g transform="translate(1 1)" fill="none" fill-rule="evenodd"><circle stroke="#010101" stroke-width=".869" cx="61" cy="61" r="61"/><path d="M33.716 26C31.676 26 30 28.168 30 30.768v60.08c0 2.635 1.675 4.77 3.716 4.77H93.174v-.033h.102c.027 0 .053 0 .078-.032.027 0 .053 0 .08-.035 1.7-.4 3.036-2.333 3.036-4.668V47.707c0-2.6-1.702-4.768-3.742-4.768H89.64V30.767c0-2.6-1.7-4.768-3.74-4.768H33.715zm55.75 19.64h2.415c.984 0 1.782 1.237 1.782 2.798v42.08c0 1.563-.8 2.83-1.78 2.83h-.247c-.246-.032-.51-.13-.818-.36-.655-.52-1.35-1.624-1.35-5.006v-42.34zM37.004 84.45H56.42v-.256H36.874v.257h.13zm0-5.142H56.42v-.257H36.874v.258h.13zm0-5.144H56.42v-.257H36.874v.257h.13zm0-5.143H56.42v-.256H36.874v.257h.13zm12.858-7.97h19.416v-.258H49.732v.257h.13zm13.116 23.4H82.395v-.256H62.847v.257h.13zm0-5.142H82.395v-.257H62.847v.258h.13zm0-5.144H82.395v-.257H62.847v.257h.13zm0-5.143H82.395v-.256H62.847v.257h.13zM49.025 34.204c-.366.067-.655.5-.655.966v15.903c0 .5.34.934.733.934h21.432c.368 0 .734-.433.734-.934V35.17c0-.5-.368-.967-.735-.967H49.025z" stroke="#413B46" stroke-linecap="square"/></g></svg>