<svg width="84" height="84" viewBox="0 0 84 84" xmlns="http://www.w3.org/2000/svg"><title>down-note</title><g fill="#000" fill-rule="evenodd"><path d="M40.366 62.375c.375.375.884.586 1.414.586.53 0 1.04-.21 1.414-.585l16.902-16.9c.78-.782.78-2.048 0-2.83-.78-.78-2.048-.78-2.828 0L44 55.913V22c0-1.104-.896-2-2-2s-2 .896-2 2v34.353L26.292 42.645c-.78-.78-2.048-.78-2.828 0-.78.78-.78 2.047 0 2.83l16.902 16.9z"/><path d="M42 84c22.766 0 42-19.233 42-42S64.766 0 42 0 0 19.233 0 42s19.234 42 42 42zm0-80c20.598 0 38 17.402 38 38S62.598 80 42 80 4 62.598 4 42 21.402 4 42 4z"/></g></svg>