<?xml version="1.0" encoding="UTF-8" standalone="no"?>
<svg width="92px" height="28px" viewBox="0 0 92 28" version="1.1" xmlns="http://www.w3.org/2000/svg" xmlns:xlink="http://www.w3.org/1999/xlink" xmlns:sketch="http://www.bohemiancoding.com/sketch/ns">
    <!-- Generator: Sketch 3.4 (15588) - http://www.bohemiancoding.com/sketch -->
    <title>down-content</title>
    <desc>Created with Sketch.</desc>
    <defs></defs>
    <g id="Page-1" stroke="none" stroke-width="1" fill="none" fill-rule="evenodd" sketch:type="MSPage">
        <g id="down-content" sketch:type="MSLayerGroup" transform="translate(45.500000, 13.500000) rotate(90.000000) translate(-45.500000, -13.500000) translate(31.000000, -33.000000)" fill="#000000">
            <g id="down-furher" sketch:type="MSShapeGroup">
                <g id="Page-1">
                    <g id="down-furher" transform="translate(14.500000, 46.500000) rotate(180.000000) translate(-14.500000, -46.500000) translate(0.000000, 0.000000)">
                        <path d="M26,93 C25.292,93 24.604,92.624 24.248,91.956 L0.248,47.956 C-0.08,47.364 -0.08,46.636 0.248,46.04 L24.248,2.04 C24.776,1.072 25.996,0.712 26.96,1.24 C27.932,1.772 28.288,2.984 27.76,3.952 L4.276,47 L27.756,90.044 C28.284,91.016 27.928,92.228 26.956,92.76 C26.656,92.92 26.328,93 26,93 L26,93 L26,93 Z" id="Shape"></path>
                    </g>
                </g>
            </g>
        </g>
    </g>
</svg>