<svg width="34" height="36" viewBox="0 0 34 36" xmlns="http://www.w3.org/2000/svg"><title>drug-note</title><g fill="none" fill-rule="evenodd"><path d="M23.07 17.296v12.37c0 2.935 2.423 5.352 5.366 5.352 2.944 0 5.368-2.417 5.368-5.35V17.352c-3.867-.805-7.85-.518-10.735-.057z" fill="#132E49"/><path d="M28.436.667c-2.943 0-5.367 2.416-5.367 5.35v11.74c2.885-.46 6.867-.75 10.79.056V6.075C33.805 3.083 31.438.667 28.437.667z" fill="#FFF"/><path d="M28.436.206c-2.943 0-5.367 2.417-5.367 5.35v11.74c2.885-.46 6.867-.748 10.79.057V5.557c-.056-2.992-2.423-5.35-5.424-5.35z" fill="#B0AFAF"/><path d="M7.083 16.778l5.83-10.933c1.384-2.59 4.673-3.625 7.27-2.244 2.598 1.382 3.636 4.662 2.25 7.25l-5.828 10.934c-3.81-1.094-7.156-3.222-9.522-5.006z" fill="#132E49"/><path d="M4.024 33.982c-2.597-1.38-3.636-4.66-2.25-7.25l5.54-10.415c2.366 1.784 5.713 3.913 9.522 5.006l-5.54 10.415C9.91 34.385 6.68 35.42 4.024 33.982z" fill="#FFF"/><path d="M3.793 34.443c-2.597-1.38-3.636-4.66-2.25-7.25l5.54-10.415c2.366 1.784 5.713 3.912 9.522 5.006l-5.54 10.414c-1.385 2.647-4.675 3.625-7.272 2.245z" fill="#9A9A9A"/><path d="M13.95 33.177c-3.924-3.05-4.617-8.746-1.5-12.602 3.06-3.912 8.772-4.603 12.64-1.496 3.924 3.05 4.616 8.745 1.5 12.658-3 3.798-8.715 4.488-12.64 1.44z" fill="#FFF"/><g><path d="M12.97 20.978c-2.77 3.51-2.25 8.516 1.096 11.393L24.34 19.31c-3.522-2.532-8.6-1.842-11.37 1.668z" fill="#FFF"/><path d="M25.03 19.827L14.76 32.89c3.58 2.53 8.6 1.84 11.37-1.67 2.712-3.51 2.193-8.516-1.097-11.393z" fill="#949494"/></g></g></svg>