<svg width="45" height="46" viewBox="0 0 45 46" xmlns="http://www.w3.org/2000/svg"><title>Group</title><g fill="none" fill-rule="evenodd"><path d="M0 0h73v46H0z"/><g fill="#000"><path d="M20.68 45.227c.39.39.902.586 1.414.586.512 0 1.023-.195 1.414-.586L44.414 24.32c.78-.78.78-2.047 0-2.828L23.508.586c-.78-.78-2.047-.78-2.828 0-.78.78-.78 2.047 0 2.828l19.492 19.492L20.68 42.398c-.782.782-.782 2.047 0 2.83z"/><path d="M.68 45.227c.39.39.902.586 1.414.586.512 0 1.023-.195 1.414-.586L24.414 24.32c.78-.78.78-2.047 0-2.828L3.508.586c-.78-.78-2.047-.78-2.828 0-.78.78-.78 2.047 0 2.828l19.492 19.492L.68 42.398c-.782.782-.782 2.047 0 2.83z"/></g></g></svg>