<svg width="102px" height="102px" viewBox="0 0 102 102" version="1.1" xmlns="http://www.w3.org/2000/svg" xmlns:xlink="http://www.w3.org/1999/xlink">
    <g stroke="none" stroke-width="1" fill="none" fill-rule="evenodd">
        <g id="health" sketch:type="MSLayerGroup" transform="translate(1.000000, 1.000000)">
            <circle  stroke-width="2" cx="50" cy="50" r="50"></circle>
            <g transform="translate(19.000000, 28.000000)" fill="#A58D75">
                <path d="M36.9330801,37.0150028 C36.9045671,37.0150028 36.8756015,37.013645 36.8466358,37.0104769 C36.475061,36.9656707 36.194909,36.6520272 36.194909,36.2777368 L36.194909,22.80238 L35.1562194,25.4844168 C35.0457879,25.7681896 34.7733299,25.9551084 34.4682856,25.9551084 L24.7285906,25.9551084 C24.3212613,25.9551084 23.9913246,25.6251717 23.9913246,25.2178425 C23.9913246,24.8105132 24.3212613,24.4805765 24.7285906,24.4805765 L33.9636499,24.4805765 L36.2446937,18.5924059 C36.3727761,18.2602063 36.7226267,18.07374 37.0674988,18.1334816 C37.4168968,18.1991069 37.6694409,18.5036986 37.6694409,18.8585277 L37.6694409,29.9627757 L41.8002121,12.5141483 C41.8857513,12.1498149 42.2342441,11.9022492 42.6031033,11.9520339 C42.9746781,11.9950298 43.2543775,12.3100311 43.2543775,12.6843214 L43.2543775,26.1040099 L45.0552254,21.4930428 C45.1661095,21.2101752 45.4381149,21.0237089 45.7422541,21.0237089 L57.1701026,21.0237089 C57.5774318,21.0237089 57.9073685,21.3536456 57.9073685,21.7609749 C57.9073685,22.1683041 57.5774318,22.4982408 57.1701026,22.4982408 L46.245532,22.4982408 L43.2041403,30.2872813 C43.0747001,30.617218 42.727565,30.8059472 42.38043,30.7439427 C42.0328424,30.67877 41.7798457,30.3737256 41.7798457,30.0193492 L41.7798457,18.9992826 L37.6490744,36.4474574 C37.5703241,36.7832777 37.2707108,37.0150028 36.9330801,37.0150028 L36.9330801,37.0150028 Z"></path>
                <path d="M58.7996138,4.9372579 C56.1167021,2.25434623 52.6082792,0.809701493 48.8934784,0.809701493 C45.1786776,0.809701493 41.6702547,2.25434623 38.987343,4.9372579 L38.987343,4.9372579 L31.7641193,12.1604816 L24.5408956,4.9372579 L24.5408956,4.9372579 C21.8579839,2.25434623 18.349561,0.809701493 14.6347602,0.809701493 C10.9199595,0.809701493 7.41153651,2.25434623 4.72862485,4.9372579 C-0.740387388,10.4062701 -0.740387388,19.2805164 4.72862485,24.7495286 L31.0417969,51.0627007 C31.2481748,51.2690786 31.4545526,51.2690786 31.6609304,51.2690786 C31.8673082,51.2690786 32.073686,51.1658896 32.2800639,51.0627007 L58.5932359,24.7495286 C64.268626,19.2805164 64.268626,10.4062701 58.7996138,4.9372579 L58.7996138,4.9372579 Z M57.5613468,23.5112617 L31.8673082,49.2053004 L6.17326959,23.5112617 C1.42657973,18.7645719 1.42657973,10.9222147 6.17326959,6.17552482 C8.44342562,3.9053688 11.5390929,2.56391296 14.841138,2.56391296 C18.1431832,2.56391296 21.2388505,3.80217989 23.5090065,6.17552482 L23.5090065,6.17552482 L23.5090065,6.17552482 L30.6290413,13.2955596 L25.6759736,18.3518162 C25.3664069,18.6613829 25.3664069,19.2805164 25.6759736,19.5900831 C25.8823514,19.796461 26.0887292,19.796461 26.2951071,19.796461 C26.5014849,19.796461 26.7078627,19.693272 26.9142405,19.5900831 L32.4864417,14.017882 L32.4864417,14.017882 L40.2256099,6.27871373 L40.2256099,6.27871373 C42.495766,4.00855771 45.5914333,2.66710188 48.8934784,2.66710188 C52.1955235,2.66710188 55.2911908,3.9053688 57.5613468,6.27871373 C62.4112256,10.9222147 62.4112256,18.7645719 57.5613468,23.5112617 L57.5613468,23.5112617 Z"></path>
            </g>
        </g>
    </g>
</svg>