<svg width="41" height="36" viewBox="0 0 41 36" xmlns="http://www.w3.org/2000/svg"><title>heart-note</title><g fill="none" fill-rule="evenodd"><path d="M32.225.118c-.667-.06-1.272-.06-1.817-.06-4.604 0-6.785 2-9.087 4.606l-.484.545-.484-.546C17.99 2.058 15.87.057 11.265.057c-.606 0-1.21 0-1.817.06C5.57.483 1.208 3.756.664 10.12v2.18c.303 3.335 1.878 6.85 4.786 10.487 3.332 4.182 8.54 8.546 15.447 13.092 6.845-4.547 12.055-8.972 15.447-13.093 2.908-3.576 4.543-7.152 4.786-10.425V10.18C40.524 3.755 36.102.482 32.225.118zm3.816 17.214h-4.42l-3.454 7.576-2.18-13.334-2.97 6.728-1.21-2.79-.97 1.274-4.846 6.304-.484-10.85-2.302 5.455-7.996.364-.06-1.153 7.147-.363 4.18-10.062.606 13.092 3.696-4.85 1.272-1.696.91 2.122 3.512-8.062 2.18 13.396 2-4.364h5.27v1.212h.12z"/><path d="M15.99 23.09l-.484-10.85-2.302 5.455-7.996.364-.06-1.153 7.147-.363 4.18-10.062.606 13.092 3.696-4.85V5.15l-.485-.547c-2.36-2.606-4.48-4.606-9.085-4.606-.606 0-1.212 0-1.818.06C5.51.42 1.15 3.694.604 10.057v2.183c.303 3.334 1.878 6.85 4.785 10.486 3.33 4.182 8.54 8.546 15.446 13.092V16.786L15.99 23.09z" fill-opacity=".85" fill="#132E49"/><path d="M31.62.118c-.667-.06-1.273-.06-1.818-.06-4.604 0-6.785 2-9.087 4.606l-.484.545v9.515l1.273-1.697.908 2.122 3.515-8.062 2.18 13.396 2-4.364h5.27v1.15h-4.422L27.5 24.85l-2.18-13.335-2.91 6.79-1.21-2.79-.97 1.273V35.88c6.846-4.547 12.055-8.972 15.448-13.093 2.907-3.576 4.543-7.152 4.785-10.425V10.18C39.918 3.755 35.496.482 31.62.118z" fill="#132E49"/><path d="M16.535 6.482l-4.24 10.062-7.148.303.06 1.212 7.997-.365 2.302-5.455.484 10.85 4.846-6.304v-2.06l-3.695 4.848-.605-13.092z" fill="#FFF"/><path d="M21.806 15.513l1.21 2.79 2.97-6.73 2.18 13.335 3.392-7.576h4.483V16.18h-5.33l-2 4.364-2.12-13.456-3.573 8.062-.908-2.122-1.274 1.697v2.06l.97-1.272z" fill="#FFF"/></g></svg>