<svg width="243" height="183" viewBox="0 0 243 183" xmlns="http://www.w3.org/2000/svg"><title>human</title><g fill="#132E49" fill-rule="evenodd"><path d="M220.392 181.374c.352-8.134 2.994-24.514.528-41.138-2.466-16.623-8.28-31.478-5.636-39.082 2.466-7.604 5.108-15.562 5.108-15.562s3.346 9.196 3.17 13.617c-.176 4.42 4.756 24.757 7.926 31.477 3.17 6.72 1.938 12.025.88 14.324-.88 2.3-1.584 5.13-1.056 7.252.53 2.122.353 3.537.353 3.537s-.705-.71-1.586.53c-.705 1.06 0 3.89 2.29 5.658 2.29 1.77 4.755.354 7.045-2.3 2.466-2.828 3.7-3.536 3.346-6.365-.527-3.007-1.232-6.72-1.584-9.373-.352-2.476-.528-11.318-1.057-18.922-.53-7.604-1.762-18.392-4.58-26.703-2.82-8.135-5.108-19.276-4.404-25.466.705-6.19 1.057-21.93-10.744-24.76-11.802-2.828-17.614-6.72-17.614-14.323 0 0 .176-2.653 1.056-4.42 0 0 .705.353 1.233-.355.705-.707.53-2.652 1.938-4.244 1.233-1.592 2.114-5.482-.705-6.366 0 0 1.233-8.666-1.76-12.733C202.072 1.59 194.322.883 194.322.883v151.024s1.41 14.5 5.108 23.697c.697 1.65 1.33 3.62 1.922 5.77"/><path d="M170.437 181.42c-.352-8.134-2.994-24.56-.352-41.184 2.466-16.623 8.278-31.478 5.636-39.082-2.465-7.604-5.107-15.562-5.107-15.562s-3.523 9.02-3.347 13.44c.177 4.42-4.755 24.758-7.926 31.478-3.17 6.72-1.937 12.025-.88 14.324.88 2.3 1.585 5.13 1.056 7.25-.528 2.123-.352 3.538-.352 3.538s.705-.708 1.585.53c.704 1.06 0 3.89-2.29 5.66-2.29 1.768-4.756.353-7.046-2.3-2.466-2.83-3.7-3.537-3.347-6.366.53-3.006 1.233-6.72 1.585-9.373.353-2.476.53-11.318 1.057-18.922.528-7.603 1.76-18.39 4.58-26.702 2.817-8.135 5.107-19.276 4.402-25.466-.704-6.19-1.056-21.928 10.745-24.758 11.8-2.83 17.614-6.72 17.614-14.324 0 0-.175-2.652-1.056-4.42 0 0-.704.353-1.233-.355-.703-.707-.527-2.652-1.936-4.244-1.233-1.59-2.114-5.48.704-6.365 0 0-1.233-8.665 1.762-12.733 2.642-3.89 10.392-4.598 10.392-4.598v151.024s-1.41 14.5-5.108 23.697c-.7 1.663-1.338 3.65-1.934 5.816"/><g><path d="M51.475 181.957c2.217-12.516 3.767-36.415 3.767-36.415V.884c-15.853 0-12.506 16.623-12.506 16.623-2.643 1.415-.53 5.306-.353 7.428.176 2.122 1.41 2.122 1.41 2.122.704 3.36 3.698 8.312 3.698 8.312 1.234 13.97-13.914 13.615-21.135 17.86-7.398 4.42-5.285 16.977-5.285 27.234 0 10.256-3.522 19.806-6.517 32.892-2.466 10.61-3.523 18.392-3.875 20.69-1.057.178-3.17.885-5.636 4.6-1.41 2.12-1.938 4.243-2.995 5.304-1.057 1.06 1.233 3.537 3.875-1.06L.99 154.383s-.88 1.59.53 1.945c2.113.353 4.05-8.136 4.93-8.136.705 0-3.874 9.373-1.584 10.08 2.465.708 4.05-9.903 4.58-9.726.704 0-2.467 8.488-.705 9.196 2.467.884 2.467-9.55 3.876-9.373.352 0-1.938 7.252-.353 7.252 1.586 0 1.586-4.775 3.17-7.25 1.41-2.3 3.348-8.666 2.29-12.026 2.643-8.842 9.336-26.703 10.92-34.66 1.763-8.843 4.757-25.82 4.757-25.82 2.818 5.66 4.404 30.947 1.938 37.667-2.29 6.72-7.927 22.99-5.46 38.198 1.432 8.835 2.686 19.46 3.313 30.28"/><path d="M57.386 181.96c-2.235-12.467-3.8-36.595-3.8-36.595V.885c15.678 0 12.33 16.622 12.33 16.622 2.643 1.415.53 5.306.353 7.428-.177 2.122-1.41 2.122-1.41 2.122-.704 3.183-3.7 8.135-3.7 8.135C59.93 49.162 75.077 48.81 82.3 53.052c7.398 4.422 5.284 16.978 5.284 27.235 0 10.257 3.347 19.63 6.34 32.716 2.467 10.61 3.524 18.39 3.876 20.69 1.057.177 3.17.884 5.637 4.598 1.41 2.123 1.937 4.245 2.994 5.306 1.056 1.06-1.234 3.537-3.876-1.06l4.932 11.494s.88 1.592-.528 1.945c-2.114.354-4.052-8.134-4.932-8.134-.705 0 3.875 9.373 1.585 10.08-2.465.708-4.05-9.902-4.58-9.726-.527.177 2.643 8.666.882 9.373-2.466.884-2.466-9.55-3.875-9.373-.352 0 1.937 7.25.352 7.25-1.586 0-1.586-4.774-3.17-7.25-1.41-2.3-3.348-8.665-2.29-12.025-2.643-8.843-9.337-26.704-10.922-34.662-1.76-8.842-4.756-25.82-4.756-25.82-2.818 5.66-4.403 30.948-1.937 37.668 2.466 6.72 7.926 23.167 5.636 38.198-1.45 8.95-3.08 19.438-3.698 30.405"/></g></g></svg>