<svg width="43" height="38" viewBox="0 0 43 38" xmlns="http://www.w3.org/2000/svg"><title>info</title><g fill="#8C98A6" fill-rule="evenodd"><path d="M10.083 4.366h16.29V6.36h-16.29zM3.802 8.48h4.81v.785H3.8zM26.963 8.48h4.81v.785h-4.81zM3.802 10.54h6.28v.786h-6.28zM29.264 11.503c-7.242 0-13.113 5.87-13.113 13.113 0 7.242 5.872 13.11 13.114 13.11 7.24 0 13.112-5.87 13.112-13.11 0-7.24-5.872-13.113-13.112-13.113zm-.305 4.303c1.266 0 2.292 1.026 2.292 2.292 0 1.266-1.026 2.29-2.293 2.29-1.266 0-2.293-1.024-2.293-2.29s1.026-2.292 2.292-2.292zm4.11 16.262h-7.35v-.528c.488-.088.835-.163 1.04-.228.206-.065.38-.155.526-.27.143-.114.255-.29.337-.53.08-.237.123-.608.123-1.112v-4.705c0-.46-.013-.83-.038-1.112-.025-.28-.112-.505-.262-.674-.15-.17-.38-.296-.685-.38-.305-.08-.74-.152-1.302-.21v-.57l4.368-.1h1.144v7.718c0 .62.05 1.048.15 1.29.1.242.29.424.573.55.28.126.74.236 1.377.33v.53z"/><path d="M1.643 33.966V1.51h33.17v13.57c.264.07.53.137.786.22V.727H.857v34.026H17.93c-.11-.257-.207-.522-.304-.785H1.643z"/><path d="M26.963 10.54h4.81v.786h-4.81zM24.87 15.644h.867c.844-.342 1.726-.607 2.64-.785H3.41v15.556H16.8c-.025-.258-.03-.522-.04-.785h-1.18V25.59h1.57c.064-.263.124-.527.202-.786H15.58v-9.158h9.29zM7.466 29.63h-3.27V25.59h3.27v4.043zm0-4.827h-3.27v-9.16h3.27v9.16zm7.328 4.828H8.25V25.59h6.544v4.043zm0-4.827H8.25v-9.16h6.544v9.16z"/></g></svg>