<svg width="71" height="47" viewBox="0 0 71 47" xmlns="http://www.w3.org/2000/svg"><title>keyboard</title><g fill="none" fill-rule="evenodd"><g fill="#7ED321"><path d="M42.795 46.312h-14.86c-1.93 0-3.5-1.57-3.5-3.5v-14.86c0-1.93 1.57-3.5 3.5-3.5h14.86c1.93 0 3.5 1.57 3.5 3.5v14.86c0 1.93-1.57 3.5-3.5 3.5zm-14.86-20.86c-1.378 0-2.5 1.123-2.5 2.5v14.86c0 1.38 1.122 2.5 2.5 2.5h14.86c1.38 0 2.5-1.12 2.5-2.5v-14.86c0-1.378-1.12-2.5-2.5-2.5h-14.86z"/><path d="M36.513 33.917c.55 0 .81.408.577.906l-1.3 2.785c-.234.498-.615.498-.848 0l-1.3-2.785c-.234-.498.026-.906.576-.906h2.295z"/></g><g fill="#F6A623"><path d="M42.795 22.145h-14.86c-1.93 0-3.5-1.57-3.5-3.5V3.785c0-1.93 1.57-3.5 3.5-3.5h14.86c1.93 0 3.5 1.57 3.5 3.5v14.86c0 1.93-1.57 3.5-3.5 3.5zm-14.86-20.86c-1.378 0-2.5 1.122-2.5 2.5v14.86c0 1.378 1.122 2.5 2.5 2.5h14.86c1.38 0 2.5-1.122 2.5-2.5V3.785c0-1.378-1.12-2.5-2.5-2.5h-14.86z"/><path d="M34.217 12.68c-.55 0-.81-.407-.577-.905l1.3-2.785c.233-.5.614-.5.847 0l1.3 2.786c.234.498-.025.906-.575.906h-2.295z"/></g><g fill="#F8E81C"><path d="M18.628 46H3.768c-1.93 0-3.5-1.57-3.5-3.5V27.64c0-1.93 1.57-3.5 3.5-3.5h14.86c1.93 0 3.5 1.57 3.5 3.5V42.5c0 1.93-1.57 3.5-3.5 3.5zM3.768 25.14c-1.378 0-2.5 1.122-2.5 2.5V42.5c0 1.38 1.122 2.5 2.5 2.5h14.86c1.378 0 2.5-1.12 2.5-2.5V27.64c0-1.378-1.122-2.5-2.5-2.5H3.768z"/><path d="M12.845 36.218c0 .55-.408.81-.906.577l-2.786-1.302c-.5-.232-.5-.613 0-.846l2.785-1.302c.498-.232.905.027.905.577v2.296z"/></g><g fill="#9B9B9B"><path d="M66.962 46h-14.86c-1.93 0-3.5-1.57-3.5-3.5V27.64c0-1.93 1.57-3.5 3.5-3.5h14.86c1.93 0 3.5 1.57 3.5 3.5V42.5c0 1.93-1.57 3.5-3.5 3.5zm-14.86-20.86c-1.38 0-2.5 1.122-2.5 2.5V42.5c0 1.38 1.12 2.5 2.5 2.5h14.86c1.38 0 2.5-1.12 2.5-2.5V27.64c0-1.378-1.12-2.5-2.5-2.5h-14.86z"/><path d="M57.885 33.922c0-.55.408-.81.906-.577l2.786 1.302c.498.232.498.613 0 .846l-2.785 1.302c-.497.232-.905-.027-.905-.577v-2.296z"/></g></g></svg>