<svg width="172" height="172" viewBox="0 0 172 172" xmlns="http://www.w3.org/2000/svg"><title>men(1)</title><g fill="none" fill-rule="evenodd"><path d="M69.725 122.313c21.506 0 38.94-17.433 38.94-38.938 0-21.505-17.434-38.938-38.94-38.938-21.506 0-38.94 17.433-38.94 38.938 0 21.505 17.434 38.938 38.94 38.938z" stroke="#979797"/><path d="M96.962 56.14l28.84-28.846m-17.623 0h17.623v17.63" stroke="#A58D75"/><path d="M94.777 131.8c16.996 0 30.777-13.61 30.777-30.4 0-16.788-13.78-30.4-30.777-30.4S64 84.61 64 101.4s13.78 30.4 30.777 30.4zm1.502-.833V159.7v-28.733zm-14.145 12.71h29.086-29.085z" stroke="#979797"/><path d="M86 171.5c47.22 0 85.5-38.28 85.5-85.5S133.22.5 86 .5.5 38.78.5 86s38.28 85.5 85.5 85.5z" stroke="#979797"/></g></svg>