<svg style="opacity: 1;" id="news-svg" class="svg-slider-category" viewBox="-2 -2 126 126" xmlns="http://www.w3.org/2000/svg">
                                 <title>Новости</title>
                             <desc>Created with Snap</desc><defs></defs><path class="none-drugs-str" d="M0,61a61,61 0 1,0 122,0a61,61 0 1,0 -122,0"></path><path style="stroke-dasharray: 383.328, 383.328; stroke-dashoffset: 0;" d="M0,61a61,61 0 1,0 122,0a61,61 0 1,0 -122,0"></path><path style="stroke-dasharray: 349.871, 349.871; stroke-dashoffset: 0;" d="M62.413 78.806H27.175c-.705 0-1.175-.47-1.175-1.174V44.86c0-.704.47-1.174 1.175-1.174h35.238c.704 0 1.174.47 1.174 1.174v32.772c0 .705-.47 1.174-1.174 1.174zM73.22 43.803h26.31M73.22 60.013h26.31M73.22 76.105h26.31M27.175 93.02h55.088M99.53 31H27.175"></path></svg>