<?xml version="1.0" encoding="UTF-8" standalone="no"?>
<svg width="76px" height="75px" viewBox="0 0 76 75" version="1.1" xmlns="http://www.w3.org/2000/svg" xmlns:xlink="http://www.w3.org/1999/xlink" xmlns:sketch="http://www.bohemiancoding.com/sketch/ns">
    <!-- Generator: Sketch 3.4 (15588) - http://www.bohemiancoding.com/sketch -->
    <title>phone-help</title>
    <desc>Created with Sketch.</desc>
    <defs></defs>
    <g id="Page-1" stroke="none" stroke-width="1" fill="none" fill-rule="evenodd" sketch:type="MSPage">
        <path d="M19.8,49.2 C31.7,63.6 60.7,77.4 67.7,74.3 C74.7,71.2 76.2,64.5 75.9,61.4 C75.6,58.3 59.7,48.8 55.7,47 C51.7,45.2 47.1,51 44.9,53.5 C42.6,55.9 33.8,48.6 30,44.9 C30,44.9 20,33.7 22.3,31.3 C24.6,28.9 30.3,24.1 28.3,20.2 C26.3,16.3 16.2,0.7 13,0.5 C9.9,0.3 3.3,2.1 0.5,9.2 C-2.3,16.3 11.1,43.4 26,54.7" id="phone-help" fill="#000000" sketch:type="MSShapeGroup"></path>
    </g>
</svg>