<svg width="31" height="35" viewBox="0 0 31 35" xmlns="http://www.w3.org/2000/svg"><title>to-read</title><g fill="#8C98A6" fill-rule="evenodd"><ellipse cx="15.5" cy="6.961" rx="6.903" ry="6.961"/><path d="M1.222 23.158h1.674c.422 0 .77-.332.77-.74 0-.405-.348-.737-.77-.737H1.222c-.423 0-.77.334-.77.74 0 .406.347.738.77.738zM2.848 23.43H1.073c-.45 0-.816.352-.816.783 0 .43.367.784.816.784h1.775c.45 0 .816-.353.816-.784 0-.43-.367-.784-.816-.784zM2.89 25.268H1.21c-.426 0-.774.334-.774.743 0 .41.348.743.773.743h1.68c.426 0 .774-.333.774-.742 0-.408-.347-.742-.773-.742zM2.97 27.107H1.46c-.383 0-.696.3-.696.667 0 .367.313.667.695.667h1.51c.382 0 .695-.3.695-.666 0-.367-.313-.667-.695-.667zM29.778 23.158h-1.673c-.423 0-.77-.332-.77-.74 0-.405.347-.737.77-.737h1.673c.423 0 .77.334.77.74 0 .406-.347.738-.77.738zM28.152 23.43h1.775c.45 0 .816.352.816.783 0 .43-.367.784-.816.784h-1.775c-.45 0-.816-.353-.816-.784 0-.43.367-.784.816-.784zM28.11 25.268h1.68c.426 0 .774.334.774.743 0 .41-.348.743-.773.743h-1.68c-.426 0-.774-.333-.774-.742 0-.408.348-.742.773-.742z"/><path d="M28.03 29.01c-.694 0-1.258-.555-1.258-1.236 0-.338.14-.645.365-.87-.225-.233-.365-.547-.365-.893 0-.345.14-.657.363-.89-.224-.24-.363-.558-.363-.907 0-.35.14-.665.362-.905-.223-.234-.362-.545-.362-.89 0-.72.598-1.306 1.333-1.306h1.27v-5.218c-4.256-2.63-9.618-2.63-13.875 0-4.257-2.63-9.62-2.63-13.876 0v5.218h1.27c.736 0 1.334.586 1.334 1.307 0 .343-.14.654-.362.888.223.24.362.556.362.905 0 .35-.14.666-.363.906.224.233.363.545.363.89 0 .347-.14.66-.365.895.225.224.365.53.365.87 0 .68-.565 1.235-1.258 1.235H1.624v5.093c4.257-2.63 9.62-2.63 13.876 0 4.257-2.63 9.62-2.63 13.876 0V29.01H28.03z"/><path d="M28.03 27.107h1.51c.383 0 .696.3.696.667 0 .367-.313.667-.695.667h-1.51c-.382 0-.695-.3-.695-.666 0-.367.313-.667.695-.667z"/></g></svg>