<?xml version="1.0" encoding="utf-8"?>
<!-- Generator: Adobe Illustrator 19.1.0, SVG Export Plug-In . SVG Version: 6.00 Build 0)  -->
<svg version="1.1" id="Layer_1" xmlns="http://www.w3.org/2000/svg" xmlns:xlink="http://www.w3.org/1999/xlink" x="0px" y="0px"
	 viewBox="0 0 120 120" style="enable-background:new 0 0 120 120;" xml:space="preserve">
<style type="text/css">
	.st0{fill:#A4D55D;}
	.st1{fill:#FFFFFF;}
</style>
<g>
	<path class="st0" d="M47.7,54.3c1.1-1.3,3.3,0.3,6.7-0.7c3.5-1.1,3.4-3,5.6-3c2.2,0,1.8,1.8,5.4,2.9c3.7,1.2,6.1-0.3,6.9,0.8
		c0.8,1.1,0,6.9-2.5,13c-2.5,6.1-7.7,9.4-9.7,9.3c-1.9-0.1-6.2-2.2-9.9-9.2C47.7,62.8,46.5,55.6,47.7,54.3z"/>
	<g>
		<path class="st1" d="M45.9,51.2c-0.3,0.1,0.2,0.2-0.2,0.1C45.7,51.2,45.7,51.1,45.9,51.2z"/>
		<path class="st1" d="M45.3,52.8c0.6,1.1,0.1,2.7,0.6,3.9c0,0.1-0.3,0-0.2,0.3c0.6,1.2,0.5,3.1,0.4,4.6L46,61.6
			c0,0.3,0.3,0.6,0.4,0.9c-0.1,0-0.1-0.1-0.2,0c0.2,0,0.2,0.5,0.3,0.6c0,0.1-0.2,0.1-0.2,0.3l0.2,0.1c0.6,0.4,0.2,1.1,0.7,1.7
			c-0.1,0-0.1-0.1-0.1,0c0.6,0.9,0.9,2.2,1.6,3.2c-0.1,0-0.2,0-0.3,0.1c0.2,0,0.4,0.2,0.6,0.5c-0.1,0.2,0.4,0.4,0.5,0.8l-0.1,0
			c0.3,0.1,0.1,0.4,0.4,0.5l-0.1,0.2c0.3-0.1,0.1,0.4,0.3,0.5l0.1,0c0.2,0.1,0.1,0.3,0.3,0.4l0,0c0.3,0.3,0.3,0.6,0.5,0.5
			c-0.1,0.2-0.3-0.3-0.4,0.1c1.1,1.1,2,2.3,3.1,3.4c0,0.2,0.1,0.3,0.1,0.4c0.1,0.1,0.5,0.4,0.6,0.4c0,0,0,0.2,0,0.2
			c0.1,0.3,0.4,0,0.6,0.3c-0.1,0-0.2,0-0.2,0.1c0.3,0,0.6,0.3,0.8,0.4c-0.1,0-0.1,0-0.2,0c0.4,0,0.4,0.4,0.8,0.5l-0.2,0.1
			c0.3,0.4,0.3-0.2,0.6,0.2c-0.1,0-0.1,0-0.2,0.1c0.5,0,0.9,0.4,1.3,0.5c0,0,0,0,0,0c0.4,0.2,0.7,0.5,1.1,0.6
			c0.1,0.1-0.2,0.3,0.2,0.4c0.1-0.3,0.7,0.2,0.5-0.2c0.1,0.1,0.2,0.1,0.3,0.2c0.2-0.1,0.4-0.2,0.5-0.3c-0.1,0.2,0.3,0.2,0,0.4
			c0,0,0.3,0,0.3,0c0,0.1-0.3,0.1-0.1,0.2c0.2-0.1,0.5-0.4,0.6-0.5c0.2-0.3,0.2-0.7,0.6-1c-0.1,0.2,0.3,0.2,0.2,0.3l0.2-0.8
			c0.1-0.1,0.2,0.2,0.3,0c-0.1-0.1,0-0.2,0-0.2c0.1,0,0.5-0.4,0.7-0.2c0.1,0.1-0.2,0.2,0,0.2c0.2-0.2,0.2-0.3,0.4-0.4l0,0
			c0.2-0.1,0.4-0.4,0.1-0.4c-0.1,0.1,0.1,0.1-0.1,0.2c0-0.2,0.2-0.4,0.4-0.6c0,0.1,0,0.1,0,0.2c0.1-0.4,0.4-0.7,0.6-1.1
			c-0.1-0.1,0.1,0.3,0,0.3c0.5-0.2,0.6-0.9,1.1-1.1c0,0.1-0.2-0.1-0.1-0.1c0.2-0.2,0.3,0,0.4-0.2c0.1,0.1,0.1-0.2,0.2-0.3
			c0-0.1,0.1,0,0,0.1c0.1-0.2,0.6-1.1,1.1-1.4c-0.1,0,0-0.4,0.1-0.5l0.1,0.1c0.2,0,0.2-0.3,0.4-0.3c0-0.4-0.5,1-0.4,0.6
			c0.2,0,0.1-0.6,0.2-0.4c0.2-0.2,0.1-0.5,0.4-0.6c-0.1,0,0.1,0.3,0.2,0.1c0.2-0.3,0-0.1,0.1-0.4l0-0.2c-0.1-0.1,0.2-0.3,0-0.3
			c0.1,0,0.2-0.5,0.4-0.3l0.2,0.2c0.1-0.1-0.1-0.3-0.1-0.5c0,0,0.1,0,0.1,0c-0.3-0.2,0.2-0.3,0.1-0.6c0.3-0.2,0.4-0.7,0.6-0.8
			c0-0.3,0-0.5,0.2-0.8c0,0.1,0,0.1,0,0.2c0.2-0.1,0.1-0.2,0.1-0.4c0,0.1,0.3-0.3,0.5-0.4c0-0.3-0.2-0.3-0.3-0.3
			c0.4-0.1,0-0.8,0.4-0.9c0,0.1,0,0.4,0.2,0.2c0.4-0.1-0.1-0.5,0.2-0.8l-0.3,0c0.2-0.1,0-0.6,0.3-0.5c-0.1-0.1,0.2-0.4-0.1-0.4
			c0.4-0.5,0.2-1.5,0.8-1.7c0-0.1,0.1-0.3-0.1-0.3c-0.2,0.1,0.1,0.2-0.1,0.3c0-0.1-0.1-0.1-0.1-0.1c0.1-0.2,0.2-0.3,0.3-0.1
			c0.3-0.4-0.3-0.5-0.1-1c0.1,0,0.2,0,0.2-0.1l-0.1-0.3c0.1-0.3,0.3-0.2,0.5-0.1c0-0.2,0.1-0.4-0.1-0.5l0.3-0.2
			c-0.2,0.1-0.1-0.2-0.1-0.3l0,0.1c0.1,0,0.1-0.2,0.1-0.4c-0.1,0-0.2,0.2-0.3,0.3c-0.1-0.1,0-0.3-0.1-0.4c0.2,0.1,0.2-0.3,0.2-0.4
			c0.1-0.2-0.1-0.2-0.1-0.3c0.1,0,0.1-0.3,0.2-0.1c0,0.1-0.1,0.1,0,0.2c0.1-0.1,0.3-0.1,0.2-0.3c-0.1-0.2-0.4,0-0.2-0.3
			c0,0.1,0.1,0.1,0.2,0.2l0.1-0.3l-0.2,0c0.1,0,0.1,0,0.1,0c-0.2-0.1,0-0.5-0.2-0.6c0-0.2,0.2-0.3,0.2-0.5l0,0
			c0.1-0.2,0.1-0.4,0-0.6l0,0c0-0.1,0-0.3-0.1-0.5c0.2-0.2,0.7,0,0.5-0.3c0-0.3-0.3-0.4-0.4-0.3c0.2-0.5-0.1-1,0.2-1.4
			c-0.1-0.1-0.1,0-0.1-0.2c0-0.2,0-0.3,0-0.5c0-0.1,0-0.2,0-0.2l0-0.1c0-0.1,0-0.2,0.2-0.5c0.1,0,0.2-0.1,0.3-0.2
			c-0.2,0,0.2-0.3-0.1-0.1c-0.2,0.1-0.2,0.2-0.3,0.3c0,0,0-0.1,0-0.1c-0.1,0-0.1,0-0.1,0c-0.1,0-0.1-0.1-0.1-0.1
			c0,0.1-0.1,0.1-0.1,0.2c0.1-0.2,0-0.3-0.1-0.2l0,0.2c0,0,0,0,0-0.1c0,0-0.1-0.1-0.1-0.1c-0.1,0-0.1,0.3-0.4,0.1
			c0-0.1,0-0.1-0.1-0.2c-0.3,0.1-0.6,0.3-0.9,0.1l-0.2-0.3c-0.1,0-0.3,0.1-0.1,0.2c-0.4-0.2-0.7-0.3-0.8-0.5c-0.8,0.4-2,0.2-2.9,0.1
			l0-0.1c-0.2-0.1-0.2,0.2-0.3,0.1c0.1-0.1-0.1-0.3,0.1-0.4c-0.3-0.2-0.5,0.1-0.7,0.2c-0.1,0.1,0.2-0.1,0.1,0.1c0,0.1-0.5-0.2-0.6,0
			c-0.1-0.1,0-0.3,0.1-0.3l-0.2,0.1c-0.2-0.3,0.7-0.3,0.5-0.7l-0.2,0c-0.1-0.3,0.6-0.1,0.1-0.3c-0.2,0.1-0.5,0.3-0.3,0.5
			c-0.5,0-0.3,0.5-0.8,0.3c-0.1-0.2,0.4,0.1,0.4-0.1c-0.2-0.2-0.5,0-0.7-0.1c0.2,0.1-0.1,0.3-0.2,0.3c-0.2-0.2,0.2-0.1-0.1-0.3
			c-0.1,0.1-0.5,0.1-0.2,0.3c-0.2,0.2-0.3-0.2-0.6-0.1c0-0.2,0.5-0.3,0.2-0.6c0,0.2-0.6,0.1-0.5,0.4c-0.1-0.1-0.1-0.3,0.1-0.3
			c-0.2-0.2-0.7,0.1-0.6-0.3l-0.2,0.1c0-0.1-0.1-0.2-0.2-0.3c-0.2-0.1-0.7-0.1-0.5-0.3c-0.1,0-0.5-0.3-0.4,0c0.2,0.3,0.4,0,0.4,0.4
			c0-0.3-0.4-0.2-0.6-0.2l0-0.1c-0.1,0-0.3-0.2-0.4-0.1c0.1,0,0.1-0.1,0.1-0.2l-0.2,0.1c-0.4-0.2,0.1-0.3-0.2-0.5l0.3,0.1
			c-0.1,0-0.1-0.2-0.3-0.3c-0.2,0-0.3,0.2-0.4,0.4c0,0.1,0.1-0.2,0,0c0,0,0.1-0.2,0.1-0.2c0,0,0.1-0.3,0-0.3c-0.1,0-0.2,0.3-0.2,0.4
			c0,0,0-0.2,0-0.3c-0.1,0,0,0.2-0.1,0.3c0,0,0-0.1,0-0.1c0-0.1,0-0.3-0.1-0.4c0,0,0-0.4,0.1-0.4l-0.1,0.1c0.1-0.4-0.1-0.2,0-0.5
			c-0.1,0-0.2,0.2-0.2,0.3c0.2,0.1,0.1,0.3,0.1,0.5c0,0.2,0,0.3,0.1,0.5c0,0,0,0-0.1-0.1c0-0.1-0.2-0.1-0.2-0.1
			c-0.2-0.1-0.3-0.1-0.4,0.3c0.1,0,0.1,0.4,0.3,0.1c-0.3,0.2,0,0.4-0.4,0.5c0.2-0.3-0.5-0.1-0.2-0.5c0,0.1,0.2-0.1,0.3-0.1
			c-0.2,0-0.2-0.3-0.5-0.1c-0.2,0.1-0.4,0.3-0.3,0.4c0.1,0.2,0.3-0.2,0.3,0.1c-0.3,0.3-0.5,0.1-0.5,0.4c0.2-0.2,0.4,0,0.4,0.1
			l-0.2,0.2l0-0.1c-0.5,0.2,0,0.3-0.5,0.5l-0.3-0.1c0-0.2,0.7-0.2,0.4-0.5c-0.3,0.1-0.3,0.3-0.6,0.4c0-0.1,0.1-0.1,0.2-0.2
			c-0.1,0-0.4-0.3-0.7,0.1c-0.2,0.2,0,0.1,0.1,0.3c-0.4,0.2-0.5,0.4-0.8,0.6c0-0.3-0.5,0.2-0.3-0.2c0.2,0.1,0.9-0.2,0.9-0.5
			c-0.3-0.2,0.4-0.1,0.3-0.5c-0.3,0.2-0.5-0.1-0.6-0.3c-0.1,0-0.2,0.1-0.2,0.2c0,0.2,0.2,0.1,0.3,0.3c-0.4,0.1-0.8,0.4-0.9,0.6
			c-0.2,0-0.2-0.2,0-0.3c-0.4,0.3-1,0.3-1.5,0.4c0.4,0.2-0.5,0.2-0.2,0.4c0.3,0,0.6,0.1,0.4,0.3c-0.2,0,0-0.1-0.1-0.2
			c-0.2,0.2-0.4-0.2-0.5,0.1c0.4-0.2,0-0.4,0-0.6c-0.3,0.2,0-0.2-0.3-0.1c-0.3,0.2-0.7,0.4-1,0.5c-0.5-0.1-1.1,0.2-1.5,0.3
			c-0.2-0.1-0.1-0.4-0.4-0.4c-0.3,0,0.2,0.3-0.2,0.2l0-0.1c-0.1,0.1-0.7-0.1-0.8,0.3l0.1-0.3c-0.1,0-0.1,0.1-0.2,0.1
			c0-0.1-0.1-0.2,0-0.3c-0.3-0.2-0.5,0.1-0.8,0.1l0.2,0.2c-0.4,0.2-0.8,0-1.2,0.1l0-0.2l-0.3,0.1c0.1-0.2-0.2-0.3-0.3-0.1l0.7-0.5
			c0.2,0.1-0.2,0.2-0.1,0.4c0.1,0.1,0.5,0.1,0.6-0.1c-0.2,0-0.2,0-0.3,0.1c-0.1-0.2,0.2-0.2,0.3-0.4c-0.1,0-0.2-0.1-0.2,0
			c0.1-0.1,0.3-0.1,0.6-0.2c-0.2,0.1,0.1,0.1,0,0.2c0-0.2,0.2-0.3,0.6-0.3c0.3,0.2,0.6-0.2,1-0.2c-0.1,0.2-0.3,0.4-0.5,0.5
			c0.2,0.1,0.3,0,0.5,0c0.1-0.2,0.1-0.4,0.4-0.6l0,0.2c0.3-0.1,0.2-0.4,0.6-0.4c0.6,0,1.2-0.2,1.7-0.2l0.1,0.2
			c0.2-0.4,0.8-0.3,1.1-0.5c0.3,0,0.6-0.1,0.8-0.2c0.2-0.1,0.5-0.2,0.7-0.2c0.9-0.5,1.6-1,2.5-1.5l0,0.3c0.1-0.2,0.2,0,0.3-0.1
			c-0.3,0,0.1-0.4,0.1-0.5c0.6-0.2,1.2-1,1.7-1.7l0,0.2c0,0,0,0,0-0.1c0.4,0.1,1,1.1,1.5,1.6c0,0.1,0,0.3,0.1,0.3
			c0.4,0,0.5,0.1,0.9,0.1c0.2,0.2,0.6,0.4,0.8,0.7c0.1,0,0.3,0.1,0.4,0.1c0.1,0,0.3,0.1,0.4,0.1c0.3,0.1,0.5,0.2,0.8,0.2
			c0.6,0.1,1.1,0.3,1.7,0.3l0.1,0.2c1.2-0.2,2.6,0.3,3.6,0.3l-0.1,0.3c0.3,0.1,0.7,0,0.7-0.2c0.3,0.1,0.8,0,1,0.2
			c0.3,0.1,0.4-0.1,0.7-0.1c1.1,0.2,1.5,0.2,2.6,0.3l-0.2,0c-0.2,0.1-0.3,0.2-0.1,0.2c0.4-0.1,0.2,0.3,0.3,0.5
			c0,0.2,0.1,0.4,0.3,0.1c-0.1,0.6-0.1,1.3-0.1,1.9l0,0.4c0,0.1,0,0.2,0,0.3c0,0.2-0.1,0.4-0.1,0.5c0.1,0,0.1,0.1,0.2,0.2
			c0,0.6-0.3,1.2-0.2,1.7c-0.1,0.1-0.2-0.2-0.2,0.1c0,0.1,0.1,0,0.2,0.2c0.1,1-0.4,1.9-0.5,2.8c-0.1,1.6-0.4,3.2-0.8,4.6l-0.1,0
			c0.2,0.6-0.6,1.1-0.2,1.6c-0.1,0.1-0.2,0.4-0.3,0.3c0.1,0.4-0.5,1-0.5,1.6c0,0,0-0.1,0-0.2c-0.4,0.5-0.2,1.1-0.7,1.6
			c0-0.1,0-0.2,0-0.2c-0.2,0.2,0.1,0.7-0.3,0.6c-0.1,0.1,0.1,0.2,0.2,0.1c-0.3,0.6-0.7,1.2-1,1.9c-0.4,0.6-0.7,1.3-1.1,1.9
			c-0.8,0.7-0.5-0.3-0.8,0.5c-0.1,0,0.1,0.1,0,0.1c-0.1,0.3-0.6,0.1-0.6,0.4c0.2,0.1,0,0.2,0.1,0.3c-0.5,0.4-0.8,0.3-1,0.8l-0.1-0.1
			c-0.1,0.7-0.8,1-0.9,1.6c-0.9,0.9-1.8,1.7-2.8,2.4c-0.5,0.4-1,0.7-1.5,1.1c-0.3,0.2-0.5,0.3-0.8,0.5c-0.5,0.3-1,0.6-1.5,0.8
			c-0.6-0.2-1.2-0.5-1.7-0.7c-0.3-0.2-0.6-0.3-0.9-0.5c-2.7-1.7-5.2-3.6-7-6.3c-0.2-0.8-0.3-0.8-0.8-1.4c0.1,0,0.1,0,0.1,0
			c-0.2,0.1-0.3-0.5-0.6-0.4c-0.6-1-1.2-1.9-1.7-3c0.1,0.2,0.3,0.1,0.2,0l-0.3-0.1l0-0.1c-0.1-0.1-0.3-0.2-0.3,0
			c-0.8-1.4-1.2-2.9-1.4-4.4c-0.3-1.5-0.4-2.9-0.6-4.3c0-0.7-0.2-1.6-0.3-2.4c0.1-2.2,0.3-4.1,0.1-6.4
			C44.5,51.6,45.2,51.9,45.3,52.8z"/>
		<path class="st1" d="M46.3,51.2c0.1,0.1,0.3,0.2,0.1,0.4C46.4,51.4,46.3,51.3,46.3,51.2z"/>
		<path class="st1" d="M53.1,51.7c0,0,0.1,0,0.1,0c-0.1,0-0.1,0.1-0.2,0.1C53.1,51.8,53,51.7,53.1,51.7z"/>
		<path class="st1" d="M54.8,51.3c0,0.1-0.3,0.3-0.6,0.4L54.8,51.3z"/>
		<path class="st1" d="M56.6,51.1c0.2,0,0.2,0.1,0,0.2C56.5,51.2,56.6,51.1,56.6,51.1z"/>
		<path class="st1" d="M56.6,50.8c0.1-0.1,0.2,0,0.3,0C56.8,50.7,56.6,51,56.6,50.8z"/>
		<path class="st1" d="M59.5,49.4C59.5,49.4,59.5,49.3,59.5,49.4C59.5,49.3,59.5,49.6,59.5,49.4z"/>
		<path class="st1" d="M59.7,49.2C59.7,49.2,59.7,49.3,59.7,49.2c0,0.1,0,0.1,0,0.2L59.7,49.2z"/>
		<polygon class="st1" points="70.7,65.9 70.7,65.7 70.8,65.7 		"/>
		<path class="st1" d="M64,75.9c-0.1,0.2-0.2,0-0.2,0C63.9,75.8,63.8,76,64,75.9z"/>
		<polygon class="st1" points="58.9,79.2 59,79.2 58.8,79.4 		"/>
	</g>
	<g>
		<path class="st1" d="M74.4,38.5c0.2-0.1,0.1,0.2,0.1,0.4h-0.4L74.4,38.5z"/>
		<path class="st1" d="M73.8,39.6l-0.6,0.3l0.4-0.3c0.1-0.5-0.3-0.1-0.5,0C73.6,39,73.6,39.6,73.8,39.6z"/>
		<path class="st1" d="M72.9,40.4c-0.2,0.3-0.3,0.1-0.3-0.1C72.7,40.4,72.9,40.3,72.9,40.4z"/>
		<polygon class="st1" points="62.1,62 62.1,62 62.1,62 		"/>
		<path class="st1" d="M63,53.6c0.3-0.3,0.4-0.6,0.6-1l-0.1-0.3c0.3-0.4,0.3-0.1,0.6-0.3c0-0.5,0.6-1.1,0.7-1.3
			c0-0.2-0.2,0.1-0.3,0.1c0.3-0.4,0.6-0.3,0.9-0.9l-0.1,0c1.1-1.2,2.1-3,3.2-4.4c0,0.1,0,0.1,0,0.2c1.1-1.5,2.2-3.3,3.6-4.2
			c-0.6,0.8-1.2,2.5-2.1,3.1c0,0.4-0.6,0.8-0.4,1c-0.6,1.3-1.4,1.6-2.1,2.8c-0.1,0.2,0.1,0.2,0.2,0.3l0.7-0.9L68,48.4
			c0.3-0.2,0.5-0.9,0.8-0.8c-0.7,0.7-1.3,2.1-2,2.7c0.1-0.4,0.4-0.8,0.7-1.2c0-0.2,0.1-0.5,0-0.6c-1,1-1.4,2.1-2.1,3.2
			c-0.2,0.3-0.4,0.7-0.3,0.8c0.1-0.2,0.2,0,0.3-0.1c-0.3,0.4-0.5-0.2-0.7,0.5l0.4,0.1c-0.6,0-0.3,0.8-0.8,1.1c0.1,0.2,0.3,0,0.5-0.3
			c-0.1,0.4-0.4,0.3-0.5,0.7l0.5-0.1c-0.5,0.2-0.2,0.6-0.2,0.9c-0.1,0-0.3-0.3-0.5,0.1c0,0.2,0.1,0.2,0.1,0.2
			c-0.1,0-0.3,0.1-0.5,0.3c0.1,0.1,0.3-0.1,0.4-0.1c-0.1,0.2-0.2,0.4-0.2,0.6c-0.3,0.3-0.2-0.1-0.4,0.1c-0.2,0.6,0.4,0.2,0.5,0.6
			c0.4-0.3,0.7-0.9,0.9-1.1l-0.5,0.8c0.2,0,0,0.7,0.3,0.3c-0.3,0.9-0.8,1.8-1.3,2.5c0-0.1,0-0.3-0.1-0.3c-0.3,0.4-0.1,0.4,0,0.5
			c-0.2,0.3-0.5,0.1-0.7,0.2c-0.1,0.7-0.2,0.8-0.2,1.4l-0.2-0.1c0,0.5-0.3,0.4-0.4,0.8c0,0,0.2-0.1,0.3-0.2
			c-0.2,0.3,0.1,0.4-0.2,0.7l0.4-0.2c-0.1,0.3-0.4,0.7-0.1,0.6c-0.5,0.4-0.7,1.3-1.1,1.9l0.2,0c-0.4,0.2-0.4,1.2-0.8,1.4l0.1,0.1
			L60,67.1c-0.1,0.3,0.3,0.3,0.2,0.3c-0.1,0.3-0.3,0.6-0.3,0.9l-0.1,0.4l0,0.1l0,0v0l0,0l0,0l0,0c1.4-0.2-2,0.3-1.6,0.3h0v0l0,0
			L58,68.9c0.2-0.3-0.2-1-0.4-1.5c-1.5-2.6-1.7-5.6-2.3-8.1c-0.1-0.4,0-1-0.1-1.5c0.3,0.5,0.2,0.6,0.4,1.2c0.2,0.4,0.6,0.4,0.9,0.7
			l-0.3-0.1c0,0.6,0.3,0.4,0.2,0.9l0.4-0.1c-0.2,0.2,0.1,0.6,0.3,0.7l-0.2,0.2c0.3,0.3,0.4,0.5,0.7,0.6l-0.3,0
			c0.2,0.1,0.4,1.4,0.7,0.8c0,0.1-0.1,0.3,0,0.5l0.3,0c0,0.3,0.1,0.7,0.3,0.7c0-0.2,0.1-0.3,0.2-0.4c0.5,1.3-0.7,0.5-0.4,1.7
			l0.2-0.1l-0.1,0.4l0.3,0.2c-0.4,0.6,0.7,1.5,0.9,2.2l0,0l0,0l0,0l0,0h0l0,0l0,0c-3,0.5-0.8,0.1-1.5,0.2l0,0l0,0l0-0.1l0-0.3
			c0-0.2,0-0.5,0.1-0.7l0.2,0.1c-0.1-0.5,0.3-2.2-0.1-2.9c0.3-0.4,0,0.1,0.2,0.1c0.5-0.7,0.2-0.9,0.2-1.4c0.3-0.5-0.1,0.4,0.2,0.2
			c0.1-0.8,0.5-0.5,0.8-1.5c-0.1-0.1-0.2,0.2-0.3,0.3c0.5-0.6,0.8-1.9,1.3-2.8c0.3-1.2,0.9-2.9,1.4-4.2l0.1,0c0-0.6,0.5-1.1,0.7-1.8
			L63,53.6z"/>
		<path class="st1" d="M69.2,47.5l0.1,0.2l-0.5,0.5C68.8,47.8,69,47.8,69.2,47.5z"/>
		<polygon class="st1" points="68.5,47.2 68.8,47 68.5,47.5 		"/>
		<path class="st1" d="M62.4,62.3c0.2-0.1,0.2-0.3,0.3-0.4L62.4,62.3L62.4,62.3z"/>
		<path class="st1" d="M61.3,67.6c-0.4,0.1-0.1,0.4-0.4,0C61.1,67.4,61.2,67.7,61.3,67.6z"/>
		<path class="st1" d="M60.4,68.6c0.1-0.2,0.1-0.3,0.2-0.4C60.7,68.6,60.5,68.5,60.4,68.6z"/>
	</g>
</g>
</svg>
