<?xml version="1.0" encoding="UTF-8" standalone="no"?>
<svg width="125px" height="125px" viewBox="0 0 125 125" version="1.1" xmlns="http://www.w3.org/2000/svg" xmlns:xlink="http://www.w3.org/1999/xlink" xmlns:sketch="http://www.bohemiancoding.com/sketch/ns">
    <!-- Generator: Sketch 3.4.4 (17249) - http://www.bohemiancoding.com/sketch -->
    <title>drugs1</title>
    <desc>Created with Sketch.</desc>
    <defs></defs>
    <g id="Page-1" stroke="none" stroke-width="1" fill="none" fill-rule="evenodd" sketch:type="MSPage">
        <g id="drugs1" sketch:type="MSLayerGroup" transform="translate(2.000000, 3.000000)">
            <g id="Layer_1" sketch:type="MSShapeGroup">
                <g id="Group">
                    <path d="M35.2195122,92.097561 L34.8292683,92 C26.1463415,89.0731707 21.4634146,79.6097561 24.4878049,71.0243902 L38.7317073,29.0731707 C41.6585366,20.3902439 51.1219512,15.7073171 59.7073171,18.7317073 L60.097561,18.8292683 C68.7804878,21.7560976 73.4634146,31.2195122 70.4390244,39.804878 L56.195122,81.7560976 C53.3658537,90.3414634 43.902439,95.0243902 35.2195122,92.097561 L35.2195122,92.097561 Z M31.4146341,50.6341463 L63.2195122,60.6829268 L31.4146341,50.6341463 Z" id="Shape" stroke="#000000" stroke-width="2"></path>
                    <path d="M35.1219512,55.6097561 C35.1219512,55.6097561 30.6341463,69.9512195 29.3658537,74.2439024 C28.097561,78.5365854 30.8292683,84.7804878 35.804878,87.0243902 M69.7560976,71.3170732 L85.9512195,64.195122" id="Shape" stroke="#000000" stroke-width="2"></path>
                    <circle id="Oval" stroke="#FFFFFF" stroke-width="5" cx="60.3902439" cy="59.7073171" r="59.5121951"></circle>
                    <circle id="Oval" stroke="#000000" stroke-width="2" cx="60.3902439" cy="59.7073171" r="59.5121951"></circle>
                    <path d="M67.804878,60.3902439 C71.0243902,59.902439 74.6341463,59.6097561 78.4390244,59.6097561 C92.195122,59.6097561 103.317073,63.3170732 103.317073,67.804878 C103.317073,70.4390244 99.6097561,72.7804878 93.8536585,74.2439024 C89.6585366,75.3170732 84.2926829,76 78.4390244,76 C72.7804878,76 67.5121951,75.4146341 63.3170732,74.3414634" id="Shape" stroke="#000000" stroke-width="2"></path>
                    <path d="M103.219512,67.804878 L103.219512,80.6829268 C103.219512,85.2682927 92.097561,88.8780488 78.3414634,88.8780488 C70.7317073,88.8780488 64,87.804878 59.4146341,85.9512195" id="Shape" stroke="#000000" stroke-width="2"></path>
                </g>
            </g>
        </g>
    </g>
</svg>