<?xml version="1.0" encoding="UTF-8" standalone="no"?>
<svg width="125px" height="125px" viewBox="0 0 125 125" version="1.1" xmlns="http://www.w3.org/2000/svg" xmlns:xlink="http://www.w3.org/1999/xlink" xmlns:sketch="http://www.bohemiancoding.com/sketch/ns">
    <!-- Generator: Sketch 3.4.4 (17249) - http://www.bohemiancoding.com/sketch -->
    <title>drugs1</title>
    <desc>Created with Sketch.</desc>
    <defs></defs>
    <g id="Page-1" stroke="none" stroke-width="1" fill="none" fill-rule="evenodd" sketch:type="MSPage">
        <g id="drugs1" sketch:type="MSLayerGroup" transform="translate(1.000000, 1.000000)" stroke-width="2" stroke="#000000">
            <g id="Layer_1" sketch:type="MSShapeGroup">
                <g id="Group">
                    <path d="M48.1,99.4 L47.7,99.3 C38.8,96.3 34,86.6 37.1,77.8 L51.7,34.8 C54.7,25.9 64.4,21.1 73.2,24.2 L73.6,24.3 C82.5,27.3 87.3,37 84.2,45.8 L69.6,88.8 C66.7,97.6 57,102.4 48.1,99.4 L48.1,99.4 Z M44.2,56.9 L76.8,67.2 L44.2,56.9 Z M48,62 C48,62 43.4,76.7 42.1,81.1 C40.8,85.5 43.6,91.9 48.7,94.2" id="Shape"></path>
                    <circle id="Oval" cx="61.9" cy="61.2" r="61"></circle>
                </g>
            </g>
        </g>
    </g>
</svg>