<?xml version="1.0" encoding="utf-8"?>
<!-- Generator: Adobe Illustrator 19.1.0, SVG Export Plug-In . SVG Version: 6.00 Build 0)  -->
<svg version="1.1" id="Layer_1" xmlns="http://www.w3.org/2000/svg" xmlns:xlink="http://www.w3.org/1999/xlink" x="0px" y="0px"
	 viewBox="925.9 -872.8 124 124" style="enable-background:new 925.9 -872.8 124 124;" xml:space="preserve">
<style type="text/css">
	.st0{fill:none;stroke:#000000;stroke-width:2;stroke-miterlimit:10;}
	.st1{fill:none;stroke:#000000;stroke-width:2;stroke-linecap:round;stroke-linejoin:round;stroke-miterlimit:10;}
</style>
<g>
	<path class="st0" d="M962.1-777.6l-0.4-0.1c-8.9-3-13.7-12.7-10.6-21.5l14.6-43c3-8.9,12.7-13.7,21.5-10.6l0.4,0.1
		c8.9,3,13.7,12.7,10.6,21.5l-14.6,43C980.7-779.4,971-774.6,962.1-777.6z M958.2-820.1l32.6,10.3"/>
	<path class="st1" d="M962-815c0,0-4.6,14.7-5.9,19.1c-1.3,4.4,1.5,10.8,6.6,13.1 M997.5-798.9l16.6-7.3"/>
	<circle class="st1" cx="987.9" cy="-810.8" r="61"/>
	<path class="st1" d="M995.5-810.1c3.3-0.5,7-0.8,10.9-0.8c14.1,0,25.5,3.8,25.5,8.4c0,2.7-3.8,5.1-9.7,6.6
		c-4.3,1.1-9.8,1.8-15.8,1.8c-5.8,0-11.2-0.6-15.5-1.7"/>
	<path class="st1" d="M1031.8-802.5v13.2c0,4.7-11.4,8.4-25.5,8.4c-7.8,0-14.7-1.1-19.4-3"/>
</g>
</svg>
