<svg xmlns="http://www.w3.org/2000/svg" viewBox="0 0 2000 2000">
    <g fill="none" stroke="#000" stroke-width="20" stroke-miterlimit="10">
        <path
            d="M588.7 1529.7l-6.9-2.3C440 1479.4 364 1325.5 412 1183.7l232.5-686.5c48-141.8 201.9-217.8 343.7-169.8l6.9 2.3c141.8 48 217.8 201.9 169.8 343.7l-232.5 686.5c-48 141.8-201.9 217.9-343.7 169.8zM525.1 852.1l519.7 164.6"/>
        <path stroke-linecap="round" stroke-linejoin="round"
              d="M586 934.4s-74 233.7-94 304.7C472 1310 516 1412 598 1448M1152 1191.2l264-117.2"/>
        <circle stroke-linecap="round" stroke-linejoin="round" cx="999" cy="1000.3" r="973"/>
        <path stroke-linecap="round" stroke-linejoin="round"
              d="M1120.3 1011.9c52.5-8.2 111.2-12.8 173.1-12.8 224.6 0 406.6 60.2 406.6 134.4 0 42.8-60.4 80.9-154.6 105.5-69.3 18.1-156.8 28.9-252 28.9-93 0-178.8-10.3-247.3-27.7"/>
        <path stroke-linecap="round" stroke-linejoin="round"
              d="M1700 1133.6v211c0 74.2-182.1 134.4-406.6 134.4-123.9 0-234.9-18.3-309.5-47.2"/>
    </g>
</svg>