<?xml version="1.0" encoding="utf-8"?>
<!-- Generator: Adobe Illustrator 19.1.0, SVG Export Plug-In . SVG Version: 6.00 Build 0)  -->
<svg version="1.1" id="Layer_1" xmlns="http://www.w3.org/2000/svg" xmlns:xlink="http://www.w3.org/1999/xlink" x="0px" y="0px"
	 viewBox="0 0 120 120" style="enable-background:new 0 0 120 120;" xml:space="preserve">
<style type="text/css">
	.st0{fill:#A4D55D;}
	.st1{fill:#003E52;}
</style>
<g>
	<path class="st0" d="M55.8,55.7c4.1-3.4,10.6-3.1,14.8,1.1c5.1,5,0.9,14.3-5.6,17.3c-15.8,7.8-20.2-12.2-8.3-18.1"/>
	<g>
		<path class="st1" d="M52.6,56.9c0-0.2-0.1,0-0.2,0.1L52.6,56.9z"/>
		<path class="st1" d="M52.4,57L52.3,57L52.4,57z"/>
		<path class="st1" d="M51.2,57.6c0.2-0.3,0.6-0.3,0.7-0.6C51.5,57.1,51.1,57.4,51.2,57.6z"/>
		<polygon class="st1" points="51.7,57.5 51.6,57.4 51.5,57.7 		"/>
		<polygon class="st1" points="51.9,57.5 51.8,57.4 51.5,57.8 		"/>
		<path class="st1" d="M50.3,58.2l0.2-0.2c0.3-0.1,0,0.3,0.2,0.2c0.3-0.2-0.1-0.3,0.3-0.6c-0.1-0.1-0.6,0.5-0.7,0.3
			C50,58.1,50.4,58,50.3,58.2z"/>
		<path class="st1" d="M53.3,72.5L53.3,72.5C53.3,72.5,53.3,72.5,53.3,72.5z"/>
		<polygon class="st1" points="57.9,74 58.1,74.1 58,74 		"/>
		<path class="st1" d="M50.5,71.1L50.4,71C50.4,71,50.4,71.1,50.5,71.1z"/>
		<polygon class="st1" points="76.3,63.6 76.3,63.6 76.4,63.6 76.3,63.5 		"/>
		<path class="st1" d="M63.2,73.9l0.2,0C63.3,73.9,63.3,73.9,63.2,73.9z"/>
		<polygon class="st1" points="49.2,69.9 49.2,70 49.2,69.9 49.2,69.9 		"/>
		<path class="st1" d="M56.4,73.3l0.2,0.1L56.4,73.3z"/>
		<path class="st1" d="M46.9,61.7c-0.1,0.1-0.1,0.2-0.1,0.2C46.8,61.9,46.9,61.9,46.9,61.7z"/>
		<path class="st1" d="M46.2,63.6L46.2,63.6C46.2,63.6,46.2,63.6,46.2,63.6z"/>
		<path class="st1" d="M46.1,64.9L46.1,64.9C46,64.9,46,64.9,46.1,64.9z"/>
		<path class="st1" d="M46.8,62c-0.1,0.1-0.4,0.1-0.2,0.4l0.1,0c-0.1,0.1-0.1,0.3-0.1,0.4l0.1,0c0-0.1,0.1-0.2,0.2-0.3
			C46.9,62.3,46.8,62.1,46.8,62z"/>
		<path class="st1" d="M53.2,72.5C53.2,72.5,53.1,72.4,53.2,72.5L53.2,72.5z"/>
		<path class="st1" d="M51.8,71.9l0.1,0.1L51.8,71.9z"/>
		<path class="st1" d="M48,67.9L48,67.9C48.1,67.9,48,67.9,48,67.9z"/>
		<path class="st1" d="M52,72.1L51.9,72L52,72.1z"/>
		<path class="st1" d="M48.8,69.3L48.8,69.3L48.8,69.3z"/>
		<path class="st1" d="M56.4,51.7c0.1,0,0.2,0,0.3,0c0.2-0.2-0.6,0-0.2-0.2l-0.3,0.1l0.2,0.2C56.7,51.7,56.3,51.7,56.4,51.7z"/>
		<path class="st1" d="M76.5,61.9L76.5,61.9c0.1,0,0.1,0,0.1-0.2c-0.2-0.2-0.3,0.2-0.5-0.1l0,0.2C76.2,61.7,76.4,61.8,76.5,61.9z"/>
		<path class="st1" d="M76.1,61.9L76.1,61.9L76.1,61.9l0,0.2C76.1,62,76.1,62,76.1,61.9z"/>
		<path class="st1" d="M60.6,51.6l0.1,0C60.7,51.5,60.7,51.5,60.6,51.6z"/>
		<path class="st1" d="M63.1,76.4l-0.2,0.1C63,76.5,63.1,76.4,63.1,76.4z"/>
		<polygon class="st1" points="76.4,65 76.3,65.1 76.3,65.2 		"/>
		<path class="st1" d="M71.4,57.7c0.2-0.1-0.1,0-0.1-0.2l-0.2,0C71.1,57.6,71.3,57.7,71.4,57.7z"/>
		<polygon class="st1" points="56.3,51.6 56.3,51.6 56.3,51.6 		"/>
		<path class="st1" d="M66.8,55.4L66.8,55.4L66.8,55.4z"/>
		<path class="st1" d="M76.2,63l0,0.7l0-0.2C76.2,63.5,76.4,63.1,76.2,63z"/>
		<path class="st1" d="M73.2,59.7l-0.1,0.1c0.6,0.3,0.6,1.1,1.1,1.4c-0.2,0.8,0.6,0.3,0.3,1.1l0.1,0c0.4,2.2-0.7,4.4-1.9,6.2
			l-0.1-0.1c-2.3,2.8-5.2,4.9-8.8,5.3c-0.3,0.1-0.1,0.3-0.4,0.5c-0.1,0-0.4,0-0.4-0.1c0.2-0.1,0.1-0.2,0.2-0.2c-0.4,0-0.9,0-1.3,0.1
			l0.3,0.1c-0.1,0.1-0.4,0-0.5,0c0.1-0.1-0.1-0.2,0-0.3c-0.8,0.4-0.6-0.1-1.2,0c-0.1,0.3-1,0.5-1.6,0.6l-0.3-0.1
			c0.4,0.1,0-0.2,0.5-0.1c-0.4-0.2-0.8-0.1-1.1-0.2c0.1,0.1,0,0.2-0.1,0.2c-0.2-0.1-0.2-0.2-0.5-0.3l0.3,0c-0.1-0.2-0.3,0-0.5,0
			c0-0.1-0.4-0.3-0.3-0.4c-0.4,0.1-0.5-0.1-0.9-0.1c0.3,0.2-0.1,0.1-0.1,0.3l0.4,0.1c-0.6-0.3,0.2,0,0.2-0.2c0.3,0.2-0.5,0.2,0,0.3
			c-0.6-0.1-0.7-0.2-1.3-0.2c0.4,0.1-0.1,0.1,0,0.2c-0.4-0.2-0.1-0.1-0.2-0.3c-0.2-0.1-0.3-0.2-0.6-0.2c-0.3-0.2,0.1-0.1,0-0.3
			c0.2-0.1,1,0.6,1.1,0.1c0.2,0.1,0.5,0,0.8,0.1c-0.2-0.1-0.5-0.4-0.9-0.4l-0.1,0.3c-0.2-0.1-0.4,0.1-0.5,0c0.1,0,0-0.2-0.2-0.3
			c0,0.1,0.1,0.1,0.1,0.1c-0.3-0.1-0.5,0-0.9-0.1c0.3,0.2,0.3,0.3,0.6,0.6c-0.2,0.1-0.2-0.1-0.4-0.1c0,0,0.1,0,0-0.1l-0.2,0
			c-0.4-0.3,0.2-0.2-0.1-0.5c-0.2-0.2-0.4-0.1-0.5-0.3l0,0.1l-0.1-0.1l0,0c-0.2-0.1-0.4-0.2-0.6-0.1c0-0.1-0.2-0.1-0.3-0.1
			c-0.1,0-0.5-0.1-0.6-0.4l0,0c-0.2-0.2-0.4-0.4-0.3-0.4l-0.4-0.3l0.2-0.1c-0.4-0.2-0.4-0.1-0.8-0.1c-0.2-0.3-0.6-0.6-0.8-0.7
			l-0.1-0.1l0.1,0.2c-0.2-0.3-0.3-0.2-0.4-0.3c0,0,0,0.1,0-0.1l-0.1-0.1c0,0,0.1,0,0.1,0.1l0-0.1c0-0.3-0.4-0.2-0.5-0.5l0.1,0.1
			c-0.1-0.2,0-0.5-0.2-0.5c0,0-0.1-0.1-0.1-0.1l0-0.1l0,0.1c-0.1,0-0.2-0.1-0.2-0.1l-0.2-0.4c0-0.1-0.1-0.2-0.2-0.2l0-0.1
			c-0.1-0.1,0-0.1,0-0.1c0-0.6-0.5-0.7-0.4-1.3c-0.2-0.1-0.2,0.2-0.2,0.2c-0.1-0.1-0.3-0.4-0.4-0.5c0.1-0.3,0.2-1.1,0.5-1
			c0-0.4-0.1,0.1-0.3-0.1l0-0.1c0,0.2-0.1,0.3-0.2,0.4c-0.1,0.1-0.2-0.4-0.2-0.5l0.2,0.1c-0.1-0.4-0.4-0.3-0.5-0.7
			c0.1-0.4,0.3-0.1,0.5-0.2c0-0.1,0-0.3,0-0.4l0.1,0c0-0.2-0.1-0.3,0-0.6c0.1,0.3,0.3-0.4,0.4-0.1c0.1-0.2-0.1-0.3,0.1-0.3
			c-0.1-0.2-0.1,0.1-0.2,0.2c-0.3,0,0.1-0.4,0.1-0.6c0.1,0,0.1,0.2,0.2,0c-0.1-0.1-0.1-0.3,0.1-0.4c-0.1-0.1,0.1-0.3,0.2-0.4
			c-0.1,0.1-0.3,0.3-0.4,0.1c0-0.1,0.1-0.3,0.2-0.5l-0.2,0.1c0-0.3,0.4-0.3,0.5-0.6c0,0.2-0.1,0.3-0.1,0.4c0-0.2,0.1-0.5,0.3-0.8
			l0.4-0.1c-0.1-0.1,0.2-0.3,0.1-0.4c0.3-0.2-0.1,0.4,0,0.5c0.4-0.3,0-0.5,0.5-0.6l0,0.2c0.1-0.1,0.3-0.4,0.3-0.3c0,0-0.1,0-0.1,0.1
			c-0.1-0.3,0.4-0.6,0.1-0.8l-0.2,0.1c0.2-0.3,0.2-0.6,0.5-0.7c0.2,0,0,0.2,0,0.4c0.3-0.2,0-0.4,0.3-0.6c-0.2,0.1-0.2,0-0.2-0.2
			c-0.2,0.1-0.6,0.4-0.4,0.4l0.1,0c0,0.1,0,0.2-0.1,0.2c-0.2,0.2-0.2,0-0.3,0c-0.4,0.3,0.2,0.3-0.2,0.6l-0.1,0
			c-0.1,0.2-0.3,0.4-0.2,0.6c-0.3,0-0.3,0.4-0.5,0.5c-0.4-0.3,0.5-0.6,0.5-0.9c-0.2,0.1-0.1-0.2,0-0.4l-0.4,0.7
			c-0.1,0-0.4,0-0.4,0.2l0,0c-0.2,0.3,0,0.3-0.2,0.5c-0.1,0-0.1-0.1-0.1-0.1c-0.2,0.2,0,0.2-0.1,0.4c-0.2,0.2-0.1-0.2-0.2-0.1
			c0,0.3-0.3,0.4-0.4,0.6c0.3,0-0.2,1,0.3,0.6c-0.1,0.2-0.1,0.4-0.1,0.6C47.3,62.6,47.3,62,47,62l0.2-0.4c-0.4-0.1-0.2,1-0.7,1.1
			c-0.1,0.2,0,0.2-0.3,0.6l0.3,0c-0.1,0.2-0.3,0.3-0.3,0.3L46.1,64c0,0-0.1-0.1-0.1-0.2C45.9,64,46,64.1,46,64.1
			c0.1,0.1,0,0.3,0,0.4L46,64.4c0,0.1,0,0.2,0.1,0.2l0,0.2c0.1,0,0.2-0.1,0.3-0.4c-0.2,0.6,0,1-0.2,1.5c-0.1,0-0.2-0.2-0.2-0.1
			c0,0.3,0.2,0.5,0.3,0.5l0,0.1c-0.1,0.1-0.1,0.1-0.1,0.3c0,0,0,0.1,0,0.2c0.2,0,0.3,0.5,0.4,0.6c0-0.1-0.1-0.2-0.1-0.4
			c0.2,0.1,0.4,0.2,0.4,0.4c-0.3-0.3-0.1,0.5-0.3,0c-0.1,0.5,0.3,0.1,0.3,0.5l0,0.3c-0.2,0-0.3-0.4-0.3-0.3l0.1,0.2
			c-0.2-0.1-0.4-0.8-0.7-1.2c0,0.3,0.1,0.6,0.2,0.9c0.6,1,1.2,2.3,2.1,2.8l0,0l0.1,0l0,0.1l0.2,0.1c0,0.3,0.3,0.6,0.4,0.9
			c-0.1-0.2-0.1-0.2,0-0.3c0.1-0.1,0.2-0.1,0.4,0.1c-0.1,0.1-0.2,0-0.1,0.2c0-0.1,0.1-0.1,0.2,0c0.1,0.2,0.3,0.4,0.2,0.5
			c-0.1,0-0.1-0.1-0.1-0.1c-0.1,0,0.2,0.3-0.1,0.2l0.3,0.2c0.1,0.2-0.2,0-0.2,0.1c0.5,0.3,0.8,0.2,1.3,0.4c-0.1,0-0.2,0.2-0.2,0.2
			c0.3,0.3,0.8,0.2,1.2,0.4c-0.1,0-0.2-0.1-0.3-0.1c1,0.7,1.9,1.2,2.9,1.8l0.4-0.1l0.2,0.3c1.1,0.6,2.1,0.6,3.3,0.8
			c0.4,0,0.2,0.2,0.3,0.3c0.8,0.2,1-0.1,1.8-0.1c-0.1,0.1-0.3,0.3,0,0.3c0.1-0.1,0.1-0.2,0.3-0.1l-0.1,0.1c0.2,0.1,0.4,0,0.8,0.1
			c0.7,0,1.4-0.2,1.9-0.6c0.6,0,0,0.3,0.1,0.3c-0.4-0.1-0.3,0.1-0.4,0.2c0.2-0.1,0.5-0.2,0.6,0c0.3,0,0.5-0.1,0.8-0.3
			c-0.2,0.1-0.3,0-0.2-0.1c0.3,0,0.9-0.2,0.9,0.1c1.5-0.4,3.2-1,4.6-1.8c0.2-0.3-0.2,0.1-0.1-0.1c0.3-0.4,0.3-0.1,0.5-0.4l0,0.2
			c0.4-0.2,0.7-0.7,1-1.1c0,0.2,0.4-0.1,0.1,0.2c0.2-0.2,0.8,0.2,0.9,0l-0.6-0.3c0-0.1,0.2-0.2,0.2-0.2c0.3,0,0.5-0.1,0.6-0.2
			c0.1,0.1-0.1,0.3-0.3,0.4c0.2,0.2,0.6-0.3,0.5,0c0.3-0.3-0.1-0.1,0-0.3l0.3-0.2l-0.3,0.1c0.2-0.3,0.1-0.5,0.5-0.6l0.1-0.5
			c0.2,0.1,0.2-0.2,0.4-0.3l0,0.2c0.2-0.2,0.3-0.3,0.4-0.4c0,0.2-0.2,0.2-0.1,0.3l0.2-0.2c-0.1-0.1,0-0.3-0.2-0.2
			c0-0.4,0-0.6,0.4-1.1c0.4-0.1-0.1,0.4,0.2,0.4c0.5-0.6,0.1-1.1,0.4-1.4c0.4-0.4,0.2-0.5,0.4-1c0,0.2,0.3-0.3,0.5-0.3l0,0.3
			c0-0.2,0.2-0.3,0.2-0.2c-0.2,0,0.2-0.7,0.2-1.2l-0.2,0c0-0.3,0.1-0.7,0.2-1c0-0.5-0.1-0.4-0.2-0.8c0.2-0.2,0.3-0.1,0.5-0.1
			c-0.1,0.1-0.1,0.3-0.2,0.5c0.1,0.6,0.2,1.2-0.1,1.8c0.3,0.4,0.1-0.4,0.3-0.7l0,0.1l0-0.1c0,0.2-0.1,0.6,0.1,0.7
			c0.1-0.4-0.3-0.4,0-0.8c0-0.4,0.3-0.6,0.4-0.8c-0.1-0.3-0.4-0.3-0.3-0.9l0.2,0.3c0.1-0.7-0.3-0.3-0.3-0.9c0,0.2-0.2-0.2-0.2,0.2
			c-0.1-0.2-0.1-0.6-0.1-0.9c0-0.1-0.1,0-0.1,0c-0.1,0.4,0.2,0.5,0,0.8l0.2,0.2c-0.1,0.3-0.3,0.3-0.3,0.1c0,0.1,0,0.2,0,0.2
			c-0.3,0,0.2-0.4-0.1-0.5l0,0.2c-0.2,0.1-0.2-0.5-0.2-0.8c0.1-0.3,0.1-0.6,0.2-0.6c0,0.1,0.1,0.3,0.1,0.4c0.1-0.2-0.2-0.5-0.2-0.8
			l0-0.1l0,0l0-0.2c0-0.2-0.2-0.5-0.2-0.7l-0.1,0.1h0.1c0.1,0.2,0.1,0.5-0.1,0.4c-0.2-0.4,0-0.6,0.1-0.7c0.2,0,0.1,0.4,0.3,0.6
			c0.2-0.2-0.1-0.4-0.2-1c0.3,0.1,0.2,0.5,0.4,0.6c-0.1-0.4-0.3-0.4-0.4-0.9c0.1,0,0.3,0.4,0.4,0.3l0-0.3c0.2,0.6,0.2-0.2,0.5,0.3
			c0-0.3-0.3-0.3-0.3-0.7c0,0.1-0.1,0.5-0.3,0.2l-0.1-0.4c0-0.2,0.4,0.3,0.4,0l-0.3-0.3c-0.1,0,0,0.2-0.1,0.2c0-0.2-0.4-0.2-0.6-0.4
			c-0.1-0.2-0.2-0.3-0.2-0.4c-0.5-0.3-0.9-0.8-1.3-1c0.3,0.1,0.2-0.2,0.1-0.4c0.3,0.3,0.4,0.1,0.5,0c-0.2-0.2-0.4-0.1-0.4,0
			c-0.2-0.3-0.3-0.1-0.4-0.4c-0.1-0.2,0.2-0.1,0.2-0.2c-0.3-0.3-0.3,0.1-0.6-0.2c0,0,0.1,0,0.1,0c-0.2-0.2-0.4-0.3-0.5-0.2
			c0-0.4-0.6-0.4-0.4-0.6c-0.5-0.3,0,0.2-0.2,0.2c-0.3,0-0.6-0.4-0.7-0.5c0.1,0.1,0.3,0.1,0.4,0.2l0-0.2c-0.5-0.5-0.6,0.1-1.1-0.4
			c0.4,0.1,0.2-0.1,0.4-0.1c-0.1,0-0.6-0.3-0.4,0c-0.2-0.1-0.4-0.3-0.5-0.4c-0.2,0-0.5-0.1-0.7-0.1c-0.3-0.2-0.5-0.4-0.6-0.6
			c-0.8-0.2-1.3-0.7-2.2-0.8l0.1,0c-0.6-0.2,0.2,0.3-0.4,0.1c0.2-0.2-0.3-0.3-0.5-0.5c-0.7-0.3-1.4-0.2-2.1-0.5c0,0,0.1-0.1,0.2-0.1
			c-0.5-0.2-1-0.2-1.5-0.3l0,0c-0.8-0.3-1.6-0.1-2.4-0.1l0.1-0.1c-0.4-0.1-1.1-0.1-1.4,0.1c-0.5-0.2-0.3,0.1-1-0.1c0,0,0.1,0,0.1,0
			c-0.3-0.1-0.6,0-0.9,0c-0.7,0.2-0.8,0.5-1.7,0.6c-0.1-0.3,0.5-0.2,0.5-0.4c-0.2,0.1-0.3,0.2-0.5,0.1c0.1-0.2,0-0.1,0.1-0.2
			c-0.2-0.1-0.6,0.5-0.6,0.4c0,0.1,0.1,0.1,0.2,0c-0.2,0.2-0.8,0.2-1.2,0.4c0.1,0,0.5-0.1,0.4,0.1c-0.5,0.1-0.6,0.4-0.9,0.6
			c-0.5,0,0.3-0.4,0.1-0.5c-0.1-0.1-0.3-0.2-0.2-0.3c-0.5,0.1-0.7,0.3-1.1,0.5l0-0.1c-0.5,0.2-1,0.7-1.5,0.8l0.3,0
			c-0.1,0.1-0.3,0.2-0.4,0.4c0-0.1-0.4,0-0.3-0.2c-0.1,0.4-1,0.8-1.1,1.2c-0.2,0-0.1-0.2-0.1-0.3c0.3-0.2,0.5-0.2,0.5-0.4
			c-0.3,0.1-0.5,0.2-0.5,0.1c-0.1,0.3-0.7,0.7-0.7,1c-0.2,0-0.4,0.1-0.5-0.1c-0.7,0.6,0.7,0.2-0.1,0.8c-0.5,0.1,0.2-0.4-0.3-0.1
			l0.1-0.1c-0.6-0.1-0.1,0.4-0.4,0.8c-0.2-0.1,0.2-0.4-0.2-0.3c-0.3,0.4-0.2,0.8-0.6,1l0-0.1c-0.2,0.2-0.6,0.6-0.8,0.9
			c0,0,0,0,0-0.1c-0.4,0.4-0.1,0.3-0.5,0.5l0,0.2c0.2-0.1,0.6-0.4,0.7-0.7c-0.1,0.3,0.5-0.1,0.6,0.1l0-0.1c0.8-0.3,1.4-0.9,2.2-1.3
			c0.3-0.5,0.8-0.5,1.2-0.9c-0.1-0.3,0.1-0.1,0.5-0.4c-0.2,0.2,0.1,0.2,0.2,0.2c0-0.1,0.1-0.2,0.3-0.3c0.1,0,0.8,0,1-0.3
			c0.3,0,0,0.1-0.1,0.2c0.2,0.1,0.2-0.2,0.3-0.2l0,0.1c0.4-0.2,0.7-0.2,1.2-0.3c-0.1-0.3,0.4-0.3,0.6-0.4c0,0.1,0.3,0,0.4,0l0.2-0.3
			c0.2-0.2,0.4,0,0.7-0.1l-0.1,0c0.2-0.1,0.9-0.1,1.2,0c2.2-0.8,3.6,0,5.9,0.1c0.2-0.1-0.1-0.2,0-0.3c0.2,0,0.3,0,0.5,0
			c-0.2-0.1-0.2,0-0.1-0.1l-0.4,0c0,0,0,0,0-0.1c-0.1,0-0.3,0.1-0.4,0c0.2,0,0.3-0.3,0.6-0.1c0,0-0.1,0-0.1,0c0.2,0,0.3-0.1,0.4,0
			c0.2,0.1,0.2,0,0.2,0.1l0.7,0.2c0.4-0.2,0.8,0.1,0.9,0.2c-0.1,0.2-0.5-0.1-0.7,0.1l0.2,0.2l0-0.1l0.3,0.1l0,0c0.1,0,0.1-0.1,0.2,0
			c0,0,0,0.1,0,0.1l0.3,0c-0.2,0.1,0.2,0.1,0.1,0.3c0.8,0.3,1,0.1,1.6,0.5c-0.1-0.1,0.3-0.2,0.5-0.1c0.1,0.1,0.1,0.1,0,0.2l0.3,0
			c0.2,0.4,0.6,0.3,1,0.7l-0.1,0.1c0.2,0,0.4,0,0.7,0.2l-0.1,0.1c0.3,0.2,0.4-0.2,0.7,0.1c0.1-0.1-0.1-0.3,0-0.5
			c0,0.2,0.3,0.4,0.3,0.3c0.4,0.1,0.2,0.1,0.2,0.2l0.3,0c0.2,0.1,0,0.2-0.2,0.3c0.3,0,0.5,0.3,0.7,0.4l-0.1,0l0.3,0.2
			c0.3,0,0.6,0.2,0.7,0.5l-0.3,0c0.1,0.2,0.1,0,0.2,0c0.3,0.1,0.3,0.3,0.3,0.5C72.7,58.8,72.7,59.6,73.2,59.7z M48,68L48,68
			C47.9,68,47.8,68,48,68z M49.9,70.5c-0.3-0.2-0.2-0.2-0.2-0.3c0.2,0.3,0.4,0.4,0.6,0.7l0-0.2c0.1,0.1,0.2,0.2,0.1,0.3
			C50.2,71.2,49.8,70.3,49.9,70.5z M46.1,64.2L46.1,64.2L46.1,64.2L46.1,64.2z M46.3,66.3l-0.1,0.2C46.3,66.4,46.4,66.4,46.3,66.3z
			 M47.9,70.2c0,0.1,0.2,0.3,0.3,0.4C48.2,70.5,48.1,70.4,47.9,70.2z M71.5,72.5c-0.1,0.1-0.2,0.3,0,0.2c0-0.1,0.3-0.1,0.3-0.3l0,0
			C71.6,72.5,71.5,72.5,71.5,72.5z M75.6,62c0.1,0,0.2,0.1,0.3,0v0c0,0,0-0.1,0.1,0c0-0.1,0-0.2,0-0.3C75.6,61.7,75.5,61.5,75.6,62z
			"/>
		<path class="st1" d="M76.6,66.1l0-0.1L76.6,66.1z"/>
		<path class="st1" d="M75.9,61.7c0,0,0,0.1,0,0.3C75.9,61.9,75.9,61.9,75.9,61.7z"/>
		<path class="st1" d="M50.2,59.2L50.2,59.2l0.2,0c0.2-0.3,0.2-0.4,0.2-0.6c-0.2,0.3-0.4,0.4-0.7,0.7L50.2,59.2z"/>
		<path class="st1" d="M49.4,58.5c-0.1,0-0.2,0-0.2,0l0,0.1L49.4,58.5z"/>
		<path class="st1" d="M46.1,62.3l0.2-0.4C46.3,61.7,46,62.1,46.1,62.3z"/>
		<path class="st1" d="M48.3,61.5l0-0.2c-0.2,0.1-0.3,0.3-0.2,0.4C48.2,61.4,48.2,61.6,48.3,61.5z"/>
		<path class="st1" d="M45.8,63.3c0.1,0.2-0.2,0.4,0,0.5C45.7,63.7,45.9,63.4,45.8,63.3z"/>
		<path class="st1" d="M47.5,63.5c0.2-0.1,0.1-0.3,0.2-0.4C47.6,63.2,47.4,63.4,47.5,63.5z"/>
		<path class="st1" d="M46.1,65.6c-0.1,0-0.1-0.2-0.1-0.4l0.1,0.2C46,65.1,46,65.1,46,64.8c-0.1,0.3-0.1,0.7-0.3,0.6
			C45.8,65.6,46,65.8,46.1,65.6z"/>
		<path class="st1" d="M47.4,64c0.1-0.2,0.2-0.2,0.3-0.4c-0.1,0-0.2,0-0.3,0.3l-0.1-0.1C47.1,63.9,47.5,63.7,47.4,64z"/>
		<path class="st1" d="M46,66.8l0-0.1c-0.2-0.3-0.2-0.7-0.4-0.8C45.6,66.2,45.8,66.7,46,66.8z"/>
		<path class="st1" d="M47,64.8l0.2,0C47.3,64.6,47.2,64.9,47,64.8c0.1-0.1,0.2-0.2,0.1-0.3C47.2,64.9,47,64.6,47,64.8z"/>
		<path class="st1" d="M47.3,65.6l0.1,0.3l0.2-0.3C47.5,65.3,47.5,65.7,47.3,65.6z"/>
		<path class="st1" d="M47.2,66L47.2,66l0.4,0.4C47.4,66.2,47.4,66.2,47.2,66z"/>
		<path class="st1" d="M49.5,72c0.1,0-0.1-0.3,0-0.2C49.4,71.9,49.6,72.3,49.5,72z"/>
		<path class="st1" d="M49.7,70c0,0.2,0.5,0.4,0.7,0.5C50.2,70.3,49.8,69.9,49.7,70z"/>
		<path class="st1" d="M50.5,70.5L50.5,70.5L50.5,70.5z"/>
		<path class="st1" d="M58.1,73.6L58.1,73.6L58.1,73.6z"/>
		<path class="st1" d="M57.9,73.6c-0.1-0.1-0.4-0.1-0.5,0c0.2,0,0.4,0,0.7,0C58,73.6,57.9,73.5,57.9,73.6z"/>
		<path class="st1" d="M59.8,74c-0.1,0-0.2,0-0.2,0.1C59.6,74.1,59.9,74.1,59.8,74z"/>
		<path class="st1" d="M73.3,71.9c0.2-0.1,0.2-0.2,0.1-0.3C73.2,71.8,73.4,71.7,73.3,71.9z"/>
		<polygon class="st1" points="73.5,71.4 73.6,71.4 73.8,71.4 		"/>
		<path class="st1" d="M74.6,70.4l0,0.1C74.7,70.4,74.7,70.3,74.6,70.4z"/>
		<path class="st1" d="M74.6,70.5L74.6,70.5L74.6,70.5z"/>
		<path class="st1" d="M74.5,70.6L74.5,70.6L74.5,70.6C74.6,70.6,74.5,70.6,74.5,70.6z"/>
		<path class="st1" d="M74.9,70l-0.3,0.1c-0.1,0.3,0.3-0.2,0.3,0.2L74.9,70z"/>
		<path class="st1" d="M75.4,69.2c0.2-0.2,0.1-0.7,0.4-0.7c0.2-0.8-0.4,0-0.1-0.9c-0.5,0.7,0.2,0.6-0.3,1.2
			C75.8,68.6,75.5,69.1,75.4,69.2z"/>
		<path class="st1" d="M75,69.1c0.1,0.1,0.3-0.2,0.3-0.3C75.2,68.8,75,68.9,75,69.1z"/>
		<polygon class="st1" points="76.1,67.8 76.3,67.6 76.3,67.5 		"/>
		<path class="st1" d="M76.5,67l0,0.3C76.6,67.2,76.7,66.9,76.5,67z"/>
		<path class="st1" d="M77.1,65.8c0.1-0.2-0.1-0.5-0.2,0l0-0.1C77,65.7,77.2,65.5,77.1,65.8z"/>
		<path class="st1" d="M76.9,62.7c0,0.2,0,0.3,0.1,0.3c0-0.1,0-0.3-0.1-0.4L76.9,62.7z"/>
		<path class="st1" d="M76.1,62.9c-0.2,0.1,0,0.4,0,0.6C76.1,63.2,76.1,63.2,76.1,62.9z"/>
		<path class="st1" d="M77,62.2c0.1,0.1,0.1,0.3,0.1,0.4C77.2,62.6,77.2,62.3,77,62.2z"/>
		<path class="st1" d="M76.9,61.6c0-0.2,0.1,0,0.1-0.1c0-0.3-0.1-0.6-0.3-0.8c0,0.1-0.2,0.3-0.4,0.2c0.2,0.4,0.6,0.6,0.4,0.9
			l0.4,0.3C77.2,61.7,76.9,61.8,76.9,61.6z"/>
		<path class="st1" d="M76.4,62.6l0.1-0.3c-0.1,0.1-0.2-0.1-0.2-0.2C76,62.2,76.4,62.5,76.4,62.6z"/>
		<polygon class="st1" points="75.7,59.2 75.4,58.8 75.5,58.9 		"/>
		<polygon class="st1" points="75.6,58.9 75.7,58.8 75.3,58.6 		"/>
		<polygon class="st1" points="75.4,58.4 75.4,58.4 75.6,58.6 		"/>
		<path class="st1" d="M74.7,57.5l0,0.1c0.1,0.1,0.2,0.3,0.3,0.2C74.9,57.8,74.7,57.6,74.7,57.5z"/>
		<path class="st1" d="M70.5,57.3c0.1,0,0.1-0.1,0.1-0.2l-0.2,0.1C70.5,57.2,70.5,57.3,70.5,57.3z"/>
		<path class="st1" d="M70.3,56.8l-0.4,0c0.3,0.2,0.4,0.1,0.7,0.3c-0.1-0.1-0.3-0.1-0.4-0.2L70.3,56.8z"/>
		<path class="st1" d="M64.1,54.2c0.1-0.1,0-0.1,0.2-0.1c-0.4,0-0.6-0.1-1-0.1c0.1,0.1-0.3,0.2-0.1,0.2h0.4l-0.1,0.1
			C63.9,54.4,63.8,54.1,64.1,54.2z"/>
		<path class="st1" d="M46.8,57c0-0.1-0.1-0.1-0.2-0.1C46.5,57.2,46.9,57,46.8,57z"/>
	</g>
	<g>
		<path class="st1" d="M43.6,37.3c-0.2-0.1-0.1,0.2-0.1,0.4l0.4,0L43.6,37.3z"/>
		<path class="st1" d="M44.2,38.3l0.6,0.3l-0.4-0.3c-0.1-0.5,0.3-0.2,0.5,0C44.4,37.7,44.4,38.3,44.2,38.3z"/>
		<path class="st1" d="M45.1,39.2c0.2,0.3,0.3,0.1,0.3-0.1C45.3,39.1,45.1,39,45.1,39.2z"/>
		<path class="st1" d="M55.8,61c0-0.1,0-0.3,0-0.3C55.8,60.6,55.7,60.6,55.8,61z"/>
		<polygon class="st1" points="55.9,60.7 55.9,60.8 55.9,60.7 		"/>
		<path class="st1" d="M55,52.3c-0.3-0.3-0.4-0.6-0.6-1l0.1-0.3c-0.3-0.4-0.3-0.1-0.6-0.3c0-0.4-0.6-1.2-0.7-1.3
			c0-0.2,0.2,0.1,0.3,0.1c-0.3-0.4-0.6-0.3-0.9-0.9l0.1,0c-1.1-1.2-2.1-3-3.2-4.4c0,0.1,0,0.1,0,0.2c-1.1-1.5-2.2-3.4-3.6-4.2
			c0.6,0.8,1.2,2.5,2.1,3.1c0,0.4,0.6,0.8,0.4,1c0.6,1.3,1.4,1.6,2.1,2.8c0.1,0.2-0.1,0.2-0.2,0.3l-0.7-0.9l0.2,0.6
			c-0.3-0.2-0.5-0.8-0.8-0.8c0.7,0.7,1.3,2.1,2,2.7c-0.1-0.4-0.4-0.8-0.6-1.2c0-0.2-0.1-0.5,0-0.6c1,1,1.4,2.1,2.1,3.2
			c0.2,0.3,0.4,0.7,0.3,0.8c-0.1-0.2-0.2,0-0.3-0.1c0.3,0.4,0.4-0.2,0.7,0.5L53,51.8c0.6,0,0.3,0.8,0.8,1.1c-0.1,0.2-0.3,0-0.5-0.4
			c0.1,0.4,0.4,0.3,0.5,0.7l-0.5-0.1c0.5,0.2,0.2,0.6,0.2,0.9c0.1,0,0.3-0.3,0.5,0.1c0,0.2-0.1,0.2-0.1,0.2c0.1,0,0.3,0.1,0.5,0.3
			c-0.1,0.1-0.3-0.1-0.4-0.1c0.1,0.2,0.2,0.4,0.2,0.6c0.3,0.3,0.2-0.1,0.4,0.1c0.2,0.6-0.4,0.2-0.5,0.6c-0.4-0.3-0.7-0.9-0.9-1.1
			l0.5,0.8c-0.2,0,0,0.7-0.3,0.3c0.3,0.9,0.8,1.8,1.3,2.5c0-0.1,0-0.3,0.1-0.3c0.3,0.4,0.1,0.4,0,0.5c0.2,0.3,0.5,0.1,0.7,0.2
			c0.1,0.7,0.2,0.8,0.2,1.4l0.2-0.1c0,0.5,0.3,0.4,0.4,0.8c0,0-0.2-0.1-0.3-0.2c0.2,0.3-0.1,0.4,0.2,0.7l-0.4-0.2
			c0.1,0.3,0.4,0.7,0.1,0.6c0.5,0.4,0.7,1.3,1.1,1.9l-0.2,0c0.4,0.2,0.4,1.2,0.8,1.4l-0.1,0.1l0.5,0.5c0.1,0.3-0.3,0.3-0.2,0.3
			c0.1,0.3,0.3,0.6,0.4,0.9l0.1,0.4l0,0.1l0,0l0,0l0,0l0,0l0,0c-1.4-0.2,2,0.3,1.6,0.3h0l0,0l0,0l0.1-0.1c-0.2-0.3,0.2-1,0.4-1.5
			c1.5-2.6,1.7-5.6,2.3-8.1c0.1-0.4,0-1,0.1-1.5c-0.3,0.5-0.2,0.6-0.4,1.2c-0.2,0.4-0.6,0.4-0.9,0.7l0.3-0.1c0,0.6-0.3,0.4-0.2,0.9
			l-0.4-0.1c0.2,0.2-0.1,0.6-0.3,0.7l0.2,0.2c-0.3,0.3-0.4,0.5-0.7,0.6l0.3,0c-0.2,0.1-0.4,1.4-0.7,0.8c0,0.1,0.1,0.3,0,0.5l-0.3,0
			c0,0.3-0.1,0.7-0.3,0.7c0-0.2-0.1-0.3-0.2-0.4c-0.4,1.3,0.7,0.5,0.4,1.7l-0.2-0.1l0.1,0.4l-0.3,0.2c0.4,0.6-0.7,1.5-0.9,2.2l0,0
			l0,0l0,0l0,0h0l0,0l0,0c3,0.5,0.8,0.1,1.5,0.2l0,0l0,0l0-0.1l0-0.3c0-0.2,0-0.5-0.1-0.8l-0.2,0.1c0.1-0.5-0.3-2.2,0.1-2.9
			c-0.3-0.3,0,0.1-0.2,0.1c-0.5-0.7-0.2-0.9-0.2-1.4c-0.3-0.5,0.1,0.4-0.2,0.2c-0.1-0.8-0.5-0.5-0.8-1.5c0.1-0.1,0.2,0.2,0.3,0.3
			c-0.5-0.6-0.8-1.9-1.3-2.8c-0.3-1.2-1-2.9-1.4-4.2l-0.1,0c0-0.6-0.5-1.1-0.7-1.8L55,52.3z"/>
		<path class="st1" d="M48.8,46.2l-0.1,0.2l0.5,0.5C49.2,46.6,49,46.5,48.8,46.2z"/>
		<polygon class="st1" points="49.5,46 49.2,45.7 49.5,46.2 		"/>
		<polygon class="st1" points="53.1,53.2 53.1,53.1 52.3,52.1 		"/>
		<path class="st1" d="M55.6,61c-0.2-0.1-0.2-0.3-0.3-0.4L55.6,61L55.6,61z"/>
		<path class="st1" d="M56.7,66.4c0.4,0.1,0.1,0.4,0.4,0C56.9,66.1,56.8,66.4,56.7,66.4z"/>
		<path class="st1" d="M57.6,67.4c-0.1-0.2-0.1-0.3-0.2-0.3C57.3,67.3,57.5,67.3,57.6,67.4z"/>
	</g>
</g>
</svg>
