<?xml version="1.0" encoding="utf-8"?>
<!-- Generator: Adobe Illustrator 19.1.0, SVG Export Plug-In . SVG Version: 6.00 Build 0)  -->
<svg version="1.1" id="Layer_1" xmlns="http://www.w3.org/2000/svg" xmlns:xlink="http://www.w3.org/1999/xlink" x="0px" y="0px"
	 viewBox="0 0 300 300" style="enable-background:new 0 0 300 300;" xml:space="preserve">
<style type="text/css">
	.st0{fill:#939598;}
	.st1{fill:none;stroke:#6EC4E9;stroke-width:0.5;stroke-miterlimit:10;}
</style>
<g>
	<g>
		<path class="st0" d="M113.8,171.6h-13.1c-0.6,0-1.1-0.5-1.1-1.1l-2.7-23.3c0-0.3,0.2-0.5,0.4-0.5c0.2,0,0.5,0.2,0.5,0.4l2.7,23.4
			c0,0.1,0.1,0.2,0.2,0.2h13.1c0.1,0,0.2-0.1,0.2-0.2l0-0.1l2.7-23.3c0-0.2,0.3-0.4,0.5-0.4c0.2,0,0.4,0.3,0.4,0.5l-2.7,23.3
			C114.9,171.1,114.4,171.6,113.8,171.6z"/>
	</g>
	<g>
		<path class="st0" d="M129.5,136.4l-4.6-7.8c-0.2-0.3-0.5-0.4-0.8-0.2l-15,8.8l5.2,8.7l15-8.8C129.6,137,129.7,136.6,129.5,136.4z"
			/>
	</g>
	<g>
		<path class="st0" d="M103.8,153.6c-0.1,0-0.2,0-0.3-0.1c-0.2-0.2-0.2-0.5-0.1-0.6l6.9-8.2c0.2-0.2,0.4-0.2,0.6-0.1
			c0.2,0.2,0.2,0.5,0.1,0.6l-6.9,8.2C104.1,153.5,103.9,153.6,103.8,153.6z"/>
	</g>
	<g>
		<path class="st0" d="M102.5,148.2c-0.1,0-0.3-0.1-0.4-0.2c-0.1-0.2-0.1-0.5,0.1-0.6l7.5-5c0.2-0.1,0.5-0.1,0.6,0.1
			c0.1,0.2,0.1,0.5-0.1,0.6l-7.5,5C102.7,148.2,102.6,148.2,102.5,148.2z"/>
	</g>
	<g>
		<path class="st0" d="M109.3,153.6c-0.1,0-0.1,0-0.2,0c-0.2-0.1-0.4-0.3-0.3-0.6l2.2-6c0.1-0.2,0.4-0.4,0.6-0.3
			c0.2,0.1,0.4,0.4,0.3,0.6l-2.2,6C109.7,153.5,109.5,153.6,109.3,153.6z"/>
	</g>
	<g>
		<path class="st0" d="M100,157.5l1.3,11.5c0,0.3,0.3,0.6,0.6,0.6h10.6c0.3,0,0.6-0.2,0.6-0.6l1.3-11.5c0,0-3.2,1.7-7.2,0
			C103.2,155.8,100,157.5,100,157.5z"/>
	</g>
</g>
<g>
	<path class="st0" d="M144.1,156.1c-0.1-0.1-0.3-0.2-0.4,0l-5.2,4.1l-2.5-2.5l4.1-5.1c0.1-0.1,0.1-0.3-0.1-0.4
		c-0.1-0.1-0.3-0.1-0.4,0l-4.1,5.2c-0.2,0.2-0.2,0.5,0,0.7l2.6,2.6c0.1,0.1,0.2,0.1,0.4,0.1c0.1,0,0.3-0.1,0.3-0.1l5.2-4.1
		c0.1-0.1,0.1-0.1,0.1-0.2C144.2,156.3,144.2,156.2,144.1,156.1z"/>
	<path class="st0" d="M150.1,158.4c3.3,0,6-2.7,6-6c0-3.3-2.7-6-6-6c-3.3,0-6,2.7-6,6C144.1,155.7,146.8,158.4,150.1,158.4z"/>
	<path class="st0" d="M136.8,171.6h5.6v-4.2h0.8v4.2H157v-4.2h0.8v4.2h4.4v-4.2h0.1c0-0.5,0-1.2,0-2.3c0-5.1-5.8-5.9-12.1-5.9v0
		c0,0,0,0-0.1,0c0,0,0,0-0.1,0v0c-5.8,0-11.1,0.7-12,4.8l-1.8-3.7c-0.5-1.1-1.8-1.6-2.9-1c-1.1,0.5-1.6,1.8-1,2.9L136.8,171.6z"/>
	<g>
		<path class="st0" d="M137.5,156.5l-0.8,1c-0.1,0.1-0.1,0.1,0,0.2l1.8,1.8c0.1,0.1,0.1,0,0.2,0l3.7-2.9l0,0H137.5z"/>
	</g>
</g>
<line class="st1" x1="170" y1="146.6" x2="170" y2="171.6"/>
<line class="st1" x1="126.8" y1="146.6" x2="126.8" y2="171.6"/>
<g>
	<g>
		<g>
			<path class="st0" d="M189.8,171.6c-7.3,0-13.2-5.9-13.2-13.2c0-7.3,5.9-13.2,13.2-13.2c7.3,0,13.2,5.9,13.2,13.2
				C202.9,165.7,197,171.6,189.8,171.6z M189.8,146.3c-6.7,0-12.2,5.5-12.2,12.2c0,6.7,5.5,12.2,12.2,12.2c6.7,0,12.2-5.5,12.2-12.2
				C201.9,151.7,196.5,146.3,189.8,146.3z"/>
		</g>
		<g>
			<path class="st0" d="M189.8,149.4c-0.3,0-0.5-0.2-0.5-0.5v-1.3c0-0.3,0.2-0.5,0.5-0.5c0.3,0,0.5,0.2,0.5,0.5v1.3
				C190.3,149.2,190,149.4,189.8,149.4z"/>
			<path class="st0" d="M189.8,169.7c-0.3,0-0.5-0.2-0.5-0.5v-1.3c0-0.3,0.2-0.5,0.5-0.5c0.3,0,0.5,0.2,0.5,0.5v1.3
				C190.3,169.5,190,169.7,189.8,169.7z"/>
			<path class="st0" d="M185,150.7c-0.2,0-0.3-0.1-0.4-0.2l-0.6-1.1c-0.1-0.2-0.1-0.5,0.2-0.7c0.2-0.1,0.5-0.1,0.7,0.2l0.6,1.1
				c0.1,0.2,0.1,0.5-0.2,0.7C185.2,150.7,185.1,150.7,185,150.7z"/>
			<path class="st0" d="M195.2,168.3c-0.2,0-0.3-0.1-0.4-0.2l-0.6-1.1c-0.1-0.2-0.1-0.5,0.2-0.7c0.2-0.1,0.5-0.1,0.7,0.2l0.6,1.1
				c0.1,0.2,0.1,0.5-0.2,0.7C195.3,168.2,195.3,168.3,195.2,168.3z"/>
			<path class="st0" d="M181.5,154.2c-0.1,0-0.2,0-0.2-0.1l-1.1-0.6c-0.2-0.1-0.3-0.4-0.2-0.7c0.1-0.2,0.4-0.3,0.7-0.2l1.1,0.6
				c0.2,0.1,0.3,0.4,0.2,0.7C181.9,154.1,181.7,154.2,181.5,154.2z"/>
			<path class="st0" d="M199.1,164.3c-0.1,0-0.2,0-0.2-0.1l-1.1-0.6c-0.2-0.1-0.3-0.4-0.2-0.7c0.1-0.2,0.4-0.3,0.7-0.2l1.1,0.6
				c0.2,0.1,0.3,0.4,0.2,0.7C199.5,164.2,199.3,164.3,199.1,164.3z"/>
			<path class="st0" d="M180.3,158.9H179c-0.3,0-0.5-0.2-0.5-0.5c0-0.3,0.2-0.5,0.5-0.5h1.3c0.3,0,0.5,0.2,0.5,0.5
				C180.8,158.7,180.5,158.9,180.3,158.9z"/>
			<path class="st0" d="M200.6,158.9h-1.3c-0.3,0-0.5-0.2-0.5-0.5c0-0.3,0.2-0.5,0.5-0.5h1.3c0.3,0,0.5,0.2,0.5,0.5
				C201,158.7,200.8,158.9,200.6,158.9z"/>
			<path class="st0" d="M180.4,164.3c-0.2,0-0.3-0.1-0.4-0.2c-0.1-0.2-0.1-0.5,0.2-0.7l1.1-0.6c0.2-0.1,0.5-0.1,0.7,0.2
				c0.1,0.2,0.1,0.5-0.2,0.7l-1.1,0.6C180.6,164.3,180.5,164.3,180.4,164.3z"/>
			<path class="st0" d="M198,154.2c-0.2,0-0.3-0.1-0.4-0.2c-0.1-0.2-0.1-0.5,0.2-0.7l1.1-0.6c0.2-0.1,0.5-0.1,0.7,0.2
				c0.1,0.2,0.1,0.5-0.2,0.7l-1.1,0.6C198.2,154.1,198.1,154.2,198,154.2z"/>
			<path class="st0" d="M184.4,168.3c-0.1,0-0.2,0-0.2-0.1c-0.2-0.1-0.3-0.4-0.2-0.7l0.6-1.1c0.1-0.2,0.4-0.3,0.7-0.2
				c0.2,0.1,0.3,0.4,0.2,0.7l-0.6,1.1C184.7,168.2,184.5,168.3,184.4,168.3z"/>
			<path class="st0" d="M194.5,150.7c-0.1,0-0.2,0-0.3-0.1c-0.2-0.1-0.3-0.4-0.2-0.7l0.6-1.1c0.1-0.2,0.4-0.3,0.7-0.2
				c0.2,0.1,0.3,0.4,0.2,0.7l-0.6,1.1C194.9,150.6,194.7,150.7,194.5,150.7z"/>
		</g>
	</g>
	<g>
		<path class="st0" d="M189.4,163.5v-9.4h-1.5c-0.2,0-0.3-0.1-0.5-0.2c-0.1-0.1-0.2-0.3-0.2-0.5c0-0.2,0.1-0.4,0.2-0.5
			c0.1-0.1,0.3-0.2,0.5-0.2h2.5c0.2,0,0.3,0,0.4,0.1c0,0.1,0.1,0.2,0.1,0.3v10.3h1.5c0.5,0,0.7,0.2,0.7,0.7c0,0.2-0.1,0.3-0.2,0.5
			c-0.1,0.1-0.3,0.2-0.5,0.2h-4.8c-0.2,0-0.3-0.1-0.5-0.2c-0.1-0.1-0.2-0.3-0.2-0.5c0-0.2,0.1-0.4,0.2-0.5c0.1-0.1,0.3-0.2,0.5-0.2
			H189.4z"/>
	</g>
</g>
</svg>
