<?xml version="1.0" encoding="UTF-8" standalone="no"?>
<svg width="74px" height="90px" viewBox="0 0 74 90" version="1.1" xmlns="http://www.w3.org/2000/svg" xmlns:xlink="http://www.w3.org/1999/xlink" xmlns:sketch="http://www.bohemiancoding.com/sketch/ns">
    <!-- Generator: Sketch 3.4.4 (17249) - http://www.bohemiancoding.com/sketch -->
    <title>sachets</title>
    <desc>Created with Sketch.</desc>
    <defs></defs>
    <g id="Page-1" stroke="none" stroke-width="1" fill="none" fill-rule="evenodd" sketch:type="MSPage">
        <g id="sachets" sketch:type="MSLayerGroup" fill="#000000">
            <path d="M10.461,78.089 L63.541,78.089 L63.541,11.911 L10.461,11.911 L10.461,78.089 L10.461,78.089 Z M12.341,13.791 L61.66,13.791 L61.66,76.208 L12.341,76.208 L12.341,13.791 L12.341,13.791 Z" id="Shape" sketch:type="MSShapeGroup"></path>
            <path d="M73.492,20.888 L73.492,0.579 L0.508,0.579 L0.508,20.888 L3.845,20.888 L3.845,22.768 L0.508,22.768 L0.508,89.421 L73.491,89.421 L73.491,22.768 L70.154,22.768 L70.154,20.888 L73.492,20.888 L73.492,20.888 Z M71.611,24.649 L71.611,87.541 L2.389,87.541 L2.389,24.649 L5.726,24.649 L5.726,19.008 L2.389,19.008 L2.389,2.459 L71.612,2.459 L71.612,19.008 L68.275,19.008 L68.275,24.649 L71.611,24.649 L71.611,24.649 Z" id="Shape" sketch:type="MSShapeGroup"></path>
        </g>
    </g>
</svg>