<?xml version="1.0" encoding="utf-8"?>
<!-- Generator: Adobe Illustrator 19.1.0, SVG Export Plug-In . SVG Version: 6.00 Build 0)  -->
<svg version="1.1" id="Layer_1" xmlns="http://www.w3.org/2000/svg" xmlns:xlink="http://www.w3.org/1999/xlink" x="0px" y="0px"
	 viewBox="0 0 120 120" style="enable-background:new 0 0 120 120;" xml:space="preserve">
<style type="text/css">
	.st0{fill:#A4D55D;}
	.st1{fill:#FFFFFF;}
	.st2{fill:#003E52;}
</style>
<g>
	<path class="st0" d="M55.1,55.7c4.1-3.4,10.6-3.1,14.8,1.1c5.1,5,0.9,14.3-5.6,17.3C48.5,81.8,44.1,61.8,56,55.9"/>
	<g>
		<path class="st1" d="M51.9,56.9c0-0.2-0.1,0-0.2,0.1L51.9,56.9z"/>
		<path class="st1" d="M51.7,57L51.6,57L51.7,57z"/>
		<path class="st1" d="M50.5,57.6c0.2-0.3,0.6-0.3,0.7-0.6C50.8,57.1,50.4,57.4,50.5,57.6z"/>
		<polygon class="st1" points="51,57.5 50.9,57.4 50.8,57.7 		"/>
		<polygon class="st1" points="51.2,57.5 51.1,57.4 50.8,57.8 		"/>
		<path class="st1" d="M49.6,58.2l0.2-0.2c0.3-0.1,0,0.3,0.2,0.2c0.3-0.2-0.1-0.3,0.3-0.6c-0.1-0.1-0.6,0.5-0.7,0.3
			C49.3,58.1,49.7,58,49.6,58.2z"/>
		<path class="st1" d="M52.6,72.5L52.6,72.5C52.6,72.5,52.6,72.5,52.6,72.5z"/>
		<polygon class="st1" points="57.2,74 57.4,74.1 57.3,74 		"/>
		<path class="st1" d="M49.8,71.1L49.7,71C49.7,71,49.7,71.1,49.8,71.1z"/>
		<polygon class="st1" points="75.6,63.6 75.6,63.6 75.6,63.6 75.6,63.5 		"/>
		<path class="st1" d="M62.5,73.9l0.2,0C62.6,73.9,62.6,73.9,62.5,73.9z"/>
		<polygon class="st1" points="48.5,69.9 48.5,70 48.5,69.9 48.5,69.9 		"/>
		<path class="st1" d="M55.7,73.3l0.2,0.1L55.7,73.3z"/>
		<path class="st1" d="M46.2,61.7c-0.1,0.1-0.1,0.2-0.1,0.2C46.1,61.9,46.2,61.9,46.2,61.7z"/>
		<path class="st1" d="M45.5,63.6L45.5,63.6C45.5,63.6,45.5,63.6,45.5,63.6z"/>
		<path class="st1" d="M45.4,64.9L45.4,64.9C45.3,64.9,45.3,64.9,45.4,64.9z"/>
		<path class="st1" d="M46.1,62c-0.1,0.1-0.4,0.1-0.2,0.4l0.1,0c-0.1,0.1-0.1,0.3-0.1,0.4l0.1,0c0-0.1,0.1-0.2,0.2-0.3
			C46.2,62.3,46.1,62.1,46.1,62z"/>
		<path class="st1" d="M52.5,72.5C52.5,72.5,52.4,72.4,52.5,72.5L52.5,72.5z"/>
		<path class="st1" d="M51.1,71.9l0.1,0.1L51.1,71.9z"/>
		<path class="st1" d="M47.3,67.9L47.3,67.9C47.3,67.9,47.3,67.9,47.3,67.9z"/>
		<path class="st1" d="M51.3,72.1L51.2,72L51.3,72.1z"/>
		<path class="st1" d="M48.1,69.3L48.1,69.3L48.1,69.3z"/>
		<path class="st1" d="M55.7,51.7c0.1,0,0.2,0,0.3,0c0.2-0.2-0.6,0-0.2-0.2l-0.3,0.1l0.2,0.2C56,51.7,55.6,51.7,55.7,51.7z"/>
		<path class="st1" d="M75.8,61.9L75.8,61.9c0.1,0,0.1,0,0.1-0.2c-0.2-0.2-0.3,0.2-0.5-0.1l0,0.2C75.5,61.7,75.7,61.8,75.8,61.9z"/>
		<path class="st1" d="M75.4,61.9L75.4,61.9L75.4,61.9l0,0.2C75.4,62,75.4,62,75.4,61.9z"/>
		<path class="st1" d="M59.9,51.6l0.1,0C60,51.5,60,51.5,59.9,51.6z"/>
		<path class="st1" d="M62.4,76.4l-0.2,0.1C62.3,76.5,62.4,76.4,62.4,76.4z"/>
		<polygon class="st1" points="75.7,65 75.6,65.1 75.6,65.2 		"/>
		<path class="st1" d="M70.7,57.7c0.2-0.1-0.1,0-0.1-0.2l-0.2,0C70.4,57.6,70.6,57.7,70.7,57.7z"/>
		<polygon class="st1" points="55.6,51.6 55.6,51.6 55.6,51.6 		"/>
		<path class="st1" d="M66.1,55.4L66.1,55.4L66.1,55.4z"/>
		<path class="st1" d="M75.5,63l0,0.7l0-0.2C75.5,63.5,75.7,63.1,75.5,63z"/>
		<path class="st2" d="M72.5,59.7l-0.1,0.1c0.6,0.3,0.6,1.1,1.1,1.4c-0.2,0.8,0.6,0.3,0.3,1.1l0.1,0c0.4,2.2-0.7,4.4-1.9,6.2
			l-0.1-0.1c-2.3,2.8-5.2,4.9-8.8,5.3c-0.3,0.1-0.1,0.3-0.4,0.5c-0.1,0-0.4,0-0.4-0.1c0.2-0.1,0.1-0.2,0.2-0.2c-0.4,0-0.9,0-1.3,0.1
			l0.3,0.1c-0.1,0.1-0.4,0-0.5,0c0.1-0.1-0.1-0.2,0-0.3c-0.8,0.4-0.6-0.1-1.2,0c-0.1,0.3-1,0.5-1.6,0.6L58,74.4
			c0.4,0.1,0-0.2,0.5-0.1c-0.4-0.2-0.8-0.1-1.1-0.2c0.1,0.1,0,0.2-0.1,0.2C57,74.2,57,74,56.8,73.9l0.3,0c-0.1-0.2-0.3,0-0.5,0
			c0-0.1-0.4-0.3-0.3-0.4c-0.4,0.1-0.5-0.1-0.9-0.1c0.3,0.2-0.1,0.1-0.1,0.3l0.4,0.1c-0.6-0.3,0.2,0,0.2-0.2c0.3,0.2-0.5,0.2,0,0.3
			c-0.6-0.1-0.7-0.2-1.3-0.2c0.4,0.1-0.1,0.1,0,0.2c-0.4-0.2-0.1-0.1-0.2-0.3c-0.2-0.1-0.3-0.2-0.6-0.2c-0.3-0.2,0.1-0.1,0-0.3
			c0.2-0.1,1,0.6,1.1,0.1c0.2,0.1,0.5,0,0.8,0.1c-0.2-0.1-0.5-0.4-0.9-0.4l-0.1,0.3c-0.2-0.1-0.4,0.1-0.5,0c0.1,0,0-0.2-0.2-0.3
			c0,0.1,0.1,0.1,0.1,0.1c-0.3-0.1-0.5,0-0.9-0.1c0.3,0.2,0.3,0.3,0.6,0.6c-0.2,0.1-0.2-0.1-0.4-0.1c0,0,0.1,0,0-0.1l-0.2,0
			c-0.4-0.3,0.2-0.2-0.1-0.5c-0.2-0.2-0.4-0.1-0.5-0.3l0,0.1l-0.1-0.1l0,0c-0.2-0.1-0.4-0.2-0.6-0.1c0-0.1-0.2-0.1-0.3-0.1
			c-0.1,0-0.5-0.1-0.6-0.4l0,0c-0.2-0.2-0.4-0.4-0.3-0.4l-0.4-0.3l0.2-0.1c-0.4-0.2-0.4-0.1-0.8-0.1c-0.2-0.3-0.6-0.6-0.8-0.7
			l-0.1-0.1l0.1,0.2c-0.2-0.3-0.3-0.2-0.4-0.3c0,0,0,0.1,0-0.1l-0.1-0.1c0,0,0.1,0,0.1,0.1l0-0.1c0-0.3-0.4-0.2-0.5-0.5l0.1,0.1
			c-0.1-0.2,0-0.5-0.2-0.5c0,0-0.1-0.1-0.1-0.1l0-0.1l0,0.1c-0.1,0-0.2-0.1-0.2-0.1l-0.2-0.4c0-0.1-0.1-0.2-0.2-0.2l0-0.1
			c-0.1-0.1,0-0.1,0-0.1c0-0.6-0.5-0.7-0.4-1.3c-0.2-0.1-0.2,0.2-0.2,0.2c-0.1-0.1-0.3-0.4-0.4-0.5c0.1-0.3,0.2-1.1,0.5-1
			c0-0.4-0.1,0.1-0.3-0.1l0-0.1c0,0.2-0.1,0.3-0.2,0.4c-0.1,0.1-0.2-0.4-0.2-0.5l0.2,0.1c-0.1-0.4-0.4-0.3-0.5-0.7
			c0.1-0.4,0.3-0.1,0.5-0.2c0-0.1,0-0.3,0-0.4l0.1,0c0-0.2-0.1-0.3,0-0.6c0.1,0.3,0.3-0.4,0.4-0.1c0.1-0.2-0.1-0.3,0.1-0.3
			c-0.1-0.2-0.1,0.1-0.2,0.2c-0.3,0,0.1-0.4,0.1-0.6c0.1,0,0.1,0.2,0.2,0c-0.1-0.1-0.1-0.3,0.1-0.4c-0.1-0.1,0.1-0.3,0.2-0.4
			c-0.1,0.1-0.3,0.3-0.4,0.1c0-0.1,0.1-0.3,0.2-0.5L47,61.5c0-0.3,0.4-0.3,0.5-0.6c0,0.2-0.1,0.3-0.1,0.4c0-0.2,0.1-0.5,0.3-0.8
			l0.4-0.1c-0.1-0.1,0.2-0.3,0.1-0.4c0.3-0.2-0.1,0.4,0,0.5c0.4-0.3,0-0.5,0.5-0.6l0,0.2c0.1-0.1,0.3-0.4,0.3-0.3c0,0-0.1,0-0.1,0.1
			c-0.1-0.3,0.4-0.6,0.1-0.8l-0.2,0.1c0.2-0.3,0.2-0.6,0.5-0.7c0.2,0,0,0.2,0,0.4c0.3-0.2,0-0.4,0.3-0.6c-0.2,0.1-0.2,0-0.2-0.2
			c-0.2,0.1-0.6,0.4-0.4,0.4l0.1,0c0,0.1,0,0.2-0.1,0.2c-0.2,0.2-0.2,0-0.3,0c-0.4,0.3,0.2,0.3-0.2,0.6l-0.1,0
			c-0.1,0.2-0.3,0.4-0.2,0.6c-0.3,0-0.3,0.4-0.5,0.5c-0.4-0.3,0.5-0.6,0.5-0.9c-0.2,0.1-0.1-0.2,0-0.4l-0.4,0.7
			c-0.1,0-0.4,0-0.4,0.2l0,0c-0.2,0.3,0,0.3-0.2,0.5c-0.1,0-0.1-0.1-0.1-0.1c-0.2,0.2,0,0.2-0.1,0.4c-0.2,0.2-0.1-0.2-0.2-0.1
			c0,0.3-0.3,0.4-0.4,0.6c0.3,0-0.2,1,0.3,0.6c-0.1,0.2-0.1,0.4-0.1,0.6c-0.2,0.1-0.2-0.5-0.4-0.4l0.2-0.4c-0.4-0.1-0.2,1-0.7,1.1
			c-0.1,0.2,0,0.2-0.3,0.6l0.3,0c-0.1,0.2-0.3,0.3-0.3,0.3L45.4,64c0,0-0.1-0.1-0.1-0.2c-0.2,0.2-0.1,0.2-0.1,0.3
			c0.1,0.1,0,0.3,0,0.4l-0.1-0.2c0,0.1,0,0.2,0.1,0.2l0,0.2c0.1,0,0.2-0.1,0.3-0.4c-0.2,0.6,0,1-0.2,1.5c-0.1,0-0.2-0.2-0.2-0.1
			c0,0.3,0.2,0.5,0.3,0.5l0,0.1c-0.1,0.1-0.1,0.1-0.1,0.3c0,0,0,0.1,0,0.2c0.2,0,0.3,0.5,0.4,0.6c0-0.1-0.1-0.2-0.1-0.4
			c0.2,0.1,0.4,0.2,0.4,0.4c-0.3-0.3-0.1,0.5-0.3,0C45.7,68,46,67.6,46.1,68l0,0.3c-0.2,0-0.3-0.4-0.3-0.3l0.1,0.2
			c-0.2-0.1-0.4-0.8-0.7-1.2c0,0.3,0.1,0.6,0.2,0.9c0.6,1,1.2,2.3,2.1,2.8l0,0l0.1,0l0,0.1l0.2,0.1c0,0.3,0.3,0.6,0.4,0.9
			c-0.1-0.2-0.1-0.2,0-0.3c0.1-0.1,0.2-0.1,0.4,0.1c-0.1,0.1-0.2,0-0.1,0.2c0-0.1,0.1-0.1,0.2,0c0.1,0.2,0.3,0.4,0.2,0.5
			c-0.1,0-0.1-0.1-0.1-0.1c-0.1,0,0.2,0.3-0.1,0.2l0.3,0.2c0.1,0.2-0.2,0-0.2,0.1c0.5,0.3,0.8,0.2,1.3,0.4C50.1,72.8,50,73,50,73
			c0.3,0.3,0.8,0.2,1.2,0.4c-0.1,0-0.2-0.1-0.3-0.1c1,0.7,1.9,1.2,2.9,1.8l0.4-0.1l0.2,0.3c1.1,0.6,2.1,0.6,3.3,0.8
			c0.4,0,0.2,0.2,0.3,0.3c0.8,0.2,1-0.1,1.8-0.1c-0.1,0.1-0.3,0.3,0,0.3c0.1-0.1,0.1-0.2,0.3-0.1L60,76.4c0.2,0.1,0.4,0,0.8,0.1
			c0.7,0,1.4-0.2,1.9-0.6c0.6,0,0,0.3,0.1,0.3c-0.4-0.1-0.3,0.1-0.4,0.2c0.2-0.1,0.5-0.2,0.6,0c0.3,0,0.5-0.1,0.8-0.3
			c-0.2,0.1-0.3,0-0.2-0.1c0.3,0,0.9-0.2,0.9,0.1c1.5-0.4,3.2-1,4.6-1.8c0.2-0.3-0.2,0.1-0.1-0.1c0.3-0.4,0.3-0.1,0.5-0.4l0,0.2
			c0.4-0.2,0.7-0.7,1-1.1c0,0.2,0.4-0.1,0.1,0.2c0.2-0.2,0.8,0.2,0.9,0l-0.6-0.3c0-0.1,0.2-0.2,0.2-0.2c0.3,0,0.5-0.1,0.6-0.2
			c0.1,0.1-0.1,0.3-0.3,0.4c0.2,0.2,0.6-0.3,0.5,0c0.3-0.3-0.1-0.1,0-0.3l0.3-0.2L72,72.3c0.2-0.3,0.1-0.5,0.5-0.6l0.1-0.5
			c0.2,0.1,0.2-0.2,0.4-0.3l0,0.2c0.2-0.2,0.3-0.3,0.4-0.4c0,0.2-0.2,0.2-0.1,0.3l0.2-0.2c-0.1-0.1,0-0.3-0.2-0.2
			c0-0.4,0-0.6,0.4-1.1c0.4-0.1-0.1,0.4,0.2,0.4c0.5-0.6,0.1-1.1,0.4-1.4c0.4-0.4,0.2-0.5,0.4-1c0,0.2,0.3-0.3,0.5-0.3l0,0.3
			c0-0.2,0.2-0.3,0.2-0.2c-0.2,0,0.2-0.7,0.2-1.2l-0.2,0c0-0.3,0.1-0.7,0.2-1c0-0.5-0.1-0.4-0.2-0.8c0.2-0.2,0.3-0.1,0.5-0.1
			c-0.1,0.1-0.1,0.3-0.2,0.5c0.1,0.6,0.2,1.2-0.1,1.8c0.3,0.4,0.1-0.4,0.3-0.7l0,0.1l0-0.1c0,0.2-0.1,0.6,0.1,0.7
			c0.1-0.4-0.3-0.4,0-0.8c0-0.4,0.3-0.6,0.4-0.8c-0.1-0.3-0.4-0.3-0.3-0.9l0.2,0.3c0.1-0.7-0.3-0.3-0.3-0.9c0,0.2-0.2-0.2-0.2,0.2
			c-0.1-0.2-0.1-0.6-0.1-0.9c0-0.1-0.1,0-0.1,0c-0.1,0.4,0.2,0.5,0,0.8l0.2,0.2c-0.1,0.3-0.3,0.3-0.3,0.1c0,0.1,0,0.2,0,0.2
			c-0.3,0,0.2-0.4-0.1-0.5l0,0.2c-0.2,0.1-0.2-0.5-0.2-0.8c0.1-0.3,0.1-0.6,0.2-0.6c0,0.1,0.1,0.3,0.1,0.4c0.1-0.2-0.2-0.5-0.2-0.8
			l0-0.1l0,0l0-0.2c0-0.2-0.2-0.5-0.2-0.7L75,61.3h0.1c0.1,0.2,0.1,0.5-0.1,0.4c-0.2-0.4,0-0.6,0.1-0.7c0.2,0,0.1,0.4,0.3,0.6
			c0.2-0.2-0.1-0.4-0.2-1c0.3,0.1,0.2,0.5,0.4,0.6c-0.1-0.4-0.3-0.4-0.4-0.9c0.1,0,0.3,0.4,0.4,0.3l0-0.3c0.2,0.6,0.2-0.2,0.5,0.3
			c0-0.3-0.3-0.3-0.3-0.7c0,0.1-0.1,0.5-0.3,0.2l-0.1-0.4c0-0.2,0.4,0.3,0.4,0l-0.3-0.3c-0.1,0,0,0.2-0.1,0.2c0-0.2-0.4-0.2-0.6-0.4
			c-0.1-0.2-0.2-0.3-0.2-0.4c-0.5-0.3-0.9-0.8-1.3-1c0.3,0.1,0.2-0.2,0.1-0.4c0.3,0.3,0.4,0.1,0.5,0c-0.2-0.2-0.4-0.1-0.4,0
			C73.2,57,73.2,57.3,73,57c-0.1-0.2,0.2-0.1,0.2-0.2c-0.3-0.3-0.3,0.1-0.6-0.2c0,0,0.1,0,0.1,0c-0.2-0.2-0.4-0.3-0.5-0.2
			c0-0.4-0.6-0.4-0.4-0.6c-0.5-0.3,0,0.2-0.2,0.2c-0.3,0-0.6-0.4-0.7-0.5c0.1,0.1,0.3,0.1,0.4,0.2l0-0.2c-0.5-0.5-0.6,0.1-1.1-0.4
			c0.4,0.1,0.2-0.1,0.4-0.1c-0.1,0-0.6-0.3-0.4,0c-0.2-0.1-0.4-0.3-0.5-0.4c-0.2,0-0.5-0.1-0.7-0.1c-0.3-0.2-0.5-0.4-0.6-0.6
			c-0.8-0.2-1.3-0.7-2.2-0.8l0.1,0c-0.6-0.2,0.2,0.3-0.4,0.1c0.2-0.2-0.3-0.3-0.5-0.5c-0.7-0.3-1.4-0.2-2.1-0.5c0,0,0.1-0.1,0.2-0.1
			c-0.5-0.2-1-0.2-1.5-0.3l0,0c-0.8-0.3-1.6-0.1-2.4-0.1l0.1-0.1c-0.4-0.1-1.1-0.1-1.4,0.1c-0.5-0.2-0.3,0.1-1-0.1c0,0,0.1,0,0.1,0
			c-0.3-0.1-0.6,0-0.9,0c-0.7,0.2-0.8,0.5-1.7,0.6c-0.1-0.3,0.5-0.2,0.5-0.4c-0.2,0.1-0.3,0.2-0.5,0.1c0.1-0.2,0-0.1,0.1-0.2
			c-0.2-0.1-0.6,0.5-0.6,0.4c0,0.1,0.1,0.1,0.2,0c-0.2,0.2-0.8,0.2-1.2,0.4c0.1,0,0.5-0.1,0.4,0.1c-0.5,0.1-0.6,0.4-0.9,0.6
			c-0.5,0,0.3-0.4,0.1-0.5c-0.1-0.1-0.3-0.2-0.2-0.3c-0.5,0.1-0.7,0.3-1.1,0.5l0-0.1c-0.5,0.2-1,0.7-1.5,0.8l0.3,0
			c-0.1,0.1-0.3,0.2-0.4,0.4c0-0.1-0.4,0-0.3-0.2c-0.1,0.4-1,0.8-1.1,1.2c-0.2,0-0.1-0.2-0.1-0.3c0.3-0.2,0.5-0.2,0.5-0.4
			c-0.3,0.1-0.5,0.2-0.5,0.1c-0.1,0.3-0.7,0.7-0.7,1c-0.2,0-0.4,0.1-0.5-0.1c-0.7,0.6,0.7,0.2-0.1,0.8c-0.5,0.1,0.2-0.4-0.3-0.1
			l0.1-0.1c-0.6-0.1-0.1,0.4-0.4,0.8c-0.2-0.1,0.2-0.4-0.2-0.3c-0.3,0.4-0.2,0.8-0.6,1l0-0.1c-0.2,0.2-0.6,0.6-0.8,0.9
			c0,0,0,0,0-0.1c-0.4,0.4-0.1,0.3-0.5,0.5l0,0.2c0.2-0.1,0.6-0.4,0.7-0.7c-0.1,0.3,0.5-0.1,0.6,0.1l0-0.1c0.8-0.3,1.4-0.9,2.2-1.3
			c0.3-0.5,0.8-0.5,1.2-0.9c-0.1-0.3,0.1-0.1,0.5-0.4c-0.2,0.2,0.1,0.2,0.2,0.2c0-0.1,0.1-0.2,0.3-0.3c0.1,0,0.8,0,1-0.3
			c0.3,0,0,0.1-0.1,0.2c0.2,0.1,0.2-0.2,0.3-0.2l0,0.1c0.4-0.2,0.7-0.2,1.2-0.3c-0.1-0.3,0.4-0.3,0.6-0.4c0,0.1,0.3,0,0.4,0l0.2-0.3
			c0.2-0.2,0.4,0,0.7-0.1l-0.1,0c0.2-0.1,0.9-0.1,1.2,0c2.2-0.8,3.6,0,5.9,0.1c0.2-0.1-0.1-0.2,0-0.3c0.2,0,0.3,0,0.5,0
			c-0.2-0.1-0.2,0-0.1-0.1l-0.4,0c0,0,0,0,0-0.1c-0.1,0-0.3,0.1-0.4,0c0.2,0,0.3-0.3,0.6-0.1c0,0-0.1,0-0.1,0c0.2,0,0.3-0.1,0.4,0
			c0.2,0.1,0.2,0,0.2,0.1l0.7,0.2c0.4-0.2,0.8,0.1,0.9,0.2c-0.1,0.2-0.5-0.1-0.7,0.1l0.2,0.2l0-0.1l0.3,0.1l0,0c0.1,0,0.1-0.1,0.2,0
			c0,0,0,0.1,0,0.1l0.3,0c-0.2,0.1,0.2,0.1,0.1,0.3c0.8,0.3,1,0.1,1.6,0.5c-0.1-0.1,0.3-0.2,0.5-0.1c0.1,0.1,0.1,0.1,0,0.2l0.3,0
			c0.2,0.4,0.6,0.3,1,0.7l-0.1,0.1c0.2,0,0.4,0,0.7,0.2l-0.1,0.1c0.3,0.2,0.4-0.2,0.7,0.1c0.1-0.1-0.1-0.3,0-0.5
			c0,0.2,0.3,0.4,0.3,0.3c0.4,0.1,0.2,0.1,0.2,0.2l0.3,0c0.2,0.1,0,0.2-0.2,0.3c0.3,0,0.5,0.3,0.7,0.4l-0.1,0l0.3,0.2
			c0.3,0,0.6,0.2,0.7,0.5L71,58c0.1,0.2,0.1,0,0.2,0c0.3,0.1,0.3,0.3,0.3,0.5C72,58.8,72,59.6,72.5,59.7z M47.3,68L47.3,68
			C47.2,68,47.1,68,47.3,68z M49.2,70.5c-0.3-0.2-0.2-0.2-0.2-0.3c0.2,0.3,0.4,0.4,0.6,0.7l0-0.2c0.1,0.1,0.2,0.2,0.1,0.3
			C49.5,71.2,49.1,70.3,49.2,70.5z M45.4,64.2L45.4,64.2L45.4,64.2L45.4,64.2z M45.6,66.3l-0.1,0.2C45.6,66.4,45.7,66.4,45.6,66.3z
			 M47.2,70.2c0,0.1,0.2,0.3,0.3,0.4C47.5,70.5,47.4,70.4,47.2,70.2z M70.8,72.5c-0.1,0.1-0.2,0.3,0,0.2c0-0.1,0.3-0.1,0.3-0.3l0,0
			C70.9,72.5,70.8,72.5,70.8,72.5z M74.9,62c0.1,0,0.2,0.1,0.3,0v0c0,0,0-0.1,0.1,0c0-0.1,0-0.2,0-0.3C74.9,61.7,74.8,61.5,74.9,62z
			"/>
		<path class="st1" d="M75.9,66.1l0-0.1L75.9,66.1z"/>
		<path class="st1" d="M75.2,61.7c0,0,0,0.1,0,0.3C75.2,61.9,75.2,61.9,75.2,61.7z"/>
		<path class="st1" d="M49.5,59.2L49.5,59.2l0.2,0c0.2-0.3,0.2-0.4,0.2-0.6c-0.2,0.3-0.4,0.4-0.7,0.7L49.5,59.2z"/>
		<path class="st1" d="M48.7,58.5c-0.1,0-0.2,0-0.2,0l0,0.1L48.7,58.5z"/>
		<path class="st1" d="M45.4,62.3l0.2-0.4C45.6,61.7,45.3,62.1,45.4,62.3z"/>
		<path class="st1" d="M47.6,61.5l0-0.2c-0.2,0.1-0.3,0.3-0.2,0.4C47.5,61.4,47.5,61.6,47.6,61.5z"/>
		<path class="st1" d="M45.1,63.3c0.1,0.2-0.2,0.4,0,0.5C45,63.7,45.2,63.4,45.1,63.3z"/>
		<path class="st1" d="M46.8,63.5c0.2-0.1,0.1-0.3,0.2-0.4C46.9,63.2,46.7,63.4,46.8,63.5z"/>
		<path class="st1" d="M45.4,65.6c-0.1,0-0.1-0.2-0.1-0.4l0.1,0.2c-0.1-0.3-0.1-0.3-0.2-0.6c-0.1,0.3-0.1,0.7-0.3,0.6
			C45.1,65.6,45.3,65.8,45.4,65.6z"/>
		<path class="st1" d="M46.7,64c0.1-0.2,0.2-0.2,0.3-0.4c-0.1,0-0.2,0-0.3,0.3l-0.1-0.1C46.4,63.9,46.8,63.7,46.7,64z"/>
		<path class="st1" d="M45.3,66.8l0-0.1c-0.2-0.3-0.2-0.7-0.4-0.8C44.9,66.2,45.1,66.7,45.3,66.8z"/>
		<path class="st1" d="M46.3,64.8l0.2,0C46.6,64.6,46.5,64.9,46.3,64.8c0.1-0.1,0.2-0.2,0.1-0.3C46.5,64.9,46.3,64.6,46.3,64.8z"/>
		<path class="st1" d="M46.6,65.6l0.1,0.3l0.2-0.3C46.8,65.3,46.8,65.7,46.6,65.6z"/>
		<path class="st1" d="M46.5,66L46.5,66l0.4,0.4C46.7,66.2,46.7,66.2,46.5,66z"/>
		<path class="st1" d="M48.8,72c0.1,0-0.1-0.3,0-0.2C48.7,71.9,48.9,72.3,48.8,72z"/>
		<path class="st1" d="M49,70c0,0.2,0.5,0.4,0.7,0.5C49.5,70.3,49.1,69.9,49,70z"/>
		<path class="st1" d="M49.8,70.5L49.8,70.5L49.8,70.5z"/>
		<path class="st1" d="M57.4,73.6L57.4,73.6L57.4,73.6z"/>
		<path class="st1" d="M57.2,73.6c-0.1-0.1-0.4-0.1-0.5,0c0.2,0,0.4,0,0.7,0C57.3,73.6,57.2,73.5,57.2,73.6z"/>
		<path class="st1" d="M59.1,74c-0.1,0-0.2,0-0.2,0.1C58.9,74.1,59.2,74.1,59.1,74z"/>
		<path class="st1" d="M72.6,71.9c0.2-0.1,0.2-0.2,0.1-0.3C72.5,71.8,72.7,71.7,72.6,71.9z"/>
		<polygon class="st1" points="72.8,71.4 72.9,71.4 73.1,71.4 		"/>
		<path class="st1" d="M73.9,70.4l0,0.1C74,70.4,74,70.3,73.9,70.4z"/>
		<path class="st1" d="M73.9,70.5L73.9,70.5L73.9,70.5z"/>
		<path class="st1" d="M73.8,70.6L73.8,70.6L73.8,70.6C73.9,70.6,73.8,70.6,73.8,70.6z"/>
		<path class="st1" d="M74.2,70l-0.3,0.1c-0.1,0.3,0.3-0.2,0.3,0.2L74.2,70z"/>
		<path class="st1" d="M74.7,69.2c0.2-0.2,0.1-0.7,0.4-0.7c0.2-0.8-0.4,0-0.1-0.9c-0.5,0.7,0.2,0.6-0.3,1.2
			C75.1,68.6,74.8,69.1,74.7,69.2z"/>
		<path class="st1" d="M74.3,69.1c0.1,0.1,0.3-0.2,0.3-0.3C74.5,68.8,74.3,68.9,74.3,69.1z"/>
		<polygon class="st1" points="75.4,67.8 75.6,67.6 75.6,67.5 		"/>
		<path class="st1" d="M75.8,67l0,0.3C75.9,67.2,76,66.9,75.8,67z"/>
		<path class="st1" d="M76.4,65.8c0.1-0.2-0.1-0.5-0.2,0l0-0.1C76.3,65.7,76.5,65.5,76.4,65.8z"/>
		<path class="st1" d="M76.2,62.7c0,0.2,0,0.3,0.1,0.3c0-0.1,0-0.3-0.1-0.4L76.2,62.7z"/>
		<path class="st1" d="M75.4,62.9c-0.2,0.1,0,0.4,0,0.6C75.4,63.2,75.4,63.2,75.4,62.9z"/>
		<path class="st1" d="M76.3,62.2c0.1,0.1,0.1,0.3,0.1,0.4C76.5,62.6,76.5,62.3,76.3,62.2z"/>
		<path class="st1" d="M76.2,61.6c0-0.2,0.1,0,0.1-0.1c0-0.3-0.1-0.6-0.3-0.8c0,0.1-0.2,0.3-0.4,0.2c0.2,0.4,0.6,0.6,0.4,0.9
			l0.4,0.3C76.5,61.7,76.2,61.8,76.2,61.6z"/>
		<path class="st1" d="M75.7,62.6l0.1-0.3c-0.1,0.1-0.2-0.1-0.2-0.2C75.3,62.2,75.7,62.5,75.7,62.6z"/>
		<polygon class="st1" points="75,59.2 74.7,58.8 74.8,58.9 		"/>
		<polygon class="st1" points="74.9,58.9 75,58.8 74.6,58.6 		"/>
		<polygon class="st1" points="74.6,58.4 74.7,58.4 74.9,58.6 		"/>
		<path class="st1" d="M74,57.5l0,0.1c0.1,0.1,0.2,0.3,0.3,0.2C74.2,57.8,74,57.6,74,57.5z"/>
		<path class="st1" d="M69.8,57.3c0.1,0,0.1-0.1,0.1-0.2l-0.2,0.1C69.8,57.2,69.8,57.3,69.8,57.3z"/>
		<path class="st1" d="M69.5,56.8l-0.4,0c0.3,0.2,0.4,0.1,0.7,0.3c-0.1-0.1-0.3-0.1-0.4-0.2L69.5,56.8z"/>
		<path class="st1" d="M63.4,54.2c0.1-0.1,0-0.1,0.2-0.1c-0.4,0-0.6-0.1-1-0.1c0.1,0.1-0.3,0.2-0.1,0.2H63l-0.1,0.1
			C63.2,54.4,63.1,54.1,63.4,54.2z"/>
		<path class="st1" d="M46.1,57C46.1,57,46,57,46,57C45.8,57.2,46.2,57,46.1,57z"/>
	</g>
	<g>
		<path class="st2" d="M42.9,37.3c-0.2-0.1-0.1,0.2-0.1,0.4l0.4,0L42.9,37.3z"/>
		<path class="st2" d="M43.5,38.3l0.6,0.3l-0.4-0.3c-0.1-0.5,0.3-0.2,0.5,0C43.7,37.7,43.7,38.3,43.5,38.3z"/>
		<path class="st2" d="M44.4,39.2c0.2,0.3,0.3,0.1,0.3-0.1C44.6,39.1,44.4,39,44.4,39.2z"/>
		<path class="st1" d="M55.1,61c0-0.1,0-0.3,0-0.3C55.1,60.6,55,60.6,55.1,61z"/>
		<polygon class="st1" points="55.2,60.7 55.2,60.8 55.2,60.7 		"/>
		<path class="st2" d="M54.3,52.3c-0.3-0.3-0.4-0.6-0.6-1l0.1-0.3c-0.3-0.4-0.3-0.1-0.6-0.3c0-0.4-0.6-1.2-0.7-1.3
			c0-0.2,0.2,0.1,0.3,0.1c-0.3-0.4-0.6-0.3-0.9-0.9l0.1,0c-1.1-1.2-2.1-3-3.2-4.4c0,0.1,0,0.1,0,0.2c-1.1-1.5-2.2-3.4-3.6-4.2
			c0.6,0.8,1.2,2.5,2.1,3.1c0,0.4,0.6,0.8,0.4,1c0.6,1.3,1.4,1.6,2.1,2.8c0.1,0.2-0.1,0.2-0.2,0.3l-0.7-0.9l0.2,0.6
			c-0.3-0.2-0.5-0.8-0.8-0.8c0.7,0.7,1.3,2.1,2,2.7c-0.1-0.4-0.4-0.8-0.6-1.2c0-0.2-0.1-0.5,0-0.6c1,1,1.4,2.1,2.1,3.2
			c0.2,0.3,0.4,0.7,0.3,0.8c-0.1-0.2-0.2,0-0.3-0.1c0.3,0.4,0.4-0.2,0.7,0.5l-0.4,0.1c0.6,0,0.3,0.8,0.8,1.1c-0.1,0.2-0.3,0-0.5-0.4
			c0.1,0.4,0.4,0.3,0.5,0.7l-0.5-0.1c0.5,0.2,0.2,0.6,0.2,0.9c0.1,0,0.3-0.3,0.5,0.1c0,0.2-0.1,0.2-0.1,0.2c0.1,0,0.3,0.1,0.5,0.3
			c-0.1,0.1-0.3-0.1-0.4-0.1c0.1,0.2,0.2,0.4,0.2,0.6c0.3,0.3,0.2-0.1,0.4,0.1c0.2,0.6-0.4,0.2-0.5,0.6c-0.4-0.3-0.7-0.9-0.9-1.1
			l0.5,0.8c-0.2,0,0,0.7-0.3,0.3c0.3,0.9,0.8,1.8,1.3,2.5c0-0.1,0-0.3,0.1-0.3c0.3,0.4,0.1,0.4,0,0.5c0.2,0.3,0.5,0.1,0.7,0.2
			c0.1,0.7,0.2,0.8,0.2,1.4l0.2-0.1c0,0.5,0.3,0.4,0.4,0.8c0,0-0.2-0.1-0.3-0.2c0.2,0.3-0.1,0.4,0.2,0.7L55,61.3
			c0.1,0.3,0.4,0.7,0.1,0.6c0.5,0.4,0.7,1.3,1.1,1.9l-0.2,0c0.4,0.2,0.4,1.2,0.8,1.4l-0.1,0.1l0.5,0.5c0.1,0.3-0.3,0.3-0.2,0.3
			c0.1,0.3,0.3,0.6,0.4,0.9l0.1,0.4l0,0.1l0,0l0,0l0,0l0,0l0,0c-1.4-0.2,2,0.3,1.6,0.3h0l0,0l0,0l0.1-0.1c-0.2-0.3,0.2-1,0.4-1.5
			c1.5-2.6,1.7-5.6,2.3-8.1c0.1-0.4,0-1,0.1-1.5c-0.3,0.5-0.2,0.6-0.4,1.2c-0.2,0.4-0.6,0.4-0.9,0.7l0.3-0.1c0,0.6-0.3,0.4-0.2,0.9
			l-0.4-0.1c0.2,0.2-0.1,0.6-0.3,0.7l0.2,0.2c-0.3,0.3-0.4,0.5-0.7,0.6l0.3,0c-0.2,0.1-0.4,1.4-0.7,0.8c0,0.1,0.1,0.3,0,0.5l-0.3,0
			c0,0.3-0.1,0.7-0.3,0.7c0-0.2-0.1-0.3-0.2-0.4c-0.4,1.3,0.7,0.5,0.4,1.7l-0.2-0.1l0.1,0.4l-0.3,0.2c0.4,0.6-0.7,1.5-0.9,2.2l0,0
			l0,0l0,0l0,0h0l0,0l0,0c3,0.5,0.8,0.1,1.5,0.2l0,0l0,0l0-0.1l0-0.3c0-0.2,0-0.5-0.1-0.8l-0.2,0.1c0.1-0.5-0.3-2.2,0.1-2.9
			c-0.3-0.3,0,0.1-0.2,0.1c-0.5-0.7-0.2-0.9-0.2-1.4c-0.3-0.5,0.1,0.4-0.2,0.2c-0.1-0.8-0.5-0.5-0.8-1.5c0.1-0.1,0.2,0.2,0.3,0.3
			c-0.5-0.6-0.8-1.9-1.3-2.8c-0.3-1.2-1-2.9-1.4-4.2l-0.1,0c0-0.6-0.5-1.1-0.7-1.8L54.3,52.3z"/>
		<path class="st2" d="M48.1,46.2L48,46.4l0.5,0.5C48.5,46.6,48.3,46.5,48.1,46.2z"/>
		<polygon class="st2" points="48.8,46 48.5,45.7 48.8,46.2 		"/>
		<polygon class="st1" points="52.4,53.2 52.4,53.1 51.6,52.1 		"/>
		<path class="st1" d="M54.9,61c-0.2-0.1-0.2-0.3-0.3-0.4L54.9,61L54.9,61z"/>
		<path class="st1" d="M56,66.4c0.4,0.1,0.1,0.4,0.4,0C56.2,66.1,56.1,66.4,56,66.4z"/>
		<path class="st1" d="M56.9,67.4c-0.1-0.2-0.1-0.3-0.2-0.3C56.6,67.3,56.8,67.3,56.9,67.4z"/>
	</g>
</g>
</svg>
