<?xml version="1.0" encoding="UTF-8" standalone="no"?>
<svg width="32px" height="32px" viewBox="0 0 32 32" version="1.1" xmlns="http://www.w3.org/2000/svg" xmlns:xlink="http://www.w3.org/1999/xlink" xmlns:sketch="http://www.bohemiancoding.com/sketch/ns">
    <!-- Generator: Sketch 3.4.1 (15681) - http://www.bohemiancoding.com/sketch -->
    <title>addres</title>
    <desc>Created with Sketch.</desc>
    <defs></defs>
    <g id="Page-1" stroke="none" stroke-width="1" fill="none" fill-rule="evenodd" sketch:type="MSPage">
        <g id="addres" sketch:type="MSLayerGroup" fill="#000000">
            <g id="Group" sketch:type="MSShapeGroup">
                <path d="M30,4 L6,4 C4.895,4 4,4.895 4,6 L4,30 C2.895,30 2,29.105 2,28 L2,2 L28,2 C28,0.895 27.105,0 26,0 L2,0 C0.895,0 0,0.895 0,2 L0,28 C0,30.211 1.789,32 4,32 L28,32 C30.207,32 32,30.211 32,28 L32,6 C32,4.895 31.105,4 30,4 L30,4 Z M10,10 L12,10 L12,12 L10,12 L10,10 L10,10 Z M10,16 L12,16 L12,18 L10,18 L10,16 L10,16 Z M10,22 L12,22 L12,24 L10,24 L10,22 L10,22 Z M26,24 L14,24 L14,22 L26,22 L26,24 L26,24 Z M26,18 L14,18 L14,16 L26,16 L26,18 L26,18 Z M26,12 L14,12 L14,10 L26,10 L26,12 L26,12 Z" id="Shape"></path>
            </g>
        </g>
    </g>
</svg>