<?xml version="1.0" encoding="UTF-8" standalone="no"?>
<svg width="40px" height="40px" viewBox="0 0 40 40" version="1.1" xmlns="http://www.w3.org/2000/svg" xmlns:xlink="http://www.w3.org/1999/xlink" xmlns:sketch="http://www.bohemiancoding.com/sketch/ns">
    <!-- Generator: Sketch 3.3.3 (12072) - http://www.bohemiancoding.com/sketch -->
    <title>age-old</title>
    <desc>Created with Sketch.</desc>
    <defs></defs>
    <g id="Page-1" stroke="none" stroke-width="1" fill="none" fill-rule="evenodd" sketch:type="MSPage">
        <g id="age-old" sketch:type="MSLayerGroup" fill="#4A4A4A">
            <g id="Group" transform="translate(5.000000, 10.000000)" sketch:type="MSShapeGroup">
                <path d="M16.6858676,18.693884 C16.6732583,18.693884 16.6598925,18.6933796 16.6467788,18.6918665 C16.4788232,18.6716916 16.3517216,18.5297111 16.3517216,18.3604945 L16.3517216,12.2651668 L15.8821519,13.4781799 C15.8322191,13.6067945 15.7089003,13.6910246 15.5709547,13.6910246 L11.165271,13.6910246 C10.9811755,13.6910246 10.8318815,13.542235 10.8318815,13.3576351 C10.8318815,13.1735396 10.9811755,13.0242456 11.165271,13.0242456 L15.3429789,13.0242456 L16.3744183,10.3606605 C16.432421,10.2103579 16.5907936,10.1261279 16.7466443,10.1531117 C16.9047648,10.1828696 17.0190049,10.320563 17.0190049,10.4809531 L17.0190049,15.5039874 L18.8877007,7.61133232 C18.9260329,7.44665508 19.083649,7.33443245 19.2508481,7.35712916 C19.4188037,7.37654746 19.5451488,7.51903237 19.5451488,7.68824895 L19.5451488,13.7583581 L20.3597085,11.6727826 C20.4101456,11.5451767 20.5329601,11.4609466 20.6706534,11.4609466 L25.8397032,11.4609466 C26.0237987,11.4609466 26.1733449,11.6097362 26.1733449,11.7943361 C26.1733449,11.9784316 26.0240509,12.1277256 25.8397032,12.1277256 L20.8981249,12.1277256 L19.5224521,15.6507594 C19.463945,15.8003055 19.3068333,15.8852921 19.1499738,15.8575517 C18.99261,15.828046 18.8781177,15.6901004 18.8781177,15.5297103 L18.8781177,10.5447561 L17.0094218,18.437159 C16.9741158,18.5889747 16.8386921,18.693884 16.6858676,18.693884 L16.6858676,18.693884 Z" id="Shape"></path>
                <path d="M28.4396862,2.10311411 C27.1297994,0.793227352 25.4167659,0.087652439 23.6030137,0.087652439 C21.7892616,0.087652439 20.076228,0.793227352 18.7663413,2.10311411 L15.2395555,5.62989983 L11.7127698,2.10311411 C10.4028831,0.793227352 8.68984953,0.087652439 6.87609736,0.087652439 C5.06234518,0.087652439 3.34931164,0.793227352 2.03942488,2.10311411 C-0.630980169,4.77351916 -0.630980169,9.10632622 2.03942488,11.7764591 L14.8867681,24.6240745 C14.9874867,24.7247931 15.0882054,24.7247931 15.188924,24.7247931 C15.2896427,24.7247931 15.3903613,24.6741616 15.4910799,24.6240745 L28.3389676,11.7761868 C31.1100913,9.10578179 31.1100913,4.77297474 28.4396862,2.1028419 L28.4396862,2.10311411 Z M27.7437663,11.1422038 L15.1983068,23.6876633 L2.65284734,11.1419316 C0.335229747,8.82458624 0.335229747,4.99537239 2.65284734,2.678027 C3.76129682,1.56957753 5.27262086,0.914634146 6.88493576,0.914634146 C8.49725065,0.914634146 10.0085747,1.51894599 11.1170242,2.67775479 L14.5931784,6.15390897 L12.1751143,8.62287674 C12.0237642,8.7739547 12.0237642,9.07638284 12.1751143,9.22718859 C12.275833,9.32790723 12.3765516,9.32790723 12.4772703,9.32790723 C12.5779889,9.32790723 12.6787075,9.27782012 12.7794262,9.22718859 L15.5001905,6.50669643 L19.2785007,2.72838632 C20.3872223,1.61966463 21.8985464,0.964449042 23.5108613,0.964449042 C25.1231762,0.964449042 26.6345002,1.56930531 27.7429497,2.72838632 C30.1111988,4.99537239 30.1111988,8.82431402 27.7429497,11.1419316 L27.7437663,11.1422038 Z" id="Shape"></path>
            </g>
            <path d="M20,40 C31.045695,40 40,31.045695 40,20 C40,8.954305 31.045695,0 20,0 C8.954305,0 0,8.954305 0,20 C0,31.045695 8.954305,40 20,40 L20,40 Z M20,39.1304348 C9.43455261,39.1304348 0.869565217,30.5654474 0.869565217,20 C0.869565217,9.43455261 9.43455261,0.869565217 20,0.869565217 C30.5654474,0.869565217 39.1304348,9.43455261 39.1304348,20 C39.1304348,30.5654474 30.5654474,39.1304348 20,39.1304348 L20,39.1304348 Z" id="Shape-Copy-3" sketch:type="MSShapeGroup"></path>
        </g>
    </g>
</svg>