<?xml version="1.0" encoding="UTF-8" standalone="no"?>
<svg width="9px" height="40px" viewBox="0 0 9 40" version="1.1" xmlns="http://www.w3.org/2000/svg" xmlns:xlink="http://www.w3.org/1999/xlink" xmlns:sketch="http://www.bohemiancoding.com/sketch/ns">
    <!-- Generator: Sketch 3.3.3 (12072) - http://www.bohemiancoding.com/sketch -->
    <title>arrow-left</title>
    <desc>Created with Sketch.</desc>
    <defs></defs>
    <g id="Page-1" stroke="none" stroke-width="1" fill="none" fill-rule="evenodd" sketch:type="MSPage">
        <g id="arrow-left" sketch:type="MSLayerGroup" fill="#4A4A4A">
            <path d="M8.45360825,39.2783505 C8.49356055,39.2783505 8.548971,39.3124493 8.56808531,39.3889065 L8.55477631,39.3480033 L0.719724763,19.96656 L0.709616657,19.9441607 C0.729736573,19.9844006 0.729736573,20.0053091 0.726396896,20.0153282 L8.55477631,0.651996652 C8.53564772,0.699823719 8.48359631,0.724479647 8.42121938,0.699528873 C8.37234123,0.679977614 8.3476853,0.62792621 8.37263607,0.565549275 L0.55864838,19.8840299 L0.511777399,19.9999088 L0.558584999,20.1158133 L8.35239943,39.4147824 C8.33161452,39.3628247 8.36126639,39.2924015 8.41766152,39.2736031 L8.20618557,39.3440951 L8.20618557,39.5670103 C8.20618557,39.4338942 8.28454306,39.3406114 8.37839933,39.2988975 C8.41010852,39.2848046 8.43209171,39.2804079 8.45312454,39.2786552 C8.45679175,39.2783496 8.46018215,39.2782742 8.45360825,39.2783505 L8.45360825,39.2783505 Z M8.45360825,39.8969072 C8.46994385,39.8969835 8.48583035,39.8966305 8.50449287,39.8950752 C8.54647154,39.891577 8.58541371,39.8837886 8.629619,39.8641418 C8.73839082,39.8157988 8.82474227,39.7129994 8.82474227,39.5670103 L8.51546392,39.5670103 L8.61326632,39.8604175 C8.90446052,39.7633528 9.03449703,39.4545161 8.926333,39.184106 L1.13213665,19.8841867 L1.13207327,20.1159701 L8.94650626,0.796382506 C9.05288606,0.530439211 8.91002589,0.228845522 8.65094557,0.125213395 C8.38610931,0.019278892 8.08451562,0.16213906 7.9808835,0.421219378 L0.146254619,19.8016116 C0.0950056953,19.9534537 0.0950056953,20.0980737 0.156362724,20.2207877 L0.432989691,20.0824742 L0.146254619,20.1983884 L7.98130617,39.5798317 L8.26804124,39.4639175 L7.96799716,39.5389285 C8.02553697,39.7690878 8.23324358,39.8969072 8.45360825,39.8969072 L8.45360825,39.8969072 Z" id="Shape" sketch:type="MSShapeGroup"></path>
        </g>
    </g>
</svg>