<?xml version="1.0" encoding="UTF-8" standalone="no"?>
<svg width="10px" height="40px" viewBox="0 0 10 40" version="1.1" xmlns="http://www.w3.org/2000/svg" xmlns:xlink="http://www.w3.org/1999/xlink" xmlns:sketch="http://www.bohemiancoding.com/sketch/ns">
    <!-- Generator: Sketch 3.3.3 (12072) - http://www.bohemiancoding.com/sketch -->
    <title>arrow-right</title>
    <desc>Created with Sketch.</desc>
    <defs></defs>
    <g id="Page-1" stroke="none" stroke-width="1" fill="none" fill-rule="evenodd" sketch:type="MSPage">
        <g id="arrow-right" sketch:type="MSLayerGroup" transform="translate(0.072165, 0.000000)" fill="#4A4A4A">
            <path d="M0.622895046,39.2783505 C0.621972852,39.2783505 0.624721877,39.2784756 0.634964528,39.2801846 C0.676959777,39.2871916 0.721475847,39.3054229 0.766970545,39.350968 L0.72117254,39.3051192 L0.660505268,39.2808254 C0.711785155,39.3013601 0.735607507,39.3517075 0.711731796,39.411463 L8.51702998,20.1136902 L8.56292868,20.0002105 L8.51717709,19.8866741 L0.731993679,0.567086499 C0.751793113,0.616636412 0.722969055,0.685169446 0.663373493,0.705056657 C0.623848914,0.721482231 0.546993125,0.689086023 0.527912823,0.631781656 L8.36084938,20.0310559 L8.37082565,20.0531859 C8.35141852,20.0143286 8.35141852,19.9953921 8.35428768,19.986775 L0.534474526,39.3503874 L0.828852279,39.4639175 L0.563605532,39.2952198 C0.571152812,39.2838864 0.579754587,39.2783505 0.622895046,39.2783505 L0.622895046,39.2783505 Z M0.622895046,39.8969072 C0.81707081,39.8969072 0.993870992,39.783124 1.09409903,39.6326152 L1.11151167,39.6064673 L1.12323003,39.5774476 L8.94960489,20.1960043 C9.0002272,20.0458451 9.0002272,19.9031972 8.93962862,19.7818656 L8.65522714,19.9175258 L8.94960489,19.8039957 L1.12323003,0.42255236 C1.03253175,0.148279852 0.717526459,0.0154990012 0.441114762,0.126186257 C0.164707645,0.21783918 0.035610112,0.52478574 0.142739554,0.792906266 L7.9282568,20.1133259 L7.92840391,19.8863098 L0.122624775,39.1852788 C0.0173740738,39.44869 0.159269764,39.7485796 0.420519039,39.8531952 L0.540512153,39.5670103 L0.314053761,39.7830526 C0.378163825,39.8472337 0.450726714,39.8769515 0.528442672,39.8899185 C0.56378636,39.8958156 0.587774725,39.8969072 0.622895046,39.8969072 L0.622895046,39.8969072 Z" id="Shape" sketch:type="MSShapeGroup"></path>
        </g>
    </g>
</svg>