<?xml version="1.0" encoding="UTF-8" standalone="no"?>
<svg width="99px" height="95px" viewBox="0 0 99 95" version="1.1" xmlns="http://www.w3.org/2000/svg" xmlns:xlink="http://www.w3.org/1999/xlink" xmlns:sketch="http://www.bohemiancoding.com/sketch/ns">
    <!-- Generator: Sketch 3.4.1 (15681) - http://www.bohemiancoding.com/sketch -->
    <title>book</title>
    <desc>Created with Sketch.</desc>
    <defs></defs>
    <g id="Page-1" stroke="none" stroke-width="1" fill="none" fill-rule="evenodd" sketch:type="MSPage">
        <g id="book" sketch:type="MSLayerGroup" fill="#000000">
            <g id="Group" sketch:type="MSShapeGroup">
                <path d="M98.119,80.609 L98.119,14.463 C98.119,6.708 91.827,0.421 84.068,0.421 L26.941,0.421 C19.191,0.421 12.903,6.696 12.894,14.451 L21.658,14.451 C23.769,14.451 25.477,16.152 25.477,18.251 C25.477,20.365 23.769,22.071 21.658,22.071 L4.442,22.071 C2.079,22.071 0.162,23.988 0.162,26.35 C0.162,28.713 2.079,30.634 4.442,30.634 L12.894,30.634 L12.894,37.953 L21.658,37.953 C23.769,37.953 25.477,39.648 25.477,41.753 C25.477,43.868 23.769,45.574 21.658,45.574 L4.442,45.574 C2.079,45.574 0.162,47.485 0.162,49.853 C0.162,52.215 2.079,54.131 4.442,54.131 L12.894,54.131 L12.894,61.541 L21.658,61.541 C23.769,61.541 25.477,63.247 25.477,65.347 C25.477,67.456 23.769,69.168 21.658,69.168 L4.442,69.168 C2.079,69.168 0.162,71.083 0.162,73.445 C0.162,75.808 2.079,77.723 4.442,77.723 L12.894,77.723 L12.894,80.608 C12.894,88.375 19.186,94.666 26.941,94.666 L84.068,94.666 C91.827,94.667 98.119,88.376 98.119,80.609 L98.119,80.609 Z M70.422,34.924 L68.496,50.988 C68.412,51.575 68.356,52.146 68.326,52.678 C68.296,53.221 68.282,53.728 68.282,54.196 C68.282,55.73 68.906,56.494 70.167,56.494 C71.932,56.494 73.53,55.24 74.97,52.732 C76.39,50.261 77.102,47.447 77.102,44.283 C77.102,39.267 75.349,35.161 71.838,31.97 C68.354,28.735 63.898,27.116 58.469,27.116 C52.806,27.116 48.026,29.048 44.154,32.928 C40.3,36.776 38.373,41.55 38.373,47.233 C38.373,50.371 39.062,53.449 40.454,56.462 C41.858,59.292 43.825,61.629 46.358,63.464 C49.74,65.912 53.983,67.134 59.086,67.134 C63.859,67.134 68.854,65.918 74.076,63.49 L74.534,63.248 L76.124,67.656 L75.755,67.839 C70.431,70.405 64.887,71.693 59.115,71.693 C52.729,71.693 47.386,70.152 43.086,67.08 C39.923,64.842 37.45,61.978 35.672,58.496 C33.914,54.832 33.035,51.097 33.035,47.313 C33.035,40.402 35.478,34.612 40.359,29.929 C45.241,25.242 51.268,22.895 58.433,22.895 C65.032,22.895 70.559,24.919 75.015,28.95 C79.444,32.949 81.664,37.948 81.664,43.96 C81.664,48.61 80.455,52.592 78.05,55.913 C75.614,59.276 72.771,60.956 69.504,60.956 C66.891,60.956 65.112,59.728 64.176,57.259 C61.663,59.825 58.864,61.107 55.78,61.107 C52.41,61.107 49.604,59.89 47.36,57.463 C45.155,55.058 44.053,51.984 44.053,48.244 C44.053,44.224 45.284,40.914 47.757,38.326 C50.225,35.672 53.329,34.344 57.066,34.344 C60.5,34.344 63.266,35.668 65.371,38.321 L65.798,34.925 L70.422,34.925 L70.422,34.924 Z M64.189,46.737 C64.189,44.843 63.543,43.266 62.257,42.007 C60.921,40.743 59.303,40.108 57.4,40.108 C55.329,40.108 53.644,40.909 52.331,42.492 C51.002,44.064 50.334,46.065 50.334,48.503 C50.334,50.624 50.867,52.362 51.933,53.73 C52.999,55.091 54.367,55.775 56.051,55.775 C58.202,55.775 60.092,54.871 61.734,53.057 C63.37,51.247 64.189,49.138 64.189,46.737 L64.189,46.737 Z" id="Shape"></path>
            </g>
        </g>
    </g>
</svg>