<?xml version="1.0" encoding="UTF-8" standalone="no"?>
<svg width="93px" height="92px" viewBox="0 0 93 92" version="1.1" xmlns="http://www.w3.org/2000/svg" xmlns:xlink="http://www.w3.org/1999/xlink" xmlns:sketch="http://www.bohemiancoding.com/sketch/ns">
    <!-- Generator: Sketch 3.4.1 (15681) - http://www.bohemiancoding.com/sketch -->
    <title>chat-2</title>
    <desc>Created with Sketch.</desc>
    <defs></defs>
    <g id="Page-1" stroke="none" stroke-width="1" fill="none" fill-rule="evenodd" sketch:type="MSPage">
        <g id="chat-2" sketch:type="MSLayerGroup" fill="#000000">
            <g id="Group" sketch:type="MSShapeGroup">
                <g id="Shape">
                    <path d="M71.1,48.7 C59.2,48.7 49.6,58.3 49.6,70.2 C49.6,82.1 59.2,91.7 71.1,91.7 C83,91.7 92.6,82.1 92.6,70.2 C92.6,58.4 83,48.7 71.1,48.7 L71.1,48.7 Z M67.4,81.8 L57.3,71.7 L61.6,67.4 L67.4,73.2 L80.9,59.7 L85.2,64 L67.4,81.8 L67.4,81.8 Z"></path>
                    <path d="M71.1,41.8 L71.1,37.8 C71.1,29.7 64.5,23.2 56.5,23.2 L14.8,23.2 C14.1,23.2 13.3,23.3 12.4,23.4 L12.4,23.4 C5.3,24.6 0.2,30.7 0.2,37.9 L0.2,60.8 C0.2,68.9 6.8,75.4 14.8,75.4 L15.2,75.4 L15.2,88.2 C15.2,88.5 15.4,88.8 15.7,89 C15.8,89 15.9,89.1 16,89.1 C16.2,89.1 16.4,89 16.6,88.9 L30,75.5 L43.1,75.5 C42.8,73.8 42.6,72.1 42.6,70.3 C42.7,54.6 55.4,41.8 71.1,41.8 L71.1,41.8 Z"></path>
                    <path d="M63.8,13.1 C72.5,13.1 79.6,20.2 79.6,28.9 L79.6,43.2 C82.2,44 84.7,45.2 87,46.7 C89.6,43.9 91.1,40.2 91.1,36.1 L91.1,16.2 C91.1,7.5 84,0.4 75.3,0.4 L36.1,0.4 C28.3,0.4 21.8,6.1 20.6,13.5 C21.9,13.2 23.2,13 24.6,13 L63.8,13 L63.8,13.1 Z"></path>
                </g>
            </g>
        </g>
    </g>
</svg>