<?xml version="1.0" encoding="UTF-8" standalone="no"?>
<svg width="44px" height="46px" viewBox="0 0 44 46" version="1.1" xmlns="http://www.w3.org/2000/svg" xmlns:xlink="http://www.w3.org/1999/xlink" xmlns:sketch="http://www.bohemiancoding.com/sketch/ns">
    <!-- Generator: Sketch 3.4.1 (15681) - http://www.bohemiancoding.com/sketch -->
    <title>chat</title>
    <desc>Created with Sketch.</desc>
    <defs></defs>
    <g id="Page-1" stroke="none" stroke-width="1" fill="none" fill-rule="evenodd" sketch:type="MSPage">
        <g id="chat" sketch:type="MSLayerGroup" transform="translate(0.000000, -1.000000)" fill="#000000">
            <g id="Group" sketch:type="MSShapeGroup">
                <g id="Shape">
                    <path d="M33.204,7.166 C33.414,7.952 33.569,8.737 33.674,9.521 C33.73,10.308 33.778,11.145 33.73,12.034 C33.73,12.034 31.475,5.357 26.4,4.705 C25.716,4.497 25.035,4.497 24.363,4.653 C23.675,4.809 23.05,5.279 22.472,5.964 L23.993,6.643 L19.644,7.952 L17.865,3.817 L19.385,4.548 C20.323,3.552 21.374,2.666 22.576,1.932 C23.727,1.146 24.985,0.886 26.399,0.99 C28.337,1.147 29.802,1.774 30.801,2.77 C31.847,3.816 32.63,5.28 33.204,7.166 L33.204,7.166 L33.204,7.166 Z M33.204,12.557 C36.083,12.557 38.387,14.913 38.387,17.791 C38.387,20.62 36.083,22.974 33.204,22.974 C30.327,22.974 28.02,20.62 28.02,17.791 C28.021,14.913 30.327,12.557 33.204,12.557 L33.204,12.557 L33.204,12.557 Z M27.548,24.23 L38.86,24.23 C41.262,24.23 43.204,26.169 43.204,28.577 L43.204,41.717 L41.009,41.717 L41.009,30.832 L38.65,30.832 L38.65,41.717 L27.868,41.717 L27.868,30.832 L25.511,30.832 L25.511,41.717 L23.206,41.717 L23.206,28.577 C23.206,26.17 25.144,24.23 27.548,24.23 L27.548,24.23 L27.548,24.23 Z M10.797,3.868 C13.678,3.868 15.982,6.171 15.982,9.051 C15.982,11.93 13.678,14.233 10.797,14.233 C7.92,14.233 5.612,11.93 5.612,9.051 C5.612,6.17 7.92,3.868 10.797,3.868 L10.797,3.868 L10.797,3.868 Z M5.143,15.491 L16.451,15.491 C18.864,15.491 20.847,17.478 20.847,19.887 L20.847,33.027 L18.598,33.027 L18.598,22.086 L16.242,22.086 L16.242,33.027 L5.456,33.027 L5.456,22.086 L3.102,22.086 L3.102,33.027 L0.796,33.027 L0.796,19.887 C0.796,17.478 2.735,15.491 5.143,15.491 L5.143,15.491 Z"></path>
                    <path d="M6.734,39.669 C6.647,38.861 6.613,38.061 6.632,37.268 C6.709,36.485 6.784,35.651 6.976,34.779 C6.976,34.779 8.16,41.728 13.071,43.167 C13.708,43.481 14.379,43.585 15.078,43.54 C15.776,43.489 16.47,43.122 17.141,42.54 L15.75,41.63 L20.246,41.019 L21.36,45.384 L19.974,44.419 C18.887,45.256 17.715,45.972 16.41,46.505 C15.146,47.099 13.866,47.163 12.489,46.842 C10.599,46.381 9.249,45.53 8.425,44.392 C7.553,43.191 7.006,41.622 6.734,39.669 L6.734,39.669 L6.734,39.669 Z"></path>
                </g>
            </g>
        </g>
    </g>
</svg>