<?xml version="1.0" encoding="UTF-8" standalone="no"?>
<svg width="22px" height="22px" viewBox="0 0 22 22" version="1.1" xmlns="http://www.w3.org/2000/svg" xmlns:xlink="http://www.w3.org/1999/xlink" xmlns:sketch="http://www.bohemiancoding.com/sketch/ns">
    <!-- Generator: Sketch 3.3.3 (12072) - http://www.bohemiancoding.com/sketch -->
    <title>close</title>
    <desc>Created with Sketch.</desc>
    <defs></defs>
    <g id="Page-1" stroke="none" stroke-width="1" fill="none" fill-rule="evenodd" sketch:type="MSPage">
        <g id="close" sketch:type="MSLayerGroup" fill="#4A4A4A">
            <path d="M20.8923478,21.7608696 C20.6701957,21.7608696 20.4478043,21.6759783 20.2782609,21.5064348 L0.493326087,1.72173913 C0.154,1.3828913 0.154,0.832413043 0.493326087,0.493565217 C0.832652174,0.15423913 1.38241304,0.15423913 1.72173913,0.493565217 L21.5066739,20.2782609 C21.846,20.6171087 21.846,21.167587 21.5066739,21.5064348 C21.3368913,21.6762174 21.1145,21.7608696 20.8923478,21.7608696 L20.8923478,21.7608696 Z" id="Shape" sketch:type="MSShapeGroup"></path>
            <path d="M1.10765217,21.7608696 C0.8855,21.7608696 0.663108696,21.6759783 0.493565217,21.5064348 C0.15423913,21.167587 0.15423913,20.6171087 0.493565217,20.2782609 L20.2782609,0.493326087 C20.617587,0.154 21.1673478,0.154 21.5066739,0.493326087 C21.846,0.832173913 21.846,1.38265217 21.5066739,1.7215 L1.72173913,21.5064348 C1.55219565,21.6762174 1.32980435,21.7608696 1.10765217,21.7608696 L1.10765217,21.7608696 Z" id="Shape" sketch:type="MSShapeGroup"></path>
        </g>
    </g>
</svg>