<?xml version="1.0" encoding="UTF-8" standalone="no"?>
<svg width="86px" height="60px" viewBox="0 0 86 60" version="1.1" xmlns="http://www.w3.org/2000/svg" xmlns:xlink="http://www.w3.org/1999/xlink" xmlns:sketch="http://www.bohemiancoding.com/sketch/ns">
    <!-- Generator: Sketch 3.4.1 (15681) - http://www.bohemiancoding.com/sketch -->
    <title>company</title>
    <desc>Created with Sketch.</desc>
    <defs></defs>
    <g id="Page-1" stroke="none" stroke-width="1" fill="none" fill-rule="evenodd" sketch:type="MSPage">
        <g id="company" sketch:type="MSLayerGroup" fill="#000000">
            <g id="Group" sketch:type="MSShapeGroup">
                <g id="Shape">
                    <path d="M43.969,24.689 C50.784,24.689 56.316,19.16 56.316,12.343 C56.315,5.529 50.784,-3.55271368e-15 43.969,-3.55271368e-15 C37.159,-3.55271368e-15 31.627,5.529 31.627,12.344 C31.627,19.16 37.159,24.689 43.969,24.689 L43.969,24.689 Z"></path>
                    <path d="M18.477,27.982 C24.654,27.982 29.667,22.968 29.667,16.787 C29.667,10.607 24.653,5.594 18.477,5.594 C12.299,5.594 7.285,10.608 7.285,16.787 C7.284,22.969 12.299,27.982 18.477,27.982 L18.477,27.982 Z"></path>
                    <path d="M80.831,31.291 C79.485,30.066 79.45,21.656 79.45,21.271 L79.45,21.253 C79.45,15.71 74.954,11.216 69.414,11.216 C63.878,11.216 59.382,15.71 59.382,21.253 C59.382,21.253 59.373,30.038 58.002,31.29 L69.414,31.29 L69.414,31.29 L69.414,31.29 L80.831,31.29 L80.831,31.291 Z"></path>
                    <path d="M71.994,33.484 C74.228,35.546 74.388,36.513 74.392,36.701 L74.392,36.736 C74.343,36.986 74.153,37.244 73.874,37.492 C73.551,37.775 73.103,38.047 72.586,38.277 C71.64,38.705 70.463,39 69.418,39 C68.352,39 67.152,38.697 66.197,38.258 C65.679,38.022 65.236,37.748 64.923,37.461 C64.661,37.223 64.485,36.977 64.436,36.738 C64.436,36.736 64.436,36.713 64.441,36.668 C64.462,36.414 64.715,35.443 66.839,33.482 C64.343,33.964 62.033,35.138 60.042,36.836 C56.355,30.91 50.527,27.08 43.969,27.08 C38.27,27.08 33.127,29.976 29.455,34.627 C26.397,31.816 22.596,30.15 18.476,30.15 C8.369,30.15 0.168,40.177 0.168,52.539 C0.168,56.664 2.898,60 6.271,60 L30.512,60 L30.68,60 L57.43,60 C57.607,60 57.78,59.984 57.952,59.969 C58.121,59.988 58.298,60 58.475,60 L80.358,60 C83.385,60 85.832,57.008 85.832,53.309 C85.831,43.301 79.831,35 71.994,33.484 L71.994,33.484 Z M21.914,34.043 C21.896,34.231 21.701,34.986 19.919,36.547 L19.472,36.942 L21.853,53.178 L19.286,56.215 L18.822,56.762 L18.477,57.17 L18.131,56.762 L17.671,56.215 L15.104,53.176 L17.485,36.942 L17.034,36.549 C15.167,34.912 15.043,34.156 15.039,34.02 L15.039,33.995 C15.074,33.823 15.202,33.645 15.396,33.474 C15.618,33.279 15.927,33.091 16.286,32.931 C16.941,32.638 17.756,32.433 18.477,32.433 C19.211,32.433 20.039,32.644 20.703,32.947 C21.057,33.109 21.362,33.299 21.579,33.496 C21.76,33.662 21.884,33.83 21.915,33.996 C21.914,33.996 21.918,34.012 21.914,34.043 L21.914,34.043 Z M47.762,31.373 C47.744,31.58 47.528,32.414 45.563,34.137 L45.067,34.571 L47.696,52.477 L44.864,55.827 L44.355,56.431 L43.974,56.88 L43.593,56.431 L43.08,55.826 L40.252,52.476 L42.876,34.572 L42.381,34.138 C40.319,32.333 40.186,31.501 40.177,31.351 L40.177,31.322 C40.217,31.133 40.359,30.935 40.575,30.748 C40.818,30.531 41.159,30.324 41.557,30.148 C42.279,29.824 43.172,29.599 43.968,29.599 C44.782,29.599 45.695,29.829 46.425,30.163 C46.819,30.345 47.154,30.554 47.394,30.77 C47.593,30.952 47.725,31.139 47.766,31.319 C47.767,31.322 47.767,31.34 47.762,31.373 L47.762,31.373 Z"></path>
                </g>
            </g>
        </g>
    </g>
</svg>