<?xml version="1.0" encoding="UTF-8" standalone="no"?>
<svg width="90px" height="90px" viewBox="0 0 90 90" version="1.1" xmlns="http://www.w3.org/2000/svg" xmlns:xlink="http://www.w3.org/1999/xlink" xmlns:sketch="http://www.bohemiancoding.com/sketch/ns">
    <!-- Generator: Sketch 3.4.1 (15681) - http://www.bohemiancoding.com/sketch -->
    <title>copy</title>
    <desc>Created with Sketch.</desc>
    <defs></defs>
    <g id="Page-1" stroke="none" stroke-width="1" fill="none" fill-rule="evenodd" sketch:type="MSPage">
        <g id="copy" sketch:type="MSLayerGroup" fill="#000000">
            <g id="Group" sketch:type="MSShapeGroup">
                <path d="M45,0 C20.2,0 0,20.2 0,45 C0,69.8 20.2,90 45,90 C69.8,90 90,69.8 90,45 C90,20.2 69.8,0 45,0 L45,0 Z M46.4,65.4 C51.2,65.4 55.9,63.6 59.5,60.3 C61,58.9 63.3,59 64.7,60.5 C66.1,62 66,64.3 64.5,65.7 C59.5,70.2 53.1,72.7 46.4,72.7 C31.5,72.7 19.4,60.4 19.4,45.4 C19.4,30.4 31.5,18.1 46.4,18.1 C53.6,18.1 60.4,20.9 65.5,26.1 C66.9,27.6 66.9,29.9 65.5,31.3 C64,32.7 61.7,32.7 60.3,31.3 C56.6,27.6 51.7,25.5 46.5,25.5 C35.7,25.5 26.9,34.4 26.9,45.4 C26.8,56.4 35.6,65.4 46.4,65.4 L46.4,65.4 Z" id="Shape"></path>
            </g>
        </g>
    </g>
</svg>