<?xml version="1.0" encoding="UTF-8" standalone="no"?>
<svg width="40px" height="40px" viewBox="0 0 40 40" version="1.1" xmlns="http://www.w3.org/2000/svg" xmlns:xlink="http://www.w3.org/1999/xlink" xmlns:sketch="http://www.bohemiancoding.com/sketch/ns">
    <!-- Generator: Sketch 3.3.3 (12072) - http://www.bohemiancoding.com/sketch -->
    <title>drugs</title>
    <desc>Created with Sketch.</desc>
    <defs></defs>
    <g id="Page-1" stroke="none" stroke-width="1" fill="none" fill-rule="evenodd" sketch:type="MSPage">
        <g id="drugs" sketch:type="MSLayerGroup" fill="#4A4A4A">
            <g id="Page-1" sketch:type="MSShapeGroup">
                <g id="drugs">
                    <path d="M0.145985401,20 C0.145985401,30.9650695 9.03493051,39.8540146 20,39.8540146 C30.9650695,39.8540146 39.8540146,30.9650695 39.8540146,20 C39.8540146,9.03493051 30.9650695,0.145985401 20,0.145985401 C9.03493051,0.145985401 0.145985401,9.03493051 0.145985401,20 L1.02189781,20 C1.02189781,9.51868359 9.51868359,1.02189781 20,1.02189781 C30.4813165,1.02189781 38.9781022,9.51868359 38.9781022,20 C38.9781022,30.4813165 30.4813165,38.9781022 20,38.9781022 C9.51868359,38.9781022 1.02189781,30.4813165 1.02189781,20 L0.145985401,20 L0.145985401,20 Z" id="Shape"></path>
                    <path d="M13.4832117,31.4840876 C12.8607299,31.4840876 12.2353285,31.3859854 11.6262774,31.1868613 C8.49489051,30.1664234 6.77751825,26.7883212 7.7979562,23.6569343 L9.96350365,17.0131387 L10.9562044,17.3366423 L8.78978102,23.980438 C7.94832117,26.5652555 9.3649635,29.3521168 11.9489051,30.1947445 C13.2014599,30.6023358 14.5372263,30.4989781 15.7109489,29.9027737 C16.8846715,29.3056934 17.7559124,28.2881752 18.1635036,27.0356204 L20.2519708,20.6309489 L21.2446715,20.9550365 L19.1564964,27.36 C18.6621898,28.8770803 17.6061314,30.110365 16.1842336,30.8327007 C15.3345985,31.2662774 14.4119708,31.4849635 13.4835036,31.4849635 L13.4832117,31.4840876 L13.4832117,31.4840876 Z M21.059854,20.3605839 C21.0064234,20.3605839 20.9512409,20.3518248 20.8969343,20.3343066 C20.6236496,20.2449635 20.4735766,19.9509489 20.5635036,19.6764964 L22.6581022,13.250219 C23.499854,10.6662774 22.0817518,7.87854015 19.4981022,7.03649635 C16.9141606,6.19386861 14.1272993,7.61167883 13.2837956,10.1956204 L11.1611679,16.7086131 C11.0712409,16.9821898 10.7778102,17.1328467 10.5033577,17.0429197 C10.2289051,16.9535766 10.0794161,16.6586861 10.1687591,16.3848175 L12.2913869,9.87182482 C13.3118248,6.74072993 16.6905109,5.02364964 19.8218978,6.04379562 C22.9529927,7.06452555 24.670073,10.4426277 23.650219,13.5743066 L21.5556204,20.0005839 C21.4837956,20.220146 21.2791241,20.3605839 21.059854,20.3605839 L21.059854,20.3605839 L21.059854,20.3605839 Z" id="Shape"></path>
                    <path d="M20.9062774,20.8268613 C20.8528467,20.8268613 20.7982482,20.8189781 20.7442336,20.8005839 L10.3783942,17.4224818 C10.1039416,17.3328467 9.9550365,17.0382482 10.0440876,16.7643796 C10.1334307,16.4905109 10.4286131,16.3410219 10.7016058,16.429781 L21.0671533,19.8087591 C21.3416058,19.8981022 21.4910949,20.1921168 21.4014599,20.4662774 C21.3313869,20.6870073 21.1261314,20.8268613 20.9059854,20.8268613 L20.9062774,20.8268613 L20.9062774,20.8268613 Z M11.9962044,29.4510949 C11.919708,29.4510949 11.8423358,29.4335766 11.7684672,29.3985401 C8.71094891,27.9159124 8.93927007,25.1553285 9.49489051,23.8779562 L11.1941606,18.6645255 C11.2835036,18.3906569 11.5775182,18.2394161 11.8525547,18.329927 C12.1264234,18.4192701 12.2764964,18.7135766 12.1868613,18.9880292 L10.460146,24.2764964 C10.4113869,24.3874453 9.29518248,27.039708 12.2236496,28.460438 C12.4835036,28.5854015 12.5915328,28.8975182 12.4659854,29.1570803 C12.3763504,29.3427737 12.189781,29.4508029 11.9959124,29.4508029 L11.9962044,29.4510949 L11.9962044,29.4510949 Z M25.4648175,25.9310949 C23.8531387,25.9310949 22.2750365,25.7938686 20.900146,25.5354745 C20.6175182,25.4811679 20.4315328,25.2084672 20.4849635,24.9252555 C20.5386861,24.6411679 20.8110949,24.4566423 21.0951825,24.5086131 C22.4061314,24.7559124 23.9170803,24.8864234 25.4659854,24.8864234 L25.4674453,24.8864234 C30.3883212,24.8864234 33.5287591,23.6274453 33.5287591,22.7608759 C33.5287591,21.8937226 30.3880292,20.6347445 25.4674453,20.6347445 C24.3848175,20.6353285 23.330219,20.6972263 22.3345985,20.8210219 C22.0484672,20.8560584 21.7874453,20.6531387 21.7518248,20.3667153 C21.7167883,20.0805839 21.919708,19.8207299 22.2058394,19.7848175 C23.2437956,19.6563504 24.3418978,19.5912409 25.4671533,19.5912409 C29.9927007,19.5912409 34.5731387,20.680292 34.5731387,22.7611679 C34.5731387,24.8420438 29.9921168,25.9308029 25.4671533,25.9308029 L25.4651095,25.9308029 L25.4648175,25.9310949 L25.4648175,25.9310949 Z" id="Shape"></path>
                    <path d="M25.4668613,30.0981022 C23.4779562,30.0981022 20.8166423,29.8341606 19.3529927,29.2440876 C19.0872993,29.1372263 18.9576642,28.8324088 19.0651095,28.5655474 C19.1725547,28.2978102 19.4759124,28.1684672 19.7448175,28.2764964 C21.0694891,28.8113869 23.6411679,29.0551825 25.4674453,29.0551825 C30.3880292,29.0551825 33.5287591,27.7962044 33.5287591,26.9290511 L33.5287591,23.1818978 C33.5287591,22.8928467 33.7623358,22.659854 34.0505109,22.659854 C34.3383942,22.659854 34.5725547,22.8925547 34.5725547,23.1813139 L34.5725547,26.9284672 C34.5725547,29.0090511 29.9924088,30.0981022 25.4674453,30.0981022 L25.4668613,30.0981022 L25.4668613,30.0981022 Z M22.929635,24.5623358 C22.7310949,24.5623358 22.5424818,24.449635 22.4545985,24.2575182 C22.3348905,23.9956204 22.4487591,23.6858394 22.7115328,23.5655474 L28.159708,21.0639416 C28.4233577,20.9442336 28.7319708,21.0581022 28.8516788,21.319708 C28.9713869,21.5816058 28.8575182,21.8919708 28.5959124,22.0125547 L23.1477372,24.5147445 C23.0764964,24.5468613 23.0035036,24.5623358 22.930219,24.5623358 L22.929635,24.5623358 L22.929635,24.5623358 Z" id="Shape"></path>
                </g>
            </g>
        </g>
    </g>
</svg>