<?xml version="1.0" encoding="UTF-8" standalone="no"?>
<svg width="99px" height="65px" viewBox="0 0 99 65" version="1.1" xmlns="http://www.w3.org/2000/svg" xmlns:xlink="http://www.w3.org/1999/xlink" xmlns:sketch="http://www.bohemiancoding.com/sketch/ns">
    <!-- Generator: Sketch 3.4.1 (15681) - http://www.bohemiancoding.com/sketch -->
    <title>email</title>
    <desc>Created with Sketch.</desc>
    <defs></defs>
    <g id="Page-1" stroke="none" stroke-width="1" fill="none" fill-rule="evenodd" sketch:type="MSPage">
        <g id="email" sketch:type="MSLayerGroup" fill="#000000">
            <g id="Group" sketch:type="MSShapeGroup">
                <path d="M7.438,0.588 C6.598,0.588 5.792,0.761 5.053,1.05 L49.586,37.925 L94.776,1.203 C93.938,0.812 93.026,0.587 92.047,0.587 L7.438,0.587 L7.438,0.588 Z" id="Shape"></path>
                <path d="M98.349,5.466 L51.324,43.684 C50.811,44.1 50.19,44.305 49.569,44.305 C48.936,44.305 48.31,44.088 47.797,43.666 L1.247,5.116 C1.036,5.76 0.899,6.426 0.899,7.127 L0.899,57.722 C0.899,58.489 1.053,59.214 1.293,59.902 L27.235,34.578 C28.338,33.506 30.098,33.523 31.17,34.623 C32.241,35.721 32.218,37.477 31.124,38.555 L5.213,63.851 C5.908,64.101 6.654,64.261 7.438,64.261 L92.046,64.261 C92.923,64.261 93.755,64.082 94.525,63.772 L68.5,38.361 C67.395,37.29 67.377,35.523 68.454,34.428 C69.525,33.323 71.281,33.307 72.387,34.383 L98.27,59.645 C98.458,59.036 98.582,58.395 98.582,57.723 L98.582,7.127 C98.582,6.552 98.486,6.005 98.349,5.466 L98.349,5.466 Z" id="Shape"></path>
            </g>
        </g>
    </g>
</svg>