<?xml version="1.0" encoding="UTF-8" standalone="no"?>
<svg width="101px" height="101px" viewBox="0 0 101 101" version="1.1" xmlns="http://www.w3.org/2000/svg" xmlns:xlink="http://www.w3.org/1999/xlink" xmlns:sketch="http://www.bohemiancoding.com/sketch/ns">
    <!-- Generator: Sketch 3.4.4 (17249) - http://www.bohemiancoding.com/sketch -->
    <title>info-section</title>
    <desc>Created with Sketch.</desc>
    <defs></defs>
    <g id="Page-1" stroke="none" stroke-width="1" fill="none" fill-rule="evenodd" sketch:type="MSPage">
        <g id="info-section" sketch:type="MSLayerGroup" transform="translate(-192.000000, -36.000000)" fill="#000000">
            <g id="Group" sketch:type="MSShapeGroup">
                <path d="M242.295,36.257 C214.681,36.257 192.295,58.643 192.295,86.257 C192.295,113.87 214.681,136.256 242.295,136.256 C269.909,136.256 292.295,113.87 292.295,86.257 C292.295,58.643 269.909,36.257 242.295,36.257 L242.295,36.257 Z M242.232,58.834 C243.352,57.618 244.717,57 246.287,57 C247.56,57 248.68,57.458 249.521,58.325 C250.367,59.187 250.796,60.29 250.796,61.6 C250.796,63.242 250.222,64.702 249.091,65.939 C247.929,67.215 246.57,67.864 245.056,67.864 C243.806,67.864 242.699,67.395 241.855,66.508 C241.019,65.639 240.592,64.503 240.592,63.137 C240.592,61.464 241.144,60.016 242.232,58.834 L242.232,58.834 Z M250.561,105.941 C246.416,109.839 243.457,112.269 241.519,113.373 C239.451,114.557 237.747,115.135 236.312,115.135 C234.886,115.135 233.723,114.66 232.853,113.725 C232.01,112.821 231.583,111.6 231.583,110.1 C231.583,106.266 233.755,97.362 238.226,82.879 C238.302,82.634 238.361,82.401 238.401,82.184 C238.234,82.256 238.041,82.358 237.817,82.497 C237.451,82.728 236.336,83.603 233.073,86.791 C232.575,87.278 231.796,87.323 231.245,86.896 L229.315,85.403 C229.007,85.166 228.813,84.81 228.779,84.422 C228.745,84.035 228.875,83.651 229.136,83.363 C232.143,80.052 234.95,77.648 237.48,76.218 C240.128,74.726 242.367,74 244.322,74 C245.586,74 246.607,74.314 247.359,74.936 C248.177,75.618 248.609,76.565 248.609,77.676 C248.609,78.405 248.263,80.304 245.709,88.869 C242.061,101.107 241.189,105.549 241.13,107.086 C241.82,106.678 243.453,105.518 246.939,102.242 C247.482,101.728 248.334,101.738 248.867,102.258 L250.578,103.926 C250.851,104.192 251.004,104.557 251,104.938 C250.996,105.319 250.838,105.68 250.561,105.941 L250.561,105.941 Z" id="Shape"></path>
            </g>
        </g>
    </g>
</svg>