<?xml version="1.0" encoding="UTF-8" standalone="no"?>
<svg width="40px" height="40px" viewBox="0 0 40 40" version="1.1" xmlns="http://www.w3.org/2000/svg" xmlns:xlink="http://www.w3.org/1999/xlink" xmlns:sketch="http://www.bohemiancoding.com/sketch/ns">
    <!-- Generator: Sketch 3.4.1 (15681) - http://www.bohemiancoding.com/sketch -->
    <title>married-couple</title>
    <desc>Created with Sketch.</desc>
    <defs></defs>
    <g id="Page-1" stroke="none" stroke-width="1" fill="none" fill-rule="evenodd" sketch:type="MSPage">
        <g id="married-couple" sketch:type="MSLayerGroup" fill="#4A4A4A">
            <g id="Page-1" sketch:type="MSShapeGroup">
                <g>
                    <g id="married-couple">
                        <path d="M23.9216601,30.4304455 C28.232477,30.4304455 31.7273871,26.9357715 31.7273871,22.6249966 C31.7273871,18.3140965 28.232535,14.8191769 23.9216601,14.8191769 C19.6108445,14.8191769 16.1159331,18.3140349 16.1159331,22.6249966 C16.1159331,26.9358648 19.6107533,30.4306309 23.9216601,30.4306309 L24.3762055,30.4306309 L24.3762055,29.9760854 L24.3762055,29.9759 L23.9216601,29.9759 L23.9216601,30.4304455 L23.9216601,30.4304455 L23.9216601,30.4304455 Z M23.9216601,29.5213546 L23.4671146,29.5213546 L23.4671146,29.9759 L23.4671146,29.9760854 L23.9216601,29.9760854 L23.9216601,29.52154 C20.1128272,29.52154 17.025024,26.4337846 17.025024,22.6249966 C17.025024,18.8161151 20.1129185,15.7282678 23.9216601,15.7282678 C27.730454,15.7282678 30.8182961,18.8161697 30.8182961,22.6249966 C30.8182961,26.4336807 27.7304137,29.5213546 23.9216601,29.5213546 L23.9216601,29.5213546 L23.9216601,29.5213546 Z" id="Shape"></path>
                        <path d="M15.4581822,27.6940571 C20.7822219,27.6940571 25.0981825,23.377513 25.0981825,18.0528184 C25.0981825,12.7281238 20.7822219,8.4115798 15.4581822,8.4115798 C10.1341425,8.4115798 5.81818182,12.7281238 5.81818182,18.0528184 C5.81818182,23.377513 10.1341425,27.6940571 15.4581822,27.6940571 L15.4581822,27.6940571 L15.4581822,27.6940571 Z M15.4581822,26.7353961 C10.6636253,26.7353961 6.77684278,22.8480882 6.77684278,18.0528184 C6.77684278,13.2575487 10.6636253,9.37024075 15.4581822,9.37024075 C20.252739,9.37024075 24.1395216,13.2575487 24.1395216,18.0528184 C24.1395216,22.8480882 20.252739,26.7353961 15.4581822,26.7353961 L15.4581822,26.7353961 L15.4581822,26.7353961 Z" id="Shape"></path>
                        <path d="M22.4342593,12.7218745 L28.9492696,6.20545503 L28.3063758,5.5627002 L21.7913654,12.0791197 L22.4342593,12.7218745 L22.4342593,12.7218745 L22.4342593,12.7218745 Z" id="Shape"></path>
                        <path d="M20,40 C31.045695,40 40,31.045695 40,20 C40,8.954305 31.045695,0 20,0 C8.954305,0 0,8.954305 0,20 C0,31.045695 8.954305,40 20,40 L20,40 L20,40 Z M20,39.1304348 C9.43455261,39.1304348 0.869565217,30.5654474 0.869565217,20 C0.869565217,9.43455261 9.43455261,0.869565217 20,0.869565217 C30.5654474,0.869565217 39.1304348,9.43455261 39.1304348,20 C39.1304348,30.5654474 30.5654474,39.1304348 20,39.1304348 L20,39.1304348 L20,39.1304348 Z M24.6464797,6.33885793 L28.6280575,6.33885793 L28.1735121,5.88431247 L28.1735121,9.8663601 L29.082603,9.8663601 L29.082603,5.88431247 L29.082603,5.42976702 L28.6280575,5.42976702 L24.6464797,5.42976702 L24.6464797,6.33885793 L24.6464797,6.33885793 L24.6464797,6.33885793 Z" id="Shape"></path>
                        <g id="Line-+-Line-Copy" transform="translate(22.000000, 30.000000)">
                            <path d="M2.00000004,0.274260066 L2,7.22573993 L2,7.5 L2.88720703,7.5 L2.88720703,7.22573993 L2.88720707,0.274260068 L2.88720707,1.87622657e-09 L2.00000004,0 L2.00000004,0.274260066 L2.00000004,0.274260066 L2.00000004,0.274260066 Z" id="Shape"></path>
                            <path d="M0.276666668,4.88720703 L4.70333335,4.88720703 L4.98000002,4.88720703 L4.98000002,4 L4.70333335,4 L0.276666668,4 L0,4 L0,4.88720703 L0.276666668,4.88720703 L0.276666668,4.88720703 L0.276666668,4.88720703 Z" id="Shape"></path>
                        </g>
                    </g>
                </g>
            </g>
        </g>
    </g>
</svg>