<?xml version="1.0" encoding="UTF-8" standalone="no"?>
<svg width="40px" height="40px" viewBox="0 0 40 40" version="1.1" xmlns="http://www.w3.org/2000/svg" xmlns:xlink="http://www.w3.org/1999/xlink" xmlns:sketch="http://www.bohemiancoding.com/sketch/ns">
    <!-- Generator: Sketch 3.3.3 (12072) - http://www.bohemiancoding.com/sketch -->
    <title>men</title>
    <desc>Created with Sketch.</desc>
    <defs></defs>
    <g id="Page-1" stroke="none" stroke-width="1" fill="none" fill-rule="evenodd" sketch:type="MSPage">
        <g id="men" sketch:type="MSLayerGroup" fill="#4A4A4A">
            <path d="M17.180826,34.0490677 C22.9821507,34.0490677 27.6850586,29.3462784 27.6850586,23.5450876 C27.6850586,17.7438969 22.9821507,13.0411075 17.180826,13.0411075 C11.3795013,13.0411075 6.67659338,17.7438969 6.67659338,23.5450876 C6.67659338,29.3462784 11.3795013,34.0490677 17.180826,34.0490677 L17.180826,34.0490677 Z M17.180826,33.0699397 C11.9202532,33.0699397 7.65572141,28.8055154 7.65572141,23.5450876 C7.65572141,18.2846599 11.9202532,14.0202356 17.180826,14.0202356 C22.4413988,14.0202356 26.7059306,18.2846599 26.7059306,23.5450876 C26.7059306,28.8055154 22.4413988,33.0699397 17.180826,33.0699397 L17.180826,33.0699397 Z" id="Shape" sketch:type="MSShapeGroup"></path>
            <path d="M24.6086919,16.7981824 L31.9906873,9.41497975 L31.3101735,8.7345835 L23.9281781,16.1177861 L24.6086919,16.7981824 L24.6086919,16.7981824 Z" id="Shape" sketch:type="MSShapeGroup"></path>
            <path d="M20,40 C31.045695,40 40,31.045695 40,20 C40,8.954305 31.045695,0 20,0 C8.954305,0 0,8.954305 0,20 C0,31.045695 8.954305,40 20,40 L20,40 Z M20,39.1304348 C9.43455261,39.1304348 0.869565217,30.5654474 0.869565217,20 C0.869565217,9.43455261 9.43455261,0.869565217 20,0.869565217 C30.5654474,0.869565217 39.1304348,9.43455261 39.1304348,20 C39.1304348,30.5654474 30.5654474,39.1304348 20,39.1304348 L20,39.1304348 Z M27.1954946,9.42933732 L31.7853827,9.42933732 L31.2958187,8.93977331 L31.2958187,13.5309241 L32.2749467,13.5309241 L32.2749467,8.93977331 L32.2749467,8.4502093 L31.7853827,8.4502093 L27.1954946,8.4502093 L27.1954946,9.42933732 L27.1954946,9.42933732 Z" id="Shape-Copy" sketch:type="MSShapeGroup"></path>
        </g>
    </g>
</svg>