<svg width="90" height="90" viewBox="0 0 90 90" xmlns="http://www.w3.org/2000/svg"><title>plus</title><g fill="#000" fill-rule="evenodd"><path d="M45 0C20.147 0 0 20.147 0 45s20.147 45 45 45 45-20.147 45-45S69.853 0 45 0zm0 86.5C22.08 86.5 3.5 67.92 3.5 45S22.08 3.5 45 3.5 86.5 22.08 86.5 45 67.92 86.5 45 86.5z"/><g transform="translate(20 43)"><path d="M48.25 3.75H1.75V.25h46.5v3.5z"/><circle cx="48.25" cy="2" r="1.75"/><circle cx="1.75" cy="2" r="1.75"/></g><g transform="translate(43 20)"><path d="M.25 48.25V1.75h3.5v46.5H.25z"/><circle cx="2" cy="48.25" r="1.75"/><circle cx="2" cy="1.75" r="1.75"/></g></g></svg>