<?xml version="1.0" encoding="UTF-8" standalone="no"?>
<svg width="128px" height="112px" viewBox="0 0 128 112" version="1.1" xmlns="http://www.w3.org/2000/svg" xmlns:xlink="http://www.w3.org/1999/xlink" xmlns:sketch="http://www.bohemiancoding.com/sketch/ns">
    <!-- Generator: Sketch 3.4.3 (16618) - http://www.bohemiancoding.com/sketch -->
    <title>quotes</title>
    <desc>Created with Sketch.</desc>
    <defs></defs>
    <g id="Page-1" stroke="none" stroke-width="1" fill="none" fill-rule="evenodd" sketch:type="MSPage">
        <g id="quotes" sketch:type="MSLayerGroup" fill="#000000">
            <path d="M1.5,0 C0.7,0 0,0.7 0,1.5 L0,54.5 C0,55.3 0.7,56 1.5,56 L40,56 C40,78.173 22.173,96 0,96 L0,112 C30.827,112 56,86.827 56,56 L56,1.5 C56,0.7 55.3,0 54.5,0 L1.5,0 L1.5,0 Z M73.5,0 C72.7,0 72,0.7 72,1.5 L72,54.5 C72,55.3 72.7,56 73.5,56 L112,56 C112,78.173 94.173,96 72,96 L72,112 C102.827,112 128,86.827 128,56 L128,1.5 C128,0.7 127.3,0 126.5,0 L73.5,0 L73.5,0 Z" id="Shape" sketch:type="MSShapeGroup"></path>
        </g>
    </g>
</svg>