<?xml version="1.0" encoding="UTF-8" standalone="no"?>
<svg width="128px" height="112px" viewBox="0 0 128 112" version="1.1" xmlns="http://www.w3.org/2000/svg" xmlns:xlink="http://www.w3.org/1999/xlink" xmlns:sketch="http://www.bohemiancoding.com/sketch/ns">
    <!-- Generator: Sketch 3.4.4 (17249) - http://www.bohemiancoding.com/sketch -->
    <title>quotes-2</title>
    <desc>Created with Sketch.</desc>
    <defs></defs>
    <g id="Page-1" stroke="none" stroke-width="1" fill="none" fill-rule="evenodd" sketch:type="MSPage">
        <g id="quotes-2" sketch:type="MSLayerGroup" fill="#000000">
            <g id="Group" sketch:type="MSShapeGroup">
                <path d="M56,0 C25.173,0 0,25.173 0,56 L0,110.5 C0,111.3 0.7,112 1.5,112 L54.5,112 C55.3,112 56,111.3 56,110.5 L56,57.5 C56,56.7 55.3,56 54.5,56 L16,56 C16,33.827 33.827,16 56,16 L56,0 L56,0 Z M128,0 C97.173,0 72,25.173 72,56 L72,110.5 C72,111.3 72.7,112 73.5,112 L126.5,112 C127.3,112 128,111.3 128,110.5 L128,57.5 C128,56.7 127.3,56 126.5,56 L88,56 C88,33.827 105.827,16 128,16 L128,0 L128,0 Z" id="Shape"></path>
            </g>
        </g>
    </g>
</svg>