<?xml version="1.0" encoding="UTF-8" standalone="no"?>
<svg width="86px" height="86px" viewBox="0 0 86 86" version="1.1" xmlns="http://www.w3.org/2000/svg" xmlns:xlink="http://www.w3.org/1999/xlink" xmlns:sketch="http://www.bohemiancoding.com/sketch/ns">
    <!-- Generator: Sketch 3.4.1 (15681) - http://www.bohemiancoding.com/sketch -->
    <title>reviews</title>
    <desc>Created with Sketch.</desc>
    <defs></defs>
    <g id="Page-1" stroke="none" stroke-width="1" fill="none" fill-rule="evenodd" sketch:type="MSPage">
        <g id="reviews" sketch:type="MSLayerGroup" fill="#000000">
            <g id="Group" sketch:type="MSShapeGroup">
                <path d="M64.5,16.125 L64.5,10.75 C64.5,4.8133125 59.6866875,0 53.75,0 L10.75,0 C4.8133125,0 0,4.8133125 0,10.75 L0,37.625 C0,43.5616875 4.8133125,48.375 10.75,48.375 L10.75,64.5 L16.125,59.125 L16.125,26.875 C16.125,20.9383125 20.9383125,16.125 26.875,16.125 L64.5,16.125 L64.5,16.125 Z M75.25,21.5 L32.25,21.5 C26.3133125,21.5 21.5,26.3133125 21.5,32.25 L21.5,59.125 C21.5,65.0616875 26.3133125,69.875 32.25,69.875 L32.25,86 L48.375,69.875 L75.25,69.875 C81.1866875,69.875 86,65.0616875 86,59.125 L86,32.25 C86,26.3133125 81.1866875,21.5 75.25,21.5 L75.25,21.5 Z" id="Shape"></path>
            </g>
        </g>
    </g>
</svg>