<?xml version="1.0" encoding="UTF-8" standalone="no"?>
<svg width="27px" height="26px" viewBox="0 0 27 26" version="1.1" xmlns="http://www.w3.org/2000/svg" xmlns:xlink="http://www.w3.org/1999/xlink" xmlns:sketch="http://www.bohemiancoding.com/sketch/ns">
    <!-- Generator: Sketch 3.3.3 (12072) - http://www.bohemiancoding.com/sketch -->
    <title>search</title>
    <desc>Created with Sketch.</desc>
    <defs></defs>
    <g id="Page-1" stroke="none" stroke-width="1" fill="none" fill-rule="evenodd" sketch:type="MSPage">
        <g id="search" sketch:type="MSLayerGroup" fill="#4A4A4A">
            <path d="M26.59,24.136 L19.88,17.668 C21.636,15.798 22.717,13.325 22.717,10.603 C22.717,4.781 17.817,0.063 11.777,0.063 C5.735,0.062 0.837,4.78 0.837,10.602 C0.837,16.424 5.735,21.142 11.777,21.142 C14.387,21.142 16.781,20.259 18.662,18.789 L25.402,25.282 C25.729,25.599 26.262,25.599 26.592,25.282 C26.92,24.966 26.92,24.452 26.592,24.135 L26.59,24.136 Z M11.777,19.522 C6.665,19.522 2.521,15.529 2.521,10.602 C2.521,5.677 6.666,1.684 11.778,1.684 C16.89,1.684 21.034,5.677 21.034,10.604 C21.034,15.529 16.89,19.522 11.778,19.522 L11.777,19.522 Z" id="Shape" sketch:type="MSShapeGroup"></path>
        </g>
    </g>
</svg>