<?xml version="1.0" encoding="UTF-8" standalone="no"?>
<svg width="301px" height="234px" viewBox="0 0 301 234" version="1.1" xmlns="http://www.w3.org/2000/svg" xmlns:xlink="http://www.w3.org/1999/xlink" xmlns:sketch="http://www.bohemiancoding.com/sketch/ns">
    <!-- Generator: Sketch 3.4.1 (15681) - http://www.bohemiancoding.com/sketch -->
    <title>tach</title>
    <desc>Created with Sketch.</desc>
    <defs></defs>
    <g id="Page-1" stroke="none" stroke-width="1" fill="none" fill-rule="evenodd" sketch:type="MSPage">
        <g id="tach" sketch:type="MSLayerGroup" fill="#000000">
            <g id="Group" sketch:type="MSShapeGroup">
                <path d="M300.575,61.854 C296.594,54.919 290.923,49.927 284.637,47.472 C278.373,45.009 271.383,45.177 265.398,48.627 C265.28,48.695 265.178,48.78 265.072,48.86 C265.032,48.881 264.99,48.892 264.95,48.915 C260.112,51.693 256.651,55.921 255.003,60.625 C254.531,61.964 254.229,63.353 254.07,64.756 C252.779,64.185 251.428,63.745 250.034,63.477 C245.139,62.527 239.744,63.381 234.904,66.156 C234.749,66.245 234.611,66.352 234.476,66.462 C234.314,66.523 234.152,66.587 233.997,66.677 C229.159,69.455 225.699,73.683 224.05,78.388 C223.602,79.66 223.302,80.977 223.136,82.308 C221.635,81.563 220.037,81.01 218.382,80.692 C213.487,79.741 208.093,80.597 203.253,83.37 C203.098,83.459 202.961,83.566 202.826,83.675 C202.663,83.736 202.5,83.801 202.344,83.891 C197.508,86.671 194.047,90.896 192.398,95.603 C192.385,95.64 192.377,95.679 192.364,95.716 L155.295,33.848 C152.006,28.365 147.152,24.454 141.815,22.58 C136.492,20.705 130.569,20.899 125.532,23.793 C125.448,23.841 125.331,23.907 125.18,24 L125.183,24.004 C120.233,26.988 117.2,32.023 116.254,37.532 C115.378,42.591 116.195,48.106 118.736,53.212 C118.803,53.43 118.892,53.644 119.01,53.85 L160.734,126.561 C157.558,129.934 155.787,134.474 154.963,139.566 C153.683,147.6 154.649,157.215 157.098,167.054 C159.56,176.886 163.537,186.915 168.515,195.597 C170.504,199.063 172.655,202.314 174.945,205.249 L174.946,205.25 L174.944,205.25 C183.548,216.272 192.724,224.393 201.317,229.123 C205.618,231.483 209.784,233.007 213.745,233.536 C217.692,234.063 221.516,233.564 224.749,231.706 C226.278,230.829 226.806,228.88 225.929,227.351 C225.052,225.823 223.103,225.294 221.574,226.171 C219.814,227.181 217.525,227.595 214.585,227.21 C210.195,226.645 204.545,224.167 198.531,219.784 C192.51,215.413 186.103,209.186 179.978,201.326 L179.978,201.325 C177.901,198.661 175.908,195.657 174.05,192.422 C167.838,181.612 163.174,168.216 161.488,156.431 C160.638,150.544 160.538,145.063 161.262,140.58 C161.797,137.237 162.786,134.509 164.131,132.48 L196.574,189.018 C197.451,190.547 199.402,191.075 200.929,190.198 C202.458,189.321 202.986,187.371 202.109,185.843 L125.227,51.862 L125.24,51.855 L125.24,51.854 C125.162,51.724 125.092,51.606 125.031,51.501 C122.588,47.249 121.845,42.61 122.541,38.626 C123.248,34.629 125.303,31.371 128.514,29.442 L126.861,26.683 L128.569,29.41 C128.577,29.403 128.626,29.375 128.708,29.327 C131.956,27.468 135.835,27.258 139.704,28.602 C143.556,29.948 147.278,32.878 149.82,37.127 L149.822,37.126 C149.823,37.126 149.823,37.127 149.823,37.128 L193.56,110.124 C193.608,110.203 193.668,110.268 193.721,110.341 C193.789,110.436 193.852,110.535 193.929,110.62 C193.988,110.685 194.057,110.738 194.12,110.798 C194.208,110.881 194.292,110.968 194.389,111.04 C194.46,111.093 194.539,111.132 194.615,111.179 C194.713,111.241 194.807,111.307 194.911,111.357 C195.003,111.401 195.1,111.428 195.195,111.463 C195.29,111.498 195.382,111.541 195.478,111.567 C195.601,111.599 195.728,111.613 195.854,111.63 C195.928,111.641 196,111.661 196.075,111.666 C196.239,111.678 196.404,111.668 196.569,111.654 C196.608,111.651 196.647,111.655 196.686,111.651 C197.096,111.6 197.501,111.47 197.881,111.253 C197.881,111.253 197.882,111.252 197.883,111.252 C197.883,111.252 197.884,111.251 197.885,111.251 C197.886,111.251 197.887,111.25 197.887,111.249 C197.903,111.24 197.919,111.231 197.935,111.222 C198.017,111.173 198.084,111.11 198.161,111.054 C198.253,110.988 198.349,110.927 198.432,110.852 C198.506,110.786 198.566,110.708 198.632,110.636 C198.707,110.554 198.787,110.477 198.854,110.389 C198.913,110.31 198.957,110.223 199.007,110.139 C199.064,110.047 199.125,109.958 199.171,109.862 C199.214,109.773 199.241,109.679 199.275,109.587 C199.311,109.488 199.354,109.391 199.38,109.288 C199.405,109.193 199.413,109.097 199.43,109 C199.447,108.895 199.471,108.791 199.478,108.684 C199.484,108.588 199.473,108.493 199.471,108.396 C199.468,108.287 199.471,108.177 199.456,108.068 C199.444,107.975 199.415,107.883 199.394,107.791 C199.369,107.68 199.35,107.567 199.313,107.457 C199.284,107.371 199.237,107.29 199.2,107.205 C199.155,107.102 199.12,106.998 199.063,106.898 C197.49,104.152 197.309,100.919 198.418,97.711 C199.533,94.519 201.975,91.459 205.52,89.427 C205.676,89.337 205.815,89.23 205.95,89.119 C206.112,89.058 206.273,88.994 206.429,88.905 C209.972,86.871 213.843,86.308 217.161,86.955 C220.492,87.615 223.19,89.404 224.77,92.146 C224.821,92.235 224.887,92.309 224.946,92.391 C225.028,92.546 225.092,92.706 225.179,92.86 C226.056,94.389 228.006,94.917 229.535,94.04 C231.063,93.164 231.592,91.212 230.714,89.683 C229.143,86.937 228.961,83.704 230.071,80.496 C231.187,77.304 233.627,74.245 237.172,72.213 C237.325,72.125 237.461,72.019 237.594,71.911 C237.759,71.85 237.923,71.784 238.08,71.694 C241.622,69.657 245.496,69.094 248.812,69.742 C251.432,70.261 253.652,71.488 255.251,73.318 C255.507,73.922 255.798,74.517 256.132,75.099 C257.009,76.628 258.958,77.157 260.487,76.28 C260.536,76.252 260.575,76.214 260.622,76.183 C260.674,76.157 260.727,76.142 260.777,76.114 C262.305,75.238 262.833,73.286 261.955,71.758 C261.621,71.176 261.254,70.624 260.861,70.098 C260.09,67.793 260.15,65.259 261.022,62.736 C262.137,59.545 264.579,56.486 268.123,54.453 C268.239,54.387 268.337,54.303 268.441,54.225 C268.484,54.203 268.53,54.19 268.573,54.166 C272.786,51.764 277.55,51.585 282.318,53.421 C287.064,55.266 291.707,59.221 295.039,65.034 C295.916,66.562 297.868,67.091 299.395,66.214 C300.926,65.333 301.453,63.382 300.575,61.854 L300.575,61.854 Z" id="Shape"></path>
                <path d="M97.1235487,15.8221231 L13.9556526,15.8221231 L25.2008709,6.85634887 C26.6853128,5.67221668 27.0024287,3.40922418 25.909488,1.80188484 C24.8165473,0.194545494 22.7272361,-0.148824581 21.2421417,1.03530761 L1.8138967,16.5258198 C0.861243877,17.2853318 0.396662503,18.4878335 0.469090217,19.6769114 C0.411017545,20.8836523 0.903656503,22.0932193 1.88697691,22.8343617 L21.3165269,37.4643291 C21.8972536,37.9016667 22.5621531,38.1122105 23.219875,38.1122105 C24.2756231,38.1122105 25.3144062,37.5710141 25.9623406,36.5606865 C27.0161313,34.9215536 26.6422477,32.669159 25.1277907,31.5288312 L13.8675649,23.0505577 L97.1228962,23.0505577 C98.9662141,23.0505577 100.461749,21.431914 100.461749,19.4359871 C100.462401,17.4400602 98.9668666,15.8221231 97.1235487,15.8221231 L97.1235487,15.8221231 Z" id="Shape"></path>
                <path d="M255.123549,15.8221231 L171.955653,15.8221231 L183.200871,6.85634887 C184.685313,5.67221668 185.002429,3.40922418 183.909488,1.80188484 C182.816547,0.194545494 180.727236,-0.148824581 179.242142,1.03530761 L159.813897,16.5258198 C158.861244,17.2853318 158.396663,18.4878335 158.46909,19.6769114 C158.411018,20.8836523 158.903657,22.0932193 159.886977,22.8343617 L179.316527,37.4643291 C179.897254,37.9016667 180.562153,38.1122105 181.219875,38.1122105 C182.275623,38.1122105 183.314406,37.5710141 183.962341,36.5606865 C185.016131,34.9215536 184.642248,32.669159 183.127791,31.5288312 L171.867565,23.0505577 L255.122896,23.0505577 C256.966214,23.0505577 258.461749,21.431914 258.461749,19.4359871 C258.462401,17.4400602 256.966867,15.8221231 255.123549,15.8221231 L255.123549,15.8221231 Z" id="Shape" transform="translate(208.461749, 19.221442) rotate(180.000000) translate(-208.461749, -19.221442) "></path>
            </g>
        </g>
    </g>
</svg>