<?xml version="1.0" encoding="UTF-8" standalone="no"?>
<svg width="100px" height="83px" viewBox="0 0 100 83" version="1.1" xmlns="http://www.w3.org/2000/svg" xmlns:xlink="http://www.w3.org/1999/xlink" xmlns:sketch="http://www.bohemiancoding.com/sketch/ns">
    <!-- Generator: Sketch 3.4.1 (15681) - http://www.bohemiancoding.com/sketch -->
    <title>tags-2</title>
    <desc>Created with Sketch.</desc>
    <defs></defs>
    <g id="Page-1" stroke="none" stroke-width="1" fill="none" fill-rule="evenodd" sketch:type="MSPage">
        <g id="tags-2" sketch:type="MSLayerGroup" fill="#000000">
            <g id="Group" sketch:type="MSShapeGroup">
                <path d="M7,49 L7,49 L39,81 C36,83 31,82 29,80 L3,54 C-1,50 -1,44 3,41 L37,6 C41,3 48,0 53,0 L7,45 C6,46 6,48 7,49 L7,49 Z" id="Shape"></path>
                <path d="M91,0 L70,0 C65,0 59,3 55,6 L20,41 C17,44 17,50 20,54 L46,80 C50,83 55,83 59,80 L94,45 C97,41 100,34 100,30 L100,9 C100,4 96,0 91,0 L91,0 Z M79,30 L79,30 C74,30 70,26 70,21 C70,16 74,12 79,12 C84,12 88,16 88,21 C88,26 84,30 79,30 L79,30 Z" id="Shape"></path>
            </g>
        </g>
    </g>
</svg>