<?xml version="1.0" encoding="UTF-8" standalone="no"?>
<svg width="72px" height="72px" viewBox="0 0 72 72" version="1.1" xmlns="http://www.w3.org/2000/svg" xmlns:xlink="http://www.w3.org/1999/xlink" xmlns:sketch="http://www.bohemiancoding.com/sketch/ns">
    <!-- Generator: Sketch 3.4.1 (15681) - http://www.bohemiancoding.com/sketch -->
    <title>tags</title>
    <desc>Created with Sketch.</desc>
    <defs></defs>
    <g id="Page-1" stroke="none" stroke-width="1" fill="none" fill-rule="evenodd" sketch:type="MSPage">
        <g id="tags" sketch:type="MSLayerGroup" fill="#000000">
            <g id="Group" sketch:type="MSShapeGroup">
                <path d="M70,0 L42.6,0 C42.1,0 41.6,0.2 41.2,0.6 L0.6,41.1 C-0.2,41.9 -0.2,43.1 0.6,43.9 L28,71.4 C28.4,71.8 28.9,72 29.4,72 C29.9,72 30.4,71.8 30.8,71.4 L71.3,30.9 C71.7,30.5 71.9,30 71.9,29.5 L71.9,2 C72,0.9 71.1,0 70,0 L70,0 Z M68,28.6 L29.5,67.2 L4.8,42.5 L43.4,4 L68,4 L68,28.6 L68,28.6 Z M60.7,11.3 C59.2,9.8 57.1,9 55,9 C52.9,9 50.9,9.8 49.3,11.3 C47.8,12.8 47,14.9 47,17 C47,19.1 47.8,21.1 49.3,22.7 C50.8,24.2 52.8,25 55,25 C57.1,25 59.1,24.2 60.7,22.7 C62.2,21.2 63,19.2 63,17 C63,14.8 62.2,12.8 60.7,11.3 L60.7,11.3 Z M57.8,19.8 C56.3,21.3 53.6,21.3 52.1,19.8 C51.4,19.1 51,18.1 51,17 C51,15.9 51.4,14.9 52.2,14.2 C53,13.4 54,13 55,13 C56.1,13 57.1,13.4 57.8,14.2 C58.5,15 59,16 59,17 C59,18 58.6,19.1 57.8,19.8 L57.8,19.8 Z" id="Shape"></path>
            </g>
        </g>
    </g>
</svg>