<?xml version="1.0" encoding="UTF-8" standalone="no"?>
<svg width="264px" height="296px" viewBox="0 0 264 296" version="1.1" xmlns="http://www.w3.org/2000/svg" xmlns:xlink="http://www.w3.org/1999/xlink" xmlns:sketch="http://www.bohemiancoding.com/sketch/ns">
    <!-- Generator: Sketch 3.4.1 (15681) - http://www.bohemiancoding.com/sketch -->
    <title>touch2</title>
    <desc>Created with Sketch.</desc>
    <defs></defs>
    <g id="Page-1" stroke="none" stroke-width="1" fill="none" fill-rule="evenodd" sketch:type="MSPage">
        <g id="touch2" sketch:type="MSLayerGroup" fill="#000000">
            <g id="Group" sketch:type="MSShapeGroup">
                <path d="M262.575,61.934 C253.901,48.384 240.346,41.026 227.434,42.803 C223.557,43.348 219.784,44.745 216.36,47.02 C216.212,47.119 216.084,47.236 215.955,47.352 C215.904,47.382 215.85,47.401 215.8,47.434 C207.853,52.716 203.212,61.134 203.046,69.607 C198.96,67.885 194.355,67.329 189.802,67.984 C185.733,68.558 181.657,70.071 177.925,72.55 C177.732,72.678 177.558,72.825 177.398,72.982 C177.186,73.07 176.978,73.176 176.781,73.307 C168.911,78.54 164.291,86.849 164.042,95.241 C159.723,93.181 154.748,92.473 149.832,93.18 C145.761,93.754 141.686,95.268 137.955,97.745 C137.758,97.875 137.582,98.024 137.42,98.183 C137.211,98.27 137.006,98.374 136.811,98.504 C130.403,102.765 126.155,109.067 124.659,115.79 L70.809,35.012 C70.808,35.011 70.807,35.011 70.807,35.01 C63.749,24.448 52.286,18.816 41.49,20.3 C37.987,20.792 34.571,22.07 31.531,24.175 L31.532,24.176 C27.382,27.039 24.42,31.093 22.72,35.654 C21.015,40.22 20.538,45.296 21.256,50.394 C21.85,54.611 23.282,58.847 25.537,62.839 C25.625,63.073 25.736,63.303 25.877,63.522 L86.244,157.837 C82.756,161.88 80.789,167.131 79.887,172.999 C78.966,179.024 79.141,185.77 80.144,192.903 C83.456,216.065 95.436,243.447 110.572,261.163 C120.762,273.036 131.337,282.102 141.303,288.034 C151.278,293.929 160.66,296.839 168.824,295.732 C168.831,295.732 168.84,295.729 168.847,295.729 C171.782,295.315 174.542,294.333 176.953,292.735 C178.621,291.63 179.08,289.382 177.974,287.715 C176.87,286.046 174.621,285.587 172.955,286.692 C171.512,287.643 169.824,288.272 167.809,288.559 C162.26,289.389 154.115,287.25 145.004,281.804 C135.889,276.391 125.824,267.821 116.07,256.443 C116.067,256.44 116.064,256.438 116.06,256.434 C102.036,240.15 90.308,213.415 87.317,191.889 C86.382,185.278 86.265,179.172 87.045,174.096 C87.65,170.134 88.801,166.857 90.406,164.342 L137.593,238.066 C138.383,239.297 139.793,239.893 141.153,239.702 C141.653,239.632 142.145,239.455 142.599,239.163 C144.285,238.086 144.776,235.845 143.697,234.16 L32.967,61.162 L32.987,61.149 L32.986,61.149 C30.485,57.4 28.987,53.336 28.429,49.379 C27.863,45.38 28.265,41.506 29.506,38.188 C30.755,34.863 32.806,32.101 35.651,30.134 L33.815,27.476 L35.653,30.133 C37.743,28.689 40.049,27.822 42.502,27.474 C50.002,26.376 59.085,30.465 64.777,39.03 L64.778,39.029 L127.526,133.156 C127.576,133.23 127.634,133.296 127.689,133.365 C127.737,133.427 127.782,133.493 127.834,133.552 C127.896,133.622 127.965,133.684 128.031,133.748 C128.091,133.805 128.146,133.865 128.209,133.918 C128.277,133.975 128.352,134.023 128.424,134.076 C128.49,134.124 128.555,134.176 128.624,134.22 C128.698,134.266 128.777,134.303 128.855,134.344 C128.927,134.382 128.998,134.424 129.073,134.457 C129.151,134.492 129.233,134.517 129.313,134.545 C129.391,134.574 129.468,134.607 129.547,134.629 C129.63,134.652 129.716,134.666 129.801,134.684 C129.88,134.701 129.959,134.722 130.04,134.734 C130.135,134.747 130.231,134.749 130.327,134.755 C130.399,134.759 130.471,134.77 130.542,134.77 C130.711,134.769 130.88,134.758 131.048,134.734 C131.302,134.699 131.555,134.634 131.802,134.543 C131.89,134.51 131.97,134.456 132.056,134.416 C132.204,134.348 132.355,134.289 132.495,134.199 C132.505,134.192 132.513,134.183 132.522,134.177 C132.532,134.171 132.542,134.168 132.549,134.162 C132.637,134.103 132.708,134.029 132.789,133.965 C132.893,133.883 133.001,133.806 133.094,133.715 C133.167,133.641 133.226,133.557 133.293,133.479 C133.379,133.375 133.472,133.277 133.546,133.167 C133.604,133.081 133.644,132.988 133.693,132.899 C133.756,132.784 133.826,132.671 133.877,132.55 C133.916,132.454 133.939,132.354 133.972,132.255 C134.011,132.133 134.057,132.013 134.082,131.887 C134.103,131.785 134.107,131.68 134.12,131.575 C134.135,131.449 134.156,131.324 134.158,131.197 C134.16,131.09 134.143,130.983 134.136,130.876 C134.126,130.751 134.124,130.626 134.102,130.502 C134.082,130.393 134.043,130.287 134.013,130.179 C133.98,130.058 133.953,129.936 133.907,129.819 C133.865,129.712 133.803,129.61 133.749,129.506 C133.696,129.402 133.656,129.296 133.593,129.196 C132.441,127.397 131.74,125.432 131.446,123.364 C130.496,116.832 133.856,109.141 140.815,104.546 C141.011,104.416 141.187,104.267 141.35,104.108 C141.559,104.021 141.763,103.916 141.959,103.786 C144.802,101.898 147.854,100.779 150.845,100.357 C157.497,99.444 163.606,101.883 166.871,106.985 C166.923,107.066 166.983,107.135 167.04,107.21 C167.177,107.443 167.311,107.678 167.459,107.907 C168.247,109.141 169.659,109.734 171.021,109.541 C171.519,109.471 172.013,109.295 172.464,109.005 C174.15,107.926 174.64,105.686 173.563,104 L173.562,104 C172.414,102.201 171.71,100.238 171.417,98.168 C170.468,91.635 173.827,83.945 180.786,79.347 C180.982,79.217 181.157,79.069 181.319,78.91 C181.53,78.823 181.736,78.717 181.932,78.586 C184.772,76.7 187.825,75.582 190.813,75.16 C196.467,74.385 201.721,76.036 205.176,79.678 C205.558,80.481 205.987,81.268 206.475,82.031 C207.264,83.263 208.675,83.858 210.037,83.665 C210.536,83.595 211.028,83.419 211.481,83.129 C211.559,83.079 211.621,83.016 211.694,82.961 C211.743,82.932 211.797,82.917 211.845,82.885 C213.531,81.807 214.02,79.568 212.945,77.881 L212.943,77.881 C212.464,77.133 211.935,76.438 211.383,75.772 C210.93,74.653 210.604,73.493 210.433,72.292 C209.483,65.759 212.842,58.068 219.801,53.471 C219.946,53.375 220.07,53.26 220.196,53.148 C220.253,53.115 220.313,53.094 220.368,53.058 C222.895,51.38 225.608,50.379 228.444,49.977 C237.78,48.617 248.958,54.098 256.473,65.84 C257.262,67.073 258.672,67.667 260.034,67.475 C260.532,67.404 261.026,67.227 261.477,66.938 C263.162,65.86 263.656,63.619 262.575,61.934 L262.575,61.934 Z" id="Shape"></path>
                <path d="M40.59,79.129 C31.521,78.524 23.38,74.613 17.331,68.568 C10.744,61.977 6.68,52.904 6.679,42.852 C6.68,32.799 10.744,23.726 17.331,17.135 C23.922,10.548 32.995,6.485 43.048,6.482 C53.099,6.484 62.173,10.548 68.763,17.135 C75.351,23.726 79.415,32.799 79.416,42.852 C79.415,47.168 78.661,51.302 77.284,55.139 L83.493,55.139 C84.673,51.25 85.313,47.127 85.314,42.852 C85.311,19.507 66.391,0.586 43.047,0.585 C19.702,0.586 0.781,19.507 0.78,42.852 C0.782,65.371 18.389,83.767 40.589,85.042 L40.589,79.129 L40.59,79.129 Z" id="Shape"></path>
            </g>
        </g>
    </g>
</svg>