<?xml version="1.0" encoding="UTF-8" standalone="no"?>
<svg width="96px" height="88px" viewBox="0 0 96 88" version="1.1" xmlns="http://www.w3.org/2000/svg" xmlns:xlink="http://www.w3.org/1999/xlink" xmlns:sketch="http://www.bohemiancoding.com/sketch/ns">
    <!-- Generator: Sketch 3.4.4 (17249) - http://www.bohemiancoding.com/sketch -->
    <title>user-2</title>
    <desc>Created with Sketch.</desc>
    <defs></defs>
    <g id="Page-1" stroke="none" stroke-width="1" fill="none" fill-rule="evenodd" sketch:type="MSPage">
        <g id="user-2" sketch:type="MSLayerGroup" fill="#000000">
            <g id="Group" sketch:type="MSShapeGroup">
                <path d="M83.333,65.972 C75.898,62.256 78.761,65.1 69.635,61.297 C60.509,57.499 58.347,56.259 58.347,56.259 L58.267,47.55 C58.267,47.55 61.685,44.944 62.752,36.707 C64.885,37.327 65.608,34.194 65.723,32.192 C65.849,30.258 66.985,24.228 64.374,24.766 C64.908,20.74 65.327,17.101 65.137,15.174 C64.484,8.411 59.831,1.349 48.085,0.834 C38.099,1.35 31.616,8.416 30.962,15.179 C30.774,17.106 31.157,20.742 31.691,24.775 C29.082,24.23 30.205,30.27 30.32,32.203 C30.446,34.205 31.152,37.349 33.291,36.728 C34.353,44.965 37.771,47.592 37.771,47.592 L37.685,56.345 C37.685,56.345 35.523,57.671 26.397,61.468 C17.271,65.272 20.133,62.255 12.699,65.971 C0.951,71.846 0.951,88 0.951,88 L48.084,88 L95.08,88 C95.08,88 95.08,71.846 83.333,65.972 L83.333,65.972 Z" id="Shape"></path>
            </g>
        </g>
    </g>
</svg>