<?xml version="1.0" encoding="UTF-8" standalone="no"?>
<svg width="40px" height="40px" viewBox="0 0 40 40" version="1.1" xmlns="http://www.w3.org/2000/svg" xmlns:xlink="http://www.w3.org/1999/xlink" xmlns:sketch="http://www.bohemiancoding.com/sketch/ns">
    <!-- Generator: Sketch 3.3.3 (12072) - http://www.bohemiancoding.com/sketch -->
    <title>women</title>
    <desc>Created with Sketch.</desc>
    <defs></defs>
    <g id="Page-1" stroke="none" stroke-width="1" fill="none" fill-rule="evenodd" sketch:type="MSPage">
        <g id="women" sketch:type="MSLayerGroup" fill="#4A4A4A">
            <path d="M19.6704547,25.3480524 L19.1741545,25.3480524 L19.1741545,25.8443526 L19.1741545,25.8446092 L19.6704547,25.8446092 L19.6704547,25.348309 C14.3256264,25.348309 9.99260044,21.0153502 9.99260044,15.670583 C9.99260044,10.3256864 14.3257526,5.99260044 19.6704547,5.99260044 C25.0152302,5.99260044 29.348309,10.325763 29.348309,15.670583 C29.348309,21.015208 25.0151719,25.3480524 19.6704547,25.3480524 L19.6704547,25.3480524 Z M19.6704547,26.3406529 C25.5633549,26.3406529 30.3409094,21.5634211 30.3409094,15.670583 C30.3409094,9.7775692 25.5634326,5 19.6704547,5 C13.777558,5 9,9.77748492 9,15.670583 C9,21.5635517 13.7774318,26.3409094 19.6704547,26.3409094 L20.1667549,26.3409094 L20.1667549,25.8446092 L20.1667549,25.8443526 L19.6704547,25.8443526 L19.6704547,26.3406529 L19.6704547,26.3406529 Z" id="Shape-Copy-2" sketch:type="MSShapeGroup"></path>
            <path d="M20,40 C31.045695,40 40,31.045695 40,20 C40,8.954305 31.045695,0 20,0 C8.954305,0 0,8.954305 0,20 C0,31.045695 8.954305,40 20,40 L20,40 Z M20,39.1304348 C9.43455261,39.1304348 0.869565217,30.5654474 0.869565217,20 C0.869565217,9.43455261 9.43455261,0.869565217 20,0.869565217 C30.5654474,0.869565217 39.1304348,9.43455261 39.1304348,20 C39.1304348,30.5654474 30.5654474,39.1304348 20,39.1304348 L20,39.1304348 Z" id="Shape-Copy-4" sketch:type="MSShapeGroup"></path>
            <g id="Line-+-Line" transform="translate(16.000000, 26.000000)" sketch:type="MSShapeGroup">
                <path d="M3.00000004,0.383964093 L3,10.1160359 L3,10.5 L3.88720703,10.5 L3.88720703,10.1160359 L3.88720707,0.383964095 L3.88720707,2.62671719e-09 L3.00000004,0 L3.00000004,0.383964093 L3.00000004,0.383964093 Z" id="Shape"></path>
                <path d="M0.387777779,6.88720703 L6.59222224,6.88720703 L6.98000002,6.88720703 L6.98000002,6 L6.59222224,6 L0.387777779,6 L0,6 L0,6.88720703 L0.387777779,6.88720703 L0.387777779,6.88720703 Z" id="Shape"></path>
            </g>
        </g>
    </g>
</svg>