<?xml version="1.0" encoding="utf-8"?>
<!-- Generator: Adobe Illustrator 19.1.0, SVG Export Plug-In . SVG Version: 6.00 Build 0)  -->
<svg version="1.1" id="Layer_1" xmlns="http://www.w3.org/2000/svg" xmlns:xlink="http://www.w3.org/1999/xlink" x="0px" y="0px"
	 viewBox="0 0 100 100" style="enable-background:new 0 0 100 100;" xml:space="preserve">
<style type="text/css">
	.st0{fill:#8DC63F;}
	.st1{fill-rule:evenodd;clip-rule:evenodd;fill:#FFFFFF;}
</style>
<g>
	<circle class="st0" cx="49.7" cy="50.1" r="18.7"/>
	<path class="st1" d="M46.9,49.7c-0.5-0.8-1.2-1.6-2.3-1.8c-1.3-0.3-2.4-0.1-3.6,0.2c-1,0.2-1.9,0.6-2.9,0.8
		c-0.6,0.1-0.7,0.4-0.5,0.8c0.3,0.8,0.6,1.7,0.9,2.5c0.7,1.7,1.6,3.3,3.1,4.4c0.9,0.7,1.8,0.9,2.9,0.6c0.7-0.2,1.5-0.4,2.2-0.7
		c0.5-0.2,0.9,0,1.1,0.5c0.2,0.4,0.3,0.9,0.5,1.4c0.6-0.1,1.2-0.1,1.8-0.2c0-0.6,0-1.2,0-1.8c0.1-1.2,0.5-1.5,1.6-1.5
		c0.5,0,1,0,1.6,0c2.7,0.1,4.6-0.9,5.8-3.4c1.6-3.3,1.7-6.9,1.7-10.5c0-0.1-0.3-0.4-0.4-0.4c-2.7,0.1-5.4,0-8,0.8
		c-1.8,0.5-3.1,1.5-3.8,3.3c-0.6,1.5-0.8,3-0.5,4.6c0.1,0.9,0.3,2.2,0.6,3.1c0.1,0,0.2,0,0.2-0.1c1.4-4.9,2.7-6.2,6.6-8
		c-3.2,3.4-6.4,7.9-6.7,12.6c-1.1-2.9-5.4-5.2-8-6.8c2.3,0.2,5.4,1.2,6.9,2.6C47.7,50.7,46.9,49.7,46.9,49.7z"/>
</g>
</svg>
