<?xml version="1.0" encoding="utf-8"?>
<!-- Generator: Adobe Illustrator 19.1.0, SVG Export Plug-In . SVG Version: 6.00 Build 0)  -->
<svg version="1.1" id="Layer_1" xmlns="http://www.w3.org/2000/svg" xmlns:xlink="http://www.w3.org/1999/xlink" x="0px" y="0px"
	 viewBox="0 0 300 300" style="enable-background:new 0 0 300 300;" xml:space="preserve">
<style type="text/css">
	.st0{fill:#8DC63F;}
	.st1{fill:#FFFFFF;}
	.st2{fill:#034EA2;}
	.st3{fill-rule:evenodd;clip-rule:evenodd;fill:#034EA2;}
	.st4{fill:none;stroke:#034EA2;stroke-width:0.2835;}
	.st5{fill-rule:evenodd;clip-rule:evenodd;fill:#005BAA;}
	.st6{fill-rule:evenodd;clip-rule:evenodd;fill:#FFC71C;}
	.st7{opacity:0.4;fill:url(#SVGID_1_);}
</style>
<g>
	<g>
		<circle class="st0" cx="177.3" cy="104.1" r="18.9"/>
	</g>
	<g>
		<path class="st1" d="M174.1,119.7C174.1,119.6,174.1,119.6,174.1,119.7l0.3,0c0,0,0.1,0,0,0.1l-0.5,1.7l0.7,0.1l0.5-1.7
			c0,0,0-0.1,0.1,0l0.2,0c0,0,0.1,0,0,0.1l-0.6,1.9c0,0,0,0.1-0.1,0l-1.4-0.2c0,0-0.1,0,0-0.1L174.1,119.7z"/>
		<path class="st1" d="M172.5,121.4c-0.4-0.1-0.6-0.5-0.4-0.9c0.2-0.4,0.6-0.6,1-0.5l0.2,0.1l0.2-0.5c0,0,0-0.1,0.1,0l0.2,0.1
			c0,0,0.1,0,0,0.1l-0.8,1.9c0,0,0,0-0.1,0L172.5,121.4z M172.9,121.2l0.4-0.9l-0.2,0c-0.3-0.1-0.5,0-0.6,0.3
			c-0.1,0.3,0,0.5,0.2,0.6L172.9,121.2z"/>
		<path class="st1" d="M170.1,119.4c0.4-0.6,1-0.8,1.5-0.6c0.5,0.2,0.8,0.7,0.4,1.3c-0.4,0.6-1,0.8-1.5,0.6
			C169.9,120.5,169.7,120,170.1,119.4z M171.6,120c0.3-0.5,0.1-0.8-0.2-0.9c-0.3-0.1-0.7,0-1,0.5c-0.3,0.5-0.1,0.8,0.2,1
			C170.9,120.6,171.3,120.5,171.6,120z"/>
		<path class="st1" d="M169,117.9l-0.1-0.1c0,0,0,0,0-0.1l0.4-0.6c0,0,0,0,0.1,0l0.2,0.1c0,0,0,0,0,0.1l-0.2,0.4l0.9,0.5l0.4-0.4
			c0,0,0.1,0,0.1,0l0.2,0.1c0,0,0,0,0,0.1l-0.4,0.6c0,0-0.1,0-0.1,0l0,0c0,0-0.1,0-0.2,0.1L169,120c0,0-0.1,0-0.1,0l-1-0.5
			c0,0,0,0,0-0.1L169,117.9z M168.8,119.6l0.9-1.1c0.1-0.1,0.1-0.1,0.2-0.1l-0.6-0.3l-1,1.3L168.8,119.6z"/>
		<path class="st1" d="M168.4,117.2c0,0,0.1,0,0.1,0l0.2,0.1c0,0,0,0,0,0.1l-0.5,0.3l-0.5,1.4c0,0,0,0-0.1,0l-0.2-0.2c0,0,0,0,0-0.1
			l0.5-1l-1.1,0.6c0,0-0.1,0-0.1,0l-0.2-0.1c0,0,0,0,0-0.1L168.4,117.2z"/>
		<path class="st1" d="M166.4,117l0.1-1.2c0,0,0,0,0.1,0l0.3,0.2c0,0,0,0.1,0,0.1l-0.1,1.1l0.7-0.6c0,0,0.1,0,0.1,0l0.2,0.2
			c0,0,0,0.1,0,0.1l-1.5,1.3c0,0-0.1,0-0.1,0l-0.2-0.2c0,0,0,0,0-0.1l0.7-0.6l-1.2,0.2c0,0-0.1,0-0.1,0l-0.2-0.2c0,0,0,0,0,0
			L166.4,117z"/>
		<path class="st1" d="M164,115.9C164,115.9,164.1,115.9,164,115.9l0.4,0.3l1.5-1.1c0,0,0.1,0,0.1,0l0.2,0.2c0,0,0,0.1,0,0.1
			l-1.5,1.1l0.3,0.3c0,0,0,0.1,0,0.1l-0.1,0.1c0,0-0.1,0-0.1,0l-0.9-0.9c0,0,0-0.1,0-0.1L164,115.9z"/>
		<path class="st1" d="M164.1,112.9C164.1,112.9,164.1,112.9,164.1,112.9l0.2,0.2c0,0,0,0.1,0,0.1l-0.8,0.4l0.4,0.6l0.8-0.4
			c0,0,0.1,0,0.1,0l0.2,0.2c0,0,0,0.1,0,0.1l-1.8,1c0,0-0.1,0-0.1,0l-0.2-0.2c0,0,0-0.1,0-0.1l0.7-0.4l-0.4-0.6l-0.7,0.4
			c0,0-0.1,0-0.1,0l-0.2-0.2c0,0,0-0.1,0-0.1L164.1,112.9z"/>
		<path class="st1" d="M161.7,112.5C161.7,112.5,161.7,112.5,161.7,112.5l0.5,0.6l0.6-0.3l-0.3-0.5c0,0,0-0.1,0-0.1l0.1-0.1
			c0,0,0.1,0,0.1,0l0.3,0.5l0.6-0.3l-0.4-0.6c0,0,0-0.1,0-0.1l0.1-0.1c0,0,0.1,0,0.1,0l0.5,0.9c0,0,0,0.1,0,0.1l-1.9,0.8
			c0,0-0.1,0-0.1,0l-0.5-0.9c0,0,0-0.1,0-0.1L161.7,112.5z"/>
		<path class="st1" d="M160.6,110C160.7,110,160.7,110,160.6,110c0,0.2,0.1,0.3,0.1,0.5c0.1,0.3,0.5,0.5,1,0.4
			c0.6-0.2,0.7-0.5,0.5-0.8c-0.1-0.2-0.2-0.3-0.2-0.4c0,0,0-0.1,0-0.1l0.1-0.1c0,0,0.1,0,0.1,0c0.1,0.1,0.3,0.3,0.4,0.5
			c0.2,0.5,0,1-0.7,1.2c-0.7,0.2-1.2-0.1-1.5-0.7c-0.1-0.2-0.1-0.5-0.1-0.6c0,0,0,0,0.1,0L160.6,110z"/>
		<path class="st1" d="M160.7,107.5c0.7-0.1,1.2,0.3,1.4,0.8c0.2,0.6-0.1,1-0.8,1.1c-0.7,0.1-1.2-0.3-1.4-0.8
			C159.7,108.1,160,107.6,160.7,107.5z M161.2,109.1c0.6-0.1,0.7-0.4,0.6-0.7c-0.1-0.3-0.4-0.6-1-0.5c-0.6,0.1-0.7,0.4-0.6,0.7
			C160.3,109,160.6,109.2,161.2,109.1z"/>
		<path class="st1" d="M161.3,105.8l0-0.2c0,0,0-0.1,0.1-0.1l0.7,0c0,0,0.1,0,0.1,0.1l0,0.2c0,0,0,0.1-0.1,0.1l-0.5,0.1l0.2,1.1
			l0.5,0.1c0,0,0.1,0,0.1,0.1l0,0.2c0,0,0,0.1-0.1,0.1l-0.7,0c0,0-0.1,0-0.1-0.1l0,0c0-0.1-0.1-0.1-0.2-0.1l-1.6-0.1
			c0,0-0.1,0-0.1-0.1l-0.2-1.1c0,0,0-0.1,0.1-0.1L161.3,105.8z M159.8,106.7l1.4,0.1c0.1,0,0.1,0,0.2,0.1l-0.1-0.7l-1.6,0
			L159.8,106.7z"/>
		<path class="st1" d="M159.5,104.2C159.6,104.2,159.6,104.2,159.5,104.2l0.1,0.8l0.7,0.1l0-0.6c0,0,0-0.1,0.1-0.1l0.1,0
			c0,0,0.1,0,0.1,0.1l0,0.6l0.7,0.1l0-0.7c0,0,0-0.1,0.1-0.1l0.1,0c0,0,0.1,0,0.1,0.1l0.1,1c0,0,0,0.1-0.1,0.1l-2-0.2
			c0,0-0.1,0-0.1-0.1l-0.1-1c0,0,0-0.1,0.1-0.1L159.5,104.2z"/>
		<path class="st1" d="M159.4,103.2c0-0.4,0.3-0.7,0.8-0.6c0.4,0.1,0.7,0.4,0.7,0.9l0,0.2l0.6,0.1c0,0,0.1,0,0.1,0.1l0,0.3
			c0,0,0,0.1-0.1,0.1l-2-0.4c0,0-0.1,0-0.1-0.1L159.4,103.2z M159.6,103.5l0.9,0.2l0-0.2c0-0.3-0.1-0.5-0.5-0.5
			c-0.3-0.1-0.5,0.1-0.5,0.4L159.6,103.5z"/>
		<path class="st1" d="M160.7,100.7l1.1-0.4c0,0,0,0,0,0l-0.1,0.3c0,0,0,0.1-0.1,0.1l-1,0.3l0.9,0.3c0,0,0.1,0,0,0.1l0,0.2
			c0,0,0,0.1-0.1,0l-0.9-0.3l0.8,0.9c0,0,0,0.1,0,0.1l-0.1,0.3c0,0,0,0,0,0l-0.9-1.1l-1.1,0.4c0,0,0,0,0,0l0-0.3c0,0,0-0.1,0.1-0.1
			l1-0.4l-0.9-0.3c0,0-0.1,0,0-0.1l0-0.2c0,0,0-0.1,0.1,0l0.9,0.3l-0.8-0.9c0,0,0-0.1,0-0.1l0-0.3c0,0,0,0,0,0L160.7,100.7z"/>
		<path class="st1" d="M162.3,98.7C162.4,98.8,162.4,98.8,162.3,98.7l0,0.3c0,0,0,0.1-0.1,0l-1.2-0.6l0,0l1,1.4c0,0,0,0.1,0,0.1
			l-0.1,0.2c0,0,0,0.1-0.1,0l-1.8-0.8c0,0,0,0,0-0.1l0.1-0.2c0,0,0,0,0.1,0l1.2,0.6l0,0l-1-1.4c0,0,0-0.1,0-0.1l0.1-0.2
			c0,0,0,0,0.1,0L162.3,98.7z"/>
		<path class="st1" d="M161.2,96.5C161.3,96.5,161.3,96.5,161.2,96.5l-0.1,0.5l1.6,0.9c0,0,0,0,0,0.1l-0.1,0.2c0,0,0,0-0.1,0
			l-1.6-0.9l-0.2,0.4c0,0,0,0-0.1,0l-0.1-0.1c0,0,0,0,0-0.1l0.5-1.1c0,0,0,0,0.1,0L161.2,96.5z"/>
		<path class="st1" d="M162.3,94.5C162.4,94.6,162.4,94.6,162.3,94.5l-0.3,0.7l1.4,1.1c0,0,0,0,0,0.1l-0.1,0.2c0,0,0,0-0.1,0
			l-1.6-1.2c0,0,0-0.1,0-0.1l0.5-0.9c0,0,0,0,0.1,0L162.3,94.5z"/>
		<path class="st1" d="M163.1,93.4C163.1,93.4,163.2,93.5,163.1,93.4l-0.4,0.7l0.5,0.4l0.3-0.5c0,0,0,0,0.1,0l0.1,0.1
			c0,0,0,0.1,0,0.1l-0.3,0.5l0.5,0.5l0.4-0.6c0,0,0,0,0.1,0l0.1,0.1c0,0,0,0.1,0,0.1l-0.6,0.9c0,0,0,0-0.1,0l-1.5-1.4
			c0,0,0-0.1,0-0.1l0.6-0.9c0,0,0,0,0.1,0L163.1,93.4z"/>
		<path class="st1" d="M165.5,93.4C165.6,93.4,165.6,93.4,165.5,93.4l-0.2,0.3c0,0-0.1,0-0.1,0l-0.6-0.7l-0.5,0.6l0.6,0.7
			c0,0,0,0.1,0,0.1l-0.2,0.2c0,0-0.1,0-0.1,0l-1.4-1.5c0,0,0-0.1,0-0.1l0.2-0.2c0,0,0,0,0.1,0l0.6,0.6l0.5-0.6l-0.6-0.6
			c0,0,0-0.1,0-0.1l0.2-0.2c0,0,0,0,0.1,0L165.5,93.4z"/>
		<path class="st1" d="M165.4,91C165.4,91,165.4,91,165.4,91l-0.5,0.6l0.4,0.5l0.4-0.4c0,0,0.1,0,0.1,0l0.1,0.1c0,0,0,0.1,0,0.1
			l-0.4,0.4l0.4,0.5l0.5-0.5c0,0,0.1,0,0.1,0l0.1,0.1c0,0,0,0.1,0,0.1l-0.7,0.7c0,0-0.1,0-0.1,0l-1.2-1.6c0,0,0-0.1,0-0.1l0.7-0.7
			c0,0,0.1,0,0.1,0L165.4,91z"/>
		<path class="st1" d="M166.5,90C166.6,90,166.6,90,166.5,90l-0.3,0.4l1,1.5c0,0,0,0.1,0,0.1l-0.2,0.2c0,0-0.1,0-0.1,0l-1-1.5
			l-0.3,0.3c0,0-0.1,0-0.1,0l-0.1-0.1c0,0,0-0.1,0-0.1l0.9-0.8c0,0,0.1,0,0.1,0L166.5,90z"/>
		<path class="st1" d="M168.9,90.6C168.9,90.7,168.9,90.7,168.9,90.6l-0.2,0.2c0,0-0.1,0-0.1,0l-0.6-1.2l0,0l-0.1,1.7
			c0,0,0,0.1-0.1,0.1l-0.2,0.1c0,0-0.1,0-0.1,0l-0.9-1.8c0,0,0-0.1,0-0.1l0.2-0.1c0,0,0.1,0,0.1,0l0.6,1.2l0,0l0.1-1.7
			c0,0,0-0.1,0.1-0.1l0.2-0.1c0,0,0.1,0,0.1,0L168.9,90.6z"/>
		<path class="st1" d="M170.2,89.9C170.2,89.9,170.2,89.9,170.2,89.9l-0.2,0.2c0,0-0.1,0-0.1,0l-0.2-0.6c-0.1,0.1-0.1,0.1-0.2,0.1
			c-0.4,0.2-0.8,0.1-1-0.3l-0.2-0.6c0,0,0-0.1,0-0.1l0.2-0.1c0,0,0.1,0,0.1,0l0.2,0.6c0.1,0.3,0.3,0.4,0.6,0.2
			c0.1,0,0.1-0.1,0.2-0.1l-0.4-1.1c0,0,0-0.1,0-0.1l0.2-0.1c0,0,0.1,0,0.1,0L170.2,89.9z"/>
		<path class="st1" d="M170.9,87.5C170.9,87.6,170.9,87.6,170.9,87.5l-0.7,0.4l0.2,0.6l0.5-0.2c0,0,0.1,0,0.1,0l0,0.1
			c0,0,0,0.1,0,0.1l-0.5,0.2l0.2,0.7l0.7-0.3c0,0,0.1,0,0.1,0l0,0.1c0,0,0,0.1,0,0.1l-0.9,0.4c0,0-0.1,0-0.1,0l-0.5-1.9
			c0,0,0-0.1,0-0.1l0.9-0.4c0,0,0.1,0,0.1,0L170.9,87.5z"/>
		<path class="st1" d="M172.7,87C172.7,87.1,172.7,87.1,172.7,87c-0.2,0-0.3,0-0.5,0.1c-0.3,0.1-0.6,0.4-0.5,1
			c0.1,0.6,0.4,0.7,0.8,0.6c0.2-0.1,0.3-0.2,0.4-0.2c0,0,0.1,0,0.1,0l0.1,0.1c0,0,0,0.1,0,0.1c-0.1,0.1-0.3,0.2-0.5,0.3
			c-0.6,0.2-1,0-1.2-0.8c-0.1-0.7,0.2-1.2,0.8-1.4c0.2-0.1,0.5-0.1,0.6,0c0,0,0,0,0,0.1L172.7,87z"/>
		<path class="st1" d="M173.9,87.5l0.9,0.9c0,0,0,0,0,0.1l-0.3,0.1c0,0-0.1,0-0.1,0l-0.8-0.8l0.1,0.9c0,0,0,0.1-0.1,0.1l-0.2,0.1
			c0,0-0.1,0-0.1,0l-0.1-2c0,0,0-0.1,0.1-0.1l0.2-0.1c0,0,0.1,0,0.1,0l0.1,0.9l0.6-1.1c0,0,0.1-0.1,0.1-0.1l0.3-0.1c0,0,0,0,0,0
			L173.9,87.5z"/>
		<path class="st1" d="M176.5,88.2C176.5,88.3,176.5,88.3,176.5,88.2l-0.3,0.1c0,0-0.1,0-0.1-0.1l0.1-1.4l0,0l-0.9,1.5
			c0,0-0.1,0.1-0.1,0.1l-0.2,0c0,0-0.1,0-0.1-0.1l0.1-2c0,0,0-0.1,0.1-0.1l0.3,0c0,0,0.1,0,0.1,0.1l-0.1,1.4l0,0l0.9-1.5
			c0,0,0.1-0.1,0.1-0.1l0.2,0c0,0,0.1,0,0.1,0.1L176.5,88.2z"/>
		<path class="st1" d="M179.6,88.3C179.6,88.4,179.6,88.4,179.6,88.3l-0.3,0c0,0-0.1,0,0-0.1l0.2-0.8l0.2-0.6h0l-0.9,1.3
			c0,0-0.1,0-0.1,0l-0.2,0c0,0-0.1,0-0.1-0.1l-0.3-1.4h0l-0.1,0.6l-0.2,0.8c0,0,0,0.1-0.1,0.1l-0.2,0c0,0-0.1,0,0-0.1l0.4-2
			c0,0,0-0.1,0.1-0.1l0.3,0c0,0,0.1,0,0.1,0.1l0.3,1.6l1-1.5c0,0,0.1,0,0.1,0l0.2,0c0,0,0.1,0,0,0.1L179.6,88.3z"/>
		<path class="st1" d="M182.1,87.9c-0.3,0.7-0.8,0.9-1.4,0.8c-0.6-0.1-0.9-0.6-0.6-1.3c0.3-0.7,0.8-0.9,1.4-0.8
			C182.1,86.8,182.4,87.2,182.1,87.9z M180.5,87.5c-0.2,0.6,0,0.8,0.3,0.9c0.3,0.1,0.7-0.1,0.9-0.6c0.2-0.6,0-0.8-0.3-0.9
			C181,86.8,180.7,87,180.5,87.5z"/>
		<path class="st1" d="M183.4,89.2l0.2,0.1c0,0,0,0,0,0.1l-0.3,0.6c0,0,0,0-0.1,0l-0.2-0.1c0,0,0,0,0-0.1l0.2-0.5l-1-0.4l-0.3,0.4
			c0,0,0,0-0.1,0l-0.2-0.1c0,0,0,0,0-0.1l0.3-0.6c0,0,0,0,0.1,0l0,0c0,0,0.1,0,0.2-0.2l0.9-1.4c0,0,0,0,0.1,0l1,0.4c0,0,0,0,0,0.1
			L183.4,89.2z M183.3,87.5l-0.8,1.2c0,0.1-0.1,0.1-0.2,0.2l0.7,0.2l0.7-1.4L183.3,87.5z"/>
		<path class="st1" d="M184.9,90.2C184.9,90.2,184.9,90.2,184.9,90.2l-0.3-0.1c0,0,0,0,0-0.1l0.8-1.1l0,0l-1.5,0.8c0,0-0.1,0-0.1,0
			l-0.2-0.1c0,0,0,0,0-0.1l1.1-1.7c0,0,0,0,0.1,0l0.2,0.1c0,0,0,0,0,0.1l-0.8,1.1l0,0l1.5-0.8c0,0,0.1,0,0.1,0l0.2,0.1
			c0,0,0,0,0,0.1L184.9,90.2z"/>
		<path class="st1" d="M187.3,89.5c0.4,0.3,0.5,0.7,0.2,1.1c-0.3,0.4-0.8,0.4-1.3,0.2l-0.1,0.1c0,0-0.1,0-0.1,0l-0.2-0.1
			c0,0,0,0,0-0.1l0.1-0.1c-0.4-0.3-0.5-0.7-0.2-1.1c0.3-0.4,0.8-0.4,1.3-0.2l0.1-0.1c0,0,0.1,0,0.1,0l0.2,0.1c0,0,0,0,0,0.1
			L187.3,89.5z M186.8,89.5c-0.3-0.1-0.6-0.1-0.8,0.2c-0.2,0.3-0.2,0.5,0,0.7L186.8,89.5z M186.4,90.5c0.3,0.1,0.6,0.1,0.8-0.2
			c0.2-0.3,0.2-0.5,0-0.7L186.4,90.5z"/>
		<path class="st1" d="M188.1,92.4C188.1,92.5,188.1,92.5,188.1,92.4l-0.3-0.2c0,0,0-0.1,0-0.1l1-0.9l0,0l-1.7,0.4c0,0-0.1,0-0.1,0
			l-0.2-0.1c0,0,0-0.1,0-0.1l1.5-1.3c0,0,0.1,0,0.1,0l0.2,0.2c0,0,0,0,0,0.1l-1,0.9l0,0l1.7-0.4c0,0,0.1,0,0.1,0l0.2,0.1
			c0,0,0,0,0,0.1L188.1,92.4z"/>
		<path class="st1" d="M189.4,93.5l0.1,0.1c0,0,0,0.1,0,0.1l-0.6,0.4c0,0-0.1,0-0.1,0l-0.1-0.1c0,0,0-0.1,0-0.1l0.4-0.3l-0.9-0.9
			c0,0,0-0.1,0-0.1l1.6-1.2c0,0,0.1,0,0.1,0l0.2,0.2c0,0,0,0.1,0,0.1l-1.5,1.1l0.5,0.5l1.5-1c0,0,0.1,0,0.1,0l0.2,0.2
			c0,0,0,0.1,0,0.1L189.4,93.5z"/>
		<path class="st1" d="M190.4,95.1C190.4,95.1,190.3,95.1,190.4,95.1l-0.2-0.2c0,0,0-0.1,0-0.1l1.2-0.7l0,0l-1.7,0
			c0,0-0.1,0-0.1-0.1l-0.1-0.2c0,0,0-0.1,0-0.1l1.8-1c0,0,0.1,0,0.1,0l0.2,0.2c0,0,0,0.1,0,0.1l-1.2,0.7l0,0l1.7,0
			c0,0,0.1,0,0.1,0.1l0.1,0.2c0,0,0,0.1,0,0.1L190.4,95.1z"/>
		<path class="st1" d="M192.7,95c0.2,0.4,0.1,0.8-0.3,0.9c-0.4,0.2-0.8,0-1.1-0.3l-0.1-0.2l-0.5,0.2c0,0-0.1,0-0.1,0l-0.1-0.2
			c0,0,0-0.1,0-0.1l1.8-0.8c0,0,0.1,0,0.1,0L192.7,95z M192.4,94.9l-0.9,0.4l0.1,0.2c0.1,0.2,0.4,0.3,0.7,0.2
			c0.3-0.1,0.4-0.3,0.2-0.6L192.4,94.9z"/>
		<path class="st1" d="M193.1,98.1c-0.7,0.2-1.2-0.1-1.5-0.6c-0.2-0.5-0.1-1,0.6-1.3c0.7-0.2,1.2,0.1,1.5,0.6
			C194,97.4,193.8,97.9,193.1,98.1z M192.4,96.6c-0.6,0.2-0.7,0.5-0.5,0.8c0.1,0.3,0.5,0.5,1.1,0.4c0.6-0.2,0.7-0.5,0.5-0.8
			C193.3,96.6,193,96.4,192.4,96.6z"/>
		<path class="st1" d="M194.4,98.6c0.1,0.4,0,0.7-0.3,0.8c-0.2,0-0.4,0-0.5-0.2l0,0c0,0.3-0.1,0.5-0.4,0.5c-0.3,0.1-0.7-0.2-0.8-0.5
			l-0.2-0.6c0,0,0-0.1,0-0.1l2-0.4c0,0,0.1,0,0.1,0L194.4,98.6z M193.2,98.7l-0.7,0.1l0.1,0.2c0.1,0.3,0.3,0.3,0.5,0.3
			c0.2,0,0.3-0.2,0.2-0.4L193.2,98.7z M194.1,98.6l-0.7,0.1l0.1,0.2c0.1,0.2,0.2,0.3,0.4,0.2c0.2,0,0.3-0.2,0.2-0.4L194.1,98.6z"/>
		<path class="st1" d="M193,101.7C193,101.8,193,101.7,193,101.7l-0.1-0.3c0,0,0-0.1,0-0.1l0.4-0.2l-0.2-0.8l-0.5-0.1
			c0,0-0.1,0-0.1-0.1l0-0.2c0,0,0-0.1,0,0l2.2,0.6c0,0,0.1,0,0.1,0.1l0,0.1c0,0,0,0.1,0,0.1L193,101.7z M194.3,100.6l-0.8-0.2
			l0.1,0.6l0.7-0.3l0.2-0.1L194.3,100.6z"/>
		<path class="st1" d="M193.2,103.3C193.1,103.3,193.1,103.3,193.2,103.3l-0.1-0.3c0,0,0-0.1,0.1-0.1l0.9,0l-0.1-0.7l-0.9,0
			c0,0-0.1,0-0.1-0.1l0-0.3c0,0,0-0.1,0.1-0.1l2,0.1c0,0,0.1,0,0.1,0.1l0,0.3c0,0,0,0.1-0.1,0.1l-0.8,0l0.1,0.7l0.8,0
			c0,0,0.1,0,0.1,0.1l0,0.3c0,0,0,0.1-0.1,0.1L193.2,103.3z"/>
		<path class="st1" d="M193.2,105C193.1,104.9,193.1,104.9,193.2,105l-0.1-0.3c0,0,0-0.1,0.1-0.1l0.9,0.1l0-0.8l-0.9-0.1
			c0,0-0.1,0-0.1-0.1l0-0.3c0,0,0-0.1,0.1-0.1l2,0.3c0,0,0.1,0,0.1,0.1l0,0.3c0,0,0,0.1-0.1,0l-0.8-0.1l0,0.8l0.8,0.1
			c0,0,0.1,0,0.1,0.1l0,0.3c0,0,0,0.1-0.1,0L193.2,105z"/>
		<path class="st1" d="M192.9,107C192.9,107,192.9,107,192.9,107l0-0.3c0,0,0-0.1,0.1,0l1.9,0.5c0,0,0.1,0,0,0.1l0,0.3
			c0,0,0,0.1-0.1,0L192.9,107z M194.4,105.8l0,0.2c-0.1,0.4-0.4,0.7-0.8,0.6c-0.4-0.1-0.6-0.5-0.6-0.9l0.1-0.6c0,0,0-0.1,0.1,0
			l1.9,0.5c0,0,0.1,0,0,0.1l0,0.2c0,0,0,0.1-0.1,0L194.4,105.8z M194.1,105.8l-0.8-0.2l0,0.2c0,0.3,0.1,0.5,0.3,0.5
			c0.3,0.1,0.4,0,0.5-0.3L194.1,105.8z"/>
		<path class="st1" d="M193.7,108.5l-1.1,0.2c0,0-0.1,0-0.1-0.1l0.1-0.3c0,0,0-0.1,0.1-0.1l0.8-0.1l-0.6-0.7c0,0,0-0.1,0-0.1l0-0.2
			c0-0.1,0-0.1,0.1,0l0.8,1l1-0.2c0.1,0,0.1,0,0.1,0.1l-0.1,0.3c0,0.1,0,0.1-0.1,0.1l-0.7,0.1l0.5,0.6c0,0,0,0.1,0,0.1l0,0.2
			c0,0.1,0,0.1-0.1,0L193.7,108.5z"/>
		<path class="st1" d="M192.3,111.9c-0.6-0.4-0.7-1-0.5-1.5c0.2-0.5,0.7-0.8,1.4-0.4c0.6,0.4,0.8,1,0.5,1.5
			C193.4,112.1,192.9,112.3,192.3,111.9z M193,110.3c-0.5-0.3-0.8-0.2-1,0.2c-0.1,0.3-0.1,0.7,0.4,1c0.5,0.3,0.8,0.2,1-0.2
			C193.6,111.1,193.5,110.7,193,110.3z"/>
		<path class="st1" d="M192.7,113.3c-0.2,0.4-0.6,0.5-1,0.2c-0.3-0.2-0.4-0.7-0.2-1.1l0.1-0.2l-0.5-0.4c0,0,0,0,0-0.1l0.1-0.2
			c0,0,0,0,0.1,0l1.6,1.2c0,0,0,0.1,0,0.1L192.7,113.3z M192.6,112.9l-0.8-0.6l-0.1,0.2c-0.1,0.2-0.1,0.5,0.2,0.7
			c0.3,0.2,0.5,0.2,0.6-0.1L192.6,112.9z"/>
		<path class="st1" d="M191.3,115C191.3,115,191.3,114.9,191.3,115l0.4-0.7l-1.3-1.2c0,0,0-0.1,0-0.1l0.1-0.2c0,0,0,0,0.1,0l1.5,1.4
			c0,0,0,0.1,0,0.1l-0.6,0.8c0,0,0,0-0.1,0L191.3,115z"/>
		<path class="st1" d="M188.8,115.1C188.7,115.1,188.7,115.1,188.8,115.1l0.2-0.3c0,0,0.1,0,0.1,0l0.4,0.2l0.5-0.6l-0.2-0.5
			c0,0,0-0.1,0-0.1l0.1-0.1c0,0,0,0,0.1,0l0.8,2.1c0,0,0,0.1,0,0.1l-0.1,0.1c0,0-0.1,0-0.1,0L188.8,115.1z M190.4,115.5l-0.3-0.8
			l-0.4,0.5L190.4,115.5l0.1,0.2L190.4,115.5z"/>
		<path class="st1" d="M187.6,116.2C187.6,116.2,187.6,116.1,187.6,116.2l0.2-0.3c0,0,0.1,0,0.1,0l0.5,0.7l0.5-0.5l-0.5-0.7
			c0,0,0-0.1,0-0.1l0.2-0.2c0,0,0.1,0,0.1,0l1.2,1.6c0,0,0,0.1,0,0.1l-0.2,0.2c0,0-0.1,0-0.1,0l-0.5-0.7l-0.5,0.5l0.5,0.7
			c0,0,0,0.1,0,0.1l-0.2,0.2c0,0-0.1,0-0.1,0L187.6,116.2z"/>
		<path class="st1" d="M186.2,117.3C186.2,117.2,186.2,117.2,186.2,117.3l0.2-0.2c0,0,0.1,0,0.1,0l0.7,1.2l0,0l0-1.7
			c0,0,0-0.1,0.1-0.1l0.2-0.1c0,0,0.1,0,0.1,0l1,1.8c0,0,0,0.1,0,0.1l-0.2,0.2c0,0-0.1,0-0.1,0l-0.7-1.2l0,0l0,1.7
			c0,0,0,0.1-0.1,0.1l-0.2,0.1c0,0-0.1,0-0.1,0L186.2,117.3z"/>
		<path class="st1" d="M185.7,118.8c-0.3,0.1-0.5,0-0.6-0.2c-0.1-0.3,0-0.8,0.4-1c0.2-0.1,0.5-0.2,0.6-0.2c0,0,0,0,0,0.1l0,0.1
			c0,0,0,0-0.1,0c-0.1,0-0.3,0.1-0.4,0.2c-0.3,0.2-0.3,0.4-0.2,0.5c0.1,0.2,0.2,0.3,0.5,0.1l0.2-0.1c0,0,0.1,0,0.1,0l0.1,0.1
			c0,0,0,0.1,0,0.1l-0.1,0.1c-0.2,0.1-0.3,0.3-0.2,0.5c0.1,0.2,0.2,0.2,0.4,0.1c0.1-0.1,0.2-0.2,0.3-0.3c0,0,0.1,0,0.1,0l0.1,0.1
			c0,0,0,0,0,0.1c0,0.1-0.2,0.3-0.4,0.4c-0.4,0.2-0.7,0.2-0.9-0.2C185.5,119.2,185.5,119,185.7,118.8L185.7,118.8z"/>
		<path class="st1" d="M182.8,119C182.8,119,182.8,119,182.8,119l0.3-0.2c0,0,0.1,0,0.1,0l0.2,0.8l0.1,0.6l0,0l0.1-1.6
			c0,0,0-0.1,0.1-0.1l0.2-0.1c0,0,0.1,0,0.1,0l0.9,1.1l0,0l-0.2-0.6l-0.2-0.8c0,0,0-0.1,0-0.1l0.2-0.1c0,0,0.1,0,0.1,0l0.6,1.9
			c0,0,0,0.1,0,0.1l-0.2,0.1c0,0-0.1,0-0.1,0l-1.1-1.3l-0.2,1.8c0,0,0,0.1-0.1,0.1l-0.2,0.1c0,0-0.1,0-0.1,0L182.8,119z"/>
		<path class="st1" d="M180.8,120.7c-0.1-0.7,0.3-1.2,0.8-1.4c0.6-0.2,1,0.1,1.2,0.8c0.1,0.7-0.3,1.2-0.8,1.4
			C181.4,121.6,180.9,121.4,180.8,120.7z M182.5,120.2c-0.1-0.6-0.4-0.7-0.7-0.6c-0.3,0.1-0.6,0.4-0.5,1c0.1,0.6,0.4,0.7,0.7,0.6
			C182.3,121.1,182.5,120.8,182.5,120.2z"/>
		<path class="st1" d="M180.1,121.8c-0.5,0.1-0.7-0.1-0.7-0.4c0-0.2,0.1-0.4,0.3-0.5v0c-0.3,0-0.4-0.2-0.4-0.4
			c0-0.3,0.3-0.7,0.6-0.7l0.6-0.1c0,0,0.1,0,0.1,0l0.1,2c0,0,0,0.1-0.1,0.1L180.1,121.8z M180.2,120.6l0-0.7l-0.2,0
			c-0.3,0.1-0.4,0.2-0.4,0.4c0,0.2,0.1,0.3,0.4,0.3L180.2,120.6z M180.2,121.5l0-0.7l-0.2,0c-0.2,0-0.3,0.2-0.3,0.4
			c0,0.2,0.1,0.3,0.4,0.3L180.2,121.5z"/>
	</g>
	<g>
		<path class="st1" d="M177.4,119.8c-0.4,0-0.8,0-1.2,0l-0.3,2.4c0.5,0,1,0.1,1.5,0.1c0.5,0,1,0,1.5-0.1l-0.3-2.4
			C178.2,119.8,177.8,119.8,177.4,119.8z"/>
	</g>
	<g>
		<g>
			<path class="st1" d="M165,101c0.1,0.5,0.3,1,0.6,1.5c1.3,2.5,3.5,2,4.6,1.4l-0.9-1.6L165,101z"/>
		</g>
		<g>
			<path class="st1" d="M165.4,95.3c-0.1,0.4-0.5,1.5-0.6,2.9l2.6,0.8L165.4,95.3z"/>
		</g>
		<g>
			<path class="st1" d="M170.4,103.8c1.2-0.7,2.7-2.2,1.3-4.6c-0.3-0.5-0.6-0.9-1-1.3l-1.2,4.3L170.4,103.8z"/>
		</g>
		<g>
			<path class="st1" d="M167.6,99.3l-2.8-0.8c0,0.7,0,1.5,0.1,2.3l4.2,1.2L167.6,99.3z"/>
		</g>
		<g>
			<path class="st1" d="M168.4,96.2c-1.2-0.6-2.3-0.9-2.8-1l2,3.6L168.4,96.2z"/>
		</g>
		<g>
			<path class="st1" d="M169.3,101.8l1.2-4.2c-0.6-0.5-1.2-1-1.8-1.3l-0.8,2.8L169.3,101.8z"/>
		</g>
	</g>
	<g>
		<path class="st1" d="M172.2,105.8c0,0.2-0.1,0.2-0.3,0.2h-3.1l-1.1,7.5c0,0.2-0.1,0.2-0.3,0.2h-1.1c-0.2,0-0.2-0.1-0.2-0.2
			l1.2-8.4c0-0.2,0.1-0.2,0.3-0.2h4.4c0.2,0,0.2,0.1,0.2,0.2L172.2,105.8z"/>
		<path class="st1" d="M180.6,113.6c0,0.2-0.1,0.2-0.3,0.2h-1.1c-0.2,0-0.2-0.1-0.2-0.2l0.5-3.5l0.5-2.5h0l-3.3,6
			c-0.1,0.2-0.2,0.2-0.4,0.2h-0.8c-0.2,0-0.3-0.1-0.3-0.2l-1.5-6h0l-0.2,2.5l-0.5,3.5c0,0.2-0.1,0.2-0.3,0.2h-0.8
			c-0.2,0-0.2-0.1-0.2-0.2l1.2-8.4c0-0.2,0.1-0.2,0.3-0.2h1.1c0.2,0,0.3,0.1,0.3,0.2l1.8,6.8l3.9-6.7c0.1-0.2,0.2-0.2,0.4-0.2h1
			c0.2,0,0.2,0.1,0.2,0.2L180.6,113.6z"/>
		<path class="st1" d="M190.5,109.4c-0.4,3.1-2.5,4.6-5,4.6c-2.5,0-4.2-1.5-3.7-4.6c0.4-3.1,2.5-4.6,5-4.6
			C189.2,104.8,190.9,106.3,190.5,109.4z M183.4,109.4c-0.3,2.5,0.8,3.4,2.3,3.4c1.5,0,2.9-0.9,3.2-3.4c0.4-2.5-0.8-3.4-2.3-3.4
			C185.1,106,183.7,106.9,183.4,109.4z"/>
	</g>
	<g>
		<path class="st1" d="M178.6,96.5c0,0.2-0.1,0.2-0.3,0.2h-3.4l-0.3,2.2h1.5c1.9,0,2.6,1.3,2.4,2.7c-0.2,1.5-1.6,2.7-3.1,2.7h-2.7
			c-0.2,0-0.2-0.1-0.2-0.2l1.2-8.2c0-0.2,0.1-0.2,0.3-0.2h4.6c0.2,0,0.2,0.1,0.2,0.2L178.6,96.5z M174.5,99.9l-0.5,3.4h1
			c1.3,0,1.8-0.8,1.9-1.7c0.1-0.8-0.1-1.7-1.4-1.7H174.5z"/>
		<path class="st1" d="M184.4,96.5c0,0.2-0.1,0.2-0.3,0.2h-3l-0.4,2.7h2.4c0.2,0,0.2,0.1,0.2,0.2l-0.1,0.6c0,0.2-0.1,0.2-0.3,0.2
			h-2.4l-0.4,2.8h3c0.2,0,0.2,0.1,0.2,0.2l-0.1,0.6c0,0.2-0.1,0.2-0.3,0.2h-4.3c-0.2,0-0.2-0.1-0.2-0.2l1.2-8.2
			c0-0.2,0.1-0.2,0.3-0.2h4.3c0.2,0,0.2,0.1,0.2,0.2L184.4,96.5z"/>
		<path class="st1" d="M188.4,99.8c1.2,0.2,1.6,1,1.5,2.1c-0.2,1.5-1.8,2.6-3.6,2.6c-1,0-2.2-0.4-2.5-0.6c-0.1-0.1-0.1-0.1,0-0.3
			l0.3-0.5c0.1-0.1,0.2-0.1,0.3,0c0.3,0.1,1.3,0.3,2,0.3c1.4,0,1.9-0.7,2-1.5c0.1-0.7-0.2-1.5-1.4-1.5h-0.8c-0.2,0-0.2-0.1-0.2-0.2
			l0.1-0.5c0-0.2,0.1-0.2,0.3-0.2h0.5c0.8,0,1.6-0.5,1.8-1.4c0.1-0.8-0.3-1.3-1.4-1.3c-0.7,0-1.3,0.2-1.6,0.3c-0.1,0-0.3,0.1-0.3,0
			l-0.1-0.5c0-0.2,0-0.2,0-0.3c0.3-0.2,1.2-0.6,2.1-0.6c1.9,0,2.9,0.9,2.7,2.4C189.9,98.8,189.3,99.4,188.4,99.8L188.4,99.8z"/>
	</g>
</g>
<g>
	<path class="st2" d="M167.2,206l0.9,0.9l-0.1,0.1c-0.1,0-0.1-0.1-0.2-0.1c-0.1,0-0.1,0.1-0.2,0.1l-1.8,1.9
		c-0.1,0.1-0.1,0.2-0.1,0.2c0,0.1,0,0.1,0.1,0.2l-0.1,0.1l-0.9-0.9l0.1-0.1c0.1,0.1,0.1,0.1,0.2,0.1c0.1,0,0.1,0,0.2-0.1l1.8-1.9
		c0.1-0.1,0.1-0.2,0.1-0.2c0-0.1,0-0.1-0.1-0.2L167.2,206L167.2,206z M170.1,208.5l-0.5,0.7l-0.2-0.1c0.1-0.2,0.1-0.4,0-0.6
		s-0.2-0.4-0.4-0.5c-0.2-0.1-0.3-0.1-0.4-0.1c-0.1,0-0.2,0.1-0.3,0.2c-0.1,0.1-0.1,0.2,0,0.4c0,0.1,0.1,0.3,0.2,0.4
		c0.4,0.5,0.6,0.8,0.6,1.1c0,0.2,0,0.5-0.2,0.7c-0.2,0.3-0.5,0.5-0.8,0.5c-0.3,0-0.7,0-1-0.2c-0.1,0-0.1-0.1-0.2-0.1
		c-0.1-0.1-0.2-0.2-0.4-0.4c-0.1-0.1-0.1-0.1-0.2-0.1c-0.1,0-0.1,0-0.1,0c0,0,0,0,0,0c0,0,0,0,0,0l-0.1-0.1l0.5-0.8l0.2,0.1
		c0,0.2,0,0.4,0.1,0.7c0.1,0.2,0.2,0.4,0.4,0.5c0.1,0.1,0.3,0.1,0.4,0.2c0.1,0,0.3,0,0.4-0.1c0,0,0.1,0,0.1-0.1c0,0,0.1-0.1,0.1-0.1
		c0,0,0-0.1,0.1-0.2c0-0.1,0-0.1,0-0.2c0-0.1-0.1-0.1-0.1-0.2c0-0.1-0.1-0.2-0.2-0.4c-0.3-0.3-0.4-0.6-0.5-0.9c0-0.2,0-0.5,0.2-0.7
		c0.2-0.2,0.4-0.4,0.7-0.5c0.3-0.1,0.6,0,0.8,0.2c0.1,0.1,0.2,0.1,0.2,0.2c0.1,0.1,0.1,0.2,0.2,0.3c0.1,0.1,0.1,0.2,0.1,0.2
		c0,0,0.1,0,0.1,0L170.1,208.5L170.1,208.5z M172.1,209.1c0.5,0.2,0.9,0.5,1.1,1c0.2,0.5,0.2,1,0.1,1.5c-0.2,0.5-0.5,0.9-0.9,1.1
		c-0.5,0.2-0.9,0.3-1.4,0.1c-0.5-0.2-0.9-0.5-1.1-1c-0.2-0.5-0.2-0.9-0.1-1.4c0.2-0.5,0.5-0.9,0.9-1.1
		C171.1,209,171.6,209,172.1,209.1L172.1,209.1z M172,209.4c-0.3-0.1-0.6-0.1-0.9,0.1c-0.2,0.2-0.4,0.6-0.6,1.1
		c-0.2,0.5-0.2,1-0.2,1.2c0.1,0.3,0.3,0.5,0.6,0.6c0.3,0.1,0.6,0.1,0.8-0.1c0.2-0.2,0.4-0.6,0.6-1.1c0.2-0.5,0.3-1,0.2-1.3
		C172.6,209.7,172.4,209.5,172,209.4L172,209.4z M176.9,212.9l-0.2,0.9l-2.1-0.2l0-0.2c0.6-0.7,1-1.2,1.2-1.5
		c0.2-0.4,0.4-0.6,0.4-0.9c0-0.2,0-0.3-0.1-0.4c-0.1-0.1-0.2-0.2-0.4-0.2c-0.1,0-0.2,0-0.3,0c-0.1,0-0.2,0.1-0.4,0.3l-0.2-0.2
		c0.2-0.2,0.4-0.4,0.6-0.5c0.2-0.1,0.4-0.1,0.7-0.1c0.3,0,0.5,0.1,0.7,0.3c0.2,0.2,0.2,0.4,0.2,0.6c0,0.2-0.1,0.4-0.3,0.7
		c-0.2,0.2-0.7,0.7-1.5,1.3l0,0l1,0.1c0.1,0,0.2,0,0.2,0c0.1,0,0.1-0.1,0.2-0.2L176.9,212.9L176.9,212.9z M179.8,212.6l0,0.9
		l-2.1,0.3l0-0.2c0.4-0.8,0.7-1.4,0.9-1.8c0.2-0.4,0.2-0.7,0.2-0.9c0-0.2-0.1-0.3-0.2-0.4c-0.1-0.1-0.2-0.1-0.4-0.1
		c-0.1,0-0.2,0-0.3,0.1c-0.1,0.1-0.2,0.2-0.3,0.3l-0.2-0.1c0.1-0.2,0.3-0.4,0.5-0.6c0.2-0.1,0.4-0.2,0.6-0.3c0.3,0,0.5,0,0.7,0.2
		c0.2,0.1,0.3,0.3,0.4,0.6c0,0.2,0,0.4-0.1,0.7c-0.1,0.3-0.5,0.8-1.1,1.6l0,0l1-0.1c0.1,0,0.2,0,0.2-0.1c0.1,0,0.1-0.1,0.1-0.2
		L179.8,212.6L179.8,212.6z M182,213.1c-0.4,0.1-0.8,0-1.1-0.2c-0.3-0.3-0.5-0.7-0.7-1.3c-0.2-0.6-0.2-1.1-0.1-1.4
		c0.1-0.4,0.4-0.6,0.8-0.7c0.4-0.1,0.8,0,1.1,0.2c0.3,0.3,0.5,0.7,0.7,1.3c0.2,0.6,0.2,1.1,0.1,1.5C182.7,212.7,182.4,213,182,213.1
		L182,213.1z M181.1,209.7c-0.2,0-0.3,0.1-0.3,0.3c0,0.2,0,0.4,0.1,0.7l0.4,1.5c0.1,0.3,0.2,0.5,0.3,0.6c0.1,0.1,0.2,0.1,0.4,0.1
		c0.2,0,0.3-0.2,0.3-0.3c0-0.2,0-0.4-0.1-0.7l-0.4-1.5c-0.1-0.3-0.2-0.5-0.3-0.6C181.4,209.7,181.2,209.6,181.1,209.7L181.1,209.7z
		 M185.2,211.7c-0.4,0.2-0.7,0.2-1.1,0c-0.3-0.2-0.6-0.6-0.9-1.1c-0.3-0.5-0.4-1-0.4-1.4c0-0.4,0.3-0.7,0.6-0.9
		c0.4-0.2,0.7-0.2,1.1,0c0.3,0.2,0.7,0.6,0.9,1.1c0.3,0.5,0.4,1,0.3,1.4C185.8,211.2,185.6,211.5,185.2,211.7L185.2,211.7z
		 M183.6,208.6c-0.2,0.1-0.2,0.2-0.2,0.4c0,0.2,0.1,0.4,0.2,0.6l0.7,1.4c0.1,0.3,0.3,0.5,0.4,0.5c0.1,0.1,0.3,0.1,0.4,0
		c0.1-0.1,0.2-0.2,0.2-0.4c0-0.2-0.1-0.4-0.2-0.6l-0.7-1.4c-0.1-0.3-0.3-0.4-0.4-0.5C183.9,208.5,183.8,208.5,183.6,208.6
		L183.6,208.6z M188.1,209.8c-0.3,0.3-0.7,0.4-1.1,0.3c-0.4-0.1-0.8-0.4-1.2-0.9c-0.4-0.5-0.6-0.9-0.7-1.3c-0.1-0.4,0.1-0.7,0.4-1
		c0.3-0.3,0.7-0.4,1.1-0.3c0.4,0.1,0.8,0.4,1.2,0.8c0.4,0.5,0.6,0.9,0.7,1.3C188.6,209.2,188.4,209.5,188.1,209.8L188.1,209.8z
		 M185.8,207.1c-0.1,0.1-0.2,0.2-0.1,0.4c0,0.2,0.1,0.3,0.3,0.6l1,1.2c0.2,0.2,0.4,0.4,0.5,0.4c0.1,0,0.3,0,0.4-0.1
		c0.1-0.1,0.2-0.2,0.1-0.4c0-0.2-0.1-0.3-0.3-0.6l-1-1.2c-0.2-0.2-0.4-0.4-0.5-0.4C186.1,207,185.9,207,185.8,207.1L185.8,207.1z"/>
	<path class="st2" d="M163.9,202.4L163.9,202.4c0.2,0,0.3,0,0.4,0.1c0.1,0.1,0.1,0.2,0.2,0.2c0.1,0.2,0.1,0.4,0,0.6
		c-0.1,0.2-0.2,0.3-0.4,0.4c-0.2,0.1-0.4,0.1-0.6,0c-0.2-0.1-0.3-0.2-0.4-0.4c0,0,0-0.1,0-0.1c0,0,0-0.1,0-0.1c0,0,0-0.1,0-0.1
		c0,0,0,0,0-0.1c0,0,0,0,0,0c0,0,0,0,0,0c0,0,0,0,0,0c0,0,0,0,0,0l0-0.1l0.3-0.1l0,0.1c-0.1,0.1-0.1,0.1-0.1,0.2c0,0.1,0,0.2,0,0.3
		c0,0,0,0,0,0c0,0,0,0,0,0c0.1,0.1,0.2,0.1,0.3,0.1c0.1,0,0.3,0,0.5-0.1c0.2-0.1,0.3-0.2,0.4-0.3c0.1-0.1,0.1-0.2,0-0.4
		c0-0.1-0.1-0.1-0.1-0.2C164.1,202.5,164,202.5,163.9,202.4L163.9,202.4z M162.6,202.5l-0.2-0.5l0.1,0c0,0,0.1,0.1,0.1,0.1
		c0,0,0,0,0.1,0l0.8-0.3l0,0l-0.9-0.4l-0.1,0c0,0-0.1,0-0.1,0c0,0,0,0.1,0,0.1l-0.1,0l-0.2-0.5l0.1,0c0,0,0,0.1,0.1,0.1
		c0,0,0.1,0,0.1,0l1.1-0.4c0,0,0.1,0,0.1-0.1c0,0,0-0.1,0-0.1l0.1,0l0.2,0.5l-0.1,0c0,0,0-0.1-0.1-0.1c0,0-0.1,0-0.1,0l-0.8,0.3l0,0
		l0.9,0.4l0.1,0c0,0,0.1,0,0.1-0.1c0,0,0-0.1,0-0.1l0.1,0l0.2,0.5l-0.1,0c0,0,0-0.1-0.1-0.1c0,0-0.1,0-0.1,0l-1.1,0.3
		c0,0-0.1,0-0.1,0.1C162.7,202.4,162.7,202.5,162.6,202.5L162.6,202.5L162.6,202.5z M163,199.1L163,199.1c0.2,0,0.3,0.1,0.3,0.2
		c0.1,0.1,0.1,0.2,0.1,0.3c0,0.2,0,0.4-0.1,0.6c-0.1,0.2-0.3,0.3-0.5,0.3c-0.2,0-0.4,0-0.6-0.1c-0.2-0.1-0.3-0.3-0.3-0.5
		c0,0,0-0.1,0-0.1c0,0,0-0.1,0-0.1c0,0,0-0.1,0-0.1c0,0,0,0,0-0.1c0,0,0,0,0,0c0,0,0,0,0,0c0,0,0,0,0,0c0,0,0,0,0,0l0-0.1l0.4-0.1
		l0,0.1c-0.1,0-0.1,0.1-0.2,0.2c0,0.1,0,0.2,0,0.3c0,0,0,0,0,0c0,0,0,0,0,0c0.1,0.1,0.1,0.2,0.2,0.2c0.1,0,0.3,0,0.5,0
		c0.2,0,0.4-0.1,0.4-0.2c0.1-0.1,0.1-0.2,0.1-0.4c0-0.1,0-0.1-0.1-0.2C163.2,199.2,163.1,199.2,163,199.1L163,199.1z M161.7,199
		L161.7,199c0-0.1,0-0.1,0-0.1c0,0,0,0,0-0.1l-0.1-1c0,0,0-0.1,0-0.1c0,0,0,0,0-0.1l0-0.1l0.4,0l0,0.1c-0.1,0-0.1,0.1-0.2,0.2
		c0,0.1-0.1,0.1,0,0.2l0,0.1l1.2-0.1c0,0,0.1,0,0.1,0c0,0,0,0,0-0.1l0.1,0l0,0.5l-0.1,0c0,0,0-0.1-0.1-0.1c0,0,0,0-0.1,0l-1.2,0.1
		l0,0.1c0,0.1,0,0.2,0.1,0.2c0,0.1,0.1,0.1,0.2,0.1l0,0.1L161.7,199L161.7,199z M161.7,197.2l0-1.1c0,0,0-0.1,0-0.1c0,0,0,0,0,0
		l0-0.1l0.4,0l0,0.1c-0.1,0-0.1,0.1-0.2,0.1c0,0-0.1,0.1-0.1,0.2l0,0.4l0.6,0l0-0.2c0-0.1,0-0.1,0-0.1c0,0-0.1,0-0.1,0l0-0.1l0.4,0
		l0,0.1c0,0-0.1,0-0.1,0c0,0,0,0.1,0,0.1l0,0.3l0.6,0l0-0.5c0-0.1,0-0.2-0.1-0.2c0-0.1-0.1-0.1-0.2-0.1l0-0.1l0.4,0l0,1.4l-0.1,0
		c0,0,0-0.1,0-0.1c0,0-0.1,0-0.1,0l-1.1,0c0,0-0.1,0-0.1,0C161.8,197.2,161.8,197.2,161.7,197.2L161.7,197.2L161.7,197.2z
		 M161.7,195.4l0.1-0.5l1.2-0.2l0,0l-1-0.6l0.1-0.5l0.1,0c0,0,0,0.1,0,0.1c0,0,0,0,0.1,0l1.1,0.2c0,0,0.1,0,0.1,0c0,0,0,0,0.1-0.1
		l0.1,0l-0.1,0.5l-0.1,0c0,0,0-0.1,0-0.1c0,0,0,0-0.1,0l-1.1-0.2l0,0l1.2,0.7l0,0.2l-1.4,0.2l0,0l1.1,0.2c0,0,0.1,0,0.1,0
		c0,0,0,0,0.1-0.1l0.1,0l-0.1,0.4l-0.1,0c0,0,0-0.1,0-0.1c0,0-0.1,0-0.1,0l-1-0.2c-0.1,0-0.1,0-0.1,0
		C161.8,195.4,161.8,195.4,161.7,195.4L161.7,195.4L161.7,195.4z M163.5,193.8c0,0,0-0.1,0-0.1c0,0-0.1-0.1-0.1-0.1l-0.8-0.7
		c0,0,0,0-0.1,0c0,0,0,0-0.1,0c0,0,0,0,0,0c0,0,0,0,0,0.1l-0.1,0c0-0.1,0-0.1,0-0.2c0,0,0-0.1,0-0.1l0-0.1l1.3-0.2
		c0.1,0,0.2,0,0.2,0c0.1,0,0.1,0,0.1-0.1l0.1,0l-0.2,0.6l-0.1,0c0,0,0-0.1,0-0.1c0,0,0,0-0.1-0.1c0,0,0,0,0,0c0,0,0,0,0,0l-0.2,0
		l-0.2,0.7l0.1,0.1c0.1,0,0.1,0.1,0.1,0.1c0,0,0.1,0,0.1-0.1l0.1,0L163.5,193.8L163.5,193.8L163.5,193.8z M162.7,192.8l0.5,0.4l0,0
		l0.2-0.6l0,0L162.7,192.8L162.7,192.8L162.7,192.8z M163.1,190.6l0.2-0.5l1.2,0.2l0,0l-0.8-0.9l0.2-0.4l0.1,0c0,0,0,0.1,0,0.1
		c0,0,0,0,0.1,0.1l1,0.5c0,0,0.1,0,0.1,0c0,0,0.1,0,0.1-0.1l0.1,0l-0.3,0.5l-0.1,0c0,0,0-0.1,0-0.1c0,0,0,0-0.1-0.1l-1-0.5l0,0
		l0.9,1.1l-0.1,0.1l-1.4-0.2l0,0l1,0.5c0,0,0.1,0,0.1,0c0,0,0.1,0,0.1-0.1l0.1,0l-0.2,0.3l-0.1,0c0,0,0-0.1,0-0.1c0,0,0-0.1-0.1-0.1
		l-0.9-0.5c-0.1,0-0.1,0-0.1,0C163.2,190.5,163.2,190.6,163.1,190.6L163.1,190.6L163.1,190.6z M164.2,188.6l0.6-0.9c0,0,0,0,0-0.1
		c0,0,0,0,0,0l0,0l0.3,0.2l0,0.1c-0.1,0-0.2,0-0.2,0c-0.1,0-0.1,0.1-0.2,0.2l-0.2,0.3l0.5,0.3l0.1-0.2c0-0.1,0.1-0.1,0.1-0.1
		c0,0,0-0.1-0.1-0.1l0-0.1l0.3,0.2l0,0.1c0,0-0.1,0-0.1,0c0,0-0.1,0-0.1,0.1l-0.2,0.2l0.5,0.4l0.3-0.4c0-0.1,0.1-0.1,0.1-0.2
		c0-0.1,0-0.1-0.1-0.2l0-0.1l0.3,0.2l-0.8,1.1l-0.1,0c0,0,0-0.1,0-0.1c0,0,0-0.1-0.1-0.1l-0.9-0.6c0,0-0.1,0-0.1,0
		C164.3,188.6,164.3,188.6,164.2,188.6L164.2,188.6L164.2,188.6z M165.5,186.8L165.5,186.8c0,0.1,0,0.1,0,0.1c0,0,0,0.1,0,0.1
		l0.4,0.3l0.5-0.6l-0.4-0.3c0,0-0.1,0-0.1,0c0,0-0.1,0-0.1,0l-0.1-0.1l0.4-0.4l0.1,0.1c0,0,0,0.1,0,0.1c0,0,0,0.1,0,0.1l0.9,0.7
		c0,0,0.1,0,0.1,0c0,0,0.1,0,0.1,0l0.1,0.1l-0.4,0.4l-0.1-0.1c0,0,0-0.1,0-0.1c0,0,0,0,0-0.1l-0.4-0.3l-0.5,0.6l0.4,0.3
		c0,0,0.1,0,0.1,0c0,0,0.1,0,0.1,0l0.1,0.1l-0.4,0.4l-0.1-0.1c0,0,0-0.1,0-0.1c0,0,0,0,0-0.1l-0.9-0.7c0,0-0.1,0-0.1,0
		c0,0-0.1,0-0.1,0l-0.1-0.1L165.5,186.8L165.5,186.8z M166.6,185.7l0.8-0.7c0,0,0,0,0-0.1c0,0,0,0,0,0l0,0l0.3,0.3l-0.1,0.1
		c-0.1,0-0.1-0.1-0.2-0.1c-0.1,0-0.1,0-0.2,0.1l-0.3,0.2l0.4,0.4l0.2-0.2c0.1,0,0.1-0.1,0.1-0.1c0,0,0-0.1,0-0.1l0.1-0.1l0.3,0.3
		l-0.1,0.1c0,0-0.1,0-0.1,0c0,0-0.1,0-0.1,0l-0.2,0.2l0.4,0.5l0.4-0.3c0.1-0.1,0.1-0.1,0.1-0.2c0-0.1,0-0.2,0-0.2l0.1-0.1l0.3,0.3
		l-1.1,0.9l-0.1-0.1c0,0,0-0.1,0-0.1c0,0,0-0.1,0-0.1l-0.7-0.8c0,0-0.1-0.1-0.1-0.1C166.7,185.7,166.7,185.7,166.6,185.7
		L166.6,185.7L166.6,185.7z M169,183.8L169,183.8c0,0.1,0,0.1,0,0.2c0,0,0,0.1,0,0.1l0.6,0.9c0,0,0.1,0.1,0.1,0.1c0,0,0.1,0,0.1-0.1
		c0,0,0.1,0,0.1,0c0,0,0,0,0,0c0,0.1,0.1,0.2,0,0.3c0,0.1,0,0.2-0.1,0.3c0,0,0,0,0,0c0,0,0,0,0,0c0,0,0,0,0,0c0,0,0,0,0-0.1
		c0,0,0,0,0-0.1c0,0,0,0,0,0c0,0,0,0-0.1-0.1c0,0-0.1,0-0.1,0l-0.6,0.4c0,0-0.1,0-0.1,0.1c0,0,0,0,0,0.1c0,0,0,0,0,0
		c0,0,0,0,0.1,0.1c0,0,0.1,0.1,0.1,0.1c0,0,0,0,0,0.1c0,0,0,0-0.1,0c0,0-0.1,0-0.1,0c-0.1,0-0.1,0-0.2-0.1c-0.1,0-0.1-0.1-0.1-0.1
		c0,0,0,0,0,0c0,0,0,0,0.1-0.1c0,0,0-0.1,0.1-0.1c0,0,0-0.1,0-0.2l-0.2-0.7c0-0.1,0-0.1,0-0.2c0,0,0-0.1,0-0.1c0,0-0.1-0.1-0.1-0.1
		c0,0-0.1,0-0.2,0.1l0-0.1L169,183.8L169,183.8z M168.7,184.2C168.7,184.2,168.7,184.2,168.7,184.2c-0.1,0.1-0.1,0.2-0.1,0.3
		l0.2,0.9c0,0.1,0,0.1,0,0.1c0,0,0,0,0,0c0,0,0,0,0,0c0,0,0,0,0.1,0l0.4-0.3L168.7,184.2L168.7,184.2z M170,183.3l0.5-0.2l0,0.1
		c0,0-0.1,0.1-0.1,0.1c0,0,0,0,0,0.1l0.1,0.2c0,0,0.1,0,0.1-0.1c0,0,0-0.1,0-0.2c0-0.2,0-0.4,0.1-0.4c0-0.1,0.1-0.1,0.2-0.1l0.2,0.3
		l-0.1,0c0,0,0,0-0.1,0c0,0-0.1,0-0.1,0.1c-0.1,0.2-0.1,0.3-0.1,0.3c0,0,0,0,0,0l0,0c0.1,0,0.1,0,0.2,0c0.1,0,0.1,0,0.2,0
		c0.1,0,0.1,0.1,0.2,0.1c0.1,0.1,0.1,0.1,0.2,0.2c0.1,0.1,0.1,0.1,0.1,0.2c0,0,0,0,0.1,0l0,0.1l-0.5,0.2l0-0.1c0,0,0-0.1,0-0.1
		c0,0,0-0.1-0.1-0.2c0-0.1-0.1-0.2-0.1-0.2c0-0.1-0.1-0.1-0.2-0.1c-0.1,0-0.1-0.1-0.2-0.1c-0.1,0-0.1,0-0.2,0l0.3,0.7
		c0,0,0,0,0.1,0.1c0,0,0.1,0,0.1,0l0,0.1l-0.5,0.2l0-0.1c0,0,0.1-0.1,0.1-0.1c0,0,0,0,0-0.1l-0.3-0.7c-0.1,0-0.1,0.1-0.1,0.1
		c0,0.1-0.1,0.1-0.1,0.2c0,0.1,0,0.1,0,0.2c0,0.1,0,0.2,0.1,0.2c0,0.1,0.1,0.1,0.1,0.1c0,0,0.1,0,0.1,0l0,0.1l-0.5,0.2l0-0.1
		c0,0,0,0,0-0.1c0,0,0-0.1-0.1-0.2c0-0.1-0.1-0.2-0.1-0.3c0-0.1,0-0.1,0-0.2c0-0.1,0-0.1,0.1-0.2c0-0.1,0.1-0.1,0.1-0.2l0,0
		c0,0,0,0,0,0c0,0-0.1,0-0.3-0.1c0,0-0.1,0-0.1,0c0,0,0,0.1,0,0.1l-0.1,0l-0.2-0.3c0.1-0.1,0.1-0.1,0.2-0.1c0.1,0,0.2,0.1,0.4,0.2
		c0.1,0,0.1,0.1,0.1,0.1c0,0,0.1,0,0.1,0l-0.1-0.2c0,0,0,0-0.1-0.1C170.1,183.3,170.1,183.3,170,183.3L170,183.3L170,183.3z
		 M171.6,182.5l0.5-0.2l0.7,0.9l0,0l0-1.2l0.5-0.2l0,0.1c0,0-0.1,0-0.1,0.1c0,0,0,0.1,0,0.1l0.3,1.1c0,0,0,0.1,0.1,0.1
		c0,0,0.1,0,0.1,0l0,0.1l-0.5,0.2l0-0.1c0,0,0.1,0,0.1-0.1c0,0,0-0.1,0-0.1l-0.3-1.1l0,0l-0.1,1.4l-0.1,0l-0.9-1.1l0,0l0.4,1.1
		c0,0,0,0.1,0.1,0.1c0,0,0.1,0,0.1,0l0,0.1l-0.3,0.1l0-0.1c0,0,0.1,0,0.1-0.1c0,0,0-0.1,0-0.1l-0.3-1c0-0.1,0-0.1-0.1-0.1
		C171.7,182.6,171.6,182.6,171.6,182.5L171.6,182.5L171.6,182.5z M173.7,181.8l1.1-0.2c0,0,0.1,0,0.1,0c0,0,0,0,0,0l0.1,0l0.1,0.4
		l-0.1,0c0-0.1-0.1-0.1-0.1-0.2c-0.1,0-0.1,0-0.3,0l-0.4,0.1l0.1,0.5l0.2,0c0.1,0,0.1,0,0.1-0.1c0,0,0-0.1,0-0.1l0.1,0l0.1,0.4
		l-0.1,0c0,0,0-0.1-0.1-0.1c0,0-0.1,0-0.1,0l-0.3,0.1l0.1,0.6l0.5-0.1c0.1,0,0.1-0.1,0.2-0.1c0.1-0.1,0.1-0.1,0.1-0.2l0.1,0l0.1,0.4
		l-1.4,0.2l0-0.1c0,0,0.1,0,0.1-0.1c0,0,0-0.1,0-0.1l-0.2-1.1c0,0,0-0.1,0-0.1C173.8,181.9,173.8,181.9,173.7,181.8L173.7,181.8
		L173.7,181.8z M176,181.5L176,181.5c0,0.1-0.1,0.1-0.1,0.1c0,0,0,0.1,0,0.1l0,0.5l0.8-0.1l0-0.5c0,0,0-0.1,0-0.1c0,0,0,0-0.1,0
		l0-0.1l0.5,0l0,0.1c0,0-0.1,0-0.1,0c0,0,0,0,0,0.1l0.1,1.1c0,0,0,0.1,0,0.1c0,0,0,0,0.1,0l0,0.1l-0.5,0l0-0.1c0,0,0.1,0,0.1-0.1
		c0,0,0,0,0-0.1l0-0.5l-0.8,0.1l0,0.5c0,0,0,0.1,0,0.1c0,0,0,0,0.1,0l0,0.1l-0.5,0l0-0.1c0,0,0.1,0,0.1-0.1c0,0,0,0,0-0.1l-0.1-1.1
		c0,0,0-0.1,0-0.1c0,0,0,0-0.1,0l0-0.1L176,181.5L176,181.5z M177.3,181.4L177.3,181.4c0.1,0,0.1,0,0.1,0c0,0,0,0,0.1,0l1,0
		c0,0,0.1,0,0.1,0c0,0,0,0,0.1,0l0.1,0l0,0.4l-0.1,0c0-0.1-0.1-0.1-0.1-0.2c-0.1,0-0.1-0.1-0.2-0.1l-0.1,0l0,1.2c0,0,0,0.1,0,0.1
		c0,0,0,0,0.1,0l0,0.1l-0.5,0l0-0.1c0,0,0.1,0,0.1,0c0,0,0,0,0-0.1l0-1.2l-0.1,0c-0.1,0-0.2,0-0.2,0.1c-0.1,0-0.1,0.1-0.1,0.2
		l-0.1,0L177.3,181.4L177.3,181.4z M178.6,183C178.7,183,178.7,183,178.6,183c0.1-0.1,0.2-0.1,0.2-0.1l0.6-0.9c0,0,0,0,0-0.1
		c0,0,0,0,0-0.1c0,0,0,0,0,0c0,0,0,0-0.1,0l0-0.1c0.1,0,0.1,0,0.2,0c0,0,0.1,0,0.1-0.1l0.1,0l0.4,1.3c0,0.1,0.1,0.1,0.1,0.2
		c0,0,0.1,0.1,0.1,0.1l0,0.1l-0.6-0.1l0-0.1c0,0,0.1,0,0.1,0c0,0,0,0,0-0.1c0,0,0,0,0,0c0,0,0,0,0,0l0-0.1l-0.7-0.1l-0.1,0.1
		c0,0.1,0,0.1,0,0.1c0,0,0.1,0.1,0.1,0.1l0,0.1L178.6,183L178.6,183L178.6,183z M179.5,182l-0.4,0.6l0,0l0.6,0.1l0,0L179.5,182
		L179.5,182L179.5,182z M182.6,183.6l0,0.1c-0.1,0.1-0.3,0.1-0.4,0.1c-0.1,0-0.2,0-0.3,0c-0.2-0.1-0.4-0.2-0.5-0.4
		c-0.1-0.2-0.1-0.4,0-0.6c0.1-0.2,0.2-0.4,0.4-0.5c0.2-0.1,0.4-0.1,0.6,0c0,0,0.1,0,0.1,0c0,0,0.1,0,0.1,0.1c0,0,0.1,0,0.1,0
		c0,0,0,0,0.1,0c0,0,0,0,0,0c0,0,0,0,0,0c0,0,0,0,0,0c0,0,0,0,0,0l0.1,0l-0.1,0.3l-0.1,0c0-0.1,0-0.2-0.1-0.2
		c-0.1-0.1-0.1-0.1-0.2-0.2c0,0,0,0,0,0c0,0,0,0,0,0c-0.1,0-0.2,0-0.3,0.1c-0.1,0.1-0.2,0.2-0.2,0.4c-0.1,0.2-0.1,0.4,0,0.5
		c0,0.1,0.1,0.2,0.3,0.3c0.1,0,0.1,0,0.2,0C182.4,183.7,182.5,183.7,182.6,183.6L182.6,183.6z M183.3,182.7l1,0.4c0,0,0.1,0,0.1,0
		c0,0,0,0,0,0l0,0l-0.2,0.4l-0.1,0c0-0.1,0-0.2,0-0.2c0-0.1-0.1-0.1-0.2-0.2l-0.3-0.1l-0.2,0.5l0.2,0.1c0.1,0,0.1,0,0.1,0
		c0,0,0.1,0,0.1-0.1l0.1,0l-0.2,0.4l-0.1,0c0,0,0-0.1,0-0.1c0,0,0-0.1-0.1-0.1l-0.3-0.1l-0.3,0.6l0.5,0.2c0.1,0,0.2,0,0.2,0
		c0.1,0,0.1-0.1,0.2-0.1l0.1,0l-0.2,0.4l-1.3-0.6l0-0.1c0,0,0.1,0,0.1,0c0,0,0.1,0,0.1-0.1l0.4-1c0,0,0-0.1,0-0.1
		C183.4,182.8,183.3,182.8,183.3,182.7L183.3,182.7L183.3,182.7z M184.1,184.7L184.1,184.7c0.1-0.1,0.1,0,0.1-0.1c0,0,0.1,0,0.1-0.1
		l0.5-0.7c0.1-0.1,0.2-0.2,0.3-0.2c0.1,0,0.3,0,0.4,0.1c0.1,0.1,0.2,0.2,0.3,0.3c0,0.1,0,0.3-0.1,0.4c-0.1,0.1-0.1,0.2-0.2,0.2
		c-0.1,0-0.2,0.1-0.3,0c0,0-0.1,0-0.1,0c0,0-0.1,0-0.1,0c-0.1,0-0.1-0.1-0.1-0.1c0,0-0.1-0.1-0.1-0.1l-0.2,0.3c0,0,0,0.1,0,0.1
		c0,0,0,0.1,0,0.1l0,0.1L184.1,184.7L184.1,184.7z M185.1,183.9l-0.2,0.3c0,0,0,0.1,0,0.2c0,0.1,0.1,0.1,0.1,0.1c0.1,0,0.1,0,0.2,0
		c0.1,0,0.1-0.1,0.2-0.2c0.1-0.1,0.1-0.2,0.1-0.3c0-0.1,0-0.1-0.1-0.2c-0.1,0-0.1,0-0.2,0C185.2,183.8,185.2,183.9,185.1,183.9
		L185.1,183.9z M186.3,184.2L186.3,184.2c0.1,0.1,0.1,0.1,0.1,0.1c0,0,0,0,0.1,0.1l0.8,0.6c0,0,0,0,0.1,0c0,0,0,0,0.1,0l0.1,0.1
		l-0.2,0.3l-0.1,0c0-0.1,0-0.2,0-0.2c0-0.1-0.1-0.1-0.1-0.2l-0.1-0.1l-0.8,1c0,0,0,0.1,0,0.1c0,0,0,0.1,0,0.1l0,0.1l-0.4-0.3l0-0.1
		c0,0,0.1,0,0.1,0c0,0,0,0,0.1-0.1l0.8-1l-0.1-0.1c-0.1-0.1-0.1-0.1-0.2-0.1c-0.1,0-0.1,0-0.2,0.1l-0.1,0L186.3,184.2L186.3,184.2z
		 M187.6,185.3l0.4,0.4l-0.1,0.1c0,0-0.1,0-0.1,0c0,0,0,0-0.1,0l-0.6,0.6l0,0l1-0.1l0.1-0.1c0,0,0,0,0-0.1c0,0,0-0.1,0-0.1l0.1-0.1
		l0.4,0.4l-0.1,0.1c0,0-0.1,0-0.1,0c0,0-0.1,0-0.1,0l-0.8,0.8c0,0,0,0.1,0,0.1c0,0,0,0.1,0,0.1l-0.1,0.1l-0.4-0.4l0.1-0.1
		c0,0,0.1,0,0.1,0c0,0,0.1,0,0.1,0l0.6-0.6l0,0l-1,0.1l-0.1,0.1c0,0,0,0.1,0,0.1c0,0,0,0.1,0,0.1l-0.1,0.1l-0.4-0.4l0.1-0.1
		c0,0,0.1,0,0.1,0c0,0,0.1,0,0.1,0l0.8-0.8c0,0,0-0.1,0-0.1C187.6,185.4,187.6,185.4,187.6,185.3L187.6,185.3L187.6,185.3z
		 M189.4,187.2l0.3,0.4l-0.1,0c0,0-0.1,0-0.1,0c0,0-0.1,0-0.1,0l-0.1,0.1l0,0c0.1,0,0.1,0,0.2,0c0,0,0.1,0.1,0.1,0.1
		c0.1,0.1,0.1,0.2,0.1,0.4c0,0.1-0.1,0.2-0.2,0.4c-0.1,0.1-0.2,0.1-0.4,0.1c-0.1,0-0.2-0.1-0.3-0.2c0,0-0.1-0.1-0.1-0.2
		c0-0.1,0-0.1,0-0.2l0,0l-0.2,0.1c0,0-0.1,0.1-0.1,0.1c0,0,0,0.1,0,0.1l-0.1,0l-0.3-0.4l0.1,0c0,0,0,0,0,0c0,0,0,0,0,0
		c0,0,0.1,0,0.1,0c0,0,0.1,0,0.1,0l0.2-0.1l0,0c-0.1,0-0.1,0-0.2,0c-0.1,0-0.1-0.1-0.1-0.1c-0.1-0.1-0.1-0.2-0.1-0.3
		c0-0.1,0.1-0.2,0.2-0.3c0.1-0.1,0.3-0.2,0.4-0.2c0.1,0,0.2,0.1,0.3,0.2c0,0,0.1,0.1,0.1,0.1c0,0.1,0,0.1,0,0.2l0,0l0.1-0.1
		c0,0,0.1-0.1,0.1-0.1C189.4,187.3,189.4,187.3,189.4,187.2L189.4,187.2L189.4,187.2z M188.9,187.8l0.1-0.1c0.1-0.1,0.1-0.1,0.1-0.2
		c0-0.1,0-0.1,0-0.2c0,0-0.1-0.1-0.2-0.1c-0.1,0-0.1,0.1-0.3,0.1c-0.1,0.1-0.2,0.2-0.2,0.2c0,0.1,0,0.1,0,0.2c0,0,0.1,0.1,0.2,0.1
		C188.7,187.9,188.8,187.9,188.9,187.8L188.9,187.8z M189.2,188l-0.1,0.1c-0.1,0.1-0.1,0.1-0.1,0.2c0,0.1,0,0.1,0,0.2
		c0,0,0.1,0.1,0.2,0.1c0.1,0,0.2-0.1,0.3-0.2c0.1-0.1,0.2-0.2,0.2-0.2c0-0.1,0-0.1,0-0.2c0-0.1-0.1-0.1-0.2-0.1
		C189.4,187.9,189.3,187.9,189.2,188L189.2,188z M190.4,188.5l0.3,0.5l-0.1,0c0,0-0.1,0-0.1-0.1c0,0,0,0-0.1,0l-0.7,0.4l0,0l1,0.2
		l0.1-0.1c0,0,0,0,0.1-0.1c0,0,0-0.1,0-0.1l0.1,0l0.3,0.5l-0.1,0c0,0,0,0-0.1,0c0,0-0.1,0-0.1,0l-1,0.6c0,0-0.1,0-0.1,0.1
		c0,0,0,0.1,0,0.1l-0.1,0l-0.3-0.5l0.1,0c0,0,0,0,0.1,0.1c0,0,0.1,0,0.1,0l0.7-0.4l0,0l-1-0.2l-0.1,0.1c0,0-0.1,0-0.1,0.1
		c0,0,0,0.1,0,0.1l-0.1,0l-0.3-0.5l0.1,0c0,0,0,0,0.1,0.1c0,0,0.1,0,0.1,0l1-0.6c0,0,0.1,0,0.1-0.1
		C190.4,188.6,190.4,188.6,190.4,188.5L190.4,188.5L190.4,188.5z"/>
	<path class="st2" d="M191.3,190.2l0.2,0.5l-0.1,0c0,0,0,0-0.1-0.1c0,0-0.1,0-0.1,0l-1.1,0.5l0.3,0.6l1.1-0.5c0,0,0.1,0,0.1-0.1
		c0,0,0-0.1,0-0.1l0.1,0l0.2,0.5l-0.1,0c0,0,0,0-0.1-0.1c0,0-0.1,0-0.1,0l-1,0.5c0,0,0,0-0.1,0c0,0,0,0,0,0.1c0,0.1,0,0.1-0.1,0.1
		c0,0-0.1,0.1-0.1,0.1c-0.1,0-0.2,0-0.3,0c-0.1,0-0.2-0.1-0.2-0.2c0,0,0-0.1,0-0.1c0,0,0-0.1,0-0.2c0,0,0-0.1,0-0.1c0,0,0-0.1,0-0.1
		c0-0.1,0-0.1,0-0.2c0,0,0-0.1,0-0.1c0,0,0,0,0,0c0,0,0,0,0,0c0,0,0,0,0,0c0,0,0,0,0,0c0,0,0,0,0,0s0,0,0,0c0,0,0,0,0,0c0,0,0,0,0,0
		c0,0,0,0-0.1,0c0,0,0,0-0.1-0.1c0,0,0-0.1,0-0.1c0,0,0,0,0.1-0.1c0.1,0,0.1,0,0.2,0c0.1,0,0.1,0.1,0.2,0.2c0,0,0,0.1,0.1,0.2
		c0,0.1,0,0.1,0,0.2c0,0.1,0,0.2,0,0.2c0,0,0,0,0,0.1c0,0,0,0.1,0.1,0.1c0,0,0.1,0,0.1,0c0,0,0.1,0,0.1-0.1c0,0,0-0.1,0-0.1
		l-0.6-1.2l0.1,0c0,0,0,0,0.1,0.1c0,0,0.1,0,0.1,0l1-0.5c0,0,0.1,0,0.1-0.1C191.3,190.3,191.3,190.2,191.3,190.2L191.3,190.2
		L191.3,190.2z M192.1,192l0.2,0.5l-0.1,0c0,0-0.1-0.1-0.1-0.1c0,0,0,0-0.1,0l-0.8,0.2l0,0l0.9,0.5l0.1,0c0,0,0.1,0,0.1,0
		c0,0,0-0.1,0-0.1l0.1,0l0.2,0.5l-0.1,0c0,0,0-0.1-0.1-0.1c0,0-0.1,0-0.1,0l-1.1,0.3c0,0-0.1,0-0.1,0c0,0,0,0.1,0,0.1l-0.1,0
		l-0.2-0.5l0.1,0c0,0,0,0.1,0.1,0.1c0,0,0.1,0,0.1,0l0.8-0.2l0,0l-0.9-0.5l-0.1,0c0,0-0.1,0-0.1,0c0,0,0,0.1,0,0.1l-0.1,0l-0.2-0.5
		l0.1,0c0,0,0,0.1,0.1,0.1c0,0,0.1,0,0.1,0l1.1-0.3c0,0,0.1,0,0.1-0.1C192,192.1,192,192,192.1,192L192.1,192L192.1,192z
		 M191.1,194.1L191.1,194.1c0.1,0,0.1,0,0.1,0.1c0,0,0.1,0,0.1,0l0.8-0.2c0.1,0,0.3,0,0.4,0.1c0.1,0.1,0.2,0.2,0.2,0.4
		c0,0.2,0,0.3-0.1,0.4c-0.1,0.1-0.2,0.2-0.3,0.2c-0.1,0-0.2,0-0.3,0c-0.1,0-0.2-0.1-0.2-0.2c0,0,0-0.1-0.1-0.1c0,0,0-0.1,0-0.1
		c0-0.1,0-0.1,0-0.2c0-0.1,0-0.1,0-0.2l-0.4,0.1c0,0-0.1,0-0.1,0c0,0,0,0.1,0,0.1l-0.1,0L191.1,194.1L191.1,194.1z M192.4,194.3
		l-0.4,0.1c-0.1,0-0.1,0-0.1,0.1c0,0.1,0,0.1,0,0.2c0,0.1,0,0.1,0.1,0.1c0.1,0,0.2,0,0.3,0c0.1,0,0.2-0.1,0.3-0.1
		c0,0,0.1-0.1,0.1-0.2c0-0.1,0-0.1-0.1-0.2C192.5,194.3,192.4,194.3,192.4,194.3L192.4,194.3z M192.9,196.2c0,0.2,0,0.4-0.2,0.6
		c-0.1,0.2-0.3,0.3-0.5,0.3c-0.2,0-0.4,0-0.6-0.2c-0.2-0.1-0.3-0.3-0.3-0.5c0-0.2,0-0.4,0.2-0.6c0.1-0.2,0.3-0.2,0.5-0.3
		c0.2,0,0.4,0,0.6,0.2C192.8,195.8,192.9,196,192.9,196.2L192.9,196.2z M192.8,196.2c0-0.2-0.1-0.3-0.2-0.3c-0.1-0.1-0.3-0.1-0.5,0
		c-0.2,0-0.4,0.1-0.5,0.1c-0.1,0.1-0.1,0.2-0.1,0.3c0,0.2,0.1,0.3,0.2,0.3c0.1,0.1,0.3,0.1,0.5,0c0.2,0,0.4-0.1,0.5-0.1
		C192.8,196.4,192.8,196.3,192.8,196.2L192.8,196.2z M193,197.4l0,0.6c0,0.2,0,0.3-0.1,0.4c0,0.1-0.1,0.1-0.2,0.2c0,0,0,0-0.1,0
		c0,0,0,0-0.1,0c-0.1,0-0.2,0-0.2-0.1c-0.1-0.1-0.1-0.2-0.1-0.3l0,0c0,0.1-0.1,0.2-0.2,0.3c-0.1,0.1-0.2,0.1-0.3,0.1
		c-0.1,0-0.2-0.1-0.3-0.2c-0.1-0.1-0.1-0.2-0.1-0.4l0-0.7l0.1,0c0,0,0,0.1,0,0.1c0,0,0,0,0.1,0l1.1,0.1c0,0,0.1,0,0.1,0
		C192.9,197.4,192.9,197.4,193,197.4L193,197.4L193,197.4z M192.8,197.8l-0.6,0l0,0.1c0,0.1,0,0.2,0.1,0.2c0,0.1,0.1,0.1,0.2,0.1
		c0.1,0,0.2,0,0.2-0.1C192.8,198.1,192.8,198,192.8,197.8L192.8,197.8L192.8,197.8z M192.1,197.8l-0.6,0l0,0.1c0,0.1,0,0.2,0.1,0.2
		c0,0.1,0.1,0.1,0.2,0.1c0.1,0,0.2,0,0.2-0.1C192.1,198,192.1,198,192.1,197.8L192.1,197.8L192.1,197.8z M191.4,198.7
		C191.4,198.7,191.4,198.7,191.4,198.7c0.1,0.1,0.1,0.2,0.1,0.2l0.8,0.6c0,0,0,0,0.1,0c0,0,0,0,0.1,0c0,0,0,0,0,0c0,0,0,0,0-0.1
		l0.1,0c0,0.1,0,0.1,0,0.2c0,0,0,0.1,0.1,0.1l0,0.1l-1.3,0.4c-0.1,0-0.2,0-0.2,0.1c0,0-0.1,0.1-0.1,0.1l-0.1,0l0.1-0.6l0.1,0
		c0,0,0,0.1,0,0.1c0,0,0,0,0.1,0c0,0,0,0,0,0c0,0,0,0,0,0l0.2,0l0.1-0.7l-0.1-0.1c-0.1,0-0.1-0.1-0.1,0c0,0-0.1,0.1-0.1,0.1l-0.1,0
		L191.4,198.7L191.4,198.7L191.4,198.7z M192.4,199.6l-0.5-0.4l0,0l-0.1,0.6h0L192.4,199.6L192.4,199.6L192.4,199.6z M192.4,201.3
		L192.4,201.3c-0.1-0.1-0.1-0.1-0.1-0.1c0,0,0,0-0.1-0.1l-0.5-0.1l-0.2,0.7l0.5,0.1c0,0,0.1,0,0.1,0c0,0,0,0,0.1-0.1l0.1,0l-0.1,0.5
		l-0.1,0c0,0,0-0.1,0-0.1c0,0,0,0-0.1,0l-1.1-0.3c0,0-0.1,0-0.1,0c0,0,0,0-0.1,0.1l-0.1,0l0.1-0.5l0.1,0c0,0,0,0.1,0,0.1
		c0,0,0,0,0.1,0l0.5,0.1l0.2-0.7l-0.5-0.1c0,0-0.1,0-0.1,0c0,0,0,0-0.1,0.1l-0.1,0l0.1-0.5l0.1,0c0,0,0,0.1,0,0.1c0,0,0,0,0.1,0
		l1.1,0.3c0,0,0.1,0,0.1,0c0,0,0,0,0.1-0.1l0.1,0L192.4,201.3L192.4,201.3z M190.6,202.1c0,0,0,0.1,0,0.1c0,0,0,0.1,0.1,0.1l0.7,0.8
		c0,0,0,0,0,0c0,0,0,0,0.1,0c0,0,0,0,0,0c0,0,0,0,0-0.1l0.1,0c0,0.1,0,0.1,0,0.2c0,0,0,0.1,0,0.1l0,0.1l-1.3,0c-0.1,0-0.2,0-0.2,0
		c-0.1,0-0.1,0-0.1,0.1l-0.1,0l0.3-0.6l0.1,0c0,0,0,0.1,0,0.1c0,0,0,0.1,0.1,0.1c0,0,0,0,0,0c0,0,0,0,0,0l0.2,0l0.3-0.6l-0.1-0.1
		c0-0.1-0.1-0.1-0.1-0.1c0,0-0.1,0-0.1,0.1l-0.1,0L190.6,202.1L190.6,202.1L190.6,202.1z M191.3,203.2l-0.4-0.5l0,0l-0.2,0.5l0,0
		L191.3,203.2L191.3,203.2L191.3,203.2z"/>
	<path class="st3" d="M180.4,204c-1.5,0.7-2.4,0-3-0.9v-2c0,0.1,0,0.2,0.1,0.3c0.2,0.5,0.5,1.1,1,1.4c0.6,0.3,0.8,0.3,0.3,0.8
		c0.5,0,0.9-0.1,1.3,0c0.2,0.1,0.4,0.2,0.6,0.3C180.7,203.8,180.5,203.9,180.4,204L180.4,204z M177.4,193.4h0.5v0.1
		c0,0.3-0.2,0.6-0.5,0.7V193.4L177.4,193.4z M177.1,189.2c-0.1,0.1-0.3,0.3-0.5,0.2c-0.2-0.1-0.3-0.3-0.3-0.6c0-0.4,0.3-0.8,0.7-0.8
		c0.4,0,0.7,0.3,0.7,0.8c0,0.2,0,0.4-0.2,0.5C177.4,189.5,177.1,189.2,177.1,189.2L177.1,189.2z M176.7,192.9h-0.5v-0.3
		c0-0.3,0.2-0.6,0.5-0.7V192.9L176.7,192.9z M176.7,194.1c-0.3-0.1-0.5-0.4-0.5-0.7v-0.1h0.5V194.1L176.7,194.1z M176.7,196.3
		c-0.2,0.1-0.4,0.1-0.5-0.3c-0.2-0.6-0.5-1.1-1.1-1.5c-0.3-0.2-0.4-0.5-0.5-0.8c-0.2,0.3-0.3,0.7-0.6,0.2c-0.2-0.3-0.6-0.7-1.5-0.7
		c0.1,0.2,0.2,0.3,0.1,0.5c-0.8,0.2-1.4,1.4-0.5,1.9c0.2,0.1,0.5,0.2,0.7,0.1c0.6-0.3,0.4-0.9,0.1-1c-0.4-0.1-0.7,0.1-0.7,0.7
		c-0.5-0.4-0.4-0.8,0.2-1.2c0.4-0.2,1-0.2,0.8,0.3c0.5,0,0.7,0,0.7,0.4c0,0.2,0,0.4,0,0.7c-0.1,0.4-0.3,0.7-0.9,0.9
		c-0.6,0.2-0.7,0-0.7-0.4c-0.2,0.2-0.5,0.6-1.1,0.1c-0.4-0.3-0.7-0.6-1-1c-0.3-0.4,0.1-0.4,0.5-0.5c-0.1-0.3-0.2-0.5-0.3-0.8
		c-0.1-0.3,0-0.6,0.3-0.8c0.5-0.3,1-0.7,1.2-1.4c0.4,0.1,0.8-0.1,1-0.4c0.5,0.3,1,0.2,1.3-0.1c0.4-0.1,0.9,0,1.2,0.1
		c0-0.2,0.2-0.3,0.5-0.3c0.3,0,0.5,0.2,0.7,0.4v0.1l-0.8,0.6v0.8h-0.4c-0.2,0-0.4-0.1-0.4-0.2c0,0,0,0,0,0c0-0.2-0.2-0.4-0.4-0.4
		c-0.2,0-0.4,0.2-0.4,0.4c0,0.1,0,0.1,0,0.1c0,0,0,0,0,0c0.2,0.4,0.5,0.6,1.1,0.6h0.4v0.7l0.8,0.6V196.3L176.7,196.3z M176.7,203.1
		c-0.7,0.9-1.5,1.7-3,0.9c-0.1-0.1-0.3-0.1-0.4-0.2c0.2-0.1,0.4-0.2,0.6-0.3c0.5-0.1,0.9,0,1.3,0c-0.4-0.5-0.2-0.5,0.3-0.8
		c0.5-0.3,0.8-0.9,1-1.4c0-0.1,0-0.2,0.1-0.2V203.1L176.7,203.1z M177.9,192.9h-0.5v-1c0.3,0.1,0.5,0.4,0.5,0.7V192.9L177.9,192.9z
		 M178.1,190.9c0.3,0,0.5,0.1,0.5,0.3c0.4-0.2,0.8-0.3,1.2-0.1c0.3,0.4,0.8,0.4,1.3,0.1c0.2,0.3,0.6,0.5,1,0.4
		c0.2,0.7,0.6,1.1,1.2,1.4c0.3,0.1,0.3,0.5,0.3,0.8c-0.1,0.3-0.2,0.5-0.3,0.8c0.4,0,0.8,0.1,0.5,0.5c-0.3,0.4-0.7,0.7-1,1
		c-0.5,0.4-0.9,0-1.1-0.1c0,0.4-0.1,0.6-0.7,0.4c-0.6-0.2-0.8-0.5-0.9-0.9c0-0.3,0-0.5,0-0.7c0-0.4,0.2-0.4,0.7-0.4
		c-0.2-0.6,0.4-0.6,0.8-0.3c0.6,0.3,0.7,0.8,0.2,1.2c0-0.5-0.3-0.8-0.7-0.7c-0.3,0.1-0.5,0.7,0.1,1c0.2,0.1,0.5,0.1,0.7-0.1
		c0.9-0.5,0.4-1.7-0.5-1.9c-0.1-0.2,0-0.4,0.1-0.5c-0.9,0.1-1.3,0.4-1.5,0.7c-0.3,0.5-0.4,0.1-0.6-0.2c-0.1,0.3-0.2,0.6-0.5,0.8
		c-0.6,0.4-1,0.9-1.1,1.5c-0.1,0.4-0.3,0.4-0.5,0.3v-1.6l0.9-0.7v-0.7h0.4c0.5,0,0.9-0.3,1.1-0.6c0,0,0,0,0,0c0,0,0-0.1,0-0.1
		c0-0.2-0.2-0.4-0.4-0.4c-0.2,0-0.4,0.2-0.4,0.4c0,0,0,0,0,0c-0.1,0.1-0.3,0.2-0.4,0.2h-0.4v-0.8l-0.9-0.7v0
		C177.5,191.1,177.7,191,178.1,190.9L178.1,190.9z M185.3,200c-0.5-0.6-0.9-1.3-1.1-2c-0.2,0.3-0.5,0.4-0.9,0.1
		c-0.5-0.3-1.2-0.4-1.8-0.3c-0.7,0.1-1.2,0.4-2.1,0.3c0.1,0.1,0.3,0.2,0.4,0.4c0.2,0.1,0.1,0.3,0,0.4c-0.3,0.4-0.3,0.9-0.3,1.3
		c0,0.6,0.3,1.1,0.7,1.2c0.5,0.2,1.1,0.1,1.3-0.2c0.4-0.6,0.3-1.1-0.2-1.5c-0.3-0.2-0.6-0.2-0.8,0c-0.2,0.2-0.2,0.5,0,0.7
		c0.1,0.1,0.3,0.2,0.5,0c0.1-0.1,0.2-0.1,0.2,0c0.1,0.1,0.1,0.3,0,0.4c-0.2,0.2-0.6,0.3-0.9,0.1c-0.3-0.1-0.5-0.4-0.5-0.8
		c0-0.5,0.1-1,0.6-1.4c0.3-0.3,0.6-0.2,0.8,0.1c0.5-0.2,0.9-0.5,1.7-0.4c0.2,0,0.4,0.1,0.4,0.2c-0.1,0.1-0.2,0.3-0.3,0.4
		c0.8,0,1.2,0.3,1.2,0.8c0,0.5-0.1,1,0.1,1.4c0.1,0.2,0.3,0.3,0.1,0.5c-0.2,0.2-0.3,0.4-0.1,0.7c-0.3,0-0.5,0.2-0.7,0.4
		c-0.1,0.2-0.2,0.3-0.4,0.4c-0.3,0.2-0.6,0.3-0.9,0.3c-0.2,0-0.4,0-0.6-0.1c0.3-0.4,0.6-0.8,0.9-1.3c0.3,0,0.4,0.3,0.6,0.5
		c-0.1-0.7-0.1-1.5-0.1-2.2c-0.5,0.5-1.1,0.9-1.7,1.1c0.3,0.1,0.5,0.1,0.7,0.3c-0.3,0.5-0.6,1-1,1.3c0,0-0.1,0-0.1,0
		c-0.5-0.1-0.9-0.4-1.2-1c-0.4,0.4-0.6,0.2-0.6-0.1c-0.1-0.5-0.4-0.9-0.9-1.1c-0.2-0.1-0.2-0.2,0-0.3c0.2-0.1,0.4,0,0.5,0
		c-0.3-0.3-0.5-0.6-0.5-1.2c0-0.3-0.2-0.5-0.6-0.5c0.6-0.5,0.8-1,0-1.4c0.4-0.2,0.6-0.5,0.7-1c0.2,0,0.5,0,0.7,0
		c-0.2-0.2-0.4-0.5-0.7-0.7c0.3-0.7,0.6-1.2,1.1-1.2c-0.1,0.7,0.1,1.4,0.4,1.7c0.4,0.3,0.8,0.5,1.6,0.4c0.3,0,0.4,0.2,0.4,0.4
		c0.4-0.2,0.7-0.5,1.2-0.6c0.6-0.1,0.9-0.5,0.9-1.1c0-0.2,0-0.4,0.1-0.6c0.1-0.4,0.3-0.4,0.6-0.4c-0.2-0.1-0.5-0.4-0.6-0.7
		c-0.1-0.4-0.2-0.7-0.2-1.1c-0.1-0.7-0.6-1.4-1.3-1.5c-0.2,0-0.5,0-0.6-0.3c-0.1-0.3-0.2-0.4-0.5-0.3c-0.3,0.1-0.4,0-0.6-0.3
		c-0.2-0.4-0.5-0.6-1-0.3c-0.5,0.3-1,0.4-1.4,0c-0.1,0.3-0.2,0.4-0.4,0.4c-0.3,0-0.6,0.1-0.8,0.3v-0.7c0.6-0.2,1.1-0.7,1.1-1.4
		c0-0.8-0.6-1.4-1.4-1.4c-0.8,0-1.4,0.6-1.4,1.4c0,0.7,0.5,1.2,1.1,1.4v0.7c-0.3-0.2-0.5-0.3-0.8-0.2c-0.2,0-0.3-0.1-0.4-0.4
		c-0.5,0.4-0.9,0.3-1.4,0c-0.5-0.3-0.9-0.1-1,0.3c-0.1,0.3-0.3,0.4-0.5,0.3c-0.3-0.1-0.5,0-0.5,0.3c-0.1,0.3-0.3,0.3-0.6,0.3
		c-0.7,0.1-1.2,0.7-1.3,1.5c-0.1,0.4-0.1,0.7-0.3,1.1c-0.1,0.3-0.3,0.6-0.6,0.7c0.3,0,0.5,0,0.6,0.4c0,0.2,0,0.4,0.1,0.6
		c0.1,0.6,0.3,1,0.9,1.1c0.5,0.1,0.8,0.3,1.2,0.6c0-0.2,0.1-0.4,0.4-0.4c0.9,0.1,1.2-0.1,1.6-0.4c0.4-0.3,0.5-1,0.4-1.7
		c0.4,0.1,0.8,0.5,1.1,1.2c-0.2,0.2-0.4,0.5-0.7,0.7c0.2,0,0.5,0,0.7,0c0.1,0.5,0.3,0.9,0.7,1c-0.8,0.5-0.6,0.9,0,1.4
		c-0.4,0.1-0.6,0.2-0.6,0.5c0,0.6-0.2,0.9-0.5,1.2c0.2,0,0.4,0,0.5,0c0.2,0.1,0.2,0.2,0,0.3c-0.5,0.3-0.8,0.6-0.9,1.1
		c0,0.2-0.2,0.5-0.6,0.1c-0.2,0.6-0.7,0.9-1.2,1c0,0-0.1,0-0.1,0c-0.4-0.4-0.7-0.8-1-1.3c0.2-0.2,0.5-0.3,0.7-0.3
		c-0.6-0.3-1.1-0.6-1.6-1.1c0,0.7,0,1.5-0.1,2.2c0.2-0.3,0.4-0.5,0.6-0.5c0.2,0.5,0.6,0.9,0.9,1.3c-0.2,0-0.4,0.1-0.6,0.1
		c-0.3,0-0.6-0.1-0.9-0.3c-0.2-0.1-0.3-0.3-0.4-0.4c-0.1-0.2-0.4-0.4-0.7-0.4c0.1-0.3,0.1-0.5-0.1-0.7c-0.2-0.2,0-0.3,0.1-0.5
		c0.2-0.3,0.1-0.9,0.1-1.4c0-0.5,0.4-0.8,1.2-0.8c-0.1-0.1-0.2-0.3-0.3-0.4c0.1-0.1,0.2-0.2,0.4-0.2c0.8-0.1,1.2,0.2,1.7,0.4
		c0.3-0.4,0.5-0.4,0.8-0.1c0.4,0.4,0.6,0.9,0.6,1.4c0,0.4-0.2,0.6-0.5,0.8c-0.4,0.2-0.7,0.1-0.9-0.1c-0.1-0.1-0.1-0.3,0-0.4
		c0.1-0.1,0.2-0.1,0.2,0c0.2,0.2,0.4,0.2,0.5,0c0.2-0.2,0.2-0.5,0-0.7c-0.2-0.2-0.5-0.3-0.8,0c-0.5,0.4-0.6,0.9-0.2,1.5
		c0.3,0.4,0.8,0.4,1.3,0.2c0.5-0.2,0.7-0.6,0.7-1.2c0-0.4,0-0.9-0.3-1.3c-0.1-0.1-0.1-0.2,0-0.4c0.1-0.1,0.3-0.2,0.4-0.4
		c-0.9,0.1-1.4-0.2-2.1-0.3c-0.6-0.1-1.3,0-1.8,0.3c-0.5,0.3-0.7,0.2-0.9-0.1c-0.2,0.8-0.7,1.4-1.1,2c-0.3,0.4-0.4,0.9-0.1,1.4
		c0.1,0.2,0.2,0.3,0.2,0.6c0,0.3,0,0.6,0.3,0.7c0.2,0.1,0.3,0.3,0.4,0.7c0.1,0.5,0.7,0.7,1.2,0.8c0.5,0.2,1.1,0.1,1.7-0.1
		c0.1,0,0.1,0,0.2,0c0.3,0.3,0.5,0.5,0.7,0.6c1.2,0.7,3,0.9,3.7,2c0,0,0,0,0,0c0,0,0,0,0,0c0.8-1.2,2.5-1.3,3.7-2
		c0.2-0.1,0.5-0.3,0.7-0.6c0.1,0,0.1,0,0.2,0c0.6,0.2,1.2,0.3,1.7,0.1c0.4-0.1,1.1-0.4,1.2-0.8c0.1-0.3,0.1-0.6,0.4-0.7
		c0.3-0.1,0.3-0.4,0.3-0.7c0-0.3,0.1-0.4,0.2-0.6C185.7,200.9,185.6,200.4,185.3,200L185.3,200z"/>
	<path class="st4" d="M195.9,197c0,10.3-8.4,18.7-18.7,18.7c-10.3,0-18.7-8.4-18.7-18.7c0-10.3,8.4-18.7,18.7-18.7
		C187.5,178.2,195.9,186.6,195.9,197L195.9,197z"/>
	<path class="st4" d="M165.7,197c0-6.3,5.1-11.5,11.5-11.5c6.3,0,11.5,5.1,11.5,11.5c0,3.1-1.2,5.9-3.2,7.9l7.8,0
		c1.2-2.4,1.8-5.1,1.8-7.9c0-9.9-8-18-18-18c-9.9,0-18,8-18,18c0,2.8,0.7,5.5,1.8,7.9l7.8,0C166.9,202.8,165.7,200,165.7,197
		L165.7,197z"/>
</g>
<g>
	<circle class="st5" cx="177.1" cy="149.6" r="19"/>
	<g>
		<polygon class="st6" points="177,134 176.5,135.5 174.9,135.5 176.2,136.5 175.7,138 177,137.1 178.3,138 177.8,136.5 
			179.2,135.5 177.5,135.5 		"/>
		<polygon class="st6" points="177,161 176.5,162.5 174.9,162.5 176.2,163.5 175.7,165.1 177,164.1 178.3,165.1 177.8,163.5 
			179.2,162.5 177.5,162.5 		"/>
		<polygon class="st6" points="163.5,147.5 163,149 161.4,149 162.7,150 162.2,151.6 163.5,150.6 164.8,151.6 164.3,150 165.7,149 
			164,149 		"/>
		<polygon class="st6" points="169,139.9 170.3,138.9 171.6,139.9 171.1,138.3 172.4,137.3 170.8,137.3 170.3,135.8 169.8,137.3 
			168.1,137.3 169.5,138.3 		"/>
		<polygon class="st6" points="166.7,144.8 166.2,143.2 167.5,142.3 165.8,142.3 165.3,140.7 164.8,142.3 163.2,142.3 164.5,143.2 
			164,144.8 165.3,143.8 		"/>
		<polygon class="st6" points="167.5,155.8 165.8,155.8 165.3,154.2 164.8,155.8 163.2,155.8 164.5,156.7 164,158.3 165.3,157.3 
			166.7,158.3 166.2,156.7 		"/>
		<polygon class="st6" points="172.4,160.7 170.8,160.7 170.3,159.2 169.8,160.7 168.1,160.7 169.5,161.7 169,163.2 170.3,162.3 
			171.6,163.2 171.1,161.7 		"/>
		<polygon class="st6" points="190.5,147.5 191,149 192.7,149 191.3,150 191.9,151.6 190.5,150.6 189.2,151.6 189.7,150 188.4,149 
			190,149 		"/>
		<polygon class="st6" points="185.1,139.9 183.8,138.9 182.5,139.9 183,138.3 181.6,137.3 183.3,137.3 183.8,135.8 184.3,137.3 
			185.9,137.3 184.6,138.3 		"/>
		<polygon class="st6" points="187.4,144.8 187.9,143.2 186.6,142.3 188.2,142.3 188.7,140.7 189.2,142.3 190.9,142.3 189.5,143.2 
			190,144.8 188.7,143.8 		"/>
		<polygon class="st6" points="186.6,155.8 188.2,155.8 188.7,154.2 189.2,155.8 190.9,155.8 189.5,156.7 190,158.3 188.7,157.3 
			187.4,158.3 187.9,156.7 		"/>
		<polygon class="st6" points="181.6,160.7 183.3,160.7 183.8,159.2 184.3,160.7 185.9,160.7 184.6,161.7 185.1,163.2 183.8,162.3 
			182.5,163.2 183,161.7 		"/>
	</g>
	<linearGradient id="SVGID_1_" gradientUnits="userSpaceOnUse" x1="167.9424" y1="149.5059" x2="186.1084" y2="149.5059">
		<stop  offset="0" style="stop-color:#66CEF6"/>
		<stop  offset="1" style="stop-color:#0058A9"/>
	</linearGradient>
	<circle class="st7" cx="177" cy="149.5" r="9.1"/>
</g>
</svg>
