<svg width="124" height="124" viewBox="0 0 124 124" xmlns="http://www.w3.org/2000/svg"><title>contact</title><g transform="translate(1 1)" stroke="#000" fill="none" fill-rule="evenodd"><path d="M30.464 33.635c0-4.21 3.426-7.635 7.635-7.635h46.843c4.21 0 7.635 3.426 7.635 7.635v57.977c0 4.21-3.426 7.635-7.635 7.635H38.1c-4.21 0-7.636-3.426-7.636-7.635m5.41-48.718H23.018M35.875 55.7H23.017m12.858 13.81H23.017m0 12.846h12.858m9.148-3.17c.073.5.503.87 1.008.87h32.524c.505 0 .934-.37 1.008-.87.05-.35 1.192-8.652-3.126-13.64-2.063-2.383-4.998-3.59-8.722-3.59-.27 0-.497.132-.683.314l-.025-.027c-.018.018-1.8 1.7-4.71 1.7s-4.694-1.682-4.708-1.696l-.026.027c-.186-.184-.415-.32-.686-.32-3.724 0-6.66 1.21-8.722 3.592-4.32 4.99-3.18 13.29-3.13 13.64zm17.27-13.21c1.198 0 2.224-.23 3.096-.533l-3.097 6.414-3.098-6.415c.873.305 1.9.535 3.098.535zm9.508-15.22c0-5.243-4.264-9.507-9.506-9.507s-9.51 4.264-9.51 9.506c0 5.243 4.268 9.51 9.51 9.51s9.507-4.267 9.507-9.51z"/><circle cx="61" cy="61" r="61"/></g></svg>