<?xml version="1.0" standalone="no"?><!DOCTYPE svg PUBLIC "-//W3C//DTD SVG 1.1//EN" "http://www.w3.org/Graphics/SVG/1.1/DTD/svg11.dtd"><svg width="100%" height="100%" viewBox="0 0 642 502" version="1.1" xmlns="http://www.w3.org/2000/svg" xmlns:xlink="http://www.w3.org/1999/xlink" xml:space="preserve" style="fill-rule:evenodd;clip-rule:evenodd;stroke-miterlimit:1.41421;"><g id="menAll"><rect id="Rectangle-1" x="1" y="1" width="640" height="500" style="fill:none;stroke-width:1px;stroke:#979797;"/><g><g id="penis men"><circle cx="546" cy="326" r="45" style="fill:#fff;stroke-width:1.29px;stroke-linecap:round;stroke-linejoin:round;stroke:#b3b3b3;"/><path d="M557.229,303.371c0,3.686 -5.058,6.686 -11.229,6.686c-6.171,0 -11.229,-3 -11.229,-6.686c0,-3.685 5.058,-5.142 11.229,-5.142c6.171,0 11.229,1.457 11.229,5.142Z" style="fill:none;stroke-width:1.29px;stroke-linecap:round;stroke-linejoin:round;stroke:#b3b3b3;"/><g><path d="M546,362.771l0,-35.314c0,-11.657 8.914,-12.257 10.029,-11.571c1.971,1.2 0.942,2.914 0.085,4.028c-0.857,1.115 -2.828,2.486 -2.828,5.829c0,3.343 0,20.657 0,22.286c0,1.2 1.114,0 2.143,2.314c0.942,2.314 -1.8,10.028 -4.715,11.4c-2.314,1.114 -4.714,1.028 -4.714,1.028Z" style="fill:none;stroke-width:1.29px;stroke-linecap:round;stroke-linejoin:round;stroke:#ed1e79;"/><path d="M546,362.771l0,-35.314c0,-11.657 -8.914,-12.257 -10.029,-11.571c-1.971,1.2 -0.942,2.914 -0.085,4.028c0.857,1.115 2.828,2.486 2.828,5.829c0,3.343 0,20.657 0,22.286c0,1.2 -1.114,0 -2.143,2.314c-0.942,2.314 1.8,10.028 4.715,11.4c2.4,1.114 4.714,1.028 4.714,1.028Z" style="fill:none;stroke-width:1.29px;stroke-linecap:round;stroke-linejoin:round;stroke:#ed1e79;"/><path d="M549.771,317.6c-1.028,-0.514 -2.314,-0.771 -3.771,-0.771c-1.457,0 -2.743,0.342 -3.771,0.771" style="fill:none;stroke-width:1.29px;stroke-linecap:round;stroke-linejoin:round;stroke:#ed1e79;"/></g><g><path d="M561.943,325.4c0,0 -1.8,0.6 -1.2,2.314c0.6,1.715 2.314,1.115 2.314,1.115c2.829,-0.943 6.172,1.457 7.372,5.314c1.2,3.857 -0.086,7.714 -2.915,8.657c0,0 -1.628,0.943 -1.2,2.486c0.515,1.543 2.315,0.943 2.315,0.943c4.628,-1.458 6.942,-7.372 5.142,-13.115c-1.8,-5.743 -7.114,-9.171 -11.828,-7.714Z" style="fill:none;stroke-width:1.29px;stroke-linecap:round;stroke-linejoin:round;stroke:#b3b3b3;"/><path d="M567.514,286.743c-4.543,7.8 -7.8,17.657 1.372,25.628c13.714,12 3.943,18.429 3.943,18.429" style="fill:none;stroke-width:1.29px;stroke-linecap:round;stroke-linejoin:round;stroke:#b3b3b3;"/><path d="M529.714,325.4c0,0 1.8,0.6 1.2,2.314c-0.6,1.715 -2.314,1.115 -2.314,1.115c-2.829,-0.943 -6.171,1.457 -7.371,5.314c-1.2,3.857 0.085,7.714 2.914,8.657c0,0 1.628,0.943 1.2,2.486c-0.514,1.543 -2.314,0.943 -2.314,0.943c-4.629,-1.458 -6.943,-7.372 -5.143,-13.115c1.8,-5.743 7.114,-9.171 11.828,-7.714Z" style="fill:none;stroke-width:1.29px;stroke-linecap:round;stroke-linejoin:round;stroke:#b3b3b3;"/><path d="M524.143,286.743c4.543,7.8 7.8,17.657 -1.372,25.628c-13.714,12 -3.942,18.429 -3.942,18.429" style="fill:none;stroke-width:1.29px;stroke-linecap:round;stroke-linejoin:round;stroke:#b3b3b3;"/></g><path d="M563.072,328.918c2.839,-0.908 6.138,1.464 7.363,5.294c1.225,3.83 -0.084,7.676 -2.923,8.584c-2.838,0.908 -6.137,-1.464 -7.363,-5.293c-1.225,-3.83 0.085,-7.676 2.923,-8.585Z" style="fill:none;stroke-width:1.29px;stroke-linecap:round;stroke-linejoin:round;stroke:#b3b3b3;"/><path d="M524.19,342.74c-2.839,-0.908 -4.148,-4.754 -2.923,-8.584c1.225,-3.83 4.524,-6.202 7.363,-5.294c2.838,0.909 4.148,4.755 2.923,8.585c-1.225,3.829 -4.525,6.201 -7.363,5.293Z" style="fill:none;stroke-width:1.29px;stroke-linecap:round;stroke-linejoin:round;stroke:#b3b3b3;"/><g><path d="M320.007,415.68l156.674,-88.984l69.045,0" style="fill:none;stroke-width:0.75px;stroke-linecap:round;stroke-linejoin:round;stroke:#000;"/><circle cx="319.285" cy="416.341" r="5" style="fill:#d93e3e;"/></g></g><g id="men&apos;s testicles"><circle cx="546" cy="176" r="45" style="fill:#fff;stroke-width:1.29px;stroke-linecap:round;stroke-linejoin:round;stroke:#b3b3b3;"/><path d="M557.229,153.371c0,3.686 -5.058,6.686 -11.229,6.686c-6.171,0 -11.229,-3 -11.229,-6.686c0,-3.685 5.058,-5.142 11.229,-5.142c6.171,0 11.229,1.457 11.229,5.142Z" style="fill:none;stroke-width:1.29px;stroke-linecap:round;stroke-linejoin:round;stroke:#b3b3b3;"/><g><path d="M546,212.771l0,-35.314c0,-11.657 8.914,-12.257 10.029,-11.571c1.971,1.2 0.942,2.914 0.085,4.028c-0.857,1.115 -2.828,2.486 -2.828,5.829c0,3.343 0,20.657 0,22.286c0,1.2 1.114,0 2.143,2.314c0.942,2.314 -1.8,10.028 -4.715,11.4c-2.4,1.114 -4.714,1.028 -4.714,1.028Z" style="fill:none;stroke-width:1.29px;stroke-linecap:round;stroke-linejoin:round;stroke:#b3b3b3;"/><path d="M546,212.771l0,-35.314c0,-11.657 -8.914,-12.257 -10.114,-11.571c-1.972,1.2 -0.943,2.914 -0.086,4.028c0.857,1.115 2.829,2.486 2.829,5.829c0,3.343 0,20.657 0,22.286c0,1.2 -1.115,0 -2.143,2.314c-0.943,2.314 1.8,10.028 4.714,11.4c2.4,1.114 4.8,1.028 4.8,1.028Z" style="fill:none;stroke-width:1.29px;stroke-linecap:round;stroke-linejoin:round;stroke:#b3b3b3;"/><path d="M549.686,167.6c-1.029,-0.514 -2.315,-0.771 -3.772,-0.771c-1.457,0 -2.743,0.342 -3.771,0.771" style="fill:none;stroke-width:1.29px;stroke-linecap:round;stroke-linejoin:round;stroke:#b3b3b3;"/></g><g><path d="M561.943,175.4c0,0 -1.8,0.6 -1.2,2.314c0.6,1.715 2.314,1.115 2.314,1.115c2.829,-0.943 6.172,1.457 7.372,5.314c1.2,3.857 -0.086,7.714 -2.915,8.657c0,0 -1.628,0.943 -1.2,2.486c0.515,1.543 2.315,0.943 2.315,0.943c4.628,-1.458 6.942,-7.372 5.142,-13.115c-1.8,-5.743 -7.2,-9.171 -11.828,-7.714Z" style="fill:none;stroke-width:1.29px;stroke-linecap:round;stroke-linejoin:round;stroke:#b3b3b3;"/><path d="M567.429,136.743c-4.543,7.8 -7.8,17.657 1.371,25.628c13.714,12 3.943,18.429 3.943,18.429" style="fill:none;stroke-width:1.29px;stroke-linecap:round;stroke-linejoin:round;stroke:#b3b3b3;"/><path d="M529.629,175.4c0,0 1.8,0.6 1.2,2.314c-0.6,1.715 -2.315,1.115 -2.315,1.115c-2.828,-0.943 -6.171,1.457 -7.371,5.314c-1.2,3.857 0.086,7.714 2.914,8.657c0,0 1.629,0.943 1.2,2.486c-0.514,1.543 -2.314,0.943 -2.314,0.943c-4.629,-1.458 -6.943,-7.372 -5.143,-13.115c1.8,-5.743 7.2,-9.171 11.829,-7.714Z" style="fill:none;stroke-width:1.29px;stroke-linecap:round;stroke-linejoin:round;stroke:#b3b3b3;"/><path d="M524.143,136.743c4.543,7.8 7.8,17.657 -1.372,25.628c-13.714,12 -3.942,18.429 -3.942,18.429" style="fill:none;stroke-width:1.29px;stroke-linecap:round;stroke-linejoin:round;stroke:#b3b3b3;"/></g><path d="M563.07,178.906c2.839,-0.908 6.138,1.464 7.363,5.293c1.225,3.83 -0.084,7.676 -2.923,8.585c-2.838,0.908 -6.137,-1.464 -7.363,-5.294c-1.225,-3.83 0.085,-7.676 2.923,-8.584Z" style="fill:none;stroke-width:1.29px;stroke-linecap:round;stroke-linejoin:round;stroke:#ed1e79;"/><path d="M524.109,192.728c-2.838,-0.908 -4.148,-4.755 -2.923,-8.585c1.225,-3.829 4.525,-6.201 7.363,-5.293c2.838,0.908 4.148,4.755 2.923,8.584c-1.225,3.83 -4.524,6.202 -7.363,5.294Z" style="fill:none;stroke-width:1.29px;stroke-linecap:round;stroke-linejoin:round;stroke:#ed1e79;"/><g><path d="M328.411,400.211l146.789,-224.557l71.708,0" style="fill:none;stroke-width:0.75px;stroke-linecap:round;stroke-linejoin:round;stroke:#000;"/><circle cx="328.285" cy="400.341" r="5" style="fill:#d93e3e;"/></g></g></g><g><g id="prostate men"><circle cx="96" cy="326" r="45" style="fill:#fff;stroke-width:1.29px;stroke-linecap:round;stroke-linejoin:round;stroke:#b3b3b3;"/><path d="M107.314,303.371c0,3.686 -5.057,6.686 -11.228,6.686c-6.172,0 -11.229,-3 -11.229,-6.686c0,-3.685 5.057,-5.142 11.229,-5.142c6.171,0 11.228,1.457 11.228,5.142Z" style="fill:none;stroke-width:1.29px;stroke-linecap:round;stroke-linejoin:round;stroke:#ed1e79;"/><g><path d="M96,362.771l0,-35.314c0,-11.657 8.914,-12.257 10.029,-11.571c1.971,1.2 0.942,2.914 0.085,4.028c-0.857,1.115 -2.828,2.486 -2.828,5.829c0,3.343 0,20.657 0,22.286c0,1.2 1.114,0 2.143,2.314c0.942,2.314 -1.8,10.028 -4.715,11.4c-2.314,1.114 -4.714,1.028 -4.714,1.028Z" style="fill:none;stroke-width:1.29px;stroke-linecap:round;stroke-linejoin:round;stroke:#b3b3b3;"/><path d="M96,362.771l0,-35.314c0,-11.657 -8.829,-12.257 -10.029,-11.571c-1.971,1.2 -0.942,2.914 -0.085,4.028c0.857,1.115 2.828,2.486 2.828,5.829c0,3.343 0,20.657 0,22.286c0,1.2 -1.114,0 -2.143,2.314c-0.942,2.314 1.8,10.028 4.715,11.4c2.4,1.114 4.714,1.028 4.714,1.028Z" style="fill:none;stroke-width:1.29px;stroke-linecap:round;stroke-linejoin:round;stroke:#b3b3b3;"/><path d="M99.771,317.6c-1.028,-0.514 -2.314,-0.771 -3.771,-0.771c-1.457,0 -2.743,0.342 -3.771,0.771" style="fill:none;stroke-width:1.29px;stroke-linecap:round;stroke-linejoin:round;stroke:#b3b3b3;"/></g><g><path d="M112.029,325.4c0,0 -1.8,0.6 -1.2,2.314c0.6,1.715 2.314,1.115 2.314,1.115c2.828,-0.943 6.171,1.457 7.371,5.314c1.2,3.857 -0.085,7.714 -2.914,8.657c0,0 -1.629,0.943 -1.2,2.486c0.514,1.543 2.314,0.943 2.314,0.943c4.629,-1.458 6.943,-7.372 5.143,-13.115c-1.8,-5.743 -7.2,-9.171 -11.828,-7.714Z" style="fill:none;stroke-width:1.29px;stroke-linecap:round;stroke-linejoin:round;stroke:#b3b3b3;"/><path d="M117.514,286.743c-4.543,7.8 -7.8,17.657 1.372,25.628c13.714,12 3.943,18.429 3.943,18.429" style="fill:none;stroke-width:1.29px;stroke-linecap:round;stroke-linejoin:round;stroke:#b3b3b3;"/><path d="M79.714,325.4c0,0 1.8,0.6 1.2,2.314c-0.6,1.715 -2.314,1.115 -2.314,1.115c-2.829,-0.943 -6.171,1.457 -7.371,5.314c-1.2,3.857 0.085,7.714 2.914,8.657c0,0 1.628,0.943 1.2,2.486c-0.514,1.543 -2.314,0.943 -2.314,0.943c-4.629,-1.458 -6.943,-7.372 -5.143,-13.115c1.8,-5.743 7.2,-9.171 11.828,-7.714Z" style="fill:none;stroke-width:1.29px;stroke-linecap:round;stroke-linejoin:round;stroke:#b3b3b3;"/><path d="M74.229,286.743c4.542,7.8 7.8,17.657 -1.372,25.628c-13.714,12 -3.943,18.429 -3.943,18.429" style="fill:none;stroke-width:1.29px;stroke-linecap:round;stroke-linejoin:round;stroke:#b3b3b3;"/></g><path d="M113.074,328.928c2.838,-0.909 6.137,1.463 7.363,5.293c1.225,3.83 -0.085,7.676 -2.923,8.584c-2.839,0.908 -6.138,-1.463 -7.363,-5.293c-1.225,-3.83 0.084,-7.676 2.923,-8.584Z" style="fill:none;stroke-width:1.29px;stroke-linecap:round;stroke-linejoin:round;stroke:#b3b3b3;"/><path d="M74.167,342.723c-2.839,-0.908 -4.148,-4.754 -2.923,-8.584c1.225,-3.83 4.524,-6.202 7.363,-5.294c2.838,0.909 4.148,4.755 2.923,8.585c-1.226,3.829 -4.525,6.201 -7.363,5.293Z" style="fill:none;stroke-width:1.29px;stroke-linecap:round;stroke-linejoin:round;stroke:#b3b3b3;"/><g><path d="M319.835,386.222l-153.685,-59.802l-70.031,0" style="fill:none;stroke-width:0.75px;stroke-linecap:round;stroke-linejoin:round;stroke:#000;"/><circle cx="319.285" cy="385.341" r="5" style="fill:#d93e3e;"/></g></g><g id="urinary bladder"><circle cx="96" cy="176" r="45" style="fill:#fff;stroke-width:1.29px;stroke-linecap:round;stroke-linejoin:round;stroke:#b3b3b3;"/><g><path d="M95.914,217.229c0,-1.8 0.086,-3.772 0.257,-5.915c0.6,-9.771 2.229,-14.914 4.972,-17.143c1.971,-1.628 4.543,-2.571 7.371,-3.514c4.8,-1.628 10.2,-3.514 13.2,-9.257c2.657,-4.971 2.486,-9.429 -0.428,-14.229c-2.4,-3.942 -8.829,-10.885 -25.372,-10.885c-16.543,0 -22.971,6.943 -25.371,10.885c-2.914,4.8 -3.086,9.258 -0.429,14.229c3,5.743 8.486,7.629 13.2,9.257c2.829,0.943 5.4,1.886 7.372,3.514c2.743,2.315 4.371,7.458 4.971,17.143c0.172,2.143 0.257,4.2 0.257,5.915" style="fill:none;stroke-width:1.29px;stroke-linecap:round;stroke-linejoin:round;stroke:#b3b3b3;"/><path d="M96.171,221c-0.085,0 -0.085,0 -0.171,0c-0.086,0 -0.171,0 -0.257,0" style="fill:none;stroke-width:1.29px;stroke-linecap:round;stroke-linejoin:round;stroke:#b3b3b3;"/><path d="M62.486,168.629" style="fill:none;stroke-width:1.29px;stroke-linecap:round;stroke-linejoin:round;stroke:#b3b3b3;"/><path d="M73.286,177.971c0.514,1.543 1.628,2.915 3.171,3.429c0.6,0.171 1.286,0.257 1.886,0.429c1.028,0.257 2.057,0.685 2.828,1.371c0.772,0.686 1.286,1.714 1.286,2.743" style="fill:#fff;fill-rule:nonzero;stroke-width:1.29px;stroke-linecap:round;stroke-linejoin:round;stroke:#b3b3b3;"/><path d="M86.743,184.571c-0.086,1.8 1.028,3.686 2.743,4.372c0.857,0.343 1.8,0.428 2.657,0.771c1.543,0.686 2.657,2.315 2.914,3.943" style="fill:#fff;fill-rule:nonzero;stroke-width:1.29px;stroke-linecap:round;stroke-linejoin:round;stroke:#b3b3b3;"/><path d="M79.543,174.714c0.857,0.857 1.714,1.715 2.914,2.057c0.772,0.172 1.629,0.172 2.4,0.172c1.972,0.086 4.029,0.943 4.8,2.657" style="fill:#fff;fill-rule:nonzero;stroke-width:1.29px;stroke-linecap:round;stroke-linejoin:round;stroke:#b3b3b3;"/><path d="M73.286,172.914c0.6,-1.285 1.971,-2.228 3.428,-2.4c1.029,-0.085 1.972,0.172 3,0.172c1.372,0 2.743,-0.515 3.772,-1.457" style="fill:#fff;fill-rule:nonzero;stroke-width:1.29px;stroke-linecap:round;stroke-linejoin:round;stroke:#b3b3b3;"/><path d="M80.829,165.286c1.628,-1.629 4.114,-2.315 6.428,-1.8c0.943,0.171 1.8,0.6 2.657,0.685c1.543,0.172 3.172,-0.514 4.115,-1.714" style="fill:#fff;fill-rule:nonzero;stroke-width:1.29px;stroke-linecap:round;stroke-linejoin:round;stroke:#b3b3b3;"/><path d="M119.486,177.114c-0.515,1.543 -1.629,2.915 -3.172,3.429c-0.6,0.171 -1.285,0.257 -1.885,0.428c-1.029,0.258 -2.058,0.686 -2.829,1.372c-0.771,0.686 -1.286,1.714 -1.286,2.743" style="fill:#fff;fill-rule:nonzero;stroke-width:1.29px;stroke-linecap:round;stroke-linejoin:round;stroke:#b3b3b3;"/><path d="M106.029,184.571c0.085,1.8 -1.029,3.686 -2.743,4.372c-0.857,0.343 -1.8,0.428 -2.657,0.771c-1.543,0.686 -2.658,2.315 -2.915,3.943" style="fill:#fff;fill-rule:nonzero;stroke-width:1.29px;stroke-linecap:round;stroke-linejoin:round;stroke:#b3b3b3;"/><path d="M113.143,174.114c-0.857,0.857 -1.714,1.715 -2.914,2.057c-0.772,0.172 -1.629,0.172 -2.4,0.172c-1.972,0.086 -4.029,0.943 -4.8,2.657" style="fill:#fff;fill-rule:nonzero;stroke-width:1.29px;stroke-linecap:round;stroke-linejoin:round;stroke:#b3b3b3;"/><path d="M118.286,172.143c-0.6,-1.286 -1.972,-2.229 -3.429,-2.4c-1.028,-0.086 -1.971,0.171 -3,0.171c-1.371,0 -2.743,-0.514 -3.771,-1.457" style="fill:#fff;fill-rule:nonzero;stroke-width:1.29px;stroke-linecap:round;stroke-linejoin:round;stroke:#b3b3b3;"/><path d="M111.171,165.286c-1.628,-1.629 -4.114,-2.315 -6.428,-1.8c-0.943,0.171 -1.8,0.6 -2.657,0.685c-1.543,0.172 -3.172,-0.514 -4.115,-1.714" style="fill:#fff;fill-rule:nonzero;stroke-width:1.29px;stroke-linecap:round;stroke-linejoin:round;stroke:#b3b3b3;"/><path d="M95.829,171.114c-0.6,1.286 -0.943,2.915 -0.343,4.2c0.343,0.686 1.028,1.286 1.2,2.057c0.343,1.2 -0.343,2.486 -1.115,3.515" style="fill:#fff;fill-rule:nonzero;stroke-width:1.29px;stroke-linecap:round;stroke-linejoin:round;stroke:#b3b3b3;"/><path d="M95.914,217.229l0,3.771" style="fill:none;stroke-width:1.29px;stroke-linecap:round;stroke-linejoin:round;stroke:#b3b3b3;"/></g><g><path d="M91.457,220.743c-0.171,-7.629 -0.943,-19.029 -3.943,-21.6c-4.543,-3.857 -17.314,-3.6 -23.314,-15.086c-2.143,-4.114 -2.914,-8.828 -2.229,-13.457c0.172,-1.2 -0.514,-2.314 -1.628,-2.829c-2.829,-1.2 -5.4,-2.828 -7.543,-4.971" style="fill:none;stroke-width:1.29px;stroke-linecap:round;stroke-linejoin:round;stroke:#ed1e79;"/><path d="M135.6,154.829c-1.543,2.142 -3.6,4.028 -6.343,5.4c-1.714,0.857 -3.771,0.514 -5.057,-0.858c-5.314,-5.742 -14.486,-9.771 -28.286,-9.771c-13.714,0 -22.885,4.029 -28.285,9.771c-1.286,1.372 -3.343,1.715 -5.058,0.858c-2.742,-1.372 -4.8,-3.258 -6.342,-5.4" style="fill:none;stroke-width:1.29px;stroke-linecap:round;stroke-linejoin:round;stroke:#ed1e79;"/><path d="M100.371,220.743c0.172,-7.629 0.943,-19.029 3.943,-21.6c4.543,-3.857 17.315,-3.6 23.315,-15.086c2.142,-4.114 2.914,-8.828 2.228,-13.457c-0.171,-1.2 0.514,-2.314 1.629,-2.829c2.828,-1.2 5.4,-2.828 7.543,-4.971" style="fill:none;stroke-width:1.29px;stroke-linecap:round;stroke-linejoin:round;stroke:#ed1e79;"/></g><g><circle cx="311.285" cy="371.341" r="5" style="fill:#d93e3e;"/><path d="M310.939,371.373l-144.961,-195.743l-69.216,0" style="fill:none;stroke-width:0.75px;stroke-linecap:round;stroke-linejoin:round;stroke:#000;"/></g></g></g></g></svg>