<?xml version="1.0" standalone="no"?><!DOCTYPE svg PUBLIC "-//W3C//DTD SVG 1.1//EN" "http://www.w3.org/Graphics/SVG/1.1/DTD/svg11.dtd"><svg width="100%" height="100%" viewBox="0 0 642 502" version="1.1" xmlns="http://www.w3.org/2000/svg" xmlns:xlink="http://www.w3.org/1999/xlink" xml:space="preserve" style="fill-rule:evenodd;clip-rule:evenodd;stroke-miterlimit:1.41421;"><g id="menEndWoman"><rect id="Rectangle-1" x="1" y="1" width="640" height="500" style="fill:none;stroke-width:1px;stroke:#979797;"/><g id="men"><g id="penisWM"><circle cx="591.667" cy="401" r="45" style="fill:#fff;stroke-width:1.29px;stroke-linecap:round;stroke-linejoin:round;stroke:#b3b3b3;"/><path d="M602.895,378.371c0,3.686 -5.057,6.686 -11.228,6.686c-6.172,0 -11.229,-3 -11.229,-6.686c0,-3.685 5.057,-5.142 11.229,-5.142c6.171,0 11.228,1.457 11.228,5.142Z" style="fill:none;stroke-width:1.29px;stroke-linecap:round;stroke-linejoin:round;stroke:#b3b3b3;"/><g><path d="M591.667,437.771l0,-35.314c0,-11.657 8.914,-12.257 10.028,-11.571c1.972,1.2 0.943,2.914 0.086,4.028c-0.857,1.115 -2.829,2.486 -2.829,5.829c0,3.343 0,20.657 0,22.286c0,1.2 1.115,0 2.143,2.314c0.943,2.314 -1.8,10.028 -4.714,11.4c-2.314,1.114 -4.714,1.028 -4.714,1.028Z" style="fill:none;stroke-width:1.29px;stroke-linecap:round;stroke-linejoin:round;stroke:#ed1e79;"/><path d="M591.667,437.771l0,-35.314c0,-11.657 -8.915,-12.257 -10.029,-11.571c-1.971,1.2 -0.943,2.914 -0.086,4.028c0.858,1.115 2.829,2.486 2.829,5.829c0,3.343 0,20.657 0,22.286c0,1.2 -1.114,0 -2.143,2.314c-0.943,2.314 1.8,10.028 4.714,11.4c2.4,1.114 4.715,1.028 4.715,1.028Z" style="fill:none;stroke-width:1.29px;stroke-linecap:round;stroke-linejoin:round;stroke:#ed1e79;"/><path d="M595.438,392.6c-1.028,-0.514 -2.314,-0.771 -3.771,-0.771c-1.457,0 -2.743,0.342 -3.772,0.771" style="fill:none;stroke-width:1.29px;stroke-linecap:round;stroke-linejoin:round;stroke:#ed1e79;"/></g><g><path d="M607.61,400.4c0,0 -1.8,0.6 -1.2,2.314c0.6,1.715 2.314,1.115 2.314,1.115c2.828,-0.943 6.171,1.457 7.371,5.314c1.2,3.857 -0.085,7.714 -2.914,8.657c0,0 -1.629,0.943 -1.2,2.486c0.514,1.543 2.314,0.943 2.314,0.943c4.629,-1.458 6.943,-7.372 5.143,-13.115c-1.8,-5.743 -7.114,-9.171 -11.828,-7.714Z" style="fill:none;stroke-width:1.29px;stroke-linecap:round;stroke-linejoin:round;stroke:#b3b3b3;"/><path d="M613.181,361.743c-4.543,7.8 -7.8,17.657 1.371,25.628c13.715,12 3.943,18.429 3.943,18.429" style="fill:none;stroke-width:1.29px;stroke-linecap:round;stroke-linejoin:round;stroke:#b3b3b3;"/><path d="M575.381,400.4c0,0 1.8,0.6 1.2,2.314c-0.6,1.715 -2.314,1.115 -2.314,1.115c-2.829,-0.943 -6.172,1.457 -7.372,5.314c-1.2,3.857 0.086,7.714 2.915,8.657c0,0 1.628,0.943 1.2,2.486c-0.515,1.543 -2.315,0.943 -2.315,0.943c-4.628,-1.458 -6.943,-7.372 -5.143,-13.115c1.8,-5.743 7.115,-9.171 11.829,-7.714Z" style="fill:none;stroke-width:1.29px;stroke-linecap:round;stroke-linejoin:round;stroke:#b3b3b3;"/><path d="M569.81,361.743c4.542,7.8 7.8,17.657 -1.372,25.628c-13.714,12 -3.943,18.429 -3.943,18.429" style="fill:none;stroke-width:1.29px;stroke-linecap:round;stroke-linejoin:round;stroke:#b3b3b3;"/></g><path d="M608.739,403.918c2.838,-0.908 6.138,1.464 7.363,5.294c1.225,3.83 -0.085,7.676 -2.923,8.584c-2.839,0.908 -6.138,-1.464 -7.363,-5.293c-1.225,-3.83 0.084,-7.676 2.923,-8.585Z" style="fill:none;stroke-width:1.29px;stroke-linecap:round;stroke-linejoin:round;stroke:#b3b3b3;"/><path d="M569.856,417.74c-2.838,-0.908 -4.148,-4.754 -2.923,-8.584c1.226,-3.83 4.525,-6.202 7.363,-5.294c2.839,0.909 4.149,4.755 2.923,8.585c-1.225,3.829 -4.524,6.201 -7.363,5.293Z" style="fill:none;stroke-width:1.29px;stroke-linecap:round;stroke-linejoin:round;stroke:#b3b3b3;"/><g><path d="M365.53,379.944l145.628,20.391l79.896,0" style="fill:none;stroke-width:0.75px;stroke-linecap:round;stroke-linejoin:round;stroke:#000;"/><circle cx="365.285" cy="379.341" r="5" style="fill:#d93e3e;"/></g></g><g id="testiclesWM"><circle cx="591" cy="301" r="45" style="fill:#fff;stroke-width:1.29px;stroke-linecap:round;stroke-linejoin:round;stroke:#b3b3b3;"/><path d="M602.229,278.371c0,3.686 -5.058,6.686 -11.229,6.686c-6.171,0 -11.229,-3 -11.229,-6.686c0,-3.685 5.058,-5.142 11.229,-5.142c6.171,0 11.229,1.457 11.229,5.142Z" style="fill:none;stroke-width:1.29px;stroke-linecap:round;stroke-linejoin:round;stroke:#b3b3b3;"/><g><path d="M591,337.771l0,-35.314c0,-11.657 8.914,-12.257 10.029,-11.571c1.971,1.2 0.942,2.914 0.085,4.028c-0.857,1.115 -2.828,2.486 -2.828,5.829c0,3.343 0,20.657 0,22.286c0,1.2 1.114,0 2.143,2.314c0.942,2.314 -1.8,10.028 -4.715,11.4c-2.4,1.114 -4.714,1.028 -4.714,1.028Z" style="fill:none;stroke-width:1.29px;stroke-linecap:round;stroke-linejoin:round;stroke:#b3b3b3;"/><path d="M591,337.771l0,-35.314c0,-11.657 -8.914,-12.257 -10.114,-11.571c-1.972,1.2 -0.943,2.914 -0.086,4.028c0.857,1.115 2.829,2.486 2.829,5.829c0,3.343 0,20.657 0,22.286c0,1.2 -1.115,0 -2.143,2.314c-0.943,2.314 1.8,10.028 4.714,11.4c2.4,1.114 4.8,1.028 4.8,1.028Z" style="fill:none;stroke-width:1.29px;stroke-linecap:round;stroke-linejoin:round;stroke:#b3b3b3;"/><path d="M594.686,292.6c-1.029,-0.514 -2.315,-0.771 -3.772,-0.771c-1.457,0 -2.743,0.342 -3.771,0.771" style="fill:none;stroke-width:1.29px;stroke-linecap:round;stroke-linejoin:round;stroke:#b3b3b3;"/></g><g><path d="M606.943,300.4c0,0 -1.8,0.6 -1.2,2.314c0.6,1.715 2.314,1.115 2.314,1.115c2.829,-0.943 6.172,1.457 7.372,5.314c1.2,3.857 -0.086,7.714 -2.915,8.657c0,0 -1.628,0.943 -1.2,2.486c0.515,1.543 2.315,0.943 2.315,0.943c4.628,-1.458 6.942,-7.372 5.142,-13.115c-1.8,-5.743 -7.2,-9.171 -11.828,-7.714Z" style="fill:none;stroke-width:1.29px;stroke-linecap:round;stroke-linejoin:round;stroke:#b3b3b3;"/><path d="M612.429,261.743c-4.543,7.8 -7.8,17.657 1.371,25.628c13.714,12 3.943,18.429 3.943,18.429" style="fill:none;stroke-width:1.29px;stroke-linecap:round;stroke-linejoin:round;stroke:#b3b3b3;"/><path d="M574.629,300.4c0,0 1.8,0.6 1.2,2.314c-0.6,1.715 -2.315,1.115 -2.315,1.115c-2.828,-0.943 -6.171,1.457 -7.371,5.314c-1.2,3.857 0.086,7.714 2.914,8.657c0,0 1.629,0.943 1.2,2.486c-0.514,1.543 -2.314,0.943 -2.314,0.943c-4.629,-1.458 -6.943,-7.372 -5.143,-13.115c1.8,-5.743 7.2,-9.171 11.829,-7.714Z" style="fill:none;stroke-width:1.29px;stroke-linecap:round;stroke-linejoin:round;stroke:#b3b3b3;"/><path d="M569.143,261.743c4.543,7.8 7.8,17.657 -1.372,25.628c-13.714,12 -3.942,18.429 -3.942,18.429" style="fill:none;stroke-width:1.29px;stroke-linecap:round;stroke-linejoin:round;stroke:#b3b3b3;"/></g><path d="M608.07,303.906c2.839,-0.908 6.138,1.464 7.363,5.293c1.225,3.83 -0.084,7.676 -2.923,8.585c-2.838,0.908 -6.137,-1.464 -7.363,-5.294c-1.225,-3.83 0.085,-7.676 2.923,-8.584Z" style="fill:none;stroke-width:1.29px;stroke-linecap:round;stroke-linejoin:round;stroke:#ed1e79;"/><path d="M569.109,317.728c-2.838,-0.908 -4.148,-4.755 -2.923,-8.585c1.225,-3.829 4.525,-6.201 7.363,-5.293c2.838,0.908 4.148,4.755 2.923,8.584c-1.225,3.83 -4.524,6.202 -7.363,5.294Z" style="fill:none;stroke-width:1.29px;stroke-linecap:round;stroke-linejoin:round;stroke:#ed1e79;"/><g><path d="M370.153,366.418l141.523,-64.297l80.089,0" style="fill:none;stroke-width:0.75px;stroke-linecap:round;stroke-linejoin:round;stroke:#000;"/><circle cx="370.285" cy="366.341" r="5" style="fill:#d93e3e;"/></g></g><g id="dnaMen"><circle cx="592.333" cy="201" r="45" style="fill:#fff;stroke-width:1.29px;stroke-linecap:round;stroke-linejoin:round;stroke:#b3b3b3;"/><path d="M582.305,192.6l0,16.8" style="fill:none;stroke-width:1.29px;stroke-linecap:round;stroke-linejoin:round;stroke:#b3b3b3;"/><path d="M588.99,189.6l0,22.8" style="fill:none;stroke-width:1.29px;stroke-linecap:round;stroke-linejoin:round;stroke:#b3b3b3;"/><path d="M625.076,192.6l0,16.8" style="fill:none;stroke-width:1.29px;stroke-linecap:round;stroke-linejoin:round;stroke:#b3b3b3;"/><path d="M631.848,189.6l0,22.8" style="fill:none;stroke-width:1.29px;stroke-linecap:round;stroke-linejoin:round;stroke:#b3b3b3;"/><path d="M595.676,189.6l0,22.8" style="fill:none;stroke-width:1.29px;stroke-linecap:round;stroke-linejoin:round;stroke:#b3b3b3;"/><path d="M602.362,192.686l0,16.628" style="fill:none;stroke-width:1.29px;stroke-linecap:round;stroke-linejoin:round;stroke:#b3b3b3;"/><path d="M552.133,189.6l0,22.8" style="fill:none;stroke-width:1.29px;stroke-linecap:round;stroke-linejoin:round;stroke:#b3b3b3;"/><path d="M558.819,192.686l0,16.628" style="fill:none;stroke-width:1.29px;stroke-linecap:round;stroke-linejoin:round;stroke:#b3b3b3;"/><path d="M635.019,186.771c-9.771,0 -15.086,5.743 -19.971,12.086" style="fill:none;stroke-width:1.29px;stroke-linecap:round;stroke-linejoin:round;stroke:#ed1e79;"/><path d="M611.79,203.229c-4.8,6.257 -9.942,12 -19.457,12c-21.428,0 -20.914,-28.372 -42.685,-28.372" style="fill:none;stroke-width:1.29px;stroke-linecap:round;stroke-linejoin:round;stroke:#ed1e79;"/><path d="M635.019,215.229c-21.686,0 -21.514,-28.372 -42.686,-28.372c-9.685,0 -14.828,5.829 -19.714,12.172" style="fill:none;stroke-width:1.29px;stroke-linecap:round;stroke-linejoin:round;stroke:#ed1e79;"/><path d="M569.19,203.571c-4.714,6.172 -9.942,11.658 -19.542,11.658" style="fill:none;stroke-width:1.29px;stroke-linecap:round;stroke-linejoin:round;stroke:#ed1e79;"/><g><path d="M364.762,354.429l146.789,-152.099l79.571,0" style="fill:none;stroke-width:0.75px;stroke-linecap:round;stroke-linejoin:round;stroke:#000;"/><circle cx="364.285" cy="354.341" r="5" style="fill:#d93e3e;"/></g></g><g id="pituitaryM"><circle cx="593" cy="101" r="45" style="fill:#fff;stroke-width:1.29px;stroke-linecap:round;stroke-linejoin:round;stroke:#b3b3b3;"/><g><path d="M615.886,131.514c-0.686,-2.571 -1.115,-5.228 -1.115,-7.885c-0.085,-2.743 0.772,-4.8 2.829,-6.6c1.8,-1.629 4.029,-2.4 5.914,-3.943c1.715,-1.372 3,-3.172 3.686,-5.229c0.771,-2.314 0.771,-4.8 0,-7.114c-0.771,-2.4 -2.571,-4.029 -4.286,-5.743c1.8,-4.2 0.943,-9.514 -2.143,-12.943c-3.085,-3.428 -8.314,-4.714 -12.685,-3.171c-1.8,-3 -5.057,-5.057 -8.486,-5.4c-3.429,-0.343 -7.029,0.857 -9.429,3.343c-3.857,-3 -9.428,-3.686 -13.885,-1.715c-2.229,1.029 -4.286,2.829 -4.8,5.143c-3.943,0.343 -7.972,1.457 -10.629,4.372c-2.657,2.914 -3.428,7.8 -0.771,10.714c-1.8,3.257 -1.543,7.457 0.514,10.543c2.057,3.085 5.914,4.8 9.6,4.371c0.857,3.172 4.457,5.057 7.8,4.8c3.343,-0.257 6.257,-2.228 8.486,-4.628c0.6,3 3.171,5.228 6.085,6.257c2.915,0.943 6,0.771 9,0.171c0.086,1.8 0.172,3.6 0.343,5.4c0.429,3.343 1.2,6.6 2.315,9.772c0,0.085 0.085,0.085 0.085,0.085c0.086,0 0.086,-0.171 0,-0.085" style="fill:none;stroke-width:1.29px;stroke-linecap:round;stroke-linejoin:round;stroke:#b3b3b3;"/><path d="M608.514,131.6c-0.085,-0.086 -0.085,0.171 0.086,0.086c0.086,-0.086 0.086,-0.172 0,-0.257c-0.429,-1.115 -0.771,-2.229 -1.029,-3.343c-1.028,-4.286 -2.142,-9.857 -0.6,-14.143c0.6,-1.8 1.8,-3.257 2.743,-4.8c0.857,-1.286 1.972,-2.572 2.572,-4.029c1.371,-3.085 1.543,-7.028 -0.172,-10.028c-4.2,-7.543 -17.571,-6 -18.428,3.085" style="fill:none;stroke-width:1.29px;stroke-linecap:round;stroke-linejoin:round;stroke:#b3b3b3;"/><path d="M579.971,94.571c2.658,3.258 3.172,8.058 1.115,11.743c-0.086,0.086 -0.257,0.086 -0.172,0" style="fill:none;stroke-width:1.29px;stroke-linecap:round;stroke-linejoin:round;stroke:#b3b3b3;"/><path d="M616.486,85.571c-1.715,0.172 -3.343,1.029 -4.543,2.315c-1.2,1.285 -1.886,3 -1.886,4.714" style="fill:none;stroke-width:1.29px;stroke-linecap:round;stroke-linejoin:round;stroke:#b3b3b3;"/><path d="M598.829,91.229c-2.486,0.514 -5.143,-0.6 -6.943,-2.4c-1.8,-1.8 -2.829,-4.286 -3.343,-6.772c0.171,0.086 0.343,0.086 0.514,0.172" style="fill:none;stroke-width:1.29px;stroke-linecap:round;stroke-linejoin:round;stroke:#b3b3b3;"/><path d="M591.114,88.571c-0.685,2.658 -3,4.543 -5.571,5.486c-3,1.114 -6.514,1.029 -9.429,-0.171c-3,-1.2 -5.485,-3.6 -6.771,-6.6" style="fill:none;stroke-width:1.29px;stroke-linecap:round;stroke-linejoin:round;stroke:#b3b3b3;"/><path d="M575.086,93.286c-2.143,0.257 -4.2,1.371 -5.743,2.914c-1.543,1.543 -2.486,3.686 -2.657,5.829" style="fill:none;stroke-width:1.29px;stroke-linecap:round;stroke-linejoin:round;stroke:#b3b3b3;"/></g><circle cx="598.571" cy="106.657" r="6.429" style="fill:none;stroke-width:1.29px;stroke-linecap:round;stroke-linejoin:round;stroke:#ed1e79;"/><g><path d="M400.84,59.174l110.261,41.367l80.067,-1.805" style="fill:none;stroke-width:0.75px;stroke-linecap:round;stroke-linejoin:round;stroke:#000;"/><circle cx="401.285" cy="59.341" r="5" style="fill:#d93e3e;"/></g></g></g><g id="woman"><g id="uterusW"><circle cx="51" cy="401" r="45" style="fill:#fff;stroke-width:1.29px;stroke-linecap:round;stroke-linejoin:round;stroke:#b3b3b3;"/><g><path d="M51,394.486c4.886,-0.086 9.086,-1.629 13.543,-3.429c-2.657,1.886 -5.057,3.257 -7.2,5.572c-3.257,3.6 -5.486,7.971 -6.343,12.771" style="fill:none;stroke-width:1.29px;stroke-linecap:round;stroke-linejoin:round;stroke:#b3b3b3;"/><g><path d="M82.029,404.857c0,0.257 -0.086,0.686 0.085,0.857c0.086,0.086 0.257,0.172 0.343,0.172c0.514,0.085 0.857,-0.343 1.2,-0.6c0.343,-0.257 0.6,-0.6 0.943,-0.857c0.686,-0.686 1.286,-1.458 1.886,-2.229c1.285,-1.8 2.228,-3.857 2.571,-6c0,-0.086 0,-0.086 0,-0.171c0.772,-4.543 -0.857,-11.229 -8.314,-12.515c-7.457,-1.285 -10.286,3.172 -13.886,3.429" style="fill:none;stroke-width:1.29px;stroke-linecap:round;stroke-linejoin:round;stroke:#b3b3b3;"/><path d="M76.971,395.429c-0.342,-0.086 -0.685,-0.258 -0.771,-0.686c-0.171,-1.029 2.143,-0.943 2.657,-0.857c1.029,0.085 2.057,0.257 3.086,0.343c0.6,0 1.286,0 1.8,-0.343c1.371,-0.857 1.628,-4.972 -3.257,-6.172c-4.886,-1.2 -8.829,1.2 -10.8,3.772" style="fill:none;stroke-width:1.29px;stroke-linecap:round;stroke-linejoin:round;stroke:#b3b3b3;"/><path d="M25.029,395.429c0.342,-0.086 1.114,-0.172 1.028,-0.686c0,-0.172 -0.171,-0.429 -0.343,-0.514c-0.171,-0.086 -0.343,-0.172 -0.6,-0.258c-0.171,0 -0.343,-0.085 -0.428,-0.085c-1.2,-0.172 -2.4,0 -3.6,0.171c-0.943,0.172 -2.143,0.257 -3,-0.257c-1.372,-0.857 -1.629,-4.971 3.257,-6.171c4.886,-1.2 8.828,1.2 10.8,3.771" style="fill:none;stroke-width:1.29px;stroke-linecap:round;stroke-linejoin:round;stroke:#b3b3b3;"/><path d="M35.057,386.943c-3.6,-0.343 -6.428,-4.714 -13.886,-3.429c-7.457,1.2 -9,7.886 -8.314,12.429c0.343,2.228 1.372,4.286 2.657,6.171c0.429,0.686 0.943,1.286 1.457,1.886c0.515,0.514 1.029,1.2 1.715,1.543c0.257,0.171 0.514,0.257 0.771,0.257c0.086,0 0.257,0 0.343,-0.086c0.257,-0.171 0.171,-0.6 0.171,-0.857" style="fill:none;stroke-width:1.29px;stroke-linecap:round;stroke-linejoin:round;stroke:#b3b3b3;"/></g><path d="M51,394.486c-4.886,-0.086 -9.086,-1.629 -13.543,-3.429c2.657,1.886 5.057,3.257 7.2,5.572c3.257,3.6 5.486,7.971 6.343,12.771" style="fill:none;stroke-width:1.29px;stroke-linecap:round;stroke-linejoin:round;stroke:#b3b3b3;"/><path d="M51,409.486l0,30.514" style="fill:none;stroke-width:1.29px;stroke-linecap:round;stroke-linejoin:round;stroke:#b3b3b3;"/></g><g><path d="M32.229,391.4c1.971,2.571 2.228,6.943 5.228,11.229c3,4.285 7.029,4.971 8.143,8.571c1.114,3.6 0.086,13.971 0.171,17.229c0.172,3.342 1.629,10.114 2.572,10.971c0.857,0.857 2.657,0.514 2.657,0.514c0,0 1.8,0.343 2.657,-0.514c0.857,-0.857 2.4,-7.629 2.572,-10.971c0.171,-3.343 -0.943,-13.629 0.171,-17.229c1.114,-3.6 5.143,-4.286 8.143,-8.571c3,-4.286 3.257,-8.658 5.228,-11.229" style="fill:none;stroke-width:1.29px;stroke-linecap:round;stroke-linejoin:round;stroke:#ed1e79;"/><path d="M35.057,386.943c3.6,0.343 8.229,-3.943 15.943,-3.943c7.714,0 12.343,4.286 15.943,3.943" style="fill:none;stroke-width:1.29px;stroke-linecap:round;stroke-linejoin:round;stroke:#ed1e79;"/></g><g><path d="M82.029,404.857c1.285,-0.771 2.142,-1.971 2.314,-3.343c0.428,-2.828 -2.143,-5.571 -5.657,-6.085c-0.6,-0.086 -1.2,-0.086 -1.8,-0.086c-2.743,0.257 -4.972,1.971 -5.315,4.286c-0.428,2.828 2.143,5.571 5.658,6.085c1.8,0.257 3.514,-0.085 4.8,-0.857Z" style="fill:none;stroke-width:1.29px;stroke-linecap:round;stroke-linejoin:round;stroke:#b3b3b3;"/><path d="M19.971,404.857c1.286,0.772 3,1.2 4.8,0.943c3.515,-0.514 6,-3.171 5.658,-6.086c-0.343,-2.314 -2.572,-4.028 -5.315,-4.285c-0.6,-0.086 -1.2,0 -1.8,0.085c-3.514,0.515 -6,3.172 -5.657,6.086c0.172,1.286 1.029,2.486 2.314,3.257Z" style="fill:none;stroke-width:1.29px;stroke-linecap:round;stroke-linejoin:round;stroke:#b3b3b3;"/></g><g><path d="M217.606,345.442l-85.997,55.698l-81.25,0" style="fill:none;stroke-width:0.75px;stroke-linecap:round;stroke-linejoin:round;stroke:#000;"/><circle cx="217.285" cy="344.341" r="5" style="fill:#d93e3e;"/></g></g><g id="ovariesW"><circle cx="51" cy="301" r="45" style="fill:#fff;stroke-width:1.29px;stroke-linecap:round;stroke-linejoin:round;stroke:#b3b3b3;"/><g><path d="M51,294.486c4.886,-0.086 9.086,-1.629 13.543,-3.429c-2.657,1.886 -5.057,3.257 -7.2,5.572c-3.257,3.6 -5.486,7.971 -6.343,12.771" style="fill:none;stroke-width:1.29px;stroke-linecap:round;stroke-linejoin:round;stroke:#b3b3b3;"/><g><path d="M82.029,304.857c0,0.257 -0.086,0.686 0.085,0.857c0.086,0.086 0.257,0.172 0.343,0.172c0.514,0.085 0.857,-0.343 1.2,-0.6c0.343,-0.257 0.6,-0.6 0.943,-0.857c0.686,-0.686 1.286,-1.458 1.886,-2.229c1.285,-1.8 2.228,-3.857 2.571,-6c0,-0.086 0,-0.086 0,-0.171c0.772,-4.543 -0.857,-11.229 -8.314,-12.515c-7.457,-1.285 -10.286,3.172 -13.886,3.429" style="fill:none;stroke-width:1.29px;stroke-linecap:round;stroke-linejoin:round;stroke:#b3b3b3;"/><path d="M76.971,295.429c-0.342,-0.086 -0.685,-0.258 -0.771,-0.686c-0.171,-1.029 2.143,-0.943 2.657,-0.857c1.029,0.085 2.057,0.257 3.086,0.343c0.6,0 1.286,0 1.8,-0.343c1.371,-0.857 1.628,-4.972 -3.257,-6.172c-4.886,-1.2 -8.829,1.2 -10.8,3.772" style="fill:none;stroke-width:1.29px;stroke-linecap:round;stroke-linejoin:round;stroke:#b3b3b3;"/><path d="M25.029,295.429c0.342,-0.086 1.114,-0.172 1.028,-0.686c0,-0.172 -0.171,-0.429 -0.343,-0.514c-0.171,-0.086 -0.343,-0.172 -0.6,-0.258c-0.171,0 -0.343,-0.085 -0.428,-0.085c-1.2,-0.172 -2.4,0 -3.6,0.171c-0.943,0.172 -2.143,0.257 -3,-0.257c-1.372,-0.857 -1.629,-4.971 3.257,-6.171c4.886,-1.2 8.828,1.2 10.8,3.771" style="fill:none;stroke-width:1.29px;stroke-linecap:round;stroke-linejoin:round;stroke:#b3b3b3;"/><path d="M35.057,286.943c-3.6,-0.343 -6.428,-4.714 -13.886,-3.429c-7.457,1.2 -9,7.886 -8.314,12.429c0.343,2.228 1.372,4.286 2.657,6.171c0.429,0.686 0.943,1.286 1.457,1.886c0.515,0.514 1.029,1.2 1.715,1.543c0.257,0.171 0.514,0.257 0.771,0.257c0.086,0 0.257,0 0.343,-0.086c0.257,-0.171 0.171,-0.6 0.171,-0.857" style="fill:none;stroke-width:1.29px;stroke-linecap:round;stroke-linejoin:round;stroke:#b3b3b3;"/></g><path d="M51,294.486c-4.886,-0.086 -9.086,-1.629 -13.543,-3.429c2.657,1.886 5.057,3.257 7.2,5.572c3.257,3.6 5.486,7.971 6.343,12.771" style="fill:none;stroke-width:1.29px;stroke-linecap:round;stroke-linejoin:round;stroke:#b3b3b3;"/><path d="M51,309.486l0,30.514" style="fill:none;stroke-width:1.29px;stroke-linecap:round;stroke-linejoin:round;stroke:#b3b3b3;"/></g><g><path d="M32.229,291.4c1.971,2.571 2.228,6.943 5.228,11.229c3,4.285 7.029,4.971 8.143,8.571c1.114,3.6 0.086,13.971 0.171,17.229c0.172,3.342 1.629,10.114 2.572,10.971c0.857,0.857 2.657,0.514 2.657,0.514c0,0 1.8,0.343 2.657,-0.514c0.857,-0.857 2.4,-7.629 2.572,-10.971c0.171,-3.343 -0.943,-13.629 0.171,-17.229c1.114,-3.6 5.143,-4.286 8.143,-8.571c3,-4.286 3.257,-8.658 5.228,-11.229" style="fill:none;stroke-width:1.29px;stroke-linecap:round;stroke-linejoin:round;stroke:#b3b3b3;"/><path d="M35.057,286.943c3.6,0.343 8.229,-3.943 15.943,-3.943c7.714,0 12.343,4.286 15.943,3.943" style="fill:none;stroke-width:1.29px;stroke-linecap:round;stroke-linejoin:round;stroke:#b3b3b3;"/></g><g><path d="M82.029,304.857c1.285,-0.771 2.142,-1.971 2.314,-3.343c0.428,-2.828 -2.143,-5.571 -5.657,-6.085c-0.6,-0.086 -1.2,-0.086 -1.8,-0.086c-2.743,0.257 -4.972,1.971 -5.315,4.286c-0.428,2.828 2.143,5.571 5.658,6.085c1.8,0.257 3.514,-0.085 4.8,-0.857Z" style="fill:none;stroke-width:1.29px;stroke-linecap:round;stroke-linejoin:round;stroke:#ed1e79;"/><path d="M19.971,304.857c1.286,0.772 3,1.2 4.8,0.943c3.515,-0.514 6,-3.171 5.658,-6.086c-0.343,-2.314 -2.572,-4.028 -5.315,-4.285c-0.6,-0.086 -1.2,0 -1.8,0.085c-3.514,0.515 -6,3.172 -5.657,6.086c0.172,1.286 1.029,2.486 2.314,3.257Z" style="fill:none;stroke-width:1.29px;stroke-linecap:round;stroke-linejoin:round;stroke:#ed1e79;"/></g><g><path d="M212.34,333.132l-81.25,-31.805l-81.226,0" style="fill:none;stroke-width:0.75px;stroke-linecap:round;stroke-linejoin:round;stroke:#000;"/><circle cx="212.285" cy="332.341" r="5" style="fill:#d93e3e;"/></g></g><g id="urinary_bladderWomen"><circle cx="51" cy="201" r="45" style="fill:#fff;stroke-width:1.29px;stroke-linecap:round;stroke-linejoin:round;stroke:#b3b3b3;"/><g><path d="M50.914,242.229c0,-1.8 0.086,-3.772 0.257,-5.915c0.6,-9.771 2.229,-14.914 4.972,-17.143c1.971,-1.628 4.543,-2.571 7.371,-3.514c4.8,-1.628 10.2,-3.514 13.2,-9.257c2.657,-4.971 2.486,-9.429 -0.428,-14.229c-2.4,-3.942 -8.829,-10.885 -25.372,-10.885c-16.543,0 -22.971,6.943 -25.371,10.885c-2.914,4.8 -3.086,9.258 -0.429,14.229c3,5.743 8.486,7.629 13.2,9.257c2.829,0.943 5.4,1.886 7.372,3.514c2.743,2.315 4.371,7.458 4.971,17.143c0.172,2.143 0.257,4.2 0.257,5.915" style="fill:none;stroke-width:1.29px;stroke-linecap:round;stroke-linejoin:round;stroke:#b3b3b3;"/><path d="M51.171,246c-0.085,0 -0.085,0 -0.171,0c-0.086,0 -0.171,0 -0.257,0" style="fill:none;stroke-width:1.29px;stroke-linecap:round;stroke-linejoin:round;stroke:#b3b3b3;"/><path d="M17.486,193.629" style="fill:none;stroke-width:1.29px;stroke-linecap:round;stroke-linejoin:round;stroke:#b3b3b3;"/><path d="M28.286,202.971c0.514,1.543 1.628,2.915 3.171,3.429c0.6,0.171 1.286,0.257 1.886,0.429c1.028,0.257 2.057,0.685 2.828,1.371c0.772,0.686 1.286,1.714 1.286,2.743" style="fill:#fff;fill-rule:nonzero;stroke-width:1.29px;stroke-linecap:round;stroke-linejoin:round;stroke:#b3b3b3;"/><path d="M41.743,209.571c-0.086,1.8 1.028,3.686 2.743,4.372c0.857,0.343 1.8,0.428 2.657,0.771c1.543,0.686 2.657,2.315 2.914,3.943" style="fill:#fff;fill-rule:nonzero;stroke-width:1.29px;stroke-linecap:round;stroke-linejoin:round;stroke:#b3b3b3;"/><path d="M34.543,199.714c0.857,0.857 1.714,1.715 2.914,2.057c0.772,0.172 1.629,0.172 2.4,0.172c1.972,0.086 4.029,0.943 4.8,2.657" style="fill:#fff;fill-rule:nonzero;stroke-width:1.29px;stroke-linecap:round;stroke-linejoin:round;stroke:#b3b3b3;"/><path d="M28.286,197.914c0.6,-1.285 1.971,-2.228 3.428,-2.4c1.029,-0.085 1.972,0.172 3,0.172c1.372,0 2.743,-0.515 3.772,-1.457" style="fill:#fff;fill-rule:nonzero;stroke-width:1.29px;stroke-linecap:round;stroke-linejoin:round;stroke:#b3b3b3;"/><path d="M35.829,190.286c1.628,-1.629 4.114,-2.315 6.428,-1.8c0.943,0.171 1.8,0.6 2.657,0.685c1.543,0.172 3.172,-0.514 4.115,-1.714" style="fill:#fff;fill-rule:nonzero;stroke-width:1.29px;stroke-linecap:round;stroke-linejoin:round;stroke:#b3b3b3;"/><path d="M74.486,202.114c-0.515,1.543 -1.629,2.915 -3.172,3.429c-0.6,0.171 -1.285,0.257 -1.885,0.428c-1.029,0.258 -2.058,0.686 -2.829,1.372c-0.771,0.686 -1.286,1.714 -1.286,2.743" style="fill:#fff;fill-rule:nonzero;stroke-width:1.29px;stroke-linecap:round;stroke-linejoin:round;stroke:#b3b3b3;"/><path d="M61.029,209.571c0.085,1.8 -1.029,3.686 -2.743,4.372c-0.857,0.343 -1.8,0.428 -2.657,0.771c-1.543,0.686 -2.658,2.315 -2.915,3.943" style="fill:#fff;fill-rule:nonzero;stroke-width:1.29px;stroke-linecap:round;stroke-linejoin:round;stroke:#b3b3b3;"/><path d="M68.143,199.114c-0.857,0.857 -1.714,1.715 -2.914,2.057c-0.772,0.172 -1.629,0.172 -2.4,0.172c-1.972,0.086 -4.029,0.943 -4.8,2.657" style="fill:#fff;fill-rule:nonzero;stroke-width:1.29px;stroke-linecap:round;stroke-linejoin:round;stroke:#b3b3b3;"/><path d="M73.286,197.143c-0.6,-1.286 -1.972,-2.229 -3.429,-2.4c-1.028,-0.086 -1.971,0.171 -3,0.171c-1.371,0 -2.743,-0.514 -3.771,-1.457" style="fill:#fff;fill-rule:nonzero;stroke-width:1.29px;stroke-linecap:round;stroke-linejoin:round;stroke:#b3b3b3;"/><path d="M66.171,190.286c-1.628,-1.629 -4.114,-2.315 -6.428,-1.8c-0.943,0.171 -1.8,0.6 -2.657,0.685c-1.543,0.172 -3.172,-0.514 -4.115,-1.714" style="fill:#fff;fill-rule:nonzero;stroke-width:1.29px;stroke-linecap:round;stroke-linejoin:round;stroke:#b3b3b3;"/><path d="M50.829,196.114c-0.6,1.286 -0.943,2.915 -0.343,4.2c0.343,0.686 1.028,1.286 1.2,2.057c0.343,1.2 -0.343,2.486 -1.115,3.515" style="fill:#fff;fill-rule:nonzero;stroke-width:1.29px;stroke-linecap:round;stroke-linejoin:round;stroke:#b3b3b3;"/><path d="M50.914,242.229l0,3.771" style="fill:none;stroke-width:1.29px;stroke-linecap:round;stroke-linejoin:round;stroke:#b3b3b3;"/></g><g><path d="M46.457,245.743c-0.171,-7.629 -0.943,-19.029 -3.943,-21.6c-4.543,-3.857 -17.314,-3.6 -23.314,-15.086c-2.143,-4.114 -2.914,-8.828 -2.229,-13.457c0.172,-1.2 -0.514,-2.314 -1.628,-2.829c-2.829,-1.2 -5.4,-2.828 -7.543,-4.971" style="fill:none;stroke-width:1.29px;stroke-linecap:round;stroke-linejoin:round;stroke:#ed1e79;"/><path d="M90.6,179.829c-1.543,2.142 -3.6,4.028 -6.343,5.4c-1.714,0.857 -3.771,0.514 -5.057,-0.858c-5.314,-5.742 -14.486,-9.771 -28.286,-9.771c-13.714,0 -22.885,4.029 -28.285,9.771c-1.286,1.372 -3.343,1.715 -5.058,0.858c-2.742,-1.372 -4.8,-3.258 -6.342,-5.4" style="fill:none;stroke-width:1.29px;stroke-linecap:round;stroke-linejoin:round;stroke:#ed1e79;"/><path d="M55.371,245.743c0.172,-7.629 0.943,-19.029 3.943,-21.6c4.543,-3.857 17.315,-3.6 23.315,-15.086c2.142,-4.114 2.914,-8.828 2.228,-13.457c-0.171,-1.2 0.514,-2.314 1.629,-2.829c2.828,-1.2 5.4,-2.828 7.543,-4.971" style="fill:none;stroke-width:1.29px;stroke-linecap:round;stroke-linejoin:round;stroke:#ed1e79;"/></g><g><path d="M209.309,319.21l-78.112,-118.018l-80.263,0" style="fill:none;stroke-width:0.75px;stroke-linecap:round;stroke-linejoin:round;stroke:#000;"/><circle cx="209.285" cy="319.341" r="5" style="fill:#d93e3e;"/></g></g><g id="pituitaryW"><circle cx="51" cy="101" r="45" style="fill:#fff;stroke-width:1.29px;stroke-linecap:round;stroke-linejoin:round;stroke:#b3b3b3;"/><g><path d="M73.886,131.514c-0.686,-2.571 -1.115,-5.228 -1.115,-7.885c-0.085,-2.743 0.772,-4.8 2.829,-6.6c1.8,-1.629 4.029,-2.4 5.914,-3.943c1.715,-1.372 3,-3.172 3.686,-5.229c0.771,-2.314 0.771,-4.8 0,-7.114c-0.771,-2.4 -2.571,-4.029 -4.286,-5.743c1.8,-4.2 0.943,-9.514 -2.143,-12.943c-3.085,-3.428 -8.314,-4.714 -12.685,-3.171c-1.8,-3 -5.057,-5.057 -8.486,-5.4c-3.429,-0.343 -7.029,0.857 -9.429,3.343c-3.857,-3 -9.428,-3.686 -13.885,-1.715c-2.229,1.029 -4.286,2.829 -4.8,5.143c-3.943,0.343 -7.972,1.457 -10.629,4.372c-2.657,2.914 -3.428,7.8 -0.771,10.714c-1.8,3.257 -1.543,7.457 0.514,10.543c2.057,3.085 5.914,4.8 9.6,4.371c0.857,3.172 4.457,5.057 7.8,4.8c3.343,-0.257 6.257,-2.228 8.486,-4.628c0.6,3 3.171,5.228 6.085,6.257c2.915,0.943 6,0.771 9,0.171c0.086,1.8 0.172,3.6 0.343,5.4c0.429,3.343 1.2,6.6 2.315,9.772c0,0.085 0.085,0.085 0.085,0.085c0.086,0 0.086,-0.171 0,-0.085" style="fill:none;stroke-width:1.29px;stroke-linecap:round;stroke-linejoin:round;stroke:#b3b3b3;"/><path d="M66.514,131.6c-0.085,-0.086 -0.085,0.171 0.086,0.086c0.086,-0.086 0.086,-0.172 0,-0.257c-0.429,-1.115 -0.771,-2.229 -1.029,-3.343c-1.028,-4.286 -2.142,-9.857 -0.6,-14.143c0.6,-1.8 1.8,-3.257 2.743,-4.8c0.857,-1.286 1.972,-2.572 2.572,-4.029c1.371,-3.085 1.543,-7.028 -0.172,-10.028c-4.2,-7.543 -17.571,-6 -18.428,3.085" style="fill:none;stroke-width:1.29px;stroke-linecap:round;stroke-linejoin:round;stroke:#b3b3b3;"/><path d="M37.971,94.571c2.658,3.258 3.172,8.058 1.115,11.743c-0.086,0.086 -0.257,0.086 -0.172,0" style="fill:none;stroke-width:1.29px;stroke-linecap:round;stroke-linejoin:round;stroke:#b3b3b3;"/><path d="M74.486,85.571c-1.715,0.172 -3.343,1.029 -4.543,2.315c-1.2,1.285 -1.886,3 -1.886,4.714" style="fill:none;stroke-width:1.29px;stroke-linecap:round;stroke-linejoin:round;stroke:#b3b3b3;"/><path d="M56.829,91.229c-2.486,0.514 -5.143,-0.6 -6.943,-2.4c-1.8,-1.8 -2.829,-4.286 -3.343,-6.772c0.171,0.086 0.343,0.086 0.514,0.172" style="fill:none;stroke-width:1.29px;stroke-linecap:round;stroke-linejoin:round;stroke:#b3b3b3;"/><path d="M49.114,88.571c-0.685,2.658 -3,4.543 -5.571,5.486c-3,1.114 -6.514,1.029 -9.429,-0.171c-3,-1.2 -5.485,-3.6 -6.771,-6.6" style="fill:none;stroke-width:1.29px;stroke-linecap:round;stroke-linejoin:round;stroke:#b3b3b3;"/><path d="M33.086,93.286c-2.143,0.257 -4.2,1.371 -5.743,2.914c-1.543,1.543 -2.486,3.686 -2.657,5.829" style="fill:none;stroke-width:1.29px;stroke-linecap:round;stroke-linejoin:round;stroke:#b3b3b3;"/></g><circle cx="56.571" cy="106.657" r="6.429" style="fill:none;stroke-width:1.29px;stroke-linecap:round;stroke-linejoin:round;stroke:#ed1e79;"/><g><path d="M236.963,54.322l-105.617,47.424l-81.055,0" style="fill:none;stroke-width:0.75px;stroke-linecap:round;stroke-linejoin:round;stroke:#000;"/><circle cx="237.285" cy="53.341" r="5" style="fill:#d93e3e;"/></g></g></g></g></svg>