<?xml version="1.0" encoding="UTF-8" standalone="no"?>
<svg width="74px" height="90px" viewBox="0 0 74 90" version="1.1" xmlns="http://www.w3.org/2000/svg" xmlns:xlink="http://www.w3.org/1999/xlink" xmlns:sketch="http://www.bohemiancoding.com/sketch/ns">
    <!-- Generator: Sketch 3.4.1 (15681) - http://www.bohemiancoding.com/sketch -->
    <title>noun_191117_cc</title>
    <desc>Created with Sketch.</desc>
    <defs></defs>
    <g id="Page-1" stroke="none" stroke-width="1" fill="none" fill-rule="evenodd" sketch:type="MSPage">
        <g id="noun_191117_cc" sketch:type="MSLayerGroup" fill="#000000">
            <g id="Group" sketch:type="MSShapeGroup">
                <path d="M37.009,35.418 C37.569,35.418 38.066,35.229 38.486,34.855 C38.925,34.466 39.148,33.935 39.148,33.279 C39.148,32.688 38.933,32.18 38.51,31.768 C38.09,31.358 37.578,31.15 36.988,31.15 C36.394,31.15 35.884,31.359 35.47,31.772 C35.058,32.186 34.848,32.693 34.848,33.279 C34.848,33.944 35.074,34.477 35.52,34.864 C35.942,35.232 36.444,35.418 37.009,35.418 L37.009,35.418 Z M36.246,32.55 C36.452,32.346 36.687,32.25 36.987,32.25 C37.291,32.25 37.53,32.347 37.742,32.554 C37.951,32.759 38.049,32.989 38.049,33.28 C38.049,33.617 37.956,33.857 37.757,34.035 C37.547,34.221 37.28,34.323 37.003,34.323 C36.724,34.323 36.454,34.221 36.239,34.036 C36.04,33.863 35.947,33.622 35.947,33.28 C35.947,32.987 36.042,32.755 36.246,32.55 L36.246,32.55 Z M23.381,30.56 C23.492,30.878 23.41,31.567 23.337,32.176 C23.226,33.096 23.11,34.048 23.472,34.676 C23.844,35.319 24.754,35.718 25.641,36.108 C26.174,36.34 26.779,36.604 27.022,36.846 C27.264,37.088 27.536,37.695 27.781,38.244 C28.163,39.104 28.559,39.993 29.172,40.382 C29.494,40.586 29.923,40.681 30.521,40.681 C30.991,40.681 31.516,40.622 31.935,40.576 L32.026,40.565 C32.569,40.508 33.065,40.449 33.393,40.509 C33.725,40.569 34.282,40.987 34.773,41.356 C35.512,41.912 36.276,42.486 37.002,42.486 C37.746,42.486 38.549,41.895 39.325,41.324 C39.795,40.978 40.327,40.586 40.655,40.498 C40.915,40.428 41.615,40.479 42.259,40.553 C42.699,40.601 43.155,40.652 43.575,40.652 C44.113,40.652 44.507,40.57 44.811,40.394 C45.456,40.022 45.854,39.112 46.243,38.226 C46.475,37.693 46.74,37.088 46.98,36.847 C47.217,36.611 47.817,36.353 48.345,36.126 C49.249,35.738 50.185,35.335 50.539,34.658 C50.875,34.018 50.773,33.055 50.676,32.11 C50.613,31.522 50.542,30.855 50.633,30.52 C50.72,30.198 51.107,29.671 51.462,29.187 C52.032,28.412 52.621,27.611 52.621,26.867 C52.621,26.123 52.032,25.323 51.448,24.529 C51.106,24.064 50.719,23.537 50.633,23.215 C50.546,22.89 50.618,22.241 50.683,21.649 C50.79,20.692 50.901,19.703 50.53,19.057 C50.157,18.413 49.247,18.014 48.361,17.625 C47.827,17.392 47.22,17.126 46.98,16.887 C46.749,16.655 46.492,16.055 46.264,15.525 C45.874,14.616 45.472,13.674 44.785,13.326 C44.499,13.18 44.142,13.112 43.663,13.112 C43.249,13.112 42.793,13.163 42.346,13.215 C41.992,13.255 41.539,13.3 41.184,13.3 C40.904,13.3 40.763,13.271 40.694,13.248 C40.378,13.136 39.901,12.79 39.439,12.455 C38.621,11.862 37.773,11.247 37.001,11.247 C36.257,11.247 35.456,11.836 34.678,12.409 C34.208,12.755 33.676,13.147 33.348,13.235 C33.087,13.305 32.368,13.25 31.784,13.185 C31.287,13.129 30.844,13.082 30.429,13.082 C29.891,13.082 29.497,13.163 29.193,13.338 C28.547,13.711 28.148,14.624 27.761,15.506 C27.528,16.041 27.263,16.645 27.024,16.886 C26.783,17.126 26.176,17.391 25.642,17.626 C24.759,18.012 23.847,18.411 23.474,19.056 C23.103,19.702 23.213,20.691 23.323,21.668 C23.386,22.24 23.458,22.889 23.371,23.214 C23.282,23.544 22.89,24.075 22.544,24.544 C21.973,25.32 21.383,26.123 21.383,26.866 C21.383,27.636 21.995,28.482 22.592,29.306 C22.923,29.767 23.269,30.243 23.381,30.56 L23.381,30.56 Z M23.43,25.191 C23.871,24.589 24.288,24.023 24.429,23.498 C24.571,22.972 24.493,22.274 24.408,21.526 C24.33,20.818 24.232,19.937 24.424,19.604 C24.615,19.273 25.423,18.919 26.089,18.628 C26.77,18.329 27.414,18.048 27.799,17.663 C28.183,17.278 28.464,16.635 28.766,15.948 C29.037,15.329 29.407,14.482 29.74,14.291 C29.803,14.253 29.981,14.191 30.448,14.191 C30.761,14.191 31.158,14.219 31.661,14.275 C32.405,14.358 33.199,14.411 33.633,14.295 C34.16,14.153 34.728,13.735 35.33,13.292 C35.903,12.87 36.617,12.345 37.001,12.345 C37.418,12.345 38.181,12.899 38.806,13.353 C39.352,13.747 39.868,14.12 40.329,14.283 C40.543,14.359 40.827,14.395 41.198,14.395 C41.619,14.395 42.098,14.348 42.469,14.305 C42.975,14.248 43.352,14.222 43.655,14.222 C44.064,14.222 44.225,14.273 44.287,14.305 C44.617,14.473 44.984,15.329 45.255,15.959 C45.545,16.639 45.82,17.281 46.202,17.665 C46.588,18.05 47.233,18.333 47.929,18.637 C48.578,18.922 49.386,19.276 49.577,19.606 C49.768,19.939 49.671,20.82 49.593,21.528 C49.509,22.27 49.431,22.971 49.572,23.499 C49.712,24.022 50.125,24.585 50.578,25.202 C50.999,25.774 51.522,26.485 51.522,26.868 C51.522,27.251 50.999,27.962 50.563,28.554 C50.125,29.151 49.711,29.714 49.572,30.237 C49.429,30.765 49.503,31.467 49.583,32.233 C49.656,32.932 49.748,33.803 49.566,34.149 C49.391,34.482 48.536,34.85 47.895,35.125 C47.22,35.417 46.582,35.691 46.202,36.072 C45.817,36.457 45.535,37.102 45.23,37.802 C44.945,38.449 44.591,39.256 44.262,39.446 C44.19,39.487 44.003,39.556 43.574,39.556 C43.206,39.556 42.769,39.508 42.341,39.461 C41.639,39.38 40.807,39.322 40.369,39.44 C39.842,39.582 39.274,40 38.663,40.449 C38.093,40.868 37.383,41.39 37.001,41.39 C36.645,41.39 35.943,40.863 35.43,40.477 C34.784,39.993 34.175,39.535 33.588,39.428 C33.435,39.401 33.265,39.387 33.069,39.387 C32.698,39.387 32.282,39.432 31.815,39.484 C31.395,39.53 30.919,39.584 30.52,39.584 C30.035,39.584 29.835,39.504 29.759,39.456 C29.43,39.248 29.073,38.45 28.782,37.799 C28.476,37.111 28.185,36.461 27.799,36.071 C27.414,35.686 26.77,35.405 26.071,35.099 C25.423,34.814 24.615,34.461 24.424,34.13 C24.245,33.819 24.351,32.947 24.427,32.311 C24.524,31.512 24.615,30.757 24.416,30.197 C24.253,29.732 23.876,29.213 23.472,28.654 C23.03,28.043 22.479,27.282 22.479,26.869 C22.479,26.483 23.002,25.772 23.43,25.191 L23.43,25.191 Z M35.285,27.949 C35.355,28.676 35.475,29.214 35.652,29.595 C35.889,30.11 36.35,30.395 36.944,30.395 C37.527,30.395 37.989,30.108 38.243,29.589 C38.438,29.193 38.559,28.66 38.615,27.964 L39.07,22.749 C39.121,22.255 39.147,21.758 39.147,21.273 C39.147,20.389 39.028,19.716 38.784,19.216 C38.575,18.787 38.108,18.277 37.071,18.277 C36.414,18.277 35.871,18.502 35.457,18.944 C35.054,19.378 34.848,19.965 34.848,20.692 C34.848,21.128 34.88,21.836 34.946,22.859 L35.285,27.949 L35.285,27.949 Z M36.26,19.694 C36.464,19.476 36.722,19.374 37.072,19.374 C37.64,19.374 37.751,19.6 37.798,19.696 C37.965,20.041 38.05,20.571 38.05,21.273 C38.05,21.722 38.026,22.183 37.978,22.647 L37.523,27.875 C37.479,28.416 37.388,28.842 37.258,29.107 C37.188,29.25 37.11,29.298 36.945,29.298 C36.757,29.298 36.702,29.248 36.649,29.133 C36.566,28.953 36.452,28.584 36.38,27.861 L36.041,22.786 C35.98,21.842 35.947,21.118 35.947,20.692 C35.947,20.245 36.05,19.919 36.26,19.694 L36.26,19.694 Z M64.197,48.41 C64.197,48.684 63.975,48.906 63.701,48.906 L10.3,48.906 C10.026,48.906 9.804,48.684 9.804,48.41 C9.804,48.136 10.026,47.914 10.3,47.914 L63.701,47.914 C63.976,47.914 64.197,48.136 64.197,48.41 L64.197,48.41 Z M64.197,54.36 C64.197,54.634 63.975,54.856 63.701,54.856 L10.3,54.856 C10.026,54.856 9.804,54.634 9.804,54.36 C9.804,54.086 10.026,53.864 10.3,53.864 L63.701,53.864 C63.976,53.865 64.197,54.086 64.197,54.36 L64.197,54.36 Z M72.918,7.821 L64.736,0.135 C64.714,0.113 64.683,0.101 64.655,0.084 C64.631,0.068 64.609,0.049 64.584,0.038 C64.525,0.015 64.463,0 64.396,0 L1.422,0 C1.148,0 0.926,0.222 0.926,0.496 L0.926,89.504 C0.926,89.778 1.148,90 1.422,90 L72.578,90 C72.852,90 73.074,89.778 73.074,89.504 L73.074,8.43 L73.074,8.182 C73.074,8.045 73.019,7.915 72.918,7.821 L72.918,7.821 Z M64.893,1.643 L71.59,7.935 L64.893,7.935 L64.893,1.643 L64.893,1.643 Z M72.083,89.008 L1.917,89.008 L1.917,0.992 L63.9,0.992 L63.9,8.43 C63.9,8.704 64.123,8.926 64.396,8.926 L72.083,8.926 L72.083,89.008 L72.083,89.008 Z M64.197,78.162 C64.197,78.436 63.975,78.658 63.701,78.658 L10.3,78.658 C10.026,78.658 9.804,78.436 9.804,78.162 C9.804,77.888 10.026,77.666 10.3,77.666 L63.701,77.666 C63.976,77.666 64.197,77.888 64.197,78.162 L64.197,78.162 Z M64.197,72.212 C64.197,72.486 63.975,72.708 63.701,72.708 L10.3,72.708 C10.026,72.708 9.804,72.486 9.804,72.212 C9.804,71.938 10.026,71.716 10.3,71.716 L63.701,71.716 C63.976,71.716 64.197,71.938 64.197,72.212 L64.197,72.212 Z M64.197,66.261 C64.197,66.535 63.975,66.757 63.701,66.757 L10.3,66.757 C10.026,66.757 9.804,66.535 9.804,66.261 C9.804,65.987 10.026,65.765 10.3,65.765 L63.701,65.765 C63.976,65.766 64.197,65.987 64.197,66.261 L64.197,66.261 Z M64.197,60.311 C64.197,60.585 63.975,60.807 63.701,60.807 L10.3,60.807 C10.026,60.807 9.804,60.585 9.804,60.311 C9.804,60.037 10.026,59.815 10.3,59.815 L63.701,59.815 C63.976,59.815 64.197,60.037 64.197,60.311 L64.197,60.311 Z" id="Shape"></path>
            </g>
        </g>
    </g>
</svg>