<?xml version="1.0" standalone="no"?><!DOCTYPE svg PUBLIC "-//W3C//DTD SVG 1.1//EN" "http://www.w3.org/Graphics/SVG/1.1/DTD/svg11.dtd"><svg width="100%" height="100%" viewBox="0 0 642 502" version="1.1" xmlns="http://www.w3.org/2000/svg" xmlns:xlink="http://www.w3.org/1999/xlink" xml:space="preserve" style="fill-rule:evenodd;clip-rule:evenodd;stroke-miterlimit:1.41421;"><g id="old"><rect id="Rectangle-1" x="1" y="1" width="640" height="500" style="fill:none;stroke-width:1px;stroke:#979797;"/><g id="men"><g id="urinary_bladderW"><circle cx="591" cy="450.5" r="45" style="fill:#fff;stroke-width:1.29px;stroke-linecap:round;stroke-linejoin:round;stroke:#b3b3b3;"/><g><path d="M590.914,491.729c0,-1.8 0.086,-3.772 0.257,-5.915c0.6,-9.771 2.229,-14.914 4.972,-17.143c1.971,-1.628 4.543,-2.571 7.371,-3.514c4.8,-1.628 10.2,-3.514 13.2,-9.257c2.657,-4.971 2.486,-9.429 -0.428,-14.229c-2.4,-3.942 -8.829,-10.885 -25.372,-10.885c-16.543,0 -22.971,6.943 -25.371,10.885c-2.914,4.8 -3.086,9.258 -0.429,14.229c3,5.743 8.486,7.629 13.2,9.257c2.829,0.943 5.4,1.886 7.372,3.514c2.743,2.315 4.371,7.458 4.971,17.143c0.172,2.143 0.257,4.2 0.257,5.915" style="fill:none;stroke-width:1.29px;stroke-linecap:round;stroke-linejoin:round;stroke:#b3b3b3;"/><path d="M591.171,495.5c-0.085,0 -0.085,0 -0.171,0c-0.086,0 -0.171,0 -0.257,0" style="fill:none;stroke-width:1.29px;stroke-linecap:round;stroke-linejoin:round;stroke:#b3b3b3;"/><path d="M557.486,443.129" style="fill:none;stroke-width:1.29px;stroke-linecap:round;stroke-linejoin:round;stroke:#b3b3b3;"/><path d="M568.286,452.471c0.514,1.543 1.628,2.915 3.171,3.429c0.6,0.171 1.286,0.257 1.886,0.429c1.028,0.257 2.057,0.685 2.828,1.371c0.772,0.686 1.286,1.714 1.286,2.743" style="fill:#fff;fill-rule:nonzero;stroke-width:1.29px;stroke-linecap:round;stroke-linejoin:round;stroke:#b3b3b3;"/><path d="M581.743,459.071c-0.086,1.8 1.028,3.686 2.743,4.372c0.857,0.343 1.8,0.428 2.657,0.771c1.543,0.686 2.657,2.315 2.914,3.943" style="fill:#fff;fill-rule:nonzero;stroke-width:1.29px;stroke-linecap:round;stroke-linejoin:round;stroke:#b3b3b3;"/><path d="M574.543,449.214c0.857,0.857 1.714,1.715 2.914,2.057c0.772,0.172 1.629,0.172 2.4,0.172c1.972,0.086 4.029,0.943 4.8,2.657" style="fill:#fff;fill-rule:nonzero;stroke-width:1.29px;stroke-linecap:round;stroke-linejoin:round;stroke:#b3b3b3;"/><path d="M568.286,447.414c0.6,-1.285 1.971,-2.228 3.428,-2.4c1.029,-0.085 1.972,0.172 3,0.172c1.372,0 2.743,-0.515 3.772,-1.457" style="fill:#fff;fill-rule:nonzero;stroke-width:1.29px;stroke-linecap:round;stroke-linejoin:round;stroke:#b3b3b3;"/><path d="M575.829,439.786c1.628,-1.629 4.114,-2.315 6.428,-1.8c0.943,0.171 1.8,0.6 2.657,0.685c1.543,0.172 3.172,-0.514 4.115,-1.714" style="fill:#fff;fill-rule:nonzero;stroke-width:1.29px;stroke-linecap:round;stroke-linejoin:round;stroke:#b3b3b3;"/><path d="M614.486,451.614c-0.515,1.543 -1.629,2.915 -3.172,3.429c-0.6,0.171 -1.285,0.257 -1.885,0.428c-1.029,0.258 -2.058,0.686 -2.829,1.372c-0.771,0.686 -1.286,1.714 -1.286,2.743" style="fill:#fff;fill-rule:nonzero;stroke-width:1.29px;stroke-linecap:round;stroke-linejoin:round;stroke:#b3b3b3;"/><path d="M601.029,459.071c0.085,1.8 -1.029,3.686 -2.743,4.372c-0.857,0.343 -1.8,0.428 -2.657,0.771c-1.543,0.686 -2.658,2.315 -2.915,3.943" style="fill:#fff;fill-rule:nonzero;stroke-width:1.29px;stroke-linecap:round;stroke-linejoin:round;stroke:#b3b3b3;"/><path d="M608.143,448.614c-0.857,0.857 -1.714,1.715 -2.914,2.057c-0.772,0.172 -1.629,0.172 -2.4,0.172c-1.972,0.086 -4.029,0.943 -4.8,2.657" style="fill:#fff;fill-rule:nonzero;stroke-width:1.29px;stroke-linecap:round;stroke-linejoin:round;stroke:#b3b3b3;"/><path d="M613.286,446.643c-0.6,-1.286 -1.972,-2.229 -3.429,-2.4c-1.028,-0.086 -1.971,0.171 -3,0.171c-1.371,0 -2.743,-0.514 -3.771,-1.457" style="fill:#fff;fill-rule:nonzero;stroke-width:1.29px;stroke-linecap:round;stroke-linejoin:round;stroke:#b3b3b3;"/><path d="M606.171,439.786c-1.628,-1.629 -4.114,-2.315 -6.428,-1.8c-0.943,0.171 -1.8,0.6 -2.657,0.685c-1.543,0.172 -3.172,-0.514 -4.115,-1.714" style="fill:#fff;fill-rule:nonzero;stroke-width:1.29px;stroke-linecap:round;stroke-linejoin:round;stroke:#b3b3b3;"/><path d="M590.829,445.614c-0.6,1.286 -0.943,2.915 -0.343,4.2c0.343,0.686 1.028,1.286 1.2,2.057c0.343,1.2 -0.343,2.486 -1.115,3.515" style="fill:#fff;fill-rule:nonzero;stroke-width:1.29px;stroke-linecap:round;stroke-linejoin:round;stroke:#b3b3b3;"/><path d="M590.914,491.729l0,3.771" style="fill:none;stroke-width:1.29px;stroke-linecap:round;stroke-linejoin:round;stroke:#b3b3b3;"/></g><g><path d="M586.457,495.243c-0.171,-7.629 -0.943,-19.029 -3.943,-21.6c-4.543,-3.857 -17.314,-3.6 -23.314,-15.086c-2.143,-4.114 -2.914,-8.828 -2.229,-13.457c0.172,-1.2 -0.514,-2.314 -1.628,-2.829c-2.829,-1.2 -5.4,-2.828 -7.543,-4.971" style="fill:none;stroke-width:1.29px;stroke-linecap:round;stroke-linejoin:round;stroke:#ed1e79;"/><path d="M630.6,429.329c-1.543,2.142 -3.6,4.028 -6.343,5.4c-1.714,0.857 -3.771,0.514 -5.057,-0.858c-5.314,-5.742 -14.486,-9.771 -28.286,-9.771c-13.714,0 -22.885,4.029 -28.285,9.771c-1.286,1.372 -3.343,1.715 -5.058,0.858c-2.742,-1.372 -4.8,-3.258 -6.342,-5.4" style="fill:none;stroke-width:1.29px;stroke-linecap:round;stroke-linejoin:round;stroke:#ed1e79;"/><path d="M595.371,495.243c0.172,-7.629 0.943,-19.029 3.943,-21.6c4.543,-3.857 17.315,-3.6 23.315,-15.086c2.142,-4.114 2.914,-8.828 2.228,-13.457c-0.171,-1.2 0.514,-2.314 1.629,-2.829c2.828,-1.2 5.4,-2.828 7.543,-4.971" style="fill:none;stroke-width:1.29px;stroke-linecap:round;stroke-linejoin:round;stroke:#ed1e79;"/></g><g><circle cx="212.285" cy="327.841" r="5" style="fill:#d93e3e;"/><path d="M212.631,328.169l173.812,122.773l205.358,0" style="fill:none;stroke-width:0.75px;stroke-linecap:round;stroke-linejoin:round;stroke:#000;"/></g></g><g id="penis_all"><circle cx="591" cy="352.5" r="45" style="fill:#fff;stroke-width:1.29px;stroke-linecap:round;stroke-linejoin:round;stroke:#b3b3b3;"/><path d="M602.229,329.871c0,3.686 -5.058,6.686 -11.229,6.686c-6.171,0 -11.229,-3 -11.229,-6.686c0,-3.685 5.058,-5.142 11.229,-5.142c6.171,0 11.229,1.457 11.229,5.142Z" style="fill:none;stroke-width:1.29px;stroke-linecap:round;stroke-linejoin:round;stroke:#ed1e79;"/><g><path d="M591,389.271l0,-35.314c0,-11.657 8.914,-12.257 10.029,-11.571c1.971,1.2 0.942,2.914 0.085,4.028c-0.857,1.115 -2.828,2.486 -2.828,5.829c0,3.343 0,20.657 0,22.286c0,1.2 1.114,0 2.143,2.314c0.942,2.314 -1.8,10.028 -4.715,11.4c-2.314,1.114 -4.714,1.028 -4.714,1.028Z" style="fill:none;stroke-width:1.29px;stroke-linecap:round;stroke-linejoin:round;stroke:#ed1e79;"/><path d="M591,389.271l0,-35.314c0,-11.657 -8.914,-12.257 -10.029,-11.571c-1.971,1.2 -0.942,2.914 -0.085,4.028c0.857,1.115 2.828,2.486 2.828,5.829c0,3.343 0,20.657 0,22.286c0,1.2 -1.114,0 -2.143,2.314c-0.942,2.314 1.8,10.028 4.715,11.4c2.314,1.114 4.714,1.028 4.714,1.028Z" style="fill:none;stroke-width:1.29px;stroke-linecap:round;stroke-linejoin:round;stroke:#ed1e79;"/><path d="M594.771,344.1c-1.028,-0.514 -2.314,-0.771 -3.771,-0.771c-1.457,0 -2.743,0.342 -3.771,0.771" style="fill:none;stroke-width:1.29px;stroke-linecap:round;stroke-linejoin:round;stroke:#ed1e79;"/></g><g><path d="M606.943,351.9c0,0 -1.8,0.6 -1.2,2.314c0.6,1.715 2.314,1.115 2.314,1.115c2.829,-0.943 6.172,1.457 7.372,5.314c1.2,3.857 -0.086,7.714 -2.915,8.657c0,0 -1.628,0.943 -1.2,2.486c0.515,1.543 2.315,0.943 2.315,0.943c4.628,-1.458 6.942,-7.372 5.142,-13.115c-1.8,-5.743 -7.114,-9.171 -11.828,-7.714Z" style="fill:none;stroke-width:1.29px;stroke-linecap:round;stroke-linejoin:round;stroke:#b3b3b3;"/><path d="M612.514,313.243c-4.543,7.8 -7.8,17.657 1.372,25.628c13.714,12 3.943,18.429 3.943,18.429" style="fill:none;stroke-width:1.29px;stroke-linecap:round;stroke-linejoin:round;stroke:#b3b3b3;"/><path d="M574.714,351.9c0,0 1.8,0.6 1.2,2.314c-0.6,1.715 -2.314,1.115 -2.314,1.115c-2.829,-0.943 -6.171,1.457 -7.371,5.314c-1.2,3.857 0.085,7.714 2.914,8.657c0,0 1.628,0.943 1.2,2.486c-0.514,1.543 -2.314,0.943 -2.314,0.943c-4.629,-1.458 -6.943,-7.372 -5.143,-13.115c1.8,-5.743 7.114,-9.171 11.828,-7.714Z" style="fill:none;stroke-width:1.29px;stroke-linecap:round;stroke-linejoin:round;stroke:#b3b3b3;"/><path d="M569.143,313.243c4.543,7.8 7.8,17.657 -1.372,25.628c-13.714,12 -3.942,18.429 -3.942,18.429" style="fill:none;stroke-width:1.29px;stroke-linecap:round;stroke-linejoin:round;stroke:#b3b3b3;"/></g><path d="M608.072,355.415c2.838,-0.908 6.137,1.464 7.363,5.293c1.225,3.83 -0.085,7.676 -2.923,8.585c-2.839,0.908 -6.138,-1.464 -7.363,-5.294c-1.226,-3.83 0.084,-7.676 2.923,-8.584Z" style="fill:none;stroke-width:1.29px;stroke-linecap:round;stroke-linejoin:round;stroke:#ed1e79;"/><path d="M569.166,369.237c-2.838,-0.909 -4.148,-4.755 -2.923,-8.585c1.225,-3.829 4.525,-6.201 7.363,-5.293c2.839,0.908 4.148,4.754 2.923,8.584c-1.225,3.83 -4.524,6.202 -7.363,5.294Z" style="fill:none;stroke-width:1.29px;stroke-linecap:round;stroke-linejoin:round;stroke:#ed1e79;"/><g><circle cx="366.285" cy="377.841" r="5" style="fill:#d93e3e;"/><path d="M366.963,378.366l144.064,-26.576l80.696,0" style="fill:none;stroke-width:0.75px;stroke-linecap:round;stroke-linejoin:round;stroke:#000;"/></g></g><g id="heartM"><circle cx="591" cy="254.5" r="45" style="fill:#fff;stroke-width:1.29px;stroke-linecap:round;stroke-linejoin:round;stroke:#b3b3b3;"/><path d="M580.114,253.814c0,0 2.657,-5.143 5.657,-7.543c2.658,-2.057 5.486,-3.428 5.486,-3.428l-5.143,-1.8c0,0 -0.257,-1.029 1.2,-2.229c1.457,-1.2 2.915,-1.371 2.915,-1.371c0,0 2.485,0.343 3.857,0.943c2.057,0.943 3.171,2.057 3.171,2.057c0,0 2.572,-0.686 6.6,-0.6c3.857,0.086 9.343,0.943 8.314,5.486c-1.028,4.457 -3.685,1.971 -6.171,1.628c-2.657,-0.343 -5.743,0.857 -7.629,2.829" style="fill:none;stroke-width:1.29px;stroke-linecap:round;stroke-linejoin:round;stroke:#b3b3b3;"/><path d="M574.2,258.443c0.857,3 1.714,6.086 3.171,8.828c1.458,2.743 3.686,5.229 6.6,6.515c0.858,0.343 1.8,0.6 2.743,1.028c1.629,0.686 3.172,1.629 4.543,2.915" style="fill:none;stroke-width:1.29px;stroke-linecap:round;stroke-linejoin:round;stroke:#b3b3b3;"/><path d="M599.057,249.786c3.514,2.143 5.486,6.085 6.772,10.028c0.342,1.029 0.6,2.057 0.685,3.172c0.086,1.885 -0.514,3.857 -1.543,5.4c-1.028,1.543 -2.571,2.828 -4.285,3.685c-0.515,0.258 -1.115,0.515 -1.715,0.772" style="fill:none;stroke-width:1.29px;stroke-linecap:round;stroke-linejoin:round;stroke:#b3b3b3;"/><path d="M610.543,278.5c-0.429,-1.2 -1.286,-2.229 -2.314,-3c-1.029,-0.771 -2.229,-1.286 -3.429,-1.8" style="fill:none;stroke-width:1.29px;stroke-linecap:round;stroke-linejoin:round;stroke:#b3b3b3;"/><path d="M604.629,268.643c0.257,4.286 -0.429,8.571 -1.886,12.6" style="fill:none;stroke-width:1.29px;stroke-linecap:round;stroke-linejoin:round;stroke:#b3b3b3;"/><path d="M581.486,272.071c0.857,-1.028 1.971,-1.8 3.257,-2.228c2.657,-0.772 5.571,0.257 8.228,-0.514" style="fill:none;stroke-width:1.29px;stroke-linecap:round;stroke-linejoin:round;stroke:#b3b3b3;"/><path d="M611.143,241.9c-0.686,-0.257 -1.372,0.086 -1.972,0.429c-0.942,0.685 -1.628,1.8 -1.628,3c0,1.2 0.771,2.4 1.886,2.657" style="fill:none;stroke-width:1.29px;stroke-linecap:round;stroke-linejoin:round;stroke:#b3b3b3;"/><path d="M576.686,241.3c0.171,-3 1.714,-5.914 3.943,-7.971c2.228,-2.058 5.142,-3.258 8.228,-3.6c3.257,-0.429 6.686,0.085 9.343,1.971c2.657,1.886 4.543,4.971 4.286,8.229" style="fill:none;stroke-width:1.29px;stroke-linecap:round;stroke-linejoin:round;stroke:#b3b3b3;"/><path d="M605.486,246.957c1.885,1.029 3,3.343 2.743,5.486" style="fill:none;stroke-width:1.29px;stroke-linecap:round;stroke-linejoin:round;stroke:#b3b3b3;"/><path d="M587.4,245.157c-3.343,-3 -7.371,-4.114 -11.057,-3.686c-2.829,-4.971 -0.343,-10.2 0.514,-15.428c0.686,-4.543 0.686,-9.429 0.086,-14.314" style="fill:none;stroke-width:1.29px;stroke-linecap:round;stroke-linejoin:round;stroke:#b3b3b3;"/><path d="M570.514,269.157c-0.685,-1.371 -1.2,-2.743 -1.714,-4.114c-1.114,-3.172 -1.543,-6.514 -1.629,-9.857c-0.085,-3.772 1.458,-8.143 -0.342,-11.743c-1.458,-2.829 -4.715,-4.714 -7.543,-5.743c-3.086,-1.114 -6.515,-1.286 -9.772,-0.943" style="fill:none;stroke-width:1.29px;stroke-linecap:round;stroke-linejoin:round;stroke:#b3b3b3;"/><path d="M552.771,230.671c1.972,0 3.943,0.172 5.829,0.6c0.943,0.172 1.8,0.429 2.743,0.6c2.057,0.429 4.457,0.6 6.171,-0.857c2.915,-2.314 3.515,-7.114 3.943,-10.628c0.257,-2.143 0.257,-4.286 0.086,-6.515" style="fill:none;stroke-width:1.29px;stroke-linecap:round;stroke-linejoin:round;stroke:#b3b3b3;"/><path d="M591.686,229.471c2.143,-3.685 4.371,-7.371 7.2,-10.628c2.228,-2.572 4.714,-4.886 7.543,-6.6" style="fill:none;stroke-width:1.29px;stroke-linecap:round;stroke-linejoin:round;stroke:#b3b3b3;"/><path d="M596.571,230.757c2.143,-3.428 4.372,-6.771 7.029,-9.686c2.4,-2.571 5.143,-4.885 8.314,-6.428" style="fill:none;stroke-width:1.29px;stroke-linecap:round;stroke-linejoin:round;stroke:#b3b3b3;"/><path d="M598.371,249.786c-1.885,1.971 -4.028,7.114 -4.028,7.114c0,0 -3.772,-1.457 -6.686,-2.057c-3.428,-0.772 -7.543,-1.029 -7.543,-1.029c0,0 -4.028,1.972 -6,4.972c-2.143,3.257 -3,5.485 -3.6,10.371c1.886,3.857 4.543,7.457 7.8,10.286c7.115,6.343 20.486,12.514 26.572,11.143c6.257,-1.372 10.371,-13.2 9.771,-25.2c-0.6,-11.143 -8.828,-15.857 -15.943,-15.6" style="fill:none;stroke-width:1.29px;stroke-linecap:round;stroke-linejoin:round;stroke:#ed1e79;"/><g><circle cx="401.285" cy="226.841" r="5" style="fill:#d93e3e;"/><path d="M401.547,226.833l109.127,27.783l80.435,0" style="fill:none;stroke-width:0.75px;stroke-linecap:round;stroke-linejoin:round;stroke:#000;"/></g></g><g id="hairM"><circle cx="591" cy="58.5" r="45" style="fill:#fff;stroke-width:1.29px;stroke-linecap:round;stroke-linejoin:round;stroke:#b3b3b3;"/><g><circle cx="597.086" cy="82.586" r="2.4" style="fill:none;stroke-width:1.29px;stroke-linecap:round;stroke-linejoin:round;stroke:#b3b3b3;"/><circle cx="611.829" cy="73.243" r="2.4" style="fill:none;stroke-width:1.29px;stroke-linecap:round;stroke-linejoin:round;stroke:#b3b3b3;"/><circle cx="622.114" cy="80.871" r="2.4" style="fill:none;stroke-width:1.29px;stroke-linecap:round;stroke-linejoin:round;stroke:#b3b3b3;"/><circle cx="607.286" cy="90.471" r="2.4" style="fill:none;stroke-width:1.29px;stroke-linecap:round;stroke-linejoin:round;stroke:#b3b3b3;"/><circle cx="568.286" cy="86.614" r="2.4" style="fill:none;stroke-width:1.29px;stroke-linecap:round;stroke-linejoin:round;stroke:#b3b3b3;"/><circle cx="562.286" cy="72.471" r="2.4" style="fill:none;stroke-width:1.29px;stroke-linecap:round;stroke-linejoin:round;stroke:#b3b3b3;"/><circle cx="578.914" cy="78.3" r="2.4" style="fill:none;stroke-width:1.29px;stroke-linecap:round;stroke-linejoin:round;stroke:#b3b3b3;"/><circle cx="586.371" cy="94.929" r="2.4" style="fill:none;stroke-width:1.29px;stroke-linecap:round;stroke-linejoin:round;stroke:#b3b3b3;"/><path d="M599.743,64.5l0,-5.229c0,-1.971 1.628,-3.6 3.6,-3.6c1.971,0 3.6,1.629 3.6,3.6l0,1.629c0,1.971 1.628,3.6 3.6,3.6c1.971,0 3.6,-1.629 3.6,-3.6l0,-1.629c0,-1.971 1.628,-3.6 3.6,-3.6c1.971,0 3.6,1.629 3.6,3.6l0,1.629c0,1.971 1.628,3.6 3.6,3.6c1.971,0 3.6,-1.629 3.6,-3.6l0,-1.629c0,-1.971 1.628,-3.6 3.6,-3.6c1.971,0 3.686,1.629 3.686,3.6" style="fill:none;stroke-width:1.29px;stroke-linecap:round;stroke-linejoin:round;stroke:#b3b3b3;"/><path d="M582.343,64.5l0,-5.229c0,-1.971 -1.629,-3.6 -3.6,-3.6c-1.972,0 -3.6,1.629 -3.6,3.6l0,1.629c0,1.971 -1.629,3.6 -3.6,3.6c-1.972,0 -3.6,-1.629 -3.6,-3.6l0,-1.629c0,-1.971 -1.629,-3.6 -3.6,-3.6c-1.972,0 -3.6,1.629 -3.6,3.6l0,1.629c0,1.971 -1.629,3.6 -3.6,3.6c-1.972,0 -3.6,-1.629 -3.6,-3.6l0,-1.629c0,-1.971 -1.629,-3.6 -3.6,-3.6c-1.972,0 -3.686,1.629 -3.686,3.6" style="fill:none;stroke-width:1.29px;stroke-linecap:round;stroke-linejoin:round;stroke:#b3b3b3;"/><path d="M595.714,65.957c0,2.572 -2.057,4.629 -4.628,4.629c-2.572,0 -4.629,-2.057 -4.629,-4.629c0,-4.2 2.4,-4.028 2.914,-10.286c1.2,-12.771 1.715,-32.742 1.715,-32.742c0,0 0.343,20.142 1.714,32.742c0.6,6.343 2.914,6.258 2.914,10.286Z" style="fill:none;stroke-width:1.29px;stroke-linecap:round;stroke-linejoin:round;stroke:#b3b3b3;"/></g><path d="M548.486,43.757l29.743,0c3.428,0 6.171,2.743 6.171,6.172l-2.314,16.285c0,4.886 3.943,8.915 8.914,8.915c4.886,0 8.914,-3.943 8.914,-8.915l-2.314,-16.285c0,-3.429 2.743,-6.172 6.171,-6.172l29.743,0" style="fill:none;stroke-width:1.29px;stroke-linecap:round;stroke-linejoin:round;stroke:#ed1e79;"/><g><circle cx="449.285" cy="145.841" r="5" style="fill:#d93e3e;"/><path d="M449.577,145.632l61.802,-86.984l79.102,0" style="fill:none;stroke-width:0.75px;stroke-linecap:round;stroke-linejoin:round;stroke:#000;"/></g></g><g id="hairW"><circle cx="591" cy="156.5" r="45" style="fill:#fff;stroke-width:1.29px;stroke-linecap:round;stroke-linejoin:round;stroke:#b3b3b3;"/><g><circle cx="597.086" cy="180.586" r="2.4" style="fill:none;stroke-width:1.29px;stroke-linecap:round;stroke-linejoin:round;stroke:#b3b3b3;"/><circle cx="611.829" cy="171.243" r="2.4" style="fill:none;stroke-width:1.29px;stroke-linecap:round;stroke-linejoin:round;stroke:#b3b3b3;"/><circle cx="622.114" cy="178.871" r="2.4" style="fill:none;stroke-width:1.29px;stroke-linecap:round;stroke-linejoin:round;stroke:#b3b3b3;"/><circle cx="607.286" cy="188.471" r="2.4" style="fill:none;stroke-width:1.29px;stroke-linecap:round;stroke-linejoin:round;stroke:#b3b3b3;"/><circle cx="568.286" cy="184.614" r="2.4" style="fill:none;stroke-width:1.29px;stroke-linecap:round;stroke-linejoin:round;stroke:#b3b3b3;"/><circle cx="562.286" cy="170.471" r="2.4" style="fill:none;stroke-width:1.29px;stroke-linecap:round;stroke-linejoin:round;stroke:#b3b3b3;"/><circle cx="578.914" cy="176.3" r="2.4" style="fill:none;stroke-width:1.29px;stroke-linecap:round;stroke-linejoin:round;stroke:#b3b3b3;"/><circle cx="586.371" cy="192.929" r="2.4" style="fill:none;stroke-width:1.29px;stroke-linecap:round;stroke-linejoin:round;stroke:#b3b3b3;"/><path d="M599.743,162.5l0,-5.229c0,-1.971 1.628,-3.6 3.6,-3.6c1.971,0 3.6,1.629 3.6,3.6l0,1.629c0,1.971 1.628,3.6 3.6,3.6c1.971,0 3.6,-1.629 3.6,-3.6l0,-1.629c0,-1.971 1.628,-3.6 3.6,-3.6c1.971,0 3.6,1.629 3.6,3.6l0,1.629c0,1.971 1.628,3.6 3.6,3.6c1.971,0 3.6,-1.629 3.6,-3.6l0,-1.629c0,-1.971 1.628,-3.6 3.6,-3.6c1.971,0 3.686,1.629 3.686,3.6" style="fill:none;stroke-width:1.29px;stroke-linecap:round;stroke-linejoin:round;stroke:#b3b3b3;"/><path d="M582.343,162.5l0,-5.229c0,-1.971 -1.629,-3.6 -3.6,-3.6c-1.972,0 -3.6,1.629 -3.6,3.6l0,1.629c0,1.971 -1.629,3.6 -3.6,3.6c-1.972,0 -3.6,-1.629 -3.6,-3.6l0,-1.629c0,-1.971 -1.629,-3.6 -3.6,-3.6c-1.972,0 -3.6,1.629 -3.6,3.6l0,1.629c0,1.971 -1.629,3.6 -3.6,3.6c-1.972,0 -3.6,-1.629 -3.6,-3.6l0,-1.629c0,-1.971 -1.629,-3.6 -3.6,-3.6c-1.972,0 -3.686,1.629 -3.686,3.6" style="fill:none;stroke-width:1.29px;stroke-linecap:round;stroke-linejoin:round;stroke:#b3b3b3;"/><path d="M595.714,163.957c0,2.572 -2.057,4.629 -4.628,4.629c-2.572,0 -4.629,-2.057 -4.629,-4.629c0,-4.2 2.4,-4.028 2.914,-10.286c1.2,-12.771 1.715,-32.742 1.715,-32.742c0,0 0.343,20.142 1.714,32.742c0.6,6.343 2.914,6.258 2.914,10.286Z" style="fill:none;stroke-width:1.29px;stroke-linecap:round;stroke-linejoin:round;stroke:#b3b3b3;"/></g><path d="M548.486,141.757l29.743,0c3.428,0 6.171,2.743 6.171,6.172l-2.314,16.285c0,4.886 3.943,8.915 8.914,8.915c4.886,0 8.914,-3.943 8.914,-8.915l-2.314,-16.285c0,-3.429 2.743,-6.172 6.171,-6.172l29.743,0" style="fill:none;stroke-width:1.29px;stroke-linecap:round;stroke-linejoin:round;stroke:#ed1e79;"/><g><circle cx="271.285" cy="133.841" r="5" style="fill:#d93e3e;"/><path d="M271.096,133.314l114.88,23.805l205.948,0" style="fill:none;stroke-width:0.75px;stroke-linecap:round;stroke-linejoin:round;stroke:#000;"/></g></g></g><g id="woman"><g id="uterus_all"><circle cx="51" cy="352.5" r="45" style="fill:#fff;stroke-width:1.29px;stroke-linecap:round;stroke-linejoin:round;stroke:#b3b3b3;"/><g><path d="M51,345.986c4.886,-0.086 9.086,-1.629 13.543,-3.429c-2.657,1.886 -5.057,3.257 -7.2,5.572c-3.257,3.6 -5.486,7.971 -6.343,12.771" style="fill:none;stroke-width:1.29px;stroke-linecap:round;stroke-linejoin:round;stroke:#b3b3b3;"/><g><path d="M82.029,356.357c0,0.257 -0.086,0.686 0.085,0.857c0.086,0.086 0.257,0.172 0.343,0.172c0.514,0.085 0.857,-0.343 1.2,-0.6c0.343,-0.257 0.6,-0.6 0.943,-0.857c0.686,-0.686 1.286,-1.458 1.886,-2.229c1.285,-1.8 2.228,-3.857 2.571,-6c0,-0.086 0,-0.086 0,-0.171c0.772,-4.543 -0.857,-11.229 -8.314,-12.515c-7.457,-1.285 -10.286,3.172 -13.886,3.429" style="fill:none;stroke-width:1.29px;stroke-linecap:round;stroke-linejoin:round;stroke:#b3b3b3;"/><path d="M76.971,346.929c-0.342,-0.086 -0.685,-0.258 -0.771,-0.686c-0.171,-1.029 2.143,-0.943 2.657,-0.857c1.029,0.085 2.057,0.257 3.086,0.343c0.6,0 1.286,0 1.8,-0.343c1.371,-0.857 1.628,-4.972 -3.257,-6.172c-4.886,-1.2 -8.829,1.2 -10.8,3.772" style="fill:none;stroke-width:1.29px;stroke-linecap:round;stroke-linejoin:round;stroke:#b3b3b3;"/><path d="M25.029,346.929c0.342,-0.086 1.114,-0.172 1.028,-0.686c0,-0.172 -0.171,-0.429 -0.343,-0.514c-0.171,-0.086 -0.343,-0.172 -0.6,-0.258c-0.171,0 -0.343,-0.085 -0.428,-0.085c-1.2,-0.172 -2.4,0 -3.6,0.171c-0.943,0.172 -2.143,0.257 -3,-0.257c-1.372,-0.857 -1.629,-4.971 3.257,-6.171c4.886,-1.2 8.828,1.2 10.8,3.771" style="fill:none;stroke-width:1.29px;stroke-linecap:round;stroke-linejoin:round;stroke:#b3b3b3;"/><path d="M35.057,338.443c-3.6,-0.343 -6.428,-4.714 -13.886,-3.429c-7.457,1.2 -9,7.886 -8.314,12.429c0.343,2.228 1.372,4.286 2.657,6.171c0.429,0.686 0.943,1.286 1.457,1.886c0.515,0.514 1.029,1.2 1.715,1.543c0.257,0.171 0.514,0.257 0.771,0.257c0.086,0 0.257,0 0.343,-0.086c0.257,-0.171 0.171,-0.6 0.171,-0.857" style="fill:none;stroke-width:1.29px;stroke-linecap:round;stroke-linejoin:round;stroke:#b3b3b3;"/></g><path d="M51,345.986c-4.886,-0.086 -9.086,-1.629 -13.543,-3.429c2.657,1.886 5.057,3.257 7.2,5.572c3.257,3.6 5.486,7.971 6.343,12.771" style="fill:none;stroke-width:1.29px;stroke-linecap:round;stroke-linejoin:round;stroke:#b3b3b3;"/><path d="M51,360.986l0,30.514" style="fill:none;stroke-width:1.29px;stroke-linecap:round;stroke-linejoin:round;stroke:#b3b3b3;"/></g><g><path d="M32.229,342.9c1.971,2.571 2.228,6.943 5.228,11.229c3,4.285 7.029,4.971 8.143,8.571c1.114,3.6 0.086,13.971 0.171,17.229c0.172,3.342 1.629,10.114 2.572,10.971c0.857,0.857 2.657,0.514 2.657,0.514c0,0 1.8,0.343 2.657,-0.514c0.857,-0.857 2.4,-7.629 2.572,-10.971c0.171,-3.343 -0.943,-13.629 0.171,-17.229c1.114,-3.6 5.143,-4.286 8.143,-8.571c3,-4.286 3.257,-8.658 5.228,-11.229" style="fill:none;stroke-width:1.29px;stroke-linecap:round;stroke-linejoin:round;stroke:#ed1e79;"/><path d="M35.057,338.443c3.6,0.343 8.229,-3.943 15.943,-3.943c7.714,0 12.343,4.286 15.943,3.943" style="fill:none;stroke-width:1.29px;stroke-linecap:round;stroke-linejoin:round;stroke:#ed1e79;"/></g><g><path d="M82.029,356.357c1.285,-0.771 2.142,-1.971 2.314,-3.343c0.428,-2.828 -2.143,-5.571 -5.657,-6.085c-0.6,-0.086 -1.2,-0.086 -1.8,-0.086c-2.743,0.257 -4.972,1.971 -5.315,4.286c-0.428,2.828 2.143,5.571 5.658,6.085c1.8,0.257 3.514,-0.085 4.8,-0.857Z" style="fill:none;stroke-width:1.29px;stroke-linecap:round;stroke-linejoin:round;stroke:#ed1e79;"/><path d="M19.971,356.357c1.286,0.772 3,1.2 4.8,0.943c3.515,-0.514 6,-3.171 5.658,-6.086c-0.343,-2.314 -2.572,-4.028 -5.315,-4.285c-0.6,-0.086 -1.2,0 -1.8,0.085c-3.514,0.515 -6,3.172 -5.657,6.086c0.172,1.286 1.029,2.486 2.314,3.257Z" style="fill:none;stroke-width:1.29px;stroke-linecap:round;stroke-linejoin:round;stroke:#ed1e79;"/></g><g><circle cx="217.285" cy="341.841" r="5" style="fill:#d93e3e;"/><path d="M217.205,342.382l-86.594,10.301l-80.955,0" style="fill:none;stroke-width:0.75px;stroke-linecap:round;stroke-linejoin:round;stroke:#000;"/></g></g><g id="bones"><circle cx="51" cy="450.5" r="45" style="fill:#fff;stroke-width:1.29px;stroke-linecap:round;stroke-linejoin:round;stroke:#b3b3b3;"/><g><circle cx="28.971" cy="433.271" r="1.8" style="fill:none;stroke-width:1.29px;stroke-linecap:round;stroke-linejoin:round;stroke:#b3b3b3;"/><circle cx="35.057" cy="436.1" r="1.8" style="fill:none;stroke-width:1.29px;stroke-linecap:round;stroke-linejoin:round;stroke:#b3b3b3;"/><circle cx="43.371" cy="436.1" r="1.8" style="fill:none;stroke-width:1.29px;stroke-linecap:round;stroke-linejoin:round;stroke:#b3b3b3;"/><circle cx="42.514" cy="447.071" r="1.8" style="fill:none;stroke-width:1.29px;stroke-linecap:round;stroke-linejoin:round;stroke:#b3b3b3;"/><circle cx="47.057" cy="452.471" r="1.8" style="fill:none;stroke-width:1.29px;stroke-linecap:round;stroke-linejoin:round;stroke:#b3b3b3;"/><circle cx="51.429" cy="458.814" r="1.8" style="fill:none;stroke-width:1.29px;stroke-linecap:round;stroke-linejoin:round;stroke:#b3b3b3;"/><circle cx="53.314" cy="445.7" r="1.8" style="fill:none;stroke-width:1.29px;stroke-linecap:round;stroke-linejoin:round;stroke:#b3b3b3;"/><circle cx="56.914" cy="452.043" r="1.8" style="fill:none;stroke-width:1.29px;stroke-linecap:round;stroke-linejoin:round;stroke:#b3b3b3;"/><circle cx="63.343" cy="447.5" r="1.8" style="fill:none;stroke-width:1.29px;stroke-linecap:round;stroke-linejoin:round;stroke:#b3b3b3;"/><circle cx="71.229" cy="445.7" r="1.8" style="fill:none;stroke-width:1.29px;stroke-linecap:round;stroke-linejoin:round;stroke:#b3b3b3;"/><circle cx="70.8" cy="452.557" r="1.8" style="fill:none;stroke-width:1.29px;stroke-linecap:round;stroke-linejoin:round;stroke:#b3b3b3;"/><circle cx="66.514" cy="465.071" r="1.8" style="fill:none;stroke-width:1.29px;stroke-linecap:round;stroke-linejoin:round;stroke:#b3b3b3;"/><circle cx="48.686" cy="484.014" r="1.8" style="fill:none;stroke-width:1.29px;stroke-linecap:round;stroke-linejoin:round;stroke:#b3b3b3;"/><circle cx="53.229" cy="465.843" r="1.8" style="fill:none;stroke-width:1.29px;stroke-linecap:round;stroke-linejoin:round;stroke:#b3b3b3;"/><circle cx="58.714" cy="459.243" r="1.8" style="fill:none;stroke-width:1.29px;stroke-linecap:round;stroke-linejoin:round;stroke:#b3b3b3;"/><circle cx="65.486" cy="457.443" r="1.8" style="fill:none;stroke-width:1.29px;stroke-linecap:round;stroke-linejoin:round;stroke:#b3b3b3;"/><circle cx="60.257" cy="466.871" r="1.8" style="fill:none;stroke-width:1.29px;stroke-linecap:round;stroke-linejoin:round;stroke:#b3b3b3;"/><circle cx="62.314" cy="483.5" r="1.8" style="fill:none;stroke-width:1.29px;stroke-linecap:round;stroke-linejoin:round;stroke:#b3b3b3;"/><circle cx="55.457" cy="484.271" r="1.8" style="fill:none;stroke-width:1.29px;stroke-linecap:round;stroke-linejoin:round;stroke:#b3b3b3;"/><circle cx="58.886" cy="489.757" r="1.8" style="fill:none;stroke-width:1.29px;stroke-linecap:round;stroke-linejoin:round;stroke:#b3b3b3;"/><circle cx="51.343" cy="490.014" r="1.8" style="fill:none;stroke-width:1.29px;stroke-linecap:round;stroke-linejoin:round;stroke:#b3b3b3;"/><circle cx="47.4" cy="440.986" r="1.8" style="fill:none;stroke-width:1.29px;stroke-linecap:round;stroke-linejoin:round;stroke:#b3b3b3;"/><circle cx="42.514" cy="428.729" r="1.8" style="fill:none;stroke-width:1.29px;stroke-linecap:round;stroke-linejoin:round;stroke:#b3b3b3;"/><circle cx="35.057" cy="429.157" r="1.8" style="fill:none;stroke-width:1.29px;stroke-linecap:round;stroke-linejoin:round;stroke:#b3b3b3;"/><circle cx="29.743" cy="440.214" r="1.8" style="fill:none;stroke-width:1.29px;stroke-linecap:round;stroke-linejoin:round;stroke:#b3b3b3;"/><circle cx="36.857" cy="442.1" r="1.8" style="fill:none;stroke-width:1.29px;stroke-linecap:round;stroke-linejoin:round;stroke:#b3b3b3;"/><path d="M64.629,493.357c1.114,-4.286 7.2,-25.628 7.885,-32.314c0.429,-3.686 5.486,-5.657 6.429,-9.257c0.686,-2.572 0.943,-5.4 -0.172,-7.8c-1.628,-3.515 -5.742,-5.315 -9.342,-4.629c-2.572,0.514 -4.8,1.8 -7.372,1.972c-2.571,0.257 -5.314,-0.343 -7.543,-1.715c-2.828,-1.714 -4.885,-4.714 -5.657,-7.971c-0.6,-2.743 0.429,-6.429 -2.828,-7.8c-1.372,-0.6 -2.915,-0.686 -4.372,-0.772c-4.457,-0.085 -9,0.6 -12.771,2.915c-3.772,2.314 -6.6,6.514 -6.429,10.971c0.086,2.572 1.372,5.314 3.343,7.029c2.571,2.314 4.543,1.285 7.543,2.057c1.886,0.428 3.343,1.886 4.714,3.343c1.543,1.628 3.086,3.343 4.629,5.057c1.8,2.057 3.514,4.114 4.714,6.514c2.143,4.372 1.286,9.086 0.257,13.629c-1.543,6.857 -4.286,13.285 -7.543,19.457" style="fill:none;stroke-width:1.29px;stroke-linecap:round;stroke-linejoin:round;stroke:#b3b3b3;"/></g><path d="M69.257,491.643c1.629,-3.686 6.257,-19.8 7.543,-27.857c0.6,-3.515 5.314,-6.686 6.343,-10.8c1.114,-4.115 0.943,-7.715 -0.429,-10.8c-2.4,-5.315 -8.4,-8.229 -14.314,-7.115c-1.371,0.258 -2.657,0.686 -3.771,1.115c-1.2,0.428 -2.229,0.771 -3.172,0.857c-1.714,0.171 -3.428,-0.257 -4.8,-1.114c-1.8,-1.115 -3.086,-3 -3.6,-5.143c-0.086,-0.429 -0.086,-1.029 -0.171,-1.715c-0.172,-2.485 -0.343,-7.2 -5.229,-9.257c-2.143,-0.943 -4.2,-1.114 -6.086,-1.114c-6,-0.086 -11.142,1.114 -15.171,3.6c-5.4,3.343 -8.743,9.171 -8.486,14.914c0.172,3.772 1.972,7.715 4.8,10.2c2.829,2.486 5.572,2.657 7.457,2.829c0.686,0.086 1.372,0.086 1.972,0.257c0.771,0.171 1.886,1.457 2.571,2.057c1.543,1.629 3,3.257 4.457,4.972c1.543,1.714 3.086,3.6 4.029,5.571c1.457,3 0.857,6.6 -0.086,10.714c-1.457,6.772 -4.285,13.115 -8.143,18.857" style="fill:none;stroke-width:1.29px;stroke-linecap:round;stroke-linejoin:round;stroke:#ed1e79;"/><g><circle cx="215.285" cy="456.841" r="5" style="fill:#d93e3e;"/><path d="M215.496,457.407l-84.531,-5.431l-81.178,0" style="fill:none;stroke-width:0.75px;stroke-linecap:round;stroke-linejoin:round;stroke:#000;"/></g></g><g id="hairW1"><circle cx="51" cy="254.5" r="45" style="fill:#fff;stroke-width:1.29px;stroke-linecap:round;stroke-linejoin:round;stroke:#b3b3b3;"/><path d="M40.114,253.814c0,0 2.657,-5.143 5.657,-7.543c2.658,-2.057 5.486,-3.428 5.486,-3.428l-5.143,-1.8c0,0 -0.257,-1.029 1.2,-2.229c1.457,-1.2 2.915,-1.371 2.915,-1.371c0,0 2.485,0.343 3.857,0.943c2.057,0.943 3.171,2.057 3.171,2.057c0,0 2.572,-0.686 6.6,-0.6c3.857,0.086 9.343,0.943 8.314,5.486c-1.028,4.457 -3.685,1.971 -6.171,1.628c-2.657,-0.343 -5.743,0.857 -7.629,2.829" style="fill:none;stroke-width:1.29px;stroke-linecap:round;stroke-linejoin:round;stroke:#b3b3b3;"/><path d="M34.2,258.443c0.857,3 1.714,6.086 3.171,8.828c1.458,2.743 3.686,5.229 6.6,6.515c0.858,0.343 1.8,0.6 2.743,1.028c1.629,0.686 3.172,1.629 4.543,2.915" style="fill:none;stroke-width:1.29px;stroke-linecap:round;stroke-linejoin:round;stroke:#b3b3b3;"/><path d="M59.057,249.786c3.514,2.143 5.486,6.085 6.772,10.028c0.342,1.029 0.6,2.057 0.685,3.172c0.086,1.885 -0.514,3.857 -1.543,5.4c-1.028,1.543 -2.571,2.828 -4.285,3.685c-0.515,0.258 -1.115,0.515 -1.715,0.772" style="fill:none;stroke-width:1.29px;stroke-linecap:round;stroke-linejoin:round;stroke:#b3b3b3;"/><path d="M70.543,278.5c-0.429,-1.2 -1.286,-2.229 -2.314,-3c-1.029,-0.771 -2.229,-1.286 -3.429,-1.8" style="fill:none;stroke-width:1.29px;stroke-linecap:round;stroke-linejoin:round;stroke:#b3b3b3;"/><path d="M64.629,268.643c0.257,4.286 -0.429,8.571 -1.886,12.6" style="fill:none;stroke-width:1.29px;stroke-linecap:round;stroke-linejoin:round;stroke:#b3b3b3;"/><path d="M41.486,272.071c0.857,-1.028 1.971,-1.8 3.257,-2.228c2.657,-0.772 5.571,0.257 8.228,-0.514" style="fill:none;stroke-width:1.29px;stroke-linecap:round;stroke-linejoin:round;stroke:#b3b3b3;"/><path d="M71.143,241.9c-0.686,-0.257 -1.372,0.086 -1.972,0.429c-0.942,0.685 -1.628,1.8 -1.628,3c0,1.2 0.771,2.4 1.886,2.657" style="fill:none;stroke-width:1.29px;stroke-linecap:round;stroke-linejoin:round;stroke:#b3b3b3;"/><path d="M36.686,241.3c0.171,-3 1.714,-5.914 3.943,-7.971c2.228,-2.058 5.142,-3.258 8.228,-3.6c3.257,-0.429 6.686,0.085 9.343,1.971c2.657,1.886 4.543,4.971 4.286,8.229" style="fill:none;stroke-width:1.29px;stroke-linecap:round;stroke-linejoin:round;stroke:#b3b3b3;"/><path d="M65.486,246.957c1.885,1.029 3,3.343 2.743,5.486" style="fill:none;stroke-width:1.29px;stroke-linecap:round;stroke-linejoin:round;stroke:#b3b3b3;"/><path d="M47.4,245.157c-3.343,-3 -7.371,-4.114 -11.057,-3.686c-2.829,-4.971 -0.343,-10.2 0.514,-15.428c0.686,-4.543 0.686,-9.429 0.086,-14.314" style="fill:none;stroke-width:1.29px;stroke-linecap:round;stroke-linejoin:round;stroke:#b3b3b3;"/><path d="M30.514,269.157c-0.685,-1.371 -1.2,-2.743 -1.714,-4.114c-1.114,-3.172 -1.543,-6.514 -1.629,-9.857c-0.085,-3.772 1.458,-8.143 -0.342,-11.743c-1.458,-2.829 -4.715,-4.714 -7.543,-5.743c-3.086,-1.114 -6.515,-1.286 -9.772,-0.943" style="fill:none;stroke-width:1.29px;stroke-linecap:round;stroke-linejoin:round;stroke:#b3b3b3;"/><path d="M12.771,230.671c1.972,0 3.943,0.172 5.829,0.6c0.943,0.172 1.8,0.429 2.743,0.6c2.057,0.429 4.457,0.6 6.171,-0.857c2.915,-2.314 3.515,-7.114 3.943,-10.628c0.257,-2.143 0.257,-4.286 0.086,-6.515" style="fill:none;stroke-width:1.29px;stroke-linecap:round;stroke-linejoin:round;stroke:#b3b3b3;"/><path d="M51.686,229.471c2.143,-3.685 4.371,-7.371 7.2,-10.628c2.228,-2.572 4.714,-4.886 7.543,-6.6" style="fill:none;stroke-width:1.29px;stroke-linecap:round;stroke-linejoin:round;stroke:#b3b3b3;"/><path d="M56.571,230.757c2.143,-3.428 4.372,-6.771 7.029,-9.686c2.4,-2.571 5.143,-4.885 8.314,-6.428" style="fill:none;stroke-width:1.29px;stroke-linecap:round;stroke-linejoin:round;stroke:#b3b3b3;"/><path d="M58.371,249.786c-1.885,1.971 -4.028,7.114 -4.028,7.114c0,0 -3.772,-1.457 -6.686,-2.057c-3.428,-0.772 -7.543,-1.029 -7.543,-1.029c0,0 -4.028,1.972 -6,4.972c-2.143,3.257 -3,5.485 -3.6,10.371c1.886,3.857 4.543,7.457 7.8,10.286c7.115,6.343 20.486,12.514 26.572,11.143c6.257,-1.372 10.371,-13.2 9.771,-25.2c-0.6,-11.143 -8.828,-15.857 -15.943,-15.6" style="fill:none;stroke-width:1.29px;stroke-linecap:round;stroke-linejoin:round;stroke:#ed1e79;"/><g><circle cx="236.285" cy="216.841" r="5" style="fill:#d93e3e;"/><path d="M236.721,216.763l-106.014,37.793l-80.955,0" style="fill:none;stroke-width:0.75px;stroke-linecap:round;stroke-linejoin:round;stroke:#000;"/></g></g><g id="hootersW"><circle cx="51" cy="156.5" r="45" style="fill:#fff;stroke-width:1.29px;stroke-linecap:round;stroke-linejoin:round;stroke:#b3b3b3;"/><g><path d="M29.829,146.214c1.542,0.6 2.742,1.972 3.171,3.6" style="fill:none;stroke-width:1.29px;stroke-linecap:round;stroke-linejoin:round;stroke:#b3b3b3;"/><path d="M25.371,166.871c1.886,-0.942 3.515,-2.314 4.715,-4.114" style="fill:none;stroke-width:1.29px;stroke-linecap:round;stroke-linejoin:round;stroke:#b3b3b3;"/><path d="M28.2,156.929c1.457,0.685 2.743,1.714 4.029,2.742c4.028,3.172 8.057,6.258 11.828,9.686c0.857,0.772 1.629,1.543 2.314,2.4c0.172,0.257 0.343,0.514 0.429,0.857c0.171,0.6 -0.171,1.286 -0.686,1.629c-0.514,0.343 -1.114,0.514 -1.8,0.514c-1.8,0 -3.514,-1.028 -4.714,-2.4c-2.057,-2.314 -3.257,-5.057 -4.457,-7.886c-0.686,-1.714 -1.543,-3.428 -2.914,-4.542" style="fill:none;stroke-width:1.29px;stroke-linecap:round;stroke-linejoin:round;stroke:#b3b3b3;"/><path d="M28.971,154.957c0,0 7.8,0.172 14.229,-3.086c6.429,-3.257 9.943,-7.114 8.143,-9.085c-1.457,-1.457 -4.543,0 -7.372,3.171c-3.428,3.772 -7.885,8.743 -15,9Z" style="fill:none;stroke-width:1.29px;stroke-linecap:round;stroke-linejoin:round;stroke:#b3b3b3;"/><path d="M34.371,156.929c0,0 9.772,2.4 18.172,1.371c10.457,-1.286 6.257,-9.514 -0.857,-5.829c-7.8,4.029 -17.315,4.458 -17.315,4.458Z" style="fill:none;stroke-width:1.29px;stroke-linecap:round;stroke-linejoin:round;stroke:#b3b3b3;"/><path d="M36.171,159.5c0,0 6.686,5.4 13.629,7.543c8.571,2.743 8.229,-5.143 1.457,-4.886c-7.543,0.343 -15.086,-2.657 -15.086,-2.657Z" style="fill:none;stroke-width:1.29px;stroke-linecap:round;stroke-linejoin:round;stroke:#b3b3b3;"/><path d="M68.829,197.814c-0.172,-4.371 -0.258,-8.743 -0.429,-13.114c-5.914,1.286 -11.914,2.571 -18,1.971c-7.457,-0.771 -14.486,-4.714 -19.371,-10.371c-4.886,-5.657 -7.715,-12.943 -8.315,-20.486c-0.085,-0.685 -0.085,-1.371 0.086,-2.057c0.257,-0.771 0.771,-1.371 1.371,-1.886c5.058,-5.142 10.372,-9.942 15,-15.514c4.715,-5.571 8.829,-11.657 11.915,-18.343c0.943,-2.143 1.8,-4.285 2.485,-6.428" style="fill:none;stroke-width:1.29px;stroke-linecap:round;stroke-linejoin:round;stroke:#b3b3b3;"/></g><path d="M23.571,152.729c7.372,1.371 11.4,-4.2 15.6,-9.258c4.115,-4.971 9.172,-9.6 15.858,-9.857c9.342,-0.343 15.428,7.029 17.4,15.429c2.228,9.6 0.685,22.457 -7.629,28.8c-7.971,6.086 -19.371,4.371 -26.486,-1.972c-3.343,-3 -5.228,-7.371 -7.114,-11.314c-1.886,-3.771 -5.057,-6.343 -8.486,-8.486" style="fill:none;stroke-width:1.29px;stroke-linecap:round;stroke-linejoin:round;stroke:#ed1e79;"/><g><circle cx="190.285" cy="176.841" r="5" style="fill:#d93e3e;"/><path d="M190.662,176.696l-59.602,-20.146l-80.808,0" style="fill:none;stroke-width:0.75px;stroke-linecap:round;stroke-linejoin:round;stroke:#000;"/></g></g><g id="nervous_system"><circle cx="51" cy="58.5" r="45" style="fill:#fff;stroke-width:1.29px;stroke-linecap:round;stroke-linejoin:round;stroke:#b3b3b3;"/><circle cx="40.971" cy="54.729" r="3.514" style="fill:none;stroke-width:1.29px;stroke-linecap:round;stroke-linejoin:round;stroke:#b3b3b3;"/><path d="M44.657,103.071c0.257,-1.971 0,-4.2 0.343,-5.742c0.6,-2.658 2.4,-5.229 4.971,-6.172c3,-1.114 6.343,-1.114 9.515,-1.371c2.571,-0.172 4.971,-0.429 6.943,-0.857c9.342,-2.315 15.942,-7.886 18.428,-15.686c2.486,-7.8 0.343,-16.972 -5.314,-22.714c-4.457,-4.458 -10.8,-6.943 -17.057,-6.515c-5.143,0.343 -9.6,2.315 -13.972,4.286c-0.6,0.257 -1.457,0.857 -2.143,0.857l-0.085,0l0,-0.086c0,-0.685 0.428,-1.628 0.771,-2.314c0.343,-0.857 0.857,-1.886 1.629,-2.4c0.771,-0.514 1.714,-0.771 2.485,-1.286c1.458,-0.942 2.658,-2.314 3.515,-3.857c0.514,-0.943 0.171,-2.057 -0.772,-2.571c-0.943,-0.514 -2.057,-0.172 -2.571,0.771c-0.772,1.372 -1.886,2.4 -3.257,3.086c-0.515,-1.971 -0.6,-4.029 -0.172,-6c0.172,-1.029 -0.428,-2.057 -1.457,-2.229c-1.028,-0.171 -2.057,0.429 -2.228,1.458c-0.343,1.8 -0.429,3.6 -0.172,5.485c0.086,0.857 0.257,1.629 0.6,2.4c0.6,1.2 -0.086,1.886 -0.514,2.915c-0.343,0.685 -0.686,1.457 -1.029,2.142c-0.257,0.6 -0.685,1.458 -1.371,1.629c-0.514,0.171 -1.029,0.171 -1.543,0.257c-0.514,0.086 -1.029,0.257 -1.543,0c-0.6,-0.257 -1.028,-0.771 -1.457,-1.286c-0.686,-0.771 -1.714,-2.228 -1.286,-3.257c0.086,-0.257 0.257,-0.428 0.429,-0.6c1.457,-1.8 2.057,-3.943 2.228,-6.257c0.086,-1.028 0.086,-2.057 0.086,-3c0,-1.286 0,-2.486 0.257,-3.686c0.172,-1.028 -0.514,-1.971 -1.543,-2.142c-1.028,-0.172 -1.971,0.514 -2.142,1.542c-0.515,1.286 -0.515,2.743 -0.515,4.029c0,1.286 0,2.657 0,3.943c0,0.428 -0.085,0.857 -0.685,0.686c-0.429,-0.086 -0.515,-0.515 -0.686,-0.858c-0.857,-1.971 -2.572,-3.428 -3.6,-5.314c-0.514,-0.943 -1.714,-1.2 -2.572,-0.686c-0.942,0.515 -1.2,1.715 -0.685,2.572c0.771,1.371 1.714,2.486 2.657,3.6c0.257,0.343 0.514,0.686 0.771,1.028c-1.371,0.258 -2.743,0.172 -4.028,-0.257c-1.029,-0.343 -2.057,0.257 -2.4,1.286c-0.343,1.029 0.257,2.057 1.285,2.4c1.2,0.343 2.4,0.514 3.6,0.514c1.115,0 2.058,-0.257 3.086,-0.514c0.172,-0.086 0.343,0 0.514,0.086c0.172,0.171 0.172,0.343 0.172,0.6c0,0.943 -0.343,1.628 -0.086,2.571c0.172,0.857 0.6,1.714 1.029,2.486c0.428,0.686 0.943,1.286 1.457,1.886c0.428,0.428 1.114,1.114 0.857,1.8c-0.171,0.514 -0.686,1.371 -1.2,1.628c-1.457,0.686 -3.6,-0.171 -4.714,-1.2c-0.515,-0.428 -0.857,-0.943 -1.286,-1.457c-0.857,-1.029 -1.886,-1.886 -3,-2.571c-1.457,-0.858 -3.171,-1.458 -4.886,-1.715c-1.028,-0.085 -1.971,0.6 -2.143,1.629c-0.085,1.028 0.6,1.971 1.629,2.143c1.029,0.085 2.057,0.428 2.914,0.943c0.172,0.085 0.943,0.342 1.029,0.6c0.086,0.257 -0.343,0.6 -0.514,0.6c-0.515,0.171 -1.029,0.171 -1.543,0.342c-1.029,0.258 -2.057,0.515 -3,0.686c-1.029,0.172 -1.8,1.114 -1.629,2.143c0.086,0.943 0.943,1.629 1.886,1.629c0.086,0 0.171,0 0.257,0c1.2,-0.172 2.4,-0.515 3.514,-0.772c0.515,-0.171 1.029,-0.257 1.457,-0.343c1.115,-0.257 2.4,-0.685 3.515,-0.257c0.514,0.172 0.857,0.6 1.371,0.857c0.6,0.257 1.286,0.515 1.972,0.6c1.2,0.257 2.314,0.257 3.428,0.257c0.343,0 0.686,-0.085 0.943,0.258c1.029,1.114 0.6,2.314 0,3.514c-0.171,0.428 -0.514,0.857 -0.943,1.371c-0.686,0.772 -1.371,1.886 -2.486,1.715c-0.857,-0.086 -1.714,-0.6 -2.485,-0.858c-1.286,-0.514 -2.572,-1.2 -3.772,-1.971c-0.857,-0.6 -2.057,-0.343 -2.657,0.6c-0.6,0.857 -0.343,2.057 0.6,2.657c1.886,1.2 3.943,2.229 6.086,2.914c-0.343,0.343 -0.686,0.772 -1.029,1.115c-0.685,0.857 -1.371,1.628 -2.143,2.4c-0.771,0.771 -0.771,1.971 0,2.657c0.343,0.343 0.858,0.6 1.372,0.6c0.514,0 0.943,-0.172 1.286,-0.514c0.857,-0.858 1.628,-1.8 2.4,-2.658c0.514,-0.6 1.028,-1.2 1.542,-1.8c0.343,-0.428 0.772,-0.771 1.115,-1.2c0.171,-0.085 0.257,-0.171 0.343,-0.257c0.171,0.943 0.342,1.972 0.342,3l0,0.086c0,1.2 0,2.4 -0.257,3.343c-0.343,1.028 0.257,2.057 1.2,2.4c0.172,0.086 0.343,0.086 0.6,0.086c0.772,0 1.543,-0.515 1.8,-1.286c0.515,-1.543 0.429,-3.172 0.429,-4.543l0,-0.086c0,-1.457 -0.172,-2.914 -0.514,-4.285c-0.343,-1.286 -0.172,-2.4 0.428,-3.6c0.343,-0.686 0.514,-1.8 1.372,-2.058c0.342,-0.085 0.685,0.086 1.028,0.086c0.6,0 1.2,-0.171 1.8,-0.257c1.114,-0.257 1.2,0.171 1.629,1.029c0.685,1.371 1.457,2.571 2.228,3.857c0.6,1.028 0.343,1.971 0.343,3.085c0,1.2 0.086,2.4 0.343,3.6l0.086,0.429c0.171,0.857 0.343,1.8 0.514,2.743c0.171,0.857 0.943,1.543 1.886,1.543c0.171,0 0.257,0 0.428,0c1.029,-0.257 1.715,-1.2 1.457,-2.229c-0.171,-0.857 -0.342,-1.714 -0.428,-2.571l-0.343,-0.6c-0.086,-0.6 -0.171,-1.2 -0.171,-1.886c1.371,1.2 2.828,2.314 4.371,3.343c0.343,0.257 0.686,0.343 1.029,0.343c0.6,0 1.2,-0.257 1.542,-0.857c0.6,-0.858 0.343,-2.058 -0.514,-2.658c-1.8,-1.2 -3.514,-2.571 -5.143,-4.114c1.457,-0.171 2.915,-0.257 4.2,0.172c1.029,0.342 2.057,-0.258 2.4,-1.2c0.343,-1.029 -0.257,-2.058 -1.2,-2.4c-2.571,-0.772 -5.143,-0.429 -7.457,-0.086c-0.171,0 -0.514,0.086 -0.857,0.086c-0.771,-1.2 -1.286,-2.572 -1.971,-3.772c-0.429,-0.686 -0.515,-1.371 0,-2.143c0.857,-1.285 2.657,-1.8 4.028,-2.4c3.943,-1.8 7.714,-3.428 11.657,-3.685c4.372,-0.258 8.829,1.457 11.915,4.542c3.942,4.029 5.485,10.372 3.685,15.943c-2.314,7.2 -8.657,10.115 -13.628,11.315c-1.457,0.342 -3.6,0.514 -5.915,0.685c-3.685,0.343 -7.971,0.686 -11.571,1.972c-6.857,2.4 -9.429,9.857 -9.343,16.628" style="fill:none;stroke-width:1.29px;stroke-linecap:round;stroke-linejoin:round;stroke:#ed1e79;"/><g><circle cx="240.285" cy="26.841" r="5" style="fill:#d93e3e;"/><path d="M240.668,26.7l-109.496,32.362l-80.438,0" style="fill:none;stroke-width:0.75px;stroke-linecap:round;stroke-linejoin:round;stroke:#000;"/></g></g></g></g></svg>