<?xml version="1.0" standalone="no"?><!DOCTYPE svg PUBLIC "-//W3C//DTD SVG 1.1//EN" "http://www.w3.org/Graphics/SVG/1.1/DTD/svg11.dtd"><svg width="100%" height="100%" viewBox="0 0 524 504" version="1.1" xmlns="http://www.w3.org/2000/svg" xmlns:xlink="http://www.w3.org/1999/xlink" xml:space="preserve" style="fill-rule:evenodd;clip-rule:evenodd;stroke-miterlimit:1.41421;"><g id="women-all"><rect id="canvas" x="2" y="2" width="520" height="500" style="fill:none;stroke-width:2px;stroke:#d9d9d9;"/><g id="uterus"><circle cx="472" cy="352" r="45" style="fill:#fff;stroke-width:1.29px;stroke-linecap:round;stroke-linejoin:round;stroke:#b3b3b3;"/><g><path d="M472,345.486c4.886,-0.086 9.086,-1.629 13.543,-3.429c-2.657,1.886 -5.057,3.257 -7.2,5.572c-3.257,3.6 -5.486,7.971 -6.343,12.771" style="fill:none;stroke-width:1.29px;stroke-linecap:round;stroke-linejoin:round;stroke:#b3b3b3;"/><g><path d="M503.029,355.857c0,0.257 -0.086,0.686 0.085,0.857c0.086,0.086 0.257,0.172 0.343,0.172c0.514,0.085 0.857,-0.343 1.2,-0.6c0.343,-0.257 0.6,-0.6 0.943,-0.857c0.686,-0.686 1.286,-1.458 1.886,-2.229c1.285,-1.8 2.228,-3.857 2.571,-6c0,-0.086 0,-0.086 0,-0.171c0.772,-4.543 -0.857,-11.229 -8.314,-12.515c-7.457,-1.285 -10.286,3.172 -13.886,3.429" style="fill:none;stroke-width:1.29px;stroke-linecap:round;stroke-linejoin:round;stroke:#b3b3b3;"/><path d="M497.971,346.429c-0.342,-0.086 -0.685,-0.258 -0.771,-0.686c-0.171,-1.029 2.143,-0.943 2.657,-0.857c1.029,0.085 2.057,0.257 3.086,0.343c0.6,0 1.286,0 1.8,-0.343c1.371,-0.857 1.628,-4.972 -3.257,-6.172c-4.886,-1.2 -8.829,1.2 -10.8,3.772" style="fill:none;stroke-width:1.29px;stroke-linecap:round;stroke-linejoin:round;stroke:#b3b3b3;"/><path d="M446.029,346.429c0.342,-0.086 1.114,-0.172 1.028,-0.686c0,-0.172 -0.171,-0.429 -0.343,-0.514c-0.171,-0.086 -0.343,-0.172 -0.6,-0.258c-0.171,0 -0.343,-0.085 -0.428,-0.085c-1.2,-0.172 -2.4,0 -3.6,0.171c-0.943,0.172 -2.143,0.257 -3,-0.257c-1.372,-0.857 -1.629,-4.971 3.257,-6.171c4.886,-1.2 8.828,1.2 10.8,3.771" style="fill:none;stroke-width:1.29px;stroke-linecap:round;stroke-linejoin:round;stroke:#b3b3b3;"/><path d="M456.057,337.943c-3.6,-0.343 -6.428,-4.714 -13.886,-3.429c-7.457,1.2 -9,7.886 -8.314,12.429c0.343,2.228 1.372,4.286 2.657,6.171c0.429,0.686 0.943,1.286 1.457,1.886c0.515,0.514 1.029,1.2 1.715,1.543c0.257,0.171 0.514,0.257 0.771,0.257c0.086,0 0.257,0 0.343,-0.086c0.257,-0.171 0.171,-0.6 0.171,-0.857" style="fill:none;stroke-width:1.29px;stroke-linecap:round;stroke-linejoin:round;stroke:#b3b3b3;"/></g><path d="M472,345.486c-4.886,-0.086 -9.086,-1.629 -13.543,-3.429c2.657,1.886 5.057,3.257 7.2,5.572c3.257,3.6 5.486,7.971 6.343,12.771" style="fill:none;stroke-width:1.29px;stroke-linecap:round;stroke-linejoin:round;stroke:#b3b3b3;"/><path d="M472,360.486l0,30.514" style="fill:none;stroke-width:1.29px;stroke-linecap:round;stroke-linejoin:round;stroke:#b3b3b3;"/></g><g><path d="M453.229,342.4c1.971,2.571 2.228,6.943 5.228,11.229c3,4.285 7.029,4.971 8.143,8.571c1.114,3.6 0.086,13.971 0.171,17.229c0.172,3.342 1.629,10.114 2.572,10.971c0.857,0.857 2.657,0.514 2.657,0.514c0,0 1.8,0.343 2.657,-0.514c0.857,-0.857 2.4,-7.629 2.572,-10.971c0.171,-3.343 -0.943,-13.629 0.171,-17.229c1.114,-3.6 5.143,-4.286 8.143,-8.571c3,-4.286 3.257,-8.658 5.228,-11.229" style="fill:none;stroke-width:1.29px;stroke-linecap:round;stroke-linejoin:round;stroke:#ed1e79;"/><path d="M456.057,337.943c3.6,0.343 8.229,-3.943 15.943,-3.943c7.714,0 12.343,4.286 15.943,3.943" style="fill:none;stroke-width:1.29px;stroke-linecap:round;stroke-linejoin:round;stroke:#ed1e79;"/></g><g><path d="M503.029,355.857c1.285,-0.771 2.142,-1.971 2.314,-3.343c0.428,-2.828 -2.143,-5.571 -5.657,-6.085c-0.6,-0.086 -1.2,-0.086 -1.8,-0.086c-2.743,0.257 -4.972,1.971 -5.315,4.286c-0.428,2.828 2.143,5.571 5.658,6.085c1.8,0.257 3.514,-0.085 4.8,-0.857Z" style="fill:none;stroke-width:1.29px;stroke-linecap:round;stroke-linejoin:round;stroke:#b3b3b3;"/><path d="M440.971,355.857c1.286,0.772 3,1.2 4.8,0.943c3.515,-0.514 6,-3.171 5.658,-6.086c-0.343,-2.314 -2.572,-4.028 -5.315,-4.285c-0.6,-0.086 -1.2,0 -1.8,0.085c-3.514,0.515 -6,3.172 -5.657,6.086c0.172,1.286 1.029,2.486 2.314,3.257Z" style="fill:none;stroke-width:1.29px;stroke-linecap:round;stroke-linejoin:round;stroke:#b3b3b3;"/></g><g><circle cx="262.357" cy="416.514" r="10" style="fill:#de8e8e;"/><circle cx="262.357" cy="416.514" r="5" style="fill:#d53b3b;"/><path d="M262.579,416.776l119.228,-64.756l90.11,0" style="fill:none;stroke-width:0.75px;stroke-linecap:round;stroke-linejoin:round;stroke:#000;"/></g></g><g id="ovaries"><circle cx="52" cy="313" r="45" style="fill:#fff;stroke-width:1.29px;stroke-linecap:round;stroke-linejoin:round;stroke:#b3b3b3;"/><g><path d="M52,306.486c4.886,-0.086 9.086,-1.629 13.543,-3.429c-2.657,1.886 -5.057,3.257 -7.2,5.572c-3.257,3.6 -5.486,7.971 -6.343,12.771" style="fill:none;stroke-width:1.29px;stroke-linecap:round;stroke-linejoin:round;stroke:#b3b3b3;"/><g><path d="M83.029,316.857c0,0.257 -0.086,0.686 0.085,0.857c0.086,0.086 0.257,0.172 0.343,0.172c0.514,0.085 0.857,-0.343 1.2,-0.6c0.343,-0.257 0.6,-0.6 0.943,-0.857c0.686,-0.686 1.286,-1.458 1.886,-2.229c1.285,-1.8 2.228,-3.857 2.571,-6c0,-0.086 0,-0.086 0,-0.171c0.772,-4.543 -0.857,-11.229 -8.314,-12.515c-7.457,-1.285 -10.286,3.172 -13.886,3.429" style="fill:none;stroke-width:1.29px;stroke-linecap:round;stroke-linejoin:round;stroke:#b3b3b3;"/><path d="M77.971,307.429c-0.342,-0.086 -0.685,-0.258 -0.771,-0.686c-0.171,-1.029 2.143,-0.943 2.657,-0.857c1.029,0.085 2.057,0.257 3.086,0.343c0.6,0 1.286,0 1.8,-0.343c1.371,-0.857 1.628,-4.972 -3.257,-6.172c-4.886,-1.2 -8.829,1.2 -10.8,3.772" style="fill:none;stroke-width:1.29px;stroke-linecap:round;stroke-linejoin:round;stroke:#b3b3b3;"/><path d="M26.029,307.429c0.342,-0.086 1.114,-0.172 1.028,-0.686c0,-0.172 -0.171,-0.429 -0.343,-0.514c-0.171,-0.086 -0.343,-0.172 -0.6,-0.258c-0.171,0 -0.343,-0.085 -0.428,-0.085c-1.2,-0.172 -2.4,0 -3.6,0.171c-0.943,0.172 -2.143,0.257 -3,-0.257c-1.372,-0.857 -1.629,-4.971 3.257,-6.171c4.886,-1.2 8.828,1.2 10.8,3.771" style="fill:none;stroke-width:1.29px;stroke-linecap:round;stroke-linejoin:round;stroke:#b3b3b3;"/><path d="M36.057,298.943c-3.6,-0.343 -6.428,-4.714 -13.886,-3.429c-7.457,1.2 -9,7.886 -8.314,12.429c0.343,2.228 1.372,4.286 2.657,6.171c0.429,0.686 0.943,1.286 1.457,1.886c0.515,0.514 1.029,1.2 1.715,1.543c0.257,0.171 0.514,0.257 0.771,0.257c0.086,0 0.257,0 0.343,-0.086c0.257,-0.171 0.171,-0.6 0.171,-0.857" style="fill:none;stroke-width:1.29px;stroke-linecap:round;stroke-linejoin:round;stroke:#b3b3b3;"/></g><path d="M52,306.486c-4.886,-0.086 -9.086,-1.629 -13.543,-3.429c2.657,1.886 5.057,3.257 7.2,5.572c3.257,3.6 5.486,7.971 6.343,12.771" style="fill:none;stroke-width:1.29px;stroke-linecap:round;stroke-linejoin:round;stroke:#b3b3b3;"/><path d="M52,321.486l0,30.514" style="fill:none;stroke-width:1.29px;stroke-linecap:round;stroke-linejoin:round;stroke:#b3b3b3;"/></g><g><path d="M33.229,303.4c1.971,2.571 2.228,6.943 5.228,11.229c3,4.285 7.029,4.971 8.143,8.571c1.114,3.6 0.086,13.971 0.171,17.229c0.172,3.342 1.629,10.114 2.572,10.971c0.857,0.857 2.657,0.514 2.657,0.514c0,0 1.8,0.343 2.657,-0.514c0.857,-0.857 2.4,-7.629 2.572,-10.971c0.171,-3.343 -0.943,-13.629 0.171,-17.229c1.114,-3.6 5.143,-4.286 8.143,-8.571c3,-4.286 3.257,-8.658 5.228,-11.229" style="fill:none;stroke-width:1.29px;stroke-linecap:round;stroke-linejoin:round;stroke:#b3b3b3;"/><path d="M36.057,298.943c3.6,0.343 8.229,-3.943 15.943,-3.943c7.714,0 12.343,4.286 15.943,3.943" style="fill:none;stroke-width:1.29px;stroke-linecap:round;stroke-linejoin:round;stroke:#b3b3b3;"/></g><g><path d="M83.029,316.857c1.285,-0.771 2.142,-1.971 2.314,-3.343c0.428,-2.828 -2.143,-5.571 -5.657,-6.085c-0.6,-0.086 -1.2,-0.086 -1.8,-0.086c-2.743,0.257 -4.972,1.971 -5.315,4.286c-0.428,2.828 2.143,5.571 5.658,6.085c1.8,0.257 3.514,-0.085 4.8,-0.857Z" style="fill:none;stroke-width:1.29px;stroke-linecap:round;stroke-linejoin:round;stroke:#ed1e79;"/><path d="M20.971,316.857c1.286,0.772 3,1.2 4.8,0.943c3.515,-0.514 6,-3.171 5.658,-6.086c-0.343,-2.314 -2.572,-4.028 -5.315,-4.285c-0.6,-0.086 -1.2,0 -1.8,0.085c-3.514,0.515 -6,3.172 -5.657,6.086c0.172,1.286 1.029,2.486 2.314,3.257Z" style="fill:none;stroke-width:1.29px;stroke-linecap:round;stroke-linejoin:round;stroke:#ed1e79;"/></g><g><circle cx="246.357" cy="402.514" r="10" style="fill:#de8e8e;"/><circle cx="246.357" cy="402.514" r="5" style="fill:#d53b3b;"/><path d="M246.536,402.725l-104.307,-90.722l-90.463,0" style="fill:none;stroke-width:0.75px;stroke-linecap:round;stroke-linejoin:round;stroke:#000;"/></g></g><g id="urinary-bladder"><circle cx="52" cy="168" r="45" style="fill:#fff;stroke-width:1.29px;stroke-linecap:round;stroke-linejoin:round;stroke:#b3b3b3;"/><g><path d="M51.914,209.229c0,-1.8 0.086,-3.772 0.257,-5.915c0.6,-9.771 2.229,-14.914 4.972,-17.143c1.971,-1.628 4.543,-2.571 7.371,-3.514c4.8,-1.628 10.2,-3.514 13.2,-9.257c2.657,-4.971 2.486,-9.429 -0.428,-14.229c-2.4,-3.942 -8.829,-10.885 -25.372,-10.885c-16.543,0 -22.971,6.943 -25.371,10.885c-2.914,4.8 -3.086,9.258 -0.429,14.229c3,5.743 8.486,7.629 13.2,9.257c2.829,0.943 5.4,1.886 7.372,3.514c2.743,2.315 4.371,7.458 4.971,17.143c0.172,2.143 0.257,4.2 0.257,5.915" style="fill:none;stroke-width:1.29px;stroke-linecap:round;stroke-linejoin:round;stroke:#b3b3b3;"/><path d="M52.171,213c-0.085,0 -0.085,0 -0.171,0c-0.086,0 -0.171,0 -0.257,0" style="fill:none;stroke-width:1.29px;stroke-linecap:round;stroke-linejoin:round;stroke:#b3b3b3;"/><path d="M18.486,160.629" style="fill:none;stroke-width:1.29px;stroke-linecap:round;stroke-linejoin:round;stroke:#b3b3b3;"/><path d="M29.286,169.971c0.514,1.543 1.628,2.915 3.171,3.429c0.6,0.171 1.286,0.257 1.886,0.429c1.028,0.257 2.057,0.685 2.828,1.371c0.772,0.686 1.286,1.714 1.286,2.743" style="fill:#fff;fill-rule:nonzero;stroke-width:1.29px;stroke-linecap:round;stroke-linejoin:round;stroke:#b3b3b3;"/><path d="M42.743,176.571c-0.086,1.8 1.028,3.686 2.743,4.372c0.857,0.343 1.8,0.428 2.657,0.771c1.543,0.686 2.657,2.315 2.914,3.943" style="fill:#fff;fill-rule:nonzero;stroke-width:1.29px;stroke-linecap:round;stroke-linejoin:round;stroke:#b3b3b3;"/><path d="M35.543,166.714c0.857,0.857 1.714,1.715 2.914,2.057c0.772,0.172 1.629,0.172 2.4,0.172c1.972,0.086 4.029,0.943 4.8,2.657" style="fill:#fff;fill-rule:nonzero;stroke-width:1.29px;stroke-linecap:round;stroke-linejoin:round;stroke:#b3b3b3;"/><path d="M29.286,164.914c0.6,-1.285 1.971,-2.228 3.428,-2.4c1.029,-0.085 1.972,0.172 3,0.172c1.372,0 2.743,-0.515 3.772,-1.457" style="fill:#fff;fill-rule:nonzero;stroke-width:1.29px;stroke-linecap:round;stroke-linejoin:round;stroke:#b3b3b3;"/><path d="M36.829,157.286c1.628,-1.629 4.114,-2.315 6.428,-1.8c0.943,0.171 1.8,0.6 2.657,0.685c1.543,0.172 3.172,-0.514 4.115,-1.714" style="fill:#fff;fill-rule:nonzero;stroke-width:1.29px;stroke-linecap:round;stroke-linejoin:round;stroke:#b3b3b3;"/><path d="M75.486,169.114c-0.515,1.543 -1.629,2.915 -3.172,3.429c-0.6,0.171 -1.285,0.257 -1.885,0.428c-1.029,0.258 -2.058,0.686 -2.829,1.372c-0.771,0.686 -1.286,1.714 -1.286,2.743" style="fill:#fff;fill-rule:nonzero;stroke-width:1.29px;stroke-linecap:round;stroke-linejoin:round;stroke:#b3b3b3;"/><path d="M62.029,176.571c0.085,1.8 -1.029,3.686 -2.743,4.372c-0.857,0.343 -1.8,0.428 -2.657,0.771c-1.543,0.686 -2.658,2.315 -2.915,3.943" style="fill:#fff;fill-rule:nonzero;stroke-width:1.29px;stroke-linecap:round;stroke-linejoin:round;stroke:#b3b3b3;"/><path d="M69.143,166.114c-0.857,0.857 -1.714,1.715 -2.914,2.057c-0.772,0.172 -1.629,0.172 -2.4,0.172c-1.972,0.086 -4.029,0.943 -4.8,2.657" style="fill:#fff;fill-rule:nonzero;stroke-width:1.29px;stroke-linecap:round;stroke-linejoin:round;stroke:#b3b3b3;"/><path d="M74.286,164.143c-0.6,-1.286 -1.972,-2.229 -3.429,-2.4c-1.028,-0.086 -1.971,0.171 -3,0.171c-1.371,0 -2.743,-0.514 -3.771,-1.457" style="fill:#fff;fill-rule:nonzero;stroke-width:1.29px;stroke-linecap:round;stroke-linejoin:round;stroke:#b3b3b3;"/><path d="M67.171,157.286c-1.628,-1.629 -4.114,-2.315 -6.428,-1.8c-0.943,0.171 -1.8,0.6 -2.657,0.685c-1.543,0.172 -3.172,-0.514 -4.115,-1.714" style="fill:#fff;fill-rule:nonzero;stroke-width:1.29px;stroke-linecap:round;stroke-linejoin:round;stroke:#b3b3b3;"/><path d="M51.829,163.114c-0.6,1.286 -0.943,2.915 -0.343,4.2c0.343,0.686 1.028,1.286 1.2,2.057c0.343,1.2 -0.343,2.486 -1.115,3.515" style="fill:#fff;fill-rule:nonzero;stroke-width:1.29px;stroke-linecap:round;stroke-linejoin:round;stroke:#b3b3b3;"/><path d="M51.914,209.229l0,3.771" style="fill:none;stroke-width:1.29px;stroke-linecap:round;stroke-linejoin:round;stroke:#b3b3b3;"/></g><g><path d="M47.457,212.743c-0.171,-7.629 -0.943,-19.029 -3.943,-21.6c-4.543,-3.857 -17.314,-3.6 -23.314,-15.086c-2.143,-4.114 -2.914,-8.828 -2.229,-13.457c0.172,-1.2 -0.514,-2.314 -1.628,-2.829c-2.829,-1.2 -5.4,-2.828 -7.543,-4.971" style="fill:none;stroke-width:1.29px;stroke-linecap:round;stroke-linejoin:round;stroke:#ed1e79;"/><path d="M91.6,146.829c-1.543,2.142 -3.6,4.028 -6.343,5.4c-1.714,0.857 -3.771,0.514 -5.057,-0.858c-5.314,-5.742 -14.486,-9.771 -28.286,-9.771c-13.714,0 -22.885,4.029 -28.285,9.771c-1.286,1.372 -3.343,1.715 -5.058,0.858c-2.742,-1.372 -4.8,-3.258 -6.342,-5.4" style="fill:none;stroke-width:1.29px;stroke-linecap:round;stroke-linejoin:round;stroke:#ed1e79;"/><path d="M56.371,212.743c0.172,-7.629 0.943,-19.029 3.943,-21.6c4.543,-3.857 17.315,-3.6 23.315,-15.086c2.142,-4.114 2.914,-8.828 2.228,-13.457c-0.171,-1.2 0.514,-2.314 1.629,-2.829c2.828,-1.2 5.4,-2.828 7.543,-4.971" style="fill:none;stroke-width:1.29px;stroke-linecap:round;stroke-linejoin:round;stroke:#ed1e79;"/></g><g><circle cx="262.357" cy="387.514" r="10" style="fill:#de8e8e;"/><circle cx="262.357" cy="387.514" r="5" style="fill:#d53b3b;"/><path d="M262.526,387.768l-120.359,-221.181l-89.617,0" style="fill:none;stroke-width:0.75px;stroke-linecap:round;stroke-linejoin:round;stroke:#000;"/></g></g><g id="hooters"><circle cx="472" cy="239.5" r="45" style="fill:#fff;stroke-width:1.29px;stroke-linecap:round;stroke-linejoin:round;stroke:#b3b3b3;"/><g><path d="M450.829,229.214c1.542,0.6 2.742,1.972 3.171,3.6" style="fill:none;stroke-width:1.29px;stroke-linecap:round;stroke-linejoin:round;stroke:#b3b3b3;"/><path d="M446.371,249.871c1.886,-0.942 3.515,-2.314 4.715,-4.114" style="fill:none;stroke-width:1.29px;stroke-linecap:round;stroke-linejoin:round;stroke:#b3b3b3;"/><path d="M449.2,239.929c1.457,0.685 2.743,1.714 4.029,2.742c4.028,3.172 8.057,6.258 11.828,9.686c0.857,0.772 1.629,1.543 2.314,2.4c0.172,0.257 0.343,0.514 0.429,0.857c0.171,0.6 -0.171,1.286 -0.686,1.629c-0.514,0.343 -1.114,0.514 -1.8,0.514c-1.8,0 -3.514,-1.028 -4.714,-2.4c-2.057,-2.314 -3.257,-5.057 -4.457,-7.886c-0.686,-1.714 -1.543,-3.428 -2.914,-4.542" style="fill:none;stroke-width:1.29px;stroke-linecap:round;stroke-linejoin:round;stroke:#b3b3b3;"/><path d="M449.971,237.957c0,0 7.8,0.172 14.229,-3.086c6.429,-3.257 9.943,-7.114 8.143,-9.085c-1.457,-1.457 -4.543,0 -7.372,3.171c-3.428,3.772 -7.885,8.743 -15,9Z" style="fill:none;stroke-width:1.29px;stroke-linecap:round;stroke-linejoin:round;stroke:#b3b3b3;"/><path d="M455.371,239.929c0,0 9.772,2.4 18.172,1.371c10.457,-1.286 6.257,-9.514 -0.857,-5.829c-7.8,4.029 -17.315,4.458 -17.315,4.458Z" style="fill:none;stroke-width:1.29px;stroke-linecap:round;stroke-linejoin:round;stroke:#b3b3b3;"/><path d="M457.171,242.5c0,0 6.686,5.4 13.629,7.543c8.571,2.743 8.229,-5.143 1.457,-4.886c-7.543,0.343 -15.086,-2.657 -15.086,-2.657Z" style="fill:none;stroke-width:1.29px;stroke-linecap:round;stroke-linejoin:round;stroke:#b3b3b3;"/><path d="M489.829,280.814c-0.172,-4.371 -0.258,-8.743 -0.429,-13.114c-5.914,1.286 -11.914,2.571 -18,1.971c-7.457,-0.771 -14.486,-4.714 -19.371,-10.371c-4.886,-5.657 -7.715,-12.943 -8.315,-20.486c-0.085,-0.685 -0.085,-1.371 0.086,-2.057c0.257,-0.771 0.771,-1.371 1.371,-1.886c5.058,-5.142 10.372,-9.942 15,-15.514c4.715,-5.571 8.829,-11.657 11.915,-18.343c0.943,-2.143 1.8,-4.285 2.485,-6.428" style="fill:none;stroke-width:1.29px;stroke-linecap:round;stroke-linejoin:round;stroke:#b3b3b3;"/></g><path d="M444.571,235.729c7.372,1.371 11.4,-4.2 15.6,-9.258c4.115,-4.971 9.172,-9.6 15.858,-9.857c9.342,-0.343 15.428,7.029 17.4,15.429c2.228,9.6 0.685,22.457 -7.629,28.8c-7.971,6.086 -19.371,4.371 -26.486,-1.972c-3.343,-3 -5.228,-7.371 -7.114,-11.314c-1.886,-3.771 -5.057,-6.343 -8.486,-8.486" style="fill:none;stroke-width:1.29px;stroke-linecap:round;stroke-linejoin:round;stroke:#ed1e79;"/><g><circle cx="302.357" cy="225.514" r="10" style="fill:#de8e8e;"/><circle cx="302.357" cy="225.514" r="5" style="fill:#d53b3b;"/><path d="M301.887,225.032l80.102,13.715l92.057,0" style="fill:none;stroke-width:0.75px;stroke-linecap:round;stroke-linejoin:round;stroke:#000;"/></g></g><g id="pituitary"><circle cx="472" cy="127" r="45" style="fill:#fff;stroke-width:1.29px;stroke-linecap:round;stroke-linejoin:round;stroke:#b3b3b3;"/><g><path d="M449.114,157.514c0.686,-2.571 1.115,-5.228 1.115,-7.885c0.085,-2.743 -0.772,-4.8 -2.829,-6.6c-1.8,-1.629 -4.029,-2.4 -5.914,-3.943c-1.715,-1.372 -3,-3.172 -3.686,-5.229c-0.771,-2.314 -0.771,-4.8 0,-7.114c0.771,-2.4 2.571,-4.029 4.286,-5.743c-1.8,-4.2 -0.943,-9.514 2.143,-12.943c3.085,-3.428 8.314,-4.714 12.685,-3.171c1.8,-3 5.057,-5.057 8.486,-5.4c3.429,-0.343 7.029,0.857 9.429,3.343c3.857,-3 9.428,-3.686 13.885,-1.715c2.229,1.029 4.286,2.829 4.8,5.143c3.943,0.343 7.972,1.457 10.629,4.372c2.657,2.914 3.428,7.8 0.771,10.714c1.8,3.257 1.543,7.457 -0.514,10.543c-2.057,3.085 -5.914,4.8 -9.6,4.371c-0.857,3.172 -4.457,5.057 -7.8,4.8c-3.343,-0.257 -6.257,-2.228 -8.486,-4.628c-0.6,3 -3.171,5.228 -6.085,6.257c-2.915,0.943 -6,0.771 -9,0.171c-0.086,1.8 -0.172,3.6 -0.343,5.4c-0.429,3.343 -1.2,6.6 -2.315,9.772c0,0.085 -0.085,0.085 -0.085,0.085c-0.086,0 -0.086,-0.171 0,-0.085" style="fill:none;stroke-width:1.29px;stroke-linecap:round;stroke-linejoin:round;stroke:#b3b3b3;"/><path d="M456.486,157.6c0.085,-0.086 0.085,0.171 -0.086,0.086c-0.086,-0.086 -0.086,-0.172 0,-0.257c0.429,-1.115 0.771,-2.229 1.029,-3.343c1.028,-4.286 2.142,-9.857 0.6,-14.143c-0.6,-1.8 -1.8,-3.257 -2.743,-4.8c-0.857,-1.286 -1.972,-2.572 -2.572,-4.029c-1.371,-3.085 -1.543,-7.028 0.172,-10.028c4.2,-7.543 17.571,-6 18.428,3.085" style="fill:none;stroke-width:1.29px;stroke-linecap:round;stroke-linejoin:round;stroke:#b3b3b3;"/><path d="M485.029,120.571c-2.658,3.258 -3.172,8.058 -1.115,11.743c0.086,0.086 0.257,0.086 0.172,0" style="fill:none;stroke-width:1.29px;stroke-linecap:round;stroke-linejoin:round;stroke:#b3b3b3;"/><path d="M448.514,111.571c1.715,0.172 3.343,1.029 4.543,2.315c1.2,1.285 1.886,3 1.886,4.714" style="fill:none;stroke-width:1.29px;stroke-linecap:round;stroke-linejoin:round;stroke:#b3b3b3;"/><path d="M466.171,117.229c2.486,0.514 5.143,-0.6 6.943,-2.4c1.8,-1.8 2.829,-4.286 3.343,-6.772c-0.171,0.086 -0.343,0.086 -0.514,0.172" style="fill:none;stroke-width:1.29px;stroke-linecap:round;stroke-linejoin:round;stroke:#b3b3b3;"/><path d="M473.886,114.571c0.685,2.658 3,4.543 5.571,5.486c3,1.114 6.514,1.029 9.429,-0.171c3,-1.2 5.485,-3.6 6.771,-6.6" style="fill:none;stroke-width:1.29px;stroke-linecap:round;stroke-linejoin:round;stroke:#b3b3b3;"/><path d="M489.914,119.286c2.143,0.257 4.2,1.371 5.743,2.914c1.543,1.543 2.486,3.686 2.657,5.829" style="fill:none;stroke-width:1.29px;stroke-linecap:round;stroke-linejoin:round;stroke:#b3b3b3;"/></g><circle cx="466.429" cy="132.657" r="6.429" style="fill:none;stroke-width:1.29px;stroke-linecap:round;stroke-linejoin:round;stroke:#ed1e79;"/><g><circle cx="262.357" cy="39.514" r="10" style="fill:#de8e8e;"/><circle cx="262.357" cy="39.514" r="5" style="fill:#d53b3b;"/><path d="M262.594,39.319l120.006,87.221l90.817,0" style="fill:none;stroke-width:0.75px;stroke-linecap:round;stroke-linejoin:round;stroke:#000;"/></g></g></g></svg>